<svg width="323" height="290" viewBox="0 0 323 290" fill="none" xmlns="http://www.w3.org/2000/svg">
<path d="M30.4146 71.4072C30.3836 71.0485 30.2723 70.7424 30.0806 70.4888C29.8888 70.2352 29.6229 70.0435 29.2827 69.9136C28.9487 69.7837 28.5529 69.7188 28.0952 69.7188C27.6375 69.7188 27.2448 69.7837 26.917 69.9136C26.5892 70.0435 26.3387 70.2259 26.1655 70.4609C25.9924 70.6898 25.9058 70.9526 25.9058 71.2495C25.8934 71.7072 26.0789 72.0659 26.4624 72.3257C26.8459 72.5793 27.3747 72.7834 28.0488 72.938L29.2549 73.2256C30.5228 73.5163 31.5093 73.9771 32.2144 74.6079C32.9256 75.2388 33.2812 76.0923 33.2812 77.1685C33.2812 77.9849 33.0741 78.6961 32.6597 79.3022C32.2515 79.9084 31.6546 80.3753 30.8691 80.7031C30.0898 81.0247 29.159 81.1855 28.0767 81.1855C26.9881 81.1917 26.0449 81.0278 25.2471 80.6938C24.4554 80.3537 23.8369 79.8589 23.3916 79.2095C22.9525 78.5539 22.7174 77.7529 22.6865 76.8066H25.3955C25.4264 77.2458 25.5563 77.62 25.7852 77.9292C26.014 78.2323 26.3201 78.4611 26.7036 78.6157C27.0933 78.7642 27.5417 78.8384 28.0488 78.8384C28.5312 78.8384 28.9549 78.7673 29.3198 78.625C29.6847 78.4827 29.9661 78.2848 30.1641 78.0312C30.362 77.7777 30.4609 77.4839 30.4609 77.1499C30.4609 76.853 30.3743 76.5994 30.2012 76.3892C30.028 76.1789 29.7744 76.0026 29.4404 75.8604C29.1126 75.7181 28.689 75.582 28.1694 75.4521L26.6943 75.0996C25.5192 74.8089 24.6162 74.3667 23.9854 73.7729C23.3545 73.173 23.0422 72.3937 23.0483 71.4351C23.0483 70.6372 23.2648 69.929 23.6978 69.3105C24.1307 68.6921 24.7306 68.2158 25.4976 67.8818C26.2707 67.5479 27.1458 67.3809 28.123 67.3809C29.1003 67.3809 29.9631 67.5509 30.7114 67.8911C31.466 68.2251 32.0505 68.6982 32.4648 69.3105C32.8792 69.9229 33.0895 70.6217 33.0957 71.4072H30.4146Z" fill="#DB5858"/>
<path d="M68.5737 67.5664L72.3125 76.6675H72.4702L76.1997 67.5664H79.6416V81H76.9326V72.1958H76.8213L73.3145 80.9351H71.4497L67.9521 72.1772H67.8408V81H65.1411V67.5664H68.5737Z" fill="black"/>
<path d="M111.603 67.5664H122.606V69.8672H118.487V81H115.731V69.8672H111.603V67.5664Z" fill="black"/>
<path d="M154.306 67.5664H157.34L159.594 76.9551H159.715L162.173 67.5664H164.808L167.276 76.9829H167.387L169.642 67.5664H172.675L168.844 81H166.107L163.546 72.1309H163.444L160.875 81H158.147L154.306 67.5664Z" fill="black"/>
<path d="M203.603 67.5664H214.606V69.8672H210.487V81H207.731V69.8672H203.603V67.5664Z" fill="black"/>
<path d="M247.141 67.5664H255.992V69.8672H249.924V73.1328H255.407V75.4243H249.924V81H247.141V67.5664Z" fill="black"/>
<path d="M295.415 71.4072C295.384 71.0485 295.272 70.7424 295.081 70.4888C294.889 70.2352 294.623 70.0435 294.283 69.9136C293.949 69.7837 293.553 69.7188 293.095 69.7188C292.638 69.7188 292.245 69.7837 291.917 69.9136C291.589 70.0435 291.339 70.2259 291.166 70.4609C290.992 70.6898 290.906 70.9526 290.906 71.2495C290.893 71.7072 291.079 72.0659 291.462 72.3257C291.846 72.5793 292.375 72.7834 293.049 72.938L294.255 73.2256C295.523 73.5163 296.509 73.9771 297.214 74.6079C297.926 75.2388 298.281 76.0923 298.281 77.1685C298.281 77.9849 298.074 78.6961 297.66 79.3022C297.251 79.9084 296.655 80.3753 295.869 80.7031C295.09 81.0247 294.159 81.1855 293.077 81.1855C291.988 81.1917 291.045 81.0278 290.247 80.6938C289.455 80.3537 288.837 79.8589 288.392 79.2095C287.952 78.5539 287.717 77.7529 287.687 76.8066H290.396C290.426 77.2458 290.556 77.62 290.785 77.9292C291.014 78.2323 291.32 78.4611 291.704 78.6157C292.093 78.7642 292.542 78.8384 293.049 78.8384C293.531 78.8384 293.955 78.7673 294.32 78.625C294.685 78.4827 294.966 78.2848 295.164 78.0312C295.362 77.7777 295.461 77.4839 295.461 77.1499C295.461 76.853 295.374 76.5994 295.201 76.3892C295.028 76.1789 294.774 76.0026 294.44 75.8604C294.113 75.7181 293.689 75.582 293.169 75.4521L291.694 75.0996C290.519 74.8089 289.616 74.3667 288.985 73.7729C288.354 73.173 288.042 72.3937 288.048 71.4351C288.048 70.6372 288.265 69.929 288.698 69.3105C289.131 68.6921 289.731 68.2158 290.498 67.8818C291.271 67.5479 292.146 67.3809 293.123 67.3809C294.1 67.3809 294.963 67.5509 295.711 67.8911C296.466 68.2251 297.05 68.6982 297.465 69.3105C297.879 69.9229 298.09 70.6217 298.096 71.4072H295.415Z" fill="#DB5858"/>
<rect x="15" y="90" width="295" height="1" rx="0.5" fill="#D9D9D9"/>
<rect x="15" y="129" width="295" height="1" rx="0.5" fill="#D9D9D9"/>
<rect x="15" y="168" width="295" height="1" rx="0.5" fill="#D9D9D9"/>
<rect x="15" y="207" width="295" height="1" rx="0.5" fill="#D9D9D9"/>
<rect x="15" y="246" width="295" height="1" rx="0.5" fill="#D9D9D9"/>
<path d="M205.935 118V115.739H208.975V106.847H206.41V105.118C207.835 104.852 208.785 104.491 209.697 103.94H211.768V115.739H214.409V118H205.935Z" fill="#9C9C9C"/>
<path d="M245.194 118V116.404C249.032 112.965 251.274 110.324 251.274 108.158C251.274 106.752 250.533 105.878 249.184 105.878C248.139 105.878 247.322 106.543 246.6 107.341L245.061 105.821C246.353 104.434 247.626 103.693 249.545 103.693C252.186 103.693 253.972 105.384 253.972 108.006C253.972 110.571 251.844 113.307 249.279 115.815C249.982 115.739 250.913 115.644 251.578 115.644H254.618V118H245.194Z" fill="#9C9C9C"/>
<path d="M290.583 118.266C288.36 118.266 286.859 117.449 285.871 116.309L287.201 114.542C288.037 115.359 289.044 116.005 290.317 116.005C291.761 116.005 292.73 115.283 292.73 114.029C292.73 112.642 291.913 111.787 288.854 111.787V109.773C291.438 109.773 292.274 108.899 292.274 107.645C292.274 106.543 291.59 105.878 290.393 105.878C289.386 105.878 288.569 106.353 287.733 107.132L286.308 105.403C287.524 104.358 288.873 103.693 290.507 103.693C293.224 103.693 295.067 105.023 295.067 107.436C295.067 108.937 294.231 110.058 292.73 110.628V110.723C294.326 111.179 295.542 112.338 295.542 114.2C295.542 116.784 293.281 118.266 290.583 118.266Z" fill="#999999" fill-opacity="0.6"/>
<path d="M35.7805 157V148.355C35.7805 147.538 35.8565 146.265 35.8945 145.429H35.8185C35.4575 146.189 35.0775 146.968 34.6785 147.728L32.5125 151.224H40.0555V153.371H29.7955V151.452L35.0205 142.94H38.3835V157H35.7805Z" fill="#999999" fill-opacity="0.6"/>
<path d="M76.6405 157.266C74.4175 157.266 72.9355 156.392 71.8715 155.347L73.1825 153.58C73.9615 154.359 74.9685 155.005 76.2605 155.005C77.7425 155.005 78.7495 154.074 78.7495 152.402C78.7495 150.768 77.7995 149.856 76.3935 149.856C75.5575 149.856 75.1015 150.065 74.2845 150.597L72.9925 149.761L73.3915 142.94H80.9155V145.277H75.8045L75.5385 148.26C76.0895 148.013 76.5835 147.88 77.2295 147.88C79.5855 147.88 81.5615 149.267 81.5615 152.345C81.5615 155.461 79.2245 157.266 76.6405 157.266Z" fill="#9C9C9C"/>
<path d="M121.381 157.266C118.721 157.266 116.327 155.119 116.327 150.16C116.327 144.935 118.93 142.693 121.78 142.693C123.49 142.693 124.744 143.396 125.599 144.289L124.098 145.942C123.623 145.391 122.749 144.935 121.951 144.935C120.241 144.935 118.892 146.246 118.892 150.16C118.892 153.808 119.956 155.157 121.343 155.157C122.388 155.157 123.243 154.283 123.243 152.573C123.243 150.901 122.445 150.141 121.248 150.141C120.469 150.141 119.576 150.559 118.873 151.718L118.759 149.818C119.5 148.773 120.811 148.165 121.761 148.165C124.117 148.165 125.808 149.552 125.808 152.573C125.808 155.461 123.775 157.266 121.381 157.266Z" fill="#9C9C9C"/>
<path d="M162.911 157C163.177 152.136 163.975 149.001 166.673 145.277H160.346V142.94H169.675V144.631C166.407 148.621 165.989 151.509 165.742 157H162.911Z" fill="#9C9C9C"/>
<path d="M209.982 157.266C207.284 157.266 205.289 155.727 205.289 153.523C205.289 151.718 206.391 150.521 207.683 149.837V149.761C206.619 148.982 205.821 147.899 205.821 146.417C205.821 144.156 207.626 142.712 210.077 142.712C212.566 142.712 214.162 144.194 214.162 146.436C214.162 147.842 213.269 149.001 212.357 149.666V149.761C213.649 150.464 214.713 151.585 214.713 153.523C214.713 155.651 212.813 157.266 209.982 157.266ZM210.875 148.982C211.559 148.26 211.882 147.462 211.882 146.626C211.882 145.467 211.179 144.669 210.02 144.669C209.051 144.669 208.291 145.296 208.291 146.417C208.291 147.728 209.393 148.393 210.875 148.982ZM210.039 155.29C211.255 155.29 212.11 154.625 212.11 153.409C212.11 151.946 210.799 151.357 208.994 150.597C208.215 151.205 207.683 152.155 207.683 153.2C207.683 154.473 208.728 155.29 210.039 155.29Z" fill="#9C9C9C"/>
<path d="M249.241 157.266C247.474 157.266 246.22 156.544 245.365 155.67L246.847 153.979C247.379 154.568 248.234 155.005 249.07 155.005C250.723 155.005 252.072 153.675 252.072 149.647C252.072 146.056 250.989 144.783 249.621 144.783C248.557 144.783 247.702 145.638 247.702 147.386C247.702 149.02 248.5 149.818 249.697 149.818C250.495 149.818 251.369 149.381 252.053 148.222L252.205 150.122C251.445 151.167 250.172 151.794 249.184 151.794C246.828 151.794 245.156 150.369 245.156 147.386C245.156 144.479 247.17 142.693 249.564 142.693C252.243 142.693 254.637 144.783 254.637 149.647C254.637 154.967 252.034 157.266 249.241 157.266Z" fill="#9C9C9C"/>
<path d="M282.832 157V154.739H285.872V145.847H283.307V144.118C284.732 143.852 285.682 143.491 286.594 142.94H288.665V154.739H291.306V157H282.832ZM298.105 157.266C295.236 157.266 293.336 154.777 293.336 149.913C293.336 145.068 295.236 142.693 298.105 142.693C300.955 142.693 302.855 145.068 302.855 149.913C302.855 154.777 300.955 157.266 298.105 157.266ZM298.105 155.081C299.321 155.081 300.214 153.865 300.214 149.913C300.214 145.98 299.321 144.84 298.105 144.84C296.889 144.84 295.977 145.98 295.977 149.913C295.977 153.865 296.889 155.081 298.105 155.081Z" fill="#999999" fill-opacity="0.6"/>
<path d="M24.832 195V192.739H27.872V183.847H25.307V182.118C26.732 181.852 27.682 181.491 28.594 180.94H30.665V192.739H33.306V195H24.832ZM36.039 195V192.739H39.079V183.847H36.514V182.118C37.939 181.852 38.889 181.491 39.801 180.94H41.872V192.739H44.513V195H36.039Z" fill="#999999" fill-opacity="0.6"/>
<path d="M67.832 195V192.739H70.872V183.847H68.307V182.118C69.732 181.852 70.682 181.491 71.594 180.94H73.665V192.739H76.306V195H67.832ZM78.298 195V193.404C82.136 189.965 84.378 187.324 84.378 185.158C84.378 183.752 83.637 182.878 82.288 182.878C81.243 182.878 80.426 183.543 79.704 184.341L78.165 182.821C79.457 181.434 80.73 180.693 82.649 180.693C85.29 180.693 87.076 182.384 87.076 185.006C87.076 187.571 84.948 190.307 82.383 192.815C83.086 192.739 84.017 192.644 84.682 192.644H87.722V195H78.298Z" fill="#9C9C9C"/>
<path d="M111.832 195V192.739H114.872V183.847H112.307V182.118C113.732 181.852 114.682 181.491 115.594 180.94H117.665V192.739H120.306V195H111.832ZM126.687 195.266C124.464 195.266 122.963 194.449 121.975 193.309L123.305 191.542C124.141 192.359 125.148 193.005 126.421 193.005C127.865 193.005 128.834 192.283 128.834 191.029C128.834 189.642 128.017 188.787 124.958 188.787V186.773C127.542 186.773 128.378 185.899 128.378 184.645C128.378 183.543 127.694 182.878 126.497 182.878C125.49 182.878 124.673 183.353 123.837 184.132L122.412 182.403C123.628 181.358 124.977 180.693 126.611 180.693C129.328 180.693 131.171 182.023 131.171 184.436C131.171 185.937 130.335 187.058 128.834 187.628V187.723C130.43 188.179 131.646 189.338 131.646 191.2C131.646 193.784 129.385 195.266 126.687 195.266Z" fill="#9C9C9C"/>
<path d="M154.832 195V192.739H157.872V183.847H155.307V182.118C156.732 181.852 157.682 181.491 158.594 180.94H160.665V192.739H163.306V195H154.832ZM170.884 195V186.355C170.884 185.538 170.96 184.265 170.998 183.429H170.922C170.561 184.189 170.181 184.968 169.782 185.728L167.616 189.224H175.159V191.371H164.899V189.452L170.124 180.94H173.487V195H170.884Z" fill="#9C9C9C"/>
<path d="M199.832 195V192.739H202.872V183.847H200.307V182.118C201.732 181.852 202.682 181.491 203.594 180.94H205.665V192.739H208.306V195H199.832ZM214.744 195.266C212.521 195.266 211.039 194.392 209.975 193.347L211.286 191.58C212.065 192.359 213.072 193.005 214.364 193.005C215.846 193.005 216.853 192.074 216.853 190.402C216.853 188.768 215.903 187.856 214.497 187.856C213.661 187.856 213.205 188.065 212.388 188.597L211.096 187.761L211.495 180.94H219.019V183.277H213.908L213.642 186.26C214.193 186.013 214.687 185.88 215.333 185.88C217.689 185.88 219.665 187.267 219.665 190.345C219.665 193.461 217.328 195.266 214.744 195.266Z" fill="#9C9C9C"/>
<path d="M240.832 195V192.739H243.872V183.847H241.307V182.118C242.732 181.852 243.682 181.491 244.594 180.94H246.665V192.739H249.306V195H240.832ZM256.485 195.266C253.825 195.266 251.431 193.119 251.431 188.16C251.431 182.935 254.034 180.693 256.884 180.693C258.594 180.693 259.848 181.396 260.703 182.289L259.202 183.942C258.727 183.391 257.853 182.935 257.055 182.935C255.345 182.935 253.996 184.246 253.996 188.16C253.996 191.808 255.06 193.157 256.447 193.157C257.492 193.157 258.347 192.283 258.347 190.573C258.347 188.901 257.549 188.141 256.352 188.141C255.573 188.141 254.68 188.559 253.977 189.718L253.863 187.818C254.604 186.773 255.915 186.165 256.865 186.165C259.221 186.165 260.912 187.552 260.912 190.573C260.912 193.461 258.879 195.266 256.485 195.266Z" fill="#9C9C9C"/>
<path d="M282.832 195V192.739H285.872V183.847H283.307V182.118C284.732 181.852 285.682 181.491 286.594 180.94H288.665V192.739H291.306V195H282.832ZM296.015 195C296.281 190.136 297.079 187.001 299.777 183.277H293.45V180.94H302.779V182.631C299.511 186.621 299.093 189.509 298.846 195H296.015Z" fill="#999999" fill-opacity="0.6"/>
<path d="M25.832 235V232.739H28.872V223.847H26.307V222.118C27.732 221.852 28.682 221.491 29.594 220.94H31.665V232.739H34.306V235H25.832ZM41.086 235.266C38.388 235.266 36.393 233.727 36.393 231.523C36.393 229.718 37.495 228.521 38.787 227.837V227.761C37.723 226.982 36.925 225.899 36.925 224.417C36.925 222.156 38.73 220.712 41.181 220.712C43.67 220.712 45.266 222.194 45.266 224.436C45.266 225.842 44.373 227.001 43.461 227.666V227.761C44.753 228.464 45.817 229.585 45.817 231.523C45.817 233.651 43.917 235.266 41.086 235.266ZM41.979 226.982C42.663 226.26 42.986 225.462 42.986 224.626C42.986 223.467 42.283 222.669 41.124 222.669C40.155 222.669 39.395 223.296 39.395 224.417C39.395 225.728 40.497 226.393 41.979 226.982ZM41.143 233.29C42.359 233.29 43.214 232.625 43.214 231.409C43.214 229.946 41.903 229.357 40.098 228.597C39.319 229.205 38.787 230.155 38.787 231.2C38.787 232.473 39.832 233.29 41.143 233.29Z" fill="#999999" fill-opacity="0.6"/>
<path d="M68.832 235V232.739H71.872V223.847H69.307V222.118C70.732 221.852 71.682 221.491 72.594 220.94H74.665V232.739H77.306V235H68.832ZM83.345 235.266C81.578 235.266 80.324 234.544 79.469 233.67L80.951 231.979C81.483 232.568 82.338 233.005 83.174 233.005C84.827 233.005 86.176 231.675 86.176 227.647C86.176 224.056 85.093 222.783 83.725 222.783C82.661 222.783 81.806 223.638 81.806 225.386C81.806 227.02 82.604 227.818 83.801 227.818C84.599 227.818 85.473 227.381 86.157 226.222L86.309 228.122C85.549 229.167 84.276 229.794 83.288 229.794C80.932 229.794 79.26 228.369 79.26 225.386C79.26 222.479 81.274 220.693 83.668 220.693C86.347 220.693 88.741 222.783 88.741 227.647C88.741 232.967 86.138 235.266 83.345 235.266Z" fill="#9C9C9C"/>
<path d="M112.091 235V233.404C115.929 229.965 118.171 227.324 118.171 225.158C118.171 223.752 117.43 222.878 116.081 222.878C115.036 222.878 114.219 223.543 113.497 224.341L111.958 222.821C113.25 221.434 114.523 220.693 116.442 220.693C119.083 220.693 120.869 222.384 120.869 225.006C120.869 227.571 118.741 230.307 116.176 232.815C116.879 232.739 117.81 232.644 118.475 232.644H121.515V235H112.091ZM128.105 235.266C125.236 235.266 123.336 232.777 123.336 227.913C123.336 223.068 125.236 220.693 128.105 220.693C130.955 220.693 132.855 223.068 132.855 227.913C132.855 232.777 130.955 235.266 128.105 235.266ZM128.105 233.081C129.321 233.081 130.214 231.865 130.214 227.913C130.214 223.98 129.321 222.84 128.105 222.84C126.889 222.84 125.977 223.98 125.977 227.913C125.977 231.865 126.889 233.081 128.105 233.081Z" fill="#9C9C9C"/>
<path d="M156.091 235V233.404C159.929 229.965 162.171 227.324 162.171 225.158C162.171 223.752 161.43 222.878 160.081 222.878C159.036 222.878 158.219 223.543 157.497 224.341L155.958 222.821C157.25 221.434 158.523 220.693 160.442 220.693C163.083 220.693 164.869 222.384 164.869 225.006C164.869 227.571 162.741 230.307 160.176 232.815C160.879 232.739 161.81 232.644 162.475 232.644H165.515V235H156.091ZM168.039 235V232.739H171.079V223.847H168.514V222.118C169.939 221.852 170.889 221.491 171.801 220.94H173.872V232.739H176.513V235H168.039Z" fill="#9C9C9C"/>
<path d="M200.091 235V233.404C203.929 229.965 206.171 227.324 206.171 225.158C206.171 223.752 205.43 222.878 204.081 222.878C203.036 222.878 202.219 223.543 201.497 224.341L199.958 222.821C201.25 221.434 202.523 220.693 204.442 220.693C207.083 220.693 208.869 222.384 208.869 225.006C208.869 227.571 206.741 230.307 204.176 232.815C204.879 232.739 205.81 232.644 206.475 232.644H209.515V235H200.091ZM211.298 235V233.404C215.136 229.965 217.378 227.324 217.378 225.158C217.378 223.752 216.637 222.878 215.288 222.878C214.243 222.878 213.426 223.543 212.704 224.341L211.165 222.821C212.457 221.434 213.73 220.693 215.649 220.693C218.29 220.693 220.076 222.384 220.076 225.006C220.076 227.571 217.948 230.307 215.383 232.815C216.086 232.739 217.017 232.644 217.682 232.644H220.722V235H211.298Z" fill="#9C9C9C"/>
<path d="M242.091 235V233.404C245.929 229.965 248.171 227.324 248.171 225.158C248.171 223.752 247.43 222.878 246.081 222.878C245.036 222.878 244.219 223.543 243.497 224.341L241.958 222.821C243.25 221.434 244.523 220.693 246.442 220.693C249.083 220.693 250.869 222.384 250.869 225.006C250.869 227.571 248.741 230.307 246.176 232.815C246.879 232.739 247.81 232.644 248.475 232.644H251.515V235H242.091ZM257.687 235.266C255.464 235.266 253.963 234.449 252.975 233.309L254.305 231.542C255.141 232.359 256.148 233.005 257.421 233.005C258.865 233.005 259.834 232.283 259.834 231.029C259.834 229.642 259.017 228.787 255.958 228.787V226.773C258.542 226.773 259.378 225.899 259.378 224.645C259.378 223.543 258.694 222.878 257.497 222.878C256.49 222.878 255.673 223.353 254.837 224.132L253.412 222.403C254.628 221.358 255.977 220.693 257.611 220.693C260.328 220.693 262.171 222.023 262.171 224.436C262.171 225.937 261.335 227.058 259.834 227.628V227.723C261.43 228.179 262.646 229.338 262.646 231.2C262.646 233.784 260.385 235.266 257.687 235.266Z" fill="#9C9C9C"/>
<path d="M283.091 235V233.404C286.929 229.965 289.171 227.324 289.171 225.158C289.171 223.752 288.43 222.878 287.081 222.878C286.036 222.878 285.219 223.543 284.497 224.341L282.958 222.821C284.25 221.434 285.523 220.693 287.442 220.693C290.083 220.693 291.869 222.384 291.869 225.006C291.869 227.571 289.741 230.307 287.176 232.815C287.879 232.739 288.81 232.644 289.475 232.644H292.515V235H283.091ZM299.884 235V226.355C299.884 225.538 299.96 224.265 299.998 223.429H299.922C299.561 224.189 299.181 224.968 298.782 225.728L296.616 229.224H304.159V231.371H293.899V229.452L299.124 220.94H302.487V235H299.884Z" fill="#999999" fill-opacity="0.6"/>
<path d="M25.091 271V269.404C28.929 265.965 31.171 263.324 31.171 261.158C31.171 259.752 30.43 258.878 29.081 258.878C28.036 258.878 27.219 259.543 26.497 260.341L24.958 258.821C26.25 257.434 27.523 256.693 29.442 256.693C32.083 256.693 33.869 258.384 33.869 261.006C33.869 263.571 31.741 266.307 29.176 268.815C29.879 268.739 30.81 268.644 31.475 268.644H34.515V271H25.091ZM40.744 271.266C38.521 271.266 37.039 270.392 35.975 269.347L37.286 267.58C38.065 268.359 39.072 269.005 40.364 269.005C41.846 269.005 42.853 268.074 42.853 266.402C42.853 264.768 41.903 263.856 40.497 263.856C39.661 263.856 39.205 264.065 38.388 264.597L37.096 263.761L37.495 256.94H45.019V259.277H39.908L39.642 262.26C40.193 262.013 40.687 261.88 41.333 261.88C43.689 261.88 45.665 263.267 45.665 266.345C45.665 269.461 43.328 271.266 40.744 271.266Z" fill="#999999" fill-opacity="0.6"/>
<path d="M68.091 271V269.404C71.929 265.965 74.171 263.324 74.171 261.158C74.171 259.752 73.43 258.878 72.081 258.878C71.036 258.878 70.219 259.543 69.497 260.341L67.958 258.821C69.25 257.434 70.523 256.693 72.442 256.693C75.083 256.693 76.869 258.384 76.869 261.006C76.869 263.571 74.741 266.307 72.176 268.815C72.879 268.739 73.81 268.644 74.475 268.644H77.515V271H68.091ZM84.485 271.266C81.825 271.266 79.431 269.119 79.431 264.16C79.431 258.935 82.034 256.693 84.884 256.693C86.594 256.693 87.848 257.396 88.703 258.289L87.202 259.942C86.727 259.391 85.853 258.935 85.055 258.935C83.345 258.935 81.996 260.246 81.996 264.16C81.996 267.808 83.06 269.157 84.447 269.157C85.492 269.157 86.347 268.283 86.347 266.573C86.347 264.901 85.549 264.141 84.352 264.141C83.573 264.141 82.68 264.559 81.977 265.718L81.863 263.818C82.604 262.773 83.915 262.165 84.865 262.165C87.221 262.165 88.912 263.552 88.912 266.573C88.912 269.461 86.879 271.266 84.485 271.266Z" fill="#9C9C9C"/>
<path d="M112.091 271V269.404C115.929 265.965 118.171 263.324 118.171 261.158C118.171 259.752 117.43 258.878 116.081 258.878C115.036 258.878 114.219 259.543 113.497 260.341L111.958 258.821C113.25 257.434 114.523 256.693 116.442 256.693C119.083 256.693 120.869 258.384 120.869 261.006C120.869 263.571 118.741 266.307 116.176 268.815C116.879 268.739 117.81 268.644 118.475 268.644H121.515V271H112.091ZM126.015 271C126.281 266.136 127.079 263.001 129.777 259.277H123.45V256.94H132.779V258.631C129.511 262.621 129.093 265.509 128.846 271H126.015Z" fill="#9C9C9C"/>
<path d="M156.091 271V269.404C159.929 265.965 162.171 263.324 162.171 261.158C162.171 259.752 161.43 258.878 160.081 258.878C159.036 258.878 158.219 259.543 157.497 260.341L155.958 258.821C157.25 257.434 158.523 256.693 160.442 256.693C163.083 256.693 164.869 258.384 164.869 261.006C164.869 263.571 162.741 266.307 160.176 268.815C160.879 268.739 161.81 268.644 162.475 268.644H165.515V271H156.091ZM172.086 271.266C169.388 271.266 167.393 269.727 167.393 267.523C167.393 265.718 168.495 264.521 169.787 263.837V263.761C168.723 262.982 167.925 261.899 167.925 260.417C167.925 258.156 169.73 256.712 172.181 256.712C174.67 256.712 176.266 258.194 176.266 260.436C176.266 261.842 175.373 263.001 174.461 263.666V263.761C175.753 264.464 176.817 265.585 176.817 267.523C176.817 269.651 174.917 271.266 172.086 271.266ZM172.979 262.982C173.663 262.26 173.986 261.462 173.986 260.626C173.986 259.467 173.283 258.669 172.124 258.669C171.155 258.669 170.395 259.296 170.395 260.417C170.395 261.728 171.497 262.393 172.979 262.982ZM172.143 269.29C173.359 269.29 174.214 268.625 174.214 267.409C174.214 265.946 172.903 265.357 171.098 264.597C170.319 265.205 169.787 266.155 169.787 267.2C169.787 268.473 170.832 269.29 172.143 269.29Z" fill="black"/>
<path d="M200.091 271V269.404C203.929 265.965 206.171 263.324 206.171 261.158C206.171 259.752 205.43 258.878 204.081 258.878C203.036 258.878 202.219 259.543 201.497 260.341L199.958 258.821C201.25 257.434 202.523 256.693 204.442 256.693C207.083 256.693 208.869 258.384 208.869 261.006C208.869 263.571 206.741 266.307 204.176 268.815C204.879 268.739 205.81 268.644 206.475 268.644H209.515V271H200.091ZM215.345 271.266C213.578 271.266 212.324 270.544 211.469 269.67L212.951 267.979C213.483 268.568 214.338 269.005 215.174 269.005C216.827 269.005 218.176 267.675 218.176 263.647C218.176 260.056 217.093 258.783 215.725 258.783C214.661 258.783 213.806 259.638 213.806 261.386C213.806 263.02 214.604 263.818 215.801 263.818C216.599 263.818 217.473 263.381 218.157 262.222L218.309 264.122C217.549 265.167 216.276 265.794 215.288 265.794C212.932 265.794 211.26 264.369 211.26 261.386C211.26 258.479 213.274 256.693 215.668 256.693C218.347 256.693 220.741 258.783 220.741 263.647C220.741 268.967 218.138 271.266 215.345 271.266Z" fill="black"/>
<path d="M246.48 271.266C244.257 271.266 242.756 270.449 241.768 269.309L243.098 267.542C243.934 268.359 244.941 269.005 246.214 269.005C247.658 269.005 248.627 268.283 248.627 267.029C248.627 265.642 247.81 264.787 244.751 264.787V262.773C247.335 262.773 248.171 261.899 248.171 260.645C248.171 259.543 247.487 258.878 246.29 258.878C245.283 258.878 244.466 259.353 243.63 260.132L242.205 258.403C243.421 257.358 244.77 256.693 246.404 256.693C249.121 256.693 250.964 258.023 250.964 260.436C250.964 261.937 250.128 263.058 248.627 263.628V263.723C250.223 264.179 251.439 265.338 251.439 267.2C251.439 269.784 249.178 271.266 246.48 271.266ZM258.105 271.266C255.236 271.266 253.336 268.777 253.336 263.913C253.336 259.068 255.236 256.693 258.105 256.693C260.955 256.693 262.855 259.068 262.855 263.913C262.855 268.777 260.955 271.266 258.105 271.266ZM258.105 269.081C259.321 269.081 260.214 267.865 260.214 263.913C260.214 259.98 259.321 258.84 258.105 258.84C256.889 258.84 255.977 259.98 255.977 263.913C255.977 267.865 256.889 269.081 258.105 269.081Z" fill="black"/>
<mask id="mask0_1004_731" style="mask-type:alpha" maskUnits="userSpaceOnUse" x="82" y="11" width="20" height="20">
<rect x="82" y="11" width="20" height="20" rx="1" fill="#D9D9D9"/>
</mask>
<g mask="url(#mask0_1004_731)">
<path d="M96.0404 28.6236C95.6499 29.0141 95.0168 29.0141 94.6262 28.6236L87.7071 21.7045C87.3166 21.314 87.3166 20.6808 87.7071 20.2903L94.6262 13.3712C95.0168 12.9806 95.6499 12.9806 96.0404 13.3712L96.1054 13.4361C96.4959 13.8266 96.4959 14.4598 96.1054 14.8503L90.6654 20.2903C90.2749 20.6808 90.2749 21.314 90.6654 21.7045L96.1054 27.1445C96.4959 27.535 96.4959 28.1681 96.1054 28.5587L96.0404 28.6236Z" fill="#1C1B1F"/>
</g>
<path d="M150.142 29.266C147.482 29.266 145.088 27.119 145.088 22.16C145.088 16.935 147.691 14.693 150.541 14.693C152.251 14.693 153.505 15.396 154.36 16.289L152.859 17.942C152.384 17.391 151.51 16.935 150.712 16.935C149.002 16.935 147.653 18.246 147.653 22.16C147.653 25.808 148.717 27.157 150.104 27.157C151.149 27.157 152.004 26.283 152.004 24.573C152.004 22.901 151.206 22.141 150.009 22.141C149.23 22.141 148.337 22.559 147.634 23.718L147.52 21.818C148.261 20.773 149.572 20.165 150.522 20.165C152.878 20.165 154.569 21.552 154.569 24.573C154.569 27.461 152.536 29.266 150.142 29.266ZM160.38 20.241H162.907V23.3H160.38V20.241ZM168.417 13.097H170.944V23.281H168.417V13.097ZM156.409 21.02L156.143 19.272C159.525 19.272 163.686 19.272 167.391 18.911L167.524 20.469C163.705 21.001 159.696 21.039 156.409 21.02ZM158.632 23.813H170.944V27.936H161.159V29.323H158.67V26.359H168.436V25.523H158.632V23.813ZM158.67 28.848H171.343V30.577H158.67V28.848ZM165.301 21.248H169.196V22.749H165.301V21.248ZM161.729 13.344C164.351 13.344 166.118 14.389 166.118 15.985C166.118 17.6 164.351 18.626 161.729 18.626C159.088 18.626 157.321 17.6 157.321 15.985C157.321 14.389 159.088 13.344 161.729 13.344ZM161.729 14.997C160.456 14.997 159.677 15.339 159.677 15.985C159.677 16.631 160.456 16.954 161.729 16.954C162.983 16.954 163.762 16.631 163.762 15.985C163.762 15.339 162.983 14.997 161.729 14.997Z" fill="black"/>
<mask id="mask1_1004_731" style="mask-type:alpha" maskUnits="userSpaceOnUse" x="215" y="11" width="20" height="20">
<rect width="20" height="20" rx="1" transform="matrix(-1 0 0 1 235 11)" fill="#D9D9D9"/>
</mask>
<g mask="url(#mask1_1004_731)">
<path d="M220.96 28.6236C221.35 29.0141 221.983 29.0141 222.374 28.6236L229.293 21.7045C229.683 21.314 229.683 20.6808 229.293 20.2903L222.374 13.3712C221.983 12.9806 221.35 12.9806 220.96 13.3712L220.895 13.4361C220.504 13.8266 220.504 14.4598 220.895 14.8503L226.335 20.2903C226.725 20.6808 226.725 21.314 226.335 21.7045L220.895 27.1445C220.504 27.535 220.504 28.1681 220.895 28.5587L220.96 28.6236Z" fill="#1C1B1F"/>
</g>
</svg>
