<svg width="285" height="39" viewBox="0 0 285 39" fill="none" xmlns="http://www.w3.org/2000/svg">
<rect width="285" height="39" rx="19.5" transform="matrix(1 0 0 -1 0 39)" fill="#8E6FFF"/>
<path d="M119.287 13.04H121.159V13.728C121.159 16.576 118.919 18.992 115.031 19.568L114.199 17.856C117.607 17.408 119.287 15.472 119.287 13.728V13.04ZM119.687 13.04H121.543V13.728C121.543 15.456 123.239 17.408 126.631 17.856L125.815 19.568C121.927 18.992 119.687 16.576 119.687 13.728V13.04ZM119.303 22H121.415V27.424H119.303V22ZM113.719 20.656H127.111V22.384H113.719V20.656ZM136.453 16.192H139.269V17.92H136.453V16.192ZM138.693 12.608H140.821V21.408H138.693V12.608ZM135.797 21.728C138.933 21.728 140.869 22.8 140.869 24.592C140.869 26.4 138.933 27.44 135.797 27.44C132.661 27.44 130.725 26.4 130.725 24.592C130.725 22.8 132.661 21.728 135.797 21.728ZM135.797 23.344C133.877 23.344 132.853 23.744 132.853 24.592C132.853 25.424 133.877 25.824 135.797 25.824C137.733 25.824 138.757 25.424 138.757 24.592C138.757 23.744 137.733 23.344 135.797 23.344ZM131.845 14.096H133.573V15.024C133.573 17.856 132.261 20.448 129.429 21.408L128.341 19.728C130.789 18.896 131.845 16.928 131.845 15.024V14.096ZM132.293 14.096H134.005V15.024C134.005 16.768 135.013 18.576 137.349 19.36L136.309 21.04C133.557 20.128 132.293 17.664 132.293 15.024V14.096ZM128.917 13.504H136.885V15.2H128.917V13.504ZM152.644 12.608H154.756V27.424H152.644V12.608ZM154.276 18.384H156.9V20.16H154.276V18.384ZM143.076 14.8H151.7V16.496H143.076V14.8ZM147.412 17.328C149.572 17.328 151.172 18.8 151.172 20.864C151.172 22.928 149.572 24.4 147.412 24.4C145.252 24.4 143.652 22.928 143.652 20.864C143.652 18.8 145.252 17.328 147.412 17.328ZM147.412 19.056C146.404 19.056 145.684 19.728 145.684 20.864C145.684 22 146.404 22.672 147.412 22.672C148.42 22.672 149.14 22 149.14 20.864C149.14 19.728 148.42 19.056 147.412 19.056ZM146.34 12.848H148.468V15.44H146.34V12.848ZM168.067 12.608H170.211V27.424H168.067V12.608ZM163.699 14.144H165.811C165.811 18.672 164.275 22.384 159.011 24.928L157.907 23.232C162.163 21.184 163.699 18.496 163.699 14.528V14.144ZM158.691 14.144H164.707V15.824H158.691V14.144Z" fill="white"/>
</svg>
