<svg width="20" height="25" viewBox="0 0 20 25" fill="none" xmlns="http://www.w3.org/2000/svg">
<path d="M9.87114 18.696C8.21914 18.696 7.05714 18.122 6.30114 17.24L7.44914 15.672C8.07914 16.26 8.80714 16.68 9.61914 16.68C10.5851 16.68 11.2151 16.274 11.2151 15.49C11.2151 14.594 10.7391 14.062 8.55514 14.062V12.298C10.3331 12.298 10.8931 11.766 10.8931 10.94C10.8931 10.226 10.4731 9.834 9.70314 9.834C9.00314 9.834 8.47114 10.142 7.84114 10.702L6.58114 9.176C7.54714 8.364 8.58314 7.888 9.81514 7.888C11.9711 7.888 13.3851 8.896 13.3851 10.758C13.3851 11.794 12.8251 12.606 11.7191 13.054V13.124C12.8671 13.474 13.7211 14.314 13.7211 15.658C13.7211 17.604 11.9431 18.696 9.87114 18.696Z" fill="black"/>
<path d="M20 13.5C20 19.0228 15.5228 23.5 10 23.5C4.47715 23.5 0 19.0228 0 13.5C0 7.97715 4.47715 3.5 10 3.5C15.5228 3.5 20 7.97715 20 13.5ZM2.3 13.5C2.3 17.7526 5.74741 21.2 10 21.2C14.2526 21.2 17.7 17.7526 17.7 13.5C17.7 9.24741 14.2526 5.8 10 5.8C5.74741 5.8 2.3 9.24741 2.3 13.5Z" fill="black"/>
</svg>
