<svg width="316" height="199" viewBox="0 0 316 199" fill="none" xmlns="http://www.w3.org/2000/svg">
<circle cx="25" cy="23" r="9" fill="#85FF72"/>
<path d="M62.23 168.445H64.225V182.335H62.23V168.445ZM59.545 173.77H63.19V175.39H59.545V173.77ZM57.67 169.885H59.635C59.635 174.1 58.3 177.535 53.485 179.95L52.435 178.39C56.365 176.44 57.67 173.92 57.67 170.245V169.885ZM53.095 169.885H58.72V171.46H53.095V169.885ZM73.9138 171.28H77.3488V172.855H73.9138V171.28ZM69.5488 169.615H71.1688V170.38C71.1688 172.72 69.8788 175.03 67.2238 175.81L66.2788 174.265C68.5138 173.545 69.5488 171.865 69.5488 170.38V169.615ZM69.9538 169.615H71.5738V170.38C71.5738 171.835 72.5188 173.335 74.6788 173.965L73.7638 175.525C71.1688 174.775 69.9538 172.69 69.9538 170.38V169.615ZM66.8038 168.955H74.2738V170.545H66.8038V168.955ZM76.0288 168.445H78.0238V175.495H76.0288V168.445ZM68.8438 176.05H78.0238V179.815H70.8388V181.555H68.8588V178.375H76.0438V177.595H68.8438V176.05ZM68.8588 180.655H78.4138V182.2H68.8588V180.655ZM89.1077 168.445H91.0877V182.335H89.1077V168.445ZM90.6377 173.86H93.0977V175.525H90.6377V173.86ZM80.1377 170.5H88.2227V172.09H80.1377V170.5ZM84.2027 172.87C86.2277 172.87 87.7277 174.25 87.7277 176.185C87.7277 178.12 86.2277 179.5 84.2027 179.5C82.1777 179.5 80.6777 178.12 80.6777 176.185C80.6777 174.25 82.1777 172.87 84.2027 172.87ZM84.2027 174.49C83.2577 174.49 82.5827 175.12 82.5827 176.185C82.5827 177.25 83.2577 177.88 84.2027 177.88C85.1477 177.88 85.8227 177.25 85.8227 176.185C85.8227 175.12 85.1477 174.49 84.2027 174.49ZM83.1977 168.67H85.1927V171.1H83.1977V168.67ZM103.566 168.445H105.576V182.335H103.566V168.445ZM99.4715 169.885H101.451C101.451 174.13 100.011 177.61 95.0765 179.995L94.0415 178.405C98.0315 176.485 99.4715 173.965 99.4715 170.245V169.885ZM94.7765 169.885H100.416V171.46H94.7765V169.885Z" fill="black"/>
<path d="M211.835 168.85H213.59V169.495C213.59 172.165 211.49 174.43 207.845 174.97L207.065 173.365C210.26 172.945 211.835 171.13 211.835 169.495V168.85ZM212.21 168.85H213.95V169.495C213.95 171.115 215.54 172.945 218.72 173.365L217.955 174.97C214.31 174.43 212.21 172.165 212.21 169.495V168.85ZM211.85 177.25H213.83V182.335H211.85V177.25ZM206.615 175.99H219.17V177.61H206.615V175.99ZM220.894 174.79H222.064C224.794 174.79 226.474 174.73 228.394 174.37L228.574 175.96C226.624 176.335 224.869 176.41 222.064 176.41H220.894V174.79ZM220.879 169.21H227.224V173.485H222.874V175.555H220.894V172H225.259V170.8H220.879V169.21ZM229.339 168.46H231.334V176.89H229.339V168.46ZM230.764 171.76H233.179V173.395H230.764V171.76ZM222.064 177.52H231.334V182.335H229.339V179.11H222.064V177.52ZM243.108 168.445H245.088V182.335H243.108V168.445ZM244.638 173.86H247.098V175.525H244.638V173.86ZM234.138 170.5H242.223V172.09H234.138V170.5ZM238.203 172.87C240.228 172.87 241.728 174.25 241.728 176.185C241.728 178.12 240.228 179.5 238.203 179.5C236.178 179.5 234.678 178.12 234.678 176.185C234.678 174.25 236.178 172.87 238.203 172.87ZM238.203 174.49C237.258 174.49 236.583 175.12 236.583 176.185C236.583 177.25 237.258 177.88 238.203 177.88C239.148 177.88 239.823 177.25 239.823 176.185C239.823 175.12 239.148 174.49 238.203 174.49ZM237.198 168.67H239.193V171.1H237.198V168.67ZM257.566 168.445H259.576V182.335H257.566V168.445ZM253.471 169.885H255.451C255.451 174.13 254.011 177.61 249.076 179.995L248.041 178.405C252.031 176.485 253.471 173.965 253.471 170.245V169.885ZM248.776 169.885H254.416V171.46H248.776V169.885Z" fill="black"/>
<rect x="1" y="1" width="314" height="197" rx="13" stroke="#6041FF" stroke-width="2"/>
</svg>
