<svg width="20" height="24" viewBox="0 0 20 24" fill="none" xmlns="http://www.w3.org/2000/svg">
<path d="M7.05714 18V15.984H9.26914V10.062H7.35114V8.522C8.47114 8.312 9.19914 8.032 9.92714 7.57H11.7611V15.984H13.6371V18H7.05714Z" fill="black"/>
<path d="M20 13C20 18.5228 15.5228 23 10 23C4.47715 23 0 18.5228 0 13C0 7.47715 4.47715 3 10 3C15.5228 3 20 7.47715 20 13ZM2.3 13C2.3 17.2526 5.74741 20.7 10 20.7C14.2526 20.7 17.7 17.2526 17.7 13C17.7 8.74741 14.2526 5.3 10 5.3C5.74741 5.3 2.3 8.74741 2.3 13Z" fill="black"/>
</svg>
