<svg width="18" height="18" viewBox="0 0 18 18" fill="none" xmlns="http://www.w3.org/2000/svg">
<mask id="mask0_1004_1083" style="mask-type:alpha" maskUnits="userSpaceOnUse" x="0" y="0" width="18" height="18">
<rect width="18" height="18" rx="1" transform="matrix(-1 0 0 1 18 0)" fill="#D9D9D9"/>
</mask>
<g mask="url(#mask0_1004_1083)">
<path d="M5.33438 15.8383C5.70199 16.2059 6.29801 16.2059 6.66563 15.8383L12.7929 9.71101C13.1834 9.32049 13.1834 8.68732 12.7929 8.2968L6.66563 2.16953C6.29801 1.80192 5.70199 1.80192 5.33438 2.16953V2.16953C4.96676 2.53715 4.96676 3.13317 5.33438 3.50078L10.1304 8.2968C10.5209 8.68732 10.5209 9.32049 10.1304 9.71101L5.33438 14.507C4.96676 14.8746 4.96676 15.4707 5.33438 15.8383V15.8383Z" fill="#A98AFF"/>
</g>
</svg>
