<svg width="83" height="27" viewBox="0 0 83 27" fill="none" xmlns="http://www.w3.org/2000/svg">
<rect width="83" height="27" rx="13.5" fill="#E2DBFF"/>
<path d="M15.2588 20V17.7324H18.4492C19.2637 17.7324 19.9434 17.5859 20.4883 17.293C21.0391 17 21.4521 16.5518 21.7275 15.9482C22.0029 15.3447 22.1406 14.5713 22.1406 13.6279C22.1406 12.6904 22 11.9199 21.7188 11.3164C21.4434 10.707 21.0332 10.2588 20.4883 9.97168C19.9492 9.68457 19.2754 9.54102 18.4668 9.54102H15.1973V7.27344H18.5986C19.8701 7.27344 20.9717 7.52539 21.9033 8.0293C22.835 8.5332 23.5469 9.26562 24.0391 10.2266C24.5371 11.1816 24.7861 12.3154 24.7861 13.6279C24.7861 14.9463 24.5371 16.083 24.0391 17.0381C23.541 17.9932 22.8232 18.7256 21.8857 19.2354C20.9541 19.7451 19.8467 20 18.5635 20H15.2588ZM16.7178 20H14.0811V7.27344H16.7178V20ZM32.5557 14.665H26.7549V12.5996H32.5557V14.665ZM35.9658 20V17.7324H39.1562C39.9707 17.7324 40.6504 17.5859 41.1953 17.293C41.7461 17 42.1592 16.5518 42.4346 15.9482C42.71 15.3447 42.8477 14.5713 42.8477 13.6279C42.8477 12.6904 42.707 11.9199 42.4258 11.3164C42.1504 10.707 41.7402 10.2588 41.1953 9.97168C40.6562 9.68457 39.9824 9.54102 39.1738 9.54102H35.9043V7.27344H39.3057C40.5771 7.27344 41.6787 7.52539 42.6104 8.0293C43.542 8.5332 44.2539 9.26562 44.7461 10.2266C45.2441 11.1816 45.4932 12.3154 45.4932 13.6279C45.4932 14.9463 45.2441 16.083 44.7461 17.0381C44.248 17.9932 43.5303 18.7256 42.5928 19.2354C41.6611 19.7451 40.5537 20 39.2705 20H35.9658ZM37.4248 20H34.7881V7.27344H37.4248V20ZM45.9766 20L50.3711 7.27344H53.7637L58.167 20H55.3281L52.1201 10.1475H52.0146L48.7979 20H45.9766ZM55.4512 14.999V17.0645H48.6572V14.999H55.4512ZM60.4961 7.27344L63.4316 12.7578H63.5459L66.4814 7.27344H69.4521L64.8027 15.4648V20H62.1748V15.4648L57.5342 7.27344H60.4961Z" fill="black"/>
</svg>
