<svg width="42" height="44" viewBox="0 0 42 44" fill="none" xmlns="http://www.w3.org/2000/svg">
<path d="M21.3184 31.5V19.89C21.3184 18.621 21.4264 16.704 21.4804 15.408H21.3724C20.8594 16.569 20.3194 17.73 19.7524 18.864L17.4574 22.833H28.0144V26.478H12.8674V23.157L19.8604 11.385H25.8004V31.5H21.3184Z" fill="black"/>
<path d="M42 22.5C42 34.098 32.598 43.5 21 43.5C9.40202 43.5 0 34.098 0 22.5C0 10.902 9.40202 1.5 21 1.5C32.598 1.5 42 10.902 42 22.5ZM5.25 22.5C5.25 31.1985 12.3015 38.25 21 38.25C29.6985 38.25 36.75 31.1985 36.75 22.5C36.75 13.8015 29.6985 6.75 21 6.75C12.3015 6.75 5.25 13.8015 5.25 22.5Z" fill="black"/>
</svg>
