<svg width="285" height="39" viewBox="0 0 285 39" fill="none" xmlns="http://www.w3.org/2000/svg">
<rect width="285" height="39" rx="19.5" transform="matrix(1 0 0 -1 0 39)" fill="#8E6FFF"/>
<path d="M107.347 12.608H109.491V20.576H107.347V12.608ZM99.6353 21.216H101.731V22.592H107.379V21.216H109.491V27.264H99.6353V21.216ZM101.731 24.224V25.568H107.379V24.224H101.731ZM101.427 13.216C103.731 13.216 105.443 14.672 105.443 16.72C105.443 18.768 103.731 20.224 101.427 20.224C99.1233 20.224 97.3953 18.768 97.3953 16.72C97.3953 14.672 99.1233 13.216 101.427 13.216ZM101.427 14.976C100.291 14.976 99.4753 15.632 99.4753 16.72C99.4753 17.824 100.291 18.464 101.427 18.464C102.547 18.464 103.363 17.824 103.363 16.72C103.363 15.632 102.547 14.976 101.427 14.976ZM112.45 19.664H113.586C116.338 19.664 117.778 19.616 119.458 19.312L119.666 20.992C117.938 21.312 116.418 21.36 113.586 21.36H112.45V19.664ZM112.434 13.456H118.946V18.128H114.562V20.784H112.45V16.544H116.834V15.136H112.434V13.456ZM122.162 12.624H124.29V21.744H122.162V12.624ZM119.794 14.656H122.546V16.352H119.794V14.656ZM119.794 17.808H122.546V19.504H119.794V17.808ZM114.146 22.416H124.29V27.44H122.162V24.112H114.146V22.416ZM135.818 13.04H137.69V13.728C137.69 16.576 135.45 18.992 131.562 19.568L130.73 17.856C134.138 17.408 135.818 15.472 135.818 13.728V13.04ZM136.218 13.04H138.074V13.728C138.074 15.456 139.77 17.408 143.162 17.856L142.346 19.568C138.458 18.992 136.218 16.576 136.218 13.728V13.04ZM135.834 22H137.946V27.424H135.834V22ZM130.25 20.656H143.642V22.384H130.25V20.656ZM152.985 16.192H155.801V17.92H152.985V16.192ZM155.225 12.608H157.353V21.408H155.225V12.608ZM152.329 21.728C155.465 21.728 157.401 22.8 157.401 24.592C157.401 26.4 155.465 27.44 152.329 27.44C149.193 27.44 147.257 26.4 147.257 24.592C147.257 22.8 149.193 21.728 152.329 21.728ZM152.329 23.344C150.409 23.344 149.385 23.744 149.385 24.592C149.385 25.424 150.409 25.824 152.329 25.824C154.265 25.824 155.289 25.424 155.289 24.592C155.289 23.744 154.265 23.344 152.329 23.344ZM148.377 14.096H150.105V15.024C150.105 17.856 148.793 20.448 145.961 21.408L144.873 19.728C147.321 18.896 148.377 16.928 148.377 15.024V14.096ZM148.825 14.096H150.537V15.024C150.537 16.768 151.545 18.576 153.881 19.36L152.841 21.04C150.089 20.128 148.825 17.664 148.825 15.024V14.096ZM145.449 13.504H153.417V15.2H145.449V13.504ZM169.175 12.608H171.287V27.424H169.175V12.608ZM170.807 18.384H173.431V20.16H170.807V18.384ZM159.607 14.8H168.231V16.496H159.607V14.8ZM163.943 17.328C166.103 17.328 167.703 18.8 167.703 20.864C167.703 22.928 166.103 24.4 163.943 24.4C161.783 24.4 160.183 22.928 160.183 20.864C160.183 18.8 161.783 17.328 163.943 17.328ZM163.943 19.056C162.935 19.056 162.215 19.728 162.215 20.864C162.215 22 162.935 22.672 163.943 22.672C164.951 22.672 165.671 22 165.671 20.864C165.671 19.728 164.951 19.056 163.943 19.056ZM162.871 12.848H164.999V15.44H162.871V12.848ZM184.598 12.608H186.742V27.424H184.598V12.608ZM180.23 14.144H182.342C182.342 18.672 180.806 22.384 175.542 24.928L174.438 23.232C178.694 21.184 180.23 18.496 180.23 14.528V14.144ZM175.222 14.144H181.238V15.824H175.222V14.144Z" fill="white"/>
</svg>
