<svg width="277" height="38" viewBox="0 0 277 38" fill="none" xmlns="http://www.w3.org/2000/svg">
<rect width="277" height="38" rx="19" fill="#8E6FFF"/>
<path d="M117.078 24.064H130.486V25.792H117.078V24.064ZM122.694 21.264H124.822V24.768H122.694V21.264ZM118.582 13.568H128.982V18.496H120.726V20.992H118.614V16.832H126.87V15.248H118.582V13.568ZM118.614 20.144H129.318V21.856H118.614V20.144ZM133.157 13.968H142.549V15.648H133.157V13.968ZM131.797 23.76H145.189V25.488H131.797V23.76ZM141.429 13.968H143.541V15.728C143.541 17.808 143.541 19.824 143.013 22.864L140.885 22.688C141.429 19.84 141.429 17.728 141.429 15.728V13.968ZM156.675 12.624H158.819V23.264H156.675V12.624ZM148.947 25.472H159.187V27.168H148.947V25.472ZM148.947 22.192H151.075V26.16H148.947V22.192ZM150.755 13.552C153.027 13.552 154.771 15.12 154.771 17.312C154.771 19.488 153.027 21.072 150.755 21.072C148.483 21.072 146.723 19.488 146.723 17.312C146.723 15.12 148.483 13.552 150.755 13.552ZM150.755 15.392C149.651 15.392 148.803 16.096 148.803 17.312C148.803 18.512 149.651 19.216 150.755 19.216C151.843 19.216 152.691 18.512 152.691 17.312C152.691 16.096 151.843 15.392 150.755 15.392Z" fill="white"/>
</svg>
