<svg width="76" height="25" viewBox="0 0 76 25" fill="none" xmlns="http://www.w3.org/2000/svg">
<rect x="0.200195" width="75" height="25" rx="12.5" fill="#A98AFF"/>
<path d="M21.2369 13.986H22.6999V15.636H21.2369V13.986ZM25.6919 7.793H27.1549V17.979H25.6919V7.793ZM18.8829 16.285L18.7069 15.108C20.5549 15.097 23.0189 15.097 25.1639 14.811L25.2629 15.867C23.0519 16.274 20.6869 16.285 18.8829 16.285ZM18.9049 8.915H25.0319V10.059H18.9049V8.915ZM21.9629 10.466C23.4699 10.466 24.5149 11.236 24.5149 12.369C24.5149 13.513 23.4699 14.283 21.9629 14.283C20.4779 14.283 19.4329 13.513 19.4329 12.369C19.4329 11.236 20.4779 10.466 21.9629 10.466ZM21.9629 11.566C21.3029 11.566 20.8299 11.852 20.8299 12.369C20.8299 12.897 21.3029 13.183 21.9629 13.183C22.6449 13.183 23.1179 12.897 23.1179 12.369C23.1179 11.852 22.6449 11.566 21.9629 11.566ZM21.2369 7.837H22.6999V9.575H21.2369V7.837ZM30.9221 13.018H32.3851V15.251H30.9221V13.018ZM35.3881 7.793H36.8511V15.504H35.3881V7.793ZM29.5141 16.637H37.0711V17.803H29.5141V16.637ZM29.5141 14.778H30.9771V16.945H29.5141V14.778ZM28.4141 13.458L28.2381 12.292C30.0971 12.292 32.5831 12.27 34.7171 11.995L34.8051 13.04C32.6381 13.403 30.2511 13.458 28.4141 13.458ZM33.4631 13.711H35.7071V14.712H33.4631V13.711ZM31.5161 8.145C33.0011 8.145 34.0461 8.882 34.0461 9.96C34.0461 11.049 33.0011 11.775 31.5161 11.775C30.0201 11.775 28.9751 11.049 28.9751 9.96C28.9751 8.882 30.0201 8.145 31.5161 8.145ZM31.5161 9.212C30.8341 9.212 30.3611 9.465 30.3611 9.96C30.3611 10.455 30.8341 10.708 31.5161 10.708C32.1871 10.708 32.6601 10.455 32.6601 9.96C32.6601 9.465 32.1871 9.212 31.5161 9.212ZM44.4022 7.782H45.8762V17.968H44.4022V7.782ZM45.4912 11.676H47.2842V12.875H45.4912V11.676ZM41.7292 8.838H43.1592C43.1592 11.896 41.9932 14.514 38.6052 16.219L37.7912 15.108C40.4642 13.722 41.7292 11.852 41.7292 9.091V8.838ZM38.3522 8.838H42.4772V10.015H38.3522V8.838ZM54.5053 7.793H55.9793V13.271H54.5053V7.793ZM49.2033 13.711H50.6443V14.657H54.5273V13.711H55.9793V17.869H49.2033V13.711ZM50.6443 15.779V16.703H54.5273V15.779H50.6443ZM50.4353 8.211C52.0193 8.211 53.1963 9.212 53.1963 10.62C53.1963 12.028 52.0193 13.029 50.4353 13.029C48.8513 13.029 47.6633 12.028 47.6633 10.62C47.6633 9.212 48.8513 8.211 50.4353 8.211ZM50.4353 9.421C49.6543 9.421 49.0933 9.872 49.0933 10.62C49.0933 11.379 49.6543 11.819 50.4353 11.819C51.2053 11.819 51.7663 11.379 51.7663 10.62C51.7663 9.872 51.2053 9.421 50.4353 9.421Z" fill="white"/>
</svg>
