<svg width="285" height="43" viewBox="0 0 285 43" fill="none" xmlns="http://www.w3.org/2000/svg">
<rect width="285" height="43" rx="13" fill="#D9D9D9"/>
<mask id="mask0_555_1097" style="mask-type:alpha" maskUnits="userSpaceOnUse" x="9" y="10" width="24" height="25">
<rect x="9" y="10.082" width="24" height="24" fill="#D9D9D9"/>
</mask>
<g mask="url(#mask0_555_1097)">
<path d="M14.85 27.1781C15.7 26.5281 16.65 26.0156 17.7 25.6406C18.75 25.2656 19.85 25.0781 21 25.0781C22.15 25.0781 23.25 25.2656 24.3 25.6406C25.35 26.0156 26.3 26.5281 27.15 27.1781C27.7333 26.4948 28.1875 25.7198 28.5125 24.8531C28.8375 23.9865 29 23.0615 29 22.0781C29 19.8615 28.2208 17.974 26.6625 16.4156C25.1042 14.8573 23.2167 14.0781 21 14.0781C18.7833 14.0781 16.8958 14.8573 15.3375 16.4156C13.7792 17.974 13 19.8615 13 22.0781C13 23.0615 13.1625 23.9865 13.4875 24.8531C13.8125 25.7198 14.2667 26.4948 14.85 27.1781ZM21 23.0781C20.0167 23.0781 19.1875 22.7406 18.5125 22.0656C17.8375 21.3906 17.5 20.5615 17.5 19.5781C17.5 18.5948 17.8375 17.7656 18.5125 17.0906C19.1875 16.4156 20.0167 16.0781 21 16.0781C21.9833 16.0781 22.8125 16.4156 23.4875 17.0906C24.1625 17.7656 24.5 18.5948 24.5 19.5781C24.5 20.5615 24.1625 21.3906 23.4875 22.0656C22.8125 22.7406 21.9833 23.0781 21 23.0781ZM21 32.0781C19.6167 32.0781 18.3167 31.8156 17.1 31.2906C15.8833 30.7656 14.825 30.0531 13.925 29.1531C13.025 28.2531 12.3125 27.1948 11.7875 25.9781C11.2625 24.7615 11 23.4615 11 22.0781C11 20.6948 11.2625 19.3948 11.7875 18.1781C12.3125 16.9615 13.025 15.9031 13.925 15.0031C14.825 14.1031 15.8833 13.3906 17.1 12.8656C18.3167 12.3406 19.6167 12.0781 21 12.0781C22.3833 12.0781 23.6833 12.3406 24.9 12.8656C26.1167 13.3906 27.175 14.1031 28.075 15.0031C28.975 15.9031 29.6875 16.9615 30.2125 18.1781C30.7375 19.3948 31 20.6948 31 22.0781C31 23.4615 30.7375 24.7615 30.2125 25.9781C29.6875 27.1948 28.975 28.2531 28.075 29.1531C27.175 30.0531 26.1167 30.7656 24.9 31.2906C23.6833 31.8156 22.3833 32.0781 21 32.0781ZM21 30.0781C21.8833 30.0781 22.7167 29.949 23.5 29.6906C24.2833 29.4323 25 29.0615 25.65 28.5781C25 28.0948 24.2833 27.724 23.5 27.4656C22.7167 27.2073 21.8833 27.0781 21 27.0781C20.1167 27.0781 19.2833 27.2073 18.5 27.4656C17.7167 27.724 17 28.0948 16.35 28.5781C17 29.0615 17.7167 29.4323 18.5 29.6906C19.2833 29.949 20.1167 30.0781 21 30.0781ZM21 21.0781C21.4333 21.0781 21.7917 20.9365 22.075 20.6531C22.3583 20.3698 22.5 20.0115 22.5 19.5781C22.5 19.1448 22.3583 18.7865 22.075 18.5031C21.7917 18.2198 21.4333 18.0781 21 18.0781C20.5667 18.0781 20.2083 18.2198 19.925 18.5031C19.6417 18.7865 19.5 19.1448 19.5 19.5781C19.5 20.0115 19.6417 20.3698 19.925 20.6531C20.2083 20.9365 20.5667 21.0781 21 21.0781Z" fill="#888888"/>
</g>
</svg>
