<svg width="21" height="21" viewBox="0 0 21 21" fill="none" xmlns="http://www.w3.org/2000/svg">
<circle cx="10.5" cy="10.5" r="10.5" fill="#8E6FFF"/>
<mask id="mask0_1077_850" style="mask-type:alpha" maskUnits="userSpaceOnUse" x="2" y="2" width="17" height="18">
<rect x="2.10059" y="2.79688" width="16.8" height="16.8" rx="1" fill="#D9D9D9"/>
</mask>
<g mask="url(#mask0_1077_850)">
<path d="M9.49203 14.6909C9.1015 15.0814 8.46834 15.0814 8.07782 14.6909L5.29367 11.9067C5.01822 11.6313 5.01822 11.1847 5.29367 10.9092V10.9092C5.56912 10.6338 6.01572 10.6338 6.29117 10.9092L8.07782 12.6959C8.46834 13.0864 9.1015 13.0864 9.49203 12.6959L14.7087 7.47922C14.9841 7.20377 15.4307 7.20377 15.7062 7.47922V7.47922C15.9816 7.75467 15.9816 8.20127 15.7062 8.47672L9.49203 14.6909Z" fill="white"/>
</g>
</svg>
