<svg width="248" height="34" viewBox="0 0 248 34" fill="none" xmlns="http://www.w3.org/2000/svg">
<rect width="248" height="34" rx="17" transform="matrix(1 0 0 -1 0 34)" fill="#8E6FFF"/>
<path d="M86.7879 11.268H88.6639V24.274H86.7879V11.268ZM81.6779 12.178C83.6379 12.178 85.0799 13.97 85.0799 16.798C85.0799 19.654 83.6379 21.446 81.6779 21.446C79.7179 21.446 78.2759 19.654 78.2759 16.798C78.2759 13.97 79.7179 12.178 81.6779 12.178ZM81.6779 13.872C80.7119 13.872 80.0539 14.894 80.0539 16.798C80.0539 18.73 80.7119 19.766 81.6779 19.766C82.6439 19.766 83.2879 18.73 83.2879 16.798C83.2879 14.894 82.6439 13.872 81.6779 13.872ZM91.1408 12.612H96.2648V21.012H91.1408V12.612ZM94.5288 14.068H92.8768V19.556H94.5288V14.068ZM100.143 11.282H101.921V24.246H100.143V11.282ZM95.3268 15.986H98.2388V17.484H95.3268V15.986ZM97.4968 11.478H99.2468V23.658H97.4968V11.478ZM107.31 11.66C109.284 11.66 110.768 12.892 110.768 14.628C110.768 16.35 109.284 17.582 107.31 17.582C105.336 17.582 103.852 16.35 103.852 14.628C103.852 12.892 105.336 11.66 107.31 11.66ZM107.31 13.172C106.358 13.172 105.644 13.704 105.644 14.628C105.644 15.552 106.358 16.084 107.31 16.084C108.262 16.084 108.962 15.552 108.962 14.628C108.962 13.704 108.262 13.172 107.31 13.172ZM112.56 11.282H114.436V17.764H112.56V11.282ZM105.784 18.296H114.436V21.852H107.632V23.42H105.812V20.508H112.588V19.738H105.784V18.296ZM105.812 22.664H114.758V24.106H105.812V22.664ZM126.062 13.452H129.366V14.922H126.062V13.452ZM126.062 16.238H129.422V17.708H126.062V16.238ZM128.694 11.296H130.556V20.858H128.694V11.296ZM121.974 22.538H130.836V24.022H121.974V22.538ZM121.974 19.92H123.85V23.392H121.974V19.92ZM120.252 12.136H122.1V14.11H124.564V12.136H126.384V18.828H120.252V12.136ZM122.1 15.524V17.358H124.564V15.524H122.1ZM138.829 13.326H141.867V14.81H138.829V13.326ZM138.731 16.014H141.769V17.498H138.731V16.014ZM141.573 11.282H143.435V18.744H141.573V11.282ZM137.345 12.164H139.333C139.333 15.692 137.345 17.96 133.411 19.038L132.683 17.568C135.973 16.714 137.345 15.09 137.345 13.06V12.164ZM133.397 12.164H138.647V13.648H133.397V12.164ZM139.137 18.912C141.769 18.912 143.519 19.92 143.519 21.544C143.519 23.168 141.769 24.19 139.137 24.19C136.505 24.19 134.755 23.168 134.755 21.544C134.755 19.92 136.505 18.912 139.137 18.912ZM139.137 20.34C137.555 20.34 136.603 20.746 136.603 21.544C136.603 22.342 137.555 22.734 139.137 22.734C140.733 22.734 141.685 22.342 141.685 21.544C141.685 20.746 140.733 20.34 139.137 20.34ZM153.78 11.282H155.628V24.246H153.78V11.282ZM155.208 16.336H157.504V17.89H155.208V16.336ZM145.408 13.2H152.954V14.684H145.408V13.2ZM149.202 15.412C151.092 15.412 152.492 16.7 152.492 18.506C152.492 20.312 151.092 21.6 149.202 21.6C147.312 21.6 145.912 20.312 145.912 18.506C145.912 16.7 147.312 15.412 149.202 15.412ZM149.202 16.924C148.32 16.924 147.69 17.512 147.69 18.506C147.69 19.5 148.32 20.088 149.202 20.088C150.084 20.088 150.714 19.5 150.714 18.506C150.714 17.512 150.084 16.924 149.202 16.924ZM148.264 11.492H150.126V13.76H148.264V11.492ZM167.275 11.282H169.151V24.246H167.275V11.282ZM163.453 12.626H165.301C165.301 16.588 163.957 19.836 159.351 22.062L158.385 20.578C162.109 18.786 163.453 16.434 163.453 12.962V12.626ZM159.071 12.626H164.335V14.096H159.071V12.626Z" fill="white"/>
</svg>
