<svg width="18" height="18" viewBox="0 0 18 18" fill="none" xmlns="http://www.w3.org/2000/svg">
<mask id="mask0_1077_827" style="mask-type:alpha" maskUnits="userSpaceOnUse" x="0" y="0" width="18" height="18">
<rect width="18" height="18" fill="#D9D9D9"/>
</mask>
<g mask="url(#mask0_1077_827)">
<path d="M3.75 14.25H4.8L11.2688 7.78125L10.2188 6.73125L3.75 13.2V14.25ZM14.475 6.69375L11.2875 3.54375L12.3375 2.49375C12.625 2.20625 12.9781 2.0625 13.3969 2.0625C13.8156 2.0625 14.1687 2.20625 14.4562 2.49375L15.5063 3.54375C15.7938 3.83125 15.9437 4.17812 15.9562 4.58437C15.9687 4.99062 15.8313 5.3375 15.5438 5.625L14.475 6.69375ZM13.3875 7.8L5.4375 15.75H2.25V12.5625L10.2 4.6125L13.3875 7.8Z" fill="#1C1B1F"/>
</g>
</svg>
