<svg width="21" height="21" viewBox="0 0 21 21" fill="none" xmlns="http://www.w3.org/2000/svg">
<g clip-path="url(#clip0_1077_994)">
<mask id="mask0_1077_994" style="mask-type:alpha" maskUnits="userSpaceOnUse" x="1" y="1" width="23" height="23">
<rect x="1" y="1" width="23" height="23" rx="1" fill="#D9D9D9"/>
</mask>
<g mask="url(#mask0_1077_994)">
<path d="M10.8883 16.7591C10.4252 16.7591 10.0498 16.3837 10.0498 15.9206V12.7279C10.0498 12.1756 9.60209 11.7279 9.0498 11.7279H5.8571C5.39398 11.7279 5.01855 11.3524 5.01855 10.8893V10.8893C5.01855 10.4262 5.39398 10.0508 5.8571 10.0508H9.0498C9.60209 10.0508 10.0498 9.60307 10.0498 9.05078V5.85807C10.0498 5.39496 10.4252 5.01953 10.8883 5.01953V5.01953C11.3515 5.01953 11.7269 5.39496 11.7269 5.85807V9.05078C11.7269 9.60307 12.1746 10.0508 12.7269 10.0508H15.9196C16.3827 10.0508 16.7581 10.4262 16.7581 10.8893V10.8893C16.7581 11.3524 16.3827 11.7279 15.9196 11.7279H12.7269C12.1746 11.7279 11.7269 12.1756 11.7269 12.7279V15.9206C11.7269 16.3837 11.3515 16.7591 10.8883 16.7591V16.7591Z" fill="#1C1B1F"/>
</g>
<circle cx="10.6415" cy="10.6415" r="8.86654" stroke="black" stroke-width="1.8"/>
</g>
<defs>
<clipPath id="clip0_1077_994">
<rect width="21" height="21" fill="white"/>
</clipPath>
</defs>
</svg>
