<svg width="248" height="34" viewBox="0 0 248 34" fill="none" xmlns="http://www.w3.org/2000/svg">
<path d="M98.8162 21.306H110.548V22.818H98.8162V21.306ZM103.73 18.856H105.592V21.922H103.73V18.856ZM100.132 12.122H109.232V16.434H102.008V18.618H100.16V14.978H107.384V13.592H100.132V12.122ZM100.16 17.876H109.526V19.374H100.16V17.876ZM112.885 12.472H121.103V13.942H112.885V12.472ZM111.695 21.04H123.413V22.552H111.695V21.04ZM120.123 12.472H121.971V14.012C121.971 15.832 121.971 17.596 121.509 20.256L119.647 20.102C120.123 17.61 120.123 15.762 120.123 14.012V12.472ZM128.032 12.178C130.006 12.178 131.434 13.97 131.434 16.798C131.434 19.654 130.006 21.446 128.032 21.446C126.058 21.446 124.63 19.654 124.63 16.798C124.63 13.97 126.058 12.178 128.032 12.178ZM128.032 13.872C127.066 13.872 126.422 14.894 126.422 16.798C126.422 18.73 127.066 19.766 128.032 19.766C128.998 19.766 129.656 18.73 129.656 16.798C129.656 14.894 128.998 13.872 128.032 13.872ZM132.848 11.282H134.724V24.246H132.848V11.282ZM134.304 16.168H136.6V17.708H134.304V16.168ZM137.439 16.966H149.171V18.464H137.439V16.966ZM142.353 17.624H144.201V19.682H142.353V17.624ZM142.311 20.2H143.893V20.424C143.893 22.314 142.129 23.896 138.797 24.204L138.195 22.804C141.023 22.552 142.311 21.418 142.311 20.424V20.2ZM142.647 20.2H144.229V20.424C144.229 21.488 145.475 22.566 148.345 22.804L147.757 24.204C144.439 23.896 142.647 22.398 142.647 20.424V20.2ZM143.305 11.422C146.175 11.422 147.995 12.332 147.995 13.872C147.995 15.412 146.175 16.322 143.305 16.322C140.435 16.322 138.615 15.412 138.615 13.872C138.615 12.332 140.435 11.422 143.305 11.422ZM143.305 12.808C141.513 12.808 140.533 13.158 140.533 13.872C140.533 14.558 141.513 14.922 143.305 14.922C145.083 14.922 146.077 14.558 146.077 13.872C146.077 13.158 145.083 12.808 143.305 12.808Z" fill="black"/>
<rect x="0.75" y="-0.75" width="246.5" height="32.5" rx="16.25" transform="matrix(1 0 0 -1 0 32.5)" stroke="#6041FF" stroke-width="1.5"/>
</svg>
