<svg width="19" height="19" viewBox="0 0 19 19" fill="none" xmlns="http://www.w3.org/2000/svg">
<mask id="mask0_1077_990" style="mask-type:alpha" maskUnits="userSpaceOnUse" x="0" y="0" width="19" height="19">
<rect width="19" height="19" fill="#D9D9D9"/>
</mask>
<g mask="url(#mask0_1077_990)">
<path d="M9.49967 13.457C9.72398 13.457 9.912 13.3812 10.0637 13.2294C10.2155 13.0777 10.2913 12.8897 10.2913 12.6654C10.2913 12.4411 10.2155 12.253 10.0637 12.1013C9.912 11.9496 9.72398 11.8737 9.49967 11.8737C9.27537 11.8737 9.08735 11.9496 8.93561 12.1013C8.78388 12.253 8.70801 12.4411 8.70801 12.6654C8.70801 12.8897 8.78388 13.0777 8.93561 13.2294C9.08735 13.3812 9.27537 13.457 9.49967 13.457ZM8.70801 10.2904H10.2913V5.54036H8.70801V10.2904ZM9.49967 17.4154C8.40454 17.4154 7.37537 17.2076 6.41217 16.7919C5.44898 16.3763 4.61113 15.8122 3.89863 15.0997C3.18613 14.3872 2.62207 13.5494 2.20645 12.5862C1.79082 11.623 1.58301 10.5938 1.58301 9.4987C1.58301 8.40356 1.79082 7.37439 2.20645 6.4112C2.62207 5.448 3.18613 4.61016 3.89863 3.89766C4.61113 3.18516 5.44898 2.62109 6.41217 2.20547C7.37537 1.78984 8.40454 1.58203 9.49967 1.58203C10.5948 1.58203 11.624 1.78984 12.5872 2.20547C13.5504 2.62109 14.3882 3.18516 15.1007 3.89766C15.8132 4.61016 16.3773 5.448 16.7929 6.4112C17.2085 7.37439 17.4163 8.40356 17.4163 9.4987C17.4163 10.5938 17.2085 11.623 16.7929 12.5862C16.3773 13.5494 15.8132 14.3872 15.1007 15.0997C14.3882 15.8122 13.5504 16.3763 12.5872 16.7919C11.624 17.2076 10.5948 17.4154 9.49967 17.4154ZM9.49967 15.832C11.2677 15.832 12.7653 15.2185 13.9924 13.9914C15.2195 12.7643 15.833 11.2668 15.833 9.4987C15.833 7.73064 15.2195 6.23307 13.9924 5.00599C12.7653 3.77891 11.2677 3.16536 9.49967 3.16536C7.73162 3.16536 6.23405 3.77891 5.00697 5.00599C3.77988 6.23307 3.16634 7.73064 3.16634 9.4987C3.16634 11.2668 3.77988 12.7643 5.00697 13.9914C6.23405 15.2185 7.73162 15.832 9.49967 15.832Z" fill="#D13333"/>
</g>
</svg>
