<svg width="248" height="34" viewBox="0 0 248 34" fill="none" xmlns="http://www.w3.org/2000/svg">
<rect width="248" height="34" rx="17" transform="matrix(1 0 0 -1 0 34)" fill="#8E6FFF"/>
<path d="M80.3484 11.268H82.2244V24.274H80.3484V11.268ZM72.1024 12.304H73.9504V15.454H76.6244V12.304H78.4724V21.25H72.1024V12.304ZM73.9504 16.896V19.752H76.6244V16.896H73.9504ZM84.9953 11.926H91.2813V17.414H84.9953V11.926ZM89.4613 13.382H86.8153V15.958H89.4613V13.382ZM93.2413 11.282H95.1173V17.82H93.2413V11.282ZM86.4653 18.38H95.1173V21.908H88.3133V23.224H86.4793V20.578H93.2693V19.808H86.4653V18.38ZM86.4793 22.72H95.4393V24.162H86.4793V22.72ZM103.348 14.726H106.68V16.21H103.348V14.726ZM106.204 11.296H108.066V20.858H106.204V11.296ZM99.4843 22.538H108.346V24.022H99.4843V22.538ZM99.4843 19.92H101.36V23.392H99.4843V19.92ZM97.7623 12.136H99.6103V14.11H102.074V12.136H103.894V18.828H97.7623V12.136ZM99.6103 15.524V17.358H102.074V15.524H99.6103ZM110.599 12.892H121.295V14.376H110.599V12.892ZM110.109 21.446H121.841V22.944H110.109V21.446ZM115.023 19.738H116.871V22.034H115.023V19.738ZM115.933 14.936C118.635 14.936 120.329 15.874 120.329 17.47C120.329 19.066 118.635 20.004 115.933 20.004C113.231 20.004 111.537 19.066 111.537 17.47C111.537 15.874 113.231 14.936 115.933 14.936ZM115.933 16.378C114.309 16.378 113.441 16.728 113.441 17.47C113.441 18.212 114.309 18.548 115.933 18.548C117.557 18.548 118.425 18.212 118.425 17.47C118.425 16.728 117.557 16.378 115.933 16.378ZM115.023 11.422H116.871V13.816H115.023V11.422ZM132.502 13.452H135.806V14.922H132.502V13.452ZM132.502 16.238H135.862V17.708H132.502V16.238ZM135.134 11.296H136.996V20.858H135.134V11.296ZM128.414 22.538H137.276V24.022H128.414V22.538ZM128.414 19.92H130.29V23.392H128.414V19.92ZM126.692 12.136H128.54V14.11H131.004V12.136H132.824V18.828H126.692V12.136ZM128.54 15.524V17.358H131.004V15.524H128.54ZM145.269 13.326H148.307V14.81H145.269V13.326ZM145.171 16.014H148.209V17.498H145.171V16.014ZM148.013 11.282H149.875V18.744H148.013V11.282ZM143.785 12.164H145.773C145.773 15.692 143.785 17.96 139.851 19.038L139.123 17.568C142.413 16.714 143.785 15.09 143.785 13.06V12.164ZM139.837 12.164H145.087V13.648H139.837V12.164ZM145.577 18.912C148.209 18.912 149.959 19.92 149.959 21.544C149.959 23.168 148.209 24.19 145.577 24.19C142.945 24.19 141.195 23.168 141.195 21.544C141.195 19.92 142.945 18.912 145.577 18.912ZM145.577 20.34C143.995 20.34 143.043 20.746 143.043 21.544C143.043 22.342 143.995 22.734 145.577 22.734C147.173 22.734 148.125 22.342 148.125 21.544C148.125 20.746 147.173 20.34 145.577 20.34ZM160.22 11.282H162.068V24.246H160.22V11.282ZM161.648 16.336H163.944V17.89H161.648V16.336ZM151.848 13.2H159.394V14.684H151.848V13.2ZM155.642 15.412C157.532 15.412 158.932 16.7 158.932 18.506C158.932 20.312 157.532 21.6 155.642 21.6C153.752 21.6 152.352 20.312 152.352 18.506C152.352 16.7 153.752 15.412 155.642 15.412ZM155.642 16.924C154.76 16.924 154.13 17.512 154.13 18.506C154.13 19.5 154.76 20.088 155.642 20.088C156.524 20.088 157.154 19.5 157.154 18.506C157.154 17.512 156.524 16.924 155.642 16.924ZM154.704 11.492H156.566V13.76H154.704V11.492ZM173.715 11.282H175.591V24.246H173.715V11.282ZM169.893 12.626H171.741C171.741 16.588 170.397 19.836 165.791 22.062L164.825 20.578C168.549 18.786 169.893 16.434 169.893 12.962V12.626ZM165.511 12.626H170.775V14.096H165.511V12.626Z" fill="white"/>
</svg>
