<svg width="248" height="34" viewBox="0 0 248 34" fill="none" xmlns="http://www.w3.org/2000/svg">
<path d="M89.3353 14.698H91.9673V16.182H89.3353V14.698ZM89.2653 17.932H91.9113V19.416H89.2653V17.932ZM93.7313 11.282H95.5093V24.246H93.7313V11.282ZM91.0573 11.562H92.7933V23.672H91.0573V11.562ZM88.1313 12.808H89.9233C89.9233 16.49 88.8173 19.43 85.2053 21.558L84.1553 20.256C87.0813 18.478 88.1313 16.322 88.1313 13.186V12.808ZM84.8973 12.808H88.7613V14.292H84.8973V12.808ZM104.244 14.418H106.708V15.93H104.244V14.418ZM106.204 11.282H108.066V18.982H106.204V11.282ZM103.67 19.262C106.414 19.262 108.108 20.2 108.108 21.768C108.108 23.35 106.414 24.26 103.67 24.26C100.926 24.26 99.2323 23.35 99.2323 21.768C99.2323 20.2 100.926 19.262 103.67 19.262ZM103.67 20.676C101.99 20.676 101.094 21.026 101.094 21.768C101.094 22.496 101.99 22.846 103.67 22.846C105.364 22.846 106.26 22.496 106.26 21.768C106.26 21.026 105.364 20.676 103.67 20.676ZM100.212 12.584H101.724V13.396C101.724 15.874 100.576 18.142 98.0983 18.982L97.1463 17.512C99.2883 16.784 100.212 15.062 100.212 13.396V12.584ZM100.604 12.584H102.102V13.396C102.102 14.922 102.984 16.504 105.028 17.19L104.118 18.66C101.71 17.862 100.604 15.706 100.604 13.396V12.584ZM97.6503 12.066H104.622V13.55H97.6503V12.066ZM116.179 11.954H117.691V13.13C117.691 15.622 116.571 17.806 114.065 18.632L113.127 17.148C115.283 16.462 116.179 14.81 116.179 13.13V11.954ZM116.557 11.954H118.055V13.298C118.055 14.852 118.923 16.364 120.967 17.008L120.057 18.464C117.649 17.694 116.557 15.636 116.557 13.298V11.954ZM121.611 11.282H123.473V19.108H121.611V11.282ZM122.955 14.432H125.195V15.972H122.955V14.432ZM114.821 19.654H123.473V24.246H121.611V21.152H114.821V19.654ZM135.512 11.282H137.276V24.246H135.512V11.282ZM131.242 15.706H133.384V17.218H131.242V15.706ZM132.894 11.492H134.63V23.658H132.894V11.492ZM128.442 13.396H129.842V14.726C129.842 17.638 129.044 20.536 126.986 21.824L125.88 20.452C127.784 19.262 128.442 16.938 128.442 14.726V13.396ZM128.862 13.396H130.248V14.726C130.248 16.882 130.892 19.066 132.768 20.158L131.676 21.516C129.618 20.298 128.862 17.582 128.862 14.726V13.396ZM126.37 12.584H132.152V14.082H126.37V12.584ZM147.341 11.282H149.189V24.246H147.341V11.282ZM148.769 16.336H151.065V17.89H148.769V16.336ZM138.969 13.2H146.515V14.684H138.969V13.2ZM142.763 15.412C144.653 15.412 146.053 16.7 146.053 18.506C146.053 20.312 144.653 21.6 142.763 21.6C140.873 21.6 139.473 20.312 139.473 18.506C139.473 16.7 140.873 15.412 142.763 15.412ZM142.763 16.924C141.881 16.924 141.251 17.512 141.251 18.506C141.251 19.5 141.881 20.088 142.763 20.088C143.645 20.088 144.275 19.5 144.275 18.506C144.275 17.512 143.645 16.924 142.763 16.924ZM141.825 11.492H143.687V13.76H141.825V11.492ZM160.836 11.282H162.712V24.246H160.836V11.282ZM157.014 12.626H158.862C158.862 16.588 157.518 19.836 152.912 22.062L151.946 20.578C155.67 18.786 157.014 16.434 157.014 12.962V12.626ZM152.632 12.626H157.896V14.096H152.632V12.626Z" fill="black"/>
<rect x="1" y="-1" width="246" height="32" rx="16" transform="matrix(1 0 0 -1 0 32)" stroke="#6041FF" stroke-width="2"/>
</svg>
