<svg width="17" height="17" viewBox="0 0 17 17" fill="none" xmlns="http://www.w3.org/2000/svg">
<g id="arrow_back_ios_new">
<mask id="mask0_847_1581" style="mask-type:alpha" maskUnits="userSpaceOnUse" x="0" y="0" width="17" height="17">
<rect id="Bounding box" width="17" height="17" rx="1" transform="matrix(-1 0 0 1 17 0)" fill="#D9D9D9"/>
</mask>
<g mask="url(#mask0_847_1581)">
<path id="arrow_back_ios_new_2" d="M5.03802 14.954C5.38521 15.3012 5.94812 15.3012 6.29531 14.954L12.0429 9.20646C12.4334 8.81593 12.4334 8.18277 12.0429 7.79224L6.29531 2.04466C5.94812 1.69747 5.38521 1.69747 5.03802 2.04466C4.69083 2.39185 4.69083 2.95476 5.03802 3.30195L9.52831 7.79224C9.91883 8.18277 9.91883 8.81593 9.52831 9.20646L5.03802 13.6967C4.69083 14.0439 4.69083 14.6068 5.03802 14.954Z" fill="white"/>
</g>
</g>
</svg>