<svg width="336" height="42" viewBox="0 0 336 42" fill="none" xmlns="http://www.w3.org/2000/svg">
<rect width="336" height="42" rx="14" fill="#D9D9D9"/>
<path d="M29.4381 16.598H32.2641V17.858H29.4381V16.598ZM29.4381 20.09H32.2641V21.332H29.4381V20.09ZM28.3941 14.132H29.8881V23.798H28.3941V14.132ZM19.3221 24.572H29.8881V30.404H28.3941V25.778H19.3221V24.572ZM21.8061 15.086C24.2541 15.086 26.0541 16.67 26.0541 18.956C26.0541 21.224 24.2541 22.79 21.8061 22.79C19.3581 22.79 17.5581 21.224 17.5581 18.956C17.5581 16.67 19.3581 15.086 21.8061 15.086ZM21.8061 16.364C20.1861 16.364 19.0161 17.408 19.0161 18.956C19.0161 20.486 20.1861 21.548 21.8061 21.548C23.4261 21.548 24.5961 20.486 24.5961 18.956C24.5961 17.408 23.4261 16.364 21.8061 16.364ZM33.8107 22.286H48.5707V23.51H33.8107V22.286ZM40.4167 19.82H41.8927V22.844H40.4167V19.82ZM40.3987 14.384H41.6947V15.104C41.6947 18.038 38.5807 20.126 35.2687 20.666L34.6927 19.478C37.6087 19.082 40.3987 17.282 40.3987 15.104V14.384ZM40.6327 14.384H41.9107V15.104C41.9107 17.282 44.7187 19.082 47.6167 19.478L47.0587 20.666C43.7647 20.108 40.6327 18.038 40.6327 15.104V14.384ZM35.4487 25.094H46.6987V30.404H45.2047V26.3H35.4487V25.094ZM66.2207 14.114H67.7147V30.422H66.2207V14.114ZM59.1287 15.374C61.5407 15.374 63.2687 17.588 63.2687 21.044C63.2687 24.518 61.5407 26.732 59.1287 26.732C56.7347 26.732 55.0067 24.518 55.0067 21.044C55.0067 17.588 56.7347 15.374 59.1287 15.374ZM59.1287 16.724C57.5447 16.724 56.4287 18.416 56.4287 21.044C56.4287 23.69 57.5447 25.418 59.1287 25.418C60.7307 25.418 61.8287 23.69 61.8287 21.044C61.8287 18.416 60.7307 16.724 59.1287 16.724ZM70.9533 22.52H85.7133V23.744H70.9533V22.52ZM72.8253 14.528H83.8053V18.38H74.3373V20.54H72.8613V17.282H82.3473V15.698H72.8253V14.528ZM72.8613 19.964H84.1653V21.134H72.8613V19.964ZM72.9333 25.22H83.8233V30.188H72.9333V25.22ZM82.3653 26.408H74.3913V28.982H82.3653V26.408Z" fill="#999999"/>
</svg>
