<svg width="355" height="41" viewBox="0 0 355 41" fill="none" xmlns="http://www.w3.org/2000/svg">
<rect width="355" height="41" rx="20.5" fill="#8E6FFF"/>
<path d="M137.668 12.452H140.08V22.55H137.668V12.452ZM127.084 19.958H128.542C131.782 19.958 133.888 19.886 136.3 19.49L136.57 21.398C134.086 21.83 131.872 21.884 128.542 21.884H127.084V19.958ZM127.066 13.424H134.734V18.5H129.442V21.038H127.084V16.718H132.376V15.332H127.066V13.424ZM134.464 22.856C137.992 22.856 140.188 23.99 140.188 25.988C140.188 27.968 137.992 29.12 134.464 29.12C130.936 29.12 128.776 27.968 128.776 25.988C128.776 23.99 130.936 22.856 134.464 22.856ZM134.464 24.71C132.286 24.71 131.152 25.106 131.152 25.988C131.152 26.852 132.286 27.266 134.464 27.266C136.66 27.266 137.794 26.852 137.794 25.988C137.794 25.106 136.66 24.71 134.464 24.71ZM144.489 13.892H154.983V15.8H144.489V13.892ZM142.797 25.178H157.863V27.14H142.797V25.178ZM153.975 13.892H156.333V15.818C156.333 18.248 156.333 20.552 155.559 24.188L153.201 23.972C153.975 20.606 153.975 18.176 153.975 15.818V13.892ZM154.479 18.464V20.228L144.291 20.732L144.003 18.806L154.479 18.464ZM170.955 22.802C174.555 22.802 176.859 23.99 176.859 25.97C176.859 27.914 174.555 29.102 170.955 29.102C167.355 29.102 165.051 27.914 165.051 25.97C165.051 23.99 167.355 22.802 170.955 22.802ZM170.955 24.602C168.705 24.602 167.427 25.07 167.427 25.97C167.427 26.852 168.705 27.302 170.955 27.302C173.205 27.302 174.483 26.852 174.483 25.97C174.483 25.07 173.205 24.602 170.955 24.602ZM165.231 13.172H175.779V15.062H165.231V13.172ZM163.539 19.868H178.551V21.776H163.539V19.868ZM169.101 16.97H171.477V20.354H169.101V16.97ZM174.393 13.172H176.769V14.54C176.769 15.854 176.769 17.276 176.319 19.004L173.943 18.752C174.393 17.042 174.393 15.836 174.393 14.54V13.172ZM183.464 22.964H185.912V29.102H183.464V22.964ZM189.224 22.964H191.672V29.102H189.224V22.964ZM180.062 21.704H195.164V23.63H180.062V21.704ZM187.568 12.992C191.132 12.992 193.598 14.45 193.598 16.736C193.598 18.986 191.132 20.444 187.568 20.444C184.022 20.444 181.556 18.986 181.556 16.736C181.556 14.45 184.022 12.992 187.568 12.992ZM187.568 14.9C185.39 14.9 184.004 15.548 184.004 16.736C184.004 17.906 185.39 18.554 187.568 18.554C189.764 18.554 191.132 17.906 191.132 16.736C191.132 15.548 189.764 14.9 187.568 14.9ZM207.312 12.434H209.688V29.102H207.312V12.434ZM209.148 18.932H212.1V20.93H209.148V18.932ZM196.548 14.9H206.25V16.808H196.548V14.9ZM201.426 17.744C203.856 17.744 205.656 19.4 205.656 21.722C205.656 24.044 203.856 25.7 201.426 25.7C198.996 25.7 197.196 24.044 197.196 21.722C197.196 19.4 198.996 17.744 201.426 17.744ZM201.426 19.688C200.292 19.688 199.482 20.444 199.482 21.722C199.482 23 200.292 23.756 201.426 23.756C202.56 23.756 203.37 23 203.37 21.722C203.37 20.444 202.56 19.688 201.426 19.688ZM200.22 12.704H202.614V15.62H200.22V12.704ZM224.663 12.434H227.075V29.102H224.663V12.434ZM219.749 14.162H222.125C222.125 19.256 220.397 23.432 214.475 26.294L213.233 24.386C218.021 22.082 219.749 19.058 219.749 14.594V14.162ZM214.115 14.162H220.883V16.052H214.115V14.162Z" fill="white"/>
</svg>
