<svg width="208" height="49" viewBox="0 0 208 49" fill="none" xmlns="http://www.w3.org/2000/svg">
<rect width="208" height="49" rx="24.5" fill="#8E6FFF"/>
<path d="M64.2598 16.434H66.6718V25.398H64.2598V16.434ZM55.5838 26.118H57.9418V27.666H64.2958V26.118H66.6718V32.922H55.5838V26.118ZM57.9418 29.502V31.014H64.2958V29.502H57.9418ZM57.5998 17.118C60.1918 17.118 62.1178 18.756 62.1178 21.06C62.1178 23.364 60.1918 25.002 57.5998 25.002C55.0078 25.002 53.0638 23.364 53.0638 21.06C53.0638 18.756 55.0078 17.118 57.5998 17.118ZM57.5998 19.098C56.3218 19.098 55.4038 19.836 55.4038 21.06C55.4038 22.302 56.3218 23.022 57.5998 23.022C58.8598 23.022 59.7778 22.302 59.7778 21.06C59.7778 19.836 58.8598 19.098 57.5998 19.098ZM70.0004 24.372H71.2784C74.3744 24.372 75.9944 24.318 77.8844 23.976L78.1184 25.866C76.1744 26.226 74.4644 26.28 71.2784 26.28H70.0004V24.372ZM69.9824 17.388H77.3084V22.644H72.3764V25.632H70.0004V20.862H74.9324V19.278H69.9824V17.388ZM80.9264 16.452H83.3204V26.712H80.9264V16.452ZM78.2624 18.738H81.3584V20.646H78.2624V18.738ZM78.2624 22.284H81.3584V24.192H78.2624V22.284ZM71.9084 27.468H83.3204V33.12H80.9264V29.376H71.9084V27.468ZM96.6758 16.92H98.7818V17.694C98.7818 20.898 96.2618 23.616 91.8878 24.264L90.9518 22.338C94.7858 21.834 96.6758 19.656 96.6758 17.694V16.92ZM97.1258 16.92H99.2138V17.694C99.2138 19.638 101.122 21.834 104.938 22.338L104.02 24.264C99.6458 23.616 97.1258 20.898 97.1258 17.694V16.92ZM96.6938 27H99.0698V33.102H96.6938V27ZM90.4118 25.488H105.478V27.432H90.4118V25.488ZM115.988 20.466H119.156V22.41H115.988V20.466ZM118.508 16.434H120.902V26.334H118.508V16.434ZM115.25 26.694C118.778 26.694 120.956 27.9 120.956 29.916C120.956 31.95 118.778 33.12 115.25 33.12C111.722 33.12 109.544 31.95 109.544 29.916C109.544 27.9 111.722 26.694 115.25 26.694ZM115.25 28.512C113.09 28.512 111.938 28.962 111.938 29.916C111.938 30.852 113.09 31.302 115.25 31.302C117.428 31.302 118.58 30.852 118.58 29.916C118.58 28.962 117.428 28.512 115.25 28.512ZM110.804 18.108H112.748V19.152C112.748 22.338 111.272 25.254 108.086 26.334L106.862 24.444C109.616 23.508 110.804 21.294 110.804 19.152V18.108ZM111.308 18.108H113.234V19.152C113.234 21.114 114.368 23.148 116.996 24.03L115.826 25.92C112.73 24.894 111.308 22.122 111.308 19.152V18.108ZM107.51 17.442H116.474V19.35H107.51V17.442ZM134.203 16.434H136.579V33.102H134.203V16.434ZM136.039 22.932H138.991V24.93H136.039V22.932ZM123.439 18.9H133.141V20.808H123.439V18.9ZM128.317 21.744C130.747 21.744 132.547 23.4 132.547 25.722C132.547 28.044 130.747 29.7 128.317 29.7C125.887 29.7 124.087 28.044 124.087 25.722C124.087 23.4 125.887 21.744 128.317 21.744ZM128.317 23.688C127.183 23.688 126.373 24.444 126.373 25.722C126.373 27 127.183 27.756 128.317 27.756C129.451 27.756 130.261 27 130.261 25.722C130.261 24.444 129.451 23.688 128.317 23.688ZM127.111 16.704H129.505V19.62H127.111V16.704ZM151.554 16.434H153.966V33.102H151.554V16.434ZM146.64 18.162H149.016C149.016 23.256 147.288 27.432 141.366 30.294L140.124 28.386C144.912 26.082 146.64 23.058 146.64 18.594V18.162ZM141.006 18.162H147.774V20.052H141.006V18.162Z" fill="white"/>
</svg>
