<svg width="445" height="51" viewBox="0 0 445 51" fill="none" xmlns="http://www.w3.org/2000/svg">
<rect width="445" height="51" rx="25.5" fill="#8E6FFF"/>
<path d="M173.872 15.608H176.82V27.95H173.872V15.608ZM160.936 24.782H162.718C166.678 24.782 169.252 24.694 172.2 24.21L172.53 26.542C169.494 27.07 166.788 27.136 162.718 27.136H160.936V24.782ZM160.914 16.796H170.286V23H163.818V26.102H160.936V20.822H167.404V19.128H160.914V16.796ZM169.956 28.324C174.268 28.324 176.952 29.71 176.952 32.152C176.952 34.572 174.268 35.98 169.956 35.98C165.644 35.98 163.004 34.572 163.004 32.152C163.004 29.71 165.644 28.324 169.956 28.324ZM169.956 30.59C167.294 30.59 165.908 31.074 165.908 32.152C165.908 33.208 167.294 33.714 169.956 33.714C172.64 33.714 174.026 33.208 174.026 32.152C174.026 31.074 172.64 30.59 169.956 30.59ZM182.208 17.368H195.034V19.7H182.208V17.368ZM180.14 31.162H198.554V33.56H180.14V31.162ZM193.802 17.368H196.684V19.722C196.684 22.692 196.684 25.508 195.738 29.952L192.856 29.688C193.802 25.574 193.802 22.604 193.802 19.722V17.368ZM194.418 22.956V25.112L181.966 25.728L181.614 23.374L194.418 22.956ZM214.556 28.258C218.956 28.258 221.772 29.71 221.772 32.13C221.772 34.506 218.956 35.958 214.556 35.958C210.156 35.958 207.34 34.506 207.34 32.13C207.34 29.71 210.156 28.258 214.556 28.258ZM214.556 30.458C211.806 30.458 210.244 31.03 210.244 32.13C210.244 33.208 211.806 33.758 214.556 33.758C217.306 33.758 218.868 33.208 218.868 32.13C218.868 31.03 217.306 30.458 214.556 30.458ZM207.56 16.488H220.452V18.798H207.56V16.488ZM205.492 24.672H223.84V27.004H205.492V24.672ZM212.29 21.13H215.194V25.266H212.29V21.13ZM218.758 16.488H221.662V18.16C221.662 19.766 221.662 21.504 221.112 23.616L218.208 23.308C218.758 21.218 218.758 19.744 218.758 18.16V16.488ZM229.845 28.456H232.837V35.958H229.845V28.456ZM236.885 28.456H239.877V35.958H236.885V28.456ZM225.687 26.916H244.145V29.27H225.687V26.916ZM234.861 16.268C239.217 16.268 242.231 18.05 242.231 20.844C242.231 23.594 239.217 25.376 234.861 25.376C230.527 25.376 227.513 23.594 227.513 20.844C227.513 18.05 230.527 16.268 234.861 16.268ZM234.861 18.6C232.199 18.6 230.505 19.392 230.505 20.844C230.505 22.274 232.199 23.066 234.861 23.066C237.545 23.066 239.217 22.274 239.217 20.844C239.217 19.392 237.545 18.6 234.861 18.6ZM258.993 15.586H261.897V35.958H258.993V15.586ZM261.237 23.528H264.845V25.97H261.237V23.528ZM245.837 18.6H257.695V20.932H245.837V18.6ZM251.799 22.076C254.769 22.076 256.969 24.1 256.969 26.938C256.969 29.776 254.769 31.8 251.799 31.8C248.829 31.8 246.629 29.776 246.629 26.938C246.629 24.1 248.829 22.076 251.799 22.076ZM251.799 24.452C250.413 24.452 249.423 25.376 249.423 26.938C249.423 28.5 250.413 29.424 251.799 29.424C253.185 29.424 254.175 28.5 254.175 26.938C254.175 25.376 253.185 24.452 251.799 24.452ZM250.325 15.916H253.251V19.48H250.325V15.916ZM280.199 15.586H283.147V35.958H280.199V15.586ZM274.193 17.698H277.097C277.097 23.924 274.985 29.028 267.747 32.526L266.229 30.194C272.081 27.378 274.193 23.682 274.193 18.226V17.698ZM267.307 17.698H275.579V20.008H267.307V17.698Z" fill="white"/>
</svg>
