<svg width="112" height="44" viewBox="0 0 112 44" fill="none" xmlns="http://www.w3.org/2000/svg">
<rect width="112" height="44" rx="14" fill="#D9D9D9"/>
<mask id="mask0_484_564" style="mask-type:alpha" maskUnits="userSpaceOnUse" x="84" y="16" width="14" height="14">
<rect x="84" y="30" width="14" height="14" rx="1" transform="rotate(-90 84 30)" fill="#D9D9D9"/>
</mask>
<g mask="url(#mask0_484_564)">
<path d="M96.3204 19.4263C96.5663 19.7213 96.5663 20.1498 96.3204 20.4448L91.6797 26.0137C91.2799 26.4934 90.543 26.4934 90.1432 26.0137L85.5025 20.4448C85.2567 20.1498 85.2567 19.7213 85.5025 19.4263V19.4263C85.8205 19.0447 86.4066 19.0447 86.7246 19.4263L90.1432 23.5287C90.543 24.0084 91.2799 24.0084 91.6797 23.5287L95.0983 19.4263C95.4163 19.0447 96.0024 19.0447 96.3204 19.4263V19.4263Z" fill="#1C1B1F"/>
</g>
</svg>
