<svg width="676" height="312" viewBox="0 0 676 312" fill="none" xmlns="http://www.w3.org/2000/svg">
<rect width="676" height="312" fill="white"/>
<mask id="mask0_847_1691" style="mask-type:alpha" maskUnits="userSpaceOnUse" x="207" y="3" width="27" height="28">
<rect x="207" y="3.5" width="27" height="27" rx="2" fill="#D9D9D9"/>
</mask>
<g mask="url(#mask0_847_1691)">
<path d="M225.998 27.2516C225.447 27.803 224.553 27.803 224.002 27.2516L215.164 18.4142C214.383 17.6332 214.383 16.3668 215.164 15.5858L224.002 6.74844C224.553 6.19702 225.447 6.19702 225.998 6.74844V6.74844C226.55 7.29986 226.55 8.19389 225.998 8.74531L219.158 15.5858C218.377 16.3668 218.377 17.6332 219.158 18.4142L225.998 25.2547C226.55 25.8061 226.55 26.7001 225.998 27.2516V27.2516Z" fill="#1C1B1F"/>
</g>
<path d="M326.899 27.2637C325.484 27.2549 324.196 26.9429 323.036 26.3276C321.876 25.7124 320.944 24.7061 320.241 23.3086C319.538 21.9111 319.187 20.105 319.187 17.8901C319.187 15.772 319.512 13.9438 320.162 12.4058C320.812 10.8589 321.727 9.68115 322.904 8.87256C324.082 8.05518 325.462 7.64648 327.044 7.64648C328.292 7.64648 329.413 7.88818 330.406 8.37158C331.408 8.85498 332.208 9.52295 332.805 10.3755C333.412 11.2192 333.781 12.1641 333.913 13.21H329.997C329.892 12.7617 329.703 12.375 329.43 12.0498C329.167 11.7158 328.828 11.4653 328.415 11.2983C328.011 11.1313 327.554 11.0479 327.044 11.0479C326.183 11.0479 325.458 11.2939 324.869 11.7861C324.289 12.2695 323.845 12.9683 323.537 13.8823C323.238 14.7876 323.084 15.8687 323.076 17.1255H323.234C323.533 16.5718 323.928 16.0928 324.42 15.6885C324.921 15.2754 325.488 14.9634 326.121 14.7524C326.754 14.5415 327.422 14.436 328.125 14.436C329.259 14.436 330.278 14.7041 331.184 15.2402C332.098 15.7676 332.814 16.5015 333.333 17.4419C333.851 18.3735 334.11 19.4282 334.11 20.606C334.11 21.8979 333.807 23.0493 333.201 24.0601C332.603 25.062 331.755 25.8486 330.656 26.4199C329.566 26.9824 328.314 27.2637 326.899 27.2637ZM326.873 24.1392C327.514 24.1392 328.094 23.9897 328.613 23.6909C329.131 23.3833 329.536 22.9702 329.826 22.4517C330.116 21.9331 330.261 21.3574 330.261 20.7246C330.261 20.0918 330.12 19.5161 329.839 18.9976C329.558 18.479 329.153 18.0747 328.626 17.7847C328.107 17.4858 327.532 17.3364 326.899 17.3364C326.266 17.3364 325.69 17.4858 325.172 17.7847C324.653 18.0835 324.24 18.4966 323.933 19.0239C323.625 19.5425 323.471 20.1138 323.471 20.7378C323.471 21.353 323.621 21.9199 323.919 22.4385C324.218 22.957 324.623 23.3701 325.132 23.6777C325.651 23.9854 326.231 24.1392 326.873 24.1392ZM345.343 19.3931H342.021V15.1611H345.343V19.3931ZM356.417 19.3535H353.042V5.45801H356.417V19.3535ZM336.101 13.8955C339.133 13.9043 341.902 13.8779 344.407 13.8164C346.92 13.7461 349.324 13.6055 351.618 13.3945L351.776 15.4775C349.395 15.8027 346.934 16.0137 344.394 16.1104C341.854 16.207 339.204 16.2422 336.444 16.2158L336.101 13.8955ZM356.417 25.6816H342.943V27.6196H339.621V23.4932H353.068V22.3462H339.529V20.0654H356.417V25.6816ZM356.971 29.2544H339.621V26.9077H356.971V29.2544ZM354.123 18.5889H348.705V16.5586H354.123V18.5889ZM343.8 5.7876C344.987 5.7876 346.037 5.93701 346.951 6.23584C347.874 6.52588 348.586 6.94775 349.087 7.50146C349.597 8.04639 349.852 8.6748 349.852 9.38672C349.852 10.1162 349.597 10.7534 349.087 11.2983C348.586 11.8433 347.878 12.2607 346.964 12.5508C346.05 12.8408 344.996 12.9858 343.8 12.9858C342.587 12.9858 341.524 12.8408 340.61 12.5508C339.705 12.2607 338.997 11.8433 338.487 11.2983C337.978 10.7534 337.723 10.1162 337.723 9.38672C337.723 8.6748 337.978 8.04639 338.487 7.50146C338.997 6.94775 339.709 6.52588 340.623 6.23584C341.537 5.93701 342.596 5.7876 343.8 5.7876ZM343.8 7.97607C343.211 7.97607 342.697 8.0332 342.258 8.14746C341.818 8.25293 341.48 8.41553 341.243 8.63525C341.014 8.84619 340.9 9.09668 340.9 9.38672C340.9 9.68555 341.014 9.93604 341.243 10.1382C341.48 10.3403 341.814 10.4985 342.245 10.6128C342.684 10.7183 343.203 10.771 343.8 10.771C344.398 10.771 344.912 10.7183 345.343 10.6128C345.782 10.4985 346.121 10.3403 346.358 10.1382C346.595 9.93604 346.714 9.68555 346.714 9.38672C346.714 9.09668 346.595 8.84619 346.358 8.63525C346.121 8.41553 345.782 8.25293 345.343 8.14746C344.903 8.0332 344.389 7.97607 343.8 7.97607Z" fill="black"/>
<mask id="mask1_847_1691" style="mask-type:alpha" maskUnits="userSpaceOnUse" x="443" y="3" width="27" height="28">
<rect width="27" height="27" rx="2" transform="matrix(-1 0 0 1 470 3.5)" fill="#D9D9D9"/>
</mask>
<g mask="url(#mask1_847_1691)">
<path d="M451.002 27.2516C451.553 27.803 452.447 27.803 452.998 27.2516L461.836 18.4142C462.617 17.6332 462.617 16.3668 461.836 15.5858L452.998 6.74844C452.447 6.19702 451.553 6.19702 451.002 6.74844V6.74844C450.45 7.29986 450.45 8.19389 451.002 8.74531L457.842 15.5858C458.623 16.3668 458.623 17.6332 457.842 18.4142L451.002 25.2547C450.45 25.8061 450.45 26.7001 451.002 27.2516V27.2516Z" fill="#1C1B1F"/>
</g>
<rect x="1" y="52" width="675" height="260" rx="29" fill="white"/>
<path d="M108.967 168.693L115.541 158.445H117.732V161.99H116.422L112.232 168.521V168.65H121.567V171.25H108.967V168.693ZM116.519 170.466L116.562 169.338V158.445H119.602V174H116.519V170.466Z" fill="#999999" fill-opacity="0.6"/>
<path d="M191.939 174.215C190.872 174.215 189.909 174.018 189.05 173.624C188.198 173.23 187.524 172.686 187.03 171.991C186.536 171.289 186.282 170.498 186.268 169.617H189.394C189.422 170.011 189.551 170.366 189.78 170.681C190.017 170.989 190.325 171.232 190.704 171.411C191.084 171.583 191.495 171.669 191.939 171.669C192.477 171.669 192.953 171.551 193.368 171.314C193.784 171.078 194.109 170.752 194.346 170.337C194.582 169.914 194.7 169.438 194.7 168.908C194.7 168.364 194.578 167.881 194.335 167.458C194.099 167.035 193.766 166.706 193.336 166.47C192.913 166.226 192.43 166.104 191.886 166.104C191.306 166.097 190.812 166.205 190.403 166.427C190.002 166.642 189.687 166.967 189.458 167.404H186.525L187.374 158.445H196.945V161.099H190.038L189.608 165.02H189.727C190.02 164.626 190.446 164.307 191.005 164.063C191.563 163.82 192.179 163.698 192.853 163.698C193.791 163.698 194.636 163.917 195.388 164.354C196.147 164.783 196.741 165.392 197.171 166.18C197.601 166.96 197.815 167.841 197.815 168.822C197.815 169.861 197.568 170.788 197.074 171.604C196.58 172.421 195.889 173.062 195.001 173.527C194.113 173.986 193.092 174.215 191.939 174.215Z" fill="black"/>
<path d="M265.251 174.215C264.098 174.208 263.049 173.953 262.104 173.452C261.158 172.951 260.399 172.131 259.826 170.992C259.253 169.854 258.967 168.382 258.967 166.577C258.967 164.851 259.232 163.362 259.762 162.108C260.292 160.848 261.036 159.888 261.996 159.229C262.956 158.563 264.08 158.23 265.369 158.23C266.386 158.23 267.299 158.427 268.108 158.821C268.925 159.215 269.576 159.759 270.063 160.454C270.558 161.142 270.858 161.911 270.966 162.764H267.775C267.689 162.398 267.535 162.083 267.313 161.818C267.099 161.546 266.823 161.342 266.486 161.206C266.157 161.07 265.785 161.002 265.369 161.002C264.667 161.002 264.076 161.202 263.597 161.604C263.124 161.997 262.762 162.567 262.512 163.312C262.268 164.049 262.143 164.93 262.136 165.954H262.265C262.508 165.503 262.83 165.113 263.231 164.783C263.64 164.447 264.102 164.192 264.617 164.021C265.133 163.849 265.677 163.763 266.25 163.763C267.174 163.763 268.005 163.981 268.742 164.418C269.487 164.848 270.071 165.446 270.493 166.212C270.916 166.971 271.127 167.83 271.127 168.79C271.127 169.843 270.88 170.781 270.386 171.604C269.899 172.421 269.208 173.062 268.312 173.527C267.424 173.986 266.404 174.215 265.251 174.215ZM265.229 171.669C265.752 171.669 266.225 171.547 266.647 171.304C267.07 171.053 267.399 170.716 267.636 170.294C267.872 169.871 267.99 169.402 267.99 168.887C267.99 168.371 267.876 167.902 267.646 167.479C267.417 167.057 267.088 166.728 266.658 166.491C266.236 166.248 265.767 166.126 265.251 166.126C264.735 166.126 264.266 166.248 263.844 166.491C263.421 166.735 263.085 167.071 262.834 167.501C262.583 167.924 262.458 168.389 262.458 168.897C262.458 169.399 262.58 169.861 262.823 170.283C263.067 170.706 263.396 171.042 263.812 171.293C264.234 171.544 264.707 171.669 265.229 171.669Z" fill="black"/>
<path d="M341.379 161.195V161.099H333.752V158.445H344.73V161.142L338.167 174H334.837L341.379 161.195Z" fill="black"/>
<path d="M415.068 174.215C413.901 174.215 412.855 174.025 411.932 173.646C411.008 173.266 410.285 172.743 409.762 172.077C409.239 171.404 408.978 170.648 408.978 169.811C408.978 169.173 409.128 168.579 409.429 168.027C409.729 167.469 410.138 167.01 410.653 166.652C411.176 166.294 411.756 166.069 412.394 165.976V165.857C411.842 165.75 411.352 165.535 410.922 165.213C410.499 164.883 410.166 164.475 409.923 163.988C409.679 163.501 409.558 162.979 409.558 162.42C409.558 161.625 409.798 160.909 410.277 160.271C410.757 159.634 411.412 159.136 412.243 158.778C413.081 158.413 414.023 158.23 415.068 158.23C416.114 158.23 417.056 158.413 417.894 158.778C418.731 159.136 419.387 159.634 419.859 160.271C420.339 160.909 420.583 161.625 420.59 162.42C420.583 162.979 420.457 163.501 420.214 163.988C419.97 164.475 419.634 164.883 419.204 165.213C418.774 165.535 418.287 165.75 417.743 165.857V165.976C418.373 166.069 418.95 166.294 419.473 166.652C419.995 167.01 420.407 167.469 420.708 168.027C421.016 168.579 421.174 169.173 421.181 169.811C421.174 170.648 420.909 171.404 420.386 172.077C419.863 172.743 419.136 173.266 418.205 173.646C417.281 174.025 416.236 174.215 415.068 174.215ZM415.068 171.755C415.605 171.755 416.082 171.658 416.497 171.465C416.912 171.271 417.235 171.007 417.464 170.67C417.693 170.326 417.808 169.936 417.808 169.499C417.808 169.055 417.689 168.654 417.453 168.296C417.217 167.938 416.891 167.659 416.476 167.458C416.06 167.25 415.591 167.146 415.068 167.146C414.553 167.146 414.087 167.247 413.672 167.447C413.257 167.648 412.931 167.931 412.694 168.296C412.458 168.654 412.343 169.055 412.351 169.499C412.343 169.936 412.454 170.323 412.684 170.659C412.913 170.996 413.231 171.264 413.64 171.465C414.055 171.658 414.531 171.755 415.068 171.755ZM415.068 164.858C415.52 164.858 415.924 164.769 416.282 164.59C416.647 164.404 416.93 164.153 417.131 163.838C417.331 163.516 417.432 163.154 417.432 162.753C417.432 162.345 417.331 161.983 417.131 161.668C416.938 161.353 416.658 161.109 416.293 160.938C415.935 160.758 415.527 160.669 415.068 160.669C414.61 160.669 414.202 160.758 413.844 160.938C413.493 161.109 413.217 161.353 413.017 161.668C412.816 161.983 412.716 162.345 412.716 162.753C412.716 163.154 412.816 163.516 413.017 163.838C413.224 164.153 413.504 164.404 413.854 164.59C414.213 164.769 414.617 164.858 415.068 164.858Z" fill="black"/>
<path d="M484.907 158.23C486.06 158.238 487.106 158.492 488.044 158.993C488.982 159.487 489.738 160.3 490.311 161.432C490.883 162.563 491.174 164.024 491.181 165.814C491.181 167.555 490.919 169.055 490.396 170.315C489.881 171.576 489.14 172.543 488.173 173.216C487.206 173.882 486.075 174.215 484.778 174.215C483.754 174.215 482.838 174.014 482.028 173.613C481.219 173.212 480.567 172.668 480.073 171.98C479.586 171.293 479.289 170.509 479.182 169.628H482.361C482.447 170.007 482.601 170.333 482.823 170.605C483.052 170.878 483.332 171.085 483.661 171.229C483.991 171.372 484.363 171.443 484.778 171.443C485.473 171.443 486.064 171.243 486.551 170.842C487.038 170.441 487.403 169.868 487.646 169.123C487.89 168.378 488.015 167.483 488.022 166.438H487.883C487.639 166.889 487.317 167.279 486.916 167.608C486.515 167.931 486.053 168.181 485.53 168.36C485.015 168.532 484.47 168.618 483.897 168.618C482.974 168.618 482.143 168.403 481.405 167.974C480.668 167.544 480.084 166.95 479.654 166.19C479.232 165.431 479.021 164.576 479.021 163.623C479.021 162.585 479.264 161.657 479.751 160.841C480.245 160.017 480.94 159.376 481.835 158.918C482.73 158.46 483.754 158.23 484.907 158.23ZM484.918 160.766C484.395 160.766 483.923 160.891 483.5 161.142C483.077 161.385 482.748 161.718 482.512 162.141C482.275 162.563 482.161 163.025 482.168 163.526C482.168 164.042 482.286 164.507 482.522 164.923C482.759 165.331 483.081 165.657 483.489 165.9C483.897 166.144 484.363 166.266 484.886 166.266C485.409 166.266 485.881 166.14 486.304 165.89C486.733 165.639 487.07 165.306 487.313 164.891C487.564 164.468 487.689 164.006 487.689 163.505C487.682 163.018 487.557 162.567 487.313 162.151C487.077 161.729 486.748 161.392 486.325 161.142C485.91 160.891 485.441 160.766 484.918 160.766Z" fill="black"/>
<path d="M551.917 174H548.673V161.518H548.587L545.031 163.773V160.895L548.877 158.445H551.917V174ZM561.574 174.215C560.278 174.215 559.161 173.903 558.223 173.28C557.292 172.65 556.576 171.737 556.074 170.541C555.58 169.345 555.333 167.906 555.333 166.223C555.333 164.547 555.58 163.111 556.074 161.915C556.576 160.712 557.292 159.799 558.223 159.176C559.161 158.546 560.278 158.23 561.574 158.23C562.863 158.23 563.977 158.546 564.915 159.176C565.853 159.799 566.573 160.712 567.074 161.915C567.576 163.111 567.826 164.547 567.826 166.223C567.826 167.913 567.576 169.356 567.074 170.552C566.58 171.748 565.864 172.657 564.926 173.28C563.988 173.903 562.87 174.215 561.574 174.215ZM561.574 171.551C562.183 171.551 562.709 171.354 563.153 170.96C563.604 170.566 563.945 169.972 564.174 169.177C564.41 168.382 564.525 167.397 564.518 166.223C564.518 165.062 564.399 164.085 564.163 163.29C563.927 162.488 563.587 161.886 563.143 161.485C562.699 161.084 562.176 160.884 561.574 160.884C560.965 160.884 560.443 161.084 560.006 161.485C559.569 161.886 559.229 162.488 558.985 163.29C558.742 164.085 558.62 165.062 558.62 166.223C558.62 167.397 558.742 168.382 558.985 169.177C559.229 169.972 559.565 170.566 559.995 170.96C560.432 171.354 560.958 171.551 561.574 171.551Z" fill="#999999" fill-opacity="0.6"/>
<path d="M415.917 131H412.673V118.518H412.587L409.031 120.773V117.895L412.877 115.445H415.917V131Z" fill="black"/>
<path d="M478.203 128.669L483.8 123.523C484.344 122.993 484.77 122.553 485.078 122.202C485.386 121.851 485.622 121.5 485.787 121.149C485.952 120.799 486.034 120.423 486.034 120.021C486.034 119.577 485.927 119.187 485.712 118.851C485.497 118.514 485.203 118.256 484.831 118.077C484.459 117.891 484.036 117.798 483.563 117.798C483.076 117.798 482.65 117.895 482.285 118.088C481.927 118.281 481.648 118.561 481.447 118.926C481.247 119.291 481.146 119.721 481.146 120.215H478.074C478.074 119.212 478.303 118.335 478.762 117.583C479.22 116.831 479.868 116.251 480.706 115.843C481.544 115.435 482.507 115.23 483.596 115.23C484.691 115.23 485.658 115.424 486.496 115.811C487.341 116.197 487.993 116.738 488.451 117.433C488.91 118.127 489.139 118.922 489.139 119.817C489.139 120.433 489.021 121.024 488.784 121.59C488.555 122.148 488.147 122.775 487.56 123.47C486.972 124.157 486.145 124.984 485.078 125.951L482.704 128.239V128.347H489.364V131H478.214L478.203 128.669Z" fill="black"/>
<path d="M553.993 131.215C552.854 131.215 551.841 131.021 550.953 130.635C550.065 130.248 549.363 129.707 548.848 129.013C548.339 128.311 548.078 127.512 548.063 126.617H551.318C551.333 126.997 551.462 127.333 551.705 127.627C551.949 127.913 552.267 128.139 552.661 128.304C553.055 128.461 553.499 128.54 553.993 128.54C554.509 128.54 554.971 128.451 555.379 128.271C555.787 128.092 556.102 127.842 556.324 127.52C556.546 127.197 556.654 126.832 556.646 126.424C556.646 126.008 556.528 125.636 556.292 125.307C556.063 124.97 555.723 124.712 555.271 124.533C554.827 124.347 554.305 124.254 553.703 124.254H552.253V121.869H553.703C554.212 121.869 554.663 121.783 555.057 121.611C555.451 121.432 555.755 121.189 555.97 120.881C556.192 120.566 556.303 120.204 556.303 119.796C556.303 119.409 556.206 119.065 556.013 118.765C555.826 118.457 555.562 118.22 555.218 118.056C554.874 117.884 554.477 117.798 554.025 117.798C553.567 117.798 553.148 117.88 552.769 118.045C552.389 118.202 552.081 118.432 551.845 118.732C551.608 119.033 551.483 119.377 551.469 119.764H548.375C548.389 118.89 548.647 118.106 549.148 117.411C549.65 116.716 550.323 116.179 551.168 115.8C552.02 115.42 552.973 115.23 554.025 115.23C555.092 115.23 556.034 115.424 556.851 115.811C557.667 116.19 558.297 116.716 558.741 117.39C559.192 118.056 559.414 118.793 559.407 119.603C559.414 120.175 559.296 120.695 559.053 121.16C558.809 121.618 558.462 121.998 558.011 122.299C557.567 122.592 557.051 122.793 556.464 122.9V123.019C557.216 123.112 557.857 123.319 558.387 123.642C558.924 123.964 559.328 124.383 559.601 124.898C559.873 125.407 560.005 125.987 559.998 126.639C560.005 127.512 559.751 128.297 559.235 128.991C558.727 129.686 558.014 130.23 557.098 130.624C556.181 131.018 555.146 131.215 553.993 131.215Z" fill="#999999" fill-opacity="0.6"/>
<line x1="94" y1="101" x2="579" y2="101" stroke="#D6D5D5" stroke-width="2"/>
<line x1="94" y1="144" x2="579" y2="144" stroke="#D6D5D5" stroke-width="2"/>
<line x1="94" y1="187" x2="579" y2="187" stroke="#D6D5D5" stroke-width="2"/>
<line x1="94" y1="230" x2="579" y2="230" stroke="#D6D5D5" stroke-width="2"/>
<line x1="94" y1="273" x2="579" y2="273" stroke="#D6D5D5" stroke-width="2"/>
<path d="M112.917 260H109.673V247.518H109.587L106.031 249.773V246.895L109.877 244.445H112.917V260ZM122.381 260.215C121.214 260.215 120.168 260.025 119.244 259.646C118.32 259.266 117.597 258.743 117.074 258.077C116.551 257.404 116.29 256.648 116.29 255.811C116.29 255.173 116.44 254.579 116.741 254.027C117.042 253.469 117.45 253.01 117.966 252.652C118.489 252.294 119.069 252.069 119.706 251.976V251.857C119.155 251.75 118.664 251.535 118.234 251.213C117.812 250.883 117.479 250.475 117.235 249.988C116.992 249.501 116.87 248.979 116.87 248.42C116.87 247.625 117.11 246.909 117.59 246.271C118.07 245.634 118.725 245.136 119.556 244.778C120.394 244.413 121.335 244.23 122.381 244.23C123.426 244.23 124.368 244.413 125.206 244.778C126.044 245.136 126.699 245.634 127.172 246.271C127.652 246.909 127.895 247.625 127.902 248.42C127.895 248.979 127.77 249.501 127.526 249.988C127.283 250.475 126.946 250.883 126.517 251.213C126.087 251.535 125.6 251.75 125.056 251.857V251.976C125.686 252.069 126.262 252.294 126.785 252.652C127.308 253.01 127.72 253.469 128.021 254.027C128.328 254.579 128.486 255.173 128.493 255.811C128.486 256.648 128.221 257.404 127.698 258.077C127.175 258.743 126.449 259.266 125.518 259.646C124.594 260.025 123.548 260.215 122.381 260.215ZM122.381 257.755C122.918 257.755 123.394 257.658 123.81 257.465C124.225 257.271 124.547 257.007 124.776 256.67C125.006 256.326 125.12 255.936 125.12 255.499C125.12 255.055 125.002 254.654 124.766 254.296C124.529 253.938 124.203 253.659 123.788 253.458C123.373 253.25 122.904 253.146 122.381 253.146C121.865 253.146 121.4 253.247 120.984 253.447C120.569 253.648 120.243 253.931 120.007 254.296C119.771 254.654 119.656 255.055 119.663 255.499C119.656 255.936 119.767 256.323 119.996 256.659C120.225 256.996 120.544 257.264 120.952 257.465C121.368 257.658 121.844 257.755 122.381 257.755ZM122.381 250.858C122.832 250.858 123.237 250.769 123.595 250.59C123.96 250.404 124.243 250.153 124.443 249.838C124.644 249.516 124.744 249.154 124.744 248.753C124.744 248.345 124.644 247.983 124.443 247.668C124.25 247.353 123.971 247.109 123.605 246.938C123.247 246.758 122.839 246.669 122.381 246.669C121.923 246.669 121.514 246.758 121.156 246.938C120.805 247.109 120.53 247.353 120.329 247.668C120.129 247.983 120.028 248.345 120.028 248.753C120.028 249.154 120.129 249.516 120.329 249.838C120.537 250.153 120.816 250.404 121.167 250.59C121.525 250.769 121.93 250.858 122.381 250.858Z" fill="#999999" fill-opacity="0.6"/>
<path d="M188.917 260H185.673V247.518H185.587L182.031 249.773V246.895L185.877 244.445H188.917V260ZM198.22 244.23C199.373 244.238 200.418 244.492 201.356 244.993C202.295 245.487 203.05 246.3 203.623 247.432C204.196 248.563 204.486 250.024 204.493 251.814C204.493 253.555 204.232 255.055 203.709 256.315C203.193 257.576 202.452 258.543 201.485 259.216C200.519 259.882 199.387 260.215 198.091 260.215C197.067 260.215 196.15 260.014 195.341 259.613C194.532 259.212 193.88 258.668 193.386 257.98C192.899 257.293 192.602 256.509 192.494 255.628H195.674C195.76 256.007 195.914 256.333 196.136 256.605C196.365 256.878 196.644 257.085 196.974 257.229C197.303 257.372 197.675 257.443 198.091 257.443C198.785 257.443 199.376 257.243 199.863 256.842C200.35 256.441 200.715 255.868 200.959 255.123C201.202 254.378 201.328 253.483 201.335 252.438H201.195C200.952 252.889 200.63 253.279 200.229 253.608C199.827 253.931 199.366 254.181 198.843 254.36C198.327 254.532 197.783 254.618 197.21 254.618C196.286 254.618 195.455 254.403 194.718 253.974C193.98 253.544 193.396 252.95 192.967 252.19C192.544 251.431 192.333 250.576 192.333 249.623C192.333 248.585 192.576 247.657 193.063 246.841C193.558 246.017 194.252 245.376 195.147 244.918C196.043 244.46 197.067 244.23 198.22 244.23ZM198.23 246.766C197.708 246.766 197.235 246.891 196.812 247.142C196.39 247.385 196.061 247.718 195.824 248.141C195.588 248.563 195.473 249.025 195.48 249.526C195.48 250.042 195.599 250.507 195.835 250.923C196.071 251.331 196.394 251.657 196.802 251.9C197.21 252.144 197.675 252.266 198.198 252.266C198.721 252.266 199.194 252.14 199.616 251.89C200.046 251.639 200.382 251.306 200.626 250.891C200.877 250.468 201.002 250.006 201.002 249.505C200.995 249.018 200.869 248.567 200.626 248.151C200.39 247.729 200.06 247.392 199.638 247.142C199.222 246.891 198.753 246.766 198.23 246.766Z" fill="black"/>
<path d="M253.203 257.669L258.8 252.523C259.344 251.993 259.77 251.553 260.078 251.202C260.386 250.851 260.622 250.5 260.787 250.149C260.952 249.799 261.034 249.423 261.034 249.021C261.034 248.577 260.927 248.187 260.712 247.851C260.497 247.514 260.203 247.256 259.831 247.077C259.459 246.891 259.036 246.798 258.563 246.798C258.076 246.798 257.65 246.895 257.285 247.088C256.927 247.281 256.648 247.561 256.447 247.926C256.247 248.291 256.146 248.721 256.146 249.215H253.074C253.074 248.212 253.303 247.335 253.762 246.583C254.22 245.831 254.868 245.251 255.706 244.843C256.544 244.435 257.507 244.23 258.596 244.23C259.691 244.23 260.658 244.424 261.496 244.811C262.341 245.197 262.993 245.738 263.451 246.433C263.91 247.127 264.139 247.922 264.139 248.817C264.139 249.433 264.021 250.024 263.784 250.59C263.555 251.148 263.147 251.775 262.56 252.47C261.972 253.157 261.145 253.984 260.078 254.951L257.704 257.239V257.347H264.364V260H253.214L253.203 257.669ZM272.689 260.215C271.393 260.215 270.276 259.903 269.338 259.28C268.407 258.65 267.691 257.737 267.189 256.541C266.695 255.345 266.448 253.906 266.448 252.223C266.448 250.547 266.695 249.111 267.189 247.915C267.691 246.712 268.407 245.799 269.338 245.176C270.276 244.546 271.393 244.23 272.689 244.23C273.979 244.23 275.092 244.546 276.03 245.176C276.968 245.799 277.688 246.712 278.189 247.915C278.691 249.111 278.941 250.547 278.941 252.223C278.941 253.913 278.691 255.356 278.189 256.552C277.695 257.748 276.979 258.657 276.041 259.28C275.103 259.903 273.986 260.215 272.689 260.215ZM272.689 257.551C273.298 257.551 273.825 257.354 274.269 256.96C274.72 256.566 275.06 255.972 275.289 255.177C275.525 254.382 275.64 253.397 275.633 252.223C275.633 251.062 275.515 250.085 275.278 249.29C275.042 248.488 274.702 247.886 274.258 247.485C273.814 247.084 273.291 246.884 272.689 246.884C272.081 246.884 271.558 247.084 271.121 247.485C270.684 247.886 270.344 248.488 270.101 249.29C269.857 250.085 269.735 251.062 269.735 252.223C269.735 253.397 269.857 254.382 270.101 255.177C270.344 255.972 270.681 256.566 271.11 256.96C271.547 257.354 272.074 257.551 272.689 257.551Z" fill="black"/>
<path d="M331.203 257.669L336.8 252.523C337.344 251.993 337.77 251.553 338.078 251.202C338.386 250.851 338.622 250.5 338.787 250.149C338.952 249.799 339.034 249.423 339.034 249.021C339.034 248.577 338.927 248.187 338.712 247.851C338.497 247.514 338.203 247.256 337.831 247.077C337.459 246.891 337.036 246.798 336.563 246.798C336.076 246.798 335.65 246.895 335.285 247.088C334.927 247.281 334.648 247.561 334.447 247.926C334.247 248.291 334.146 248.721 334.146 249.215H331.074C331.074 248.212 331.303 247.335 331.762 246.583C332.22 245.831 332.868 245.251 333.706 244.843C334.544 244.435 335.507 244.23 336.596 244.23C337.691 244.23 338.658 244.424 339.496 244.811C340.341 245.197 340.993 245.738 341.451 246.433C341.91 247.127 342.139 247.922 342.139 248.817C342.139 249.433 342.021 250.024 341.784 250.59C341.555 251.148 341.147 251.775 340.56 252.47C339.972 253.157 339.145 253.984 338.078 254.951L335.704 257.239V257.347H342.364V260H331.214L331.203 257.669ZM351.345 260H348.101V247.518H348.015L344.459 249.773V246.895L348.305 244.445H351.345V260Z" fill="black"/>
<path d="M404.203 257.669L409.8 252.523C410.344 251.993 410.77 251.553 411.078 251.202C411.386 250.851 411.622 250.5 411.787 250.149C411.952 249.799 412.034 249.423 412.034 249.021C412.034 248.577 411.927 248.187 411.712 247.851C411.497 247.514 411.203 247.256 410.831 247.077C410.459 246.891 410.036 246.798 409.563 246.798C409.076 246.798 408.65 246.895 408.285 247.088C407.927 247.281 407.648 247.561 407.447 247.926C407.247 248.291 407.146 248.721 407.146 249.215H404.074C404.074 248.212 404.303 247.335 404.762 246.583C405.22 245.831 405.868 245.251 406.706 244.843C407.544 244.435 408.507 244.23 409.596 244.23C410.691 244.23 411.658 244.424 412.496 244.811C413.341 245.197 413.993 245.738 414.451 246.433C414.91 247.127 415.139 247.922 415.139 248.817C415.139 249.433 415.021 250.024 414.784 250.59C414.555 251.148 414.147 251.775 413.56 252.47C412.972 253.157 412.145 253.984 411.078 254.951L408.704 257.239V257.347H415.364V260H404.214L404.203 257.669ZM417.631 257.669L423.228 252.523C423.772 251.993 424.198 251.553 424.506 251.202C424.814 250.851 425.05 250.5 425.215 250.149C425.38 249.799 425.462 249.423 425.462 249.021C425.462 248.577 425.354 248.187 425.14 247.851C424.925 247.514 424.631 247.256 424.259 247.077C423.886 246.891 423.464 246.798 422.991 246.798C422.504 246.798 422.078 246.895 421.713 247.088C421.355 247.281 421.076 247.561 420.875 247.926C420.674 248.291 420.574 248.721 420.574 249.215H417.502C417.502 248.212 417.731 247.335 418.189 246.583C418.648 245.831 419.296 245.251 420.134 244.843C420.972 244.435 421.935 244.23 423.023 244.23C424.119 244.23 425.086 244.424 425.924 244.811C426.769 245.197 427.421 245.738 427.879 246.433C428.337 247.127 428.566 247.922 428.566 248.817C428.566 249.433 428.448 250.024 428.212 250.59C427.983 251.148 427.575 251.775 426.987 252.47C426.4 253.157 425.573 253.984 424.506 254.951L422.132 257.239V257.347H428.792V260H417.642L417.631 257.669Z" fill="black"/>
<path d="M473.203 257.669L478.8 252.523C479.344 251.993 479.77 251.553 480.078 251.202C480.386 250.851 480.622 250.5 480.787 250.149C480.952 249.799 481.034 249.423 481.034 249.021C481.034 248.577 480.927 248.187 480.712 247.851C480.497 247.514 480.203 247.256 479.831 247.077C479.459 246.891 479.036 246.798 478.563 246.798C478.076 246.798 477.65 246.895 477.285 247.088C476.927 247.281 476.648 247.561 476.447 247.926C476.247 248.291 476.146 248.721 476.146 249.215H473.074C473.074 248.212 473.303 247.335 473.762 246.583C474.22 245.831 474.868 245.251 475.706 244.843C476.544 244.435 477.507 244.23 478.596 244.23C479.691 244.23 480.658 244.424 481.496 244.811C482.341 245.197 482.993 245.738 483.451 246.433C483.91 247.127 484.139 247.922 484.139 248.817C484.139 249.433 484.021 250.024 483.784 250.59C483.555 251.148 483.147 251.775 482.56 252.47C481.972 253.157 481.145 253.984 480.078 254.951L477.704 257.239V257.347H484.364V260H473.214L473.203 257.669ZM492.421 260.215C491.282 260.215 490.269 260.021 489.381 259.635C488.493 259.248 487.791 258.707 487.275 258.013C486.767 257.311 486.506 256.512 486.491 255.617H489.746C489.76 255.997 489.889 256.333 490.133 256.627C490.376 256.913 490.695 257.139 491.089 257.304C491.483 257.461 491.927 257.54 492.421 257.54C492.937 257.54 493.398 257.451 493.807 257.271C494.215 257.092 494.53 256.842 494.752 256.52C494.974 256.197 495.081 255.832 495.074 255.424C495.074 255.008 494.956 254.636 494.72 254.307C494.491 253.97 494.15 253.712 493.699 253.533C493.255 253.347 492.732 253.254 492.131 253.254H490.681V250.869H492.131C492.639 250.869 493.09 250.783 493.484 250.611C493.878 250.432 494.183 250.189 494.397 249.881C494.619 249.566 494.73 249.204 494.73 248.796C494.73 248.409 494.634 248.065 494.44 247.765C494.254 247.457 493.989 247.22 493.646 247.056C493.302 246.884 492.904 246.798 492.453 246.798C491.995 246.798 491.576 246.88 491.196 247.045C490.817 247.202 490.509 247.432 490.272 247.732C490.036 248.033 489.911 248.377 489.896 248.764H486.803C486.817 247.89 487.075 247.106 487.576 246.411C488.077 245.716 488.751 245.179 489.596 244.8C490.448 244.42 491.4 244.23 492.453 244.23C493.52 244.23 494.462 244.424 495.278 244.811C496.095 245.19 496.725 245.716 497.169 246.39C497.62 247.056 497.842 247.793 497.835 248.603C497.842 249.175 497.724 249.695 497.48 250.16C497.237 250.618 496.89 250.998 496.438 251.299C495.994 251.592 495.479 251.793 494.892 251.9V252.019C495.644 252.112 496.285 252.319 496.814 252.642C497.352 252.964 497.756 253.383 498.028 253.898C498.3 254.407 498.433 254.987 498.426 255.639C498.433 256.512 498.179 257.297 497.663 257.991C497.155 258.686 496.442 259.23 495.525 259.624C494.609 260.018 493.574 260.215 492.421 260.215Z" fill="black"/>
<path d="M545.203 257.669L550.8 252.523C551.344 251.993 551.77 251.553 552.078 251.202C552.386 250.851 552.622 250.5 552.787 250.149C552.952 249.799 553.034 249.423 553.034 249.021C553.034 248.577 552.927 248.187 552.712 247.851C552.497 247.514 552.203 247.256 551.831 247.077C551.459 246.891 551.036 246.798 550.563 246.798C550.076 246.798 549.65 246.895 549.285 247.088C548.927 247.281 548.648 247.561 548.447 247.926C548.247 248.291 548.146 248.721 548.146 249.215H545.074C545.074 248.212 545.303 247.335 545.762 246.583C546.22 245.831 546.868 245.251 547.706 244.843C548.544 244.435 549.507 244.23 550.596 244.23C551.691 244.23 552.658 244.424 553.496 244.811C554.341 245.197 554.993 245.738 555.451 246.433C555.91 247.127 556.139 247.922 556.139 248.817C556.139 249.433 556.021 250.024 555.784 250.59C555.555 251.148 555.147 251.775 554.56 252.47C553.972 253.157 553.145 253.984 552.078 254.951L549.704 257.239V257.347H556.364V260H545.214L545.203 257.669ZM558.051 254.693L564.625 244.445H566.816V247.99H565.506L561.316 254.521V254.65H570.651V257.25H558.051V254.693ZM565.603 256.466L565.646 255.338V244.445H568.686V260H565.603V256.466Z" fill="#999999" fill-opacity="0.6"/>
<path d="M112.917 217H109.673V204.518H109.587L106.031 206.773V203.895L109.877 201.445H112.917V217ZM123.229 217H119.985V204.518H119.899L116.344 206.773V203.895L120.189 201.445H123.229V217Z" fill="#999999" fill-opacity="0.6"/>
<path d="M187.917 217H184.673V204.518H184.587L181.031 206.773V203.895L184.877 201.445H187.917V217ZM191.516 214.669L197.112 209.523C197.657 208.993 198.083 208.553 198.391 208.202C198.699 207.851 198.935 207.5 199.1 207.149C199.264 206.799 199.347 206.423 199.347 206.021C199.347 205.577 199.239 205.187 199.024 204.851C198.81 204.514 198.516 204.256 198.144 204.077C197.771 203.891 197.349 203.798 196.876 203.798C196.389 203.798 195.963 203.895 195.598 204.088C195.24 204.281 194.96 204.561 194.76 204.926C194.559 205.291 194.459 205.721 194.459 206.215H191.387C191.387 205.212 191.616 204.335 192.074 203.583C192.533 202.831 193.181 202.251 194.019 201.843C194.856 201.435 195.82 201.23 196.908 201.23C198.004 201.23 198.971 201.424 199.809 201.811C200.654 202.197 201.305 202.738 201.764 203.433C202.222 204.127 202.451 204.922 202.451 205.817C202.451 206.433 202.333 207.024 202.097 207.59C201.868 208.148 201.459 208.775 200.872 209.47C200.285 210.157 199.458 210.984 198.391 211.951L196.017 214.239V214.347H202.677V217H191.526L191.516 214.669Z" fill="black"/>
<path d="M260.917 217H257.673V204.518H257.587L254.031 206.773V203.895L257.877 201.445H260.917V217ZM270.306 217.215C269.167 217.215 268.154 217.021 267.266 216.635C266.378 216.248 265.676 215.707 265.16 215.013C264.652 214.311 264.39 213.512 264.376 212.617H267.631C267.645 212.997 267.774 213.333 268.018 213.627C268.261 213.913 268.58 214.139 268.974 214.304C269.368 214.461 269.812 214.54 270.306 214.54C270.821 214.54 271.283 214.451 271.691 214.271C272.1 214.092 272.415 213.842 272.637 213.52C272.859 213.197 272.966 212.832 272.959 212.424C272.959 212.008 272.841 211.636 272.604 211.307C272.375 210.97 272.035 210.712 271.584 210.533C271.14 210.347 270.617 210.254 270.016 210.254H268.565V207.869H270.016C270.524 207.869 270.975 207.783 271.369 207.611C271.763 207.432 272.067 207.189 272.282 206.881C272.504 206.566 272.615 206.204 272.615 205.796C272.615 205.409 272.519 205.065 272.325 204.765C272.139 204.457 271.874 204.22 271.53 204.056C271.187 203.884 270.789 203.798 270.338 203.798C269.88 203.798 269.461 203.88 269.081 204.045C268.701 204.202 268.394 204.432 268.157 204.732C267.921 205.033 267.796 205.377 267.781 205.764H264.688C264.702 204.89 264.96 204.106 265.461 203.411C265.962 202.716 266.635 202.179 267.48 201.8C268.333 201.42 269.285 201.23 270.338 201.23C271.405 201.23 272.347 201.424 273.163 201.811C273.979 202.19 274.61 202.716 275.054 203.39C275.505 204.056 275.727 204.793 275.72 205.603C275.727 206.175 275.609 206.695 275.365 207.16C275.122 207.618 274.774 207.998 274.323 208.299C273.879 208.592 273.364 208.793 272.776 208.9V209.019C273.528 209.112 274.169 209.319 274.699 209.642C275.236 209.964 275.641 210.383 275.913 210.898C276.185 211.407 276.318 211.987 276.311 212.639C276.318 213.512 276.063 214.297 275.548 214.991C275.039 215.686 274.327 216.23 273.41 216.624C272.493 217.018 271.459 217.215 270.306 217.215Z" fill="black"/>
<path d="M334.917 217H331.673V204.518H331.587L328.031 206.773V203.895L331.877 201.445H334.917V217ZM338.279 211.693L344.854 201.445H347.045V204.99H345.734L341.545 211.521V211.65H350.88V214.25H338.279V211.693ZM345.831 213.466L345.874 212.338V201.445H348.914V217H345.831V213.466Z" fill="black"/>
<path d="M410.917 217H407.673V204.518H407.587L404.031 206.773V203.895L407.877 201.445H410.917V217ZM420.252 217.215C419.185 217.215 418.222 217.018 417.362 216.624C416.51 216.23 415.837 215.686 415.343 214.991C414.849 214.289 414.594 213.498 414.58 212.617H417.706C417.735 213.011 417.864 213.366 418.093 213.681C418.329 213.989 418.637 214.232 419.017 214.411C419.396 214.583 419.808 214.669 420.252 214.669C420.789 214.669 421.265 214.551 421.681 214.314C422.096 214.078 422.422 213.752 422.658 213.337C422.895 212.914 423.013 212.438 423.013 211.908C423.013 211.364 422.891 210.881 422.647 210.458C422.411 210.035 422.078 209.706 421.648 209.47C421.226 209.226 420.743 209.104 420.198 209.104C419.618 209.097 419.124 209.205 418.716 209.427C418.315 209.642 418 209.967 417.771 210.404H414.838L415.687 201.445H425.258V204.099H418.351L417.921 208.02H418.039C418.333 207.626 418.759 207.307 419.317 207.063C419.876 206.82 420.492 206.698 421.165 206.698C422.103 206.698 422.948 206.917 423.7 207.354C424.459 207.783 425.054 208.392 425.483 209.18C425.913 209.96 426.128 210.841 426.128 211.822C426.128 212.861 425.881 213.788 425.387 214.604C424.893 215.421 424.201 216.062 423.313 216.527C422.425 216.986 421.405 217.215 420.252 217.215Z" fill="black"/>
<path d="M480.917 217H477.673V204.518H477.587L474.031 206.773V203.895L477.877 201.445H480.917V217ZM490.563 217.215C489.41 217.208 488.361 216.953 487.416 216.452C486.471 215.951 485.712 215.131 485.139 213.992C484.566 212.854 484.279 211.382 484.279 209.577C484.279 207.851 484.544 206.362 485.074 205.108C485.604 203.848 486.349 202.888 487.309 202.229C488.268 201.563 489.393 201.23 490.682 201.23C491.699 201.23 492.612 201.427 493.421 201.821C494.237 202.215 494.889 202.759 495.376 203.454C495.87 204.142 496.171 204.911 496.278 205.764H493.088C493.002 205.398 492.848 205.083 492.626 204.818C492.411 204.546 492.135 204.342 491.799 204.206C491.469 204.07 491.097 204.002 490.682 204.002C489.98 204.002 489.389 204.202 488.909 204.604C488.437 204.997 488.075 205.567 487.824 206.312C487.581 207.049 487.455 207.93 487.448 208.954H487.577C487.821 208.503 488.143 208.113 488.544 207.783C488.952 207.447 489.414 207.192 489.93 207.021C490.445 206.849 490.99 206.763 491.562 206.763C492.486 206.763 493.317 206.981 494.055 207.418C494.799 207.848 495.383 208.446 495.806 209.212C496.228 209.971 496.439 210.83 496.439 211.79C496.439 212.843 496.192 213.781 495.698 214.604C495.211 215.421 494.52 216.062 493.625 216.527C492.737 216.986 491.716 217.215 490.563 217.215ZM490.542 214.669C491.065 214.669 491.537 214.547 491.96 214.304C492.382 214.053 492.712 213.716 492.948 213.294C493.185 212.871 493.303 212.402 493.303 211.887C493.303 211.371 493.188 210.902 492.959 210.479C492.73 210.057 492.4 209.728 491.971 209.491C491.548 209.248 491.079 209.126 490.563 209.126C490.048 209.126 489.579 209.248 489.156 209.491C488.734 209.735 488.397 210.071 488.146 210.501C487.896 210.924 487.771 211.389 487.771 211.897C487.771 212.399 487.892 212.861 488.136 213.283C488.379 213.706 488.709 214.042 489.124 214.293C489.547 214.544 490.019 214.669 490.542 214.669Z" fill="black"/>
<path d="M552.917 217H549.673V204.518H549.587L546.031 206.773V203.895L549.877 201.445H552.917V217ZM563.691 204.195V204.099H556.064V201.445H567.043V204.142L560.479 217H557.149L563.691 204.195Z" fill="#999999" fill-opacity="0.6"/>
<path d="M118.629 75.8828C118.59 75.4297 118.449 75.043 118.207 74.7227C117.965 74.4023 117.629 74.1602 117.199 73.9961C116.777 73.832 116.277 73.75 115.699 73.75C115.121 73.75 114.625 73.832 114.211 73.9961C113.797 74.1602 113.48 74.3906 113.262 74.6875C113.043 74.9766 112.934 75.3086 112.934 75.6836C112.918 76.2617 113.152 76.7148 113.637 77.043C114.121 77.3633 114.789 77.6211 115.641 77.8164L117.164 78.1797C118.766 78.5469 120.012 79.1289 120.902 79.9258C121.801 80.7227 122.25 81.8008 122.25 83.1602C122.25 84.1914 121.988 85.0898 121.465 85.8555C120.949 86.6211 120.195 87.2109 119.203 87.625C118.219 88.0312 117.043 88.2344 115.676 88.2344C114.301 88.2422 113.109 88.0352 112.102 87.6133C111.102 87.1836 110.32 86.5586 109.758 85.7383C109.203 84.9102 108.906 83.8984 108.867 82.7031H112.289C112.328 83.2578 112.492 83.7305 112.781 84.1211C113.07 84.5039 113.457 84.793 113.941 84.9883C114.434 85.1758 115 85.2695 115.641 85.2695C116.25 85.2695 116.785 85.1797 117.246 85C117.707 84.8203 118.062 84.5703 118.312 84.25C118.562 83.9297 118.688 83.5586 118.688 83.1367C118.688 82.7617 118.578 82.4414 118.359 82.1758C118.141 81.9102 117.82 81.6875 117.398 81.5078C116.984 81.3281 116.449 81.1562 115.793 80.9922L113.93 80.5469C112.445 80.1797 111.305 79.6211 110.508 78.8711C109.711 78.1133 109.316 77.1289 109.324 75.918C109.324 74.9102 109.598 74.0156 110.145 73.2344C110.691 72.4531 111.449 71.8516 112.418 71.4297C113.395 71.0078 114.5 70.7969 115.734 70.7969C116.969 70.7969 118.059 71.0117 119.004 71.4414C119.957 71.8633 120.695 72.4609 121.219 73.2344C121.742 74.0078 122.008 74.8906 122.016 75.8828H118.629Z" fill="#DB5858"/>
<path d="M184.777 71.0312L189.5 82.5273H189.699L194.41 71.0312H198.758V88H195.336V76.8789H195.195L190.766 87.918H188.41L183.992 76.8555H183.852V88H180.441V71.0312H184.777Z" fill="black"/>
<path d="M256.762 71.0312H270.66V73.9375H265.457V88H261.977V73.9375H256.762V71.0312Z" fill="black"/>
<path d="M327.387 71.0312H331.219L334.066 82.8906H334.219L337.324 71.0312H340.652L343.77 82.9258H343.91L346.758 71.0312H350.59L345.75 88H342.293L339.059 76.7969H338.93L335.684 88H332.238L327.387 71.0312Z" fill="black"/>
<path d="M406.762 71.0312H420.66V73.9375H415.457V88H411.977V73.9375H406.762V71.0312Z" fill="black"/>
<path d="M478.441 71.0312H489.621V73.9375H481.957V78.0625H488.883V80.957H481.957V88H478.441V71.0312Z" fill="black"/>
<path d="M556.629 75.8828C556.59 75.4297 556.449 75.043 556.207 74.7227C555.965 74.4023 555.629 74.1602 555.199 73.9961C554.777 73.832 554.277 73.75 553.699 73.75C553.121 73.75 552.625 73.832 552.211 73.9961C551.797 74.1602 551.48 74.3906 551.262 74.6875C551.043 74.9766 550.934 75.3086 550.934 75.6836C550.918 76.2617 551.152 76.7148 551.637 77.043C552.121 77.3633 552.789 77.6211 553.641 77.8164L555.164 78.1797C556.766 78.5469 558.012 79.1289 558.902 79.9258C559.801 80.7227 560.25 81.8008 560.25 83.1602C560.25 84.1914 559.988 85.0898 559.465 85.8555C558.949 86.6211 558.195 87.2109 557.203 87.625C556.219 88.0312 555.043 88.2344 553.676 88.2344C552.301 88.2422 551.109 88.0352 550.102 87.6133C549.102 87.1836 548.32 86.5586 547.758 85.7383C547.203 84.9102 546.906 83.8984 546.867 82.7031H550.289C550.328 83.2578 550.492 83.7305 550.781 84.1211C551.07 84.5039 551.457 84.793 551.941 84.9883C552.434 85.1758 553 85.2695 553.641 85.2695C554.25 85.2695 554.785 85.1797 555.246 85C555.707 84.8203 556.062 84.5703 556.312 84.25C556.562 83.9297 556.688 83.5586 556.688 83.1367C556.688 82.7617 556.578 82.4414 556.359 82.1758C556.141 81.9102 555.82 81.6875 555.398 81.5078C554.984 81.3281 554.449 81.1562 553.793 80.9922L551.93 80.5469C550.445 80.1797 549.305 79.6211 548.508 78.8711C547.711 78.1133 547.316 77.1289 547.324 75.918C547.324 74.9102 547.598 74.0156 548.145 73.2344C548.691 72.4531 549.449 71.8516 550.418 71.4297C551.395 71.0078 552.5 70.7969 553.734 70.7969C554.969 70.7969 556.059 71.0117 557.004 71.4414C557.957 71.8633 558.695 72.4609 559.219 73.2344C559.742 74.0078 560.008 74.8906 560.016 75.8828H556.629Z" fill="#DB5858"/>
<path d="M104.203 299.669L109.8 294.523C110.344 293.993 110.77 293.553 111.078 293.202C111.386 292.851 111.622 292.5 111.787 292.149C111.952 291.799 112.034 291.423 112.034 291.021C112.034 290.577 111.927 290.187 111.712 289.851C111.497 289.514 111.203 289.256 110.831 289.077C110.459 288.891 110.036 288.798 109.563 288.798C109.076 288.798 108.65 288.895 108.285 289.088C107.927 289.281 107.648 289.561 107.447 289.926C107.247 290.291 107.146 290.721 107.146 291.215H104.074C104.074 290.212 104.303 289.335 104.762 288.583C105.22 287.831 105.868 287.251 106.706 286.843C107.544 286.435 108.507 286.23 109.596 286.23C110.691 286.23 111.658 286.424 112.496 286.811C113.341 287.197 113.993 287.738 114.451 288.433C114.91 289.127 115.139 289.922 115.139 290.817C115.139 291.433 115.021 292.024 114.784 292.59C114.555 293.148 114.147 293.775 113.56 294.47C112.972 295.157 112.145 295.984 111.078 296.951L108.704 299.239V299.347H115.364V302H104.214L104.203 299.669ZM123.367 302.215C122.3 302.215 121.337 302.018 120.478 301.624C119.625 301.23 118.952 300.686 118.458 299.991C117.964 299.289 117.71 298.498 117.695 297.617H120.821C120.85 298.011 120.979 298.366 121.208 298.681C121.444 298.989 121.752 299.232 122.132 299.411C122.511 299.583 122.923 299.669 123.367 299.669C123.904 299.669 124.381 299.551 124.796 299.314C125.211 299.078 125.537 298.752 125.773 298.337C126.01 297.914 126.128 297.438 126.128 296.908C126.128 296.364 126.006 295.881 125.763 295.458C125.526 295.035 125.193 294.706 124.764 294.47C124.341 294.226 123.858 294.104 123.313 294.104C122.733 294.097 122.239 294.205 121.831 294.427C121.43 294.642 121.115 294.967 120.886 295.404H117.953L118.802 286.445H128.373V289.099H121.466L121.036 293.02H121.154C121.448 292.626 121.874 292.307 122.433 292.063C122.991 291.82 123.607 291.698 124.28 291.698C125.218 291.698 126.063 291.917 126.815 292.354C127.575 292.783 128.169 293.392 128.599 294.18C129.028 294.96 129.243 295.841 129.243 296.822C129.243 297.861 128.996 298.788 128.502 299.604C128.008 300.421 127.317 301.062 126.429 301.527C125.541 301.986 124.52 302.215 123.367 302.215Z" fill="#999999" fill-opacity="0.6"/>
<path d="M180.203 299.669L185.8 294.523C186.344 293.993 186.77 293.553 187.078 293.202C187.386 292.851 187.622 292.5 187.787 292.149C187.952 291.799 188.034 291.423 188.034 291.021C188.034 290.577 187.927 290.187 187.712 289.851C187.497 289.514 187.203 289.256 186.831 289.077C186.459 288.891 186.036 288.798 185.563 288.798C185.076 288.798 184.65 288.895 184.285 289.088C183.927 289.281 183.648 289.561 183.447 289.926C183.247 290.291 183.146 290.721 183.146 291.215H180.074C180.074 290.212 180.303 289.335 180.762 288.583C181.22 287.831 181.868 287.251 182.706 286.843C183.544 286.435 184.507 286.23 185.596 286.23C186.691 286.23 187.658 286.424 188.496 286.811C189.341 287.197 189.993 287.738 190.451 288.433C190.91 289.127 191.139 289.922 191.139 290.817C191.139 291.433 191.021 292.024 190.784 292.59C190.555 293.148 190.147 293.775 189.56 294.47C188.972 295.157 188.145 295.984 187.078 296.951L184.704 299.239V299.347H191.364V302H180.214L180.203 299.669ZM199.679 302.215C198.526 302.208 197.477 301.953 196.531 301.452C195.586 300.951 194.827 300.131 194.254 298.992C193.681 297.854 193.395 296.382 193.395 294.577C193.395 292.851 193.66 291.362 194.189 290.108C194.719 288.848 195.464 287.888 196.424 287.229C197.383 286.563 198.508 286.23 199.797 286.23C200.814 286.23 201.727 286.427 202.536 286.821C203.353 287.215 204.004 287.759 204.491 288.454C204.985 289.142 205.286 289.911 205.394 290.764H202.203C202.117 290.398 201.963 290.083 201.741 289.818C201.526 289.546 201.251 289.342 200.914 289.206C200.585 289.07 200.212 289.002 199.797 289.002C199.095 289.002 198.504 289.202 198.024 289.604C197.552 289.997 197.19 290.567 196.939 291.312C196.696 292.049 196.571 292.93 196.563 293.954H196.692C196.936 293.503 197.258 293.113 197.659 292.783C198.067 292.447 198.529 292.192 199.045 292.021C199.561 291.849 200.105 291.763 200.678 291.763C201.602 291.763 202.432 291.981 203.17 292.418C203.915 292.848 204.498 293.446 204.921 294.212C205.343 294.971 205.555 295.83 205.555 296.79C205.555 297.843 205.308 298.781 204.813 299.604C204.326 300.421 203.635 301.062 202.74 301.527C201.852 301.986 200.832 302.215 199.679 302.215ZM199.657 299.669C200.18 299.669 200.653 299.547 201.075 299.304C201.498 299.053 201.827 298.716 202.063 298.294C202.3 297.871 202.418 297.402 202.418 296.887C202.418 296.371 202.303 295.902 202.074 295.479C201.845 295.057 201.516 294.728 201.086 294.491C200.663 294.248 200.194 294.126 199.679 294.126C199.163 294.126 198.694 294.248 198.271 294.491C197.849 294.735 197.512 295.071 197.262 295.501C197.011 295.924 196.886 296.389 196.886 296.897C196.886 297.399 197.007 297.861 197.251 298.283C197.494 298.706 197.824 299.042 198.239 299.293C198.662 299.544 199.134 299.669 199.657 299.669Z" fill="black"/>
<path d="M254.203 299.669L259.8 294.523C260.344 293.993 260.77 293.553 261.078 293.202C261.386 292.851 261.622 292.5 261.787 292.149C261.952 291.799 262.034 291.423 262.034 291.021C262.034 290.577 261.927 290.187 261.712 289.851C261.497 289.514 261.203 289.256 260.831 289.077C260.459 288.891 260.036 288.798 259.563 288.798C259.076 288.798 258.65 288.895 258.285 289.088C257.927 289.281 257.648 289.561 257.447 289.926C257.247 290.291 257.146 290.721 257.146 291.215H254.074C254.074 290.212 254.303 289.335 254.762 288.583C255.22 287.831 255.868 287.251 256.706 286.843C257.544 286.435 258.507 286.23 259.596 286.23C260.691 286.23 261.658 286.424 262.496 286.811C263.341 287.197 263.993 287.738 264.451 288.433C264.91 289.127 265.139 289.922 265.139 290.817C265.139 291.433 265.021 292.024 264.784 292.59C264.555 293.148 264.147 293.775 263.56 294.47C262.972 295.157 262.145 295.984 261.078 296.951L258.704 299.239V299.347H265.364V302H254.214L254.203 299.669ZM274.807 289.195V289.099H267.18V286.445H278.158V289.142L271.595 302H268.265L274.807 289.195Z" fill="black"/>
<path d="M328.203 299.669L333.8 294.523C334.344 293.993 334.77 293.553 335.078 293.202C335.386 292.851 335.622 292.5 335.787 292.149C335.952 291.799 336.034 291.423 336.034 291.021C336.034 290.577 335.927 290.187 335.712 289.851C335.497 289.514 335.203 289.256 334.831 289.077C334.459 288.891 334.036 288.798 333.563 288.798C333.076 288.798 332.65 288.895 332.285 289.088C331.927 289.281 331.648 289.561 331.447 289.926C331.247 290.291 331.146 290.721 331.146 291.215H328.074C328.074 290.212 328.303 289.335 328.762 288.583C329.22 287.831 329.868 287.251 330.706 286.843C331.544 286.435 332.507 286.23 333.596 286.23C334.691 286.23 335.658 286.424 336.496 286.811C337.341 287.197 337.993 287.738 338.451 288.433C338.91 289.127 339.139 289.922 339.139 290.817C339.139 291.433 339.021 292.024 338.784 292.59C338.555 293.148 338.147 293.775 337.56 294.47C336.972 295.157 336.145 295.984 335.078 296.951L332.704 299.239V299.347H339.364V302H328.214L328.203 299.669ZM347.496 302.215C346.329 302.215 345.283 302.025 344.359 301.646C343.436 301.266 342.712 300.743 342.189 300.077C341.667 299.404 341.405 298.648 341.405 297.811C341.405 297.173 341.556 296.579 341.856 296.027C342.157 295.469 342.565 295.01 343.081 294.652C343.604 294.294 344.184 294.069 344.821 293.976V293.857C344.27 293.75 343.779 293.535 343.35 293.213C342.927 292.883 342.594 292.475 342.351 291.988C342.107 291.501 341.985 290.979 341.985 290.42C341.985 289.625 342.225 288.909 342.705 288.271C343.185 287.634 343.84 287.136 344.671 286.778C345.509 286.413 346.451 286.23 347.496 286.23C348.542 286.23 349.483 286.413 350.321 286.778C351.159 287.136 351.814 287.634 352.287 288.271C352.767 288.909 353.01 289.625 353.018 290.42C353.01 290.979 352.885 291.501 352.642 291.988C352.398 292.475 352.062 292.883 351.632 293.213C351.202 293.535 350.715 293.75 350.171 293.857V293.976C350.801 294.069 351.378 294.294 351.9 294.652C352.423 295.01 352.835 295.469 353.136 296.027C353.444 296.579 353.601 297.173 353.608 297.811C353.601 298.648 353.336 299.404 352.813 300.077C352.291 300.743 351.564 301.266 350.633 301.646C349.709 302.025 348.663 302.215 347.496 302.215ZM347.496 299.755C348.033 299.755 348.509 299.658 348.925 299.465C349.34 299.271 349.662 299.007 349.892 298.67C350.121 298.326 350.235 297.936 350.235 297.499C350.235 297.055 350.117 296.654 349.881 296.296C349.645 295.938 349.319 295.659 348.903 295.458C348.488 295.25 348.019 295.146 347.496 295.146C346.98 295.146 346.515 295.247 346.1 295.447C345.684 295.648 345.358 295.931 345.122 296.296C344.886 296.654 344.771 297.055 344.778 297.499C344.771 297.936 344.882 298.323 345.111 298.659C345.34 298.996 345.659 299.264 346.067 299.465C346.483 299.658 346.959 299.755 347.496 299.755ZM347.496 292.858C347.947 292.858 348.352 292.769 348.71 292.59C349.075 292.404 349.358 292.153 349.559 291.838C349.759 291.516 349.859 291.154 349.859 290.753C349.859 290.345 349.759 289.983 349.559 289.668C349.365 289.353 349.086 289.109 348.721 288.938C348.363 288.758 347.954 288.669 347.496 288.669C347.038 288.669 346.63 288.758 346.271 288.938C345.921 289.109 345.645 289.353 345.444 289.668C345.244 289.983 345.144 290.345 345.144 290.753C345.144 291.154 345.244 291.516 345.444 291.838C345.652 292.153 345.931 292.404 346.282 292.59C346.64 292.769 347.045 292.858 347.496 292.858Z" fill="black"/>
<path d="M404.203 299.669L409.8 294.523C410.344 293.993 410.77 293.553 411.078 293.202C411.386 292.851 411.622 292.5 411.787 292.149C411.952 291.799 412.034 291.423 412.034 291.021C412.034 290.577 411.927 290.187 411.712 289.851C411.497 289.514 411.203 289.256 410.831 289.077C410.459 288.891 410.036 288.798 409.563 288.798C409.076 288.798 408.65 288.895 408.285 289.088C407.927 289.281 407.648 289.561 407.447 289.926C407.247 290.291 407.146 290.721 407.146 291.215H404.074C404.074 290.212 404.303 289.335 404.762 288.583C405.22 287.831 405.868 287.251 406.706 286.843C407.544 286.435 408.507 286.23 409.596 286.23C410.691 286.23 411.658 286.424 412.496 286.811C413.341 287.197 413.993 287.738 414.451 288.433C414.91 289.127 415.139 289.922 415.139 290.817C415.139 291.433 415.021 292.024 414.784 292.59C414.555 293.148 414.147 293.775 413.56 294.47C412.972 295.157 412.145 295.984 411.078 296.951L408.704 299.239V299.347H415.364V302H404.214L404.203 299.669ZM423.335 286.23C424.488 286.238 425.534 286.492 426.472 286.993C427.41 287.487 428.165 288.3 428.738 289.432C429.311 290.563 429.601 292.024 429.608 293.814C429.608 295.555 429.347 297.055 428.824 298.315C428.309 299.576 427.567 300.543 426.601 301.216C425.634 301.882 424.502 302.215 423.206 302.215C422.182 302.215 421.265 302.014 420.456 301.613C419.647 301.212 418.995 300.668 418.501 299.98C418.014 299.293 417.717 298.509 417.609 297.628H420.789C420.875 298.007 421.029 298.333 421.251 298.605C421.48 298.878 421.759 299.085 422.089 299.229C422.418 299.372 422.791 299.443 423.206 299.443C423.901 299.443 424.492 299.243 424.979 298.842C425.465 298.441 425.831 297.868 426.074 297.123C426.318 296.378 426.443 295.483 426.45 294.438H426.311C426.067 294.889 425.745 295.279 425.344 295.608C424.943 295.931 424.481 296.181 423.958 296.36C423.442 296.532 422.898 296.618 422.325 296.618C421.401 296.618 420.571 296.403 419.833 295.974C419.095 295.544 418.512 294.95 418.082 294.19C417.66 293.431 417.448 292.576 417.448 291.623C417.448 290.585 417.692 289.657 418.179 288.841C418.673 288.017 419.368 287.376 420.263 286.918C421.158 286.46 422.182 286.23 423.335 286.23ZM423.346 288.766C422.823 288.766 422.35 288.891 421.928 289.142C421.505 289.385 421.176 289.718 420.939 290.141C420.703 290.563 420.589 291.025 420.596 291.526C420.596 292.042 420.714 292.507 420.95 292.923C421.187 293.331 421.509 293.657 421.917 293.9C422.325 294.144 422.791 294.266 423.313 294.266C423.836 294.266 424.309 294.14 424.731 293.89C425.161 293.639 425.498 293.306 425.741 292.891C425.992 292.468 426.117 292.006 426.117 291.505C426.11 291.018 425.985 290.567 425.741 290.151C425.505 289.729 425.175 289.392 424.753 289.142C424.338 288.891 423.868 288.766 423.346 288.766Z" fill="black"/>
<path d="M478.993 302.215C477.854 302.215 476.841 302.021 475.953 301.635C475.065 301.248 474.363 300.707 473.848 300.013C473.339 299.311 473.078 298.512 473.063 297.617H476.318C476.333 297.997 476.462 298.333 476.705 298.627C476.949 298.913 477.267 299.139 477.661 299.304C478.055 299.461 478.499 299.54 478.993 299.54C479.509 299.54 479.971 299.451 480.379 299.271C480.787 299.092 481.102 298.842 481.324 298.52C481.546 298.197 481.654 297.832 481.646 297.424C481.646 297.008 481.528 296.636 481.292 296.307C481.063 295.97 480.723 295.712 480.271 295.533C479.827 295.347 479.305 295.254 478.703 295.254H477.253V292.869H478.703C479.212 292.869 479.663 292.783 480.057 292.611C480.451 292.432 480.755 292.189 480.97 291.881C481.192 291.566 481.303 291.204 481.303 290.796C481.303 290.409 481.206 290.065 481.013 289.765C480.826 289.457 480.562 289.22 480.218 289.056C479.874 288.884 479.477 288.798 479.025 288.798C478.567 288.798 478.148 288.88 477.769 289.045C477.389 289.202 477.081 289.432 476.845 289.732C476.608 290.033 476.483 290.377 476.469 290.764H473.375C473.389 289.89 473.647 289.106 474.148 288.411C474.65 287.716 475.323 287.179 476.168 286.8C477.02 286.42 477.973 286.23 479.025 286.23C480.092 286.23 481.034 286.424 481.851 286.811C482.667 287.19 483.297 287.716 483.741 288.39C484.192 289.056 484.414 289.793 484.407 290.603C484.414 291.175 484.296 291.695 484.053 292.16C483.809 292.618 483.462 292.998 483.011 293.299C482.567 293.592 482.051 293.793 481.464 293.9V294.019C482.216 294.112 482.857 294.319 483.387 294.642C483.924 294.964 484.328 295.383 484.601 295.898C484.873 296.407 485.005 296.987 484.998 297.639C485.005 298.512 484.751 299.297 484.235 299.991C483.727 300.686 483.014 301.23 482.098 301.624C481.181 302.018 480.146 302.215 478.993 302.215ZM493.334 302.215C492.038 302.215 490.921 301.903 489.982 301.28C489.051 300.65 488.335 299.737 487.834 298.541C487.34 297.345 487.093 295.906 487.093 294.223C487.093 292.547 487.34 291.111 487.834 289.915C488.335 288.712 489.051 287.799 489.982 287.176C490.921 286.546 492.038 286.23 493.334 286.23C494.623 286.23 495.737 286.546 496.675 287.176C497.613 287.799 498.333 288.712 498.834 289.915C499.335 291.111 499.586 292.547 499.586 294.223C499.586 295.913 499.335 297.356 498.834 298.552C498.34 299.748 497.624 300.657 496.686 301.28C495.747 301.903 494.63 302.215 493.334 302.215ZM493.334 299.551C493.943 299.551 494.469 299.354 494.913 298.96C495.364 298.566 495.704 297.972 495.934 297.177C496.17 296.382 496.285 295.397 496.277 294.223C496.277 293.062 496.159 292.085 495.923 291.29C495.687 290.488 495.346 289.886 494.902 289.485C494.458 289.084 493.936 288.884 493.334 288.884C492.725 288.884 492.202 289.084 491.766 289.485C491.329 289.886 490.989 290.488 490.745 291.29C490.502 292.085 490.38 293.062 490.38 294.223C490.38 295.397 490.502 296.382 490.745 297.177C490.989 297.972 491.325 298.566 491.755 298.96C492.192 299.354 492.718 299.551 493.334 299.551Z" fill="black"/>
</svg>
