<svg width="307" height="161" viewBox="0 0 307 161" fill="none" xmlns="http://www.w3.org/2000/svg">
<rect width="307" height="161" rx="16" fill="#E2DBFF"/>
<mask id="mask0_568_2155" style="mask-type:alpha" maskUnits="userSpaceOnUse" x="12" y="12" width="24" height="24">
<rect x="12" y="12" width="24" height="24" fill="#D9D9D9"/>
</mask>
<g mask="url(#mask0_568_2155)">
<path d="M17.4964 34.4023C16.975 34.4023 16.5287 34.2065 16.1575 33.8148C15.7862 33.4232 15.6006 32.9523 15.6006 32.4023V18.4023C15.6006 17.8523 15.7862 17.3815 16.1575 16.9898C16.5287 16.5982 16.975 16.4023 17.4964 16.4023H18.4443V14.4023H20.34V16.4023H27.9232V14.4023H29.8189V16.4023H30.7668C31.2882 16.4023 31.7345 16.5982 32.1057 16.9898C32.477 17.3815 32.6626 17.8523 32.6626 18.4023V32.4023C32.6626 32.9523 32.477 33.4232 32.1057 33.8148C31.7345 34.2065 31.2882 34.4023 30.7668 34.4023H17.4964ZM17.4964 32.4023H30.7668V22.4023H17.4964V32.4023ZM17.4964 20.4023H30.7668V18.4023H17.4964V20.4023ZM24.1316 26.4023C23.863 26.4023 23.6379 26.3065 23.4562 26.1148C23.2746 25.9232 23.1837 25.6857 23.1837 25.4023C23.1837 25.119 23.2746 24.8815 23.4562 24.6898C23.6379 24.4982 23.863 24.4023 24.1316 24.4023C24.4002 24.4023 24.6253 24.4982 24.807 24.6898C24.9887 24.8815 25.0795 25.119 25.0795 25.4023C25.0795 25.6857 24.9887 25.9232 24.807 26.1148C24.6253 26.3065 24.4002 26.4023 24.1316 26.4023ZM20.34 26.4023C20.0715 26.4023 19.8463 26.3065 19.6647 26.1148C19.483 25.9232 19.3921 25.6857 19.3921 25.4023C19.3921 25.119 19.483 24.8815 19.6647 24.6898C19.8463 24.4982 20.0715 24.4023 20.34 24.4023C20.6086 24.4023 20.8337 24.4982 21.0154 24.6898C21.1971 24.8815 21.2879 25.119 21.2879 25.4023C21.2879 25.6857 21.1971 25.9232 21.0154 26.1148C20.8337 26.3065 20.6086 26.4023 20.34 26.4023ZM27.9232 26.4023C27.6546 26.4023 27.4295 26.3065 27.2478 26.1148C27.0661 25.9232 26.9753 25.6857 26.9753 25.4023C26.9753 25.119 27.0661 24.8815 27.2478 24.6898C27.4295 24.4982 27.6546 24.4023 27.9232 24.4023C28.1917 24.4023 28.4169 24.4982 28.5985 24.6898C28.7802 24.8815 28.8711 25.119 28.8711 25.4023C28.8711 25.6857 28.7802 25.9232 28.5985 26.1148C28.4169 26.3065 28.1917 26.4023 27.9232 26.4023ZM24.1316 30.4023C23.863 30.4023 23.6379 30.3065 23.4562 30.1148C23.2746 29.9232 23.1837 29.6857 23.1837 29.4023C23.1837 29.119 23.2746 28.8815 23.4562 28.6898C23.6379 28.4982 23.863 28.4023 24.1316 28.4023C24.4002 28.4023 24.6253 28.4982 24.807 28.6898C24.9887 28.8815 25.0795 29.119 25.0795 29.4023C25.0795 29.6857 24.9887 29.9232 24.807 30.1148C24.6253 30.3065 24.4002 30.4023 24.1316 30.4023ZM20.34 30.4023C20.0715 30.4023 19.8463 30.3065 19.6647 30.1148C19.483 29.9232 19.3921 29.6857 19.3921 29.4023C19.3921 29.119 19.483 28.8815 19.6647 28.6898C19.8463 28.4982 20.0715 28.4023 20.34 28.4023C20.6086 28.4023 20.8337 28.4982 21.0154 28.6898C21.1971 28.8815 21.2879 29.119 21.2879 29.4023C21.2879 29.6857 21.1971 29.9232 21.0154 30.1148C20.8337 30.3065 20.6086 30.4023 20.34 30.4023ZM27.9232 30.4023C27.6546 30.4023 27.4295 30.3065 27.2478 30.1148C27.0661 29.9232 26.9753 29.6857 26.9753 29.4023C26.9753 29.119 27.0661 28.8815 27.2478 28.6898C27.4295 28.4982 27.6546 28.4023 27.9232 28.4023C28.1917 28.4023 28.4169 28.4982 28.5985 28.6898C28.7802 28.8815 28.8711 29.119 28.8711 29.4023C28.8711 29.6857 28.7802 29.9232 28.5985 30.1148C28.4169 30.3065 28.1917 30.4023 27.9232 30.4023Z" fill="#1C1B1F"/>
</g>
<mask id="mask1_568_2155" style="mask-type:alpha" maskUnits="userSpaceOnUse" x="12" y="49" width="24" height="24">
<rect x="12" y="49" width="24" height="24" fill="#D9D9D9"/>
</mask>
<g mask="url(#mask1_568_2155)">
<path d="M27.0073 66.0984L28.3344 64.6984L24.8272 60.9984V56.3984H22.9314V61.7984L27.0073 66.0984ZM23.8793 71.3984C22.568 71.3984 21.3358 71.1359 20.1825 70.6109C19.0293 70.0859 18.0261 69.3734 17.173 68.4734C16.3199 67.5734 15.6445 66.5151 15.1469 65.2984C14.6492 64.0818 14.4004 62.7818 14.4004 61.3984C14.4004 60.0151 14.6492 58.7151 15.1469 57.4984C15.6445 56.2818 16.3199 55.2234 17.173 54.3234C18.0261 53.4234 19.0293 52.7109 20.1825 52.1859C21.3358 51.6609 22.568 51.3984 23.8793 51.3984C25.1905 51.3984 26.4228 51.6609 27.5761 52.1859C28.7293 52.7109 29.7325 53.4234 30.5856 54.3234C31.4387 55.2234 32.1141 56.2818 32.6117 57.4984C33.1094 58.7151 33.3582 60.0151 33.3582 61.3984C33.3582 62.7818 33.1094 64.0818 32.6117 65.2984C32.1141 66.5151 31.4387 67.5734 30.5856 68.4734C29.7325 69.3734 28.7293 70.0859 27.5761 70.6109C26.4228 71.1359 25.1905 71.3984 23.8793 71.3984ZM23.8793 69.3984C25.9805 69.3984 27.7696 68.6193 29.2467 67.0609C30.7239 65.5026 31.4624 63.6151 31.4624 61.3984C31.4624 59.1818 30.7239 57.2943 29.2467 55.7359C27.7696 54.1776 25.9805 53.3984 23.8793 53.3984C21.7781 53.3984 19.989 54.1776 18.5119 55.7359C17.0347 57.2943 16.2962 59.1818 16.2962 61.3984C16.2962 63.6151 17.0347 65.5026 18.5119 67.0609C19.989 68.6193 21.7781 69.3984 23.8793 69.3984Z" fill="#1C1B1F"/>
</g>
<mask id="mask2_568_2155" style="mask-type:alpha" maskUnits="userSpaceOnUse" x="12" y="86" width="24" height="24">
<rect x="12" y="86" width="24" height="24" fill="#D9D9D9"/>
</mask>
<g mask="url(#mask2_568_2155)">
<path d="M23.5841 97.9961C24.1054 97.9961 24.5517 97.8003 24.923 97.4086C25.2943 97.0169 25.4799 96.5461 25.4799 95.9961C25.4799 95.4461 25.2943 94.9753 24.923 94.5836C24.5517 94.1919 24.1054 93.9961 23.5841 93.9961C23.0628 93.9961 22.6165 94.1919 22.2452 94.5836C21.874 94.9753 21.6883 95.4461 21.6883 95.9961C21.6883 96.5461 21.874 97.0169 22.2452 97.4086C22.6165 97.8003 23.0628 97.9961 23.5841 97.9961ZM23.5841 105.346C25.5115 103.479 26.9412 101.784 27.8733 100.259C28.8054 98.7336 29.2714 97.3794 29.2714 96.1961C29.2714 94.3794 28.7225 92.8919 27.6245 91.7336C26.5265 90.5753 25.1797 89.9961 23.5841 89.9961C21.9885 89.9961 20.6417 90.5753 19.5437 91.7336C18.4457 92.8919 17.8968 94.3794 17.8968 96.1961C17.8968 97.3794 18.3628 98.7336 19.2949 100.259C20.227 101.784 21.6567 103.479 23.5841 105.346ZM23.5841 107.996C21.0406 105.713 19.1409 103.592 17.8849 101.634C16.629 99.6753 16.001 97.8628 16.001 96.1961C16.001 93.6961 16.7632 91.7044 18.2878 90.2211C19.8123 88.7378 21.5777 87.9961 23.5841 87.9961C25.5905 87.9961 27.3559 88.7378 28.8804 90.2211C30.405 91.7044 31.1672 93.6961 31.1672 96.1961C31.1672 97.8628 30.5393 99.6753 29.2833 101.634C28.0273 103.592 26.1276 105.713 23.5841 107.996Z" fill="#1C1B1F"/>
</g>
<mask id="mask3_568_2155" style="mask-type:alpha" maskUnits="userSpaceOnUse" x="12" y="123" width="24" height="24">
<rect x="12" y="123" width="24" height="24" fill="#D9D9D9"/>
</mask>
<g mask="url(#mask3_568_2155)">
<path d="M12.96 141.243V139.731C12.96 139.043 13.2936 138.483 13.9609 138.051C14.6282 137.619 15.5079 137.403 16.5999 137.403C16.797 137.403 16.9866 137.407 17.1686 137.415C17.3506 137.423 17.525 137.443 17.6918 137.475C17.4795 137.811 17.3203 138.163 17.2141 138.531C17.1079 138.899 17.0548 139.283 17.0548 139.683V141.243H12.96ZM18.4198 141.243V139.683C18.4198 139.171 18.5525 138.703 18.8179 138.279C19.0833 137.855 19.4587 137.483 19.944 137.163C20.4293 136.843 21.0095 136.603 21.6843 136.443C22.3592 136.283 23.091 136.203 23.8797 136.203C24.6835 136.203 25.4228 136.283 26.0977 136.443C26.7726 136.603 27.3527 136.843 27.8381 137.163C28.3234 137.483 28.6949 137.855 28.9528 138.279C29.2106 138.703 29.3395 139.171 29.3395 139.683V141.243H18.4198ZM30.7045 141.243V139.683C30.7045 139.267 30.6552 138.875 30.5566 138.507C30.458 138.139 30.3102 137.795 30.113 137.475C30.2798 137.443 30.4504 137.423 30.6249 137.415C30.7993 137.407 30.9775 137.403 31.1595 137.403C32.2514 137.403 33.1311 137.615 33.7984 138.039C34.4657 138.463 34.7994 139.027 34.7994 139.731V141.243H30.7045ZM20.3535 139.323H27.4286C27.2769 139.003 26.856 138.723 26.166 138.483C25.4759 138.243 24.7138 138.123 23.8797 138.123C23.0455 138.123 22.2834 138.243 21.5934 138.483C20.9033 138.723 20.49 139.003 20.3535 139.323ZM16.5999 136.443C16.0994 136.443 15.6709 136.255 15.3145 135.879C14.9581 135.503 14.7799 135.051 14.7799 134.523C14.7799 133.979 14.9581 133.523 15.3145 133.155C15.6709 132.787 16.0994 132.603 16.5999 132.603C17.1155 132.603 17.5478 132.787 17.8966 133.155C18.2454 133.523 18.4198 133.979 18.4198 134.523C18.4198 135.051 18.2454 135.503 17.8966 135.879C17.5478 136.255 17.1155 136.443 16.5999 136.443ZM31.1595 136.443C30.659 136.443 30.2305 136.255 29.8741 135.879C29.5177 135.503 29.3395 135.051 29.3395 134.523C29.3395 133.979 29.5177 133.523 29.8741 133.155C30.2305 132.787 30.659 132.603 31.1595 132.603C31.6751 132.603 32.1074 132.787 32.4562 133.155C32.805 133.523 32.9794 133.979 32.9794 134.523C32.9794 135.051 32.805 135.503 32.4562 135.879C32.1074 136.255 31.6751 136.443 31.1595 136.443ZM23.8797 135.483C23.1214 135.483 22.4768 135.203 21.946 134.643C21.4151 134.083 21.1497 133.403 21.1497 132.603C21.1497 131.787 21.4151 131.103 21.946 130.551C22.4768 129.999 23.1214 129.723 23.8797 129.723C24.6531 129.723 25.3015 129.999 25.8247 130.551C26.348 131.103 26.6096 131.787 26.6096 132.603C26.6096 133.403 26.348 134.083 25.8247 134.643C25.3015 135.203 24.6531 135.483 23.8797 135.483ZM23.8797 133.563C24.1375 133.563 24.3536 133.471 24.528 133.287C24.7024 133.103 24.7896 132.875 24.7896 132.603C24.7896 132.331 24.7024 132.103 24.528 131.919C24.3536 131.735 24.1375 131.643 23.8797 131.643C23.6218 131.643 23.4057 131.735 23.2313 131.919C23.0569 132.103 22.9697 132.331 22.9697 132.603C22.9697 132.875 23.0569 133.103 23.2313 133.287C23.4057 133.471 23.6218 133.563 23.8797 133.563Z" fill="#1C1B1F"/>
</g>
</svg>
