<svg width="25" height="25" viewBox="0 0 16 16" fill="none" xmlns="http://www.w3.org/2000/svg">
<g id="Group">
<path id="Vector" d="M7.9987 1.3335C11.6807 1.3335 14.6654 4.31816 14.6654 8.00016C14.6654 11.6822 11.6807 14.6668 7.9987 14.6668C4.3167 14.6668 1.33203 11.6822 1.33203 8.00016C1.33203 4.31816 4.3167 1.3335 7.9987 1.3335ZM7.9987 2.66683C6.58421 2.66683 5.22766 3.22873 4.22746 4.22893C3.22727 5.22912 2.66536 6.58567 2.66536 8.00016C2.66536 9.41465 3.22727 10.7712 4.22746 11.7714C5.22766 12.7716 6.58421 13.3335 7.9987 13.3335C9.41319 13.3335 10.7697 12.7716 11.7699 11.7714C12.7701 10.7712 13.332 9.41465 13.332 8.00016C13.332 6.58567 12.7701 5.22912 11.7699 4.22893C10.7697 3.22873 9.41319 2.66683 7.9987 2.66683ZM7.9987 4.00016C8.16199 4.00018 8.31959 4.06013 8.44161 4.16864C8.56364 4.27715 8.64159 4.42666 8.6607 4.58883L8.66536 4.66683V7.72416L10.47 9.52883C10.5896 9.6488 10.659 9.80978 10.6642 9.97908C10.6694 10.1484 10.6099 10.3133 10.4979 10.4403C10.3858 10.5674 10.2297 10.647 10.061 10.6631C9.89243 10.6792 9.72402 10.6304 9.59003 10.5268L9.52736 10.4715L7.52736 8.4715C7.42375 8.36779 7.35721 8.23283 7.33803 8.0875L7.33203 8.00016V4.66683C7.33203 4.49002 7.40227 4.32045 7.52729 4.19542C7.65232 4.0704 7.82189 4.00016 7.9987 4.00016Z" fill="black"/>
</g>
</svg>
