<svg width="20" height="20" viewBox="0 0 12 15" fill="none" xmlns="http://www.w3.org/2000/svg">
<g id="Group 377">
<g id="Group 376">
<g id="Group 358">
<path id="Vector" d="M4.04473 5.35096H7.87558C8.30117 5.35096 8.51406 5.16846 8.51406 4.80365C8.51406 4.43884 8.30117 4.25635 7.87558 4.25635H4.04473C3.61914 4.25635 3.40625 4.43884 3.40625 4.80365C3.40625 5.16846 3.61914 5.35096 4.04473 5.35096Z" fill="black"/>
</g>
<g id="Group 359">
<path id="Vector_2" d="M4.04473 7.90516H7.87558C8.30117 7.90516 8.51406 7.72266 8.51406 7.35785C8.51406 6.99304 8.30117 6.81055 7.87558 6.81055H4.04473C3.61914 6.81055 3.40625 6.99304 3.40625 7.35785C3.40625 7.72266 3.61914 7.90516 4.04473 7.90516Z" fill="black"/>
</g>
<g id="Group 360">
<path id="Vector_3" d="M4.04473 10.4579H7.87558C8.30117 10.4579 8.51406 10.2754 8.51406 9.91059C8.51406 9.54577 8.30117 9.36328 7.87558 9.36328H4.04473C3.61914 9.36328 3.40625 9.54577 3.40625 9.91059C3.40625 10.2754 3.61914 10.4579 4.04473 10.4579Z" fill="black"/>
</g>
<rect id="Rectangle 391" x="0.638476" y="0.638476" width="10.6413" height="13.1952" rx="1.06413" stroke="black" stroke-width="1.27695"/>
</g>
</g>
</svg>
