<svg width="20" height="20" viewBox="0 0 13 13" fill="none" xmlns="http://www.w3.org/2000/svg">
<rect width="13" height="13" fill="#252525"/>
<g id="iOS &#236;&#139;&#156;&#235;&#130;&#152;&#235;&#166;&#172;&#236;&#152;&#164; &#236;&#181;&#156;&#236;&#162;&#133;">
<path d="M-884 -7080C-884 -7081.11 -883.105 -7082 -882 -7082H6039C6040.1 -7082 6041 -7081.1 6041 -7080V12262C6041 12263.1 6040.1 12264 6039 12264H-882C-883.105 12264 -884 12263.1 -884 12262V-7080Z" fill="black"/>
<g id="&#237;&#148;&#140;&#235;&#158;&#152;&#234;&#183;&#184; - &#236;&#149;&#189;&#236;&#134;&#141; &#236;&#136;&#152;&#236;&#160;&#149;" clip-path="url(#clip0_28_485)">
<rect width="390" height="844" transform="translate(-31 -154)" fill="white"/>
<g id="Group 265">
<rect id="Rectangle 278" x="-30" y="-46" width="390" height="702" fill="#FAFAFA"/>
<rect id="Rectangle 279" x="-31" y="-39" width="390" height="639" fill="white"/>
<path id="&#234;&#180;&#145;&#234;&#179;&#160;&#235;&#161;&#160; &#237;&#140;&#128;&#237;&#148;&#140; &#237;&#154;&#140;&#236;&#157;&#152;" d="M18.0597 4.14C18.0597 6.24 15.7597 7.52 11.8797 7.52C7.99969 7.52 5.73969 6.24 5.73969 4.14C5.73969 2.04 7.99969 0.74 11.8797 0.74C15.7797 0.74 18.0597 2.04 18.0597 4.14ZM17.8997 -10.24V-5.54H20.1797V-3.6H17.8997V0.56H15.5797V-10.24H17.8997ZM14.8197 -0.760001C13.5397 -0.6 11.0997 -0.36 9.21969 -0.300001C7.15969 -0.22 4.83969 -0.14 3.65969 -0.14L3.35969 -2.02C4.43969 -2.02 5.63969 -2.02 6.79969 -2.06V-5.28H9.11969V-2.12C10.7197 -2.18 13.3997 -2.34 14.5797 -2.54L14.8197 -0.760001ZM13.5797 -9.22C13.5797 -6.7 13.4397 -4.8 13.0997 -3.36L10.8397 -3.7C11.0397 -4.52 11.2197 -6.02 11.2197 -7.38H4.47969V-9.22H13.5797ZM11.8797 2.62C9.53969 2.62 8.13969 3.24 8.13969 4.14C8.13969 5.06 9.53969 5.66 11.8797 5.66C14.2597 5.66 15.6197 5.06 15.6197 4.14C15.6197 3.24 14.2797 2.62 11.8797 2.62ZM37.1844 5.08H21.0844V3.22H26.8644V-2.78H29.2044V3.22H37.1844V5.08ZM35.3444 -8.68C35.4244 -4.2 35.2044 -0.94 34.5844 1.42L32.3444 1.14C32.9044 -0.92 33.0444 -4.34 32.9844 -6.8H22.8044V-8.68H35.3444ZM52.8091 -1.72H47.5691V-0.32H54.4891V1.56H38.3891V-0.32H45.2291V-1.72H40.5091V-6.54H49.9691V-7.84H40.4891V-9.6H52.3291V-4.86H42.8491V-3.48H52.8091V-1.72ZM52.6291 7.1H40.4491V2.4H42.7691V5.26H52.6291V7.1ZM75.6677 7.36H63.7677V0.78H75.6677V7.36ZM71.4677 -2.9L71.7077 -1.1C69.9077 -0.74 65.9277 -0.56 63.6277 -0.56H61.9477V-9.26H70.2677V-7.4H64.2477V-5.9H69.9477V-4.04H64.2477V-2.42C66.3677 -2.34 69.4677 -2.48 71.4677 -2.9ZM75.6677 -0.160001H73.3277V-10.24H75.6677V-0.160001ZM73.3277 5.52V2.56H66.1277V5.52H73.3277ZM94.3523 -0.56H78.2523V-2.44H94.3523V-0.56ZM92.8523 7.5H80.2323V3.12H89.9923V2.28H80.1923V0.439999H92.3123V4.76H82.5723V5.58H92.8523V7.5ZM92.6923 -3.28H79.8523V-5.12H82.3323L81.9723 -7.18L84.2523 -7.5L84.5323 -5.12H88.0323L88.4123 -7.5L90.6723 -7.18L90.2123 -5.12H92.6923V-3.28ZM92.7323 -8H79.7923V-9.84H92.7323V-8ZM110.931 -1.44C110.931 0.0999997 109.631 1.22 107.751 1.52V2.88C109.431 2.78 110.991 2.68 112.291 2.52L112.491 4.3C109.451 4.64 104.431 4.92 101.091 4.92L100.791 3.02C102.311 3.02 103.871 3 105.411 2.98V1.5C103.591 1.16 102.371 0.0599996 102.371 -1.44C102.371 -3.26 104.171 -4.5 106.631 -4.5C109.111 -4.5 110.931 -3.26 110.931 -1.44ZM115.651 -10.24V7.58H113.311V-10.24H115.651ZM111.771 -4.98H101.371V-6.74H111.771V-4.98ZM104.031 -7.54V-9.3H109.211V-7.54H104.031ZM108.571 -1.44C108.571 -2.12 107.771 -2.7 106.631 -2.7C105.511 -2.7 104.711 -2.12 104.711 -1.44C104.711 -0.760001 105.511 -0.160001 106.631 -0.160001C107.771 -0.160001 108.571 -0.760001 108.571 -1.44ZM121.216 -4.84C121.216 -3.52 122.176 -2.5 123.776 -2.5C125.396 -2.5 126.356 -3.52 126.356 -4.84C126.356 -6.1 125.396 -7.12 123.776 -7.12C122.176 -7.12 121.216 -6.1 121.216 -4.84ZM133.156 -10.24V7.58H130.836V-10.24H133.156ZM118.816 -4.82C118.816 -7.32 120.776 -9.1 123.776 -9.1C126.796 -9.1 128.716 -7.32 128.716 -4.82C128.716 -2.34 126.796 -0.54 123.776 -0.54C120.776 -0.54 118.816 -2.34 118.816 -4.82ZM130.096 3.02C128.396 3.24 125.976 3.44 124.076 3.54C122.096 3.62 119.976 3.7 118.476 3.68L118.136 1.68C120.196 1.68 121.916 1.66 123.936 1.58C126.156 1.5 128.316 1.34 129.896 1.14L130.096 3.02Z" fill="black"/>
<rect id="Rectangle 364" x="-31" y="-154" width="390" height="851" fill="black" fill-opacity="0.5"/>
</g>
<path id="Rectangle 272" d="M-31 -70C-31 -81.0457 -22.0457 -90 -11 -90H339C350.046 -90 359 -81.0457 359 -70V690H-31V-70Z" fill="white"/>
<g id="Group 422">
<path id="Vector 15" d="M4 1V3" stroke="black" stroke-width="1.28" stroke-linecap="round" stroke-linejoin="round"/>
<path id="Vector 16" d="M9 1V3" stroke="black" stroke-width="1.28" stroke-linecap="round" stroke-linejoin="round"/>
<path id="Vector 17" d="M1 5.5H12" stroke="black" stroke-width="1.28" stroke-linecap="round" stroke-linejoin="round"/>
<rect id="Rectangle 407" x="0.64" y="2.64" width="11.72" height="9.72" rx="1.36" stroke="black" stroke-width="1.28"/>
</g>
</g>
<path d="M-882 -7081H6039V-7083H-882V-7081ZM6040 -7080V12262H6042V-7080H6040ZM6039 12263H-882V12265H6039V12263ZM-883 12262V-7080H-885V12262H-883ZM-882 12263C-882.552 12263 -883 12262.6 -883 12262H-885C-885 12263.7 -883.657 12265 -882 12265V12263ZM6040 12262C6040 12262.6 6039.55 12263 6039 12263V12265C6040.66 12265 6042 12263.7 6042 12262H6040ZM6039 -7081C6039.55 -7081 6040 -7080.55 6040 -7080H6042C6042 -7081.66 6040.66 -7083 6039 -7083V-7081ZM-882 -7083C-883.657 -7083 -885 -7081.66 -885 -7080H-883C-883 -7080.55 -882.553 -7081 -882 -7081V-7083Z" fill="white" fill-opacity="0.1"/>
</g>
<defs>
<clipPath id="clip0_28_485">
<rect width="390" height="844" fill="white" transform="translate(-31 -154)"/>
</clipPath>
</defs>
</svg>
