<svg width="73" height="27" viewBox="0 0 73 27" fill="none" xmlns="http://www.w3.org/2000/svg">
<rect width="73" height="27" rx="13.5" fill="#E2DBFF"/>
<path d="M19.3018 8.78516C19.2959 9.80469 19.1201 10.7627 18.7744 11.6592C18.4346 12.5498 17.9189 13.3291 17.2275 13.9971C16.5361 14.665 15.6953 15.1631 14.7051 15.4912L13.5449 13.7334C14.4004 13.4639 15.1182 13.0713 15.6982 12.5557C16.2842 12.04 16.7178 11.46 16.999 10.8154C17.2861 10.165 17.4297 9.48828 17.4297 8.78516V7.3877H19.3018V8.78516ZM19.7061 8.78516C19.7061 9.44727 19.8438 10.083 20.1191 10.6924C20.4004 11.3018 20.8281 11.8496 21.4023 12.3359C21.9766 12.8164 22.6826 13.1826 23.5205 13.4346L22.3867 15.2012C21.4082 14.8848 20.582 14.4102 19.9082 13.7773C19.2344 13.1387 18.7246 12.3916 18.3789 11.5361C18.0391 10.6807 17.8721 9.76367 17.8779 8.78516V7.3877H19.7061V8.78516ZM22.9316 8.55664H14.1338V6.76367H22.9316V8.55664ZM26.8604 17.1963H24.6191V5.63867H26.8604V17.1963ZM27.2998 21.3447H16.1465V19.5342H27.2998V21.3447ZM18.4141 20.4395H16.1465V16.1416H18.4141V20.4395ZM42.7773 15.6406H40.6416V5.60352H42.7773V15.6406ZM41.2129 11.4131H38.5938V9.58496H41.2129V11.4131ZM39.3672 15.1221H37.2754V5.91113H39.3672V15.1221ZM36.8008 9.00488H28.9521V7.25586H36.8008V9.00488ZM32.8984 9.5498C33.5723 9.5498 34.1729 9.66406 34.7002 9.89258C35.2334 10.1211 35.6494 10.4492 35.9482 10.877C36.2471 11.2988 36.3965 11.7881 36.3965 12.3447C36.3965 12.8838 36.2471 13.3643 35.9482 13.7861C35.6494 14.2021 35.2334 14.5273 34.7002 14.7617C34.1729 14.9902 33.5723 15.1045 32.8984 15.1045C32.2363 15.1045 31.6416 14.9902 31.1143 14.7617C30.5928 14.5273 30.1826 14.2021 29.8838 13.7861C29.585 13.3643 29.4355 12.8838 29.4355 12.3447C29.4355 11.7881 29.585 11.2988 29.8838 10.877C30.1826 10.4492 30.5928 10.1211 31.1143 9.89258C31.6416 9.66406 32.2363 9.5498 32.8984 9.5498ZM32.8984 11.1582C32.6113 11.1523 32.3564 11.1963 32.1338 11.29C31.917 11.3838 31.7471 11.5215 31.624 11.7031C31.501 11.8848 31.4395 12.0986 31.4395 12.3447C31.4395 12.585 31.498 12.793 31.6152 12.9688C31.7383 13.1445 31.9082 13.2822 32.125 13.3818C32.3477 13.4756 32.6055 13.5225 32.8984 13.5225C33.1914 13.5225 33.4492 13.4756 33.6719 13.3818C33.8945 13.2822 34.0674 13.1445 34.1904 12.9688C34.3135 12.793 34.375 12.585 34.375 12.3447C34.375 12.0986 34.3135 11.8848 34.1904 11.7031C34.0674 11.5215 33.8945 11.3838 33.6719 11.29C33.4492 11.1963 33.1914 11.1523 32.8984 11.1582ZM34.0059 8.46875H31.7646V5.76172H34.0059V8.46875ZM37.3105 15.8076C38.459 15.8076 39.4492 15.9219 40.2812 16.1504C41.1133 16.373 41.749 16.7041 42.1885 17.1436C42.6338 17.583 42.8564 18.1074 42.8564 18.7168C42.8564 19.332 42.6338 19.8535 42.1885 20.2812C41.749 20.7148 41.1133 21.0459 40.2812 21.2744C39.4492 21.5029 38.459 21.6172 37.3105 21.6172C36.168 21.6172 35.1807 21.5029 34.3486 21.2744C33.5225 21.0459 32.8867 20.7148 32.4414 20.2812C31.9961 19.8535 31.7734 19.332 31.7734 18.7168C31.7734 18.1074 31.9961 17.583 32.4414 17.1436C32.8867 16.7041 33.5225 16.373 34.3486 16.1504C35.1807 15.9219 36.168 15.8076 37.3105 15.8076ZM37.3105 17.4863C36.5781 17.4805 35.9688 17.5215 35.4824 17.6094C35.002 17.6973 34.6357 17.835 34.3838 18.0225C34.1377 18.21 34.0176 18.4414 34.0234 18.7168C34.0176 18.9805 34.1377 19.2031 34.3838 19.3848C34.6357 19.5605 35.0049 19.6953 35.4912 19.7891C35.9775 19.8828 36.584 19.9297 37.3105 19.9297C38.0371 19.9297 38.6436 19.8828 39.1299 19.7891C39.6221 19.6953 39.9883 19.5605 40.2285 19.3848C40.4746 19.209 40.6006 18.9863 40.6064 18.7168C40.6006 18.4355 40.4746 18.2041 40.2285 18.0225C39.9883 17.835 39.625 17.6973 39.1387 17.6094C38.6523 17.5215 38.043 17.4805 37.3105 17.4863ZM52.9814 16.4668H50.7754V13.6279H52.9814V16.4668ZM59.1865 14.6826H44.5967V12.8896H59.1865V14.6826ZM51.8652 15.834C53.0195 15.834 54.0127 15.9453 54.8447 16.168C55.6826 16.3848 56.3213 16.7129 56.7607 17.1523C57.2061 17.5918 57.4316 18.1191 57.4375 18.7344C57.4316 19.3496 57.2061 19.8711 56.7607 20.2988C56.3213 20.7324 55.6826 21.0605 54.8447 21.2832C54.0068 21.5059 53.0137 21.6172 51.8652 21.6172C50.6934 21.6172 49.6885 21.5059 48.8506 21.2832C48.0186 21.0605 47.377 20.7324 46.9258 20.2988C46.4805 19.8711 46.2578 19.3496 46.2578 18.7344C46.2578 18.1191 46.4805 17.5918 46.9258 17.1523C47.3711 16.7129 48.0127 16.3848 48.8506 16.168C49.6885 15.9512 50.6934 15.8398 51.8652 15.834ZM51.8652 17.5215C51.1211 17.5273 50.5029 17.5771 50.0107 17.6709C49.5244 17.7588 49.1553 17.8906 48.9033 18.0664C48.6572 18.2422 48.5371 18.4648 48.543 18.7344C48.5371 18.9922 48.6572 19.2119 48.9033 19.3936C49.1553 19.5693 49.5273 19.7041 50.0195 19.7979C50.5117 19.8857 51.127 19.9297 51.8652 19.9297C52.5859 19.9297 53.1924 19.8828 53.6846 19.7891C54.1826 19.6953 54.5547 19.5605 54.8008 19.3848C55.0527 19.209 55.1787 18.9922 55.1787 18.7344C55.1787 18.4707 55.0557 18.251 54.8096 18.0752C54.5635 17.8936 54.1943 17.7588 53.7021 17.6709C53.21 17.5771 52.5977 17.5273 51.8652 17.5215ZM52.3223 7.52832C52.3164 8.34277 52.0674 9.08691 51.5752 9.76074C51.0889 10.4287 50.3682 10.9854 49.4131 11.4307C48.4639 11.8701 47.3184 12.1543 45.9766 12.2832L45.2383 10.5166C46.334 10.4229 47.2686 10.2236 48.042 9.91895C48.8154 9.6084 49.3896 9.24512 49.7646 8.8291C50.1455 8.40723 50.3389 7.97363 50.3447 7.52832V7.10645H52.3223V7.52832ZM53.4121 7.52832C53.4121 7.97949 53.5996 8.41602 53.9746 8.83789C54.3555 9.25391 54.9326 9.61426 55.7061 9.91895C56.4854 10.2236 57.4375 10.4229 58.5625 10.5166L57.7715 12.2832C56.4355 12.1543 55.29 11.8701 54.335 11.4307C53.3799 10.9854 52.6533 10.4287 52.1553 9.76074C51.6572 9.08691 51.4053 8.34277 51.3994 7.52832V7.10645H53.4121V7.52832ZM57.8682 8.06445H45.915V6.29785H57.8682V8.06445Z" fill="black"/>
</svg>
