<svg width="35" height="36" viewBox="0 0 35 36" fill="none" xmlns="http://www.w3.org/2000/svg">
<path d="M11.6128 26.5V24.052C16.0768 19.996 19.0768 16.756 19.0768 14.164C19.0768 12.532 18.1888 11.644 16.7488 11.644C15.5248 11.644 14.5888 12.46 13.7248 13.372L11.3968 11.068C13.1488 9.196 14.7808 8.308 17.3248 8.308C20.7808 8.308 23.1808 10.516 23.1808 13.924C23.1808 16.996 20.5408 20.38 17.8048 23.14C18.6928 23.02 19.9168 22.9 20.7328 22.9H23.9968V26.5H11.6128Z" fill="black"/>
<path d="M35.0002 18.4076C35.0002 27.8478 27.1651 35.5006 17.5001 35.5006C7.83505 35.5006 0 27.8478 0 18.4076C0 8.96729 7.83505 1.31445 17.5001 1.31445C27.1651 1.31445 35.0002 8.96729 35.0002 18.4076ZM4.37502 18.4076C4.37502 25.4877 10.2513 31.2274 17.5001 31.2274C24.7488 31.2274 30.6251 25.4877 30.6251 18.4076C30.6251 11.3274 24.7488 5.58773 17.5001 5.58773C10.2513 5.58773 4.37502 11.3274 4.37502 18.4076Z" fill="black"/>
</svg>
