<svg width="42" height="42" viewBox="0 0 42 42" fill="none" xmlns="http://www.w3.org/2000/svg">
<path d="M20.9684 31.378C17.7554 31.378 15.5414 30.163 13.9484 28.597L16.1354 25.573C17.2694 26.653 18.6734 27.49 20.2664 27.49C22.2104 27.49 23.4254 26.437 23.4254 24.358C23.4254 22.333 22.2104 21.253 20.4824 21.253C19.3754 21.253 18.8354 21.469 17.6474 22.225L15.5414 20.848L16.0544 10.885H27.3404V14.908H20.1854L19.8884 18.31C20.6174 18.013 21.2114 17.905 21.9674 17.905C25.3694 17.905 28.2314 19.903 28.2314 24.25C28.2314 28.759 24.8294 31.378 20.9684 31.378Z" fill="black"/>
<path d="M42 21C42 32.598 32.598 42 21 42C9.40202 42 0 32.598 0 21C0 9.40202 9.40202 0 21 0C32.598 0 42 9.40202 42 21ZM5.25 21C5.25 29.6985 12.3015 36.75 21 36.75C29.6985 36.75 36.75 29.6985 36.75 21C36.75 12.3015 29.6985 5.25 21 5.25C12.3015 5.25 5.25 12.3015 5.25 21Z" fill="black"/>
</svg>
