<svg width="23" height="23" viewBox="0 0 23 23" fill="none" xmlns="http://www.w3.org/2000/svg">
<circle cx="11.5" cy="11.5" r="11.5" fill="#8E6FFF"/>
<mask id="mask0_1509_1515" style="mask-type:alpha" maskUnits="userSpaceOnUse" x="3" y="4" width="17" height="17">
<rect x="3" y="4" width="17" height="17" rx="1" fill="#D9D9D9"/>
</mask>
<g mask="url(#mask0_1509_1515)">
<path d="M10.7596 15.852C10.3718 16.2274 9.75611 16.2274 9.36836 15.852L6.24882 12.8316C5.93965 12.5322 5.93965 12.0364 6.24882 11.7371C6.54418 11.4511 7.01319 11.4511 7.30855 11.7371L9.36836 13.7314C9.75611 14.1068 10.3718 14.1068 10.7596 13.7314L16.5849 8.09116C16.8803 7.80518 17.3493 7.80518 17.6447 8.09116C17.9539 8.3905 17.9539 8.88633 17.6447 9.18568L10.7596 15.852Z" fill="white"/>
</g>
</svg>
