<svg width="42" height="43" viewBox="0 0 42 43" fill="none" xmlns="http://www.w3.org/2000/svg">
<path d="M15.3794 31V27.112H19.6454V15.691H15.9464V12.721C18.1064 12.316 19.5104 11.776 20.9144 10.885H24.4514V27.112H28.0694V31H15.3794Z" fill="black"/>
<path d="M42 22C42 33.598 32.598 43 21 43C9.40202 43 0 33.598 0 22C0 10.402 9.40202 1 21 1C32.598 1 42 10.402 42 22ZM5.25 22C5.25 30.6985 12.3015 37.75 21 37.75C29.6985 37.75 36.75 30.6985 36.75 22C36.75 13.3015 29.6985 6.25 21 6.25C12.3015 6.25 5.25 13.3015 5.25 22Z" fill="black"/>
</svg>
