<svg width="108" height="109" viewBox="0 0 108 109" fill="none" xmlns="http://www.w3.org/2000/svg">
<ellipse cx="54" cy="54.5" rx="53.5" ry="53.875" fill="#A889FF"/>
<g filter="url(#filter0_d_1555_686)">
<mask id="mask0_1555_686" style="mask-type:alpha" maskUnits="userSpaceOnUse" x="9" y="9" width="91" height="92">
<rect x="9.27148" y="9.45898" width="90.6079" height="91.243" rx="7" fill="#D9D9D9"/>
</mask>
<g mask="url(#mask0_1555_686)">
<path d="M50.2911 72.8885C47.5535 75.6453 43.0946 75.6453 40.3571 72.8885L26.4758 58.91C24.9976 57.4214 24.9976 55.0189 26.4758 53.5303V53.5303C27.9687 52.0269 30.4003 52.0269 31.8932 53.5303L40.357 62.0534C43.0946 64.8102 47.5535 64.8102 50.2911 62.0534L77.254 34.9015C78.7469 33.3981 81.1785 33.3982 82.6714 34.9015V34.9015C84.1496 36.3901 84.1496 38.7926 82.6714 40.2812L50.2911 72.8885Z" fill="white"/>
</g>
</g>
<defs>
<filter id="filter0_d_1555_686" x="18.3672" y="30.7734" width="72.4121" height="55.1836" filterUnits="userSpaceOnUse" color-interpolation-filters="sRGB">
<feFlood flood-opacity="0" result="BackgroundImageFix"/>
<feColorMatrix in="SourceAlpha" type="matrix" values="0 0 0 0 0 0 0 0 0 0 0 0 0 0 0 0 0 0 127 0" result="hardAlpha"/>
<feOffset dy="4"/>
<feGaussianBlur stdDeviation="3.5"/>
<feComposite in2="hardAlpha" operator="out"/>
<feColorMatrix type="matrix" values="0 0 0 0 0 0 0 0 0 0 0 0 0 0 0 0 0 0 0.25 0"/>
<feBlend mode="normal" in2="BackgroundImageFix" result="effect1_dropShadow_1555_686"/>
<feBlend mode="normal" in="SourceGraphic" in2="effect1_dropShadow_1555_686" result="shape"/>
</filter>
</defs>
</svg>
