<svg width="35" height="36" viewBox="0 0 35 36" fill="none" xmlns="http://www.w3.org/2000/svg">
<path d="M17.2989 26.836C14.4669 26.836 12.4749 25.852 11.1789 24.34L13.1469 21.652C14.2269 22.66 15.4749 23.38 16.8669 23.38C18.5229 23.38 19.6029 22.684 19.6029 21.34C19.6029 19.804 18.7869 18.892 15.0429 18.892V15.868C18.0909 15.868 19.0509 14.956 19.0509 13.54C19.0509 12.316 18.3309 11.644 17.0109 11.644C15.8109 11.644 14.8989 12.172 13.8189 13.132L11.6589 10.516C13.3149 9.124 15.0909 8.308 17.2029 8.308C20.8989 8.308 23.3229 10.036 23.3229 13.228C23.3229 15.004 22.3629 16.396 20.4669 17.164V17.284C22.4349 17.884 23.8989 19.324 23.8989 21.628C23.8989 24.964 20.8509 26.836 17.2989 26.836Z" fill="black"/>
<path d="M35 18.4075C35 27.8477 27.165 35.5005 17.5 35.5005C7.83502 35.5005 0 27.8477 0 18.4075C0 8.96726 7.83502 1.31445 17.5 1.31445C27.165 1.31445 35 8.96726 35 18.4075ZM4.375 18.4075C4.375 25.4876 10.2513 31.2272 17.5 31.2272C24.7487 31.2272 30.625 25.4876 30.625 18.4075C30.625 11.3273 24.7487 5.58771 17.5 5.58771C10.2513 5.58771 4.375 11.3273 4.375 18.4075Z" fill="black"/>
</svg>
