<svg xmlns="http://www.w3.org/2000/svg" width="22" height="22" viewBox="0 0 22 22" fill="none">
  <mask id="mask0_1621_871" style="mask-type:alpha" maskUnits="userSpaceOnUse" x="0" y="0" width="22" height="22">
    <rect width="22" height="22" fill="#D9D9D9"/>
  </mask>
  <g mask="url(#mask0_1621_871)">
    <path d="M10.9548 16.5026C11.2757 16.5026 11.5468 16.3918 11.7684 16.1703C11.9899 15.9488 12.1007 15.6776 12.1007 15.3568C12.1007 15.0359 11.9899 14.7648 11.7684 14.5432C11.5468 14.3217 11.2757 14.2109 10.9548 14.2109C10.634 14.2109 10.3628 14.3217 10.1413 14.5432C9.91975 14.7648 9.80898 15.0359 9.80898 15.3568C9.80898 15.6776 9.91975 15.9488 10.1413 16.1703C10.3628 16.3918 10.634 16.5026 10.9548 16.5026ZM10.1298 12.9734H11.8257C11.8257 12.4693 11.8829 12.072 11.9975 11.7818C12.1121 11.4915 12.4368 11.0943 12.9715 10.5901C13.3687 10.1929 13.6819 9.81476 13.9111 9.45573C14.1402 9.0967 14.2548 8.6651 14.2548 8.16094C14.2548 7.30538 13.9416 6.64844 13.3152 6.1901C12.6888 5.73177 11.9479 5.5026 11.0923 5.5026C10.2215 5.5026 9.51489 5.73177 8.97253 6.1901C8.43016 6.64844 8.05204 7.19844 7.83815 7.8401L9.35065 8.43594C9.42704 8.16094 9.59892 7.86302 9.86628 7.54219C10.1336 7.22135 10.5423 7.06094 11.0923 7.06094C11.5812 7.06094 11.9479 7.19462 12.1923 7.46198C12.4368 7.72934 12.559 8.02344 12.559 8.34427C12.559 8.64983 12.4673 8.93629 12.284 9.20365C12.1007 9.47101 11.8715 9.71927 11.5965 9.94844C10.9243 10.5443 10.5118 10.995 10.359 11.3005C10.2062 11.6061 10.1298 12.1637 10.1298 12.9734ZM11.0007 20.1693C9.7326 20.1693 8.54093 19.9286 7.42565 19.4474C6.31037 18.9661 5.34023 18.313 4.51523 17.488C3.69023 16.663 3.03711 15.6929 2.55586 14.5776C2.07461 13.4623 1.83398 12.2707 1.83398 11.0026C1.83398 9.73455 2.07461 8.54288 2.55586 7.4276C3.03711 6.31233 3.69023 5.34219 4.51523 4.51719C5.34023 3.69219 6.31037 3.03906 7.42565 2.55781C8.54093 2.07656 9.7326 1.83594 11.0007 1.83594C12.2687 1.83594 13.4604 2.07656 14.5757 2.55781C15.6909 3.03906 16.6611 3.69219 17.4861 4.51719C18.3111 5.34219 18.9642 6.31233 19.4454 7.4276C19.9267 8.54288 20.1673 9.73455 20.1673 11.0026C20.1673 12.2707 19.9267 13.4623 19.4454 14.5776C18.9642 15.6929 18.3111 16.663 17.4861 17.488C16.6611 18.313 15.6909 18.9661 14.5757 19.4474C13.4604 19.9286 12.2687 20.1693 11.0007 20.1693ZM11.0007 18.3359C13.0479 18.3359 14.7819 17.6255 16.2027 16.2047C17.6236 14.7839 18.334 13.0498 18.334 11.0026C18.334 8.95538 17.6236 7.22135 16.2027 5.80052C14.7819 4.37969 13.0479 3.66927 11.0007 3.66927C8.95343 3.66927 7.2194 4.37969 5.79857 5.80052C4.37773 7.22135 3.66732 8.95538 3.66732 11.0026C3.66732 13.0498 4.37773 14.7839 5.79857 16.2047C7.2194 17.6255 8.95343 18.3359 11.0007 18.3359Z" fill="#1C1B1F"/>
  </g>
</svg>
