<svg width="35" height="35" viewBox="0 0 35 35" fill="none" xmlns="http://www.w3.org/2000/svg">
<path d="M12.4768 26V22.544H16.2688V12.392H12.9808V9.752C14.9008 9.392 16.1488 8.912 17.3968 8.12H20.5408V22.544H23.7568V26H12.4768Z" fill="black"/>
<path d="M35 17.9075C35 27.3477 27.165 35.0005 17.5 35.0005C7.83502 35.0005 0 27.3477 0 17.9075C0 8.46726 7.83502 0.814453 17.5 0.814453C27.165 0.814453 35 8.46726 35 17.9075ZM4.375 17.9075C4.375 24.9876 10.2513 30.7272 17.5 30.7272C24.7487 30.7272 30.625 24.9876 30.625 17.9075C30.625 10.8273 24.7487 5.08771 17.5 5.08771C10.2513 5.08771 4.375 10.8273 4.375 17.9075Z" fill="black"/>
</svg>
