<svg width="24" height="27" viewBox="0 0 24 27" fill="none" xmlns="http://www.w3.org/2000/svg">
<mask id="mask0_1647_1059" style="mask-type:alpha" maskUnits="userSpaceOnUse" x="0" y="0" width="24" height="27">
<rect width="24" height="27" rx="1" transform="matrix(-1 0 0 1 24 0)" fill="#D9D9D9"/>
</mask>
<g mask="url(#mask0_1647_1059)">
<path d="M7.25259 23.9092C7.65038 24.3567 8.34962 24.3567 8.74741 23.9092L17.4095 14.1644C17.7462 13.7855 17.7462 13.2145 17.4095 12.8356L8.74741 3.09083C8.34962 2.64332 7.65038 2.64332 7.25259 3.09084L6.81555 3.58251C6.47876 3.9614 6.47876 4.53235 6.81555 4.91124L13.8595 12.8356C14.1962 13.2145 14.1962 13.7855 13.8595 14.1644L6.81555 22.0888C6.47876 22.4676 6.47876 23.0386 6.81555 23.4175L7.25259 23.9092Z" fill="#1C1B1F"/>
</g>
</svg>
