<svg xmlns="http://www.w3.org/2000/svg" width="48" height="48" viewBox="0 0 48 48" fill="none">
  <mask id="mask0_847_895" style="mask-type:alpha" maskUnits="userSpaceOnUse" x="0" y="0" width="48" height="48">
    <rect width="48" height="48" fill="#D9D9D9"/>
  </mask>
  <g mask="url(#mask0_847_895)">
    <path d="M8 38.002V34.002H12V20.002C12 17.2353 12.8333 14.777 14.5 12.627C16.1667 10.477 18.3333 9.06862 21 8.40195V7.00195C21 6.16862 21.2917 5.46029 21.875 4.87695C22.4583 4.29362 23.1667 4.00195 24 4.00195C24.8333 4.00195 25.5417 4.29362 26.125 4.87695C26.7083 5.46029 27 6.16862 27 7.00195V8.40195C29.6667 9.06862 31.8333 10.477 33.5 12.627C35.1667 14.777 36 17.2353 36 20.002V34.002H40V38.002H8ZM24 44.002C22.9 44.002 21.9583 43.6103 21.175 42.827C20.3917 42.0436 20 41.102 20 40.002H28C28 41.102 27.6083 42.0436 26.825 42.827C26.0417 43.6103 25.1 44.002 24 44.002ZM16 34.002H32V20.002C32 17.802 31.2167 15.9186 29.65 14.352C28.0833 12.7853 26.2 12.002 24 12.002C21.8 12.002 19.9167 12.7853 18.35 14.352C16.7833 15.9186 16 17.802 16 20.002V34.002Z" fill="#1C1B1F"/>
  </g>
</svg>