<svg width="497" height="214" viewBox="0 0 497 214" fill="none" xmlns="http://www.w3.org/2000/svg">
<circle cx="30" cy="27.5" r="12" fill="#85FF72"/>
<path d="M51.5064 34V18.7273H61.2905V21.0465H54.2731V25.1928H60.6193V27.5121H54.2731V34H51.5064ZM63.8111 34V18.7273H66.5778V31.6808H73.3043V34H63.8111ZM78.2411 34H75.288L80.6648 18.7273H84.0803L89.4645 34H86.5114L82.4322 21.8594H82.3129L78.2411 34ZM78.3381 28.0117H86.392V30.234H78.3381V28.0117ZM100.99 23.6044C100.866 23.2017 100.694 22.8413 100.475 22.5231C100.262 22.1999 100.003 21.924 99.6998 21.6953C99.4015 21.4666 99.0584 21.2951 98.6706 21.1808C98.2828 21.0614 97.8603 21.0018 97.4029 21.0018C96.5826 21.0018 95.8517 21.2081 95.2104 21.6207C94.5691 22.0334 94.0645 22.6399 93.6966 23.4403C93.3336 24.2358 93.1522 25.2053 93.1522 26.3487C93.1522 27.5021 93.3336 28.479 93.6966 29.2795C94.0595 30.0799 94.5641 30.6889 95.2104 31.1065C95.8567 31.5192 96.6074 31.7255 97.4625 31.7255C98.2381 31.7255 98.9093 31.5763 99.476 31.2781C100.048 30.9798 100.488 30.5572 100.796 30.0103C101.104 29.4585 101.258 28.8121 101.258 28.0714L101.885 28.1683H97.7385V26.0057H103.936V27.8402C103.936 29.1477 103.657 30.2788 103.1 31.2333C102.544 32.1879 101.778 32.9237 100.803 33.4407C99.829 33.9528 98.7104 34.2088 97.4476 34.2088C96.0407 34.2088 94.8052 33.8931 93.7413 33.2617C92.6824 32.6254 91.8546 31.723 91.258 30.5547C90.6664 29.3814 90.3706 27.9893 90.3706 26.3786C90.3706 25.1456 90.5446 24.0444 90.8926 23.0749C91.2456 22.1055 91.7377 21.2827 92.3691 20.6065C93.0005 19.9254 93.7413 19.4084 94.5914 19.0554C95.4416 18.6974 96.3663 18.5185 97.3656 18.5185C98.2108 18.5185 98.9988 18.6428 99.7296 18.8913C100.46 19.1349 101.109 19.483 101.676 19.9354C102.248 20.3878 102.718 20.9247 103.085 21.5462C103.453 22.1676 103.694 22.8537 103.809 23.6044H100.99ZM112.119 18.166H121.464V31.249H112.119V18.166ZM118.734 20.35H114.87V29.044H118.734V20.35ZM124.488 16.402H127.302V35.911H124.488V16.402ZM131.543 25.138H133.202C137.213 25.138 139.544 25.096 142.211 24.676L142.484 26.839C139.754 27.301 137.297 27.343 133.202 27.343H131.543V25.138ZM131.543 17.767H140.888V19.972H134.315V26.041H131.543V17.767ZM133.454 21.463H140.321V23.605H133.454V21.463ZM143.828 16.444H146.642V28.183H143.828V16.444ZM140.069 28.477C144.164 28.477 146.726 29.842 146.726 32.173C146.726 34.525 144.164 35.869 140.069 35.869C135.953 35.869 133.412 34.525 133.412 32.173C133.412 29.842 135.953 28.477 140.069 28.477ZM140.069 30.619C137.528 30.619 136.205 31.123 136.205 32.173C136.205 33.244 137.528 33.748 140.069 33.748C142.589 33.748 143.933 33.244 143.933 32.173C143.933 31.123 142.589 30.619 140.069 30.619Z" fill="white"/>
<path d="M19.3991 68V66.4091L24.321 61.3097C24.8466 60.7557 25.2798 60.2704 25.6207 59.8537C25.9664 59.4323 26.2244 59.0322 26.3949 58.6534C26.5653 58.2746 26.6506 57.8722 26.6506 57.446C26.6506 56.9631 26.5369 56.5464 26.3097 56.196C26.0824 55.8409 25.7723 55.5687 25.3793 55.3793C24.9863 55.1851 24.5436 55.0881 24.0511 55.0881C23.5303 55.0881 23.0758 55.1946 22.6875 55.4077C22.2992 55.6207 22.0009 55.9214 21.7926 56.3097C21.5843 56.6979 21.4801 57.1525 21.4801 57.6733H19.3849C19.3849 56.7879 19.5885 56.0137 19.9957 55.3509C20.4029 54.688 20.9616 54.1742 21.6719 53.8097C22.3821 53.4403 23.1894 53.2557 24.0938 53.2557C25.0076 53.2557 25.8125 53.438 26.5085 53.8026C27.2093 54.1624 27.7562 54.6548 28.1491 55.2798C28.5421 55.9001 28.7386 56.6009 28.7386 57.3821C28.7386 57.9219 28.6368 58.4498 28.4332 58.9659C28.2344 59.482 27.8864 60.0573 27.3892 60.6918C26.892 61.3215 26.2008 62.0862 25.3153 62.9858L22.4247 66.0114V66.1179H28.973V68H19.3991ZM36.7287 68.2415C35.6065 68.2367 34.6477 67.9408 33.8523 67.3537C33.0568 66.7666 32.4484 65.9119 32.027 64.7898C31.6056 63.6676 31.3949 62.3158 31.3949 60.7344C31.3949 59.1577 31.6056 57.8106 32.027 56.6932C32.4531 55.5758 33.0639 54.7235 33.8594 54.1364C34.6596 53.5492 35.616 53.2557 36.7287 53.2557C37.8414 53.2557 38.7955 53.5516 39.5909 54.1435C40.3864 54.7306 40.9948 55.5829 41.4162 56.7003C41.8423 57.813 42.0554 59.1577 42.0554 60.7344C42.0554 62.3205 41.8447 63.6747 41.4233 64.7969C41.0019 65.9143 40.3935 66.7689 39.598 67.3608C38.8026 67.9479 37.8461 68.2415 36.7287 68.2415ZM36.7287 66.3452C37.7135 66.3452 38.483 65.8646 39.0369 64.9034C39.5956 63.9422 39.875 62.5526 39.875 60.7344C39.875 59.527 39.7472 58.5066 39.4915 57.6733C39.2405 56.8352 38.8783 56.2008 38.4048 55.7699C37.9361 55.3343 37.3774 55.1165 36.7287 55.1165C35.7486 55.1165 34.9792 55.5994 34.4205 56.5653C33.8617 57.5312 33.58 58.9209 33.5753 60.7344C33.5753 61.9465 33.7008 62.9716 33.9517 63.8097C34.2074 64.643 34.5696 65.2751 35.0384 65.706C35.5071 66.1321 36.0705 66.3452 36.7287 66.3452ZM44.5749 68V66.4091L49.4968 61.3097C50.0224 60.7557 50.4556 60.2704 50.7965 59.8537C51.1422 59.4323 51.4002 59.0322 51.5707 58.6534C51.7411 58.2746 51.8263 57.8722 51.8263 57.446C51.8263 56.9631 51.7127 56.5464 51.4854 56.196C51.2582 55.8409 50.948 55.5687 50.555 55.3793C50.1621 55.1851 49.7193 55.0881 49.2269 55.0881C48.7061 55.0881 48.2515 55.1946 47.8633 55.4077C47.475 55.6207 47.1767 55.9214 46.9684 56.3097C46.7601 56.6979 46.6559 57.1525 46.6559 57.6733H44.5607C44.5607 56.7879 44.7643 56.0137 45.1715 55.3509C45.5787 54.688 46.1374 54.1742 46.8477 53.8097C47.5579 53.4403 48.3652 53.2557 49.2695 53.2557C50.1834 53.2557 50.9883 53.438 51.6843 53.8026C52.3851 54.1624 52.9319 54.6548 53.3249 55.2798C53.7179 55.9001 53.9144 56.6009 53.9144 57.3821C53.9144 57.9219 53.8126 58.4498 53.609 58.9659C53.4102 59.482 53.0621 60.0573 52.565 60.6918C52.0678 61.3215 51.3765 62.0862 50.4911 62.9858L47.6005 66.0114V66.1179H54.1488V68H44.5749ZM61.9045 68.1989C60.9291 68.1989 60.0579 68.0308 59.2908 67.6946C58.5285 67.3584 57.9248 66.892 57.4798 66.2955C57.0394 65.6941 56.8027 64.9981 56.7695 64.2074H58.9996C59.0281 64.6383 59.1725 65.0123 59.4329 65.3295C59.698 65.642 60.0437 65.8835 60.4698 66.054C60.896 66.2244 61.3694 66.3097 61.8903 66.3097C62.4632 66.3097 62.9698 66.2102 63.4102 66.0114C63.8552 65.8125 64.2032 65.5355 64.4542 65.1804C64.7051 64.8205 64.8306 64.4062 64.8306 63.9375C64.8306 63.4498 64.7051 63.0213 64.4542 62.652C64.208 62.2779 63.8458 61.9844 63.3675 61.7713C62.8941 61.5582 62.3211 61.4517 61.6488 61.4517H60.4201V59.6619H61.6488C62.1886 59.6619 62.6621 59.5649 63.0692 59.3707C63.4812 59.1766 63.8031 58.9067 64.0352 58.5611C64.2672 58.2107 64.3832 57.8011 64.3832 57.3324C64.3832 56.8826 64.2814 56.492 64.0778 56.1605C63.8789 55.8243 63.5948 55.5616 63.2255 55.3722C62.8609 55.1828 62.43 55.0881 61.9329 55.0881C61.4594 55.0881 61.0167 55.1757 60.6048 55.3509C60.1976 55.5213 59.8661 55.7675 59.6104 56.0895C59.3548 56.4067 59.2174 56.7879 59.1985 57.233H57.0749C57.0986 56.447 57.3306 55.7557 57.771 55.1591C58.216 54.5625 58.8031 54.0961 59.5323 53.7599C60.2615 53.4238 61.0711 53.2557 61.9613 53.2557C62.8941 53.2557 63.699 53.438 64.3761 53.8026C65.0579 54.1624 65.5835 54.643 65.9528 55.2443C66.3268 55.8456 66.5115 56.5038 66.5067 57.2188C66.5115 58.0331 66.2842 58.7244 65.8249 59.2926C65.3704 59.8608 64.7643 60.242 64.0067 60.4361V60.5497C64.9727 60.6965 65.7208 61.08 66.2511 61.7003C66.7861 62.3205 67.0513 63.09 67.0465 64.0085C67.0513 64.8087 66.8287 65.526 66.3789 66.1605C65.9338 66.795 65.3254 67.2945 64.5536 67.6591C63.7818 68.0189 62.8988 68.1989 61.9045 68.1989ZM82.532 51.48H84.192V64.88H82.532V51.48ZM77.432 53.84H83.152V55.18H77.432V53.84ZM72.632 67.8H84.672V69.16H72.632V67.8ZM72.632 63.72H74.292V68.42H72.632V63.72ZM70.372 52.8H72.032V61.32H70.372V52.8ZM70.372 60.8H71.732C74.312 60.8 76.732 60.66 79.552 60.16L79.712 61.54C76.812 62.06 74.392 62.18 71.732 62.18H70.372V60.8ZM77.432 57.28H83.152V58.64H77.432V57.28ZM93.9126 68L100.262 55.4432V55.3366H92.9183V53.4545H102.535V55.4006L96.2067 68H93.9126ZM109.445 58.96H111.105V62.18H109.445V58.96ZM117.745 51.48H119.405V62.12H117.745V51.48ZM104.745 59.52L104.545 58.28C108.025 58.28 112.445 58.26 116.305 57.82L116.405 58.9C112.445 59.48 108.125 59.52 104.745 59.52ZM107.285 62.78H119.405V66.54H108.945V68.58H107.325V65.44H117.765V63.98H107.285V62.78ZM107.325 68.16H120.005V69.36H107.325V68.16ZM114.145 60.08H118.265V61.16H114.145V60.08ZM110.385 51.82C113.065 51.82 114.825 52.86 114.825 54.54C114.825 56.22 113.065 57.26 110.385 57.26C107.685 57.26 105.925 56.22 105.925 54.54C105.925 52.86 107.685 51.82 110.385 51.82ZM110.385 52.98C108.605 52.98 107.465 53.58 107.465 54.54C107.465 55.5 108.605 56.1 110.385 56.1C112.125 56.1 113.265 55.5 113.265 54.54C113.265 53.58 112.125 52.98 110.385 52.98ZM134.214 53.4545V68H132.013V55.6562H131.928L128.447 57.929V55.8267L132.077 53.4545H134.214ZM142.95 68.1989C142.06 68.1989 141.26 68.0284 140.55 67.6875C139.844 67.3419 139.281 66.8684 138.859 66.267C138.438 65.6657 138.213 64.9792 138.185 64.2074H140.315C140.367 64.8324 140.644 65.3461 141.146 65.7486C141.648 66.151 142.25 66.3523 142.95 66.3523C143.509 66.3523 144.004 66.2244 144.435 65.9688C144.87 65.7083 145.211 65.3509 145.457 64.8963C145.708 64.4418 145.834 63.9233 145.834 63.3409C145.834 62.7491 145.706 62.2211 145.45 61.7571C145.195 61.2931 144.842 60.9285 144.392 60.6634C143.947 60.3982 143.436 60.2633 142.858 60.2585C142.418 60.2585 141.975 60.3343 141.53 60.4858C141.085 60.6373 140.725 60.8362 140.45 61.0824L138.44 60.7841L139.257 53.4545H147.254V55.3366H141.082L140.621 59.4062H140.706C140.99 59.1316 141.366 58.902 141.835 58.7173C142.309 58.5327 142.815 58.4403 143.355 58.4403C144.241 58.4403 145.029 58.651 145.72 59.0724C146.416 59.4938 146.963 60.0691 147.361 60.7983C147.763 61.5227 147.962 62.3561 147.957 63.2983C147.962 64.2405 147.749 65.081 147.318 65.8196C146.892 66.5582 146.3 67.1406 145.543 67.5668C144.79 67.9882 143.926 68.1989 142.95 68.1989ZM155.212 52.14C157.912 52.14 159.892 53.78 159.892 56.16C159.892 58.52 157.912 60.16 155.212 60.16C152.532 60.16 150.552 58.52 150.552 56.16C150.552 53.78 152.532 52.14 155.212 52.14ZM155.212 53.5C153.472 53.5 152.152 54.6 152.152 56.16C152.152 57.72 153.472 58.8 155.212 58.8C156.972 58.8 158.272 57.72 158.272 56.16C158.272 54.6 156.972 53.5 155.212 53.5ZM163.292 51.48H164.972V60.74H163.292V51.48ZM153.272 61.62H164.972V66.02H154.932V68.74H153.312V64.78H163.332V62.96H153.272V61.62ZM153.312 68H165.572V69.32H153.312V68Z" fill="white"/>
<path d="M185.784 60.983V62.5455H179.42V60.983H185.784Z" fill="white"/>
<path d="M199.399 68V66.4091L204.321 61.3097C204.847 60.7557 205.28 60.2704 205.621 59.8537C205.966 59.4323 206.224 59.0322 206.395 58.6534C206.565 58.2746 206.651 57.8722 206.651 57.446C206.651 56.9631 206.537 56.5464 206.31 56.196C206.082 55.8409 205.772 55.5687 205.379 55.3793C204.986 55.1851 204.544 55.0881 204.051 55.0881C203.53 55.0881 203.076 55.1946 202.688 55.4077C202.299 55.6207 202.001 55.9214 201.793 56.3097C201.584 56.6979 201.48 57.1525 201.48 57.6733H199.385C199.385 56.7879 199.589 56.0137 199.996 55.3509C200.403 54.688 200.962 54.1742 201.672 53.8097C202.382 53.4403 203.189 53.2557 204.094 53.2557C205.008 53.2557 205.813 53.438 206.509 53.8026C207.209 54.1624 207.756 54.6548 208.149 55.2798C208.542 55.9001 208.739 56.6009 208.739 57.3821C208.739 57.9219 208.637 58.4498 208.433 58.9659C208.234 59.482 207.886 60.0573 207.389 60.6918C206.892 61.3215 206.201 62.0862 205.315 62.9858L202.425 66.0114V66.1179H208.973V68H199.399ZM216.729 68.2415C215.607 68.2367 214.648 67.9408 213.852 67.3537C213.057 66.7666 212.448 65.9119 212.027 64.7898C211.606 63.6676 211.395 62.3158 211.395 60.7344C211.395 59.1577 211.606 57.8106 212.027 56.6932C212.453 55.5758 213.064 54.7235 213.859 54.1364C214.66 53.5492 215.616 53.2557 216.729 53.2557C217.841 53.2557 218.795 53.5516 219.591 54.1435C220.386 54.7306 220.995 55.5829 221.416 56.7003C221.842 57.813 222.055 59.1577 222.055 60.7344C222.055 62.3205 221.845 63.6747 221.423 64.7969C221.002 65.9143 220.393 66.7689 219.598 67.3608C218.803 67.9479 217.846 68.2415 216.729 68.2415ZM216.729 66.3452C217.714 66.3452 218.483 65.8646 219.037 64.9034C219.596 63.9422 219.875 62.5526 219.875 60.7344C219.875 59.527 219.747 58.5066 219.491 57.6733C219.241 56.8352 218.878 56.2008 218.405 55.7699C217.936 55.3343 217.377 55.1165 216.729 55.1165C215.749 55.1165 214.979 55.5994 214.42 56.5653C213.862 57.5312 213.58 58.9209 213.575 60.7344C213.575 61.9465 213.701 62.9716 213.952 63.8097C214.207 64.643 214.57 65.2751 215.038 65.706C215.507 66.1321 216.071 66.3452 216.729 66.3452ZM224.575 68V66.4091L229.497 61.3097C230.022 60.7557 230.456 60.2704 230.797 59.8537C231.142 59.4323 231.4 59.0322 231.571 58.6534C231.741 58.2746 231.826 57.8722 231.826 57.446C231.826 56.9631 231.713 56.5464 231.485 56.196C231.258 55.8409 230.948 55.5687 230.555 55.3793C230.162 55.1851 229.719 55.0881 229.227 55.0881C228.706 55.0881 228.252 55.1946 227.863 55.4077C227.475 55.6207 227.177 55.9214 226.968 56.3097C226.76 56.6979 226.656 57.1525 226.656 57.6733H224.561C224.561 56.7879 224.764 56.0137 225.172 55.3509C225.579 54.688 226.137 54.1742 226.848 53.8097C227.558 53.4403 228.365 53.2557 229.27 53.2557C230.183 53.2557 230.988 53.438 231.684 53.8026C232.385 54.1624 232.932 54.6548 233.325 55.2798C233.718 55.9001 233.914 56.6009 233.914 57.3821C233.914 57.9219 233.813 58.4498 233.609 58.9659C233.41 59.482 233.062 60.0573 232.565 60.6918C232.068 61.3215 231.377 62.0862 230.491 62.9858L227.6 66.0114V66.1179H234.149V68H224.575ZM241.904 68.1989C240.929 68.1989 240.058 68.0308 239.291 67.6946C238.529 67.3584 237.925 66.892 237.48 66.2955C237.039 65.6941 236.803 64.9981 236.77 64.2074H239C239.028 64.6383 239.172 65.0123 239.433 65.3295C239.698 65.642 240.044 65.8835 240.47 66.054C240.896 66.2244 241.369 66.3097 241.89 66.3097C242.463 66.3097 242.97 66.2102 243.41 66.0114C243.855 65.8125 244.203 65.5355 244.454 65.1804C244.705 64.8205 244.831 64.4062 244.831 63.9375C244.831 63.4498 244.705 63.0213 244.454 62.652C244.208 62.2779 243.846 61.9844 243.368 61.7713C242.894 61.5582 242.321 61.4517 241.649 61.4517H240.42V59.6619H241.649C242.189 59.6619 242.662 59.5649 243.069 59.3707C243.481 59.1766 243.803 58.9067 244.035 58.5611C244.267 58.2107 244.383 57.8011 244.383 57.3324C244.383 56.8826 244.281 56.492 244.078 56.1605C243.879 55.8243 243.595 55.5616 243.225 55.3722C242.861 55.1828 242.43 55.0881 241.933 55.0881C241.459 55.0881 241.017 55.1757 240.605 55.3509C240.198 55.5213 239.866 55.7675 239.61 56.0895C239.355 56.4067 239.217 56.7879 239.199 57.233H237.075C237.099 56.447 237.331 55.7557 237.771 55.1591C238.216 54.5625 238.803 54.0961 239.532 53.7599C240.261 53.4238 241.071 53.2557 241.961 53.2557C242.894 53.2557 243.699 53.438 244.376 53.8026C245.058 54.1624 245.583 54.643 245.953 55.2443C246.327 55.8456 246.511 56.5038 246.507 57.2188C246.511 58.0331 246.284 58.7244 245.825 59.2926C245.37 59.8608 244.764 60.242 244.007 60.4361V60.5497C244.973 60.6965 245.721 61.08 246.251 61.7003C246.786 62.3205 247.051 63.09 247.047 64.0085C247.051 64.8087 246.829 65.526 246.379 66.1605C245.934 66.795 245.325 67.2945 244.554 67.6591C243.782 68.0189 242.899 68.1989 241.904 68.1989ZM262.532 51.48H264.192V64.88H262.532V51.48ZM257.432 53.84H263.152V55.18H257.432V53.84ZM252.632 67.8H264.672V69.16H252.632V67.8ZM252.632 63.72H254.292V68.42H252.632V63.72ZM250.372 52.8H252.032V61.32H250.372V52.8ZM250.372 60.8H251.732C254.312 60.8 256.732 60.66 259.552 60.16L259.712 61.54C256.812 62.06 254.392 62.18 251.732 62.18H250.372V60.8ZM257.432 57.28H263.152V58.64H257.432V57.28ZM273.913 68L280.262 55.4432V55.3366H272.918V53.4545H282.535V55.4006L276.207 68H273.913ZM289.445 58.96H291.105V62.18H289.445V58.96ZM297.745 51.48H299.405V62.12H297.745V51.48ZM284.745 59.52L284.545 58.28C288.025 58.28 292.445 58.26 296.305 57.82L296.405 58.9C292.445 59.48 288.125 59.52 284.745 59.52ZM287.285 62.78H299.405V66.54H288.945V68.58H287.325V65.44H297.765V63.98H287.285V62.78ZM287.325 68.16H300.005V69.36H287.325V68.16ZM294.145 60.08H298.265V61.16H294.145V60.08ZM290.385 51.82C293.065 51.82 294.825 52.86 294.825 54.54C294.825 56.22 293.065 57.26 290.385 57.26C287.685 57.26 285.925 56.22 285.925 54.54C285.925 52.86 287.685 51.82 290.385 51.82ZM290.385 52.98C288.605 52.98 287.465 53.58 287.465 54.54C287.465 55.5 288.605 56.1 290.385 56.1C292.125 56.1 293.265 55.5 293.265 54.54C293.265 53.58 292.125 52.98 290.385 52.98ZM308.696 68V66.4091L313.618 61.3097C314.143 60.7557 314.577 60.2704 314.918 59.8537C315.263 59.4323 315.521 59.0322 315.692 58.6534C315.862 58.2746 315.947 57.8722 315.947 57.446C315.947 56.9631 315.834 56.5464 315.607 56.196C315.379 55.8409 315.069 55.5687 314.676 55.3793C314.283 55.1851 313.84 55.0881 313.348 55.0881C312.827 55.0881 312.373 55.1946 311.984 55.4077C311.596 55.6207 311.298 55.9214 311.089 56.3097C310.881 56.6979 310.777 57.1525 310.777 57.6733H308.682C308.682 56.7879 308.885 56.0137 309.293 55.3509C309.7 54.688 310.259 54.1742 310.969 53.8097C311.679 53.4403 312.486 53.2557 313.391 53.2557C314.304 53.2557 315.109 53.438 315.805 53.8026C316.506 54.1624 317.053 54.6548 317.446 55.2798C317.839 55.9001 318.036 56.6009 318.036 57.3821C318.036 57.9219 317.934 58.4498 317.73 58.9659C317.531 59.482 317.183 60.0573 316.686 60.6918C316.189 61.3215 315.498 62.0862 314.612 62.9858L311.722 66.0114V66.1179H318.27V68H308.696ZM320.962 68V66.4091L325.884 61.3097C326.409 60.7557 326.842 60.2704 327.183 59.8537C327.529 59.4323 327.787 59.0322 327.957 58.6534C328.128 58.2746 328.213 57.8722 328.213 57.446C328.213 56.9631 328.099 56.5464 327.872 56.196C327.645 55.8409 327.335 55.5687 326.942 55.3793C326.549 55.1851 326.106 55.0881 325.614 55.0881C325.093 55.0881 324.638 55.1946 324.25 55.4077C323.862 55.6207 323.563 55.9214 323.355 56.3097C323.147 56.6979 323.043 57.1525 323.043 57.6733H320.947C320.947 56.7879 321.151 56.0137 321.558 55.3509C321.965 54.688 322.524 54.1742 323.234 53.8097C323.945 53.4403 324.752 53.2557 325.656 53.2557C326.57 53.2557 327.375 53.438 328.071 53.8026C328.772 54.1624 329.319 54.6548 329.712 55.2798C330.105 55.9001 330.301 56.6009 330.301 57.3821C330.301 57.9219 330.199 58.4498 329.996 58.9659C329.797 59.482 329.449 60.0573 328.952 60.6918C328.455 61.3215 327.763 62.0862 326.878 62.9858L323.987 66.0114V66.1179H330.536V68H320.962ZM337.888 52.14C340.588 52.14 342.568 53.78 342.568 56.16C342.568 58.52 340.588 60.16 337.888 60.16C335.208 60.16 333.228 58.52 333.228 56.16C333.228 53.78 335.208 52.14 337.888 52.14ZM337.888 53.5C336.148 53.5 334.828 54.6 334.828 56.16C334.828 57.72 336.148 58.8 337.888 58.8C339.648 58.8 340.948 57.72 340.948 56.16C340.948 54.6 339.648 53.5 337.888 53.5ZM345.968 51.48H347.648V60.74H345.968V51.48ZM335.948 61.62H347.648V66.02H337.608V68.74H335.988V64.78H346.008V62.96H335.948V61.62ZM335.988 68H348.248V69.32H335.988V68Z" fill="white"/>
<path d="M24.6193 84.4545V99H22.858V86.3011H22.7727L19.2216 88.6591V86.8693L22.858 84.4545H24.6193ZM33.7173 99.1989C32.7798 99.1989 31.9441 99.0379 31.2102 98.7159C30.4811 98.3939 29.901 97.9465 29.4702 97.3736C29.044 96.7959 28.812 96.1259 28.7741 95.3636H30.5639C30.6018 95.8324 30.7628 96.2372 31.0469 96.5781C31.331 96.9143 31.7027 97.1747 32.1619 97.3594C32.6212 97.544 33.1302 97.6364 33.6889 97.6364C34.3139 97.6364 34.8679 97.5275 35.3509 97.3097C35.8338 97.0919 36.2126 96.7888 36.4872 96.4006C36.7618 96.0123 36.8991 95.5625 36.8991 95.0511C36.8991 94.5161 36.7666 94.045 36.5014 93.6378C36.2363 93.2259 35.848 92.9039 35.3366 92.6719C34.8253 92.4399 34.2003 92.3239 33.4616 92.3239H32.2969V90.7614H33.4616C34.0393 90.7614 34.5459 90.6572 34.9815 90.4489C35.4219 90.2405 35.7652 89.947 36.0114 89.5682C36.2623 89.1894 36.3878 88.7443 36.3878 88.233C36.3878 87.7405 36.2789 87.312 36.0611 86.9474C35.8433 86.5829 35.5355 86.2988 35.1378 86.0952C34.7448 85.8916 34.2808 85.7898 33.7457 85.7898C33.2438 85.7898 32.7704 85.8821 32.3253 86.0668C31.8849 86.2467 31.5251 86.5095 31.2457 86.8551C30.9664 87.196 30.8149 87.608 30.7912 88.0909H29.0866C29.1151 87.3286 29.3447 86.661 29.7756 86.0881C30.2064 85.5104 30.7699 85.0606 31.4659 84.7386C32.1667 84.4167 32.9361 84.2557 33.7741 84.2557C34.6738 84.2557 35.4455 84.438 36.0895 84.8026C36.7334 85.1624 37.2282 85.6383 37.5739 86.2301C37.9195 86.822 38.0923 87.4612 38.0923 88.1477C38.0923 88.9669 37.8769 89.6652 37.446 90.2429C37.0199 90.8205 36.4399 91.2206 35.706 91.4432V91.5568C36.6245 91.7083 37.3419 92.099 37.858 92.7287C38.3741 93.3537 38.6321 94.1278 38.6321 95.0511C38.6321 95.8419 38.4167 96.5521 37.9858 97.1818C37.5597 97.8068 36.9773 98.2992 36.2386 98.6591C35.5 99.0189 34.6596 99.1989 33.7173 99.1989ZM42.7869 97.1392C42.4366 97.1392 42.1359 97.0137 41.8849 96.7628C41.634 96.5118 41.5085 96.2112 41.5085 95.8608C41.5085 95.5104 41.634 95.2098 41.8849 94.9588C42.1359 94.7079 42.4366 94.5824 42.7869 94.5824C43.1373 94.5824 43.438 94.7079 43.6889 94.9588C43.9399 95.2098 44.0653 95.5104 44.0653 95.8608C44.0653 96.0928 44.0062 96.3059 43.8878 96.5C43.7741 96.6941 43.6203 96.8504 43.4261 96.9688C43.2367 97.0824 43.0237 97.1392 42.7869 97.1392ZM42.7869 89.7812C42.4366 89.7812 42.1359 89.6558 41.8849 89.4048C41.634 89.1539 41.5085 88.8532 41.5085 88.5028C41.5085 88.1525 41.634 87.8518 41.8849 87.6009C42.1359 87.3499 42.4366 87.2244 42.7869 87.2244C43.1373 87.2244 43.438 87.3499 43.6889 87.6009C43.9399 87.8518 44.0653 88.1525 44.0653 88.5028C44.0653 88.7348 44.0062 88.9479 43.8878 89.142C43.7741 89.3362 43.6203 89.4924 43.4261 89.6108C43.2367 89.7244 43.0237 89.7812 42.7869 89.7812ZM51.7891 99.1989C50.719 99.1989 49.8075 98.9077 49.0547 98.3253C48.3018 97.7382 47.7266 96.8883 47.3288 95.7756C46.9311 94.6581 46.7322 93.3087 46.7322 91.7273C46.7322 90.1553 46.9311 88.813 47.3288 87.7003C47.7313 86.5829 48.3089 85.7306 49.0618 85.1435C49.8194 84.5516 50.7285 84.2557 51.7891 84.2557C52.8497 84.2557 53.7564 84.5516 54.5092 85.1435C55.2668 85.7306 55.8445 86.5829 56.2422 87.7003C56.6446 88.813 56.8459 90.1553 56.8459 91.7273C56.8459 93.3087 56.647 94.6581 56.2493 95.7756C55.8516 96.8883 55.2763 97.7382 54.5234 98.3253C53.7706 98.9077 52.8591 99.1989 51.7891 99.1989ZM51.7891 97.6364C52.8497 97.6364 53.6735 97.125 54.2607 96.1023C54.8478 95.0795 55.1413 93.6212 55.1413 91.7273C55.1413 90.4678 55.0064 89.3954 54.7365 88.5099C54.4714 87.6245 54.0878 86.9498 53.5859 86.4858C53.0888 86.0218 52.4898 85.7898 51.7891 85.7898C50.7379 85.7898 49.9164 86.3082 49.3246 87.3452C48.7327 88.3774 48.4368 89.8381 48.4368 91.7273C48.4368 92.9867 48.5694 94.0568 48.8345 94.9375C49.0997 95.8182 49.4808 96.4882 49.978 96.9474C50.4799 97.4067 51.0836 97.6364 51.7891 97.6364ZM64.2891 99.1989C63.219 99.1989 62.3075 98.9077 61.5547 98.3253C60.8018 97.7382 60.2266 96.8883 59.8288 95.7756C59.4311 94.6581 59.2322 93.3087 59.2322 91.7273C59.2322 90.1553 59.4311 88.813 59.8288 87.7003C60.2313 86.5829 60.8089 85.7306 61.5618 85.1435C62.3194 84.5516 63.2285 84.2557 64.2891 84.2557C65.3497 84.2557 66.2564 84.5516 67.0092 85.1435C67.7668 85.7306 68.3445 86.5829 68.7422 87.7003C69.1446 88.813 69.3459 90.1553 69.3459 91.7273C69.3459 93.3087 69.147 94.6581 68.7493 95.7756C68.3516 96.8883 67.7763 97.7382 67.0234 98.3253C66.2706 98.9077 65.3591 99.1989 64.2891 99.1989ZM64.2891 97.6364C65.3497 97.6364 66.1735 97.125 66.7607 96.1023C67.3478 95.0795 67.6413 93.6212 67.6413 91.7273C67.6413 90.4678 67.5064 89.3954 67.2365 88.5099C66.9714 87.6245 66.5878 86.9498 66.0859 86.4858C65.5888 86.0218 64.9898 85.7898 64.2891 85.7898C63.2379 85.7898 62.4164 86.3082 61.8246 87.3452C61.2327 88.3774 60.9368 89.8381 60.9368 91.7273C60.9368 92.9867 61.0694 94.0568 61.3345 94.9375C61.5997 95.8182 61.9808 96.4882 62.478 96.9474C62.9799 97.4067 63.5836 97.6364 64.2891 97.6364Z" fill="white"/>
<path d="M80.6477 94.6818C80.6335 93.8958 80.7614 93.2637 81.0312 92.7855C81.3011 92.3073 81.6515 91.9593 82.0824 91.7415C82.518 91.5237 82.9773 91.4148 83.4602 91.4148C83.9432 91.4148 84.3835 91.5213 84.7812 91.7344C85.1837 91.9427 85.643 92.2718 86.1591 92.7216C86.5095 93.0246 86.7888 93.2377 86.9972 93.3608C87.2102 93.4839 87.4422 93.5455 87.6932 93.5455C88.1004 93.5455 88.4223 93.3987 88.6591 93.1051C88.8958 92.8068 89.0095 92.3759 89 91.8125H90.5341C90.5483 92.5985 90.4205 93.2306 90.1506 93.7088C89.8854 94.187 89.535 94.535 89.0994 94.7528C88.6638 94.9706 88.2045 95.0795 87.7216 95.0795C87.2386 95.0795 86.7983 94.9754 86.4006 94.767C86.0028 94.554 85.5436 94.2225 85.0227 93.7727C84.6771 93.4697 84.3977 93.2566 84.1847 93.1335C83.9716 93.0104 83.7396 92.9489 83.4886 92.9489C83.1051 92.9489 82.7879 93.0838 82.5369 93.3537C82.2907 93.6188 82.1723 94.0616 82.1818 94.6818H80.6477Z" fill="white"/>
<path d="M107.619 84.4545V99H105.858V86.3011H105.773L102.222 88.6591V86.8693L105.858 84.4545H107.619ZM116.462 99.1989C115.486 99.1989 114.625 99.026 113.876 98.6804C113.133 98.33 112.553 97.8494 112.136 97.2386C111.72 96.6231 111.514 95.9223 111.518 95.1364C111.514 94.5208 111.634 93.9527 111.881 93.4318C112.127 92.9062 112.463 92.4683 112.889 92.1179C113.32 91.7628 113.801 91.5379 114.331 91.4432V91.358C113.635 91.178 113.081 90.7874 112.669 90.1861C112.257 89.58 112.054 88.8911 112.058 88.1193C112.054 87.3807 112.241 86.7202 112.619 86.1378C112.998 85.5554 113.519 85.0961 114.182 84.7599C114.849 84.4238 115.609 84.2557 116.462 84.2557C117.304 84.2557 118.057 84.4238 118.72 84.7599C119.383 85.0961 119.904 85.5554 120.283 86.1378C120.666 86.7202 120.86 87.3807 120.865 88.1193C120.86 88.8911 120.65 89.58 120.233 90.1861C119.821 90.7874 119.274 91.178 118.592 91.358V91.4432C119.118 91.5379 119.591 91.7628 120.013 92.1179C120.434 92.4683 120.77 92.9062 121.021 93.4318C121.272 93.9527 121.4 94.5208 121.405 95.1364C121.4 95.9223 121.187 96.6231 120.766 97.2386C120.349 97.8494 119.769 98.33 119.026 98.6804C118.287 99.026 117.432 99.1989 116.462 99.1989ZM116.462 97.6364C117.12 97.6364 117.688 97.5298 118.166 97.3168C118.644 97.1037 119.014 96.803 119.274 96.4148C119.535 96.0265 119.667 95.572 119.672 95.0511C119.667 94.5019 119.525 94.0166 119.246 93.5952C118.966 93.1738 118.585 92.8423 118.102 92.6009C117.624 92.3594 117.077 92.2386 116.462 92.2386C115.841 92.2386 115.287 92.3594 114.8 92.6009C114.317 92.8423 113.936 93.1738 113.656 93.5952C113.382 94.0166 113.247 94.5019 113.251 95.0511C113.247 95.572 113.372 96.0265 113.628 96.4148C113.888 96.803 114.26 97.1037 114.743 97.3168C115.226 97.5298 115.799 97.6364 116.462 97.6364ZM116.462 90.733C116.982 90.733 117.444 90.6288 117.847 90.4205C118.254 90.2121 118.573 89.9209 118.805 89.5469C119.037 89.1728 119.156 88.7348 119.161 88.233C119.156 87.7405 119.04 87.312 118.812 86.9474C118.585 86.5781 118.27 86.294 117.868 86.0952C117.465 85.8916 116.997 85.7898 116.462 85.7898C115.917 85.7898 115.441 85.8916 115.034 86.0952C114.627 86.294 114.312 86.5781 114.089 86.9474C113.867 87.312 113.758 87.7405 113.763 88.233C113.758 88.7348 113.869 89.1728 114.097 89.5469C114.329 89.9209 114.648 90.2121 115.055 90.4205C115.463 90.6288 115.931 90.733 116.462 90.733ZM125.377 97.1392C125.026 97.1392 124.726 97.0137 124.475 96.7628C124.224 96.5118 124.098 96.2112 124.098 95.8608C124.098 95.5104 124.224 95.2098 124.475 94.9588C124.726 94.7079 125.026 94.5824 125.377 94.5824C125.727 94.5824 126.028 94.7079 126.279 94.9588C126.53 95.2098 126.655 95.5104 126.655 95.8608C126.655 96.0928 126.596 96.3059 126.478 96.5C126.364 96.6941 126.21 96.8504 126.016 96.9688C125.827 97.0824 125.614 97.1392 125.377 97.1392ZM125.377 89.7812C125.026 89.7812 124.726 89.6558 124.475 89.4048C124.224 89.1539 124.098 88.8532 124.098 88.5028C124.098 88.1525 124.224 87.8518 124.475 87.6009C124.726 87.3499 125.026 87.2244 125.377 87.2244C125.727 87.2244 126.028 87.3499 126.279 87.6009C126.53 87.8518 126.655 88.1525 126.655 88.5028C126.655 88.7348 126.596 88.9479 126.478 89.142C126.364 89.3362 126.21 89.4924 126.016 89.6108C125.827 89.7244 125.614 89.7812 125.377 89.7812ZM134.379 99.1989C133.309 99.1989 132.397 98.9077 131.645 98.3253C130.892 97.7382 130.316 96.8883 129.919 95.7756C129.521 94.6581 129.322 93.3087 129.322 91.7273C129.322 90.1553 129.521 88.813 129.919 87.7003C130.321 86.5829 130.899 85.7306 131.652 85.1435C132.409 84.5516 133.318 84.2557 134.379 84.2557C135.44 84.2557 136.346 84.5516 137.099 85.1435C137.857 85.7306 138.434 86.5829 138.832 87.7003C139.234 88.813 139.436 90.1553 139.436 91.7273C139.436 93.3087 139.237 94.6581 138.839 95.7756C138.441 96.8883 137.866 97.7382 137.113 98.3253C136.36 98.9077 135.449 99.1989 134.379 99.1989ZM134.379 97.6364C135.44 97.6364 136.263 97.125 136.85 96.1023C137.438 95.0795 137.731 93.6212 137.731 91.7273C137.731 90.4678 137.596 89.3954 137.326 88.5099C137.061 87.6245 136.678 86.9498 136.176 86.4858C135.679 86.0218 135.08 85.7898 134.379 85.7898C133.328 85.7898 132.506 86.3082 131.914 87.3452C131.323 88.3774 131.027 89.8381 131.027 91.7273C131.027 92.9867 131.159 94.0568 131.424 94.9375C131.69 95.8182 132.071 96.4882 132.568 96.9474C133.07 97.4067 133.673 97.6364 134.379 97.6364ZM146.879 99.1989C145.809 99.1989 144.897 98.9077 144.145 98.3253C143.392 97.7382 142.816 96.8883 142.419 95.7756C142.021 94.6581 141.822 93.3087 141.822 91.7273C141.822 90.1553 142.021 88.813 142.419 87.7003C142.821 86.5829 143.399 85.7306 144.152 85.1435C144.909 84.5516 145.818 84.2557 146.879 84.2557C147.94 84.2557 148.846 84.5516 149.599 85.1435C150.357 85.7306 150.934 86.5829 151.332 87.7003C151.734 88.813 151.936 90.1553 151.936 91.7273C151.936 93.3087 151.737 94.6581 151.339 95.7756C150.941 96.8883 150.366 97.7382 149.613 98.3253C148.86 98.9077 147.949 99.1989 146.879 99.1989ZM146.879 97.6364C147.94 97.6364 148.763 97.125 149.35 96.1023C149.938 95.0795 150.231 93.6212 150.231 91.7273C150.231 90.4678 150.096 89.3954 149.826 88.5099C149.561 87.6245 149.178 86.9498 148.676 86.4858C148.179 86.0218 147.58 85.7898 146.879 85.7898C145.828 85.7898 145.006 86.3082 144.414 87.3452C143.823 88.3774 143.527 89.8381 143.527 91.7273C143.527 92.9867 143.659 94.0568 143.924 94.9375C144.19 95.8182 144.571 96.4882 145.068 96.9474C145.57 97.4067 146.173 97.6364 146.879 97.6364Z" fill="white"/>
<path d="M27.22 116.14H32.74V117.5H27.22V116.14ZM27.22 120.18H32.74V121.56H27.22V120.18ZM21.8 125.14H33.86V131.56H32.2V126.48H21.8V125.14ZM32.2 113.48H33.86V124.14H32.2V113.48ZM23.92 114.48C26.58 114.48 28.58 116.28 28.58 118.84C28.58 121.4 26.58 123.18 23.92 123.18C21.24 123.18 19.26 121.4 19.26 118.84C19.26 116.28 21.24 114.48 23.92 114.48ZM23.92 115.9C22.16 115.9 20.86 117.12 20.86 118.84C20.86 120.56 22.16 121.76 23.92 121.76C25.68 121.76 27 120.56 27 118.84C27 117.12 25.68 115.9 23.92 115.9ZM41.8384 114.4H43.1984V116.18C43.1984 119.68 41.2384 122.52 38.1984 123.68L37.3184 122.36C40.0584 121.36 41.8384 118.94 41.8384 116.18V114.4ZM42.1384 114.4H43.4784V116.16C43.4784 118.62 45.2784 120.94 47.8784 121.86L47.0184 123.18C44.0984 122.08 42.1384 119.34 42.1384 116.16V114.4ZM49.7584 113.48H51.4184V124.06H49.7584V113.48ZM50.9584 117.96H54.0984V119.36H50.9584V117.96ZM40.0584 124.9H51.4184V131.32H40.0584V124.9ZM49.7984 126.22H41.6784V129.98H49.7984V126.22ZM64.0169 116.14H69.5369V117.5H64.0169V116.14ZM64.0169 120.18H69.5369V121.56H64.0169V120.18ZM58.5969 125.14H70.6569V131.56H68.9969V126.48H58.5969V125.14ZM68.9969 113.48H70.6569V124.14H68.9969V113.48ZM60.7169 114.48C63.3769 114.48 65.3769 116.28 65.3769 118.84C65.3769 121.4 63.3769 123.18 60.7169 123.18C58.0369 123.18 56.0569 121.4 56.0569 118.84C56.0569 116.28 58.0369 114.48 60.7169 114.48ZM60.7169 115.9C58.9569 115.9 57.6569 117.12 57.6569 118.84C57.6569 120.56 58.9569 121.76 60.7169 121.76C62.4769 121.76 63.7969 120.56 63.7969 118.84C63.7969 117.12 62.4769 115.9 60.7169 115.9ZM84.3883 123.58H86.0283V131H84.3883V123.58ZM92.6683 113.48H94.3283V131.58H92.6683V113.48ZM79.6283 124.4L79.4083 123C82.8283 123 87.3683 122.98 91.2883 122.42L91.3883 123.66C87.3483 124.34 82.9883 124.4 79.6283 124.4ZM88.5683 125.82H93.0883V127.12H88.5683V125.82ZM85.3083 114.38C87.9683 114.38 89.8283 115.8 89.8283 117.94C89.8283 120.08 87.9683 121.5 85.3083 121.5C82.6083 121.5 80.7683 120.08 80.7683 117.94C80.7683 115.8 82.6083 114.38 85.3083 114.38ZM85.3083 115.66C83.5483 115.66 82.3083 116.6 82.3083 117.94C82.3083 119.3 83.5483 120.22 85.3083 120.22C87.0283 120.22 88.2683 119.3 88.2683 117.94C88.2683 116.6 87.0283 115.66 85.3083 115.66ZM99.8267 115.32H111.307V116.68H99.8267V115.32ZM97.8867 127.66H114.227V129.06H97.8867V127.66ZM110.587 115.32H112.207V117.54C112.207 120.2 112.207 122.66 111.447 126.36L109.807 126.2C110.587 122.72 110.587 120.14 110.587 117.54V115.32ZM111.007 120.32V121.56L99.5867 122.18L99.3467 120.8L111.007 120.32ZM118.385 122.86H130.805V124.2H118.385V122.86ZM116.285 127.94H132.665V129.32H116.285V127.94ZM123.625 123.56H125.265V128.58H123.625V123.56ZM118.385 114.94H130.605V116.3H120.065V123.36H118.385V114.94ZM119.525 118.82H130.225V120.16H119.525V118.82ZM136.624 115.32H148.104V116.68H136.624V115.32ZM134.684 127.66H151.024V129.06H134.684V127.66ZM147.384 115.32H149.004V117.54C149.004 120.2 149.004 122.66 148.244 126.36L146.604 126.2C147.384 122.72 147.384 120.14 147.384 117.54V115.32ZM147.804 120.32V121.56L136.384 122.18L136.144 120.8L147.804 120.32Z" fill="white"/>
<path d="M22.4 146.152H23.488V146.776C23.488 149.256 21.856 151.272 19.44 152.056L18.8 151.016C20.944 150.36 22.4 148.68 22.4 146.776V146.152ZM22.64 146.152H23.728V146.776C23.728 148.536 25.136 150.12 27.264 150.744L26.64 151.8C24.224 151.048 22.64 149.096 22.64 146.776V146.152ZM19.2 145.48H26.912V146.552H19.2V145.48ZM22.4 143.72H23.728V145.912H22.4V143.72ZM28.688 143.784H30.016V152.344H28.688V143.784ZM29.648 147.432H32.16V148.552H29.648V147.432ZM20.928 153.016H30.016V158.056H20.928V153.016ZM28.72 154.072H22.224V156.984H28.72V154.072ZM40.0308 147H44.3988V148.104H40.0308V147ZM40.0308 151.576H44.3988V152.68H40.0308V151.576ZM37.3748 144.888C39.4708 144.888 40.9748 146.856 40.9748 149.928C40.9748 153.016 39.4708 154.984 37.3748 154.984C35.2628 154.984 33.7747 153.016 33.7747 149.928C33.7747 146.856 35.2628 144.888 37.3748 144.888ZM37.3748 146.088C35.9828 146.088 35.0228 147.592 35.0228 149.928C35.0228 152.28 35.9828 153.816 37.3748 153.816C38.7668 153.816 39.7268 152.28 39.7268 149.928C39.7268 147.592 38.7668 146.088 37.3748 146.088ZM44.1108 143.768H45.4228V158.264H44.1108V143.768ZM63.2495 143.8H64.5935V154.36H63.2495V143.8ZM55.2975 156.84H65.0255V157.928H55.2975V156.84ZM55.2975 153.272H56.6095V157.208H55.2975V153.272ZM56.8335 144.792C58.9935 144.792 60.5935 146.264 60.5935 148.36C60.5935 150.44 58.9935 151.928 56.8335 151.928C54.6735 151.928 53.0575 150.44 53.0575 148.36C53.0575 146.264 54.6735 144.792 56.8335 144.792ZM56.8335 145.944C55.4255 145.944 54.3535 146.936 54.3535 148.36C54.3535 149.768 55.4255 150.76 56.8335 150.76C58.2415 150.76 59.3135 149.768 59.3135 148.36C59.3135 146.936 58.2415 145.944 56.8335 145.944ZM71.5523 151.064H72.8803V154.28H71.5523V151.064ZM77.9683 143.784H79.2963V154.792H77.9683V143.784ZM69.4243 156.84H79.6483V157.928H69.4243V156.84ZM69.4243 153.72H70.7523V157.144H69.4243V153.72ZM67.5523 151.56L67.3763 150.472C70.0483 150.472 73.6323 150.44 76.7043 150.04L76.8003 151.016C73.6803 151.512 70.1763 151.56 67.5523 151.56ZM75.0243 152.328H78.3043V153.304H75.0243V152.328ZM72.0803 144.376C74.1923 144.376 75.6323 145.368 75.6323 146.888C75.6323 148.424 74.1923 149.416 72.0803 149.416C69.9523 149.416 68.5123 148.424 68.5123 146.888C68.5123 145.368 69.9523 144.376 72.0803 144.376ZM72.0803 145.368C70.7203 145.368 69.7763 145.96 69.7763 146.888C69.7763 147.816 70.7203 148.408 72.0803 148.408C73.4243 148.408 74.3683 147.816 74.3683 146.888C74.3683 145.96 73.4243 145.368 72.0803 145.368ZM90.7614 145.364V157H89.6989V146.477H89.6307L86.9034 148.29V147.188L89.6534 145.364H90.7614ZM94.2955 157V156.222L98.0966 151.949C98.5928 151.388 98.9924 150.909 99.2955 150.511C99.5985 150.114 99.8182 149.746 99.9545 149.409C100.095 149.072 100.165 148.722 100.165 148.358C100.165 147.915 100.061 147.528 99.8523 147.199C99.6477 146.866 99.3655 146.606 99.0057 146.42C98.6458 146.235 98.2405 146.142 97.7898 146.142C97.3125 146.142 96.8939 146.244 96.5341 146.449C96.178 146.653 95.9015 146.934 95.7045 147.29C95.5076 147.646 95.4091 148.055 95.4091 148.517H94.392C94.392 147.873 94.5398 147.303 94.8352 146.807C95.1345 146.307 95.5417 145.915 96.0568 145.631C96.5758 145.347 97.1629 145.205 97.8182 145.205C98.4659 145.205 99.0417 145.345 99.5455 145.625C100.049 145.902 100.445 146.278 100.733 146.756C101.021 147.233 101.165 147.767 101.165 148.358C101.165 148.786 101.089 149.201 100.938 149.602C100.79 150.004 100.534 150.451 100.17 150.943C99.8068 151.436 99.303 152.038 98.6591 152.75L95.7727 155.972V156.045H101.528V157H94.2955ZM110.462 146.12H114.638V147.208H110.462V146.12ZM110.462 149H114.67V150.072H110.462V149ZM114.126 143.784H115.454V152.344H114.126V143.784ZM104.222 144.872H110.83V151.304H104.222V144.872ZM109.518 145.944H105.518V150.248H109.518V145.944ZM110.702 152.76C113.678 152.76 115.518 153.768 115.518 155.496C115.518 157.224 113.678 158.216 110.702 158.216C107.71 158.216 105.87 157.224 105.87 155.496C105.87 153.768 107.71 152.76 110.702 152.76ZM110.702 153.816C108.526 153.816 107.198 154.44 107.198 155.496C107.198 156.552 108.526 157.176 110.702 157.176C112.878 157.176 114.206 156.552 114.206 155.496C114.206 154.44 112.878 153.816 110.702 153.816Z" fill="white"/>
<circle cx="34" cy="184" r="16" fill="white"/>
<circle cx="78" cy="184" r="16" fill="white"/>
<circle cx="122" cy="184" r="16" fill="white"/>
<circle cx="166" cy="184" r="16" fill="white"/>
<circle cx="210" cy="184" r="16" fill="white"/>
<circle cx="254" cy="184" r="16" fill="white"/>
<circle cx="298" cy="184" r="16" fill="white"/>
<circle cx="342" cy="184" r="16" fill="white"/>
<mask id="mask0_847_898" style="mask-type:alpha" maskUnits="userSpaceOnUse" x="443" y="87" width="40" height="40">
<rect width="40" height="40" rx="3" transform="matrix(-1 0 0 1 483 87)" fill="#D9D9D9"/>
</mask>
<g mask="url(#mask0_847_898)">
<path d="M454.854 122.186C455.671 123.003 456.996 123.003 457.812 122.186L470.879 109.12C472.05 107.948 472.05 106.049 470.879 104.877L457.812 91.8112C456.996 90.9943 455.671 90.9943 454.854 91.8112V91.8112C454.037 92.6281 454.037 93.9526 454.854 94.7695L464.962 104.877C466.134 106.049 466.134 107.948 464.962 109.12L454.854 119.228C454.037 120.045 454.037 121.369 454.854 122.186V122.186Z" fill="#1C1B1F"/>
</g>
<rect x="1" y="1" width="495" height="212" rx="13" stroke="#6041FF" stroke-width="2"/>
</svg>
