<svg width="457" height="187" viewBox="0 0 457 187" fill="none" xmlns="http://www.w3.org/2000/svg">
<path d="M61.1339 18.7273H63.9006V28.7053C63.9006 29.799 63.642 30.761 63.125 31.5913C62.6129 32.4215 61.892 33.0703 60.9624 33.5376C60.0327 34 58.9464 34.2312 57.7035 34.2312C56.4556 34.2312 55.3668 34 54.4371 33.5376C53.5075 33.0703 52.7866 32.4215 52.2745 31.5913C51.7624 30.761 51.5064 29.799 51.5064 28.7053V18.7273H54.2731V28.4741C54.2731 29.1104 54.4123 29.6772 54.6907 30.1744C54.9741 30.6715 55.3718 31.0618 55.8839 31.3452C56.396 31.6236 57.0025 31.7628 57.7035 31.7628C58.4045 31.7628 59.011 31.6236 59.5231 31.3452C60.0401 31.0618 60.4379 30.6715 60.7163 30.1744C60.9947 29.6772 61.1339 29.1104 61.1339 28.4741V18.7273ZM66.9078 18.7273H70.2934L74.8275 29.794H75.0065L79.5406 18.7273H82.9262V34H80.2714V23.5075H80.1297L75.9088 33.9553H73.9252L69.7043 23.4851H69.5626V34H66.9078V18.7273ZM99.0118 23.8803H96.2227C96.1432 23.4229 95.9965 23.0178 95.7828 22.6648C95.569 22.3068 95.303 22.0036 94.9848 21.755C94.6666 21.5064 94.3037 21.32 93.896 21.1957C93.4933 21.0664 93.0583 21.0018 92.591 21.0018C91.7607 21.0018 91.0249 21.2106 90.3836 21.6282C89.7423 22.0408 89.2401 22.6474 88.8772 23.4478C88.5143 24.2433 88.3328 25.2152 88.3328 26.3636C88.3328 27.532 88.5143 28.5163 88.8772 29.3168C89.2451 30.1122 89.7472 30.7138 90.3836 31.1214C91.0249 31.5241 91.7583 31.7255 92.5835 31.7255C93.0409 31.7255 93.4685 31.6658 93.8662 31.5465C94.2689 31.4222 94.6294 31.2408 94.9475 31.0021C95.2707 30.7635 95.5416 30.4702 95.7604 30.1222C95.9841 29.7741 96.1382 29.3764 96.2227 28.929L99.0118 28.9439C98.9074 29.6697 98.6812 30.3509 98.3332 30.9872C97.9901 31.6236 97.5402 32.1854 96.9834 32.6726C96.4266 33.1548 95.7753 33.5327 95.0296 33.8061C94.2838 34.0746 93.4561 34.2088 92.5463 34.2088C91.2039 34.2088 90.0058 33.8981 88.9518 33.2766C87.8978 32.6552 87.0676 31.7578 86.461 30.5845C85.8545 29.4112 85.5512 28.0043 85.5512 26.3636C85.5512 24.718 85.857 23.3111 86.4685 22.1428C87.08 20.9695 87.9127 20.0721 88.9667 19.4506C90.0207 18.8292 91.2139 18.5185 92.5463 18.5185C93.3964 18.5185 94.1869 18.6378 94.9177 18.8764C95.6485 19.1151 96.2998 19.4656 96.8715 19.9279C97.4433 20.3853 97.9131 20.9471 98.281 21.6133C98.6539 22.2745 98.8975 23.0302 99.0118 23.8803ZM106.329 31.1662V28.9663L112.81 18.7273H114.644V21.8594H113.526L109.163 28.7724V28.8917H118.209V31.1662H106.329ZM113.615 34V30.495L113.645 29.5107V18.7273H116.255V34H113.615ZM133.472 16.423H136.286V35.869H133.472V16.423ZM127.739 18.439H130.511C130.511 24.382 128.495 29.254 121.586 32.593L120.137 30.367C125.723 27.679 127.739 24.151 127.739 18.943V18.439ZM121.166 18.439H129.062V20.644H121.166V18.439ZM149.81 17.767C152.771 17.767 154.913 20.455 154.913 24.697C154.913 28.981 152.771 31.669 149.81 31.669C146.849 31.669 144.707 28.981 144.707 24.697C144.707 20.455 146.849 17.767 149.81 17.767ZM149.81 20.308C148.361 20.308 147.395 21.841 147.395 24.697C147.395 27.595 148.361 29.149 149.81 29.149C151.259 29.149 152.246 27.595 152.246 24.697C152.246 21.841 151.259 20.308 149.81 20.308ZM157.034 16.423H159.848V35.869H157.034V16.423ZM159.218 23.752H162.662V26.062H159.218V23.752ZM177.255 16.402H180.069V35.911H177.255V16.402ZM169.59 17.767C172.53 17.767 174.693 20.455 174.693 24.697C174.693 28.981 172.53 31.669 169.59 31.669C166.65 31.669 164.487 28.981 164.487 24.697C164.487 20.455 166.65 17.767 169.59 17.767ZM169.59 20.308C168.141 20.308 167.154 21.841 167.154 24.697C167.154 27.595 168.141 29.149 169.59 29.149C171.039 29.149 172.005 27.595 172.005 24.697C172.005 21.841 171.039 20.308 169.59 20.308ZM196.573 16.423H199.387V35.932H196.573V16.423ZM184.414 28.96H186.094C190.189 28.96 192.499 28.876 195.103 28.393L195.355 30.682C192.73 31.207 190.273 31.291 186.094 31.291H184.414V28.96ZM184.414 18.145H193.801V20.392H187.186V29.842H184.414V18.145ZM207.891 17.767C210.789 17.767 212.91 20.455 212.91 24.697C212.91 28.981 210.789 31.669 207.891 31.669C204.972 31.669 202.872 28.981 202.872 24.697C202.872 20.455 204.972 17.767 207.891 17.767ZM207.891 20.308C206.484 20.308 205.539 21.841 205.539 24.697C205.539 27.595 206.484 29.149 207.891 29.149C209.319 29.149 210.243 27.595 210.243 24.697C210.243 21.841 209.319 20.308 207.891 20.308ZM216.102 16.402H218.874V35.911H216.102V16.402ZM212.091 23.416H217.278V25.663H212.091V23.416ZM221.854 27.112H239.452V29.338H221.854V27.112ZM223.975 33.307H237.688V35.533H223.975V33.307ZM223.975 30.304H226.747V34.399H223.975V30.304ZM229.246 24.886H232.039V27.763H229.246V24.886ZM224.038 23.647H237.583V25.747H224.038V23.647ZM224.038 17.053H237.436V19.174H226.81V24.55H224.038V17.053ZM226.033 20.371H236.995V22.408H226.033V20.371Z" fill="white"/>
<path d="M24.4 113.152H25.488V113.776C25.488 116.256 23.856 118.272 21.44 119.056L20.8 118.016C22.944 117.36 24.4 115.68 24.4 113.776V113.152ZM24.64 113.152H25.728V113.776C25.728 115.536 27.136 117.12 29.264 117.744L28.64 118.8C26.224 118.048 24.64 116.096 24.64 113.776V113.152ZM21.2 112.48H28.912V113.552H21.2V112.48ZM24.4 110.72H25.728V112.912H24.4V110.72ZM30.688 110.784H32.016V119.344H30.688V110.784ZM31.648 114.432H34.16V115.552H31.648V114.432ZM22.928 120.016H32.016V125.056H22.928V120.016ZM30.72 121.072H24.224V123.984H30.72V121.072ZM42.0308 114H46.3988V115.104H42.0308V114ZM42.0308 118.576H46.3988V119.68H42.0308V118.576ZM39.3748 111.888C41.4708 111.888 42.9748 113.856 42.9748 116.928C42.9748 120.016 41.4708 121.984 39.3748 121.984C37.2628 121.984 35.7747 120.016 35.7747 116.928C35.7747 113.856 37.2628 111.888 39.3748 111.888ZM39.3748 113.088C37.9828 113.088 37.0228 114.592 37.0228 116.928C37.0228 119.28 37.9828 120.816 39.3748 120.816C40.7668 120.816 41.7268 119.28 41.7268 116.928C41.7268 114.592 40.7668 113.088 39.3748 113.088ZM46.1108 110.768H47.4228V125.264H46.1108V110.768ZM64.9839 110.8H66.3279V121.36H64.9839V110.8ZM57.0319 123.84H66.7599V124.928H57.0319V123.84ZM57.0319 120.272H58.3439V124.208H57.0319V120.272ZM58.5679 111.792C60.7279 111.792 62.3279 113.264 62.3279 115.36C62.3279 117.44 60.7279 118.928 58.5679 118.928C56.4079 118.928 54.7919 117.44 54.7919 115.36C54.7919 113.264 56.4079 111.792 58.5679 111.792ZM58.5679 112.944C57.1599 112.944 56.0879 113.936 56.0879 115.36C56.0879 116.768 57.1599 117.76 58.5679 117.76C59.9759 117.76 61.0479 116.768 61.0479 115.36C61.0479 113.936 59.9759 112.944 58.5679 112.944ZM73.2866 118.064H74.6146V121.28H73.2866V118.064ZM79.7026 110.784H81.0306V121.792H79.7026V110.784ZM71.1586 123.84H81.3826V124.928H71.1586V123.84ZM71.1586 120.72H72.4866V124.144H71.1586V120.72ZM69.2866 118.56L69.1106 117.472C71.7826 117.472 75.3666 117.44 78.4386 117.04L78.5346 118.016C75.4146 118.512 71.9106 118.56 69.2866 118.56ZM76.7586 119.328H80.0386V120.304H76.7586V119.328ZM73.8146 111.376C75.9266 111.376 77.3666 112.368 77.3666 113.888C77.3666 115.424 75.9266 116.416 73.8146 116.416C71.6866 116.416 70.2466 115.424 70.2466 113.888C70.2466 112.368 71.6866 111.376 73.8146 111.376ZM73.8146 112.368C72.4546 112.368 71.5106 112.96 71.5106 113.888C71.5106 114.816 72.4546 115.408 73.8146 115.408C75.1586 115.408 76.1026 114.816 76.1026 113.888C76.1026 112.96 75.1586 112.368 73.8146 112.368ZM92.8778 112.364V124H91.1165V114.125H91.0483L88.2642 115.943V114.261L91.1676 112.364H92.8778ZM96.0256 124V122.727L99.9631 118.648C100.384 118.205 100.73 117.816 101.003 117.483C101.279 117.146 101.486 116.826 101.622 116.523C101.759 116.22 101.827 115.898 101.827 115.557C101.827 115.17 101.736 114.837 101.554 114.557C101.372 114.273 101.124 114.055 100.81 113.903C100.495 113.748 100.141 113.67 99.7472 113.67C99.3305 113.67 98.9669 113.756 98.6562 113.926C98.3456 114.097 98.107 114.337 97.9403 114.648C97.7737 114.958 97.6903 115.322 97.6903 115.739H96.0142C96.0142 115.03 96.1771 114.411 96.5028 113.881C96.8286 113.35 97.2756 112.939 97.8438 112.648C98.4119 112.352 99.0578 112.205 99.7812 112.205C100.512 112.205 101.156 112.35 101.713 112.642C102.274 112.93 102.711 113.324 103.026 113.824C103.34 114.32 103.497 114.881 103.497 115.506C103.497 115.938 103.416 116.36 103.253 116.773C103.094 117.186 102.815 117.646 102.418 118.153C102.02 118.657 101.467 119.269 100.759 119.989L98.446 122.409V122.494H103.685V124H96.0256ZM112.415 113.12H116.591V114.208H112.415V113.12ZM112.415 116H116.623V117.072H112.415V116ZM116.079 110.784H117.407V119.344H116.079V110.784ZM106.175 111.872H112.783V118.304H106.175V111.872ZM111.471 112.944H107.471V117.248H111.471V112.944ZM112.655 119.76C115.631 119.76 117.471 120.768 117.471 122.496C117.471 124.224 115.631 125.216 112.655 125.216C109.663 125.216 107.823 124.224 107.823 122.496C107.823 120.768 109.663 119.76 112.655 119.76ZM112.655 120.816C110.479 120.816 109.151 121.44 109.151 122.496C109.151 123.552 110.479 124.176 112.655 124.176C114.831 124.176 116.159 123.552 116.159 122.496C116.159 121.44 114.831 120.816 112.655 120.816Z" fill="white"/>
<circle cx="36" cy="154" r="16" fill="white"/>
<circle cx="80" cy="154" r="16" fill="white"/>
<circle cx="124" cy="154" r="16" fill="white"/>
<circle cx="168" cy="154" r="16" fill="white"/>
<circle cx="212" cy="154" r="16" fill="white"/>
<circle cx="256" cy="154" r="16" fill="white"/>
<circle cx="300" cy="154" r="16" fill="white"/>
<circle cx="344" cy="154" r="16" fill="white"/>
<path d="M21.5057 68V66.7216L26.3068 61.4659C26.8703 60.8504 27.3343 60.3153 27.6989 59.8608C28.0634 59.4015 28.3333 58.9706 28.5085 58.5682C28.6884 58.161 28.7784 57.7348 28.7784 57.2898C28.7784 56.7784 28.6553 56.3357 28.4091 55.9616C28.1676 55.5876 27.8362 55.2988 27.4148 55.0952C26.9934 54.8916 26.5199 54.7898 25.9943 54.7898C25.4356 54.7898 24.9479 54.9058 24.5312 55.1378C24.1193 55.3651 23.7997 55.6847 23.5724 56.0966C23.3499 56.5085 23.2386 56.9915 23.2386 57.5455H21.5625C21.5625 56.6932 21.759 55.9451 22.152 55.3011C22.545 54.6572 23.08 54.1553 23.7571 53.7955C24.4389 53.4356 25.2036 53.2557 26.0511 53.2557C26.9034 53.2557 27.6586 53.4356 28.3168 53.7955C28.9749 54.1553 29.491 54.6406 29.8651 55.2514C30.2391 55.8622 30.4261 56.5417 30.4261 57.2898C30.4261 57.8248 30.3291 58.348 30.1349 58.8594C29.9455 59.366 29.6141 59.9318 29.1406 60.5568C28.6719 61.1771 28.0208 61.9347 27.1875 62.8295L23.9205 66.3239V66.4375H30.6818V68H21.5057ZM38.3594 68.1989C37.2893 68.1989 36.3778 67.9077 35.625 67.3253C34.8722 66.7382 34.2969 65.8883 33.8991 64.7756C33.5014 63.6581 33.3026 62.3087 33.3026 60.7273C33.3026 59.1553 33.5014 57.813 33.8991 56.7003C34.3016 55.5829 34.8793 54.7306 35.6321 54.1435C36.3897 53.5516 37.2988 53.2557 38.3594 53.2557C39.42 53.2557 40.3267 53.5516 41.0795 54.1435C41.8371 54.7306 42.4148 55.5829 42.8125 56.7003C43.215 57.813 43.4162 59.1553 43.4162 60.7273C43.4162 62.3087 43.2173 63.6581 42.8196 64.7756C42.4219 65.8883 41.8466 66.7382 41.0938 67.3253C40.3409 67.9077 39.4295 68.1989 38.3594 68.1989ZM38.3594 66.6364C39.42 66.6364 40.2438 66.125 40.831 65.1023C41.4181 64.0795 41.7116 62.6212 41.7116 60.7273C41.7116 59.4678 41.5767 58.3954 41.3068 57.5099C41.0417 56.6245 40.6581 55.9498 40.1562 55.4858C39.6591 55.0218 39.0601 54.7898 38.3594 54.7898C37.3082 54.7898 36.4867 55.3082 35.8949 56.3452C35.303 57.3774 35.0071 58.8381 35.0071 60.7273C35.0071 61.9867 35.1397 63.0568 35.4048 63.9375C35.67 64.8182 36.0511 65.4882 36.5483 65.9474C37.0502 66.4067 37.6539 66.6364 38.3594 66.6364ZM46.1151 68V66.7216L50.9162 61.4659C51.4796 60.8504 51.9437 60.3153 52.3082 59.8608C52.6728 59.4015 52.9427 58.9706 53.1179 58.5682C53.2978 58.161 53.3878 57.7348 53.3878 57.2898C53.3878 56.7784 53.2647 56.3357 53.0185 55.9616C52.777 55.5876 52.4455 55.2988 52.0241 55.0952C51.6027 54.8916 51.1293 54.7898 50.6037 54.7898C50.045 54.7898 49.5573 54.9058 49.1406 55.1378C48.7287 55.3651 48.4091 55.6847 48.1818 56.0966C47.9593 56.5085 47.848 56.9915 47.848 57.5455H46.1719C46.1719 56.6932 46.3684 55.9451 46.7614 55.3011C47.1544 54.6572 47.6894 54.1553 48.3665 53.7955C49.0483 53.4356 49.813 53.2557 50.6605 53.2557C51.5128 53.2557 52.268 53.4356 52.9261 53.7955C53.5843 54.1553 54.1004 54.6406 54.4744 55.2514C54.8485 55.8622 55.0355 56.5417 55.0355 57.2898C55.0355 57.8248 54.9384 58.348 54.7443 58.8594C54.5549 59.366 54.2235 59.9318 53.75 60.5568C53.2812 61.1771 52.6302 61.9347 51.7969 62.8295L48.5298 66.3239V66.4375H55.2912V68H46.1151ZM63.1392 68.1989C62.2017 68.1989 61.366 68.0379 60.6321 67.7159C59.9029 67.3939 59.3229 66.9465 58.892 66.3736C58.4659 65.7959 58.2339 65.1259 58.196 64.3636H59.9858C60.0237 64.8324 60.1847 65.2372 60.4688 65.5781C60.7528 65.9143 61.1245 66.1747 61.5838 66.3594C62.0431 66.544 62.5521 66.6364 63.1108 66.6364C63.7358 66.6364 64.2898 66.5275 64.7727 66.3097C65.2557 66.0919 65.6345 65.7888 65.9091 65.4006C66.1837 65.0123 66.321 64.5625 66.321 64.0511C66.321 63.5161 66.1884 63.045 65.9233 62.6378C65.6581 62.2259 65.2699 61.9039 64.7585 61.6719C64.2472 61.4399 63.6222 61.3239 62.8835 61.3239H61.7188V59.7614H62.8835C63.4612 59.7614 63.9678 59.6572 64.4034 59.4489C64.8438 59.2405 65.187 58.947 65.4332 58.5682C65.6842 58.1894 65.8097 57.7443 65.8097 57.233C65.8097 56.7405 65.7008 56.312 65.483 55.9474C65.2652 55.5829 64.9574 55.2988 64.5597 55.0952C64.1667 54.8916 63.7027 54.7898 63.1676 54.7898C62.6657 54.7898 62.1922 54.8821 61.7472 55.0668C61.3068 55.2467 60.947 55.5095 60.6676 55.8551C60.3883 56.196 60.2367 56.608 60.2131 57.0909H58.5085C58.5369 56.3286 58.7666 55.661 59.1974 55.0881C59.6283 54.5104 60.1918 54.0606 60.8878 53.7386C61.5885 53.4167 62.358 53.2557 63.196 53.2557C64.0956 53.2557 64.8674 53.438 65.5114 53.8026C66.1553 54.1624 66.6501 54.6383 66.9957 55.2301C67.3414 55.822 67.5142 56.4612 67.5142 57.1477C67.5142 57.9669 67.2988 58.6652 66.8679 59.2429C66.4418 59.8205 65.8617 60.2206 65.1278 60.4432V60.5568C66.0464 60.7083 66.7637 61.099 67.2798 61.7287C67.7959 62.3537 68.054 63.1278 68.054 64.0511C68.054 64.8419 67.8385 65.5521 67.4077 66.1818C66.9815 66.8068 66.3991 67.2992 65.6605 67.6591C64.9219 68.0189 64.0814 68.1989 63.1392 68.1989ZM83.6531 51.48H85.3131V64.88H83.6531V51.48ZM78.5531 53.84H84.2731V55.18H78.5531V53.84ZM73.7531 67.8H85.7931V69.16H73.7531V67.8ZM73.7531 63.72H75.4131V68.42H73.7531V63.72ZM71.4931 52.8H73.1531V61.32H71.4931V52.8ZM71.4931 60.8H72.8531C75.4331 60.8 77.8531 60.66 80.6731 60.16L80.8331 61.54C77.9331 62.06 75.5131 62.18 72.8531 62.18H71.4931V60.8ZM78.5531 57.28H84.2731V58.64H78.5531V57.28ZM95.4368 68L101.942 55.1307V55.017H94.4425V53.4545H103.761V55.1023L97.2834 68H95.4368ZM110.742 58.96H112.402V62.18H110.742V58.96ZM119.042 51.48H120.702V62.12H119.042V51.48ZM106.042 59.52L105.842 58.28C109.322 58.28 113.742 58.26 117.602 57.82L117.702 58.9C113.742 59.48 109.422 59.52 106.042 59.52ZM108.582 62.78H120.702V66.54H110.242V68.58H108.622V65.44H119.062V63.98H108.582V62.78ZM108.622 68.16H121.302V69.36H108.622V68.16ZM115.442 60.08H119.562V61.16H115.442V60.08ZM111.682 51.82C114.362 51.82 116.122 52.86 116.122 54.54C116.122 56.22 114.362 57.26 111.682 57.26C108.982 57.26 107.222 56.22 107.222 54.54C107.222 52.86 108.982 51.82 111.682 51.82ZM111.682 52.98C109.902 52.98 108.762 53.58 108.762 54.54C108.762 55.5 109.902 56.1 111.682 56.1C113.422 56.1 114.562 55.5 114.562 54.54C114.562 53.58 113.422 52.98 111.682 52.98ZM135.545 53.4545V68H133.784V55.3011H133.699L130.147 57.6591V55.8693L133.784 53.4545H135.545ZM144.274 68.1989C143.44 68.1989 142.69 68.0331 142.022 67.7017C141.355 67.3703 140.82 66.9157 140.417 66.3381C140.015 65.7604 139.795 65.1023 139.757 64.3636H141.461C141.528 65.0218 141.826 65.5663 142.356 65.9972C142.891 66.4233 143.53 66.6364 144.274 66.6364C144.87 66.6364 145.401 66.4967 145.865 66.2173C146.333 65.938 146.7 65.5545 146.966 65.0668C147.235 64.5743 147.37 64.018 147.37 63.3977C147.37 62.7633 147.231 62.1974 146.951 61.7003C146.677 61.1984 146.298 60.803 145.815 60.5142C145.332 60.2254 144.78 60.0786 144.16 60.0739C143.715 60.0691 143.258 60.1378 142.789 60.2798C142.321 60.4171 141.935 60.5947 141.632 60.8125L139.984 60.6136L140.865 53.4545H148.422V55.017H142.342L141.831 59.3068H141.916C142.214 59.0701 142.588 58.8736 143.038 58.7173C143.488 58.5611 143.957 58.483 144.444 58.483C145.334 58.483 146.127 58.696 146.824 59.1222C147.524 59.5436 148.074 60.1212 148.471 60.8551C148.874 61.589 149.075 62.4271 149.075 63.3693C149.075 64.2973 148.867 65.1259 148.45 65.8551C148.038 66.5795 147.47 67.1525 146.745 67.5739C146.021 67.9905 145.197 68.1989 144.274 68.1989ZM156.451 52.14C159.151 52.14 161.131 53.78 161.131 56.16C161.131 58.52 159.151 60.16 156.451 60.16C153.771 60.16 151.791 58.52 151.791 56.16C151.791 53.78 153.771 52.14 156.451 52.14ZM156.451 53.5C154.711 53.5 153.391 54.6 153.391 56.16C153.391 57.72 154.711 58.8 156.451 58.8C158.211 58.8 159.511 57.72 159.511 56.16C159.511 54.6 158.211 53.5 156.451 53.5ZM164.531 51.48H166.211V60.74H164.531V51.48ZM154.511 61.62H166.211V66.02H156.171V68.74H154.551V64.78H164.571V62.96H154.511V61.62ZM154.551 68H166.811V69.32H154.551V68Z" fill="white"/>
<path d="M186.784 60.983V62.5455H180.42V60.983H186.784Z" fill="white"/>
<path d="M200.506 68V66.7216L205.307 61.4659C205.87 60.8504 206.334 60.3153 206.699 59.8608C207.063 59.4015 207.333 58.9706 207.509 58.5682C207.688 58.161 207.778 57.7348 207.778 57.2898C207.778 56.7784 207.655 56.3357 207.409 55.9616C207.168 55.5876 206.836 55.2988 206.415 55.0952C205.993 54.8916 205.52 54.7898 204.994 54.7898C204.436 54.7898 203.948 54.9058 203.531 55.1378C203.119 55.3651 202.8 55.6847 202.572 56.0966C202.35 56.5085 202.239 56.9915 202.239 57.5455H200.562C200.562 56.6932 200.759 55.9451 201.152 55.3011C201.545 54.6572 202.08 54.1553 202.757 53.7955C203.439 53.4356 204.204 53.2557 205.051 53.2557C205.903 53.2557 206.659 53.4356 207.317 53.7955C207.975 54.1553 208.491 54.6406 208.865 55.2514C209.239 55.8622 209.426 56.5417 209.426 57.2898C209.426 57.8248 209.329 58.348 209.135 58.8594C208.946 59.366 208.614 59.9318 208.141 60.5568C207.672 61.1771 207.021 61.9347 206.188 62.8295L202.92 66.3239V66.4375H209.682V68H200.506ZM217.359 68.1989C216.289 68.1989 215.378 67.9077 214.625 67.3253C213.872 66.7382 213.297 65.8883 212.899 64.7756C212.501 63.6581 212.303 62.3087 212.303 60.7273C212.303 59.1553 212.501 57.813 212.899 56.7003C213.302 55.5829 213.879 54.7306 214.632 54.1435C215.39 53.5516 216.299 53.2557 217.359 53.2557C218.42 53.2557 219.327 53.5516 220.08 54.1435C220.837 54.7306 221.415 55.5829 221.812 56.7003C222.215 57.813 222.416 59.1553 222.416 60.7273C222.416 62.3087 222.217 63.6581 221.82 64.7756C221.422 65.8883 220.847 66.7382 220.094 67.3253C219.341 67.9077 218.429 68.1989 217.359 68.1989ZM217.359 66.6364C218.42 66.6364 219.244 66.125 219.831 65.1023C220.418 64.0795 220.712 62.6212 220.712 60.7273C220.712 59.4678 220.577 58.3954 220.307 57.5099C220.042 56.6245 219.658 55.9498 219.156 55.4858C218.659 55.0218 218.06 54.7898 217.359 54.7898C216.308 54.7898 215.487 55.3082 214.895 56.3452C214.303 57.3774 214.007 58.8381 214.007 60.7273C214.007 61.9867 214.14 63.0568 214.405 63.9375C214.67 64.8182 215.051 65.4882 215.548 65.9474C216.05 66.4067 216.654 66.6364 217.359 66.6364ZM225.115 68V66.7216L229.916 61.4659C230.48 60.8504 230.944 60.3153 231.308 59.8608C231.673 59.4015 231.943 58.9706 232.118 58.5682C232.298 58.161 232.388 57.7348 232.388 57.2898C232.388 56.7784 232.265 56.3357 232.018 55.9616C231.777 55.5876 231.446 55.2988 231.024 55.0952C230.603 54.8916 230.129 54.7898 229.604 54.7898C229.045 54.7898 228.557 54.9058 228.141 55.1378C227.729 55.3651 227.409 55.6847 227.182 56.0966C226.959 56.5085 226.848 56.9915 226.848 57.5455H225.172C225.172 56.6932 225.368 55.9451 225.761 55.3011C226.154 54.6572 226.689 54.1553 227.366 53.7955C228.048 53.4356 228.813 53.2557 229.661 53.2557C230.513 53.2557 231.268 53.4356 231.926 53.7955C232.584 54.1553 233.1 54.6406 233.474 55.2514C233.848 55.8622 234.036 56.5417 234.036 57.2898C234.036 57.8248 233.938 58.348 233.744 58.8594C233.555 59.366 233.223 59.9318 232.75 60.5568C232.281 61.1771 231.63 61.9347 230.797 62.8295L227.53 66.3239V66.4375H234.291V68H225.115ZM242.139 68.1989C241.202 68.1989 240.366 68.0379 239.632 67.7159C238.903 67.3939 238.323 66.9465 237.892 66.3736C237.466 65.7959 237.234 65.1259 237.196 64.3636H238.986C239.024 64.8324 239.185 65.2372 239.469 65.5781C239.753 65.9143 240.125 66.1747 240.584 66.3594C241.043 66.544 241.552 66.6364 242.111 66.6364C242.736 66.6364 243.29 66.5275 243.773 66.3097C244.256 66.0919 244.634 65.7888 244.909 65.4006C245.184 65.0123 245.321 64.5625 245.321 64.0511C245.321 63.5161 245.188 63.045 244.923 62.6378C244.658 62.2259 244.27 61.9039 243.759 61.6719C243.247 61.4399 242.622 61.3239 241.884 61.3239H240.719V59.7614H241.884C242.461 59.7614 242.968 59.6572 243.403 59.4489C243.844 59.2405 244.187 58.947 244.433 58.5682C244.684 58.1894 244.81 57.7443 244.81 57.233C244.81 56.7405 244.701 56.312 244.483 55.9474C244.265 55.5829 243.957 55.2988 243.56 55.0952C243.167 54.8916 242.703 54.7898 242.168 54.7898C241.666 54.7898 241.192 54.8821 240.747 55.0668C240.307 55.2467 239.947 55.5095 239.668 55.8551C239.388 56.196 239.237 56.608 239.213 57.0909H237.509C237.537 56.3286 237.767 55.661 238.197 55.0881C238.628 54.5104 239.192 54.0606 239.888 53.7386C240.589 53.4167 241.358 53.2557 242.196 53.2557C243.096 53.2557 243.867 53.438 244.511 53.8026C245.155 54.1624 245.65 54.6383 245.996 55.2301C246.341 55.822 246.514 56.4612 246.514 57.1477C246.514 57.9669 246.299 58.6652 245.868 59.2429C245.442 59.8205 244.862 60.2206 244.128 60.4432V60.5568C245.046 60.7083 245.764 61.099 246.28 61.7287C246.796 62.3537 247.054 63.1278 247.054 64.0511C247.054 64.8419 246.839 65.5521 246.408 66.1818C245.982 66.8068 245.399 67.2992 244.661 67.6591C243.922 68.0189 243.081 68.1989 242.139 68.1989ZM262.653 51.48H264.313V64.88H262.653V51.48ZM257.553 53.84H263.273V55.18H257.553V53.84ZM252.753 67.8H264.793V69.16H252.753V67.8ZM252.753 63.72H254.413V68.42H252.753V63.72ZM250.493 52.8H252.153V61.32H250.493V52.8ZM250.493 60.8H251.853C254.433 60.8 256.853 60.66 259.673 60.16L259.833 61.54C256.933 62.06 254.513 62.18 251.853 62.18H250.493V60.8ZM257.553 57.28H263.273V58.64H257.553V57.28ZM274.437 68L280.942 55.1307V55.017H273.442V53.4545H282.761V55.1023L276.283 68H274.437ZM289.742 58.96H291.402V62.18H289.742V58.96ZM298.042 51.48H299.702V62.12H298.042V51.48ZM285.042 59.52L284.842 58.28C288.322 58.28 292.742 58.26 296.602 57.82L296.702 58.9C292.742 59.48 288.422 59.52 285.042 59.52ZM287.582 62.78H299.702V66.54H289.242V68.58H287.622V65.44H298.062V63.98H287.582V62.78ZM287.622 68.16H300.302V69.36H287.622V68.16ZM294.442 60.08H298.562V61.16H294.442V60.08ZM290.682 51.82C293.362 51.82 295.122 52.86 295.122 54.54C295.122 56.22 293.362 57.26 290.682 57.26C287.982 57.26 286.222 56.22 286.222 54.54C286.222 52.86 287.982 51.82 290.682 51.82ZM290.682 52.98C288.902 52.98 287.762 53.58 287.762 54.54C287.762 55.5 288.902 56.1 290.682 56.1C292.422 56.1 293.562 55.5 293.562 54.54C293.562 53.58 292.422 52.98 290.682 52.98ZM309.431 68V66.7216L314.233 61.4659C314.796 60.8504 315.26 60.3153 315.625 59.8608C315.989 59.4015 316.259 58.9706 316.434 58.5682C316.614 58.161 316.704 57.7348 316.704 57.2898C316.704 56.7784 316.581 56.3357 316.335 55.9616C316.093 55.5876 315.762 55.2988 315.341 55.0952C314.919 54.8916 314.446 54.7898 313.92 54.7898C313.361 54.7898 312.874 54.9058 312.457 55.1378C312.045 55.3651 311.725 55.6847 311.498 56.0966C311.276 56.5085 311.164 56.9915 311.164 57.5455H309.488C309.488 56.6932 309.685 55.9451 310.078 55.3011C310.471 54.6572 311.006 54.1553 311.683 53.7955C312.365 53.4356 313.129 53.2557 313.977 53.2557C314.829 53.2557 315.584 53.4356 316.243 53.7955C316.901 54.1553 317.417 54.6406 317.791 55.2514C318.165 55.8622 318.352 56.5417 318.352 57.2898C318.352 57.8248 318.255 58.348 318.061 58.8594C317.871 59.366 317.54 59.9318 317.066 60.5568C316.598 61.1771 315.947 61.9347 315.113 62.8295L311.846 66.3239V66.4375H318.608V68H309.431ZM321.541 68V66.7216L326.342 61.4659C326.905 60.8504 327.369 60.3153 327.734 59.8608C328.099 59.4015 328.368 58.9706 328.544 58.5682C328.724 58.161 328.814 57.7348 328.814 57.2898C328.814 56.7784 328.69 56.3357 328.444 55.9616C328.203 55.5876 327.871 55.2988 327.45 55.0952C327.029 54.8916 326.555 54.7898 326.029 54.7898C325.471 54.7898 324.983 54.9058 324.566 55.1378C324.154 55.3651 323.835 55.6847 323.608 56.0966C323.385 56.5085 323.274 56.9915 323.274 57.5455H321.598C321.598 56.6932 321.794 55.9451 322.187 55.3011C322.58 54.6572 323.115 54.1553 323.792 53.7955C324.474 53.4356 325.239 53.2557 326.086 53.2557C326.939 53.2557 327.694 53.4356 328.352 53.7955C329.01 54.1553 329.526 54.6406 329.9 55.2514C330.274 55.8622 330.461 56.5417 330.461 57.2898C330.461 57.8248 330.364 58.348 330.17 58.8594C329.981 59.366 329.649 59.9318 329.176 60.5568C328.707 61.1771 328.056 61.9347 327.223 62.8295L323.956 66.3239V66.4375H330.717V68H321.541ZM338.205 52.14C340.905 52.14 342.885 53.78 342.885 56.16C342.885 58.52 340.905 60.16 338.205 60.16C335.525 60.16 333.545 58.52 333.545 56.16C333.545 53.78 335.525 52.14 338.205 52.14ZM338.205 53.5C336.465 53.5 335.145 54.6 335.145 56.16C335.145 57.72 336.465 58.8 338.205 58.8C339.965 58.8 341.265 57.72 341.265 56.16C341.265 54.6 339.965 53.5 338.205 53.5ZM346.285 51.48H347.965V60.74H346.285V51.48ZM336.265 61.62H347.965V66.02H337.925V68.74H336.305V64.78H346.325V62.96H336.265V61.62ZM336.305 68H348.565V69.32H336.305V68Z" fill="white"/>
<path d="M26.6193 83.4545V98H24.858V85.3011H24.7727L21.2216 87.6591V85.8693L24.858 83.4545H26.6193ZM35.7173 98.1989C34.7798 98.1989 33.9441 98.0379 33.2102 97.7159C32.4811 97.3939 31.901 96.9465 31.4702 96.3736C31.044 95.7959 30.812 95.1259 30.7741 94.3636H32.5639C32.6018 94.8324 32.7628 95.2372 33.0469 95.5781C33.331 95.9143 33.7027 96.1747 34.1619 96.3594C34.6212 96.544 35.1302 96.6364 35.6889 96.6364C36.3139 96.6364 36.8679 96.5275 37.3509 96.3097C37.8338 96.0919 38.2126 95.7888 38.4872 95.4006C38.7618 95.0123 38.8991 94.5625 38.8991 94.0511C38.8991 93.5161 38.7666 93.045 38.5014 92.6378C38.2363 92.2259 37.848 91.9039 37.3366 91.6719C36.8253 91.4399 36.2003 91.3239 35.4616 91.3239H34.2969V89.7614H35.4616C36.0393 89.7614 36.5459 89.6572 36.9815 89.4489C37.4219 89.2405 37.7652 88.947 38.0114 88.5682C38.2623 88.1894 38.3878 87.7443 38.3878 87.233C38.3878 86.7405 38.2789 86.312 38.0611 85.9474C37.8433 85.5829 37.5355 85.2988 37.1378 85.0952C36.7448 84.8916 36.2808 84.7898 35.7457 84.7898C35.2438 84.7898 34.7704 84.8821 34.3253 85.0668C33.8849 85.2467 33.5251 85.5095 33.2457 85.8551C32.9664 86.196 32.8149 86.608 32.7912 87.0909H31.0866C31.1151 86.3286 31.3447 85.661 31.7756 85.0881C32.2064 84.5104 32.7699 84.0606 33.4659 83.7386C34.1667 83.4167 34.9361 83.2557 35.7741 83.2557C36.6738 83.2557 37.4455 83.438 38.0895 83.8026C38.7334 84.1624 39.2282 84.6383 39.5739 85.2301C39.9195 85.822 40.0923 86.4612 40.0923 87.1477C40.0923 87.9669 39.8769 88.6652 39.446 89.2429C39.0199 89.8205 38.4399 90.2206 37.706 90.4432V90.5568C38.6245 90.7083 39.3419 91.099 39.858 91.7287C40.3741 92.3537 40.6321 93.1278 40.6321 94.0511C40.6321 94.8419 40.4167 95.5521 39.9858 96.1818C39.5597 96.8068 38.9773 97.2992 38.2386 97.6591C37.5 98.0189 36.6596 98.1989 35.7173 98.1989ZM44.7869 96.1392C44.4366 96.1392 44.1359 96.0137 43.8849 95.7628C43.634 95.5118 43.5085 95.2112 43.5085 94.8608C43.5085 94.5104 43.634 94.2098 43.8849 93.9588C44.1359 93.7079 44.4366 93.5824 44.7869 93.5824C45.1373 93.5824 45.438 93.7079 45.6889 93.9588C45.9399 94.2098 46.0653 94.5104 46.0653 94.8608C46.0653 95.0928 46.0062 95.3059 45.8878 95.5C45.7741 95.6941 45.6203 95.8504 45.4261 95.9688C45.2367 96.0824 45.0237 96.1392 44.7869 96.1392ZM44.7869 88.7812C44.4366 88.7812 44.1359 88.6558 43.8849 88.4048C43.634 88.1539 43.5085 87.8532 43.5085 87.5028C43.5085 87.1525 43.634 86.8518 43.8849 86.6009C44.1359 86.3499 44.4366 86.2244 44.7869 86.2244C45.1373 86.2244 45.438 86.3499 45.6889 86.6009C45.9399 86.8518 46.0653 87.1525 46.0653 87.5028C46.0653 87.7348 46.0062 87.9479 45.8878 88.142C45.7741 88.3362 45.6203 88.4924 45.4261 88.6108C45.2367 88.7244 45.0237 88.7812 44.7869 88.7812ZM53.7891 98.1989C52.719 98.1989 51.8075 97.9077 51.0547 97.3253C50.3018 96.7382 49.7266 95.8883 49.3288 94.7756C48.9311 93.6581 48.7322 92.3087 48.7322 90.7273C48.7322 89.1553 48.9311 87.813 49.3288 86.7003C49.7313 85.5829 50.3089 84.7306 51.0618 84.1435C51.8194 83.5516 52.7285 83.2557 53.7891 83.2557C54.8497 83.2557 55.7564 83.5516 56.5092 84.1435C57.2668 84.7306 57.8445 85.5829 58.2422 86.7003C58.6446 87.813 58.8459 89.1553 58.8459 90.7273C58.8459 92.3087 58.647 93.6581 58.2493 94.7756C57.8516 95.8883 57.2763 96.7382 56.5234 97.3253C55.7706 97.9077 54.8591 98.1989 53.7891 98.1989ZM53.7891 96.6364C54.8497 96.6364 55.6735 96.125 56.2607 95.1023C56.8478 94.0795 57.1413 92.6212 57.1413 90.7273C57.1413 89.4678 57.0064 88.3954 56.7365 87.5099C56.4714 86.6245 56.0878 85.9498 55.5859 85.4858C55.0888 85.0218 54.4898 84.7898 53.7891 84.7898C52.7379 84.7898 51.9164 85.3082 51.3246 86.3452C50.7327 87.3774 50.4368 88.8381 50.4368 90.7273C50.4368 91.9867 50.5694 93.0568 50.8345 93.9375C51.0997 94.8182 51.4808 95.4882 51.978 95.9474C52.4799 96.4067 53.0836 96.6364 53.7891 96.6364ZM66.2891 98.1989C65.219 98.1989 64.3075 97.9077 63.5547 97.3253C62.8018 96.7382 62.2266 95.8883 61.8288 94.7756C61.4311 93.6581 61.2322 92.3087 61.2322 90.7273C61.2322 89.1553 61.4311 87.813 61.8288 86.7003C62.2313 85.5829 62.8089 84.7306 63.5618 84.1435C64.3194 83.5516 65.2285 83.2557 66.2891 83.2557C67.3497 83.2557 68.2564 83.5516 69.0092 84.1435C69.7668 84.7306 70.3445 85.5829 70.7422 86.7003C71.1446 87.813 71.3459 89.1553 71.3459 90.7273C71.3459 92.3087 71.147 93.6581 70.7493 94.7756C70.3516 95.8883 69.7763 96.7382 69.0234 97.3253C68.2706 97.9077 67.3591 98.1989 66.2891 98.1989ZM66.2891 96.6364C67.3497 96.6364 68.1735 96.125 68.7607 95.1023C69.3478 94.0795 69.6413 92.6212 69.6413 90.7273C69.6413 89.4678 69.5064 88.3954 69.2365 87.5099C68.9714 86.6245 68.5878 85.9498 68.0859 85.4858C67.5888 85.0218 66.9898 84.7898 66.2891 84.7898C65.2379 84.7898 64.4164 85.3082 63.8246 86.3452C63.2327 87.3774 62.9368 88.8381 62.9368 90.7273C62.9368 91.9867 63.0694 93.0568 63.3345 93.9375C63.5997 94.8182 63.9808 95.4882 64.478 95.9474C64.9799 96.4067 65.5836 96.6364 66.2891 96.6364Z" fill="white"/>
<path d="M82.6477 93.6818C82.6335 92.8958 82.7614 92.2637 83.0312 91.7855C83.3011 91.3073 83.6515 90.9593 84.0824 90.7415C84.518 90.5237 84.9773 90.4148 85.4602 90.4148C85.9432 90.4148 86.3835 90.5213 86.7812 90.7344C87.1837 90.9427 87.643 91.2718 88.1591 91.7216C88.5095 92.0246 88.7888 92.2377 88.9972 92.3608C89.2102 92.4839 89.4422 92.5455 89.6932 92.5455C90.1004 92.5455 90.4223 92.3987 90.6591 92.1051C90.8958 91.8068 91.0095 91.3759 91 90.8125H92.5341C92.5483 91.5985 92.4205 92.2306 92.1506 92.7088C91.8854 93.187 91.535 93.535 91.0994 93.7528C90.6638 93.9706 90.2045 94.0795 89.7216 94.0795C89.2386 94.0795 88.7983 93.9754 88.4006 93.767C88.0028 93.554 87.5436 93.2225 87.0227 92.7727C86.6771 92.4697 86.3977 92.2566 86.1847 92.1335C85.9716 92.0104 85.7396 91.9489 85.4886 91.9489C85.1051 91.9489 84.7879 92.0838 84.5369 92.3537C84.2907 92.6188 84.1723 93.0616 84.1818 93.6818H82.6477Z" fill="white"/>
<path d="M109.619 83.4545V98H107.858V85.3011H107.773L104.222 87.6591V85.8693L107.858 83.4545H109.619ZM118.462 98.1989C117.486 98.1989 116.625 98.026 115.876 97.6804C115.133 97.33 114.553 96.8494 114.136 96.2386C113.72 95.6231 113.514 94.9223 113.518 94.1364C113.514 93.5208 113.634 92.9527 113.881 92.4318C114.127 91.9062 114.463 91.4683 114.889 91.1179C115.32 90.7628 115.801 90.5379 116.331 90.4432V90.358C115.635 90.178 115.081 89.7874 114.669 89.1861C114.257 88.58 114.054 87.8911 114.058 87.1193C114.054 86.3807 114.241 85.7202 114.619 85.1378C114.998 84.5554 115.519 84.0961 116.182 83.7599C116.849 83.4238 117.609 83.2557 118.462 83.2557C119.304 83.2557 120.057 83.4238 120.72 83.7599C121.383 84.0961 121.904 84.5554 122.283 85.1378C122.666 85.7202 122.86 86.3807 122.865 87.1193C122.86 87.8911 122.65 88.58 122.233 89.1861C121.821 89.7874 121.274 90.178 120.592 90.358V90.4432C121.118 90.5379 121.591 90.7628 122.013 91.1179C122.434 91.4683 122.77 91.9062 123.021 92.4318C123.272 92.9527 123.4 93.5208 123.405 94.1364C123.4 94.9223 123.187 95.6231 122.766 96.2386C122.349 96.8494 121.769 97.33 121.026 97.6804C120.287 98.026 119.432 98.1989 118.462 98.1989ZM118.462 96.6364C119.12 96.6364 119.688 96.5298 120.166 96.3168C120.644 96.1037 121.014 95.803 121.274 95.4148C121.535 95.0265 121.667 94.572 121.672 94.0511C121.667 93.5019 121.525 93.0166 121.246 92.5952C120.966 92.1738 120.585 91.8423 120.102 91.6009C119.624 91.3594 119.077 91.2386 118.462 91.2386C117.841 91.2386 117.287 91.3594 116.8 91.6009C116.317 91.8423 115.936 92.1738 115.656 92.5952C115.382 93.0166 115.247 93.5019 115.251 94.0511C115.247 94.572 115.372 95.0265 115.628 95.4148C115.888 95.803 116.26 96.1037 116.743 96.3168C117.226 96.5298 117.799 96.6364 118.462 96.6364ZM118.462 89.733C118.982 89.733 119.444 89.6288 119.847 89.4205C120.254 89.2121 120.573 88.9209 120.805 88.5469C121.037 88.1728 121.156 87.7348 121.161 87.233C121.156 86.7405 121.04 86.312 120.812 85.9474C120.585 85.5781 120.27 85.294 119.868 85.0952C119.465 84.8916 118.997 84.7898 118.462 84.7898C117.917 84.7898 117.441 84.8916 117.034 85.0952C116.627 85.294 116.312 85.5781 116.089 85.9474C115.867 86.312 115.758 86.7405 115.763 87.233C115.758 87.7348 115.869 88.1728 116.097 88.5469C116.329 88.9209 116.648 89.2121 117.055 89.4205C117.463 89.6288 117.931 89.733 118.462 89.733ZM127.377 96.1392C127.026 96.1392 126.726 96.0137 126.475 95.7628C126.224 95.5118 126.098 95.2112 126.098 94.8608C126.098 94.5104 126.224 94.2098 126.475 93.9588C126.726 93.7079 127.026 93.5824 127.377 93.5824C127.727 93.5824 128.028 93.7079 128.279 93.9588C128.53 94.2098 128.655 94.5104 128.655 94.8608C128.655 95.0928 128.596 95.3059 128.478 95.5C128.364 95.6941 128.21 95.8504 128.016 95.9688C127.827 96.0824 127.614 96.1392 127.377 96.1392ZM127.377 88.7812C127.026 88.7812 126.726 88.6558 126.475 88.4048C126.224 88.1539 126.098 87.8532 126.098 87.5028C126.098 87.1525 126.224 86.8518 126.475 86.6009C126.726 86.3499 127.026 86.2244 127.377 86.2244C127.727 86.2244 128.028 86.3499 128.279 86.6009C128.53 86.8518 128.655 87.1525 128.655 87.5028C128.655 87.7348 128.596 87.9479 128.478 88.142C128.364 88.3362 128.21 88.4924 128.016 88.6108C127.827 88.7244 127.614 88.7812 127.377 88.7812ZM136.379 98.1989C135.309 98.1989 134.397 97.9077 133.645 97.3253C132.892 96.7382 132.316 95.8883 131.919 94.7756C131.521 93.6581 131.322 92.3087 131.322 90.7273C131.322 89.1553 131.521 87.813 131.919 86.7003C132.321 85.5829 132.899 84.7306 133.652 84.1435C134.409 83.5516 135.318 83.2557 136.379 83.2557C137.44 83.2557 138.346 83.5516 139.099 84.1435C139.857 84.7306 140.434 85.5829 140.832 86.7003C141.234 87.813 141.436 89.1553 141.436 90.7273C141.436 92.3087 141.237 93.6581 140.839 94.7756C140.441 95.8883 139.866 96.7382 139.113 97.3253C138.36 97.9077 137.449 98.1989 136.379 98.1989ZM136.379 96.6364C137.44 96.6364 138.263 96.125 138.85 95.1023C139.438 94.0795 139.731 92.6212 139.731 90.7273C139.731 89.4678 139.596 88.3954 139.326 87.5099C139.061 86.6245 138.678 85.9498 138.176 85.4858C137.679 85.0218 137.08 84.7898 136.379 84.7898C135.328 84.7898 134.506 85.3082 133.914 86.3452C133.323 87.3774 133.027 88.8381 133.027 90.7273C133.027 91.9867 133.159 93.0568 133.424 93.9375C133.69 94.8182 134.071 95.4882 134.568 95.9474C135.07 96.4067 135.673 96.6364 136.379 96.6364ZM148.879 98.1989C147.809 98.1989 146.897 97.9077 146.145 97.3253C145.392 96.7382 144.816 95.8883 144.419 94.7756C144.021 93.6581 143.822 92.3087 143.822 90.7273C143.822 89.1553 144.021 87.813 144.419 86.7003C144.821 85.5829 145.399 84.7306 146.152 84.1435C146.909 83.5516 147.818 83.2557 148.879 83.2557C149.94 83.2557 150.846 83.5516 151.599 84.1435C152.357 84.7306 152.934 85.5829 153.332 86.7003C153.734 87.813 153.936 89.1553 153.936 90.7273C153.936 92.3087 153.737 93.6581 153.339 94.7756C152.941 95.8883 152.366 96.7382 151.613 97.3253C150.86 97.9077 149.949 98.1989 148.879 98.1989ZM148.879 96.6364C149.94 96.6364 150.763 96.125 151.35 95.1023C151.938 94.0795 152.231 92.6212 152.231 90.7273C152.231 89.4678 152.096 88.3954 151.826 87.5099C151.561 86.6245 151.178 85.9498 150.676 85.4858C150.179 85.0218 149.58 84.7898 148.879 84.7898C147.828 84.7898 147.006 85.3082 146.414 86.3452C145.823 87.3774 145.527 88.8381 145.527 90.7273C145.527 91.9867 145.659 93.0568 145.924 93.9375C146.19 94.8182 146.571 95.4882 147.068 95.9474C147.57 96.4067 148.173 96.6364 148.879 96.6364Z" fill="white"/>
<circle cx="30" cy="28" r="12" fill="#85FF72"/>
<rect x="1" y="1" width="455" height="185" rx="13" stroke="#6041FF" stroke-width="2"/>
</svg>
