<svg width="457" height="213" viewBox="0 0 457 213" fill="none" xmlns="http://www.w3.org/2000/svg">
<rect x="1" y="1" width="455" height="211" rx="13" fill="white"/>
<path d="M98.912 182.108H101.04V196.924H98.912V182.108ZM96.048 187.788H99.936V189.516H96.048V187.788ZM94.048 183.644H96.144C96.144 188.14 94.72 191.804 89.584 194.38L88.464 192.716C92.656 190.636 94.048 187.948 94.048 184.028V183.644ZM89.168 183.644H95.168V185.324H89.168V183.644ZM111.375 185.132H115.039V186.812H111.375V185.132ZM106.719 183.356H108.447V184.172C108.447 186.668 107.071 189.132 104.239 189.964L103.231 188.316C105.615 187.548 106.719 185.756 106.719 184.172V183.356ZM107.151 183.356H108.879V184.172C108.879 185.724 109.887 187.324 112.191 187.996L111.215 189.66C108.447 188.86 107.151 186.636 107.151 184.172V183.356ZM103.791 182.652H111.759V184.348H103.791V182.652ZM113.631 182.108H115.759V189.628H113.631V182.108ZM105.967 190.22H115.759V194.236H108.095V196.092H105.983V192.7H113.647V191.868H105.967V190.22ZM105.983 195.132H116.175V196.78H105.983V195.132ZM127.582 182.108H129.694V196.924H127.582V182.108ZM129.214 187.884H131.838V189.66H129.214V187.884ZM118.014 184.3H126.638V185.996H118.014V184.3ZM122.35 186.828C124.51 186.828 126.11 188.3 126.11 190.364C126.11 192.428 124.51 193.9 122.35 193.9C120.19 193.9 118.59 192.428 118.59 190.364C118.59 188.3 120.19 186.828 122.35 186.828ZM122.35 188.556C121.342 188.556 120.622 189.228 120.622 190.364C120.622 191.5 121.342 192.172 122.35 192.172C123.358 192.172 124.078 191.5 124.078 190.364C124.078 189.228 123.358 188.556 122.35 188.556ZM121.278 182.348H123.406V184.94H121.278V182.348ZM143.004 182.108H145.148V196.924H143.004V182.108ZM138.636 183.644H140.748C140.748 188.172 139.212 191.884 133.948 194.428L132.844 192.732C137.1 190.684 138.636 187.996 138.636 184.028V183.644ZM133.628 183.644H139.644V185.324H133.628V183.644Z" fill="black"/>
<path d="M313.224 182.54H315.096V183.228C315.096 186.076 312.856 188.492 308.968 189.068L308.136 187.356C311.544 186.908 313.224 184.972 313.224 183.228V182.54ZM313.624 182.54H315.48V183.228C315.48 184.956 317.176 186.908 320.568 187.356L319.752 189.068C315.864 188.492 313.624 186.076 313.624 183.228V182.54ZM313.24 191.5H315.352V196.924H313.24V191.5ZM307.656 190.156H321.048V191.884H307.656V190.156ZM322.887 188.876H324.135C327.047 188.876 328.839 188.812 330.887 188.428L331.079 190.124C328.999 190.524 327.127 190.604 324.135 190.604H322.887V188.876ZM322.871 182.924H329.639V187.484H324.999V189.692H322.887V185.9H327.543V184.62H322.871V182.924ZM331.895 182.124H334.023V191.116H331.895V182.124ZM333.415 185.644H335.991V187.388H333.415V185.644ZM324.135 191.788H334.023V196.924H331.895V193.484H324.135V191.788ZM346.582 182.108H348.694V196.924H346.582V182.108ZM348.214 187.884H350.838V189.66H348.214V187.884ZM337.014 184.3H345.638V185.996H337.014V184.3ZM341.35 186.828C343.51 186.828 345.11 188.3 345.11 190.364C345.11 192.428 343.51 193.9 341.35 193.9C339.19 193.9 337.59 192.428 337.59 190.364C337.59 188.3 339.19 186.828 341.35 186.828ZM341.35 188.556C340.342 188.556 339.622 189.228 339.622 190.364C339.622 191.5 340.342 192.172 341.35 192.172C342.358 192.172 343.078 191.5 343.078 190.364C343.078 189.228 342.358 188.556 341.35 188.556ZM340.278 182.348H342.406V184.94H340.278V182.348ZM362.004 182.108H364.148V196.924H362.004V182.108ZM357.636 183.644H359.748C359.748 188.172 358.212 191.884 352.948 194.428L351.844 192.732C356.1 190.684 357.636 187.996 357.636 184.028V183.644ZM352.628 183.644H358.644V185.324H352.628V183.644Z" fill="black"/>
<line y1="166" x2="455" y2="166" stroke="#6041FF" stroke-width="2"/>
<line x1="228" y1="166" x2="228" y2="213" stroke="#6041FF" stroke-width="2"/>
<rect x="1" y="1" width="455" height="211" rx="13" stroke="#6041FF" stroke-width="2"/>
</svg>
