<svg width="382" height="184" viewBox="0 0 382 184" fill="none" xmlns="http://www.w3.org/2000/svg">
<rect width="382" height="184" rx="16" fill="#E2DBFF"/>
<mask id="mask0_496_468" style="mask-type:alpha" maskUnits="userSpaceOnUse" x="16" y="16" width="20" height="20">
<rect x="16" y="16" width="20" height="20" fill="#D9D9D9"/>
</mask>
<g mask="url(#mask0_496_468)">
<path d="M19.115 34.3346C18.6805 34.3346 18.3086 34.1714 17.9992 33.8451C17.6898 33.5187 17.5352 33.1263 17.5352 32.668V21.0013C17.5352 20.543 17.6898 20.1506 17.9992 19.8242C18.3086 19.4978 18.6805 19.3346 19.115 19.3346H19.9049V17.668H21.4847V19.3346H27.804V17.668H29.3838V19.3346H30.1737C30.6082 19.3346 30.9801 19.4978 31.2894 19.8242C31.5988 20.1506 31.7535 20.543 31.7535 21.0013V32.668C31.7535 33.1263 31.5988 33.5187 31.2894 33.8451C30.9801 34.1714 30.6082 34.3346 30.1737 34.3346H19.115ZM19.115 32.668H30.1737V24.3346H19.115V32.668ZM19.115 22.668H30.1737V21.0013H19.115V22.668ZM24.6443 27.668C24.4205 27.668 24.2329 27.5881 24.0815 27.4284C23.9301 27.2687 23.8544 27.0707 23.8544 26.8346C23.8544 26.5985 23.9301 26.4006 24.0815 26.2409C24.2329 26.0812 24.4205 26.0013 24.6443 26.0013C24.8681 26.0013 25.0557 26.0812 25.2071 26.2409C25.3585 26.4006 25.4342 26.5985 25.4342 26.8346C25.4342 27.0707 25.3585 27.2687 25.2071 27.4284C25.0557 27.5881 24.8681 27.668 24.6443 27.668ZM21.4847 27.668C21.2609 27.668 21.0733 27.5881 20.9219 27.4284C20.7705 27.2687 20.6948 27.0707 20.6948 26.8346C20.6948 26.5985 20.7705 26.4006 20.9219 26.2409C21.0733 26.0812 21.2609 26.0013 21.4847 26.0013C21.7085 26.0013 21.8961 26.0812 22.0475 26.2409C22.1989 26.4006 22.2746 26.5985 22.2746 26.8346C22.2746 27.0707 22.1989 27.2687 22.0475 27.4284C21.8961 27.5881 21.7085 27.668 21.4847 27.668ZM27.804 27.668C27.5802 27.668 27.3926 27.5881 27.2412 27.4284C27.0898 27.2687 27.0141 27.0707 27.0141 26.8346C27.0141 26.5985 27.0898 26.4006 27.2412 26.2409C27.3926 26.0812 27.5802 26.0013 27.804 26.0013C28.0278 26.0013 28.2154 26.0812 28.3668 26.2409C28.5182 26.4006 28.5939 26.5985 28.5939 26.8346C28.5939 27.0707 28.5182 27.2687 28.3668 27.4284C28.2154 27.5881 28.0278 27.668 27.804 27.668ZM24.6443 31.0013C24.4205 31.0013 24.2329 30.9214 24.0815 30.7617C23.9301 30.602 23.8544 30.4041 23.8544 30.168C23.8544 29.9319 23.9301 29.7339 24.0815 29.5742C24.2329 29.4145 24.4205 29.3346 24.6443 29.3346C24.8681 29.3346 25.0557 29.4145 25.2071 29.5742C25.3585 29.7339 25.4342 29.9319 25.4342 30.168C25.4342 30.4041 25.3585 30.602 25.2071 30.7617C25.0557 30.9214 24.8681 31.0013 24.6443 31.0013ZM21.4847 31.0013C21.2609 31.0013 21.0733 30.9214 20.9219 30.7617C20.7705 30.602 20.6948 30.4041 20.6948 30.168C20.6948 29.9319 20.7705 29.7339 20.9219 29.5742C21.0733 29.4145 21.2609 29.3346 21.4847 29.3346C21.7085 29.3346 21.8961 29.4145 22.0475 29.5742C22.1989 29.7339 22.2746 29.9319 22.2746 30.168C22.2746 30.4041 22.1989 30.602 22.0475 30.7617C21.8961 30.9214 21.7085 31.0013 21.4847 31.0013ZM27.804 31.0013C27.5802 31.0013 27.3926 30.9214 27.2412 30.7617C27.0898 30.602 27.0141 30.4041 27.0141 30.168C27.0141 29.9319 27.0898 29.7339 27.2412 29.5742C27.3926 29.4145 27.5802 29.3346 27.804 29.3346C28.0278 29.3346 28.2154 29.4145 28.3668 29.5742C28.5182 29.7339 28.5939 29.9319 28.5939 30.168C28.5939 30.4041 28.5182 30.602 28.3668 30.7617C28.2154 30.9214 28.0278 31.0013 27.804 31.0013Z" fill="#1C1B1F"/>
</g>
<mask id="mask1_496_468" style="mask-type:alpha" maskUnits="userSpaceOnUse" x="14" y="147" width="24" height="24">
<rect x="14" y="147" width="24" height="24" fill="#D9D9D9"/>
</mask>
<g mask="url(#mask1_496_468)">
<path d="M13.2695 165V163.425C13.2695 162.708 13.6171 162.125 14.3122 161.675C15.0073 161.225 15.9236 161 17.0611 161C17.2665 161 17.4639 161.004 17.6535 161.012C17.8431 161.021 18.0248 161.042 18.1986 161.075C17.9774 161.425 17.8115 161.792 17.7009 162.175C17.5903 162.558 17.535 162.958 17.535 163.375V165H13.2695ZM18.9569 165V163.375C18.9569 162.842 19.0951 162.354 19.3716 161.913C19.648 161.471 20.0391 161.083 20.5446 160.75C21.0501 160.417 21.6544 160.167 22.3574 160C23.0605 159.833 23.8227 159.75 24.6442 159.75C25.4815 159.75 26.2517 159.833 26.9547 160C27.6577 160.167 28.262 160.417 28.7675 160.75C29.2731 161.083 29.6601 161.471 29.9287 161.913C30.1973 162.354 30.3316 162.842 30.3316 163.375V165H18.9569ZM31.7534 165V163.375C31.7534 162.942 31.7021 162.533 31.5994 162.15C31.4967 161.767 31.3426 161.408 31.1373 161.075C31.3111 161.042 31.4888 161.021 31.6705 161.012C31.8521 161.004 32.0378 161 32.2273 161C33.3648 161 34.2811 161.221 34.9762 161.663C35.6714 162.104 36.0189 162.692 36.0189 163.425V165H31.7534ZM20.9711 163H28.341C28.183 162.667 27.7446 162.375 27.0258 162.125C26.307 161.875 25.5131 161.75 24.6442 161.75C23.7753 161.75 22.9815 161.875 22.2626 162.125C21.5438 162.375 21.1133 162.667 20.9711 163ZM17.0611 160C16.5398 160 16.0935 159.804 15.7222 159.412C15.3509 159.021 15.1653 158.55 15.1653 158C15.1653 157.433 15.3509 156.958 15.7222 156.575C16.0935 156.192 16.5398 156 17.0611 156C17.5982 156 18.0485 156.192 18.4118 156.575C18.7752 156.958 18.9569 157.433 18.9569 158C18.9569 158.55 18.7752 159.021 18.4118 159.412C18.0485 159.804 17.5982 160 17.0611 160ZM32.2273 160C31.706 160 31.2597 159.804 30.8885 159.412C30.5172 159.021 30.3316 158.55 30.3316 158C30.3316 157.433 30.5172 156.958 30.8885 156.575C31.2597 156.192 31.706 156 32.2273 156C32.7645 156 33.2147 156.192 33.5781 156.575C33.9415 156.958 34.1231 157.433 34.1231 158C34.1231 158.55 33.9415 159.021 33.5781 159.412C33.2147 159.804 32.7645 160 32.2273 160ZM24.6442 159C23.8543 159 23.1829 158.708 22.63 158.125C22.077 157.542 21.8005 156.833 21.8005 156C21.8005 155.15 22.077 154.438 22.63 153.863C23.1829 153.288 23.8543 153 24.6442 153C25.4499 153 26.1253 153.288 26.6703 153.863C27.2154 154.438 27.4879 155.15 27.4879 156C27.4879 156.833 27.2154 157.542 26.6703 158.125C26.1253 158.708 25.4499 159 24.6442 159ZM24.6442 157C24.9128 157 25.1379 156.904 25.3196 156.713C25.5013 156.521 25.5921 156.283 25.5921 156C25.5921 155.717 25.5013 155.479 25.3196 155.288C25.1379 155.096 24.9128 155 24.6442 155C24.3757 155 24.1505 155.096 23.9688 155.288C23.7872 155.479 23.6963 155.717 23.6963 156C23.6963 156.283 23.7872 156.521 23.9688 156.713C24.1505 156.904 24.3757 157 24.6442 157Z" fill="#1C1B1F"/>
</g>
<mask id="mask2_496_468" style="mask-type:alpha" maskUnits="userSpaceOnUse" x="14" y="92" width="24" height="24">
<rect x="14" y="92" width="24" height="24" fill="#D9D9D9"/>
</mask>
<g mask="url(#mask2_496_468)">
<path d="M24.6456 104C25.167 104 25.6133 103.804 25.9845 103.413C26.3558 103.021 26.5414 102.55 26.5414 102C26.5414 101.45 26.3558 100.979 25.9845 100.588C25.6133 100.196 25.167 100 24.6456 100C24.1243 100 23.678 100.196 23.3067 100.588C22.9355 100.979 22.7498 101.45 22.7498 102C22.7498 102.55 22.9355 103.021 23.3067 103.413C23.678 103.804 24.1243 104 24.6456 104ZM24.6456 111.35C26.573 109.483 28.0027 107.787 28.9348 106.262C29.8669 104.737 30.333 103.383 30.333 102.2C30.333 100.383 29.784 98.8958 28.686 97.7375C27.588 96.5792 26.2412 96 24.6456 96C23.05 96 21.7032 96.5792 20.6052 97.7375C19.5073 98.8958 18.9583 100.383 18.9583 102.2C18.9583 103.383 19.4243 104.737 20.3564 106.262C21.2885 107.787 22.7182 109.483 24.6456 111.35ZM24.6456 114C22.1021 111.717 20.2024 109.596 18.9464 107.637C17.6905 105.679 17.0625 103.867 17.0625 102.2C17.0625 99.7 17.8248 97.7083 19.3493 96.225C20.8738 94.7417 22.6393 94 24.6456 94C26.652 94 28.4174 94.7417 29.942 96.225C31.4665 97.7083 32.2288 99.7 32.2288 102.2C32.2288 103.867 31.6008 105.679 30.3448 107.637C29.0889 109.596 27.1891 111.717 24.6456 114Z" fill="#1C1B1F"/>
</g>
<mask id="mask3_496_468" style="mask-type:alpha" maskUnits="userSpaceOnUse" x="16" y="55" width="20" height="20">
<rect x="16" y="55" width="20" height="20" fill="#D9D9D9"/>
</mask>
<g mask="url(#mask3_496_468)">
<path d="M27.2519 68.918L28.3578 67.7513L25.4351 64.668V60.8346H23.8553V65.3346L27.2519 68.918ZM24.6452 73.3346C23.5525 73.3346 22.5256 73.1159 21.5645 72.6784C20.6035 72.2409 19.7675 71.6471 19.0566 70.8971C18.3457 70.1471 17.7828 69.2652 17.3681 68.2513C16.9534 67.2374 16.7461 66.1541 16.7461 65.0013C16.7461 63.8485 16.9534 62.7652 17.3681 61.7513C17.7828 60.7374 18.3457 59.8555 19.0566 59.1055C19.7675 58.3555 20.6035 57.7617 21.5645 57.3242C22.5256 56.8867 23.5525 56.668 24.6452 56.668C25.7379 56.668 26.7648 56.8867 27.7258 57.3242C28.6869 57.7617 29.5229 58.3555 30.2338 59.1055C30.9447 59.8555 31.5075 60.7374 31.9222 61.7513C32.3369 62.7652 32.5443 63.8485 32.5443 65.0013C32.5443 66.1541 32.3369 67.2374 31.9222 68.2513C31.5075 69.2652 30.9447 70.1471 30.2338 70.8971C29.5229 71.6471 28.6869 72.2409 27.7258 72.6784C26.7648 73.1159 25.7379 73.3346 24.6452 73.3346ZM24.6452 71.668C26.3961 71.668 27.8871 71.0187 29.118 69.7201C30.349 68.4214 30.9645 66.8485 30.9645 65.0013C30.9645 63.1541 30.349 61.5812 29.118 60.2826C27.8871 58.9839 26.3961 58.3346 24.6452 58.3346C22.8942 58.3346 21.4033 58.9839 20.1723 60.2826C18.9414 61.5812 18.3259 63.1541 18.3259 65.0013C18.3259 66.8485 18.9414 68.4214 20.1723 69.7201C21.4033 71.0187 22.8942 71.668 24.6452 71.668Z" fill="#1C1B1F"/>
</g>
</svg>
