<svg width="480" height="591" viewBox="0 0 480 591" fill="none" xmlns="http://www.w3.org/2000/svg">
<rect x="132" y="558" width="489" height="1" transform="rotate(-90 132 558)" fill="#999999" fill-opacity="0.6"/>
<rect x="212" y="558" width="489" height="1" transform="rotate(-90 212 558)" fill="#999999" fill-opacity="0.6"/>
<rect x="292" y="558" width="489" height="1" transform="rotate(-90 292 558)" fill="#999999" fill-opacity="0.6"/>
<rect x="372" y="558" width="489" height="1" transform="rotate(-90 372 558)" fill="#999999" fill-opacity="0.6"/>
<path d="M88.3722 59L92.9261 49.9915V49.9119H87.6761V48.8182H94.1989V49.9716L89.6648 59H88.3722ZM95.177 59.0795C94.9318 59.0795 94.7213 58.9917 94.5456 58.8161C94.37 58.6404 94.2821 58.4299 94.2821 58.1847C94.2821 57.9394 94.37 57.7289 94.5456 57.5533C94.7213 57.3776 94.9318 57.2898 95.177 57.2898C95.4223 57.2898 95.6328 57.3776 95.8084 57.5533C95.9841 57.7289 96.0719 57.9394 96.0719 58.1847C96.0719 58.3471 96.0305 58.4962 95.9476 58.6321C95.8681 58.768 95.7604 58.8774 95.6245 58.9602C95.4919 59.0398 95.3427 59.0795 95.177 59.0795ZM100.52 48.8182V59H99.2873V50.1108H99.2276L96.7418 51.7614V50.5085L99.2873 48.8182H100.52Z" fill="black"/>
<path d="M164.372 59L168.926 49.9915V49.9119H163.676V48.8182H170.199V49.9716L165.665 59H164.372ZM171.177 59.0795C170.932 59.0795 170.721 58.9917 170.546 58.8161C170.37 58.6404 170.282 58.4299 170.282 58.1847C170.282 57.9394 170.37 57.7289 170.546 57.5533C170.721 57.3776 170.932 57.2898 171.177 57.2898C171.422 57.2898 171.633 57.3776 171.808 57.5533C171.984 57.7289 172.072 57.9394 172.072 58.1847C172.072 58.3471 172.03 58.4962 171.948 58.6321C171.868 58.768 171.76 58.8774 171.624 58.9602C171.492 59.0398 171.343 59.0795 171.177 59.0795ZM174.157 59V58.1051L177.518 54.4261C177.913 53.9953 178.238 53.6207 178.493 53.3026C178.748 52.9811 178.937 52.6795 179.059 52.3977C179.185 52.1127 179.248 51.8144 179.248 51.5028C179.248 51.1449 179.162 50.835 178.99 50.5732C178.821 50.3113 178.589 50.1091 178.294 49.9666C177.999 49.8241 177.667 49.7528 177.3 49.7528C176.908 49.7528 176.567 49.834 176.275 49.9964C175.987 50.1555 175.763 50.3793 175.604 50.6676C175.448 50.956 175.371 51.294 175.371 51.6818H174.197C174.197 51.0852 174.335 50.5616 174.61 50.1108C174.885 49.66 175.26 49.3087 175.733 49.0568C176.211 48.8049 176.746 48.679 177.339 48.679C177.936 48.679 178.465 48.8049 178.925 49.0568C179.386 49.3087 179.747 49.6484 180.009 50.076C180.271 50.5036 180.402 50.9792 180.402 51.5028C180.402 51.8774 180.334 52.2436 180.198 52.6016C180.065 52.9562 179.833 53.3523 179.502 53.7898C179.174 54.224 178.718 54.7543 178.135 55.3807L175.848 57.8267V57.9062H180.581V59H174.157Z" fill="black"/>
<path d="M240.372 59L244.926 49.9915V49.9119H239.676V48.8182H246.199V49.9716L241.665 59H240.372ZM247.177 59.0795C246.932 59.0795 246.721 58.9917 246.546 58.8161C246.37 58.6404 246.282 58.4299 246.282 58.1847C246.282 57.9394 246.37 57.7289 246.546 57.5533C246.721 57.3776 246.932 57.2898 247.177 57.2898C247.422 57.2898 247.633 57.3776 247.808 57.5533C247.984 57.7289 248.072 57.9394 248.072 58.1847C248.072 58.3471 248.03 58.4962 247.948 58.6321C247.868 58.768 247.76 58.8774 247.624 58.9602C247.492 59.0398 247.343 59.0795 247.177 59.0795ZM253.215 59.1392C252.559 59.1392 251.974 59.0265 251.46 58.8011C250.95 58.5758 250.544 58.2625 250.242 57.8615C249.944 57.4571 249.781 56.9882 249.755 56.4545H251.008C251.034 56.7827 251.147 57.0661 251.346 57.3047C251.545 57.54 251.805 57.7223 252.126 57.8516C252.448 57.9808 252.804 58.0455 253.195 58.0455C253.633 58.0455 254.02 57.9692 254.358 57.8168C254.697 57.6643 254.962 57.4522 255.154 57.1804C255.346 56.9086 255.442 56.5938 255.442 56.2358C255.442 55.8613 255.349 55.5315 255.164 55.2464C254.978 54.9581 254.706 54.7327 254.349 54.5703C253.991 54.4079 253.553 54.3267 253.036 54.3267H252.221V53.233H253.036C253.44 53.233 253.795 53.16 254.1 53.0142C254.408 52.8684 254.648 52.6629 254.821 52.3977C254.997 52.1326 255.084 51.821 255.084 51.4631C255.084 51.1184 255.008 50.8184 254.856 50.5632C254.703 50.308 254.488 50.1091 254.209 49.9666C253.934 49.8241 253.609 49.7528 253.235 49.7528C252.884 49.7528 252.552 49.8175 252.241 49.9467C251.932 50.0727 251.68 50.2566 251.485 50.4986C251.289 50.7372 251.183 51.0256 251.167 51.3636H249.974C249.993 50.83 250.154 50.3627 250.456 49.9616C250.757 49.5573 251.152 49.2424 251.639 49.017C252.13 48.7917 252.668 48.679 253.255 48.679C253.885 48.679 254.425 48.8066 254.876 49.0618C255.326 49.3137 255.673 49.6468 255.915 50.0611C256.157 50.4754 256.278 50.9228 256.278 51.4034C256.278 51.9768 256.127 52.4657 255.825 52.87C255.527 53.2744 255.121 53.5545 254.607 53.7102V53.7898C255.25 53.8958 255.752 54.1693 256.113 54.6101C256.475 55.0476 256.655 55.5895 256.655 56.2358C256.655 56.7893 256.505 57.2865 256.203 57.7273C255.905 58.1648 255.497 58.5095 254.98 58.7614C254.463 59.0133 253.875 59.1392 253.215 59.1392Z" fill="black"/>
<path d="M317.372 59L321.926 49.9915V49.9119H316.676V48.8182H323.199V49.9716L318.665 59H317.372ZM324.177 59.0795C323.932 59.0795 323.721 58.9917 323.546 58.8161C323.37 58.6404 323.282 58.4299 323.282 58.1847C323.282 57.9394 323.37 57.7289 323.546 57.5533C323.721 57.3776 323.932 57.2898 324.177 57.2898C324.422 57.2898 324.633 57.3776 324.808 57.5533C324.984 57.7289 325.072 57.9394 325.072 58.1847C325.072 58.3471 325.03 58.4962 324.948 58.6321C324.868 58.768 324.76 58.8774 324.624 58.9602C324.492 59.0398 324.343 59.0795 324.177 59.0795ZM326.919 56.9119V55.8977L331.393 48.8182H332.129V50.3892H331.632L328.251 55.7386V55.8182H334.277V56.9119H326.919ZM331.711 59V56.6037V56.1314V48.8182H332.885V59H331.711Z" fill="black"/>
<path d="M395.372 59L399.926 49.9915V49.9119H394.676V48.8182H401.199V49.9716L396.665 59H395.372ZM402.177 59.0795C401.932 59.0795 401.721 58.9917 401.546 58.8161C401.37 58.6404 401.282 58.4299 401.282 58.1847C401.282 57.9394 401.37 57.7289 401.546 57.5533C401.721 57.3776 401.932 57.2898 402.177 57.2898C402.422 57.2898 402.633 57.3776 402.808 57.5533C402.984 57.7289 403.072 57.9394 403.072 58.1847C403.072 58.3471 403.03 58.4962 402.948 58.6321C402.868 58.768 402.76 58.8774 402.624 58.9602C402.492 59.0398 402.343 59.0795 402.177 59.0795ZM408.134 59.1392C407.551 59.1392 407.026 59.0232 406.558 58.7912C406.091 58.5592 405.716 58.241 405.435 57.8366C405.153 57.4323 404.999 56.9716 404.972 56.4545H406.165C406.212 56.9152 406.421 57.2964 406.792 57.598C407.166 57.8963 407.614 58.0455 408.134 58.0455C408.552 58.0455 408.923 57.9477 409.248 57.7521C409.576 57.5566 409.833 57.2881 410.018 56.9467C410.207 56.602 410.302 56.2126 410.302 55.7784C410.302 55.3343 410.204 54.9382 410.009 54.5902C409.816 54.2389 409.551 53.9621 409.213 53.7599C408.875 53.5578 408.489 53.455 408.055 53.4517C407.743 53.4484 407.423 53.4964 407.095 53.5959C406.767 53.692 406.497 53.8163 406.285 53.9688L405.131 53.8295L405.748 48.8182H411.038V49.9119H406.782L406.424 52.9148H406.484C406.692 52.7491 406.954 52.6115 407.269 52.5021C407.584 52.3928 407.912 52.3381 408.254 52.3381C408.877 52.3381 409.432 52.4872 409.919 52.7855C410.41 53.0805 410.794 53.4848 411.072 53.9986C411.354 54.5123 411.495 55.099 411.495 55.7585C411.495 56.4081 411.349 56.9882 411.058 57.4986C410.769 58.0057 410.371 58.4067 409.864 58.7017C409.357 58.9934 408.781 59.1392 408.134 59.1392Z" fill="black"/>
<path d="M37.4414 72.832C38.7402 72.8418 40.1025 73.623 40.1074 76.2109C40.1074 78.6914 39.0381 80.0977 37.3438 80.0977C36.04 80.0977 35.1318 79.292 34.9609 78.1445H36.0254C36.1719 78.7402 36.6309 79.1553 37.3438 79.1602C38.4326 79.1553 39.0723 78.208 39.082 76.5918H38.9941C38.6133 77.1875 37.9492 77.5488 37.1875 77.5488C35.918 77.5488 34.9023 76.5771 34.9023 75.2246C34.9023 73.877 35.9033 72.8223 37.4414 72.832ZM35.9473 75.2051C35.9521 76.0254 36.5625 76.6748 37.4219 76.6699C38.2764 76.6748 38.9355 75.9766 38.9355 75.1953C38.9355 74.4287 38.3057 73.7305 37.4414 73.7305C36.5869 73.7305 35.9424 74.3945 35.9473 75.2051ZM35.4834 108.93V116H34.3994V110.004H34.3604L32.6709 111.107V110.082L34.4287 108.93H35.4834ZM39.7412 116.098C38.1055 116.098 37.1436 114.779 37.1436 112.465C37.1436 110.165 38.1152 108.832 39.7412 108.832C41.3623 108.832 42.334 110.165 42.3389 112.465C42.334 114.779 41.377 116.098 39.7412 116.098ZM38.2178 112.465C38.2129 114.228 38.7842 115.17 39.7412 115.17C40.6934 115.17 41.2646 114.228 41.2646 112.465C41.2646 110.707 40.6885 109.745 39.7412 109.74C38.7891 109.745 38.2178 110.707 38.2178 112.465ZM36.3281 144.93V152H35.2441V146.004H35.2051L33.5156 147.107V146.082L35.2734 144.93H36.3281ZM40.8105 144.93V152H39.7266V146.004H39.6875L37.998 147.107V146.082L39.7559 144.93H40.8105ZM35.5957 180.93V188H34.5117V182.004H34.4727L32.7832 183.107V182.082L34.541 180.93H35.5957ZM37.3926 188V187.219L39.8438 184.748C40.6201 183.942 41.0059 183.493 41.0059 182.873C41.0059 182.175 40.4395 181.73 39.6973 181.73C38.9111 181.73 38.4131 182.229 38.4082 182.98H37.3926C37.3828 181.687 38.3691 180.832 39.7168 180.832C41.0791 180.832 42.0215 181.696 42.0312 182.844C42.0215 183.635 41.6504 184.265 40.3223 185.568L38.8867 187.023V187.082H42.1484V188H37.3926ZM35.4492 216.93V224H34.3652V218.004H34.3262L32.6367 219.107V218.082L34.3945 216.93H35.4492ZM39.7559 224.098C38.291 224.098 37.251 223.312 37.207 222.154H38.3008C38.3398 222.774 38.9551 223.17 39.7461 223.17C40.6006 223.17 41.2207 222.706 41.2207 222.018C41.2207 221.319 40.6396 220.821 39.6289 220.816H39.0234V219.938H39.6289C40.4346 219.942 40.9961 219.493 40.9961 218.814C40.9961 218.17 40.5127 217.73 39.7656 217.73C39.0576 217.73 38.4229 218.126 38.3984 218.766H37.3633C37.3926 217.613 38.457 216.832 39.7754 216.832C41.167 216.832 42.041 217.711 42.0312 218.756C42.041 219.562 41.543 220.138 40.7812 220.328V220.377C41.748 220.514 42.3096 221.163 42.3047 222.057C42.3096 223.233 41.2207 224.098 39.7559 224.098ZM35.3955 252.93V260H34.3115V254.004H34.2725L32.583 255.107V254.082L34.3408 252.93H35.3955ZM37.0361 258.623V257.754L40.1611 252.93H41.4893V257.715H42.4561V258.623H41.4893V260H40.4736V258.623H37.0361ZM38.1689 257.715H40.4736V254.209H40.3955L38.1689 257.656V257.715ZM35.5371 288.93V296H34.4531V290.004H34.4141L32.7246 291.107V290.082L34.4824 288.93H35.5371ZM39.7363 296.098C38.3984 296.098 37.3926 295.282 37.3438 294.154H38.3887C38.4473 294.755 39.0234 295.194 39.7363 295.199C40.5957 295.194 41.2109 294.574 41.2109 293.734C41.2109 292.875 40.5762 292.25 39.6875 292.24C39.1211 292.24 38.6865 292.431 38.4473 292.865H37.4316L37.8906 288.93H41.8945V289.848H38.7793L38.5449 291.83H38.6133C38.9062 291.547 39.4043 291.356 39.9414 291.352C41.2744 291.356 42.2559 292.343 42.2559 293.705C42.2559 295.097 41.2109 296.098 39.7363 296.098ZM35.4541 324.93V332H34.3701V326.004H34.3311L32.6416 327.107V326.082L34.3994 324.93H35.4541ZM39.8096 332.098C38.501 332.088 37.1338 331.312 37.1338 328.699C37.1387 326.238 38.2031 324.832 39.8975 324.832C41.2012 324.832 42.1045 325.643 42.2705 326.766H41.2061C41.0645 326.189 40.6104 325.774 39.8975 325.77C38.8037 325.774 38.1689 326.722 38.1689 328.318H38.2471C38.6328 327.718 39.2969 327.366 40.0635 327.361C41.3232 327.366 42.3389 328.333 42.3389 329.686C42.3389 331.058 41.3281 332.107 39.8096 332.098ZM38.2959 329.715C38.3008 330.501 38.9307 331.194 39.7998 331.199C40.6543 331.194 41.2939 330.53 41.2939 329.705C41.2939 328.895 40.6787 328.235 39.8291 328.24C38.9648 328.235 38.3057 328.929 38.2959 329.715ZM35.7715 360.93V368H34.6875V362.004H34.6484L32.959 363.107V362.082L34.7168 360.93H35.7715ZM37.8125 368L40.9668 361.906V361.848H37.3242V360.93H42.0801V361.887L38.9355 368H37.8125ZM35.4785 396.93V404H34.3945V398.004H34.3555L32.666 399.107V398.082L34.4238 396.93H35.4785ZM39.7461 404.098C38.208 404.098 37.1387 403.268 37.1484 402.115C37.1387 401.207 37.7881 400.465 38.623 400.338V400.299C37.8955 400.133 37.4121 399.488 37.4121 398.717C37.4121 397.628 38.3936 396.832 39.7461 396.832C41.0791 396.832 42.0654 397.628 42.0703 398.717C42.0654 399.488 41.5723 400.133 40.8594 400.299V400.338C41.6846 400.465 42.3389 401.207 42.3438 402.115C42.3389 403.268 41.2598 404.098 39.7461 404.098ZM38.2422 402.037C38.2275 402.73 38.8135 403.209 39.7461 403.209C40.6641 403.209 41.25 402.73 41.25 402.037C41.25 401.31 40.6152 400.777 39.7461 400.777C38.8672 400.777 38.2275 401.31 38.2422 402.037ZM38.457 398.814C38.4619 399.474 38.9893 399.933 39.7461 399.928C40.4834 399.933 41.0205 399.479 41.0156 398.814C41.0205 398.155 40.5029 397.706 39.7461 397.711C38.9697 397.706 38.4619 398.155 38.457 398.814ZM35.4541 432.93V440H34.3701V434.004H34.3311L32.6416 435.107V434.082L34.3994 432.93H35.4541ZM39.6826 432.832C40.9814 432.842 42.3438 433.623 42.3486 436.211C42.3486 438.691 41.2793 440.098 39.585 440.098C38.2812 440.098 37.373 439.292 37.2021 438.145H38.2666C38.4131 438.74 38.8721 439.155 39.585 439.16C40.6738 439.155 41.3135 438.208 41.3232 436.592H41.2354C40.8545 437.188 40.1904 437.549 39.4287 437.549C38.1592 437.549 37.1436 436.577 37.1436 435.225C37.1436 433.877 38.1445 432.822 39.6826 432.832ZM38.1885 435.205C38.1934 436.025 38.8037 436.675 39.6631 436.67C40.5176 436.675 41.1768 435.977 41.1768 435.195C41.1768 434.429 40.5469 433.73 39.6826 433.73C38.8281 433.73 38.1836 434.395 38.1885 435.205ZM32.0654 476V475.219L34.5166 472.748C35.293 471.942 35.6787 471.493 35.6787 470.873C35.6787 470.175 35.1123 469.73 34.3701 469.73C33.584 469.73 33.0859 470.229 33.0811 470.98H32.0654C32.0557 469.687 33.042 468.832 34.3896 468.832C35.752 468.832 36.6943 469.696 36.7041 470.844C36.6943 471.635 36.3232 472.265 34.9951 473.568L33.5596 475.023V475.082H36.8213V476H32.0654ZM40.4736 476.098C38.8379 476.098 37.876 474.779 37.876 472.465C37.876 470.165 38.8477 468.832 40.4736 468.832C42.0947 468.832 43.0664 470.165 43.0713 472.465C43.0664 474.779 42.1094 476.098 40.4736 476.098ZM38.9502 472.465C38.9453 474.228 39.5166 475.17 40.4736 475.17C41.4258 475.17 41.9971 474.228 41.9971 472.465C41.9971 470.707 41.4209 469.745 40.4736 469.74C39.5215 469.745 38.9502 470.707 38.9502 472.465ZM32.9102 512V511.219L35.3613 508.748C36.1377 507.942 36.5234 507.493 36.5234 506.873C36.5234 506.175 35.957 505.73 35.2148 505.73C34.4287 505.73 33.9307 506.229 33.9258 506.98H32.9102C32.9004 505.687 33.8867 504.832 35.2344 504.832C36.5967 504.832 37.5391 505.696 37.5488 506.844C37.5391 507.635 37.168 508.265 35.8398 509.568L34.4043 511.023V511.082H37.666V512H32.9102ZM41.543 504.93V512H40.459V506.004H40.4199L38.7305 507.107V506.082L40.4883 504.93H41.543ZM32.1777 548V547.219L34.6289 544.748C35.4053 543.942 35.791 543.493 35.791 542.873C35.791 542.175 35.2246 541.73 34.4824 541.73C33.6963 541.73 33.1982 542.229 33.1934 542.98H32.1777C32.168 541.687 33.1543 540.832 34.502 540.832C35.8643 540.832 36.8066 541.696 36.8164 542.844C36.8066 543.635 36.4355 544.265 35.1074 545.568L33.6719 547.023V547.082H36.9336V548H32.1777ZM38.125 548V547.219L40.5762 544.748C41.3525 543.942 41.7383 543.493 41.7383 542.873C41.7383 542.175 41.1719 541.73 40.4297 541.73C39.6436 541.73 39.1455 542.229 39.1406 542.98H38.125C38.1152 541.687 39.1016 540.832 40.4492 540.832C41.8115 540.832 42.7539 541.696 42.7637 542.844C42.7539 543.635 42.3828 544.265 41.0547 545.568L39.6191 547.023V547.082H42.8809V548H38.125Z" fill="black"/>
<path d="M91.38 33.22H92.625V35.635H91.38V33.22ZM97.605 27.61H98.85V35.59H97.605V27.61ZM87.855 33.64L87.705 32.71C90.315 32.71 93.63 32.695 96.525 32.365L96.6 33.175C93.63 33.61 90.39 33.64 87.855 33.64ZM89.76 36.085H98.85V38.905H91.005V40.435H89.79V38.08H97.62V36.985H89.76V36.085ZM89.79 40.12H99.3V41.02H89.79V40.12ZM94.905 34.06H97.995V34.87H94.905V34.06ZM92.085 27.865C94.095 27.865 95.415 28.645 95.415 29.905C95.415 31.165 94.095 31.945 92.085 31.945C90.06 31.945 88.74 31.165 88.74 29.905C88.74 28.645 90.06 27.865 92.085 27.865ZM92.085 28.735C90.75 28.735 89.895 29.185 89.895 29.905C89.895 30.625 90.75 31.075 92.085 31.075C93.39 31.075 94.245 30.625 94.245 29.905C94.245 29.185 93.39 28.735 92.085 28.735Z" fill="black"/>
<path d="M168.26 35.695H169.505V37.9H168.26V35.695ZM173.96 27.61H175.205V41.17H173.96V27.61ZM174.8 33.37H177.305V34.42H174.8V33.37ZM164.765 38.59L164.585 37.555C167.015 37.555 170.33 37.525 173.135 37.12L173.24 38.05C170.315 38.575 167.135 38.59 164.765 38.59ZM164.81 29.245H172.925V30.25H164.81V29.245ZM168.875 31.045C170.765 31.045 172.07 32.035 172.07 33.55C172.07 35.08 170.765 36.055 168.875 36.055C166.985 36.055 165.695 35.08 165.695 33.55C165.695 32.035 166.985 31.045 168.875 31.045ZM168.875 32.005C167.66 32.005 166.865 32.62 166.865 33.55C166.865 34.48 167.66 35.095 168.875 35.095C170.09 35.095 170.9 34.48 170.9 33.55C170.9 32.62 170.09 32.005 168.875 32.005ZM168.26 27.625H169.505V29.92H168.26V27.625Z" fill="black"/>
<path d="M247.225 28.09H248.32V28.84C248.32 31.435 245.68 33.295 242.86 33.775L242.365 32.77C244.84 32.395 247.225 30.775 247.225 28.84V28.09ZM247.45 28.09H248.53V28.84C248.53 30.73 250.945 32.395 253.39 32.77L252.895 33.775C250.105 33.295 247.45 31.405 247.45 28.84V28.09ZM247.225 36.01H248.455V41.17H247.225V36.01ZM241.75 35.245H254.005V36.28H241.75V35.245Z" fill="black"/>
<path d="M320.31 28.165H329.43V32.785H320.31V28.165ZM328.2 29.17H321.525V31.78H328.2V29.17ZM318.735 34.48H330.99V35.485H318.735V34.48ZM324.255 32.515H325.485V34.855H324.255V32.515ZM320.1 36.88H329.475V41.17H328.23V37.9H320.1V36.88Z" fill="black"/>
<path d="M397.31 28.315H406.04V29.335H397.31V28.315ZM395.75 33.31H408.035V34.33H395.75V33.31ZM405.23 28.315H406.445V29.32C406.445 30.475 406.445 31.795 405.995 33.67L404.78 33.61C405.23 31.75 405.23 30.445 405.23 29.32V28.315ZM397.25 36.175H406.49V40.99H397.25V36.175ZM405.275 37.165H398.465V39.985H405.275V37.165Z" fill="black"/>
<line x1="28" y1="93.75" x2="453" y2="93.75" stroke="#CDCDCD" stroke-width="0.5"/>
<line x1="28" y1="129.75" x2="453" y2="129.75" stroke="#CDCDCD" stroke-width="0.5"/>
<line x1="28" y1="165.75" x2="453" y2="165.75" stroke="#CDCDCD" stroke-width="0.5"/>
<line x1="28" y1="201.75" x2="453" y2="201.75" stroke="#CDCDCD" stroke-width="0.5"/>
<line x1="28" y1="237.75" x2="453" y2="237.75" stroke="#CDCDCD" stroke-width="0.5"/>
<line x1="28" y1="273.75" x2="453" y2="273.75" stroke="#CDCDCD" stroke-width="0.5"/>
<line x1="28" y1="309.75" x2="453" y2="309.75" stroke="#CDCDCD" stroke-width="0.5"/>
<line x1="28" y1="345.75" x2="453" y2="345.75" stroke="#CDCDCD" stroke-width="0.5"/>
<line x1="28" y1="381.75" x2="453" y2="381.75" stroke="#CDCDCD" stroke-width="0.5"/>
<line x1="28" y1="417.75" x2="453" y2="417.75" stroke="#CDCDCD" stroke-width="0.5"/>
<line x1="28" y1="453.75" x2="453" y2="453.75" stroke="#CDCDCD" stroke-width="0.5"/>
<line x1="28" y1="489.75" x2="453" y2="489.75" stroke="#CDCDCD" stroke-width="0.5"/>
<line x1="28" y1="525.75" x2="453" y2="525.75" stroke="#CDCDCD" stroke-width="0.5"/>
<line x1="28" y1="561.75" x2="453" y2="561.75" stroke="#CDCDCD" stroke-width="0.5"/>
</svg>
