<svg width="352" height="62" viewBox="0 0 352 62" fill="none" xmlns="http://www.w3.org/2000/svg">
<g filter="url(#filter0_d_2462_804)">
<rect x="10" y="9" width="332" height="42" rx="14" fill="white"/>
<path d="M101.988 31.33H103.482V35.38H101.988V31.33ZM102.744 23.194C106.182 23.194 108.648 24.868 108.648 27.46C108.648 30.052 106.182 31.726 102.744 31.726C99.306 31.726 96.822 30.052 96.822 27.46C96.822 24.868 99.306 23.194 102.744 23.194ZM102.744 24.382C100.152 24.382 98.262 25.606 98.262 27.46C98.262 29.314 100.152 30.538 102.744 30.538C105.318 30.538 107.208 29.314 107.208 27.46C107.208 25.606 105.318 24.382 102.744 24.382ZM95.4 35.092H110.142V36.334H95.4V35.092ZM112.715 23.986H125.801V25.192H112.715V23.986ZM111.959 32.68H126.701V33.904H111.959V32.68ZM118.547 33.67H120.041V38.422H118.547V33.67ZM119.303 26.128C122.615 26.128 124.577 27.1 124.577 28.846C124.577 30.574 122.615 31.564 119.303 31.564C115.973 31.564 114.011 30.574 114.011 28.846C114.011 27.1 115.973 26.128 119.303 26.128ZM119.303 27.28C116.927 27.28 115.559 27.838 115.559 28.846C115.559 29.854 116.927 30.412 119.303 30.412C121.679 30.412 123.047 29.854 123.047 28.846C123.047 27.838 121.679 27.28 119.303 27.28ZM118.547 22.042H120.041V24.796H118.547V22.042ZM129.458 30.4545C129.458 28.8523 129.669 27.3778 130.091 26.0312C130.513 24.6847 131.129 23.4425 131.938 22.3047H133.69C133.374 22.7266 133.08 23.2443 132.808 23.858C132.535 24.4716 132.296 25.1449 132.092 25.8778C131.887 26.6065 131.727 27.3629 131.612 28.147C131.497 28.9268 131.44 29.696 131.44 30.4545C131.44 31.4688 131.54 32.4957 131.74 33.5355C131.94 34.5753 132.211 35.5405 132.552 36.4311C132.893 37.3217 133.272 38.0483 133.69 38.6108H131.938C131.129 37.473 130.513 36.2308 130.091 34.8842C129.669 33.5376 129.458 32.0611 129.458 30.4545ZM140.646 23.9091V37H138.664V25.8906H138.588L135.455 27.9361V26.044L138.722 23.9091H140.646ZM144.187 37V35.5682L148.617 30.9787C149.09 30.4801 149.48 30.0433 149.786 29.6683C150.097 29.2891 150.33 28.929 150.483 28.5881C150.637 28.2472 150.713 27.8849 150.713 27.5014C150.713 27.0668 150.611 26.6918 150.406 26.3764C150.202 26.0568 149.923 25.8118 149.569 25.6413C149.215 25.4666 148.817 25.3793 148.374 25.3793C147.905 25.3793 147.496 25.4751 147.146 25.6669C146.797 25.8587 146.529 26.1293 146.341 26.4787C146.154 26.8281 146.06 27.2372 146.06 27.706H144.174C144.174 26.9091 144.357 26.2124 144.724 25.6158C145.09 25.0192 145.593 24.5568 146.232 24.2287C146.872 23.8963 147.598 23.7301 148.412 23.7301C149.235 23.7301 149.959 23.8942 150.585 24.2223C151.216 24.5462 151.708 24.9893 152.062 25.5518C152.416 26.1101 152.593 26.7408 152.593 27.4439C152.593 27.9297 152.501 28.4048 152.318 28.8693C152.139 29.3338 151.825 29.8516 151.378 30.4226C150.931 30.9893 150.308 31.6776 149.512 32.4872L146.91 35.2102V35.3061H152.803V37H144.187ZM156.511 35.3764C156.161 35.3764 155.861 35.2528 155.61 35.0057C155.358 34.7543 155.232 34.4517 155.232 34.098C155.232 33.7486 155.358 33.4503 155.61 33.2031C155.861 32.9517 156.161 32.826 156.511 32.826C156.86 32.826 157.161 32.9517 157.412 33.2031C157.664 33.4503 157.789 33.7486 157.789 34.098C157.789 34.3324 157.73 34.5476 157.61 34.7436C157.495 34.9354 157.342 35.0888 157.15 35.2038C156.958 35.3189 156.745 35.3764 156.511 35.3764ZM156.511 28.8182C156.161 28.8182 155.861 28.6946 155.61 28.4474C155.358 28.196 155.232 27.8935 155.232 27.5398C155.232 27.1903 155.358 26.892 155.61 26.6449C155.861 26.3935 156.161 26.2678 156.511 26.2678C156.86 26.2678 157.161 26.3935 157.412 26.6449C157.664 26.892 157.789 27.1903 157.789 27.5398C157.789 27.7741 157.73 27.9893 157.61 28.1854C157.495 28.3771 157.342 28.5305 157.15 28.6456C156.958 28.7607 156.745 28.8182 156.511 28.8182ZM164.881 37.2173C163.871 37.2131 163.008 36.9467 162.292 36.4183C161.577 35.8899 161.029 35.1207 160.65 34.1108C160.27 33.1009 160.081 31.8842 160.081 30.4609C160.081 29.0419 160.27 27.8295 160.65 26.8239C161.033 25.8182 161.583 25.0511 162.299 24.5227C163.019 23.9943 163.88 23.7301 164.881 23.7301C165.883 23.7301 166.741 23.9964 167.457 24.5291C168.173 25.0575 168.721 25.8246 169.1 26.8303C169.483 27.8317 169.675 29.0419 169.675 30.4609C169.675 31.8885 169.486 33.1072 169.106 34.1172C168.727 35.1229 168.18 35.892 167.464 36.4247C166.748 36.9531 165.887 37.2173 164.881 37.2173ZM164.881 35.5107C165.768 35.5107 166.46 35.0781 166.959 34.2131C167.461 33.348 167.713 32.0973 167.713 30.4609C167.713 29.3743 167.598 28.456 167.368 27.706C167.142 26.9517 166.816 26.3807 166.39 25.9929C165.968 25.6009 165.465 25.4048 164.881 25.4048C163.999 25.4048 163.307 25.8395 162.804 26.7088C162.301 27.5781 162.047 28.8288 162.043 30.4609C162.043 31.5518 162.156 32.4744 162.382 33.2287C162.612 33.9787 162.938 34.5476 163.36 34.9354C163.782 35.3189 164.289 35.5107 164.881 35.5107ZM176.5 37.2173C175.49 37.2131 174.627 36.9467 173.912 36.4183C173.196 35.8899 172.648 35.1207 172.269 34.1108C171.89 33.1009 171.7 31.8842 171.7 30.4609C171.7 29.0419 171.89 27.8295 172.269 26.8239C172.652 25.8182 173.202 25.0511 173.918 24.5227C174.638 23.9943 175.499 23.7301 176.5 23.7301C177.502 23.7301 178.36 23.9964 179.076 24.5291C179.792 25.0575 180.34 25.8246 180.719 26.8303C181.103 27.8317 181.294 29.0419 181.294 30.4609C181.294 31.8885 181.105 33.1072 180.725 34.1172C180.346 35.1229 179.799 35.892 179.083 36.4247C178.367 36.9531 177.506 37.2173 176.5 37.2173ZM176.5 35.5107C177.387 35.5107 178.079 35.0781 178.578 34.2131C179.081 33.348 179.332 32.0973 179.332 30.4609C179.332 29.3743 179.217 28.456 178.987 27.706C178.761 26.9517 178.435 26.3807 178.009 25.9929C177.587 25.6009 177.084 25.4048 176.5 25.4048C175.618 25.4048 174.926 25.8395 174.423 26.7088C173.92 27.5781 173.667 28.8288 173.662 30.4609C173.662 31.5518 173.775 32.4744 174.001 33.2287C174.231 33.9787 174.557 34.5476 174.979 34.9354C175.401 35.3189 175.908 35.5107 176.5 35.5107ZM188.511 31.8991C188.494 31.1619 188.603 30.5568 188.837 30.0838C189.076 29.6108 189.395 29.2614 189.796 29.0355C190.196 28.8054 190.637 28.6903 191.119 28.6903C191.545 28.6903 191.939 28.782 192.301 28.9652C192.664 29.1442 193.077 29.4382 193.542 29.8473C193.831 30.0987 194.068 30.282 194.251 30.397C194.434 30.5078 194.639 30.5632 194.865 30.5632C195.21 30.5632 195.485 30.4354 195.689 30.1797C195.898 29.9197 195.998 29.5362 195.99 29.0291H197.607C197.624 29.7706 197.513 30.3778 197.275 30.8509C197.04 31.3239 196.721 31.6733 196.316 31.8991C195.915 32.125 195.476 32.2379 194.999 32.2379C194.569 32.2379 194.172 32.1463 193.81 31.9631C193.448 31.7756 193.037 31.4815 192.576 31.081C192.278 30.821 192.039 30.6378 191.86 30.5312C191.681 30.4205 191.479 30.3651 191.253 30.3651C190.925 30.3651 190.652 30.4844 190.435 30.723C190.222 30.9574 190.12 31.3494 190.128 31.8991H188.511ZM210.044 23.9091V37H208.063V25.8906H207.986L204.854 27.9361V26.044L208.12 23.9091H210.044ZM214.026 37L219.741 25.6989V25.603H213.132V23.9091H221.786V25.6605L216.091 37H214.026ZM224.679 35.3764C224.329 35.3764 224.029 35.2528 223.778 35.0057C223.526 34.7543 223.4 34.4517 223.4 34.098C223.4 33.7486 223.526 33.4503 223.778 33.2031C224.029 32.9517 224.329 32.826 224.679 32.826C225.028 32.826 225.329 32.9517 225.58 33.2031C225.831 33.4503 225.957 33.7486 225.957 34.098C225.957 34.3324 225.898 34.5476 225.778 34.7436C225.663 34.9354 225.51 35.0888 225.318 35.2038C225.126 35.3189 224.913 35.3764 224.679 35.3764ZM224.679 28.8182C224.329 28.8182 224.029 28.6946 223.778 28.4474C223.526 28.196 223.4 27.8935 223.4 27.5398C223.4 27.1903 223.526 26.892 223.778 26.6449C224.029 26.3935 224.329 26.2678 224.679 26.2678C225.028 26.2678 225.329 26.3935 225.58 26.6449C225.831 26.892 225.957 27.1903 225.957 27.5398C225.957 27.7741 225.898 27.9893 225.778 28.1854C225.663 28.3771 225.51 28.5305 225.318 28.6456C225.126 28.7607 224.913 28.8182 224.679 28.8182ZM232.813 37.179C232.012 37.179 231.291 37.0256 230.652 36.7188C230.017 36.4077 229.51 35.9815 229.131 35.4403C228.752 34.8991 228.549 34.2812 228.524 33.5866H230.441C230.488 34.1491 230.737 34.6115 231.189 34.9737C231.641 35.3359 232.182 35.517 232.813 35.517C233.316 35.517 233.761 35.402 234.149 35.1719C234.541 34.9375 234.847 34.6158 235.069 34.2067C235.295 33.7976 235.408 33.331 235.408 32.8068C235.408 32.2741 235.293 31.799 235.063 31.3814C234.833 30.9638 234.515 30.6357 234.11 30.397C233.71 30.1584 233.249 30.0369 232.73 30.0327C232.333 30.0327 231.935 30.1009 231.534 30.2372C231.134 30.3736 230.81 30.5526 230.563 30.7741L228.754 30.5057L229.489 23.9091H236.686V25.603H231.132L230.716 29.2656H230.793C231.048 29.0185 231.387 28.8118 231.809 28.6456C232.235 28.4794 232.691 28.3963 233.177 28.3963C233.974 28.3963 234.683 28.5859 235.306 28.9652C235.932 29.3445 236.424 29.8622 236.782 30.5185C237.144 31.1705 237.323 31.9205 237.319 32.7685C237.323 33.6165 237.132 34.3729 236.744 35.0376C236.36 35.7024 235.828 36.2266 235.146 36.6101C234.468 36.9893 233.691 37.179 232.813 37.179ZM244.007 23.7301C244.591 23.7344 245.166 23.8409 245.733 24.0497C246.299 24.2585 246.811 24.5994 247.267 25.0724C247.727 25.5455 248.093 26.1847 248.366 26.9901C248.643 27.7912 248.784 28.7884 248.788 29.9815C248.788 31.1278 248.673 32.1484 248.443 33.0433C248.213 33.9339 247.882 34.6861 247.452 35.2997C247.026 35.9134 246.508 36.38 245.899 36.6996C245.289 37.0192 244.603 37.179 243.841 37.179C243.061 37.179 242.368 37.0256 241.763 36.7188C241.158 36.4119 240.666 35.9879 240.287 35.4467C239.907 34.9013 239.671 34.2749 239.577 33.5675H241.527C241.654 34.13 241.914 34.5859 242.306 34.9354C242.703 35.2805 243.214 35.4531 243.841 35.4531C244.799 35.4531 245.547 35.0355 246.084 34.2003C246.621 33.3608 246.892 32.1889 246.896 30.6847H246.794C246.572 31.0511 246.295 31.3665 245.963 31.6307C245.635 31.8949 245.266 32.0994 244.857 32.2443C244.448 32.3892 244.011 32.4616 243.547 32.4616C242.792 32.4616 242.106 32.2763 241.488 31.9055C240.87 31.5348 240.378 31.0256 240.012 30.3778C239.645 29.7301 239.462 28.9908 239.462 28.1598C239.462 27.3331 239.65 26.5831 240.025 25.9098C240.404 25.2365 240.932 24.7038 241.61 24.3118C242.292 23.9155 243.091 23.7216 244.007 23.7301ZM244.013 25.392C243.515 25.392 243.065 25.5156 242.664 25.7628C242.268 26.0057 241.955 26.3359 241.725 26.7536C241.495 27.1669 241.38 27.6271 241.38 28.1342C241.38 28.6413 241.49 29.1016 241.712 29.5149C241.938 29.924 242.245 30.25 242.632 30.4929C243.025 30.7315 243.472 30.8509 243.975 30.8509C244.35 30.8509 244.699 30.7784 245.023 30.6335C245.347 30.4886 245.63 30.2884 245.873 30.0327C246.116 29.7727 246.306 29.4787 246.442 29.1506C246.578 28.8224 246.647 28.4773 246.647 28.1151C246.647 27.6335 246.532 27.1861 246.301 26.7727C246.076 26.3594 245.765 26.027 245.368 25.7756C244.972 25.5199 244.52 25.392 244.013 25.392ZM254.798 30.4545C254.798 32.0611 254.587 33.5376 254.165 34.8842C253.743 36.2308 253.128 37.473 252.318 38.6108H250.567C250.882 38.1889 251.176 37.6712 251.449 37.0575C251.721 36.4439 251.96 35.7727 252.165 35.044C252.369 34.3111 252.529 33.5526 252.644 32.7685C252.759 31.9844 252.817 31.2131 252.817 30.4545C252.817 29.4446 252.716 28.4197 252.516 27.38C252.316 26.3402 252.045 25.375 251.704 24.4844C251.363 23.5938 250.984 22.8672 250.567 22.3047H252.318C253.128 23.4425 253.743 24.6847 254.165 26.0312C254.587 27.3778 254.798 28.8523 254.798 30.4545Z" fill="black"/>
</g>
<defs>
<filter id="filter0_d_2462_804" x="0" y="0" width="352" height="62" filterUnits="userSpaceOnUse" color-interpolation-filters="sRGB">
<feFlood flood-opacity="0" result="BackgroundImageFix"/>
<feColorMatrix in="SourceAlpha" type="matrix" values="0 0 0 0 0 0 0 0 0 0 0 0 0 0 0 0 0 0 127 0" result="hardAlpha"/>
<feOffset dy="1"/>
<feGaussianBlur stdDeviation="5"/>
<feComposite in2="hardAlpha" operator="out"/>
<feColorMatrix type="matrix" values="0 0 0 0 0 0 0 0 0 0 0 0 0 0 0 0 0 0 0.25 0"/>
<feBlend mode="normal" in2="BackgroundImageFix" result="effect1_dropShadow_2462_804"/>
<feBlend mode="normal" in="SourceGraphic" in2="effect1_dropShadow_2462_804" result="shape"/>
</filter>
</defs>
</svg>
