<svg width="142" height="29" viewBox="0 0 142 29" fill="none" xmlns="http://www.w3.org/2000/svg">
<path d="M20.84 4.49H25.64V7.76H20.84V4.49ZM20.84 10.52H25.64V13.79H20.84V10.52ZM18.08 0.89H22.07V17.27H18.08V0.89ZM3.53 18.41H22.07V28.67H18.08V21.59H3.53V18.41ZM7.94 2.39C12.23 2.39 15.5 5.24 15.5 9.2C15.5 13.16 12.23 15.98 7.94 15.98C3.65 15.98 0.38 13.16 0.38 9.2C0.38 5.24 3.65 2.39 7.94 2.39ZM7.94 5.78C5.84 5.78 4.28 7.01 4.28 9.2C4.28 11.39 5.84 12.65 7.94 12.65C10.04 12.65 11.6 11.39 11.6 9.2C11.6 7.01 10.04 5.78 7.94 5.78ZM27.7977 14.36H52.9377V17.54H27.7977V14.36ZM38.3277 10.76H42.2877V15.74H38.3277V10.76ZM38.2677 1.37H41.6877V2.21C41.6877 7.34 37.6077 11.36 30.5277 12.38L29.0577 9.26C35.2977 8.51 38.2677 5.33 38.2677 2.21V1.37ZM38.9277 1.37H42.3477V2.21C42.3477 5.45 45.2577 8.51 51.5577 9.26L50.0877 12.38C43.0077 11.33 38.9277 7.46 38.9277 2.21V1.37ZM30.5877 19.49H49.8777V28.67H45.8877V22.61H30.5877V19.49ZM63.6467 3.17H76.8767V16.58H63.6467V3.17ZM72.9467 6.32H67.5767V13.43H72.9467V6.32ZM80.7167 0.89H84.7067V21.14H80.7167V0.89ZM83.5667 8.9H88.3967V12.17H83.5667V8.9ZM66.7967 25.01H85.6967V28.19H66.7967V25.01ZM66.7967 19.16H70.7867V26.6H66.7967V19.16ZM90.4644 11.66H115.604V14.81H90.4644V11.66ZM93.5544 7.04H112.634V10.16H93.5544V7.04ZM93.5544 1.4H112.394V4.58H97.5144V9.74H93.5544V1.4ZM93.3144 16.37H112.514V23.72H97.2744V26.12H93.3444V20.9H108.584V19.37H93.3144V16.37ZM93.3444 25.4H113.234V28.46H93.3444V25.4ZM137.172 0.89H141.192V28.67H137.172V0.89ZM128.982 3.77H132.942C132.942 12.26 130.062 19.22 120.192 23.99L118.122 20.81C126.102 16.97 128.982 11.93 128.982 4.49V3.77ZM119.592 3.77H130.872V6.92H119.592V3.77Z" fill="black"/>
</svg>
