<svg width="352" height="62" viewBox="0 0 352 62" fill="none" xmlns="http://www.w3.org/2000/svg">
<g filter="url(#filter0_d_2462_806)">
<rect x="10" y="9" width="332" height="42" rx="14" fill="white"/>
<path d="M105.298 22.114H106.774V38.422H105.298V22.114ZM101.788 28.054H105.73V29.278H101.788V28.054ZM97.522 24.454H98.728V26.884C98.728 30.394 96.712 33.868 94.138 35.2L93.256 34.012C95.596 32.86 97.522 29.782 97.522 26.884V24.454ZM97.828 24.454H99.016V26.884C99.016 29.602 100.906 32.572 103.264 33.688L102.382 34.858C99.808 33.58 97.828 30.232 97.828 26.884V24.454ZM93.85 23.788H102.706V25.03H93.85V23.788ZM110.895 23.122H112.389V30.286H110.895V23.122ZM110.895 29.962H112.101C114.819 29.962 116.781 29.836 119.031 29.386L119.229 30.628C116.907 31.096 114.891 31.222 112.101 31.222H110.895V29.962ZM112.443 32.752H123.333V38.404H121.839V33.976H112.443V32.752ZM121.839 22.132H123.333V31.96H121.839V22.132ZM117.285 24.094H122.253V25.264H117.285V24.094ZM117.285 27.064H122.253V28.234H117.285V27.064ZM127.458 30.4545C127.458 28.8523 127.669 27.3778 128.091 26.0312C128.513 24.6847 129.129 23.4425 129.938 22.3047H131.69C131.374 22.7266 131.08 23.2443 130.808 23.858C130.535 24.4716 130.296 25.1449 130.092 25.8778C129.887 26.6065 129.727 27.3629 129.612 28.147C129.497 28.9268 129.44 29.696 129.44 30.4545C129.44 31.4688 129.54 32.4957 129.74 33.5355C129.94 34.5753 130.211 35.5405 130.552 36.4311C130.893 37.3217 131.272 38.0483 131.69 38.6108H129.938C129.129 37.473 128.513 36.2308 128.091 34.8842C127.669 33.5376 127.458 32.0611 127.458 30.4545ZM138.646 23.9091V37H136.664V25.8906H136.588L133.455 27.9361V26.044L136.722 23.9091H138.646ZM146.61 37.179C145.694 37.179 144.884 37.0213 144.181 36.706C143.482 36.3906 142.935 35.956 142.539 35.402C142.142 34.848 141.946 34.2173 141.95 33.5099C141.946 32.956 142.059 32.4467 142.289 31.9822C142.524 31.5135 142.841 31.1236 143.242 30.8125C143.642 30.4972 144.09 30.2969 144.584 30.2116V30.1349C143.932 29.9773 143.41 29.6278 143.018 29.0866C142.626 28.5455 142.432 27.9233 142.436 27.2202C142.432 26.5511 142.609 25.9545 142.967 25.4304C143.329 24.902 143.825 24.4865 144.456 24.1839C145.087 23.8814 145.805 23.7301 146.61 23.7301C147.407 23.7301 148.119 23.8835 148.745 24.1903C149.376 24.4929 149.872 24.9084 150.235 25.4368C150.597 25.9609 150.78 26.5554 150.784 27.2202C150.78 27.9233 150.58 28.5455 150.183 29.0866C149.787 29.6278 149.271 29.9773 148.637 30.1349V30.2116C149.127 30.2969 149.568 30.4972 149.96 30.8125C150.356 31.1236 150.671 31.5135 150.906 31.9822C151.144 32.4467 151.266 32.956 151.27 33.5099C151.266 34.2173 151.066 34.848 150.669 35.402C150.273 35.956 149.723 36.3906 149.02 36.706C148.321 37.0213 147.518 37.179 146.61 37.179ZM146.61 35.5618C147.151 35.5618 147.62 35.4723 148.017 35.2933C148.413 35.1101 148.72 34.8565 148.937 34.5327C149.154 34.2045 149.265 33.821 149.269 33.3821C149.265 32.9261 149.146 32.5234 148.911 32.174C148.681 31.8246 148.368 31.5497 147.972 31.3494C147.575 31.1491 147.122 31.049 146.61 31.049C146.095 31.049 145.637 31.1491 145.236 31.3494C144.835 31.5497 144.52 31.8246 144.29 32.174C144.06 32.5234 143.947 32.9261 143.951 33.3821C143.947 33.821 144.051 34.2045 144.264 34.5327C144.482 34.8565 144.791 35.1101 145.191 35.2933C145.592 35.4723 146.065 35.5618 146.61 35.5618ZM146.61 29.4702C147.045 29.4702 147.431 29.3828 147.767 29.2081C148.104 29.0334 148.368 28.7905 148.56 28.4794C148.756 28.1683 148.856 27.804 148.86 27.3864C148.856 26.9773 148.758 26.6193 148.566 26.3125C148.379 26.0057 148.117 25.7692 147.78 25.603C147.443 25.4325 147.053 25.3473 146.61 25.3473C146.159 25.3473 145.762 25.4325 145.421 25.603C145.085 25.7692 144.823 26.0057 144.635 26.3125C144.448 26.6193 144.356 26.9773 144.36 27.3864C144.356 27.804 144.45 28.1683 144.642 28.4794C144.833 28.7905 145.097 29.0334 145.434 29.2081C145.775 29.3828 146.167 29.4702 146.61 29.4702ZM154.845 35.3764C154.495 35.3764 154.195 35.2528 153.944 35.0057C153.692 34.7543 153.566 34.4517 153.566 34.098C153.566 33.7486 153.692 33.4503 153.944 33.2031C154.195 32.9517 154.495 32.826 154.845 32.826C155.194 32.826 155.495 32.9517 155.746 33.2031C155.998 33.4503 156.123 33.7486 156.123 34.098C156.123 34.3324 156.064 34.5476 155.944 34.7436C155.829 34.9354 155.676 35.0888 155.484 35.2038C155.292 35.3189 155.079 35.3764 154.845 35.3764ZM154.845 28.8182C154.495 28.8182 154.195 28.6946 153.944 28.4474C153.692 28.196 153.566 27.8935 153.566 27.5398C153.566 27.1903 153.692 26.892 153.944 26.6449C154.195 26.3935 154.495 26.2678 154.845 26.2678C155.194 26.2678 155.495 26.3935 155.746 26.6449C155.998 26.892 156.123 27.1903 156.123 27.5398C156.123 27.7741 156.064 27.9893 155.944 28.1854C155.829 28.3771 155.676 28.5305 155.484 28.6456C155.292 28.7607 155.079 28.8182 154.845 28.8182ZM163.215 37.2173C162.205 37.2131 161.342 36.9467 160.626 36.4183C159.911 35.8899 159.363 35.1207 158.984 34.1108C158.604 33.1009 158.415 31.8842 158.415 30.4609C158.415 29.0419 158.604 27.8295 158.984 26.8239C159.367 25.8182 159.917 25.0511 160.633 24.5227C161.353 23.9943 162.214 23.7301 163.215 23.7301C164.217 23.7301 165.075 23.9964 165.791 24.5291C166.507 25.0575 167.055 25.8246 167.434 26.8303C167.817 27.8317 168.009 29.0419 168.009 30.4609C168.009 31.8885 167.82 33.1072 167.44 34.1172C167.061 35.1229 166.513 35.892 165.798 36.4247C165.082 36.9531 164.221 37.2173 163.215 37.2173ZM163.215 35.5107C164.102 35.5107 164.794 35.0781 165.293 34.2131C165.795 33.348 166.047 32.0973 166.047 30.4609C166.047 29.3743 165.932 28.456 165.702 27.706C165.476 26.9517 165.15 26.3807 164.724 25.9929C164.302 25.6009 163.799 25.4048 163.215 25.4048C162.333 25.4048 161.641 25.8395 161.138 26.7088C160.635 27.5781 160.381 28.8288 160.377 30.4609C160.377 31.5518 160.49 32.4744 160.716 33.2287C160.946 33.9787 161.272 34.5476 161.694 34.9354C162.116 35.3189 162.623 35.5107 163.215 35.5107ZM174.834 37.2173C173.824 37.2131 172.961 36.9467 172.246 36.4183C171.53 35.8899 170.982 35.1207 170.603 34.1108C170.224 33.1009 170.034 31.8842 170.034 30.4609C170.034 29.0419 170.224 27.8295 170.603 26.8239C170.986 25.8182 171.536 25.0511 172.252 24.5227C172.972 23.9943 173.833 23.7301 174.834 23.7301C175.836 23.7301 176.694 23.9964 177.41 24.5291C178.126 25.0575 178.674 25.8246 179.053 26.8303C179.437 27.8317 179.628 29.0419 179.628 30.4609C179.628 31.8885 179.439 33.1072 179.059 34.1172C178.68 35.1229 178.133 35.892 177.417 36.4247C176.701 36.9531 175.84 37.2173 174.834 37.2173ZM174.834 35.5107C175.721 35.5107 176.413 35.0781 176.912 34.2131C177.415 33.348 177.666 32.0973 177.666 30.4609C177.666 29.3743 177.551 28.456 177.321 27.706C177.095 26.9517 176.769 26.3807 176.343 25.9929C175.921 25.6009 175.418 25.4048 174.834 25.4048C173.952 25.4048 173.26 25.8395 172.757 26.7088C172.254 27.5781 172.001 28.8288 171.996 30.4609C171.996 31.5518 172.109 32.4744 172.335 33.2287C172.565 33.9787 172.891 34.5476 173.313 34.9354C173.735 35.3189 174.242 35.5107 174.834 35.5107ZM186.845 31.8991C186.828 31.1619 186.937 30.5568 187.171 30.0838C187.41 29.6108 187.729 29.2614 188.13 29.0355C188.53 28.8054 188.971 28.6903 189.453 28.6903C189.879 28.6903 190.273 28.782 190.635 28.9652C190.998 29.1442 191.411 29.4382 191.876 29.8473C192.165 30.0987 192.402 30.282 192.585 30.397C192.768 30.5078 192.973 30.5632 193.199 30.5632C193.544 30.5632 193.819 30.4354 194.023 30.1797C194.232 29.9197 194.332 29.5362 194.324 29.0291H195.941C195.958 29.7706 195.847 30.3778 195.608 30.8509C195.374 31.3239 195.055 31.6733 194.65 31.8991C194.249 32.125 193.81 32.2379 193.333 32.2379C192.903 32.2379 192.506 32.1463 192.144 31.9631C191.782 31.7756 191.371 31.4815 190.91 31.081C190.612 30.821 190.373 30.6378 190.194 30.5312C190.015 30.4205 189.813 30.3651 189.587 30.3651C189.259 30.3651 188.986 30.4844 188.769 30.723C188.556 30.9574 188.454 31.3494 188.462 31.8991H186.845ZM203.412 37V35.5682L207.841 30.9787C208.314 30.4801 208.704 30.0433 209.011 29.6683C209.322 29.2891 209.554 28.929 209.708 28.5881C209.861 28.2472 209.938 27.8849 209.938 27.5014C209.938 27.0668 209.836 26.6918 209.631 26.3764C209.426 26.0568 209.147 25.8118 208.794 25.6413C208.44 25.4666 208.042 25.3793 207.598 25.3793C207.13 25.3793 206.721 25.4751 206.371 25.6669C206.022 25.8587 205.753 26.1293 205.566 26.4787C205.378 26.8281 205.284 27.2372 205.284 27.706H203.399C203.399 26.9091 203.582 26.2124 203.949 25.6158C204.315 25.0192 204.818 24.5568 205.457 24.2287C206.096 23.8963 206.823 23.7301 207.637 23.7301C208.459 23.7301 209.184 23.8942 209.81 24.2223C210.441 24.5462 210.933 24.9893 211.287 25.5518C211.64 26.1101 211.817 26.7408 211.817 27.4439C211.817 27.9297 211.725 28.4048 211.542 28.8693C211.363 29.3338 211.05 29.8516 210.603 30.4226C210.155 30.9893 209.533 31.6776 208.736 32.4872L206.135 35.2102V35.3061H212.028V37H203.412ZM219.008 37.179C218.13 37.179 217.346 37.0277 216.656 36.7251C215.97 36.4226 215.426 36.0028 215.026 35.4659C214.63 34.9247 214.417 34.2983 214.387 33.5866H216.394C216.419 33.9744 216.549 34.3111 216.784 34.5966C217.022 34.8778 217.333 35.0952 217.717 35.2486C218.1 35.402 218.527 35.4787 218.995 35.4787C219.511 35.4787 219.967 35.3892 220.363 35.2102C220.764 35.0312 221.077 34.782 221.303 34.4624C221.529 34.1385 221.642 33.7656 221.642 33.3438C221.642 32.9048 221.529 32.5192 221.303 32.1868C221.081 31.8501 220.755 31.5859 220.325 31.3942C219.899 31.2024 219.383 31.1065 218.778 31.1065H217.672V29.4957H218.778C219.264 29.4957 219.69 29.4084 220.056 29.2337C220.427 29.0589 220.717 28.8161 220.926 28.505C221.135 28.1896 221.239 27.821 221.239 27.3991C221.239 26.9943 221.147 26.6428 220.964 26.3445C220.785 26.0419 220.529 25.8054 220.197 25.6349C219.869 25.4645 219.481 25.3793 219.034 25.3793C218.608 25.3793 218.209 25.4581 217.838 25.6158C217.472 25.7692 217.174 25.9908 216.944 26.2805C216.713 26.5661 216.59 26.9091 216.573 27.3097H214.662C214.683 26.6023 214.892 25.9801 215.288 25.4432C215.689 24.9062 216.217 24.4865 216.873 24.1839C217.529 23.8814 218.258 23.7301 219.059 23.7301C219.899 23.7301 220.623 23.8942 221.233 24.2223C221.846 24.5462 222.319 24.9787 222.652 25.5199C222.988 26.0611 223.154 26.6534 223.15 27.2969C223.154 28.0298 222.95 28.652 222.537 29.1634C222.127 29.6747 221.582 30.0178 220.9 30.1925V30.2947C221.77 30.4268 222.443 30.772 222.92 31.3303C223.402 31.8885 223.64 32.581 223.636 33.4077C223.64 34.1278 223.44 34.7734 223.035 35.3445C222.635 35.9155 222.087 36.3651 221.392 36.6932C220.698 37.017 219.903 37.179 219.008 37.179ZM227.337 35.3764C226.988 35.3764 226.687 35.2528 226.436 35.0057C226.184 34.7543 226.059 34.4517 226.059 34.098C226.059 33.7486 226.184 33.4503 226.436 33.2031C226.687 32.9517 226.988 32.826 227.337 32.826C227.686 32.826 227.987 32.9517 228.238 33.2031C228.49 33.4503 228.615 33.7486 228.615 34.098C228.615 34.3324 228.556 34.5476 228.436 34.7436C228.321 34.9354 228.168 35.0888 227.976 35.2038C227.784 35.3189 227.571 35.3764 227.337 35.3764ZM227.337 28.8182C226.988 28.8182 226.687 28.6946 226.436 28.4474C226.184 28.196 226.059 27.8935 226.059 27.5398C226.059 27.1903 226.184 26.892 226.436 26.6449C226.687 26.3935 226.988 26.2678 227.337 26.2678C227.686 26.2678 227.987 26.3935 228.238 26.6449C228.49 26.892 228.615 27.1903 228.615 27.5398C228.615 27.7741 228.556 27.9893 228.436 28.1854C228.321 28.3771 228.168 28.5305 227.976 28.6456C227.784 28.7607 227.571 28.8182 227.337 28.8182ZM235.471 37.179C234.67 37.179 233.95 37.0256 233.31 36.7188C232.675 36.4077 232.168 35.9815 231.789 35.4403C231.41 34.8991 231.207 34.2812 231.182 33.5866H233.099C233.146 34.1491 233.396 34.6115 233.847 34.9737C234.299 35.3359 234.84 35.517 235.471 35.517C235.974 35.517 236.419 35.402 236.807 35.1719C237.199 34.9375 237.506 34.6158 237.727 34.2067C237.953 33.7976 238.066 33.331 238.066 32.8068C238.066 32.2741 237.951 31.799 237.721 31.3814C237.491 30.9638 237.173 30.6357 236.768 30.397C236.368 30.1584 235.908 30.0369 235.388 30.0327C234.991 30.0327 234.593 30.1009 234.192 30.2372C233.792 30.3736 233.468 30.5526 233.221 30.7741L231.412 30.5057L232.147 23.9091H239.344V25.603H233.79L233.374 29.2656H233.451C233.707 29.0185 234.045 28.8118 234.467 28.6456C234.893 28.4794 235.349 28.3963 235.835 28.3963C236.632 28.3963 237.342 28.5859 237.964 28.9652C238.59 29.3445 239.082 29.8622 239.44 30.5185C239.803 31.1705 239.982 31.9205 239.977 32.7685C239.982 33.6165 239.79 34.3729 239.402 35.0376C239.018 35.7024 238.486 36.2266 237.804 36.6101C237.126 36.9893 236.349 37.179 235.471 37.179ZM246.665 23.7301C247.249 23.7344 247.824 23.8409 248.391 24.0497C248.958 24.2585 249.469 24.5994 249.925 25.0724C250.385 25.5455 250.752 26.1847 251.024 26.9901C251.301 27.7912 251.442 28.7884 251.446 29.9815C251.446 31.1278 251.331 32.1484 251.101 33.0433C250.871 33.9339 250.541 34.6861 250.11 35.2997C249.684 35.9134 249.166 36.38 248.557 36.6996C247.948 37.0192 247.262 37.179 246.499 37.179C245.719 37.179 245.026 37.0256 244.421 36.7188C243.816 36.4119 243.324 35.9879 242.945 35.4467C242.566 34.9013 242.329 34.2749 242.235 33.5675H244.185C244.313 34.13 244.573 34.5859 244.965 34.9354C245.361 35.2805 245.872 35.4531 246.499 35.4531C247.458 35.4531 248.205 35.0355 248.742 34.2003C249.279 33.3608 249.55 32.1889 249.554 30.6847H249.452C249.23 31.0511 248.953 31.3665 248.621 31.6307C248.293 31.8949 247.924 32.0994 247.515 32.2443C247.106 32.3892 246.669 32.4616 246.205 32.4616C245.45 32.4616 244.764 32.2763 244.146 31.9055C243.529 31.5348 243.036 31.0256 242.67 30.3778C242.303 29.7301 242.12 28.9908 242.12 28.1598C242.12 27.3331 242.308 26.5831 242.683 25.9098C243.062 25.2365 243.59 24.7038 244.268 24.3118C244.95 23.9155 245.749 23.7216 246.665 23.7301ZM246.671 25.392C246.173 25.392 245.723 25.5156 245.323 25.7628C244.926 26.0057 244.613 26.3359 244.383 26.7536C244.153 27.1669 244.038 27.6271 244.038 28.1342C244.038 28.6413 244.149 29.1016 244.37 29.5149C244.596 29.924 244.903 30.25 245.291 30.4929C245.683 30.7315 246.13 30.8509 246.633 30.8509C247.008 30.8509 247.357 30.7784 247.681 30.6335C248.005 30.4886 248.289 30.2884 248.531 30.0327C248.774 29.7727 248.964 29.4787 249.1 29.1506C249.237 28.8224 249.305 28.4773 249.305 28.1151C249.305 27.6335 249.19 27.1861 248.96 26.7727C248.734 26.3594 248.423 26.027 248.026 25.7756C247.63 25.5199 247.178 25.392 246.671 25.392ZM257.456 30.4545C257.456 32.0611 257.245 33.5376 256.824 34.8842C256.402 36.2308 255.786 37.473 254.976 38.6108H253.225C253.54 38.1889 253.834 37.6712 254.107 37.0575C254.38 36.4439 254.618 35.7727 254.823 35.044C255.027 34.3111 255.187 33.5526 255.302 32.7685C255.417 31.9844 255.475 31.2131 255.475 30.4545C255.475 29.4446 255.375 28.4197 255.174 27.38C254.974 26.3402 254.703 25.375 254.363 24.4844C254.022 23.5938 253.642 22.8672 253.225 22.3047H254.976C255.786 23.4425 256.402 24.6847 256.824 26.0312C257.245 27.3778 257.456 28.8523 257.456 30.4545Z" fill="black"/>
</g>
<defs>
<filter id="filter0_d_2462_806" x="0" y="0" width="352" height="62" filterUnits="userSpaceOnUse" color-interpolation-filters="sRGB">
<feFlood flood-opacity="0" result="BackgroundImageFix"/>
<feColorMatrix in="SourceAlpha" type="matrix" values="0 0 0 0 0 0 0 0 0 0 0 0 0 0 0 0 0 0 127 0" result="hardAlpha"/>
<feOffset dy="1"/>
<feGaussianBlur stdDeviation="5"/>
<feComposite in2="hardAlpha" operator="out"/>
<feColorMatrix type="matrix" values="0 0 0 0 0 0 0 0 0 0 0 0 0 0 0 0 0 0 0.25 0"/>
<feBlend mode="normal" in2="BackgroundImageFix" result="effect1_dropShadow_2462_806"/>
<feBlend mode="normal" in="SourceGraphic" in2="effect1_dropShadow_2462_806" result="shape"/>
</filter>
</defs>
</svg>
