<svg width="269" height="51" viewBox="0 0 269 51" fill="none" xmlns="http://www.w3.org/2000/svg">
<rect width="269" height="51" rx="25.5" fill="#8E6FFF"/>
<path d="M100.583 18.16H103.783V20.34H100.583V18.16ZM100.583 22.18H103.783V24.36H100.583V22.18ZM98.7434 15.76H101.403V26.68H98.7434V15.76ZM89.0434 27.44H101.403V34.28H98.7434V29.56H89.0434V27.44ZM91.9834 16.76C94.8434 16.76 97.0234 18.66 97.0234 21.3C97.0234 23.94 94.8434 25.82 91.9834 25.82C89.1234 25.82 86.9434 23.94 86.9434 21.3C86.9434 18.66 89.1234 16.76 91.9834 16.76ZM91.9834 19.02C90.5834 19.02 89.5434 19.84 89.5434 21.3C89.5434 22.76 90.5834 23.6 91.9834 23.6C93.3834 23.6 94.4234 22.76 94.4234 21.3C94.4234 19.84 93.3834 19.02 91.9834 19.02ZM105.222 24.74H121.982V26.86H105.222V24.74ZM112.242 22.34H114.882V25.66H112.242V22.34ZM112.202 16.08H114.482V16.64C114.482 20.06 111.762 22.74 107.042 23.42L106.062 21.34C110.222 20.84 112.202 18.72 112.202 16.64V16.08ZM112.642 16.08H114.922V16.64C114.922 18.8 116.862 20.84 121.062 21.34L120.082 23.42C115.362 22.72 112.642 20.14 112.642 16.64V16.08ZM107.082 28.16H119.942V34.28H117.282V30.24H107.082V28.16ZM129.121 17.28H137.941V26.22H129.121V17.28ZM135.321 19.38H131.741V24.12H135.321V19.38ZM140.501 15.76H143.161V29.26H140.501V15.76ZM142.401 21.1H145.621V23.28H142.401V21.1ZM131.221 31.84H143.821V33.96H131.221V31.84ZM131.221 27.94H133.881V32.9H131.221V27.94ZM147 22.94H163.76V25.04H147V22.94ZM149.06 19.86H161.78V21.94H149.06V19.86ZM149.06 16.1H161.62V18.22H151.7V21.66H149.06V16.1ZM148.9 26.08H161.7V30.98H151.54V32.58H148.92V29.1H159.08V28.08H148.9V26.08ZM148.92 32.1H162.18V34.14H148.92V32.1ZM178.138 15.76H180.818V34.28H178.138V15.76ZM172.678 17.68H175.318C175.318 23.34 173.398 27.98 166.818 31.16L165.438 29.04C170.758 26.48 172.678 23.12 172.678 18.16V17.68ZM166.418 17.68H173.938V19.78H166.418V17.68Z" fill="white"/>
</svg>
