<svg width="355" height="41" viewBox="0 0 355 41" fill="none" xmlns="http://www.w3.org/2000/svg">
<rect width="355" height="41" rx="20.5" fill="#8E6FFF"/>
<path d="M138.604 14.594H141.484V16.556H138.604V14.594ZM138.604 18.212H141.484V20.174H138.604V18.212ZM136.948 12.434H139.342V22.262H136.948V12.434ZM128.218 22.946H139.342V29.102H136.948V24.854H128.218V22.946ZM130.864 13.334C133.438 13.334 135.4 15.044 135.4 17.42C135.4 19.796 133.438 21.488 130.864 21.488C128.29 21.488 126.328 19.796 126.328 17.42C126.328 15.044 128.29 13.334 130.864 13.334ZM130.864 15.368C129.604 15.368 128.668 16.106 128.668 17.42C128.668 18.734 129.604 19.49 130.864 19.49C132.124 19.49 133.06 18.734 133.06 17.42C133.06 16.106 132.124 15.368 130.864 15.368ZM142.779 20.516H157.863V22.424H142.779V20.516ZM149.097 18.356H151.473V21.344H149.097V18.356ZM149.061 12.722H151.113V13.226C151.113 16.304 148.665 18.716 144.417 19.328L143.535 17.456C147.279 17.006 149.061 15.098 149.061 13.226V12.722ZM149.457 12.722H151.509V13.226C151.509 15.17 153.255 17.006 157.035 17.456L156.153 19.328C151.905 18.698 149.457 16.376 149.457 13.226V12.722ZM144.453 23.594H156.027V29.102H153.633V25.466H144.453V23.594ZM167.283 20.048H169.677V22.442H167.283V20.048ZM174.339 12.452H176.733V23.792H174.339V12.452ZM175.887 17.204H178.821V19.166H175.887V17.204ZM163.575 23.468L163.305 21.614C166.293 21.614 170.235 21.596 173.601 21.182L173.781 22.82C170.307 23.414 166.491 23.45 163.575 23.468ZM165.429 24.458H176.733V29.102H174.339V26.294H165.429V24.458ZM163.737 13.658H173.187V15.368H163.737V13.658ZM168.471 15.764C170.919 15.764 172.521 16.718 172.521 18.248C172.521 19.778 170.919 20.732 168.471 20.732C166.005 20.732 164.403 19.778 164.403 18.248C164.403 16.718 166.005 15.764 168.471 15.764ZM168.471 17.33C167.337 17.33 166.671 17.618 166.671 18.248C166.671 18.842 167.337 19.166 168.471 19.166C169.587 19.166 170.253 18.842 170.253 18.248C170.253 17.618 169.587 17.33 168.471 17.33ZM167.283 12.308H169.677V14.432H167.283V12.308ZM189.098 16.466H192.266V18.41H189.098V16.466ZM191.618 12.434H194.012V22.334H191.618V12.434ZM188.36 22.694C191.888 22.694 194.066 23.9 194.066 25.916C194.066 27.95 191.888 29.12 188.36 29.12C184.832 29.12 182.654 27.95 182.654 25.916C182.654 23.9 184.832 22.694 188.36 22.694ZM188.36 24.512C186.2 24.512 185.048 24.962 185.048 25.916C185.048 26.852 186.2 27.302 188.36 27.302C190.538 27.302 191.69 26.852 191.69 25.916C191.69 24.962 190.538 24.512 188.36 24.512ZM183.914 14.108H185.858V15.152C185.858 18.338 184.382 21.254 181.196 22.334L179.972 20.444C182.726 19.508 183.914 17.294 183.914 15.152V14.108ZM184.418 14.108H186.344V15.152C186.344 17.114 187.478 19.148 190.106 20.03L188.936 21.92C185.84 20.894 184.418 18.122 184.418 15.152V14.108ZM180.62 13.442H189.584V15.35H180.62V13.442ZM207.312 12.434H209.688V29.102H207.312V12.434ZM209.148 18.932H212.1V20.93H209.148V18.932ZM196.548 14.9H206.25V16.808H196.548V14.9ZM201.426 17.744C203.856 17.744 205.656 19.4 205.656 21.722C205.656 24.044 203.856 25.7 201.426 25.7C198.996 25.7 197.196 24.044 197.196 21.722C197.196 19.4 198.996 17.744 201.426 17.744ZM201.426 19.688C200.292 19.688 199.482 20.444 199.482 21.722C199.482 23 200.292 23.756 201.426 23.756C202.56 23.756 203.37 23 203.37 21.722C203.37 20.444 202.56 19.688 201.426 19.688ZM200.22 12.704H202.614V15.62H200.22V12.704ZM224.663 12.434H227.075V29.102H224.663V12.434ZM219.749 14.162H222.125C222.125 19.256 220.397 23.432 214.475 26.294L213.233 24.386C218.021 22.082 219.749 19.058 219.749 14.594V14.162ZM214.115 14.162H220.883V16.052H214.115V14.162Z" fill="white"/>
</svg>
