<svg width="28" height="28" viewBox="0 0 28 28" fill="none" xmlns="http://www.w3.org/2000/svg">
<path d="M14.2729 21V12.4C14.2729 11.46 14.3529 10.04 14.3929 9.08H14.3129C13.9329 9.94 13.5329 10.8 13.1129 11.64L11.4129 14.58H19.2329V17.28H8.01286V14.82L13.1929 6.1H17.5929V21H14.2729Z" fill="black"/>
<path d="M27.9997 14.3266C27.9997 21.8787 21.7318 28.0009 13.9999 28.0009C6.26795 28.0009 0 21.8787 0 14.3266C0 6.77453 6.26795 0.652344 13.9999 0.652344C21.7318 0.652344 27.9997 6.77453 27.9997 14.3266ZM3.49997 14.3266C3.49997 19.9907 8.20093 24.5824 13.9999 24.5824C19.7988 24.5824 24.4998 19.9907 24.4998 14.3266C24.4998 8.66256 19.7988 4.07092 13.9999 4.07092C8.20093 4.07092 3.49997 8.66256 3.49997 14.3266Z" fill="black"/>
</svg>
