<svg width="169" height="29" viewBox="0 0 169 29" fill="none" xmlns="http://www.w3.org/2000/svg">
<path d="M20.84 4.49H25.64V7.76H20.84V4.49ZM20.84 10.52H25.64V13.79H20.84V10.52ZM18.08 0.89H22.07V17.27H18.08V0.89ZM3.53 18.41H22.07V28.67H18.08V21.59H3.53V18.41ZM7.94 2.39C12.23 2.39 15.5 5.24 15.5 9.2C15.5 13.16 12.23 15.98 7.94 15.98C3.65 15.98 0.38 13.16 0.38 9.2C0.38 5.24 3.65 2.39 7.94 2.39ZM7.94 5.78C5.84 5.78 4.28 7.01 4.28 9.2C4.28 11.39 5.84 12.65 7.94 12.65C10.04 12.65 11.6 11.39 11.6 9.2C11.6 7.01 10.04 5.78 7.94 5.78ZM27.7977 14.36H52.9377V17.54H27.7977V14.36ZM38.3277 10.76H42.2877V15.74H38.3277V10.76ZM38.2677 1.37H41.6877V2.21C41.6877 7.34 37.6077 11.36 30.5277 12.38L29.0577 9.26C35.2977 8.51 38.2677 5.33 38.2677 2.21V1.37ZM38.9277 1.37H42.3477V2.21C42.3477 5.45 45.2577 8.51 51.5577 9.26L50.0877 12.38C43.0077 11.33 38.9277 7.46 38.9277 2.21V1.37ZM30.5877 19.49H49.8777V28.67H45.8877V22.61H30.5877V19.49ZM69.1367 13.58H73.1267V17.57H69.1367V13.58ZM80.8967 0.919999H84.8867V19.82H80.8967V0.919999ZM83.4767 8.84H88.3667V12.11H83.4767V8.84ZM62.9567 19.28L62.5067 16.19C67.4867 16.19 74.0567 16.16 79.6667 15.47L79.9667 18.2C74.1767 19.19 67.8167 19.25 62.9567 19.28ZM66.0467 20.93H84.8867V28.67H80.8967V23.99H66.0467V20.93ZM63.2267 2.93H78.9767V5.78H63.2267V2.93ZM71.1167 6.44C75.1967 6.44 77.8667 8.03 77.8667 10.58C77.8667 13.13 75.1967 14.72 71.1167 14.72C67.0067 14.72 64.3367 13.13 64.3367 10.58C64.3367 8.03 67.0067 6.44 71.1167 6.44ZM71.1167 9.05C69.2267 9.05 68.1167 9.53 68.1167 10.58C68.1167 11.57 69.2267 12.11 71.1167 12.11C72.9767 12.11 74.0867 11.57 74.0867 10.58C74.0867 9.53 72.9767 9.05 71.1167 9.05ZM69.1367 0.679999H73.1267V4.22H69.1367V0.679999ZM105.494 7.61H110.774V10.85H105.494V7.61ZM109.694 0.89H113.684V17.39H109.694V0.89ZM104.264 17.99C110.144 17.99 113.774 20 113.774 23.36C113.774 26.75 110.144 28.7 104.264 28.7C98.3844 28.7 94.7544 26.75 94.7544 23.36C94.7544 20 98.3844 17.99 104.264 17.99ZM104.264 21.02C100.664 21.02 98.7444 21.77 98.7444 23.36C98.7444 24.92 100.664 25.67 104.264 25.67C107.894 25.67 109.814 24.92 109.814 23.36C109.814 21.77 107.894 21.02 104.264 21.02ZM96.8544 3.68H100.094V5.42C100.094 10.73 97.6344 15.59 92.3244 17.39L90.2844 14.24C94.8744 12.68 96.8544 8.99 96.8544 5.42V3.68ZM97.6944 3.68H100.904V5.42C100.904 8.69 102.794 12.08 107.174 13.55L105.224 16.7C100.064 14.99 97.6944 10.37 97.6944 5.42V3.68ZM91.3644 2.57H106.304V5.75H91.3644V2.57ZM135.852 0.89H139.812V28.67H135.852V0.89ZM138.912 11.72H143.832V15.05H138.912V11.72ZM117.912 5H134.082V8.18H117.912V5ZM126.042 9.74C130.092 9.74 133.092 12.5 133.092 16.37C133.092 20.24 130.092 23 126.042 23C121.992 23 118.992 20.24 118.992 16.37C118.992 12.5 121.992 9.74 126.042 9.74ZM126.042 12.98C124.152 12.98 122.802 14.24 122.802 16.37C122.802 18.5 124.152 19.76 126.042 19.76C127.932 19.76 129.282 18.5 129.282 16.37C129.282 14.24 127.932 12.98 126.042 12.98ZM124.032 1.34H128.022V6.2H124.032V1.34ZM164.77 0.89H168.79V28.67H164.77V0.89ZM156.58 3.77H160.54C160.54 12.26 157.66 19.22 147.79 23.99L145.72 20.81C153.7 16.97 156.58 11.93 156.58 4.49V3.77ZM147.19 3.77H158.47V6.92H147.19V3.77Z" fill="black"/>
</svg>
