<svg width="470" height="21" viewBox="0 0 470 21" fill="none" xmlns="http://www.w3.org/2000/svg">
<path d="M0.486719 16.668H18.5047V18.186H0.486719V16.668ZM8.53872 11.52H10.3647V17.086H8.53872V11.52ZM2.57672 2.478H16.3047V11.85H2.57672V2.478ZM14.5447 3.952H4.35872V10.376H14.5447V3.952ZM23.189 8.22H36.477V9.716H23.189V8.22ZM20.703 12.29H38.743V13.808H20.703V12.29ZM28.755 13.126H30.559V20.65H28.755V13.126ZM23.189 1.994H36.213V3.49H25.037V8.946H23.189V1.994ZM54.4053 0.806H56.2533V20.716H54.4053V0.806ZM55.7473 8.88H59.4213V10.398H55.7473V8.88ZM49.3233 2.962H51.1053C51.1053 8.616 48.5093 13.72 42.0853 16.954L41.0733 15.546C46.5733 12.752 49.3233 8.506 49.3233 3.248V2.962ZM41.9973 2.962H50.2693V4.458H41.9973V2.962ZM80.4658 0.806H82.3138V20.716H80.4658V0.806ZM81.8078 8.88H85.4818V10.398H81.8078V8.88ZM75.3838 2.962H77.1658C77.1658 8.616 74.5698 13.72 68.1458 16.954L67.1338 15.546C72.6338 12.752 75.3838 8.506 75.3838 3.248V2.962ZM68.0578 2.962H76.3298V4.458H68.0578V2.962ZM89.7041 6.35H103.19V7.846H89.7041V6.35ZM89.7041 1.224H91.5081V7.01H89.7041V1.224ZM87.2621 10.156H105.236V11.63H87.2621V10.156ZM96.2161 13.412C100.462 13.412 103.036 14.71 103.036 17.042C103.036 19.33 100.462 20.65 96.2161 20.65C91.9701 20.65 89.3961 19.33 89.3961 17.042C89.3961 14.71 91.9701 13.412 96.2161 13.412ZM96.2161 14.842C93.1141 14.842 91.2441 15.634 91.2441 17.042C91.2441 18.406 93.1141 19.198 96.2161 19.198C99.3401 19.198 101.188 18.406 101.188 17.042C101.188 15.634 99.3401 14.842 96.2161 14.842ZM121.096 0.849999H122.922V15.766H121.096V0.849999ZM122.35 7.362H125.87V8.902H122.35V7.362ZM107.544 3.248H119.292V4.722H107.544V3.248ZM113.418 5.822C116.234 5.822 118.17 7.296 118.17 9.54C118.17 11.762 116.234 13.236 113.418 13.236C110.58 13.236 108.644 11.762 108.644 9.54C108.644 7.296 110.58 5.822 113.418 5.822ZM113.418 7.252C111.614 7.252 110.382 8.154 110.382 9.54C110.382 10.904 111.614 11.806 113.418 11.806C115.2 11.806 116.432 10.904 116.432 9.54C116.432 8.154 115.2 7.252 113.418 7.252ZM112.494 0.827999H114.32V4.018H112.494V0.827999ZM110.536 18.78H123.824V20.276H110.536V18.78ZM110.536 14.578H112.362V19.418H110.536V14.578ZM148.433 3.842H151.887V5.382H148.433V3.842ZM148.433 8.11H151.887V9.628H148.433V8.11ZM147.157 0.827999H148.983V12.642H147.157V0.827999ZM136.069 13.588H148.983V20.716H147.157V15.062H136.069V13.588ZM139.105 1.994C142.097 1.994 144.297 3.93 144.297 6.724C144.297 9.496 142.097 11.41 139.105 11.41C136.113 11.41 133.913 9.496 133.913 6.724C133.913 3.93 136.113 1.994 139.105 1.994ZM139.105 3.556C137.125 3.556 135.695 4.832 135.695 6.724C135.695 8.594 137.125 9.892 139.105 9.892C141.085 9.892 142.515 8.594 142.515 6.724C142.515 4.832 141.085 3.556 139.105 3.556ZM153.777 10.794H171.817V12.29H153.777V10.794ZM161.851 7.78H163.655V11.476H161.851V7.78ZM161.829 1.136H163.413V2.016C163.413 5.602 159.607 8.154 155.559 8.814L154.855 7.362C158.419 6.878 161.829 4.678 161.829 2.016V1.136ZM162.115 1.136H163.677V2.016C163.677 4.678 167.109 6.878 170.651 7.362L169.969 8.814C165.943 8.132 162.115 5.602 162.115 2.016V1.136ZM155.779 14.226H169.529V20.716H167.703V15.7H155.779V14.226ZM185.096 2.544H186.592V6.108C186.592 10.684 184.128 14.93 180.872 16.58L179.75 15.084C182.698 13.676 185.096 9.87 185.096 6.108V2.544ZM185.404 2.544H186.9V6.108C186.9 9.738 189.276 13.39 192.224 14.754L191.124 16.206C187.89 14.622 185.404 10.53 185.404 6.108V2.544ZM194.292 0.806H196.118V20.738H194.292V0.806ZM213.694 0.827999H215.52V15.37H213.694V0.827999ZM214.948 6.856H218.468V8.374H214.948V6.856ZM208.26 2.368H210.196C210.196 7.516 206.588 11.278 200.89 13.104L200.098 11.608C205.114 10.068 208.26 6.988 208.26 3.16V2.368ZM200.912 2.368H209.184V3.864H200.912V2.368ZM203.112 18.78H216.4V20.276H203.112V18.78ZM203.112 13.896H204.938V19.374H203.112V13.896ZM229.312 1.158C233.69 1.158 236.308 2.39 236.308 4.612C236.308 6.834 233.69 8.066 229.312 8.066C224.912 8.066 222.316 6.834 222.316 4.612C222.316 2.39 224.912 1.158 229.312 1.158ZM229.312 2.544C226.056 2.544 224.186 3.292 224.186 4.612C224.186 5.932 226.056 6.68 229.312 6.68C232.546 6.68 234.416 5.932 234.416 4.612C234.416 3.292 232.546 2.544 229.312 2.544ZM220.314 9.386H238.288V10.86H220.314V9.386ZM222.492 12.554H236V17.042H224.34V19.462H222.536V15.722H234.196V13.962H222.492V12.554ZM222.536 19.066H236.594V20.496H222.536V19.066ZM260.411 0.827999H262.215V20.716H260.411V0.827999ZM261.181 8.594H264.855V10.112H261.181V8.594ZM246.749 2.676H248.311V7.78H250.731V2.676H252.249V15.898H246.749V2.676ZM248.311 9.232V14.402H250.731V9.232H248.311ZM253.305 2.676H254.845V7.78H257.199V2.676H258.739V15.898H253.305V2.676ZM254.845 9.232V14.402H257.199V9.232H254.845ZM266.635 16.69H284.653V18.23H266.635V16.69ZM268.813 2.346H282.431V8.374H270.683V12.356H268.879V6.922H280.627V3.842H268.813V2.346ZM268.879 11.586H282.893V13.082H268.879V11.586ZM302.009 0.827999H303.769V20.716H302.009V0.827999ZM293.385 8.946H298.401V10.42H293.385V8.946ZM297.873 1.334H299.589V19.704H297.873V1.334ZM293.627 3.336H295.387C295.387 8.55 293.297 13.236 287.929 16.426L286.851 15.128C291.537 12.312 293.627 8.352 293.627 3.666V3.336ZM287.731 3.336H294.309V4.832H287.731V3.336ZM318.126 10.156H319.952V12.708H318.126V10.156ZM326.508 0.849999H328.334V14.182H326.508V0.849999ZM327.564 6.856H331.238V8.374H327.564V6.856ZM313.044 13.61L312.802 12.114C316.366 12.114 321.206 12.114 325.32 11.52L325.474 12.818C321.228 13.566 316.52 13.588 313.044 13.61ZM315.266 15.172H328.334V20.716H326.508V16.624H315.266V15.172ZM313.308 2.632H324.726V3.996H313.308V2.632ZM319.028 4.766C321.822 4.766 323.648 5.888 323.648 7.714C323.648 9.54 321.822 10.662 319.028 10.662C316.212 10.662 314.386 9.54 314.386 7.714C314.386 5.888 316.212 4.766 319.028 4.766ZM319.028 6.02C317.246 6.02 316.102 6.658 316.102 7.714C316.102 8.726 317.246 9.386 319.028 9.386C320.788 9.386 321.932 8.726 321.932 7.714C321.932 6.658 320.788 6.02 319.028 6.02ZM318.126 0.673999H319.952V3.292H318.126V0.673999ZM347.626 0.849999H349.474V15.37H347.626V0.849999ZM336.692 18.78H350.068V20.276H336.692V18.78ZM336.692 13.874H338.496V19.286H336.692V13.874ZM338.804 2.214C341.774 2.214 343.974 4.238 343.974 7.12C343.974 9.98 341.774 12.026 338.804 12.026C335.834 12.026 333.612 9.98 333.612 7.12C333.612 4.238 335.834 2.214 338.804 2.214ZM338.804 3.798C336.868 3.798 335.394 5.162 335.394 7.12C335.394 9.056 336.868 10.42 338.804 10.42C340.74 10.42 342.214 9.056 342.214 7.12C342.214 5.162 340.74 3.798 338.804 3.798ZM367.007 0.761999H368.833V11.74H367.007V0.761999ZM368.063 5.536H371.781V7.076H368.063V5.536ZM356.205 12.752H368.833V17.196H358.053V19.616H356.249V15.876H367.051V14.138H356.205V12.752ZM356.249 19.088H369.559V20.496H356.249V19.088ZM353.455 2.61H365.203V4.04H353.455V2.61ZM359.329 4.92C362.189 4.92 364.081 6.174 364.081 8.198C364.081 10.2 362.189 11.432 359.329 11.432C356.425 11.432 354.555 10.2 354.555 8.198C354.555 6.174 356.425 4.92 359.329 4.92ZM359.329 6.262C357.481 6.262 356.293 7.01 356.293 8.198C356.293 9.364 357.481 10.112 359.329 10.112C361.155 10.112 362.343 9.364 362.343 8.198C362.343 7.01 361.155 6.262 359.329 6.262ZM358.405 0.607999H360.231V3.6H358.405V0.607999ZM387.501 1.532H389.107V2.632C389.107 6.438 385.235 9.166 381.099 9.87L380.373 8.396C384.003 7.846 387.501 5.47 387.501 2.632V1.532ZM387.831 1.532H389.415V2.632C389.415 5.404 392.957 7.846 396.543 8.396L395.817 9.87C391.725 9.166 387.831 6.394 387.831 2.632V1.532ZM387.501 13.148H389.305V20.716H387.501V13.148ZM379.471 12.026H397.445V13.544H379.471V12.026ZM410.482 13.06H411.89V14.138C411.89 16.734 410.262 19.352 407.402 20.452L406.478 19.088C408.986 18.186 410.482 16.052 410.482 14.138V13.06ZM410.878 13.06H412.242V14.138C412.242 16.14 413.43 18.274 415.806 19.242L415.036 20.628C412.176 19.506 410.878 16.778 410.878 14.138V13.06ZM417.83 13.06H419.194V14.138C419.194 16.47 417.874 19.418 415.036 20.628L414.266 19.242C416.62 18.164 417.83 15.854 417.83 14.138V13.06ZM418.204 13.06H419.612V14.138C419.612 16.184 421.086 18.23 423.616 19.088L422.692 20.452C419.788 19.396 418.204 16.888 418.204 14.138V13.06ZM419.986 0.849999H421.834V12.202H419.986V0.849999ZM411.164 1.994C414.178 1.994 416.334 3.886 416.334 6.636C416.334 9.386 414.178 11.256 411.164 11.256C408.15 11.256 405.972 9.386 405.972 6.636C405.972 3.886 408.15 1.994 411.164 1.994ZM411.164 3.512C409.184 3.512 407.754 4.788 407.754 6.636C407.754 8.484 409.184 9.738 411.164 9.738C413.144 9.738 414.574 8.484 414.574 6.636C414.574 4.788 413.144 3.512 411.164 3.512ZM431.072 2.346C433.954 2.346 436.022 5.052 436.022 9.276C436.022 13.522 433.954 16.228 431.072 16.228C428.168 16.228 426.122 13.522 426.122 9.276C426.122 5.052 428.168 2.346 431.072 2.346ZM431.072 3.996C429.158 3.996 427.86 6.064 427.86 9.276C427.86 12.51 429.158 14.622 431.072 14.622C432.986 14.622 434.284 12.51 434.284 9.276C434.284 6.064 432.986 3.996 431.072 3.996ZM440.334 0.806H442.138V20.738H440.334V0.806ZM435.428 8.396H441.126V9.892H435.428V8.396ZM450.408 11.058H452.212V17.02H450.408V11.058ZM457.756 11.058H459.582V17.02H457.756V11.058ZM446.008 16.668H464.026V18.186H446.008V16.668ZM454.984 2.082C459.186 2.082 462.2 4.084 462.2 7.208C462.2 10.31 459.186 12.312 454.984 12.312C450.76 12.312 447.746 10.31 447.746 7.208C447.746 4.084 450.76 2.082 454.984 2.082ZM454.984 3.534C451.794 3.534 449.506 4.986 449.506 7.208C449.506 9.408 451.794 10.86 454.984 10.86C458.174 10.86 460.44 9.408 460.44 7.208C460.44 4.986 458.174 3.534 454.984 3.534ZM469.662 3L469.459 14.3984H467.295L467.092 3H469.662ZM468.381 19.1484C467.949 19.1484 467.579 18.9974 467.271 18.6953C466.964 18.388 466.813 18.0182 466.818 17.5859C466.813 17.1589 466.964 16.7943 467.271 16.4922C467.579 16.1849 467.949 16.0312 468.381 16.0312C468.803 16.0312 469.167 16.1849 469.475 16.4922C469.782 16.7943 469.938 17.1589 469.943 17.5859C469.938 17.8724 469.863 18.1354 469.717 18.375C469.576 18.6094 469.389 18.7969 469.154 18.9375C468.92 19.0781 468.662 19.1484 468.381 19.1484Z" fill="#575757"/>
</svg>
