<svg width="411" height="43" viewBox="0 0 411 43" fill="none" xmlns="http://www.w3.org/2000/svg">
<path d="M14.6955 18.24H2.11555V14.18H12.5155V12.72H2.05555V11.48H14.0355V15.32H3.65555V16.98H14.6955V18.24ZM14.4155 7.56H1.69555V6.3H4.47555L4.03555 3.74L5.61555 3.54L5.91555 6.3H10.1755L10.5355 3.5L12.1155 3.7L11.6355 6.3H14.4155V7.56ZM15.9755 10.14H0.195547V8.86H15.9755V10.14ZM14.4155 2.86H1.67555V1.6H14.4155V2.86ZM32.2402 18.4H30.7402V9.18H28.4602V17.5H26.9602V1.34H28.4602V7.9H30.7402V0.92H32.2402V18.4ZM25.9202 12.34L26.0802 13.6C24.2202 13.94 21.3402 14.18 19.1602 14.18H18.0202V7.6H23.2402V4.04H17.9802V2.78H24.7602V8.86H19.5402V12.9C21.1202 12.9 23.9802 12.74 25.9202 12.34ZM50.5849 15.82H34.8049V14.54H50.5849V15.82ZM48.3249 2.88C48.3249 6.9 48.0849 10.54 47.5449 13.22L46.0249 13.02C46.5049 10.8 46.7649 7 46.7649 4.14H36.4449V2.88H48.3249ZM65.5496 0.92V8.2H68.4096V9.5H65.5496V18.4H64.0296V0.92H65.5496ZM61.0096 2.8C60.9096 8.48 57.6296 12.58 53.1296 14.92L52.1896 13.72C56.5496 11.7 59.0496 8.02 59.3696 4.08H52.7896V2.8H61.0096ZM85.0282 13.16L84.1082 14.3C82.4682 13.26 80.3282 11.06 79.7082 8.98C79.1082 11.1 77.4082 13.26 75.3082 14.72L74.3082 13.58C76.8882 12.06 78.9082 8.98 78.9082 5.84V4.04H74.8682V2.76H84.5282V4.04H80.4882V5.8C80.4882 9.06 82.6282 11.8 85.0282 13.16ZM90.9482 9.3H88.1082V18.4H86.5882V0.92H88.1082V8.02H90.9482V9.3ZM105.873 15.34C105.873 17.3 103.693 18.4 99.8529 18.4C96.0329 18.4 93.8729 17.28 93.8729 15.34C93.8729 13.44 96.0329 12.3 99.8529 12.3C103.693 12.3 105.873 13.36 105.873 15.34ZM105.853 7.54H100.613V9.76H107.753V11.02H91.9729V9.76H99.0929V7.54H93.8929V1.76H105.773V3.02H95.4329V6.28H105.853V7.54ZM99.8529 13.54C97.1129 13.54 95.4329 14.22 95.4329 15.34C95.4329 16.5 97.1129 17.14 99.8529 17.14C102.633 17.14 104.313 16.5 104.313 15.34C104.313 14.22 102.633 13.54 99.8529 13.54ZM125.058 16H109.278V14.72H125.058V16ZM123.518 6.86C123.518 9.54 120.978 11.28 117.138 11.28C113.338 11.28 110.798 9.54 110.798 6.86C110.798 4.2 113.338 2.44 117.138 2.44C120.998 2.44 123.518 4.2 123.518 6.86ZM121.998 6.88C121.998 4.98 120.078 3.72 117.138 3.72C114.238 3.72 112.318 4.98 112.318 6.88C112.318 8.74 114.238 9.98 117.138 9.98C120.058 9.98 121.998 8.74 121.998 6.88ZM142.362 16.18H126.582V14.9H133.682V11.92H128.522V6.46H138.882V3.66H128.502V2.38H140.402V7.72H130.042V10.64H140.902V11.92H135.202V14.9H142.362V16.18ZM162.581 0.92V8.2H165.441V9.5H162.581V18.4H161.061V0.92H162.581ZM158.041 2.8C157.941 8.48 154.661 12.58 150.161 14.92L149.221 13.72C153.581 11.7 156.081 8.02 156.401 4.08H149.821V2.8H158.041ZM182.226 10.34H166.446V9.08H182.226V10.34ZM180.406 7.18H168.646V1.38H170.166V5.92H180.406V7.18ZM180.506 15.04C180.506 17.14 178.166 18.3 174.366 18.3C170.546 18.3 168.246 17.14 168.246 15.04C168.246 12.96 170.546 11.8 174.346 11.8C178.166 11.8 180.506 12.96 180.506 15.04ZM174.346 13.04C171.606 13.04 169.786 13.68 169.786 15.04C169.786 16.4 171.606 17.04 174.346 17.04C177.126 17.04 178.966 16.4 178.966 15.04C178.966 13.68 177.126 13.04 174.346 13.04ZM199.85 8.12H197.19V13.82H195.67V0.92H197.19V6.84H199.85V8.12ZM197.87 17.84H186.23V13.36H187.75V16.56H197.87V17.84ZM191.21 2.88H186.17V1.54H191.21V2.88ZM193.91 5.46H183.67V4.2H193.91V5.46ZM192.91 9.46C192.91 11.3 191.15 12.52 188.79 12.52C186.47 12.52 184.69 11.3 184.69 9.46C184.69 7.58 186.45 6.4 188.79 6.4C191.15 6.4 192.91 7.58 192.91 9.46ZM191.47 9.46C191.47 8.3 190.21 7.6 188.79 7.6C187.39 7.6 186.13 8.3 186.13 9.46C186.13 10.6 187.39 11.3 188.79 11.3C190.21 11.3 191.47 10.6 191.47 9.46ZM220.709 18.4H219.169V0.92H220.709V18.4ZM216.949 13.04L215.989 14.2C214.409 13.12 212.349 10.96 211.669 8.86C211.029 11.04 209.229 13.18 207.209 14.62L206.209 13.48C208.769 11.88 210.869 8.7 210.869 5.6V2.44H212.409V5.54C212.409 8.74 214.529 11.6 216.949 13.04ZM239.714 7.68H237.054V14H235.534V0.92H237.054V6.4H239.714V7.68ZM237.594 17.96H226.054V12.56H227.574V16.7H237.594V17.96ZM224.214 2.46H232.174C231.974 7.22 228.734 10.56 224.274 11.98L223.494 10.7C227.254 9.74 230.074 6.96 230.514 3.74H224.214V2.46ZM255.658 18.4H254.158V9.08H251.818V17.5H250.338V1.34H251.818V7.8H254.158V0.92H255.658V18.4ZM242.978 12.58H243.498C245.258 12.58 247.878 12.46 249.358 12.14L249.498 13.38C247.838 13.7 244.898 13.9 242.618 13.9H241.458V3.06H248.238V4.34H242.978V12.58ZM274.003 10.24H258.223V9.06H274.003V10.24ZM272.683 18.08H260.043V14.2H270.623V12.74H260.063V11.62H272.143V15.28H261.563V16.88H272.683V18.08ZM272.383 7.68H260.223V4.06H270.523V2.7H260.203V1.5H272.043V5.16H261.743V6.54H272.383V7.68ZM296.561 16.18H280.781V14.9H287.881V10.72H282.681V2.48H294.621V10.72H289.401V14.9H296.561V16.18ZM293.101 9.46V3.74H284.201V9.46H293.101ZM314.386 9.24H311.526V18.4H310.006V0.92H311.526V7.96H314.386V9.24ZM298.326 8.4C298.326 4.72 299.966 2.24 302.806 2.24C305.646 2.24 307.266 4.72 307.266 8.42C307.266 12.12 305.646 14.6 302.806 14.6C299.966 14.6 298.326 12.12 298.326 8.4ZM305.786 8.42C305.786 5.54 304.626 3.56 302.806 3.56C300.986 3.56 299.806 5.54 299.806 8.42C299.806 11.28 300.986 13.28 302.806 13.28C304.626 13.28 305.786 11.28 305.786 8.42ZM329.731 18.4H328.211V8.44H324.131V7.16H328.211V0.92H329.731V18.4ZM325.851 13.06L324.911 14.22C323.311 13.14 321.291 10.92 320.591 8.82C319.971 11 318.251 13.16 316.231 14.62L315.231 13.48C317.771 11.88 319.791 8.78 319.791 5.68V2.44H321.371V5.62C321.371 8.82 323.451 11.66 325.851 13.06ZM351.809 11.38H346.569V14.94H353.729V16.22H337.949V14.94H345.049V11.38H339.849V2.12H341.389V5.34H350.289V2.12H351.809V11.38ZM350.289 10.12V6.6H341.389V10.12H350.289ZM368.074 6.08H364.534V4.82H368.074V0.92H369.594V18.4H368.074V11.7H364.534V10.44H368.074V6.08ZM355.354 8.32C355.354 4.62 356.914 2.14 359.674 2.14C362.474 2.14 364.014 4.62 364.014 8.34C364.014 12.04 362.474 14.5 359.674 14.5C356.914 14.5 355.354 12.04 355.354 8.32ZM362.514 8.34C362.514 5.46 361.394 3.46 359.674 3.46C357.994 3.46 356.854 5.46 356.854 8.34C356.854 11.18 357.994 13.18 359.674 13.18C361.394 13.18 362.514 11.18 362.514 8.34ZM381.279 14.08V12.84H385.499V0.92H387.019V18.4H385.499V14.08H381.279ZM382.919 3.44H378.999V3.48C378.999 5.96 381.759 7.14 383.399 7.5L382.719 8.74C381.099 8.38 378.939 7.04 378.259 5.76C377.759 7.1 375.699 8.54 373.759 9.12L373.079 7.98C374.919 7.52 377.499 6.02 377.499 3.5V3.44H373.379V2.18H382.919V3.44ZM378.919 17.88H377.399V11.52C375.799 11.58 374.099 11.62 372.619 11.66L372.399 10.34C374.459 10.34 376.339 10.3 378.259 10.24C380.519 10.14 382.679 10 384.079 9.84L384.199 11.04C382.959 11.18 381.039 11.34 378.919 11.46V17.88ZM404.044 6.62C404.044 9.32 401.524 11.12 397.724 11.12C393.964 11.12 391.444 9.32 391.444 6.62C391.444 3.92 393.964 2.08 397.724 2.08C401.544 2.08 404.044 3.92 404.044 6.62ZM402.584 6.62C402.584 4.66 400.664 3.34 397.724 3.34C394.824 3.34 392.904 4.66 392.904 6.62C392.904 8.58 394.824 9.9 397.724 9.9C400.644 9.9 402.584 8.58 402.584 6.62ZM405.644 16.18H389.864V14.9H393.764V11.64L395.284 11.6V14.9H400.164V11.6L401.684 11.64V14.9H405.644V16.18ZM408.428 13.14L408.188 2.02H410.008L409.768 13.14H408.428ZM408.248 16.54V14.76H409.968V16.54H408.248ZM68.5788 33.76C68.5788 35.56 66.6788 36.62 63.6988 36.74V39.06H70.8388V40.34H55.0588V39.06H62.1788V36.74C59.2188 36.6 57.3588 35.54 57.3588 33.76C57.3588 31.82 59.5588 30.76 62.9588 30.76C66.3788 30.76 68.5788 31.82 68.5788 33.76ZM66.9788 33.76C66.9788 32.52 65.0188 32 62.9588 32C60.9188 32 58.9588 32.52 58.9588 33.76C58.9588 35 60.9188 35.52 62.9588 35.52C65.0388 35.52 66.9788 35 66.9788 33.76ZM70.0988 29.82H55.8188V28.54H70.0988V29.82ZM66.0788 27.1H59.7788V25.78H66.0788V27.1ZM87.5635 33.92L86.7235 35.2C83.7835 34.32 80.9435 31.84 80.2235 30.06C79.6035 31.84 76.8235 34.32 73.7835 35.18L72.9835 33.88C75.8235 33.32 79.4635 30.62 79.4635 27.76V26.38H81.0435V27.76C81.0435 30.62 84.8835 33.32 87.5635 33.92ZM88.1435 40H72.3635V38.72H88.1435V40ZM103.048 31.7H93.1282V34.42H103.568V35.7H91.5882V26.6H103.388V27.88H93.1282V30.42H103.048V31.7ZM105.448 40.18H89.6682V38.9H105.448V40.18ZM120.413 24.92V32.2H123.273V33.5H120.413V42.4H118.893V24.92H120.413ZM115.873 26.8C115.773 32.48 112.493 36.58 107.993 38.92L107.053 37.72C111.413 35.7 113.913 32.02 114.233 28.08H107.653V26.8H115.873ZM134.251 25.88C136.731 25.88 138.771 27.56 138.771 30.08C138.771 32.66 136.731 34.24 134.251 34.24C131.751 34.24 129.711 32.66 129.711 30.1C129.711 27.56 131.751 25.88 134.251 25.88ZM134.251 27.12C132.491 27.12 131.191 28.36 131.191 30.08C131.191 31.82 132.491 33 134.251 33C136.071 33 137.311 31.82 137.311 30.1C137.311 28.36 136.091 27.12 134.251 27.12ZM145.631 31.48V32.76H142.971V35.26H141.451V24.92H142.971V27.66H145.631V28.94H142.971V31.48H145.631ZM142.991 42.4H141.451V37.38H131.711V36.12H142.991V42.4ZM162.616 34.98H146.836V33.7H153.956V30.92H155.476V33.7H162.616V34.98ZM161.896 30.52L161.196 31.84C158.296 31.3 155.556 29.42 154.716 27.74C154.016 29.42 151.356 31.3 148.356 31.84L147.636 30.56C150.576 30.24 153.956 28.24 153.956 25.78V25.14H155.536V25.78C155.536 28.24 159.276 30.28 161.896 30.52ZM148.536 36.84H160.676V42.52H159.156V38.1H148.536V36.84ZM183.675 33.76H182.155V24.92H183.675V33.76ZM184.315 42.16H172.355V37.74H182.155V35.92H172.295V34.68H183.675V38.92H173.875V40.92H184.315V42.16ZM174.415 25.46C176.915 25.46 178.935 27.04 178.935 29.42C178.935 31.78 176.915 33.32 174.415 33.32C171.915 33.32 169.855 31.8 169.855 29.42C169.855 27.06 171.895 25.46 174.415 25.46ZM174.415 26.78C172.695 26.78 171.335 27.84 171.335 29.4C171.335 30.96 172.675 32 174.415 32C176.235 32 177.455 30.96 177.455 29.42C177.455 27.86 176.235 26.78 174.415 26.78ZM201.119 39.08C201.119 41.12 198.999 42.4 195.239 42.4C191.499 42.4 189.399 41.12 189.399 39.08C189.399 37.02 191.499 35.74 195.239 35.74C198.999 35.74 201.119 37.02 201.119 39.08ZM187.159 27.66V26.38H196.619V27.66H192.679C192.679 28 192.679 28.4 192.699 28.6C192.839 30.98 195.079 32.88 197.219 33.52L196.319 34.74C194.499 34.02 192.619 32.38 191.899 30.8C191.419 32.44 189.319 34.54 187.439 35.36L186.619 34.14C188.819 33.3 191.039 31.08 191.119 28.6C191.139 28.4 191.139 27.98 191.139 27.66H187.159ZM195.239 37.02C192.559 37.02 190.939 37.76 190.939 39.08C190.939 40.38 192.559 41.12 195.239 41.12C197.979 41.12 199.559 40.38 199.559 39.08C199.559 37.76 197.979 37.02 195.239 37.02ZM199.459 30.74H195.939V29.46H199.459V24.92H200.979V35.78H199.459V30.74ZM219.784 33.76H204.004V32.48H219.784V33.76ZM218.024 28.2C218.024 30.12 215.704 31.22 211.904 31.22C208.144 31.22 205.824 30.12 205.824 28.2C205.824 26.28 208.144 25.16 211.904 25.16C215.704 25.16 218.024 26.28 218.024 28.2ZM211.904 26.4C209.164 26.4 207.384 27.1 207.384 28.2C207.384 29.28 209.164 29.96 211.904 29.96C214.684 29.96 216.484 29.28 216.484 28.2C216.484 27.1 214.684 26.4 211.904 26.4ZM218.384 42.24H205.844V38.08H216.284V36.54H205.804V35.32H217.804V39.24H207.364V41H218.384V42.24ZM227.423 29.82V28.56H237.343V29.82H233.103V29.88C233.103 31.82 235.423 33.54 237.723 33.96L237.083 35.18C235.223 34.74 233.023 33.34 232.323 31.82C231.863 33.3 229.743 35.02 227.623 35.68L226.903 34.46C229.403 33.82 231.543 31.92 231.543 29.86V29.82H227.423ZM241.003 42.4H239.483V24.92H241.003V42.4ZM238.483 38.62C237.103 38.76 234.423 38.94 232.283 39.06C230.343 39.18 228.383 39.24 226.903 39.24L226.643 37.9C227.983 37.92 229.743 37.9 231.603 37.82V34.36H233.123V37.74C235.083 37.66 237.243 37.52 238.363 37.36L238.483 38.62ZM229.863 26.9V25.54H234.723V26.9H229.863ZM257.887 39.34C257.887 41.26 255.667 42.36 251.747 42.36C247.847 42.36 245.647 41.24 245.647 39.34C245.647 37.48 247.847 36.36 251.747 36.36C255.667 36.36 257.887 37.4 257.887 39.34ZM258.867 30.76L258.167 32.04C255.247 31.56 252.627 30.02 251.747 28.42C251.067 30.04 248.467 31.6 245.387 32.04L244.687 30.78C247.387 30.52 250.367 29.14 250.887 27.08H245.307V25.82H258.207V27.08H252.647C253.207 29.16 256.427 30.52 258.867 30.76ZM251.747 37.58C248.927 37.58 247.187 38.22 247.187 39.34C247.187 40.5 248.927 41.12 251.747 41.12C254.587 41.12 256.347 40.5 256.347 39.34C256.347 38.22 254.587 37.58 251.747 37.58ZM259.647 34.94H243.867V33.66H250.987V31.02H252.507V33.66H259.647V34.94ZM277.386 35.72C276.126 35.86 274.026 36.08 271.966 36.18C269.986 36.3 267.586 36.4 266.366 36.4L266.126 35.14C267.386 35.14 269.166 35.1 270.946 35.02V33.84C269.106 33.66 267.706 32.96 267.706 31.54C267.706 29.92 269.526 29.18 271.746 29.18C273.966 29.18 275.826 29.9 275.826 31.52C275.826 32.94 274.366 33.68 272.486 33.84V34.94C274.326 34.86 276.226 34.7 277.246 34.54L277.386 35.72ZM282.546 32H279.906V36.54H278.366V24.92H279.906V30.72H282.546V32ZM268.446 37.46H279.906V42.52H278.366V38.72H268.446V37.46ZM276.786 28.6H266.746V27.36H276.786V28.6ZM274.366 31.52C274.366 30.72 273.206 30.32 271.746 30.32C270.246 30.32 269.146 30.72 269.146 31.52C269.146 32.36 270.266 32.74 271.746 32.74C273.206 32.74 274.366 32.34 274.366 31.52ZM274.166 26.4H269.366V25.14H274.166V26.4ZM298.151 39.08C298.151 41.12 296.031 42.4 292.271 42.4C288.531 42.4 286.431 41.12 286.431 39.08C286.431 37.02 288.531 35.74 292.271 35.74C296.031 35.74 298.151 37.02 298.151 39.08ZM284.191 27.66V26.38H293.651V27.66H289.711C289.711 28 289.711 28.4 289.731 28.6C289.871 30.98 292.111 32.88 294.251 33.52L293.351 34.74C291.531 34.02 289.651 32.38 288.931 30.8C288.451 32.44 286.351 34.54 284.471 35.36L283.651 34.14C285.851 33.3 288.071 31.08 288.151 28.6C288.171 28.4 288.171 27.98 288.171 27.66H284.191ZM292.271 37.02C289.591 37.02 287.971 37.76 287.971 39.08C287.971 40.38 289.591 41.12 292.271 41.12C295.011 41.12 296.591 40.38 296.591 39.08C296.591 37.76 295.011 37.02 292.271 37.02ZM296.491 30.74H292.971V29.46H296.491V24.92H298.011V35.78H296.491V30.74ZM317.135 31.14H314.475V35.06H312.955V24.92H314.475V29.86H317.135V31.14ZM314.475 42.28H303.475V35.92H304.995V37.78H312.955V35.9H314.475V42.28ZM312.955 41V39.04H304.995V41H312.955ZM308.575 26.44H303.535V25.16H308.575V26.44ZM311.135 28.9H300.955V27.66H311.135V28.9ZM310.115 32.44C310.115 34.16 308.415 35.26 306.055 35.26C303.675 35.26 301.995 34.16 301.995 32.44C301.995 30.68 303.635 29.6 306.055 29.6C308.415 29.6 310.115 30.68 310.115 32.44ZM308.575 32.44C308.575 31.42 307.415 30.82 306.055 30.82C304.695 30.82 303.495 31.42 303.495 32.44C303.495 33.44 304.715 34.06 306.055 34.06C307.415 34.06 308.575 33.44 308.575 32.44ZM332.5 24.92V42.4H331V24.92H332.5ZM329.22 35.98L329.36 37.3C327.34 37.76 322.78 38.1 320.1 38.1H319.32V26.74H320.86V36.76C323.1 36.76 327.14 36.44 329.22 35.98ZM349.125 24.92V31.86H351.965V33.14H349.125V42.4H347.605V24.92H349.125ZM337.865 36.82H338.865C341.125 36.82 344.585 36.62 346.265 36.26L346.425 37.52C344.545 37.88 341.085 38.12 338.045 38.12H336.325V26.74H344.625V28.02H337.865V36.82ZM353.029 40.66V38.88H354.769V40.66H353.029Z" fill="black"/>
</svg>
