<svg width="31" height="32" viewBox="0 0 31 32" fill="none" xmlns="http://www.w3.org/2000/svg">
<path d="M14.427 24.745H18.127V7.059H14.575C14.0817 7.52767 13.465 7.99633 12.725 8.465C12.0097 8.93367 11.245 9.353 10.431 9.723V13.349C11.0477 13.0777 11.7137 12.757 12.429 12.387C13.169 11.9923 13.835 11.536 14.427 11.018V24.745ZM15.5 31.035C13.4033 31.035 11.43 30.6403 9.58 29.851C7.73 29.0617 6.102 27.9763 4.696 26.595C3.31467 25.189 2.22933 23.561 1.44 21.711C0.650667 19.861 0.256 17.8877 0.256 15.791C0.256 13.6943 0.650667 11.7333 1.44 9.908C2.22933 8.058 3.31467 6.43 4.696 5.024C6.102 3.618 7.73 2.52033 9.58 1.731C11.43 0.941665 13.4033 0.546998 15.5 0.546998C17.6213 0.546998 19.5947 0.941665 21.42 1.731C23.27 2.52033 24.8857 3.618 26.267 5.024C27.673 6.43 28.7707 8.058 29.56 9.908C30.3493 11.7333 30.744 13.6943 30.744 15.791C30.744 17.8877 30.3493 19.861 29.56 21.711C28.7707 23.561 27.673 25.189 26.267 26.595C24.8857 27.9763 23.27 29.0617 21.42 29.851C19.5947 30.6403 17.6213 31.035 15.5 31.035Z" fill="black"/>
</svg>
