<svg width="330" height="79" viewBox="0 0 330 79" fill="none" xmlns="http://www.w3.org/2000/svg">
<path d="M23.0509 0.216H27.2429V29.848H23.0509V0.216ZM24.9389 11.16H30.1549V14.648H24.9389V11.16ZM2.98688 2.904H6.47488V9.72H8.23488V2.904H11.6589V23H2.98688V2.904ZM6.47488 13.048V19.576H8.23488V13.048H6.47488ZM12.8109 2.904H16.2349V9.72H18.0269V2.904H21.5149V23H12.8109V2.904ZM16.2349 13.048V19.576H18.0269V13.048H16.2349ZM32.2964 23.032H59.1124V26.52H32.2964V23.032ZM35.3044 2.2H56.1044V12.088H39.5924V17.048H35.3684V8.76H51.8804V5.592H35.3044V2.2ZM35.3684 15.384H56.7764V18.776H35.3684V15.384ZM64.4539 2.712H83.2379V6.136H64.4539V2.712ZM61.7339 22.84H88.5179V26.296H61.7339V22.84ZM71.2059 12.664H75.4619V24.536H71.2059V12.664ZM81.7019 2.712H85.9579V5.56C85.9579 9.272 85.9579 13.432 84.7739 19.768L80.5179 19.288C81.7019 13.4 81.7019 9.112 81.7019 5.56V2.712ZM96.8026 23.8182L96.6548 25.0682C96.5488 26.0227 96.3594 26.9924 96.0866 27.9773C95.8215 28.9697 95.5412 29.8826 95.2457 30.7159C94.9503 31.5492 94.7116 32.2045 94.5298 32.6818H91.7571C91.8632 32.2197 92.0071 31.5909 92.1889 30.7955C92.3783 30 92.5601 29.1061 92.7344 28.1136C92.9086 27.1212 93.026 26.1136 93.0866 25.0909L93.1662 23.8182H96.8026ZM128.34 0.216H132.596V22.04H128.34V0.216ZM108.532 2.328H124.18V5.72H108.532V2.328ZM108.212 18.52L107.796 15.032C112.564 15.032 119.22 14.968 124.564 14.36L124.788 17.464C119.284 18.392 112.916 18.52 108.212 18.52ZM110.868 5.304H114.964V15.448H110.868V5.304ZM117.748 5.304H121.812V15.448H117.748V5.304ZM124.756 5.4H130.644V8.792H124.756V5.4ZM124.756 11.352H130.644V14.776H124.756V11.352ZM113.012 25.944H133.268V29.336H113.012V25.944ZM113.012 20.44H117.3V28.504H113.012V20.44ZM157.649 0.183998H161.905V29.912H157.649V0.183998ZM138.833 19.544H141.457C146.705 19.544 150.897 19.352 155.601 18.552L156.017 21.976C151.217 22.84 146.865 23 141.457 23H138.833V19.544ZM138.801 2.712H152.785V14.168H143.153V20.824H138.833V10.808H148.433V6.104H138.801V2.712ZM185.743 0.247999H189.999V22.392H185.743V0.247999ZM188.783 9.272H193.935V12.76H188.783V9.272ZM166.671 3.32H184.111V6.648H166.671V3.32ZM175.407 7.704C179.663 7.704 182.671 10.04 182.671 13.432C182.671 16.824 179.663 19.128 175.407 19.128C171.119 19.128 168.111 16.824 168.111 13.432C168.111 10.04 171.119 7.704 175.407 7.704ZM175.407 10.936C173.519 10.936 172.207 11.832 172.207 13.432C172.207 15.032 173.519 15.896 175.407 15.896C177.295 15.896 178.607 15.032 178.607 13.432C178.607 11.832 177.295 10.936 175.407 10.936ZM173.263 0.183998H177.519V4.952H173.263V0.183998ZM170.895 25.944H191.055V29.336H170.895V25.944ZM170.895 20.728H175.151V27.416H170.895V20.728ZM226.062 4.056H231.182V7.544H226.062V4.056ZM226.062 10.488H231.182V13.976H226.062V10.488ZM223.118 0.216H227.374V17.688H223.118V0.216ZM207.598 18.904H227.374V29.848H223.118V22.296H207.598V18.904ZM212.302 1.816C216.878 1.816 220.366 4.856 220.366 9.08C220.366 13.304 216.878 16.312 212.302 16.312C207.726 16.312 204.238 13.304 204.238 9.08C204.238 4.856 207.726 1.816 212.302 1.816ZM212.302 5.432C210.062 5.432 208.398 6.744 208.398 9.08C208.398 11.416 210.062 12.76 212.302 12.76C214.542 12.76 216.206 11.416 216.206 9.08C216.206 6.744 214.542 5.432 212.302 5.432ZM233.483 14.584H260.299V17.976H233.483V14.584ZM244.715 10.744H248.939V16.056H244.715V10.744ZM244.651 0.727999H248.299V1.624C248.299 7.096 243.947 11.384 236.395 12.472L234.827 9.144C241.483 8.344 244.651 4.952 244.651 1.624V0.727999ZM245.355 0.727999H249.003V1.624C249.003 5.08 252.107 8.344 258.827 9.144L257.259 12.472C249.707 11.352 245.355 7.224 245.355 1.624V0.727999ZM236.459 20.056H257.035V29.848H252.779V23.384H236.459V20.056ZM277.386 2.968H280.842V4.856C280.842 10.264 278.186 15.096 272.426 16.856L270.346 13.496C275.274 11.992 277.386 8.408 277.386 4.856V2.968ZM278.218 2.968H281.706V4.824C281.706 8.12 283.722 11.512 288.522 12.92L286.538 16.216C280.874 14.584 278.218 9.944 278.218 4.824V2.968ZM271.466 1.816H287.498V5.208H271.466V1.816ZM289.93 0.216H294.186V16.568H289.93V0.216ZM293.002 6.488H298.122V9.976H293.002V6.488ZM274.826 17.752H279.05V20.376H289.962V17.752H294.186V29.528H274.826V17.752ZM279.05 23.64V26.168H289.962V23.64H279.05ZM320.712 0.216H325V29.848H320.712V0.216ZM311.976 3.288H316.2C316.2 12.344 313.128 19.768 302.6 24.856L300.392 21.464C308.904 17.368 311.976 11.992 311.976 4.056V3.288ZM301.96 3.288H313.992V6.648H301.96V3.288ZM2.741 50.016H24.821V53.184H2.741V50.016ZM2.965 56.96H24.597V60.128H2.965V56.96ZM6.517 51.264H10.773V59.008H6.517V51.264ZM16.789 51.264H21.045V59.008H16.789V51.264ZM0.405 61.664H27.189V64.992H0.405V61.664ZM3.477 66.624H23.957V73.984H7.701V76.736H3.509V71.136H19.765V69.664H3.477V66.624ZM3.509 75.552H24.725V78.656H3.509V75.552ZM30.6425 68.8H32.7225C36.2425 68.8 39.3465 68.736 42.9945 68.16L43.3145 71.584C39.5385 72.224 36.3385 72.32 32.7225 72.32H30.6425V68.8ZM30.6105 52.096H41.8425V63.552H34.7705V70.08H30.6425V60.192H37.7145V55.488H30.6105V52.096ZM51.2505 49.216H55.2825V78.848H51.2505V49.216ZM47.2825 60.416H52.2105V63.808H47.2825V60.416ZM44.6265 49.728H48.5625V77.44H44.6265V49.728ZM62.032 51.936H80.816V55.296H62.032V51.936ZM59.312 71.52H86.096V74.976H59.312V71.52ZM78.576 51.936H82.8V55.456C82.8 59.616 82.8 63.648 81.744 69.728L77.488 69.376C78.576 63.68 78.576 59.456 78.576 55.456V51.936ZM100.558 60.128H105.422V63.552H100.558V60.128ZM110.126 49.216H114.19V78.848H110.126V49.216ZM104.078 49.664H108.078V77.504H104.078V49.664ZM95.3735 51.296C99.3095 51.296 101.838 55.36 101.838 62.048C101.838 68.768 99.3095 72.832 95.3735 72.832C91.4695 72.832 88.9735 68.768 88.9735 62.048C88.9735 55.36 91.4695 51.296 95.3735 51.296ZM95.3735 55.296C93.7735 55.296 92.8455 57.536 92.8455 62.048C92.8455 66.592 93.7735 68.8 95.3735 68.8C97.0375 68.8 97.9655 66.592 97.9655 62.048C97.9655 57.536 97.0375 55.296 95.3735 55.296ZM133.099 58.464H140.907V61.888H133.099V58.464ZM125.035 51.488H128.491V55.776C128.491 63.232 125.963 70.112 120.395 72.896L117.739 69.472C122.795 67.136 125.035 61.408 125.035 55.776V51.488ZM125.931 51.488H129.323V55.776C129.323 61.408 131.467 66.816 136.363 68.992L133.835 72.384C128.267 69.696 125.931 63.168 125.931 55.776V51.488ZM138.795 49.184H143.019V78.912H138.795V49.184ZM169.802 53.888H176.746V57.28H169.802V53.888ZM169.578 60.032H176.522V63.424H169.578V60.032ZM176.074 49.216H180.33V66.272H176.074V49.216ZM166.41 51.232H170.954C170.954 59.296 166.41 64.48 157.418 66.944L155.754 63.584C163.274 61.632 166.41 57.92 166.41 53.28V51.232ZM157.386 51.232H169.386V54.624H157.386V51.232ZM170.506 66.656C176.522 66.656 180.522 68.96 180.522 72.672C180.522 76.384 176.522 78.72 170.506 78.72C164.49 78.72 160.49 76.384 160.49 72.672C160.49 68.96 164.49 66.656 170.506 66.656ZM170.506 69.92C166.89 69.92 164.714 70.848 164.714 72.672C164.714 74.496 166.89 75.392 170.506 75.392C174.154 75.392 176.33 74.496 176.33 72.672C176.33 70.848 174.154 69.92 170.506 69.92ZM205.512 49.216H209.768V67.104H205.512V49.216ZM201.8 57.888H207.24V61.344H201.8V57.888ZM190.024 68.352H209.768V78.528H190.024V68.352ZM205.608 71.712H194.216V75.168H205.608V71.712ZM185.064 51.776H202.376V55.136H185.064V51.776ZM193.736 56.096C197.864 56.096 200.808 58.304 200.808 61.44C200.808 64.608 197.864 66.752 193.736 66.752C189.608 66.752 186.632 64.608 186.632 61.44C186.632 58.304 189.608 56.096 193.736 56.096ZM193.736 59.264C191.911 59.264 190.696 60 190.696 61.44C190.696 62.88 191.911 63.648 193.736 63.648C195.528 63.648 196.744 62.88 196.744 61.44C196.744 60 195.528 59.264 193.736 59.264ZM191.592 48.96H195.848V54.176H191.592V48.96ZM214.373 53.664H228.549V57.056H214.373V53.664ZM221.509 58.368C225.285 58.368 228.005 61.28 228.005 65.44C228.005 69.568 225.285 72.48 221.509 72.48C217.765 72.48 215.013 69.568 215.013 65.44C215.013 61.28 217.765 58.368 221.509 58.368ZM221.509 61.92C219.909 61.92 218.789 63.2 218.789 65.44C218.789 67.68 219.909 68.928 221.509 68.928C223.109 68.928 224.261 67.68 224.261 65.44C224.261 63.2 223.109 61.92 221.509 61.92ZM235.813 49.216H239.877V78.848H235.813V49.216ZM232.261 61.248H237.157V64.672H232.261V61.248ZM229.605 49.76H233.573V77.6H229.605V49.76ZM219.429 50.016H223.621V55.808H219.429V50.016ZM243.875 71.968H270.691V75.424H243.875V71.968ZM255.107 65.632H259.363V72.8H255.107V65.632ZM246.691 51.104H250.915V55.648H263.555V51.104H267.779V66.528H246.691V51.104ZM250.915 58.976V63.136H263.555V58.976H250.915ZM284.96 59.168H289.856V62.624H284.96V59.168ZM278.624 51.776H281.888V56.768C281.888 63.488 280.032 70.048 275.296 72.96L272.736 69.76C277.088 67.072 278.624 61.792 278.624 56.768V51.776ZM279.552 51.776H282.752V56.576C282.752 61.408 284 66.336 288.032 68.96L285.728 72.288C281.024 69.376 279.552 62.976 279.552 56.576V51.776ZM294.688 49.216H298.752V78.848H294.688V49.216ZM288.672 49.664H292.64V77.504H288.672V49.664ZM308.638 64.256H312.862V72.576H308.638V64.256ZM319.39 64.256H323.646V72.576H319.39V64.256ZM302.75 71.968H329.566V75.424H302.75V71.968ZM316.126 50.656C322.494 50.656 327.198 53.792 327.198 58.624C327.198 63.456 322.494 66.56 316.126 66.56C309.726 66.56 305.054 63.456 305.054 58.624C305.054 53.792 309.726 50.656 316.126 50.656ZM316.126 53.984C311.998 53.984 309.246 55.68 309.246 58.624C309.246 61.536 311.998 63.264 316.126 63.264C320.253 63.264 323.006 61.536 323.006 58.624C323.006 55.68 320.253 53.984 316.126 53.984Z" fill="black"/>
</svg>
