<svg width="31" height="32" viewBox="0 0 31 32" fill="none" xmlns="http://www.w3.org/2000/svg">
<path d="M9.654 24.449H21.494V21.304H14.316C15.4753 20.3667 16.4743 19.528 17.313 18.788C18.1517 18.0233 18.867 17.308 19.459 16.642C20.199 15.754 20.754 14.8907 21.124 14.052C21.494 13.2133 21.679 12.35 21.679 11.462C21.679 9.80933 21.1487 8.52667 20.088 7.614C19.052 6.70133 17.6707 6.245 15.944 6.245C14.7847 6.245 13.7363 6.45467 12.799 6.874C11.8863 7.26867 11.1587 7.91 10.616 8.798C10.0733 9.66133 9.78967 10.7713 9.765 12.128H13.391C13.391 11.2153 13.5883 10.537 13.983 10.093C14.4023 9.62433 15.0067 9.39 15.796 9.39C16.536 9.39 17.091 9.58733 17.461 9.982C17.8557 10.3767 18.053 10.9193 18.053 11.61C18.053 12.2267 17.8803 12.831 17.535 13.423C17.2143 13.9903 16.7333 14.607 16.092 15.273C15.4753 15.8897 14.6243 16.679 13.539 17.641C12.4783 18.5783 11.1833 19.6883 9.654 20.971V24.449ZM15.5 31.035C13.4033 31.035 11.43 30.6403 9.58 29.851C7.73 29.0617 6.102 27.9763 4.696 26.595C3.31467 25.189 2.22933 23.561 1.44 21.711C0.650667 19.861 0.256 17.8877 0.256 15.791C0.256 13.6943 0.650667 11.7333 1.44 9.908C2.22933 8.058 3.31467 6.43 4.696 5.024C6.102 3.618 7.73 2.52033 9.58 1.731C11.43 0.941665 13.4033 0.546998 15.5 0.546998C17.6213 0.546998 19.5947 0.941665 21.42 1.731C23.27 2.52033 24.8857 3.618 26.267 5.024C27.673 6.43 28.7707 8.058 29.56 9.908C30.3493 11.7333 30.744 13.6943 30.744 15.791C30.744 17.8877 30.3493 19.861 29.56 21.711C28.7707 23.561 27.673 25.189 26.267 26.595C24.8857 27.9763 23.27 29.0617 21.42 29.851C19.5947 30.6403 17.6213 31.035 15.5 31.035Z" fill="black"/>
</svg>
