<svg width="352" height="62" viewBox="0 0 352 62" fill="none" xmlns="http://www.w3.org/2000/svg">
<g filter="url(#filter0_d_2462_835)">
<rect x="10" y="9" width="332" height="42" rx="14" fill="white"/>
<path d="M106.988 31.33H108.482V35.38H106.988V31.33ZM107.744 23.194C111.182 23.194 113.648 24.868 113.648 27.46C113.648 30.052 111.182 31.726 107.744 31.726C104.306 31.726 101.822 30.052 101.822 27.46C101.822 24.868 104.306 23.194 107.744 23.194ZM107.744 24.382C105.152 24.382 103.262 25.606 103.262 27.46C103.262 29.314 105.152 30.538 107.744 30.538C110.318 30.538 112.208 29.314 112.208 27.46C112.208 25.606 110.318 24.382 107.744 24.382ZM100.4 35.092H115.142V36.334H100.4V35.092ZM125.581 26.614H129.685V27.838H125.581V26.614ZM128.839 22.15H130.333V34.066H128.839V22.15ZM119.947 36.82H130.783V38.044H119.947V36.82ZM119.947 33.022H121.441V37.45H119.947V33.022ZM121.099 24.166H122.323V25.48C122.323 28.432 120.487 30.988 117.769 31.996L116.995 30.808C119.425 29.944 121.099 27.784 121.099 25.48V24.166ZM121.387 24.166H122.593V25.462C122.593 27.568 124.177 29.62 126.535 30.448L125.779 31.618C123.133 30.664 121.387 28.216 121.387 25.462V24.166ZM117.463 23.464H126.157V24.67H117.463V23.464ZM134.458 30.4545C134.458 28.8523 134.669 27.3778 135.091 26.0312C135.513 24.6847 136.129 23.4425 136.938 22.3047H138.69C138.374 22.7266 138.08 23.2443 137.808 23.858C137.535 24.4716 137.296 25.1449 137.092 25.8778C136.887 26.6065 136.727 27.3629 136.612 28.147C136.497 28.9268 136.44 29.696 136.44 30.4545C136.44 31.4688 136.54 32.4957 136.74 33.5355C136.94 34.5753 137.211 35.5405 137.552 36.4311C137.893 37.3217 138.272 38.0483 138.69 38.6108H136.938C136.129 37.473 135.513 36.2308 135.091 34.8842C134.669 33.5376 134.458 32.0611 134.458 30.4545ZM145.249 37.179C144.666 37.1705 144.09 37.0639 143.524 36.8594C142.961 36.6548 142.45 36.3139 141.99 35.8366C141.529 35.3594 141.161 34.718 140.884 33.9126C140.611 33.1072 140.475 32.1016 140.475 30.8956C140.475 29.7536 140.588 28.7393 140.813 27.853C141.044 26.9666 141.374 26.2188 141.804 25.6094C142.235 24.9957 142.754 24.5291 143.364 24.2095C143.973 23.8899 144.657 23.7301 145.416 23.7301C146.195 23.7301 146.888 23.8835 147.493 24.1903C148.098 24.4972 148.588 24.9212 148.963 25.4624C149.343 26.0036 149.583 26.6193 149.686 27.3097H147.736C147.604 26.7642 147.342 26.3189 146.95 25.9737C146.558 25.6286 146.046 25.456 145.416 25.456C144.457 25.456 143.709 25.8736 143.172 26.7088C142.639 27.544 142.371 28.7053 142.367 30.1925H142.463C142.688 29.8217 142.965 29.5064 143.294 29.2464C143.626 28.9822 143.997 28.7798 144.406 28.6392C144.819 28.4943 145.254 28.4219 145.71 28.4219C146.468 28.4219 147.154 28.6072 147.768 28.978C148.386 29.3445 148.878 29.8516 149.244 30.4993C149.611 31.147 149.794 31.8885 149.794 32.7237C149.794 33.5589 149.605 34.3153 149.225 34.9929C148.85 35.6705 148.322 36.2074 147.64 36.6037C146.958 36.9957 146.161 37.1875 145.249 37.179ZM145.243 35.517C145.746 35.517 146.195 35.3935 146.592 35.1463C146.988 34.8991 147.301 34.5668 147.531 34.1491C147.762 33.7315 147.877 33.2649 147.877 32.7493C147.877 32.2464 147.764 31.7884 147.538 31.375C147.316 30.9616 147.009 30.6335 146.617 30.3906C146.23 30.1477 145.786 30.0263 145.288 30.0263C144.909 30.0263 144.557 30.0987 144.233 30.2436C143.914 30.3885 143.632 30.5888 143.389 30.8445C143.146 31.1001 142.955 31.3942 142.814 31.7266C142.678 32.0547 142.61 32.402 142.61 32.7685C142.61 33.2585 142.722 33.7124 142.948 34.13C143.178 34.5476 143.492 34.8842 143.888 35.1399C144.289 35.3913 144.74 35.517 145.243 35.517ZM153.407 35.3764C153.058 35.3764 152.757 35.2528 152.506 35.0057C152.255 34.7543 152.129 34.4517 152.129 34.098C152.129 33.7486 152.255 33.4503 152.506 33.2031C152.757 32.9517 153.058 32.826 153.407 32.826C153.757 32.826 154.057 32.9517 154.309 33.2031C154.56 33.4503 154.686 33.7486 154.686 34.098C154.686 34.3324 154.626 34.5476 154.507 34.7436C154.392 34.9354 154.238 35.0888 154.047 35.2038C153.855 35.3189 153.642 35.3764 153.407 35.3764ZM153.407 28.8182C153.058 28.8182 152.757 28.6946 152.506 28.4474C152.255 28.196 152.129 27.8935 152.129 27.5398C152.129 27.1903 152.255 26.892 152.506 26.6449C152.757 26.3935 153.058 26.2678 153.407 26.2678C153.757 26.2678 154.057 26.3935 154.309 26.6449C154.56 26.892 154.686 27.1903 154.686 27.5398C154.686 27.7741 154.626 27.9893 154.507 28.1854C154.392 28.3771 154.238 28.5305 154.047 28.6456C153.855 28.7607 153.642 28.8182 153.407 28.8182ZM161.778 37.2173C160.768 37.2131 159.905 36.9467 159.189 36.4183C158.473 35.8899 157.925 35.1207 157.546 34.1108C157.167 33.1009 156.977 31.8842 156.977 30.4609C156.977 29.0419 157.167 27.8295 157.546 26.8239C157.93 25.8182 158.479 25.0511 159.195 24.5227C159.915 23.9943 160.776 23.7301 161.778 23.7301C162.779 23.7301 163.638 23.9964 164.354 24.5291C165.07 25.0575 165.617 25.8246 165.996 26.8303C166.38 27.8317 166.572 29.0419 166.572 30.4609C166.572 31.8885 166.382 33.1072 166.003 34.1172C165.624 35.1229 165.076 35.892 164.36 36.4247C163.644 36.9531 162.783 37.2173 161.778 37.2173ZM161.778 35.5107C162.664 35.5107 163.357 35.0781 163.855 34.2131C164.358 33.348 164.609 32.0973 164.609 30.4609C164.609 29.3743 164.494 28.456 164.264 27.706C164.038 26.9517 163.712 26.3807 163.286 25.9929C162.864 25.6009 162.362 25.4048 161.778 25.4048C160.896 25.4048 160.203 25.8395 159.7 26.7088C159.197 27.5781 158.944 28.8288 158.94 30.4609C158.94 31.5518 159.053 32.4744 159.278 33.2287C159.509 33.9787 159.835 34.5476 160.256 34.9354C160.678 35.3189 161.185 35.5107 161.778 35.5107ZM173.397 37.2173C172.387 37.2131 171.524 36.9467 170.808 36.4183C170.092 35.8899 169.545 35.1207 169.165 34.1108C168.786 33.1009 168.596 31.8842 168.596 30.4609C168.596 29.0419 168.786 27.8295 169.165 26.8239C169.549 25.8182 170.099 25.0511 170.814 24.5227C171.535 23.9943 172.395 23.7301 173.397 23.7301C174.398 23.7301 175.257 23.9964 175.973 24.5291C176.689 25.0575 177.236 25.8246 177.616 26.8303C177.999 27.8317 178.191 29.0419 178.191 30.4609C178.191 31.8885 178.001 33.1072 177.622 34.1172C177.243 35.1229 176.695 35.892 175.979 36.4247C175.263 36.9531 174.403 37.2173 173.397 37.2173ZM173.397 35.5107C174.283 35.5107 174.976 35.0781 175.474 34.2131C175.977 33.348 176.229 32.0973 176.229 30.4609C176.229 29.3743 176.113 28.456 175.883 27.706C175.657 26.9517 175.331 26.3807 174.905 25.9929C174.483 25.6009 173.981 25.4048 173.397 25.4048C172.515 25.4048 171.822 25.8395 171.319 26.7088C170.817 27.5781 170.563 28.8288 170.559 30.4609C170.559 31.5518 170.672 32.4744 170.898 33.2287C171.128 33.9787 171.454 34.5476 171.876 34.9354C172.297 35.3189 172.805 35.5107 173.397 35.5107ZM185.407 31.8991C185.39 31.1619 185.499 30.5568 185.733 30.0838C185.972 29.6108 186.292 29.2614 186.692 29.0355C187.093 28.8054 187.534 28.6903 188.015 28.6903C188.442 28.6903 188.836 28.782 189.198 28.9652C189.56 29.1442 189.974 29.4382 190.438 29.8473C190.728 30.0987 190.964 30.282 191.148 30.397C191.331 30.5078 191.535 30.5632 191.761 30.5632C192.106 30.5632 192.381 30.4354 192.586 30.1797C192.795 29.9197 192.895 29.5362 192.886 29.0291H194.503C194.52 29.7706 194.41 30.3778 194.171 30.8509C193.937 31.3239 193.617 31.6733 193.212 31.8991C192.812 32.125 192.373 32.2379 191.895 32.2379C191.465 32.2379 191.069 32.1463 190.706 31.9631C190.344 31.7756 189.933 31.4815 189.473 31.081C189.175 30.821 188.936 30.6378 188.757 30.5312C188.578 30.4205 188.376 30.3651 188.15 30.3651C187.822 30.3651 187.549 30.4844 187.331 30.723C187.118 30.9574 187.016 31.3494 187.025 31.8991H185.407ZM206.941 23.9091V37H204.959V25.8906H204.882L201.75 27.9361V26.044L205.017 23.9091H206.941ZM215.449 23.9091V37H213.467V25.8906H213.39L210.258 27.9361V26.044L213.525 23.9091H215.449ZM220.275 35.3764C219.925 35.3764 219.625 35.2528 219.373 35.0057C219.122 34.7543 218.996 34.4517 218.996 34.098C218.996 33.7486 219.122 33.4503 219.373 33.2031C219.625 32.9517 219.925 32.826 220.275 32.826C220.624 32.826 220.924 32.9517 221.176 33.2031C221.427 33.4503 221.553 33.7486 221.553 34.098C221.553 34.3324 221.493 34.5476 221.374 34.7436C221.259 34.9354 221.105 35.0888 220.914 35.2038C220.722 35.3189 220.509 35.3764 220.275 35.3764ZM220.275 28.8182C219.925 28.8182 219.625 28.6946 219.373 28.4474C219.122 28.196 218.996 27.8935 218.996 27.5398C218.996 27.1903 219.122 26.892 219.373 26.6449C219.625 26.3935 219.925 26.2678 220.275 26.2678C220.624 26.2678 220.924 26.3935 221.176 26.6449C221.427 26.892 221.553 27.1903 221.553 27.5398C221.553 27.7741 221.493 27.9893 221.374 28.1854C221.259 28.3771 221.105 28.5305 220.914 28.6456C220.722 28.7607 220.509 28.8182 220.275 28.8182ZM228.408 37.179C227.607 37.179 226.887 37.0256 226.248 36.7188C225.613 36.4077 225.106 35.9815 224.727 35.4403C224.347 34.8991 224.145 34.2812 224.119 33.5866H226.037C226.084 34.1491 226.333 34.6115 226.785 34.9737C227.237 35.3359 227.778 35.517 228.408 35.517C228.911 35.517 229.357 35.402 229.744 35.1719C230.136 34.9375 230.443 34.6158 230.665 34.2067C230.891 33.7976 231.004 33.331 231.004 32.8068C231.004 32.2741 230.888 31.799 230.658 31.3814C230.428 30.9638 230.111 30.6357 229.706 30.397C229.305 30.1584 228.845 30.0369 228.325 30.0327C227.929 30.0327 227.531 30.1009 227.13 30.2372C226.729 30.3736 226.406 30.5526 226.158 30.7741L224.349 30.5057L225.085 23.9091H232.282V25.603H226.727L226.312 29.2656H226.388C226.644 29.0185 226.983 28.8118 227.405 28.6456C227.831 28.4794 228.287 28.3963 228.773 28.3963C229.57 28.3963 230.279 28.5859 230.901 28.9652C231.528 29.3445 232.02 29.8622 232.378 30.5185C232.74 31.1705 232.919 31.9205 232.915 32.7685C232.919 33.6165 232.727 34.3729 232.339 35.0376C231.956 35.7024 231.423 36.2266 230.741 36.6101C230.064 36.9893 229.286 37.179 228.408 37.179ZM239.602 23.7301C240.186 23.7344 240.762 23.8409 241.328 24.0497C241.895 24.2585 242.406 24.5994 242.862 25.0724C243.323 25.5455 243.689 26.1847 243.962 26.9901C244.239 27.7912 244.379 28.7884 244.384 29.9815C244.384 31.1278 244.269 32.1484 244.039 33.0433C243.808 33.9339 243.478 34.6861 243.048 35.2997C242.622 35.9134 242.104 36.38 241.494 36.6996C240.885 37.0192 240.199 37.179 239.436 37.179C238.656 37.179 237.964 37.0256 237.359 36.7188C236.754 36.4119 236.262 35.9879 235.882 35.4467C235.503 34.9013 235.267 34.2749 235.173 33.5675H237.122C237.25 34.13 237.51 34.5859 237.902 34.9354C238.298 35.2805 238.81 35.4531 239.436 35.4531C240.395 35.4531 241.143 35.0355 241.68 34.2003C242.217 33.3608 242.487 32.1889 242.492 30.6847H242.389C242.168 31.0511 241.891 31.3665 241.558 31.6307C241.23 31.8949 240.862 32.0994 240.453 32.2443C240.044 32.3892 239.607 32.4616 239.142 32.4616C238.388 32.4616 237.702 32.2763 237.084 31.9055C236.466 31.5348 235.974 31.0256 235.607 30.3778C235.241 29.7301 235.058 28.9908 235.058 28.1598C235.058 27.3331 235.245 26.5831 235.62 25.9098C235.999 25.2365 236.528 24.7038 237.205 24.3118C237.887 23.9155 238.686 23.7216 239.602 23.7301ZM239.609 25.392C239.11 25.392 238.661 25.5156 238.26 25.7628C237.864 26.0057 237.551 26.3359 237.32 26.7536C237.09 27.1669 236.975 27.6271 236.975 28.1342C236.975 28.6413 237.086 29.1016 237.308 29.5149C237.534 29.924 237.84 30.25 238.228 30.4929C238.62 30.7315 239.068 30.8509 239.57 30.8509C239.945 30.8509 240.295 30.7784 240.619 30.6335C240.943 30.4886 241.226 30.2884 241.469 30.0327C241.712 29.7727 241.901 29.4787 242.038 29.1506C242.174 28.8224 242.242 28.4773 242.242 28.1151C242.242 27.6335 242.127 27.1861 241.897 26.7727C241.671 26.3594 241.36 26.027 240.964 25.7756C240.568 25.5199 240.116 25.392 239.609 25.392ZM250.394 30.4545C250.394 32.0611 250.183 33.5376 249.761 34.8842C249.339 36.2308 248.723 37.473 247.914 38.6108H246.162C246.478 38.1889 246.772 37.6712 247.044 37.0575C247.317 36.4439 247.556 35.7727 247.76 35.044C247.965 34.3111 248.125 33.5526 248.24 32.7685C248.355 31.9844 248.412 31.2131 248.412 30.4545C248.412 29.4446 248.312 28.4197 248.112 27.38C247.912 26.3402 247.641 25.375 247.3 24.4844C246.959 23.5938 246.58 22.8672 246.162 22.3047H247.914C248.723 23.4425 249.339 24.6847 249.761 26.0312C250.183 27.3778 250.394 28.8523 250.394 30.4545Z" fill="black"/>
<rect x="10.75" y="9.75" width="330.5" height="40.5" rx="13.25" stroke="#6041FF" stroke-width="1.5"/>
</g>
<defs>
<filter id="filter0_d_2462_835" x="0" y="0" width="352" height="62" filterUnits="userSpaceOnUse" color-interpolation-filters="sRGB">
<feFlood flood-opacity="0" result="BackgroundImageFix"/>
<feColorMatrix in="SourceAlpha" type="matrix" values="0 0 0 0 0 0 0 0 0 0 0 0 0 0 0 0 0 0 127 0" result="hardAlpha"/>
<feOffset dy="1"/>
<feGaussianBlur stdDeviation="5"/>
<feComposite in2="hardAlpha" operator="out"/>
<feColorMatrix type="matrix" values="0 0 0 0 0 0 0 0 0 0 0 0 0 0 0 0 0 0 0.15 0"/>
<feBlend mode="normal" in2="BackgroundImageFix" result="effect1_dropShadow_2462_835"/>
<feBlend mode="normal" in="SourceGraphic" in2="effect1_dropShadow_2462_835" result="shape"/>
</filter>
</defs>
</svg>
