<svg width="355" height="41" viewBox="0 0 355 41" fill="none" xmlns="http://www.w3.org/2000/svg">
<rect width="355" height="41" rx="20.5" fill="#8E6FFF"/>
<path d="M151.002 12.92H153.108V13.694C153.108 16.898 150.588 19.616 146.214 20.264L145.278 18.338C149.112 17.834 151.002 15.656 151.002 13.694V12.92ZM151.452 12.92H153.54V13.694C153.54 15.638 155.448 17.834 159.264 18.338L158.346 20.264C153.972 19.616 151.452 16.898 151.452 13.694V12.92ZM151.02 23H153.396V29.102H151.02V23ZM144.738 21.488H159.804V23.432H144.738V21.488ZM170.315 16.466H173.483V18.41H170.315V16.466ZM172.835 12.434H175.229V22.334H172.835V12.434ZM169.577 22.694C173.105 22.694 175.283 23.9 175.283 25.916C175.283 27.95 173.105 29.12 169.577 29.12C166.049 29.12 163.871 27.95 163.871 25.916C163.871 23.9 166.049 22.694 169.577 22.694ZM169.577 24.512C167.417 24.512 166.265 24.962 166.265 25.916C166.265 26.852 167.417 27.302 169.577 27.302C171.755 27.302 172.907 26.852 172.907 25.916C172.907 24.962 171.755 24.512 169.577 24.512ZM165.131 14.108H167.075V15.152C167.075 18.338 165.599 21.254 162.413 22.334L161.189 20.444C163.943 19.508 165.131 17.294 165.131 15.152V14.108ZM165.635 14.108H167.561V15.152C167.561 17.114 168.695 19.148 171.323 20.03L170.153 21.92C167.057 20.894 165.635 18.122 165.635 15.152V14.108ZM161.837 13.442H170.801V15.35H161.837V13.442ZM188.529 12.434H190.905V29.102H188.529V12.434ZM190.365 18.932H193.317V20.93H190.365V18.932ZM177.765 14.9H187.467V16.808H177.765V14.9ZM182.643 17.744C185.073 17.744 186.873 19.4 186.873 21.722C186.873 24.044 185.073 25.7 182.643 25.7C180.213 25.7 178.413 24.044 178.413 21.722C178.413 19.4 180.213 17.744 182.643 17.744ZM182.643 19.688C181.509 19.688 180.699 20.444 180.699 21.722C180.699 23 181.509 23.756 182.643 23.756C183.777 23.756 184.587 23 184.587 21.722C184.587 20.444 183.777 19.688 182.643 19.688ZM181.437 12.704H183.831V15.62H181.437V12.704ZM205.88 12.434H208.292V29.102H205.88V12.434ZM200.966 14.162H203.342C203.342 19.256 201.614 23.432 195.692 26.294L194.45 24.386C199.238 22.082 200.966 19.058 200.966 14.594V14.162ZM195.332 14.162H202.1V16.052H195.332V14.162Z" fill="white"/>
</svg>
