<svg width="396" height="43" viewBox="0 0 396 43" fill="none" xmlns="http://www.w3.org/2000/svg">
<path d="M4.6343 1.88C7.1143 1.88 9.1543 3.56 9.1543 6.08C9.1543 8.66 7.1143 10.24 4.6343 10.24C2.1343 10.24 0.0942969 8.66 0.0942969 6.1C0.0942969 3.56 2.1343 1.88 4.6343 1.88ZM4.6343 3.12C2.8743 3.12 1.5743 4.36 1.5743 6.08C1.5743 7.82 2.8743 9 4.6343 9C6.4543 9 7.6943 7.82 7.6943 6.1C7.6943 4.36 6.4743 3.12 4.6343 3.12ZM16.0143 7.48V8.76H13.3543V11.26H11.8343V0.92H13.3543V3.66H16.0143V4.94H13.3543V7.48H16.0143ZM13.3743 18.4H11.8343V13.38H2.0943V12.12H13.3743V18.4ZM32.999 10.98H17.219V9.7H24.339V6.92H25.859V9.7H32.999V10.98ZM32.279 6.52L31.579 7.84C28.679 7.3 25.939 5.42 25.099 3.74C24.399 5.42 21.739 7.3 18.739 7.84L18.019 6.56C20.959 6.24 24.339 4.24 24.339 1.78V1.14H25.919V1.78C25.919 4.24 29.659 6.28 32.279 6.52ZM18.919 12.84H31.059V18.52H29.539V14.1H18.919V12.84ZM50.3037 9.76H34.5237V8.48H50.3037V9.76ZM48.5437 4.2C48.5437 6.12 46.2237 7.22 42.4237 7.22C38.6637 7.22 36.3437 6.12 36.3437 4.2C36.3437 2.28 38.6637 1.16 42.4237 1.16C46.2237 1.16 48.5437 2.28 48.5437 4.2ZM42.4237 2.4C39.6837 2.4 37.9037 3.1 37.9037 4.2C37.9037 5.28 39.6837 5.96 42.4237 5.96C45.2037 5.96 47.0037 5.28 47.0037 4.2C47.0037 3.1 45.2037 2.4 42.4237 2.4ZM48.9037 18.24H36.3637V14.08H46.8037V12.54H36.3237V11.32H48.3237V15.24H37.8837V17H48.9037V18.24ZM70.5023 18.2H59.4823V11.28H61.0023V13.46H69.0023V11.26H70.5023V18.2ZM57.2223 3.38V2.1H66.6823V3.38H62.7823C62.7823 3.64 62.7823 3.88 62.8023 4.1C62.9423 6.38 65.0823 8.36 67.0823 9.02L66.2223 10.24C64.5623 9.58 62.6623 7.96 62.0023 6.3C61.5223 7.94 59.5223 9.86 57.6423 10.66L56.7823 9.48C58.9823 8.64 61.1423 6.4 61.2223 4.08C61.2423 3.88 61.2423 3.64 61.2423 3.38H57.2223ZM69.0023 16.94V14.7H61.0023V16.94H69.0023ZM73.1623 6.48H70.5023V10.36H68.9823V0.92H70.5023V5.22H73.1623V6.48ZM90.167 9.76H74.387V8.48H90.167V9.76ZM88.407 4.2C88.407 6.12 86.087 7.22 82.287 7.22C78.527 7.22 76.207 6.12 76.207 4.2C76.207 2.28 78.527 1.16 82.287 1.16C86.087 1.16 88.407 2.28 88.407 4.2ZM82.287 2.4C79.547 2.4 77.767 3.1 77.767 4.2C77.767 5.28 79.547 5.96 82.287 5.96C85.067 5.96 86.867 5.28 86.867 4.2C86.867 3.1 85.067 2.4 82.287 2.4ZM88.767 18.24H76.227V14.08H86.667V12.54H76.187V11.32H88.187V15.24H77.747V17H88.767V18.24ZM113.026 5.88H110.366V9.58H108.846V0.92H110.366V4.6H113.026V5.88ZM111.026 18.28H99.1655V13.76H108.846V11.88H99.1455V10.64H110.366V14.94H100.706V17.02H111.026V18.28ZM107.226 6.94L107.386 8.2C105.386 8.64 101.866 8.94 99.0855 8.98H97.5455V1.78H99.0655V7.68C102.046 7.64 105.186 7.4 107.226 6.94ZM125.85 13.04L124.91 14.04C123.67 13.04 122.51 11.3 122.23 9.98C121.97 11.5 120.71 13.72 119.25 15.12L118.17 14.16C120.39 12.34 121.51 9.12 121.51 6.2V3.98H119.99V2.72H125.15V3.98H122.97V6.14C122.97 9.26 123.87 11.5 125.85 13.04ZM130.57 9.26H127.95V18.4H126.43V0.92H127.95V7.98H130.57V9.26ZM119.99 10.96L119.13 12.08C118.57 11.66 117.75 10.62 117.45 9.74C117.15 11.18 115.97 12.98 114.79 14.02L113.75 13.1C115.43 11.74 116.65 9.38 116.65 6.22V3.98H114.45V2.72H119.45V3.98H118.11V6.16C118.11 8.78 119.05 10.32 119.99 10.96ZM136.775 2.06C139.475 2.06 141.535 3.72 141.535 6.26C141.535 8.56 139.855 10.1 137.555 10.4V13.24C139.515 13.12 141.295 13 142.415 12.84L142.535 14.06C141.155 14.26 138.755 14.44 136.635 14.58C134.715 14.68 132.995 14.74 131.535 14.74L131.255 13.4C132.555 13.4 134.255 13.4 136.035 13.32V10.4C133.715 10.14 132.035 8.6 132.035 6.28C132.035 3.74 134.075 2.06 136.775 2.06ZM136.775 3.36C134.875 3.36 133.515 4.5 133.515 6.28C133.515 8.04 134.895 9.16 136.775 9.16C138.735 9.16 140.035 8.04 140.035 6.3C140.035 4.5 138.755 3.36 136.775 3.36ZM147.835 9.52H145.035V18.4H143.495V0.92H145.035V8.24H147.835V9.52ZM168.514 18.4H166.974V0.92H168.514V18.4ZM164.754 13.04L163.794 14.2C162.214 13.12 160.154 10.96 159.474 8.86C158.834 11.04 157.034 13.18 155.014 14.62L154.014 13.48C156.574 11.88 158.674 8.7 158.674 5.6V2.44H160.214V5.54C160.214 8.74 162.334 11.6 164.754 13.04ZM187.518 7.68H184.858V14H183.338V0.92H184.858V6.4H187.518V7.68ZM185.398 17.96H173.858V12.56H175.378V16.7H185.398V17.96ZM172.018 2.46H179.978C179.778 7.22 176.538 10.56 172.078 11.98L171.298 10.7C175.058 9.74 177.878 6.96 178.318 3.74H172.018V2.46ZM203.463 18.4H201.963V9.08H199.623V17.5H198.143V1.34H199.623V7.8H201.963V0.92H203.463V18.4ZM190.783 12.58H191.303C193.063 12.58 195.683 12.46 197.163 12.14L197.303 13.38C195.643 13.7 192.703 13.9 190.423 13.9H189.263V3.06H196.043V4.34H190.783V12.58ZM205.648 18.76L206.388 14.86H208.208L206.728 18.76H205.648ZM226.013 5.88H221.993V6C221.993 8.24 224.153 10.1 226.353 10.62L225.533 11.84C223.993 11.38 221.953 9.86 221.213 8.26C220.713 9.82 218.793 11.64 216.773 12.36L215.953 11.14C218.273 10.44 220.453 8.26 220.453 6.02V5.88H216.473V4.62H226.013V5.88ZM230.493 17.98H218.753V12.74H220.273V16.7H230.493V17.98ZM230.073 13.76H228.553V0.92H230.073V13.76ZM223.613 2.96H218.853V1.68H223.613V2.96ZM246.818 2.22C246.818 4.6 246.758 7.26 246.178 9.96H248.878V11.24H241.738V18.4H240.218V11.24H233.098V9.96H244.658C245.138 8.08 245.238 5.2 245.238 3.48H234.958V2.22H246.818ZM266.183 9.64H250.403V8.42H266.183V9.64ZM264.683 18.1H252.263V13.96H262.623V12.34H252.243V11.14H264.143V15.08H253.783V16.9H264.683V18.1ZM264.403 6.96H252.323V1.7H264.203V2.94H253.863V5.74H264.403V6.96ZM283.487 9.76H267.707V8.48H283.487V9.76ZM281.727 4.2C281.727 6.12 279.407 7.22 275.607 7.22C271.847 7.22 269.527 6.12 269.527 4.2C269.527 2.28 271.847 1.16 275.607 1.16C279.407 1.16 281.727 2.28 281.727 4.2ZM275.607 2.4C272.867 2.4 271.087 3.1 271.087 4.2C271.087 5.28 272.867 5.96 275.607 5.96C278.387 5.96 280.187 5.28 280.187 4.2C280.187 3.1 278.387 2.4 275.607 2.4ZM282.087 18.24H269.547V14.08H279.987V12.54H269.507V11.32H281.507V15.24H271.067V17H282.087V18.24ZM304.546 13.62H303.026V6.62H299.306V5.34H303.026V0.92H304.546V13.62ZM304.926 17.86H293.306V12.52H294.826V16.6H304.926V17.86ZM300.486 9.82L299.626 11.02C297.866 10.24 296.086 8.6 295.346 6.76C294.826 8.64 292.946 10.54 291.046 11.5L290.106 10.32C292.426 9.3 294.546 6.92 294.546 4.1V1.92H296.086V4.04C296.086 6.96 298.426 9.06 300.486 9.82ZM322.311 11.38H320.791V6.78H318.571V11.28H317.111V1.24H318.571V5.52H320.791V0.92H322.311V11.38ZM309.891 9.08H310.391C312.391 9.08 314.411 8.94 315.771 8.64L315.991 9.9C314.271 10.24 311.911 10.38 309.511 10.38H308.391V2.22H315.151V3.48H309.891V5.56H314.871V6.78H309.891V9.08ZM310.511 12.3H322.311V18.4H320.771V13.58H310.511V12.3ZM339.615 18.4H338.115V9.34H336.015V17.52H334.535V1.34H336.015V8.06H338.115V0.92H339.615V18.4ZM333.215 10.94C333.215 13.04 331.655 14.42 329.395 14.42C327.155 14.42 325.575 12.94 325.575 10.94C325.575 8.82 327.155 7.44 329.395 7.44C331.655 7.44 333.215 8.84 333.215 10.94ZM331.755 10.94C331.755 9.6 330.775 8.72 329.395 8.72C328.015 8.72 327.055 9.6 327.055 10.94C327.055 12.3 328.015 13.16 329.395 13.16C330.775 13.16 331.755 12.26 331.755 10.94ZM333.535 6.44H324.835V5.18H333.535V6.44ZM331.655 3.58H326.875V2.26H331.655V3.58ZM357.22 7.96L356.5 9.24C353.64 8.74 350.86 6.98 350.06 5.34C349.36 6.98 346.64 8.78 343.66 9.28L342.96 8C345.82 7.7 349.2 5.86 349.28 3.42H343.62V2.16H356.5V3.42H350.88C350.96 5.88 354.54 7.66 357.22 7.96ZM350.8 18.4H349.28V12.14H342.18V10.86H357.96V12.14H350.8V18.4ZM374.285 18.4H372.785V0.92H374.285V18.4ZM370.825 17.52H369.345V8.5H366.245V7.22H369.345V1.34H370.825V17.52ZM368.285 12.88L367.345 14C366.005 13.04 364.165 10.96 363.605 8.98C363.225 10.98 361.785 13.26 360.045 14.52L359.105 13.38C361.085 12.12 362.845 9.14 362.845 5.72V2.54H364.345V5.68C364.345 9.08 366.385 11.62 368.285 12.88ZM390.969 6.62C390.969 9.32 388.449 11.12 384.649 11.12C380.889 11.12 378.369 9.32 378.369 6.62C378.369 3.92 380.889 2.08 384.649 2.08C388.469 2.08 390.969 3.92 390.969 6.62ZM389.509 6.62C389.509 4.66 387.589 3.34 384.649 3.34C381.749 3.34 379.829 4.66 379.829 6.62C379.829 8.58 381.749 9.9 384.649 9.9C387.569 9.9 389.509 8.58 389.509 6.62ZM392.569 16.18H376.789V14.9H380.689V11.64L382.209 11.6V14.9H387.089V11.6L388.609 11.64V14.9H392.569V16.18ZM394.174 16.66V14.88H395.914V16.66H394.174ZM70.9912 35.72H69.4712V24.92H70.9912V35.72ZM71.1312 39.14C71.1312 41.12 68.9912 42.38 65.1912 42.38C61.3912 42.38 59.2312 41.12 59.2312 39.14C59.2312 37.12 61.3912 35.86 65.1912 35.86C68.9912 35.86 71.1312 37.12 71.1312 39.14ZM65.1912 37.06C62.4312 37.06 60.8112 37.84 60.8112 39.14C60.8112 40.42 62.4312 41.18 65.1912 41.18C67.9512 41.18 69.5712 40.42 69.5712 39.14C69.5712 37.84 67.9512 37.06 65.1912 37.06ZM67.2912 32.98L67.4712 34.22C65.6712 34.52 62.5512 34.7 59.4512 34.72H57.5112V29.6H64.0712V27.3H57.4912V26.04H65.5912V30.82H59.0312V33.44C61.7712 33.44 65.4912 33.34 67.2912 32.98ZM87.7759 26.84V29.08C87.7559 31.42 87.4959 35.42 86.9759 37.64L85.5159 37.44C85.6959 36.62 85.9159 34.82 86.0359 33L75.6959 33.54L75.3959 32.2L86.1159 31.82C86.1559 31.12 86.1959 30.48 86.1959 29.9V28.1H75.9359V26.84H87.7759ZM89.7959 39.86H74.0159V38.58H89.7959V39.86ZM110.694 39.1C110.694 41.06 108.514 42.24 104.434 42.24C100.354 42.24 98.1345 41.06 98.1345 39.1C98.1345 37.14 100.354 35.94 104.434 35.94C108.514 35.94 110.694 37.14 110.694 39.1ZM109.194 39.1C109.194 37.9 107.354 37.18 104.434 37.18C101.474 37.18 99.6545 37.9 99.6545 39.1C99.6545 40.32 101.474 41.02 104.434 41.02C107.354 41.02 109.194 40.32 109.194 39.1ZM112.354 34.52H96.5745V33.26H103.074V29.56H104.594V33.26H112.354V34.52ZM110.494 25.88V27.44C110.494 28.9 110.274 31.02 109.994 32.1L108.494 31.9C108.774 30.94 108.894 29.36 108.914 28.56L108.934 27.14H98.3145V25.88H110.494ZM127.979 29.52C127.979 31.76 125.639 33.3 121.759 33.3C117.899 33.3 115.559 31.78 115.559 29.52C115.559 27.24 117.899 25.72 121.759 25.72C125.639 25.72 127.979 27.24 127.979 29.52ZM119.479 42.4H117.959V36.2H113.879V34.92H129.659V36.2H125.519V42.4H123.999V36.2H119.479V42.4ZM121.759 27.06C118.859 27.06 117.059 28.02 117.059 29.52C117.059 31 118.859 31.96 121.759 31.96C124.699 31.96 126.479 31 126.479 29.52C126.479 28.02 124.699 27.06 121.759 27.06ZM146.964 34.24H131.184V33.06H146.964V34.24ZM145.644 42.08H133.004V38.2H143.584V36.74H133.024V35.62H145.104V39.28H134.524V40.88H145.644V42.08ZM145.344 31.68H133.184V28.06H143.484V26.7H133.164V25.5H145.004V29.16H134.704V30.54H145.344V31.68ZM167.662 32.56H162.382V34.22H169.522V35.48H153.742V34.22H160.862V32.56H155.642V25.64H167.542V26.86H157.162V28.48H167.242V29.64H157.162V31.36H167.662V32.56ZM167.762 39.5C167.762 41.38 165.622 42.44 161.622 42.44C157.642 42.44 155.522 41.34 155.522 39.5C155.522 37.68 157.642 36.54 161.622 36.54C165.622 36.54 167.762 37.58 167.762 39.5ZM161.622 37.76C158.802 37.76 157.062 38.42 157.062 39.5C157.062 40.58 158.802 41.2 161.622 41.2C164.462 41.2 166.222 40.58 166.222 39.5C166.222 38.42 164.462 37.76 161.622 37.76ZM187.147 32.12H184.487V37.82H182.967V24.92H184.487V30.84H187.147V32.12ZM185.167 41.84H173.527V37.36H175.047V40.56H185.167V41.84ZM178.507 26.88H173.467V25.54H178.507V26.88ZM181.207 29.46H170.967V28.2H181.207V29.46ZM180.207 33.46C180.207 35.3 178.447 36.52 176.087 36.52C173.767 36.52 171.987 35.3 171.987 33.46C171.987 31.58 173.747 30.4 176.087 30.4C178.447 30.4 180.207 31.58 180.207 33.46ZM178.767 33.46C178.767 32.3 177.507 31.6 176.087 31.6C174.687 31.6 173.427 32.3 173.427 33.46C173.427 34.6 174.687 35.3 176.087 35.3C177.507 35.3 178.767 34.6 178.767 33.46ZM208.766 34.66L208.086 35.98C205.206 35.46 202.406 33.8 201.486 31.9C200.726 33.82 197.906 35.48 194.886 36.04L194.246 34.76C197.086 34.44 200.426 32.44 200.706 30.2H195.046V28.92H207.926V30.2H202.306C202.606 32.44 206.166 34.42 208.766 34.66ZM209.386 40.18H193.606V38.9H200.706V34.92H202.226V38.9H209.386V40.18ZM204.346 26.96H198.626V25.58H204.346V26.96ZM225.65 42.4H224.15V33.08H221.81V41.5H220.33V25.34H221.81V31.8H224.15V24.92H225.65V42.4ZM212.97 36.58H213.49C215.25 36.58 217.87 36.46 219.35 36.14L219.49 37.38C217.83 37.7 214.89 37.9 212.61 37.9H211.45V27.06H218.23V28.34H212.97V36.58ZM243.995 40.18H228.215V38.9H235.315V34.62H230.115V26.4H242.115V27.66H231.655V33.36H242.215V34.62H236.835V38.9H243.995V40.18ZM264.214 24.92V32.2H267.074V33.5H264.214V42.4H262.694V24.92H264.214ZM259.674 26.8C259.574 32.48 256.294 36.58 251.794 38.92L250.854 37.72C255.214 35.7 257.714 32.02 258.034 28.08H251.454V26.8H259.674ZM283.858 34.34H268.078V33.08H283.858V34.34ZM282.038 31.18H270.278V25.38H271.798V29.92H282.038V31.18ZM282.138 39.04C282.138 41.14 279.798 42.3 275.998 42.3C272.178 42.3 269.878 41.14 269.878 39.04C269.878 36.96 272.178 35.8 275.978 35.8C279.798 35.8 282.138 36.96 282.138 39.04ZM275.978 37.04C273.238 37.04 271.418 37.68 271.418 39.04C271.418 40.4 273.238 41.04 275.978 41.04C278.758 41.04 280.598 40.4 280.598 39.04C280.598 37.68 278.758 37.04 275.978 37.04ZM301.483 31.14H298.823V35.06H297.303V24.92H298.823V29.86H301.483V31.14ZM298.823 42.28H287.823V35.92H289.343V37.78H297.303V35.9H298.823V42.28ZM297.303 41V39.04H289.343V41H297.303ZM292.923 26.44H287.883V25.16H292.923V26.44ZM295.483 28.9H285.303V27.66H295.483V28.9ZM294.463 32.44C294.463 34.16 292.763 35.26 290.403 35.26C288.023 35.26 286.343 34.16 286.343 32.44C286.343 30.68 287.983 29.6 290.403 29.6C292.763 29.6 294.463 30.68 294.463 32.44ZM292.923 32.44C292.923 31.42 291.763 30.82 290.403 30.82C289.043 30.82 287.843 31.42 287.843 32.44C287.843 33.44 289.063 34.06 290.403 34.06C291.763 34.06 292.923 33.44 292.923 32.44ZM316.848 24.92V42.4H315.348V24.92H316.848ZM313.568 35.98L313.708 37.3C311.688 37.76 307.128 38.1 304.448 38.1H303.668V26.74H305.208V36.76C307.448 36.76 311.488 36.44 313.568 35.98ZM333.472 24.92V31.86H336.312V33.14H333.472V42.4H331.952V24.92H333.472ZM322.212 36.82H323.212C325.472 36.82 328.932 36.62 330.612 36.26L330.772 37.52C328.892 37.88 325.432 38.12 322.392 38.12H320.672V26.74H328.972V28.02H322.212V36.82ZM337.377 40.66V38.88H339.117V40.66H337.377Z" fill="black"/>
</svg>
