<svg width="170" height="29" viewBox="0 0 170 29" fill="none" xmlns="http://www.w3.org/2000/svg">
<path d="M7.98 3.02H11.22V7.07C11.22 14.21 8.76 20.66 3.24 23.21L0.87 19.91C5.7 17.81 7.98 12.47 7.98 7.07V3.02ZM8.76 3.02H12V7.07C12 12.2 14.19 17.3 18.93 19.34L16.59 22.55C11.22 20.09 8.76 13.91 8.76 7.07V3.02ZM20.25 0.859998H24.27V28.73H20.25V0.859998ZM46.6477 0.89H50.6677V20.78H46.6477V0.89ZM49.5277 8.63H54.3577V11.9H49.5277V8.63ZM38.9077 2.96H43.1677C43.1677 10.52 38.5477 15.71 30.2677 18.11L28.5877 14.93C35.3977 13.07 38.9077 9.35 38.9077 4.94V2.96ZM29.7877 2.96H41.0677V6.17H29.7877V2.96ZM32.6977 25.01H51.5977V28.19H32.6977V25.01ZM32.6977 18.77H36.7177V26.42H32.6977V18.77ZM63.8667 13.58H89.0067V16.82H63.8667V13.58ZM66.8967 8.51H86.1567V11.66H66.8967V8.51ZM66.8967 1.64H86.0067V4.82H70.8567V10.07H66.8967V1.64ZM76.3467 18.47C82.3467 18.47 85.9767 20.3 85.9767 23.57C85.9767 26.84 82.3467 28.67 76.3467 28.67C70.3467 28.67 66.6867 26.84 66.6867 23.57C66.6867 20.3 70.3467 18.47 76.3467 18.47ZM76.3467 21.47C72.6267 21.47 70.7367 22.16 70.7367 23.57C70.7367 25.01 72.6267 25.64 76.3467 25.64C80.0667 25.64 81.9567 25.01 81.9567 23.57C81.9567 22.16 80.0667 21.47 76.3467 21.47ZM91.4344 15.77H116.604V18.95H91.4344V15.77ZM94.5244 1.43H113.544V8.96H98.5144V11.96H94.5544V6.14H109.614V4.46H94.5244V1.43ZM94.5544 10.76H114.084V13.79H94.5544V10.76ZM102.024 12.23H106.014V17.51H102.024V12.23ZM94.2244 20.51H113.724V28.58H109.734V23.66H94.2244V20.51ZM136.852 0.89H140.812V28.67H136.852V0.89ZM139.912 11.72H144.832V15.05H139.912V11.72ZM118.912 5H135.082V8.18H118.912V5ZM127.042 9.74C131.092 9.74 134.092 12.5 134.092 16.37C134.092 20.24 131.092 23 127.042 23C122.992 23 119.992 20.24 119.992 16.37C119.992 12.5 122.992 9.74 127.042 9.74ZM127.042 12.98C125.152 12.98 123.802 14.24 123.802 16.37C123.802 18.5 125.152 19.76 127.042 19.76C128.932 19.76 130.282 18.5 130.282 16.37C130.282 14.24 128.932 12.98 127.042 12.98ZM125.032 1.34H129.022V6.2H125.032V1.34ZM165.77 0.89H169.79V28.67H165.77V0.89ZM157.58 3.77H161.54C161.54 12.26 158.66 19.22 148.79 23.99L146.72 20.81C154.7 16.97 157.58 11.93 157.58 4.49V3.77ZM148.19 3.77H159.47V6.92H148.19V3.77Z" fill="black"/>
</svg>
