<svg width="27" height="27" viewBox="0 0 27 27" fill="none" xmlns="http://www.w3.org/2000/svg">
<mask id="mask0_3776_341" style="mask-type:alpha" maskUnits="userSpaceOnUse" x="0" y="0" width="27" height="27">
<rect width="27" height="27" rx="0.5" fill="#D9D9D9"/>
</mask>
<g mask="url(#mask0_3776_341)">
<path d="M6.125 23.625C5.84886 23.625 5.625 23.4011 5.625 23.125V5C5.625 4.72386 5.84886 4.5 6.125 4.5H15.3401C15.5784 4.5 15.7836 4.66823 15.8304 4.90194L16.1196 6.34806C16.1664 6.58177 16.3716 6.75 16.6099 6.75H22C22.2761 6.75 22.5 6.97386 22.5 7.25V17.5C22.5 17.7761 22.2761 18 22 18H15.0349C14.7966 18 14.5914 17.8318 14.5446 17.5981L14.2554 16.1519C14.2086 15.9182 14.0034 15.75 13.7651 15.75H8.375C8.09886 15.75 7.875 15.9739 7.875 16.25V23.125C7.875 23.4011 7.65114 23.625 7.375 23.625H6.125ZM16.4009 15.3481C16.4476 15.5818 16.6528 15.75 16.8912 15.75H19.75C20.0261 15.75 20.25 15.5261 20.25 15.25V9.5C20.25 9.22386 20.0261 9 19.75 9H14.7537C14.5153 9 14.3101 8.83177 14.2634 8.59806L13.9741 7.15194C13.9274 6.91823 13.7222 6.75 13.4838 6.75H8.375C8.09886 6.75 7.875 6.97386 7.875 7.25V13C7.875 13.2761 8.09886 13.5 8.375 13.5H15.6213C15.8597 13.5 16.0649 13.6682 16.1116 13.9019L16.4009 15.3481Z" fill="#8E6FFF"/>
</g>
</svg>
