<svg width="355" height="41" viewBox="0 0 355 41" fill="none" xmlns="http://www.w3.org/2000/svg">
<rect width="355" height="41" rx="20.5" fill="#8E6FFF"/>
<path d="M156.312 12.416H158.706V29.138H156.312V12.416ZM153.378 18.824H156.852V20.75H153.378V18.824ZM148.572 16.754H150.444V17.618C150.444 21.128 148.932 24.674 145.908 26.024L144.63 24.188C147.33 22.946 148.572 20.12 148.572 17.618V16.754ZM149.094 16.754H150.948V17.618C150.948 20.012 152.226 22.712 154.926 23.918L153.666 25.736C150.606 24.44 149.094 21.02 149.094 17.618V16.754ZM145.188 15.152H154.278V17.042H145.188V15.152ZM148.572 12.812H150.966V16.124H148.572V12.812ZM168.821 12.74C172.493 12.74 174.851 13.982 174.851 15.998C174.851 18.014 172.493 19.238 168.821 19.238C165.149 19.238 162.791 18.014 162.791 15.998C162.791 13.982 165.149 12.74 168.821 12.74ZM168.821 14.594C166.535 14.594 165.257 15.044 165.257 15.998C165.257 16.934 166.535 17.402 168.821 17.402C171.089 17.402 172.385 16.934 172.385 15.998C172.385 15.044 171.089 14.594 168.821 14.594ZM163.025 23.234H174.545V28.922H163.025V23.234ZM172.205 25.124H165.383V27.032H172.205V25.124ZM161.279 20.192H176.345V22.082H161.279V20.192ZM185.379 13.262C188.889 13.262 191.607 15.188 191.607 18.086C191.607 21.002 188.889 22.91 185.379 22.91C181.869 22.91 179.151 21.002 179.151 18.086C179.151 15.188 181.869 13.262 185.379 13.262ZM185.379 15.206C183.111 15.206 181.491 16.286 181.491 18.086C181.491 19.868 183.111 20.948 185.379 20.948C187.647 20.948 189.267 19.868 189.267 18.086C189.267 16.286 187.647 15.206 185.379 15.206ZM177.855 25.142H192.939V27.104H177.855V25.142ZM194.414 25.322H209.498V27.266H194.414V25.322ZM200.732 22.172H203.126V26.114H200.732V22.172ZM196.106 13.514H207.806V19.058H198.518V21.866H196.142V17.186H205.43V15.404H196.106V13.514ZM196.142 20.912H208.184V22.838H196.142V20.912Z" fill="white"/>
</svg>
