<svg width="318" height="43" viewBox="0 0 318 43" fill="none" xmlns="http://www.w3.org/2000/svg">
<path d="M14.3465 18.16H3.22648V12.24H14.3465V18.16ZM1.14648 5.6V4.36H10.5265V5.6H6.66648C6.84648 7.7 8.88648 9.38 10.8665 9.88L10.0865 11.06C8.54648 10.58 6.70648 9.14 5.88648 7.56C5.30648 9.12 3.48648 10.86 1.48648 11.56L0.646484 10.4C2.88648 9.74 4.92648 7.74 5.04648 5.6H1.14648ZM12.8265 16.9V13.5H4.74648V16.9H12.8265ZM17.0065 6.9H14.3465V11.32H12.8265V0.92H14.3465V5.62H17.0065V6.9ZM3.42648 2.74V1.44H8.30648V2.74H3.42648ZM30.9712 6.14H27.4112V4.86H30.9712V0.92H32.4912V11.18H30.9712V6.14ZM32.5112 18.4H30.9912V13.36H20.8712V12.1H32.5112V18.4ZM28.2712 9L27.3712 10.2C25.7112 9.4 23.9712 7.88 23.2712 6.14C22.7512 7.94 21.1912 9.48 18.9912 10.7L18.0512 9.52C20.5112 8.38 22.4512 6.22 22.4512 3.44V1.74H23.9912V3.38C23.9912 6.18 26.3112 8.3 28.2712 9ZM45.8759 13.16L44.9559 14.3C43.3159 13.26 41.1759 11.06 40.5559 8.98C39.9559 11.1 38.2559 13.26 36.1559 14.72L35.1559 13.58C37.7359 12.06 39.7559 8.98 39.7559 5.84V4.04H35.7159V2.76H45.3759V4.04H41.3359V5.8C41.3359 9.06 43.4759 11.8 45.8759 13.16ZM51.7959 9.3H48.9559V18.4H47.4359V0.92H48.9559V8.02H51.7959V9.3ZM66.2605 0.92V8.2H69.1205V9.5H66.2605V18.4H64.7405V0.92H66.2605ZM61.7205 2.8C61.6205 8.48 58.3405 12.58 53.8405 14.92L52.9005 13.72C57.2605 11.7 59.7605 8.02 60.0805 4.08H53.5005V2.8H61.7205ZM91.4791 6.62H88.8191V11.3H87.2991V0.92H88.8191V5.34H91.4791V6.62ZM77.2391 12.22H88.8191V18.52H87.2991V13.48H77.2391V12.22ZM83.9591 2.12C83.6191 6.68 80.5791 9.66 76.1391 11.04L75.3191 9.76C78.8191 8.98 81.8191 6.38 82.2991 3.42H76.0191V2.12H83.9591ZM103.044 13.16L102.124 14.3C100.484 13.26 98.3438 11.06 97.7238 8.98C97.1238 11.1 95.4238 13.26 93.3238 14.72L92.3238 13.58C94.9038 12.06 96.9238 8.98 96.9238 5.84V4.04H92.8838V2.76H102.544V4.04H98.5038V5.8C98.5038 9.06 100.644 11.8 103.044 13.16ZM108.964 9.3H106.124V18.4H104.604V0.92H106.124V8.02H108.964V9.3ZM128.682 0.92V8.2H131.542V9.5H128.682V18.4H127.162V0.92H128.682ZM124.142 2.8C124.042 8.48 120.762 12.58 116.262 14.92L115.322 13.72C119.682 11.7 122.182 8.02 122.502 4.08H115.922V2.8H124.142ZM148.327 10.34H132.547V9.08H148.327V10.34ZM146.507 7.18H134.747V1.38H136.267V5.92H146.507V7.18ZM146.607 15.04C146.607 17.14 144.267 18.3 140.467 18.3C136.647 18.3 134.347 17.14 134.347 15.04C134.347 12.96 136.647 11.8 140.447 11.8C144.267 11.8 146.607 12.96 146.607 15.04ZM140.447 13.04C137.707 13.04 135.887 13.68 135.887 15.04C135.887 16.4 137.707 17.04 140.447 17.04C143.227 17.04 145.067 16.4 145.067 15.04C145.067 13.68 143.227 13.04 140.447 13.04ZM165.952 8.12H163.292V13.82H161.772V0.92H163.292V6.84H165.952V8.12ZM163.972 17.84H152.332V13.36H153.852V16.56H163.972V17.84ZM157.312 2.88H152.272V1.54H157.312V2.88ZM160.012 5.46H149.772V4.2H160.012V5.46ZM159.012 9.46C159.012 11.3 157.252 12.52 154.892 12.52C152.572 12.52 150.792 11.3 150.792 9.46C150.792 7.58 152.552 6.4 154.892 6.4C157.252 6.4 159.012 7.58 159.012 9.46ZM157.572 9.46C157.572 8.3 156.312 7.6 154.892 7.6C153.492 7.6 152.232 8.3 152.232 9.46C152.232 10.6 153.492 11.3 154.892 11.3C156.312 11.3 157.572 10.6 157.572 9.46ZM186.81 18.4H185.27V0.92H186.81V18.4ZM183.05 13.04L182.09 14.2C180.51 13.12 178.45 10.96 177.77 8.86C177.13 11.04 175.33 13.18 173.31 14.62L172.31 13.48C174.87 11.88 176.97 8.7 176.97 5.6V2.44H178.51V5.54C178.51 8.74 180.63 11.6 183.05 13.04ZM205.815 7.68H203.155V14H201.635V0.92H203.155V6.4H205.815V7.68ZM203.695 17.96H192.155V12.56H193.675V16.7H203.695V17.96ZM190.315 2.46H198.275C198.075 7.22 194.835 10.56 190.375 11.98L189.595 10.7C193.355 9.74 196.175 6.96 196.615 3.74H190.315V2.46ZM222.8 9.76H207.02V8.48H222.8V9.76ZM221.04 4.2C221.04 6.12 218.72 7.22 214.92 7.22C211.16 7.22 208.84 6.12 208.84 4.2C208.84 2.28 211.16 1.16 214.92 1.16C218.72 1.16 221.04 2.28 221.04 4.2ZM214.92 2.4C212.18 2.4 210.4 3.1 210.4 4.2C210.4 5.28 212.18 5.96 214.92 5.96C217.7 5.96 219.5 5.28 219.5 4.2C219.5 3.1 217.7 2.4 214.92 2.4ZM221.4 18.24H208.86V14.08H219.3V12.54H208.82V11.32H220.82V15.24H210.38V17H221.4V18.24ZM245.358 10.6H229.578V9.34H245.358V10.6ZM243.498 7.6H231.518V1.66H243.418V2.94H233.038V6.32H243.498V7.6ZM243.698 15.2C243.698 17.2 241.338 18.28 237.498 18.28C233.658 18.28 231.318 17.2 231.318 15.2C231.318 13.2 233.658 12.12 237.478 12.12C241.338 12.12 243.698 13.2 243.698 15.2ZM237.478 13.42C234.698 13.42 232.838 14.04 232.838 15.2C232.838 16.34 234.698 16.96 237.478 16.96C240.318 16.96 242.158 16.34 242.158 15.2C242.158 14.04 240.298 13.42 237.478 13.42ZM260.943 8.62H255.503V10.46H262.663V11.74H246.883V10.46H253.983V8.62H248.863V4.5H259.123V2.82H248.843V1.6H260.643V5.64H250.383V7.4H260.943V8.62ZM248.563 13.26H260.683V18.52H259.143V14.52H248.563V13.26ZM280.288 7.14H277.628V11.06H276.108V0.92H277.628V5.86H280.288V7.14ZM277.628 18.28H266.628V11.92H268.148V13.78H276.108V11.9H277.628V18.28ZM276.108 17V15.04H268.148V17H276.108ZM271.728 2.44H266.688V1.16H271.728V2.44ZM274.288 4.9H264.108V3.66H274.288V4.9ZM273.268 8.44C273.268 10.16 271.568 11.26 269.208 11.26C266.828 11.26 265.148 10.16 265.148 8.44C265.148 6.68 266.788 5.6 269.208 5.6C271.568 5.6 273.268 6.68 273.268 8.44ZM271.728 8.44C271.728 7.42 270.568 6.82 269.208 6.82C267.848 6.82 266.648 7.42 266.648 8.44C266.648 9.44 267.868 10.06 269.208 10.06C270.568 10.06 271.728 9.44 271.728 8.44ZM295.652 0.92V18.4H294.152V0.92H295.652ZM292.372 11.98L292.512 13.3C290.492 13.76 285.932 14.1 283.252 14.1H282.472V2.74H284.012V12.76C286.252 12.76 290.292 12.44 292.372 11.98ZM312.277 0.92V7.86H315.117V9.14H312.277V18.4H310.757V0.92H312.277ZM301.017 12.82H302.017C304.277 12.82 307.737 12.62 309.417 12.26L309.577 13.52C307.697 13.88 304.237 14.12 301.197 14.12H299.477V2.74H307.777V4.02H301.017V12.82ZM316.182 16.66V14.88H317.922V16.66H316.182ZM39.9813 42.16H28.8613V36.24H39.9813V42.16ZM26.7813 29.6V28.36H36.1613V29.6H32.3013C32.4813 31.7 34.5213 33.38 36.5013 33.88L35.7213 35.06C34.1813 34.58 32.3413 33.14 31.5213 31.56C30.9413 33.12 29.1213 34.86 27.1213 35.56L26.2813 34.4C28.5213 33.74 30.5613 31.74 30.6813 29.6H26.7813ZM38.4613 40.9V37.5H30.3813V40.9H38.4613ZM42.6413 30.9H39.9813V35.32H38.4613V24.92H39.9813V29.62H42.6413V30.9ZM29.0613 26.74V25.44H33.9413V26.74H29.0613ZM56.6059 30.14H53.0459V28.86H56.6059V24.92H58.1259V35.18H56.6059V30.14ZM58.1459 42.4H56.6259V37.36H46.5059V36.1H58.1459V42.4ZM53.9059 33L53.0059 34.2C51.3459 33.4 49.6059 31.88 48.9059 30.14C48.3859 31.94 46.8259 33.48 44.6259 34.7L43.6859 33.52C46.1459 32.38 48.0859 30.22 48.0859 27.44V25.74H49.6259V27.38C49.6259 30.18 51.9459 32.3 53.9059 33ZM71.5106 37.16L70.5906 38.3C68.9506 37.26 66.8106 35.06 66.1906 32.98C65.5906 35.1 63.8906 37.26 61.7906 38.72L60.7906 37.58C63.3706 36.06 65.3906 32.98 65.3906 29.84V28.04H61.3506V26.76H71.0106V28.04H66.9706V29.8C66.9706 33.06 69.1106 35.8 71.5106 37.16ZM77.4306 33.3H74.5906V42.4H73.0706V24.92H74.5906V32.02H77.4306V33.3ZM91.8953 24.92V32.2H94.7553V33.5H91.8953V42.4H90.3753V24.92H91.8953ZM87.3553 26.8C87.2553 32.48 83.9753 36.58 79.4753 38.92L78.5353 37.72C82.8953 35.7 85.3953 32.02 85.7153 28.08H79.1353V26.8H87.3553ZM107.894 41.5C106.694 41.76 104.574 42.06 102.614 42.04V35.74H104.114V40.74C105.134 40.74 106.654 40.56 107.674 40.26L107.894 41.5ZM113.994 35.52H109.774V34.32H113.994V35.52ZM116.214 37.56H107.514V36.38H116.214V37.56ZM115.234 40.38C115.234 41.86 113.674 42.64 111.834 42.64C109.994 42.64 108.454 41.86 108.454 40.38C108.454 38.88 109.994 38.1 111.834 38.1C113.674 38.1 115.234 38.88 115.234 40.38ZM113.774 40.38C113.774 39.72 112.934 39.24 111.834 39.24C110.754 39.24 109.894 39.72 109.894 40.38C109.894 41.04 110.754 41.52 111.834 41.52C112.934 41.52 113.774 41.04 113.774 40.38ZM109.814 33.42H101.634V26.18H109.814V33.42ZM108.294 32.16V27.44H103.154V32.16H108.294ZM117.114 30.16H114.454V33.44H112.934V24.92H114.454V28.88H117.114V30.16ZM134.099 33.76H118.319V32.48H134.099V33.76ZM132.339 28.2C132.339 30.12 130.019 31.22 126.219 31.22C122.459 31.22 120.139 30.12 120.139 28.2C120.139 26.28 122.459 25.16 126.219 25.16C130.019 25.16 132.339 26.28 132.339 28.2ZM126.219 26.4C123.479 26.4 121.699 27.1 121.699 28.2C121.699 29.28 123.479 29.96 126.219 29.96C128.999 29.96 130.799 29.28 130.799 28.2C130.799 27.1 128.999 26.4 126.219 26.4ZM132.699 42.24H120.159V38.08H130.599V36.54H120.119V35.32H132.119V39.24H121.679V41H132.699V42.24ZM149.497 42.42H147.977V36.08H140.877V34.8H156.657V36.08H149.497V42.42ZM156.017 31.64L155.297 32.94C152.677 32.4 149.817 30.76 148.757 28.72C147.917 30.76 144.937 32.46 142.277 32.98L141.537 31.68C144.897 31.24 147.977 29.02 147.977 26.64V25.52H149.577V26.64C149.577 29.02 152.937 31.26 156.017 31.64ZM172.242 32.62H166.802V34.46H173.962V35.74H158.182V34.46H165.282V32.62H160.162V28.5H170.422V26.82H160.142V25.6H171.942V29.64H161.682V31.4H172.242V32.62ZM159.862 37.26H171.982V42.52H170.442V38.52H159.862V37.26ZM195.48 35.4H193.96V30.7H191.74V35.26H190.26V25.24H191.74V29.42H193.96V24.92H195.48V35.4ZM195.48 42.4H193.94V37.62H183.74V36.34H195.48V42.4ZM189.48 33.3L188.64 34.46C187.08 33.72 185.7 32.14 185.1 30.78C184.66 32.2 183.14 34.08 181.52 35.02L180.58 33.86C182.44 32.86 184.32 30.74 184.32 28.12V25.94H185.8V28.08C185.8 30.76 187.8 32.58 189.48 33.3ZM212.425 42.4H210.905V24.92H212.425V42.4ZM198.625 32.4C198.625 28.72 200.265 26.24 203.125 26.24C206.025 26.24 207.645 28.72 207.645 32.42C207.645 36.12 206.025 38.6 203.125 38.6C200.265 38.6 198.625 36.12 198.625 32.4ZM206.205 32.42C206.205 29.54 204.985 27.56 203.125 27.56C201.285 27.56 200.065 29.54 200.065 32.42C200.065 35.28 201.285 37.28 203.125 37.28C204.985 37.28 206.205 35.28 206.205 32.42ZM221.344 27.82V26.54H230.864V27.82H226.864C226.864 28.56 226.864 28.9 226.884 29.16C227.004 31.4 229.204 33.36 231.204 34.02L230.344 35.24C228.684 34.56 226.784 32.92 226.064 31.34C225.604 32.98 223.564 34.88 221.684 35.7L220.804 34.52C223.004 33.66 225.164 31.44 225.304 29.14C225.324 28.9 225.324 28.56 225.324 27.82H221.344ZM235.264 41.94H223.604V36.5H225.124V40.68H235.264V41.94ZM234.884 37.62H233.364V24.92H234.884V37.62ZM252.648 42.4H251.148V33.34H249.048V41.52H247.568V25.34H249.048V32.06H251.148V24.92H252.648V42.4ZM246.248 34.94C246.248 37.04 244.688 38.42 242.428 38.42C240.188 38.42 238.608 36.94 238.608 34.94C238.608 32.82 240.188 31.44 242.428 31.44C244.688 31.44 246.248 32.84 246.248 34.94ZM244.788 34.94C244.788 33.6 243.808 32.72 242.428 32.72C241.048 32.72 240.088 33.6 240.088 34.94C240.088 36.3 241.048 37.16 242.428 37.16C243.808 37.16 244.788 36.26 244.788 34.94ZM246.568 30.44H237.868V29.18H246.568V30.44ZM244.688 27.58H239.908V26.26H244.688V27.58ZM265.933 37.36L264.993 38.52C263.193 37.48 261.113 35.38 260.413 33.22C259.833 35.34 257.993 37.52 255.893 38.96L254.953 37.8C257.533 36.28 259.613 33.26 259.613 30.08V28.04H255.493V26.76H265.113V28.04H261.193V30.04C261.193 33.3 263.373 35.98 265.933 37.36ZM264.453 30.74V29.5H267.973V24.92H269.493V42.4H267.973V34.76H264.453V33.52H267.973V30.74H264.453ZM286.698 30.62C286.698 33.32 284.178 35.12 280.378 35.12C276.618 35.12 274.098 33.32 274.098 30.62C274.098 27.92 276.618 26.08 280.378 26.08C284.198 26.08 286.698 27.92 286.698 30.62ZM285.238 30.62C285.238 28.66 283.318 27.34 280.378 27.34C277.478 27.34 275.558 28.66 275.558 30.62C275.558 32.58 277.478 33.9 280.378 33.9C283.298 33.9 285.238 32.58 285.238 30.62ZM288.298 40.18H272.518V38.9H276.418V35.64L277.938 35.6V38.9H282.818V35.6L284.338 35.64V38.9H288.298V40.18ZM291.083 37.14L290.843 26.02H292.663L292.423 37.14H291.083ZM290.903 40.54V38.76H292.623V40.54H290.903Z" fill="black"/>
</svg>
