<svg width="352" height="62" viewBox="0 0 352 62" fill="none" xmlns="http://www.w3.org/2000/svg">
<g filter="url(#filter0_d_2462_808)">
<rect x="10" y="9" width="332" height="42" rx="14" fill="white"/>
<path d="M101.302 23.662H102.472V26.758C102.472 30.16 101.032 33.454 98.656 34.894L97.702 33.778C99.952 32.464 101.302 29.548 101.302 26.758V23.662ZM101.572 23.662H102.742V26.668C102.742 29.35 104.002 32.104 106.162 33.31L105.262 34.48C102.886 33.112 101.572 29.944 101.572 26.668V23.662ZM110.284 22.132H111.724V38.404H110.284V22.132ZM107.71 28.666H110.824V29.908H107.71V28.666ZM106.702 22.474H108.124V37.594H106.702V22.474ZM122.145 24.742H126.843V25.948H122.145V24.742ZM122.145 28.054H126.879V29.26H122.145V28.054ZM115.251 23.086H116.727V25.75H121.137V23.086H122.595V30.898H115.251V23.086ZM116.727 26.956V29.674H121.137V26.956H116.727ZM116.979 32.68H127.833V38.404H126.339V33.904H116.979V32.68ZM126.339 22.132H127.833V31.798H126.339V22.132ZM131.958 30.4545C131.958 28.8523 132.169 27.3778 132.591 26.0312C133.013 24.6847 133.629 23.4425 134.438 22.3047H136.19C135.874 22.7266 135.58 23.2443 135.308 23.858C135.035 24.4716 134.796 25.1449 134.592 25.8778C134.387 26.6065 134.227 27.3629 134.112 28.147C133.997 28.9268 133.94 29.696 133.94 30.4545C133.94 31.4688 134.04 32.4957 134.24 33.5355C134.44 34.5753 134.711 35.5405 135.052 36.4311C135.393 37.3217 135.772 38.0483 136.19 38.6108H134.438C133.629 37.473 133.013 36.2308 132.591 34.8842C132.169 33.5376 131.958 32.0611 131.958 30.4545ZM138.179 37V35.5682L142.609 30.9787C143.082 30.4801 143.472 30.0433 143.779 29.6683C144.09 29.2891 144.322 28.929 144.475 28.5881C144.629 28.2472 144.705 27.8849 144.705 27.5014C144.705 27.0668 144.603 26.6918 144.399 26.3764C144.194 26.0568 143.915 25.8118 143.561 25.6413C143.208 25.4666 142.809 25.3793 142.366 25.3793C141.897 25.3793 141.488 25.4751 141.139 25.6669C140.789 25.8587 140.521 26.1293 140.333 26.4787C140.146 26.8281 140.052 27.2372 140.052 27.706H138.166C138.166 26.9091 138.35 26.2124 138.716 25.6158C139.083 25.0192 139.585 24.5568 140.225 24.2287C140.864 23.8963 141.59 23.7301 142.404 23.7301C143.227 23.7301 143.951 23.8942 144.578 24.2223C145.208 24.5462 145.7 24.9893 146.054 25.5518C146.408 26.1101 146.585 26.7408 146.585 27.4439C146.585 27.9297 146.493 28.4048 146.31 28.8693C146.131 29.3338 145.818 29.8516 145.37 30.4226C144.923 30.9893 144.301 31.6776 143.504 32.4872L140.902 35.2102V35.3061H146.796V37H138.179ZM148.662 34.4432V32.8452L154.319 23.9091H155.578V26.2614H154.779L150.733 32.6662V32.7685H158.487V34.4432H148.662ZM154.869 37V33.9574L154.882 33.2287V23.9091H156.754V37H154.869ZM161.999 35.3764C161.65 35.3764 161.349 35.2528 161.098 35.0057C160.846 34.7543 160.721 34.4517 160.721 34.098C160.721 33.7486 160.846 33.4503 161.098 33.2031C161.349 32.9517 161.65 32.826 161.999 32.826C162.349 32.826 162.649 32.9517 162.9 33.2031C163.152 33.4503 163.278 33.7486 163.278 34.098C163.278 34.3324 163.218 34.5476 163.099 34.7436C162.983 34.9354 162.83 35.0888 162.638 35.2038C162.447 35.3189 162.233 35.3764 161.999 35.3764ZM161.999 28.8182C161.65 28.8182 161.349 28.6946 161.098 28.4474C160.846 28.196 160.721 27.8935 160.721 27.5398C160.721 27.1903 160.846 26.892 161.098 26.6449C161.349 26.3935 161.65 26.2678 161.999 26.2678C162.349 26.2678 162.649 26.3935 162.9 26.6449C163.152 26.892 163.278 27.1903 163.278 27.5398C163.278 27.7741 163.218 27.9893 163.099 28.1854C162.983 28.3771 162.83 28.5305 162.638 28.6456C162.447 28.7607 162.233 28.8182 161.999 28.8182ZM170.369 37.2173C169.36 37.2131 168.497 36.9467 167.781 36.4183C167.065 35.8899 166.517 35.1207 166.138 34.1108C165.759 33.1009 165.569 31.8842 165.569 30.4609C165.569 29.0419 165.759 27.8295 166.138 26.8239C166.521 25.8182 167.071 25.0511 167.787 24.5227C168.507 23.9943 169.368 23.7301 170.369 23.7301C171.371 23.7301 172.23 23.9964 172.945 24.5291C173.661 25.0575 174.209 25.8246 174.588 26.8303C174.972 27.8317 175.164 29.0419 175.164 30.4609C175.164 31.8885 174.974 33.1072 174.595 34.1172C174.215 35.1229 173.668 35.892 172.952 36.4247C172.236 36.9531 171.375 37.2173 170.369 37.2173ZM170.369 35.5107C171.256 35.5107 171.948 35.0781 172.447 34.2131C172.95 33.348 173.201 32.0973 173.201 30.4609C173.201 29.3743 173.086 28.456 172.856 27.706C172.63 26.9517 172.304 26.3807 171.878 25.9929C171.456 25.6009 170.953 25.4048 170.369 25.4048C169.487 25.4048 168.795 25.8395 168.292 26.7088C167.789 27.5781 167.536 28.8288 167.531 30.4609C167.531 31.5518 167.644 32.4744 167.87 33.2287C168.1 33.9787 168.426 34.5476 168.848 34.9354C169.27 35.3189 169.777 35.5107 170.369 35.5107ZM181.989 37.2173C180.979 37.2131 180.116 36.9467 179.4 36.4183C178.684 35.8899 178.136 35.1207 177.757 34.1108C177.378 33.1009 177.188 31.8842 177.188 30.4609C177.188 29.0419 177.378 27.8295 177.757 26.8239C178.141 25.8182 178.69 25.0511 179.406 24.5227C180.126 23.9943 180.987 23.7301 181.989 23.7301C182.99 23.7301 183.849 23.9964 184.565 24.5291C185.281 25.0575 185.828 25.8246 186.207 26.8303C186.591 27.8317 186.783 29.0419 186.783 30.4609C186.783 31.8885 186.593 33.1072 186.214 34.1172C185.835 35.1229 185.287 35.892 184.571 36.4247C183.855 36.9531 182.994 37.2173 181.989 37.2173ZM181.989 35.5107C182.875 35.5107 183.567 35.0781 184.066 34.2131C184.569 33.348 184.82 32.0973 184.82 30.4609C184.82 29.3743 184.705 28.456 184.475 27.706C184.249 26.9517 183.923 26.3807 183.497 25.9929C183.075 25.6009 182.572 25.4048 181.989 25.4048C181.107 25.4048 180.414 25.8395 179.911 26.7088C179.408 27.5781 179.155 28.8288 179.151 30.4609C179.151 31.5518 179.263 32.4744 179.489 33.2287C179.719 33.9787 180.045 34.5476 180.467 34.9354C180.889 35.3189 181.396 35.5107 181.989 35.5107ZM193.999 31.8991C193.982 31.1619 194.091 30.5568 194.325 30.0838C194.564 29.6108 194.884 29.2614 195.284 29.0355C195.685 28.8054 196.126 28.6903 196.607 28.6903C197.033 28.6903 197.428 28.782 197.79 28.9652C198.152 29.1442 198.565 29.4382 199.03 29.8473C199.32 30.0987 199.556 30.282 199.739 30.397C199.923 30.5078 200.127 30.5632 200.353 30.5632C200.698 30.5632 200.973 30.4354 201.178 30.1797C201.386 29.9197 201.487 29.5362 201.478 29.0291H203.095C203.112 29.7706 203.001 30.3778 202.763 30.8509C202.528 31.3239 202.209 31.6733 201.804 31.8991C201.403 32.125 200.964 32.2379 200.487 32.2379C200.057 32.2379 199.661 32.1463 199.298 31.9631C198.936 31.7756 198.525 31.4815 198.065 31.081C197.766 30.821 197.528 30.6378 197.349 30.5312C197.17 30.4205 196.967 30.3651 196.741 30.3651C196.413 30.3651 196.141 30.4844 195.923 30.723C195.71 30.9574 195.608 31.3494 195.616 31.8991H193.999ZM214.887 37.179C214.086 37.179 213.366 37.0256 212.726 36.7188C212.091 36.4077 211.584 35.9815 211.205 35.4403C210.826 34.8991 210.623 34.2812 210.598 33.5866H212.515C212.562 34.1491 212.812 34.6115 213.263 34.9737C213.715 35.3359 214.256 35.517 214.887 35.517C215.39 35.517 215.835 35.402 216.223 35.1719C216.615 34.9375 216.922 34.6158 217.143 34.2067C217.369 33.7976 217.482 33.331 217.482 32.8068C217.482 32.2741 217.367 31.799 217.137 31.3814C216.907 30.9638 216.589 30.6357 216.184 30.397C215.784 30.1584 215.324 30.0369 214.804 30.0327C214.407 30.0327 214.009 30.1009 213.608 30.2372C213.208 30.3736 212.884 30.5526 212.637 30.7741L210.828 30.5057L211.563 23.9091H218.76V25.603H213.206L212.79 29.2656H212.867C213.123 29.0185 213.461 28.8118 213.883 28.6456C214.309 28.4794 214.765 28.3963 215.251 28.3963C216.048 28.3963 216.758 28.5859 217.38 28.9652C218.006 29.3445 218.498 29.8622 218.856 30.5185C219.219 31.1705 219.398 31.9205 219.393 32.7685C219.398 33.6165 219.206 34.3729 218.818 35.0376C218.434 35.7024 217.902 36.2266 217.22 36.6101C216.542 36.9893 215.765 37.179 214.887 37.179ZM223.013 35.3764C222.663 35.3764 222.363 35.2528 222.112 35.0057C221.86 34.7543 221.734 34.4517 221.734 34.098C221.734 33.7486 221.86 33.4503 222.112 33.2031C222.363 32.9517 222.663 32.826 223.013 32.826C223.362 32.826 223.663 32.9517 223.914 33.2031C224.165 33.4503 224.291 33.7486 224.291 34.098C224.291 34.3324 224.232 34.5476 224.112 34.7436C223.997 34.9354 223.844 35.0888 223.652 35.2038C223.46 35.3189 223.247 35.3764 223.013 35.3764ZM223.013 28.8182C222.663 28.8182 222.363 28.6946 222.112 28.4474C221.86 28.196 221.734 27.8935 221.734 27.5398C221.734 27.1903 221.86 26.892 222.112 26.6449C222.363 26.3935 222.663 26.2678 223.013 26.2678C223.362 26.2678 223.663 26.3935 223.914 26.6449C224.165 26.892 224.291 27.1903 224.291 27.5398C224.291 27.7741 224.232 27.9893 224.112 28.1854C223.997 28.3771 223.844 28.5305 223.652 28.6456C223.46 28.7607 223.247 28.8182 223.013 28.8182ZM231.147 37.179C230.346 37.179 229.625 37.0256 228.986 36.7188C228.351 36.4077 227.844 35.9815 227.465 35.4403C227.086 34.8991 226.883 34.2812 226.858 33.5866H228.775C228.822 34.1491 229.071 34.6115 229.523 34.9737C229.975 35.3359 230.516 35.517 231.147 35.517C231.65 35.517 232.095 35.402 232.483 35.1719C232.875 34.9375 233.181 34.6158 233.403 34.2067C233.629 33.7976 233.742 33.331 233.742 32.8068C233.742 32.2741 233.627 31.799 233.397 31.3814C233.167 30.9638 232.849 30.6357 232.444 30.397C232.044 30.1584 231.583 30.0369 231.064 30.0327C230.667 30.0327 230.269 30.1009 229.868 30.2372C229.468 30.3736 229.144 30.5526 228.897 30.7741L227.088 30.5057L227.823 23.9091H235.02V25.603H229.466L229.05 29.2656H229.127C229.382 29.0185 229.721 28.8118 230.143 28.6456C230.569 28.4794 231.025 28.3963 231.511 28.3963C232.308 28.3963 233.017 28.5859 233.64 28.9652C234.266 29.3445 234.758 29.8622 235.116 30.5185C235.478 31.1705 235.657 31.9205 235.653 32.7685C235.657 33.6165 235.466 34.3729 235.078 35.0376C234.694 35.7024 234.162 36.2266 233.48 36.6101C232.802 36.9893 232.025 37.179 231.147 37.179ZM242.341 23.7301C242.925 23.7344 243.5 23.8409 244.067 24.0497C244.633 24.2585 245.145 24.5994 245.601 25.0724C246.061 25.5455 246.427 26.1847 246.7 26.9901C246.977 27.7912 247.118 28.7884 247.122 29.9815C247.122 31.1278 247.007 32.1484 246.777 33.0433C246.547 33.9339 246.216 34.6861 245.786 35.2997C245.36 35.9134 244.842 36.38 244.233 36.6996C243.623 37.0192 242.937 37.179 242.175 37.179C241.395 37.179 240.702 37.0256 240.097 36.7188C239.492 36.4119 239 35.9879 238.621 35.4467C238.241 34.9013 238.005 34.2749 237.911 33.5675H239.861C239.988 34.13 240.248 34.5859 240.64 34.9354C241.037 35.2805 241.548 35.4531 242.175 35.4531C243.133 35.4531 243.881 35.0355 244.418 34.2003C244.955 33.3608 245.226 32.1889 245.23 30.6847H245.128C244.906 31.0511 244.629 31.3665 244.297 31.6307C243.969 31.8949 243.6 32.0994 243.191 32.2443C242.782 32.3892 242.345 32.4616 241.881 32.4616C241.126 32.4616 240.44 32.2763 239.822 31.9055C239.204 31.5348 238.712 31.0256 238.346 30.3778C237.979 29.7301 237.796 28.9908 237.796 28.1598C237.796 27.3331 237.983 26.5831 238.358 25.9098C238.738 25.2365 239.266 24.7038 239.944 24.3118C240.626 23.9155 241.425 23.7216 242.341 23.7301ZM242.347 25.392C241.849 25.392 241.399 25.5156 240.998 25.7628C240.602 26.0057 240.289 26.3359 240.059 26.7536C239.829 27.1669 239.714 27.6271 239.714 28.1342C239.714 28.6413 239.824 29.1016 240.046 29.5149C240.272 29.924 240.579 30.25 240.966 30.4929C241.358 30.7315 241.806 30.8509 242.309 30.8509C242.684 30.8509 243.033 30.7784 243.357 30.6335C243.681 30.4886 243.964 30.2884 244.207 30.0327C244.45 29.7727 244.64 29.4787 244.776 29.1506C244.912 28.8224 244.981 28.4773 244.981 28.1151C244.981 27.6335 244.866 27.1861 244.635 26.7727C244.41 26.3594 244.099 26.027 243.702 25.7756C243.306 25.5199 242.854 25.392 242.347 25.392ZM253.132 30.4545C253.132 32.0611 252.921 33.5376 252.499 34.8842C252.077 36.2308 251.462 37.473 250.652 38.6108H248.901C249.216 38.1889 249.51 37.6712 249.783 37.0575C250.055 36.4439 250.294 35.7727 250.499 35.044C250.703 34.3111 250.863 33.5526 250.978 32.7685C251.093 31.9844 251.151 31.2131 251.151 30.4545C251.151 29.4446 251.05 28.4197 250.85 27.38C250.65 26.3402 250.379 25.375 250.038 24.4844C249.697 23.5938 249.318 22.8672 248.901 22.3047H250.652C251.462 23.4425 252.077 24.6847 252.499 26.0312C252.921 27.3778 253.132 28.8523 253.132 30.4545Z" fill="black"/>
</g>
<defs>
<filter id="filter0_d_2462_808" x="0" y="0" width="352" height="62" filterUnits="userSpaceOnUse" color-interpolation-filters="sRGB">
<feFlood flood-opacity="0" result="BackgroundImageFix"/>
<feColorMatrix in="SourceAlpha" type="matrix" values="0 0 0 0 0 0 0 0 0 0 0 0 0 0 0 0 0 0 127 0" result="hardAlpha"/>
<feOffset dy="1"/>
<feGaussianBlur stdDeviation="5"/>
<feComposite in2="hardAlpha" operator="out"/>
<feColorMatrix type="matrix" values="0 0 0 0 0 0 0 0 0 0 0 0 0 0 0 0 0 0 0.25 0"/>
<feBlend mode="normal" in2="BackgroundImageFix" result="effect1_dropShadow_2462_808"/>
<feBlend mode="normal" in="SourceGraphic" in2="effect1_dropShadow_2462_808" result="shape"/>
</filter>
</defs>
</svg>
