<svg width="31" height="32" viewBox="0 0 31 32" fill="none" xmlns="http://www.w3.org/2000/svg">
<path d="M15.463 25.337C17.5103 25.337 19.1507 24.8683 20.384 23.931C21.6173 22.9937 22.234 21.674 22.234 19.972C22.234 18.788 21.9257 17.8137 21.309 17.049C20.6923 16.2843 19.792 15.7787 18.608 15.532C19.718 15.236 20.5567 14.7427 21.124 14.052C21.6913 13.3613 21.975 12.461 21.975 11.351C21.975 9.69833 21.4077 8.44033 20.273 7.577C19.1383 6.689 17.6707 6.245 15.87 6.245C13.7733 6.245 12.1823 6.726 11.097 7.688C10.0117 8.62533 9.469 9.797 9.469 11.203V11.314H12.91C12.9347 10.648 13.206 10.1177 13.724 9.723C14.242 9.32833 14.9203 9.131 15.759 9.131C16.573 9.131 17.2143 9.34067 17.683 9.76C18.1517 10.1547 18.386 10.7467 18.386 11.536C18.386 12.054 18.275 12.5103 18.053 12.905C17.831 13.2997 17.4733 13.608 16.98 13.83C16.5113 14.052 15.8823 14.163 15.093 14.163H13.946V17.049H15.019C16.203 17.049 17.091 17.308 17.683 17.826C18.2997 18.3193 18.608 18.9977 18.608 19.861C18.608 20.675 18.349 21.3163 17.831 21.785C17.313 22.229 16.573 22.451 15.611 22.451C14.6983 22.451 13.983 22.229 13.465 21.785C12.947 21.341 12.688 20.6873 12.688 19.824H9.136V20.416C9.136 21.9207 9.70333 23.117 10.838 24.005C11.9727 24.893 13.5143 25.337 15.463 25.337ZM15.5 31.035C13.4033 31.035 11.43 30.6403 9.58 29.851C7.73 29.0617 6.102 27.9763 4.696 26.595C3.31467 25.189 2.22933 23.561 1.44 21.711C0.650667 19.861 0.256 17.8877 0.256 15.791C0.256 13.6943 0.650667 11.7333 1.44 9.908C2.22933 8.058 3.31467 6.43 4.696 5.024C6.102 3.618 7.73 2.52033 9.58 1.731C11.43 0.941665 13.4033 0.546998 15.5 0.546998C17.6213 0.546998 19.5947 0.941665 21.42 1.731C23.27 2.52033 24.8857 3.618 26.267 5.024C27.673 6.43 28.7707 8.058 29.56 9.908C30.3493 11.7333 30.744 13.6943 30.744 15.791C30.744 17.8877 30.3493 19.861 29.56 21.711C28.7707 23.561 27.673 25.189 26.267 26.595C24.8857 27.9763 23.27 29.0617 21.42 29.851C19.5947 30.6403 17.6213 31.035 15.5 31.035Z" fill="black"/>
</svg>
