<svg width="208" height="49" viewBox="0 0 208 49" fill="none" xmlns="http://www.w3.org/2000/svg">
<rect width="208" height="49" rx="24.5" fill="#8E6FFF"/>
<path d="M73.4751 18.594H76.3551V20.556H73.4751V18.594ZM73.4751 22.212H76.3551V24.174H73.4751V22.212ZM71.8191 16.434H74.2131V26.262H71.8191V16.434ZM63.0891 26.946H74.2131V33.102H71.8191V28.854H63.0891V26.946ZM65.7351 17.334C68.3091 17.334 70.2711 19.044 70.2711 21.42C70.2711 23.796 68.3091 25.488 65.7351 25.488C63.1611 25.488 61.1991 23.796 61.1991 21.42C61.1991 19.044 63.1611 17.334 65.7351 17.334ZM65.7351 19.368C64.4751 19.368 63.5391 20.106 63.5391 21.42C63.5391 22.734 64.4751 23.49 65.7351 23.49C66.9951 23.49 67.9311 22.734 67.9311 21.42C67.9311 20.106 66.9951 19.368 65.7351 19.368ZM77.6497 24.516H92.7337V26.424H77.6497V24.516ZM83.9677 22.356H86.3437V25.344H83.9677V22.356ZM83.9317 16.722H85.9837V17.226C85.9837 20.304 83.5357 22.716 79.2877 23.328L78.4057 21.456C82.1497 21.006 83.9317 19.098 83.9317 17.226V16.722ZM84.3277 16.722H86.3797V17.226C86.3797 19.17 88.1257 21.006 91.9057 21.456L91.0237 23.328C86.7757 22.698 84.3277 20.376 84.3277 17.226V16.722ZM79.3237 27.594H90.8977V33.102H88.5037V29.466H79.3237V27.594ZM99.1591 17.802H107.097V25.848H99.1591V17.802ZM104.739 19.692H101.517V23.958H104.739V19.692ZM109.401 16.434H111.795V28.584H109.401V16.434ZM111.111 21.24H114.009V23.202H111.111V21.24ZM101.049 30.906H112.389V32.814H101.049V30.906ZM101.049 27.396H103.443V31.86H101.049V27.396ZM115.25 22.896H130.334V24.786H115.25V22.896ZM117.104 20.124H128.552V21.996H117.104V20.124ZM117.104 16.74H128.408V18.648H119.48V21.744H117.104V16.74ZM116.96 25.722H128.48V30.132H119.336V31.572H116.978V28.44H126.122V27.522H116.96V25.722ZM116.978 31.14H128.912V32.976H116.978V31.14ZM143.274 16.434H145.686V33.102H143.274V16.434ZM138.36 18.162H140.736C140.736 23.256 139.008 27.432 133.086 30.294L131.844 28.386C136.632 26.082 138.36 23.058 138.36 18.594V18.162ZM132.726 18.162H139.494V20.052H132.726V18.162Z" fill="white"/>
</svg>
