<svg width="208" height="49" viewBox="0 0 208 49" fill="none" xmlns="http://www.w3.org/2000/svg">
<rect width="208" height="49" rx="24.5" fill="#8E6FFF"/>
<path d="M75.4008 23.184H77.7948V25.704H75.4008V23.184ZM76.5708 17.1C78.9828 17.1 80.7288 18.486 80.7288 20.502C80.7288 22.482 78.9828 23.868 76.5708 23.868C74.1588 23.868 72.4128 22.482 72.4128 20.502C72.4128 18.486 74.1588 17.1 76.5708 17.1ZM76.5708 18.9C75.4368 18.9 74.6448 19.476 74.6448 20.502C74.6448 21.51 75.4368 22.086 76.5708 22.086C77.7228 22.086 78.4968 21.51 78.4968 20.502C78.4968 19.476 77.7228 18.9 76.5708 18.9ZM82.4388 16.452H84.8328V29.16H82.4388V16.452ZM83.9868 21.672H86.9208V23.634H83.9868V21.672ZM73.7088 30.888H85.3908V32.814H73.7088V30.888ZM73.7088 28.062H76.1208V31.716H73.7088V28.062ZM71.8188 27L71.5488 25.092C74.3748 25.092 78.2808 25.074 81.5568 24.606L81.7188 26.316C78.3528 26.946 74.5728 27 71.8188 27ZM91.9954 26.154H94.3354V30.078H91.9954V26.154ZM97.2694 26.136H99.6094V30.078H97.2694V26.136ZM88.1794 29.322H103.263V31.266H88.1794V29.322ZM89.8714 17.514H101.571V23.04H92.2834V25.866H89.9074V21.168H99.1954V19.404H89.8714V17.514ZM89.9074 24.858H101.949V26.784H89.9074V24.858ZM115.412 16.434H117.788V33.102H115.412V16.434ZM117.248 22.932H120.2V24.93H117.248V22.932ZM104.648 18.9H114.35V20.808H104.648V18.9ZM109.526 21.744C111.956 21.744 113.756 23.4 113.756 25.722C113.756 28.044 111.956 29.7 109.526 29.7C107.096 29.7 105.296 28.044 105.296 25.722C105.296 23.4 107.096 21.744 109.526 21.744ZM109.526 23.688C108.392 23.688 107.582 24.444 107.582 25.722C107.582 27 108.392 27.756 109.526 27.756C110.66 27.756 111.47 27 111.47 25.722C111.47 24.444 110.66 23.688 109.526 23.688ZM108.32 16.704H110.714V19.62H108.32V16.704ZM132.763 16.434H135.175V33.102H132.763V16.434ZM127.849 18.162H130.225C130.225 23.256 128.497 27.432 122.575 30.294L121.333 28.386C126.121 26.082 127.849 23.058 127.849 18.594V18.162ZM122.215 18.162H128.983V20.052H122.215V18.162Z" fill="white"/>
</svg>
