<svg width="552" height="60" viewBox="0 0 552 60" fill="none" xmlns="http://www.w3.org/2000/svg">
<rect width="552" height="60" rx="13" fill="#D9D9D9"/>
<mask id="mask0_459_591" style="mask-type:alpha" maskUnits="userSpaceOnUse" x="18" y="14" width="32" height="32">
<rect x="18" y="14" width="32" height="32" fill="#D9D9D9"/>
</mask>
<g mask="url(#mask0_459_591)">
<path d="M27.333 32.6667C26.5997 32.6667 25.9719 32.4056 25.4497 31.8833C24.9275 31.3611 24.6663 30.7333 24.6663 30C24.6663 29.2667 24.9275 28.6389 25.4497 28.1167C25.9719 27.5944 26.5997 27.3333 27.333 27.3333C28.0663 27.3333 28.6941 27.5944 29.2163 28.1167C29.7386 28.6389 29.9997 29.2667 29.9997 30C29.9997 30.7333 29.7386 31.3611 29.2163 31.8833C28.6941 32.4056 28.0663 32.6667 27.333 32.6667ZM27.333 38C25.1108 38 23.2219 37.2222 21.6663 35.6667C20.1108 34.1111 19.333 32.2222 19.333 30C19.333 27.7778 20.1108 25.8889 21.6663 24.3333C23.2219 22.7778 25.1108 22 27.333 22C28.8219 22 30.1719 22.3667 31.383 23.1C32.5941 23.8333 33.5552 24.8 34.2663 26H45.9997L49.9997 30L43.9997 36L41.333 34L38.6663 36L35.833 34H34.2663C33.5552 35.2 32.5941 36.1667 31.383 36.9C30.1719 37.6333 28.8219 38 27.333 38ZM27.333 35.3333C28.5775 35.3333 29.6719 34.9556 30.6163 34.2C31.5608 33.4444 32.1886 32.4889 32.4997 31.3333H36.6663L38.5997 32.7L41.333 30.6667L43.6997 32.5L46.1997 30L44.8663 28.6667H32.4997C32.1886 27.5111 31.5608 26.5556 30.6163 25.8C29.6719 25.0444 28.5775 24.6667 27.333 24.6667C25.8663 24.6667 24.6108 25.1889 23.5663 26.2333C22.5219 27.2778 21.9997 28.5333 21.9997 30C21.9997 31.4667 22.5219 32.7222 23.5663 33.7667C24.6108 34.8111 25.8663 35.3333 27.333 35.3333Z" fill="#888888"/>
</g>
<path d="M84.3231 22.46H85.9831V40.58H84.3231V22.46ZM72.2231 24H73.8631V28.78H79.0831V24H80.7431V36.22H72.2231V24ZM73.8631 30.1V34.86H79.0831V30.1H73.8631ZM90.5416 23.48H98.9616V30.88H90.5416V23.48ZM97.3616 24.8H92.1416V29.54H97.3616V24.8ZM102.742 22.48H104.402V31.78H102.742V22.48ZM92.7016 32.68H104.402V37.06H94.3616V39.6H92.7416V35.82H102.762V34H92.7016V32.68ZM92.7416 39.04H105.022V40.36H92.7416V39.04ZM116.52 27.58H121.72V28.94H116.52V27.58ZM121.2 22.5H122.86V35.88H121.2V22.5ZM111.24 38.8H123.3V40.16H111.24V38.8ZM111.24 34.58H112.9V39.5H111.24V34.58ZM108.88 23.68H110.52V26.88H115.42V23.68H117.04V32.8H108.88V23.68ZM110.52 28.18V31.44H115.42V28.18H110.52ZM127.198 25.12H141.878V26.48H127.198V25.12ZM126.398 37.08H142.778V38.46H126.398V37.08ZM133.738 34.22H135.378V37.62H133.738V34.22ZM134.538 27.7C138.198 27.7 140.458 28.96 140.458 31.14C140.458 33.32 138.198 34.58 134.538 34.58C130.898 34.58 128.638 33.32 128.638 31.14C128.638 28.96 130.898 27.7 134.538 27.7ZM134.538 29C131.918 29 130.298 29.8 130.298 31.14C130.298 32.48 131.918 33.26 134.538 33.26C137.178 33.26 138.778 32.48 138.778 31.14C138.778 29.8 137.178 29 134.538 29ZM133.738 22.78H135.378V25.96H133.738V22.78Z" fill="#999999"/>
</svg>
