<svg width="552" height="60" viewBox="0 0 552 60" fill="none" xmlns="http://www.w3.org/2000/svg">
<rect width="552" height="60" rx="13" fill="#D9D9D9"/>
<path d="M26.9128 23.18H28.2128V26.62C28.2128 30.4 26.6128 34.06 23.9728 35.66L22.9128 34.42C25.4128 32.96 26.9128 29.72 26.9128 26.62V23.18ZM27.2128 23.18H28.5128V26.52C28.5128 29.5 29.9128 32.56 32.3128 33.9L31.3128 35.2C28.6728 33.68 27.2128 30.16 27.2128 26.52V23.18ZM36.8928 21.48H38.4928V39.56H36.8928V21.48ZM34.0328 28.74H37.4928V30.12H34.0328V28.74ZM32.9128 21.86H34.4928V38.66H32.9128V21.86ZM59.1239 21.46H60.7839V39.58H59.1239V21.46ZM47.0239 23H48.6639V27.78H53.8839V23H55.5439V35.22H47.0239V23ZM48.6639 29.1V33.86H53.8839V29.1H48.6639ZM65.3423 22.48H73.7623V29.88H65.3423V22.48ZM72.1623 23.8H66.9423V28.54H72.1623V23.8ZM77.5423 21.48H79.2023V30.78H77.5423V21.48ZM67.5023 31.68H79.2023V36.06H69.1623V38.6H67.5423V34.82H77.5623V33H67.5023V31.68ZM67.5423 38.04H79.8223V39.36H67.5423V38.04ZM91.3208 26.58H96.5208V27.94H91.3208V26.58ZM96.0008 21.5H97.6608V34.88H96.0008V21.5ZM86.0408 37.8H98.1008V39.16H86.0408V37.8ZM86.0408 33.58H87.7008V38.5H86.0408V33.58ZM83.6808 22.68H85.3208V25.88H90.2208V22.68H91.8408V31.8H83.6808V22.68ZM85.3208 27.18V30.44H90.2208V27.18H85.3208ZM101.999 24.12H116.679V25.48H101.999V24.12ZM101.199 36.08H117.579V37.46H101.199V36.08ZM108.539 33.22H110.179V36.62H108.539V33.22ZM109.339 26.7C112.999 26.7 115.259 27.96 115.259 30.14C115.259 32.32 112.999 33.58 109.339 33.58C105.699 33.58 103.439 32.32 103.439 30.14C103.439 27.96 105.699 26.7 109.339 26.7ZM109.339 28C106.719 28 105.099 28.8 105.099 30.14C105.099 31.48 106.719 32.26 109.339 32.26C111.979 32.26 113.579 31.48 113.579 30.14C113.579 28.8 111.979 28 109.339 28ZM108.539 21.78H110.179V24.96H108.539V21.78ZM137.21 21.48H138.89V31.18H137.21V21.48ZM127.23 32.08H128.87V34.28H137.25V32.08H138.89V39.32H127.23V32.08ZM128.87 35.6V37.98H137.25V35.6H128.87ZM129.19 22.34C131.93 22.34 133.89 24.04 133.89 26.5C133.89 28.98 131.93 30.68 129.19 30.68C126.45 30.68 124.47 28.98 124.47 26.5C124.47 24.04 126.45 22.34 129.19 22.34ZM129.19 23.72C127.39 23.72 126.09 24.86 126.09 26.5C126.09 28.14 127.39 29.28 129.19 29.28C130.99 29.28 132.29 28.14 132.29 26.5C132.29 24.86 130.99 23.72 129.19 23.72ZM143.209 30.44H144.509C148.069 30.44 149.829 30.38 151.989 30L152.169 31.34C149.929 31.74 148.129 31.8 144.509 31.8H143.209V30.44ZM143.169 22.56H150.969V27.7H144.849V31.26H143.209V26.4H149.329V23.92H143.169V22.56ZM155.669 21.5H157.329V32.6H155.669V21.5ZM152.169 24.16H156.049V25.52H152.169V24.16ZM152.169 27.9H156.049V29.26H152.169V27.9ZM145.229 33.58H157.329V39.6H155.669V34.94H145.229V33.58Z" fill="#999999"/>
</svg>
