<svg width="552" height="60" viewBox="0 0 552 60" fill="none" xmlns="http://www.w3.org/2000/svg">
<rect width="552" height="60" rx="13" fill="#D9D9D9"/>
<mask id="mask0_459_590" style="mask-type:alpha" maskUnits="userSpaceOnUse" x="18" y="14" width="32" height="32">
<rect x="18" y="14" width="32" height="32" fill="#D9D9D9"/>
</mask>
<g mask="url(#mask0_459_590)">
<path d="M25.8003 36.7993C26.9337 35.9327 28.2003 35.2493 29.6003 34.7493C31.0003 34.2493 32.467 33.9993 34.0003 33.9993C35.5337 33.9993 37.0003 34.2493 38.4003 34.7493C39.8003 35.2493 41.067 35.9327 42.2003 36.7993C42.9781 35.8882 43.5837 34.8549 44.017 33.6993C44.4503 32.5438 44.667 31.3105 44.667 29.9993C44.667 27.0438 43.6281 24.5271 41.5503 22.4493C39.4725 20.3716 36.9559 19.3327 34.0003 19.3327C31.0448 19.3327 28.5281 20.3716 26.4503 22.4493C24.3725 24.5271 23.3337 27.0438 23.3337 29.9993C23.3337 31.3105 23.5503 32.5438 23.9837 33.6993C24.417 34.8549 25.0225 35.8882 25.8003 36.7993ZM34.0003 31.3327C32.6892 31.3327 31.5837 30.8827 30.6837 29.9827C29.7837 29.0827 29.3337 27.9771 29.3337 26.666C29.3337 25.3549 29.7837 24.2493 30.6837 23.3493C31.5837 22.4493 32.6892 21.9993 34.0003 21.9993C35.3114 21.9993 36.417 22.4493 37.317 23.3493C38.217 24.2493 38.667 25.3549 38.667 26.666C38.667 27.9771 38.217 29.0827 37.317 29.9827C36.417 30.8827 35.3114 31.3327 34.0003 31.3327ZM34.0003 43.3327C32.1559 43.3327 30.4225 42.9827 28.8003 42.2827C27.1781 41.5827 25.767 40.6327 24.567 39.4327C23.367 38.2327 22.417 36.8216 21.717 35.1993C21.017 33.5771 20.667 31.8438 20.667 29.9993C20.667 28.1549 21.017 26.4216 21.717 24.7993C22.417 23.1771 23.367 21.766 24.567 20.566C25.767 19.366 27.1781 18.416 28.8003 17.716C30.4225 17.016 32.1559 16.666 34.0003 16.666C35.8448 16.666 37.5781 17.016 39.2003 17.716C40.8225 18.416 42.2337 19.366 43.4337 20.566C44.6337 21.766 45.5837 23.1771 46.2837 24.7993C46.9837 26.4216 47.3337 28.1549 47.3337 29.9993C47.3337 31.8438 46.9837 33.5771 46.2837 35.1993C45.5837 36.8216 44.6337 38.2327 43.4337 39.4327C42.2337 40.6327 40.8225 41.5827 39.2003 42.2827C37.5781 42.9827 35.8448 43.3327 34.0003 43.3327ZM34.0003 40.666C35.1781 40.666 36.2892 40.4938 37.3337 40.1493C38.3781 39.8049 39.3337 39.3105 40.2003 38.666C39.3337 38.0216 38.3781 37.5271 37.3337 37.1827C36.2892 36.8382 35.1781 36.666 34.0003 36.666C32.8225 36.666 31.7114 36.8382 30.667 37.1827C29.6225 37.5271 28.667 38.0216 27.8003 38.666C28.667 39.3105 29.6225 39.8049 30.667 40.1493C31.7114 40.4938 32.8225 40.666 34.0003 40.666ZM34.0003 28.666C34.5781 28.666 35.0559 28.4771 35.4337 28.0993C35.8114 27.7216 36.0003 27.2438 36.0003 26.666C36.0003 26.0882 35.8114 25.6105 35.4337 25.2327C35.0559 24.8549 34.5781 24.666 34.0003 24.666C33.4225 24.666 32.9448 24.8549 32.567 25.2327C32.1892 25.6105 32.0003 26.0882 32.0003 26.666C32.0003 27.2438 32.1892 27.7216 32.567 28.0993C32.9448 28.4771 33.4225 28.666 34.0003 28.666Z" fill="#888888"/>
</g>
<path d="M84.5223 22.46H86.1823V40.58H84.5223V22.46ZM76.6423 23.86C79.3223 23.86 81.2423 26.32 81.2423 30.16C81.2423 34.02 79.3223 36.48 76.6423 36.48C73.9823 36.48 72.0623 34.02 72.0623 30.16C72.0623 26.32 73.9823 23.86 76.6423 23.86ZM76.6423 25.36C74.8823 25.36 73.6423 27.24 73.6423 30.16C73.6423 33.1 74.8823 35.02 76.6423 35.02C78.4223 35.02 79.6423 33.1 79.6423 30.16C79.6423 27.24 78.4223 25.36 76.6423 25.36ZM90.4408 24.56H97.3408V35.72H90.4408V24.56ZM95.7808 25.88H92.0008V34.4H95.7808V25.88ZM103.561 22.48H105.161V40.56H103.561V22.48ZM96.5008 29.28H100.661V30.66H96.5008V29.28ZM99.9808 22.86H101.561V39.66H99.9808V22.86ZM113.259 23.14C115.959 23.14 117.939 24.78 117.939 27.16C117.939 29.52 115.959 31.16 113.259 31.16C110.579 31.16 108.599 29.52 108.599 27.16C108.599 24.78 110.579 23.14 113.259 23.14ZM113.259 24.5C111.519 24.5 110.199 25.6 110.199 27.16C110.199 28.72 111.519 29.8 113.259 29.8C115.019 29.8 116.319 28.72 116.319 27.16C116.319 25.6 115.019 24.5 113.259 24.5ZM121.339 22.48H123.019V31.74H121.339V22.48ZM111.319 32.62H123.019V37.02H112.979V39.74H111.359V35.78H121.379V33.96H111.319V32.62ZM111.359 39H123.619V40.32H111.359V39Z" fill="#999999"/>
</svg>
