<svg width="150" height="42" viewBox="0 0 150 42" fill="none" xmlns="http://www.w3.org/2000/svg">
<rect width="150" height="42" rx="14" fill="#D9D9D9"/>
<path d="M31.0961 14.15H32.6081V26.174H31.0961V14.15ZM22.1501 28.82H33.0941V30.044H22.1501V28.82ZM22.1501 25.04H23.6261V29.468H22.1501V25.04ZM23.6801 17.246H24.9041V17.93C24.9041 20.846 23.0501 23.258 20.3321 24.194L19.5941 23.024C22.0061 22.232 23.6801 20.18 23.6801 17.93V17.246ZM23.9321 17.246H25.1561V17.93C25.1561 20.054 26.8481 21.98 29.2781 22.736L28.5581 23.906C25.8041 23.024 23.9321 20.72 23.9321 17.93V17.246ZM19.9721 16.31H28.8281V17.516H19.9721V16.31ZM23.6801 14.204H25.1561V16.886H23.6801V14.204ZM37.6647 15.194H47.8347V16.4H37.6647V15.194ZM35.8287 22.178H50.5347V23.402H35.8287V22.178ZM42.3987 22.988H43.8927V30.422H42.3987V22.988ZM47.1327 15.194H48.5907V16.598C48.5907 18.29 48.5907 20.198 47.9787 22.952L46.5027 22.754C47.1327 20.126 47.1327 18.236 47.1327 16.598V15.194ZM64.7467 17.966H68.8507V19.208H64.7467V17.966ZM60.4807 15.122H61.6867V17.12C61.6867 20.27 59.9227 22.898 57.2047 23.996L56.4307 22.808C58.8427 21.908 60.4807 19.604 60.4807 17.12V15.122ZM60.7687 15.122H61.9747V17.174C61.9747 19.442 63.5587 21.584 65.9167 22.448L65.1067 23.6C62.5147 22.592 60.7687 20.072 60.7687 17.174V15.122ZM68.2927 14.15H69.7867V26.318H68.2927V14.15ZM59.3287 28.82H70.1827V30.044H59.3287V28.82ZM59.3287 24.968H60.8227V29.396H59.3287V24.968ZM73.6553 21.908H74.6993C77.2553 21.908 78.7673 21.854 80.5853 21.494L80.7293 22.718C78.8573 23.078 77.3093 23.15 74.6993 23.15H73.6553V21.908ZM73.6553 15.32H79.9553V16.544H75.0953V22.574H73.6553V15.32ZM74.6453 18.56H79.7573V19.73H74.6453V18.56ZM85.2473 14.132H86.6693V23.996H85.2473V14.132ZM82.6193 18.38H85.6973V19.604H82.6193V18.38ZM81.6653 14.438H83.0693V23.906H81.6653V14.438ZM75.7613 24.86H86.6693V30.404H85.1933V26.084H75.7613V24.86Z" fill="#999999"/>
<mask id="mask0_468_988" style="mask-type:alpha" maskUnits="userSpaceOnUse" x="115" y="12" width="17" height="18">
<rect x="115" y="29.5" width="17" height="17" rx="1" transform="rotate(-90 115 29.5)" fill="#D9D9D9"/>
</mask>
<g mask="url(#mask0_468_988)">
<path d="M129.96 16.659C130.258 17.0172 130.258 17.5375 129.96 17.8957L124.16 24.8555C123.76 25.3352 123.024 25.3352 122.624 24.8555L116.824 17.8957C116.525 17.5375 116.525 17.0172 116.824 16.659V16.659C117.21 16.1956 117.922 16.1956 118.308 16.659L122.624 21.838C123.023 22.3177 123.76 22.3177 124.16 21.838L128.476 16.659C128.862 16.1956 129.574 16.1956 129.96 16.659V16.659Z" fill="#1C1B1F"/>
</g>
</svg>
