<svg width="71" height="27" viewBox="0 0 71 27" fill="none" xmlns="http://www.w3.org/2000/svg">
<rect width="71" height="27" rx="13.5" fill="#E2DBFF"/>
<path d="M15.2588 20V17.7324H18.4492C19.2637 17.7324 19.9434 17.5859 20.4883 17.293C21.0391 17 21.4521 16.5518 21.7275 15.9482C22.0029 15.3447 22.1406 14.5713 22.1406 13.6279C22.1406 12.6904 22 11.9199 21.7188 11.3164C21.4434 10.707 21.0332 10.2588 20.4883 9.97168C19.9492 9.68457 19.2754 9.54102 18.4668 9.54102H15.1973V7.27344H18.5986C19.8701 7.27344 20.9717 7.52539 21.9033 8.0293C22.835 8.5332 23.5469 9.26562 24.0391 10.2266C24.5371 11.1816 24.7861 12.3154 24.7861 13.6279C24.7861 14.9463 24.5371 16.083 24.0391 17.0381C23.541 17.9932 22.8232 18.7256 21.8857 19.2354C20.9541 19.7451 19.8467 20 18.5635 20H15.2588ZM16.7178 20H14.0811V7.27344H16.7178V20ZM32.5557 14.665H26.7549V12.5996H32.5557V14.665Z" fill="black"/>
<path d="M39.4287 20.1758C38.4971 20.1758 37.668 20.0176 36.9414 19.7012C36.2148 19.3848 35.6406 18.9424 35.2188 18.374C34.8027 17.7998 34.5889 17.1465 34.5771 16.4141H37.2402C37.252 16.7246 37.3574 17 37.5566 17.2402C37.7559 17.4746 38.0166 17.6592 38.3389 17.7939C38.6611 17.9229 39.0244 17.9873 39.4287 17.9873C39.8506 17.9873 40.2285 17.9141 40.5625 17.7676C40.8965 17.6211 41.1543 17.416 41.3359 17.1523C41.5176 16.8887 41.6055 16.5898 41.5996 16.2559C41.5996 15.916 41.5029 15.6113 41.3096 15.3418C41.1221 15.0664 40.8438 14.8555 40.4746 14.709C40.1113 14.5566 39.6836 14.4805 39.1914 14.4805H38.0049V12.5293H39.1914C39.6074 12.5293 39.9766 12.459 40.2988 12.3184C40.6211 12.1719 40.8701 11.9727 41.0459 11.7207C41.2275 11.4629 41.3184 11.167 41.3184 10.833C41.3184 10.5166 41.2393 10.2354 41.0811 9.98926C40.9287 9.7373 40.7119 9.54395 40.4307 9.40918C40.1494 9.26855 39.8242 9.19824 39.4551 9.19824C39.0801 9.19824 38.7373 9.26562 38.4268 9.40039C38.1162 9.5293 37.8643 9.7168 37.6709 9.96289C37.4775 10.209 37.375 10.4902 37.3633 10.8066H34.832C34.8438 10.0918 35.0547 9.4502 35.4648 8.88184C35.875 8.31348 36.4258 7.87402 37.1172 7.56348C37.8145 7.25293 38.5938 7.09766 39.4551 7.09766C40.3281 7.09766 41.0986 7.25586 41.7666 7.57227C42.4346 7.88281 42.9502 8.31348 43.3135 8.86426C43.6826 9.40918 43.8643 10.0127 43.8584 10.6748C43.8643 11.1436 43.7676 11.5684 43.5684 11.9492C43.3691 12.3242 43.085 12.6348 42.7158 12.8809C42.3525 13.1211 41.9307 13.2852 41.4502 13.373V13.4697C42.0654 13.5459 42.5898 13.7158 43.0234 13.9795C43.4629 14.2432 43.7939 14.5859 44.0166 15.0078C44.2393 15.4238 44.3477 15.8984 44.3418 16.4316C44.3477 17.1465 44.1396 17.7881 43.7178 18.3564C43.3018 18.9248 42.7188 19.3701 41.9688 19.6924C41.2188 20.0146 40.3721 20.1758 39.4287 20.1758ZM51.1621 20.1758C50.1016 20.1758 49.1875 19.9209 48.4199 19.4111C47.6582 18.8955 47.0723 18.1484 46.6621 17.1699C46.2578 16.1914 46.0557 15.0137 46.0557 13.6367C46.0557 12.2656 46.2578 11.0908 46.6621 10.1123C47.0723 9.12793 47.6582 8.38086 48.4199 7.87109C49.1875 7.35547 50.1016 7.09766 51.1621 7.09766C52.2168 7.09766 53.1279 7.35547 53.8955 7.87109C54.6631 8.38086 55.252 9.12793 55.6621 10.1123C56.0723 11.0908 56.2773 12.2656 56.2773 13.6367C56.2773 15.0195 56.0723 16.2002 55.6621 17.1787C55.2578 18.1572 54.6719 18.9014 53.9043 19.4111C53.1367 19.9209 52.2227 20.1758 51.1621 20.1758ZM51.1621 17.9961C51.6602 17.9961 52.0908 17.835 52.4541 17.5127C52.8232 17.1904 53.1016 16.7041 53.2891 16.0537C53.4824 15.4033 53.5762 14.5977 53.5703 13.6367C53.5703 12.6875 53.4736 11.8877 53.2803 11.2373C53.0869 10.5811 52.8086 10.0889 52.4453 9.76074C52.082 9.43262 51.6543 9.26855 51.1621 9.26855C50.6641 9.26855 50.2363 9.43262 49.8789 9.76074C49.5215 10.0889 49.2432 10.5811 49.0439 11.2373C48.8447 11.8877 48.7451 12.6875 48.7451 13.6367C48.7451 14.5977 48.8447 15.4033 49.0439 16.0537C49.2432 16.7041 49.5186 17.1904 49.8701 17.5127C50.2275 17.835 50.6582 17.9961 51.1621 17.9961Z" fill="#E2DBFF"/>
</svg>
