<svg width="42" height="43" viewBox="0 0 42 43" fill="none" xmlns="http://www.w3.org/2000/svg">
<path d="M20.8064 31.378C17.6204 31.378 15.3794 30.271 13.9214 28.57L16.1354 25.546C17.3504 26.68 18.7544 27.49 20.3204 27.49C22.1834 27.49 23.3984 26.707 23.3984 25.195C23.3984 23.467 22.4804 22.441 18.2684 22.441V19.039C21.6974 19.039 22.7774 18.013 22.7774 16.42C22.7774 15.043 21.9674 14.287 20.4824 14.287C19.1324 14.287 18.1064 14.881 16.8914 15.961L14.4614 13.018C16.3244 11.452 18.3224 10.534 20.6984 10.534C24.8564 10.534 27.5834 12.478 27.5834 16.069C27.5834 18.067 26.5034 19.633 24.3704 20.497V20.632C26.5844 21.307 28.2314 22.927 28.2314 25.519C28.2314 29.272 24.8024 31.378 20.8064 31.378Z" fill="black"/>
<path d="M42 22C42 33.598 32.598 43 21 43C9.40202 43 0 33.598 0 22C0 10.402 9.40202 1 21 1C32.598 1 42 10.402 42 22ZM5.25 22C5.25 30.6985 12.3015 37.75 21 37.75C29.6985 37.75 36.75 30.6985 36.75 22C36.75 13.3015 29.6985 6.25 21 6.25C12.3015 6.25 5.25 13.3015 5.25 22Z" fill="black"/>
</svg>
