<svg width="457" height="154" viewBox="0 0 457 154" fill="none" xmlns="http://www.w3.org/2000/svg">
<path d="M52.373 16.948H66.863V19.027H52.373V16.948ZM52.52 21.505H66.716V23.584H52.52V21.505ZM54.851 17.767H57.644V22.849H54.851V17.767ZM61.592 17.767H64.385V22.849H61.592V17.767ZM50.84 24.592H68.417V26.776H50.84V24.592ZM52.856 27.847H66.296V32.677H55.628V34.483H52.877V30.808H63.545V29.842H52.856V27.847ZM52.877 33.706H66.8V35.743H52.877V33.706ZM70.6834 29.275H72.0484C74.3584 29.275 76.3954 29.233 78.7894 28.855L78.9994 31.102C76.5214 31.522 74.4214 31.585 72.0484 31.585H70.6834V29.275ZM70.6624 18.313H78.0334V25.831H73.3924V30.115H70.6834V23.626H75.3244V20.539H70.6624V18.313ZM84.2074 16.423H86.8534V35.869H84.2074V16.423ZM81.6034 23.773H84.8374V25.999H81.6034V23.773ZM79.8604 16.759H82.4434V34.945H79.8604V16.759ZM91.2827 18.208H103.61V20.413H91.2827V18.208ZM89.4977 31.06H107.075V33.328H89.4977V31.06ZM102.14 18.208H104.912V20.518C104.912 23.248 104.912 25.894 104.219 29.884L101.426 29.653C102.14 25.915 102.14 23.143 102.14 20.518V18.208ZM114.521 34V32.0014L119.824 26.8036C120.331 26.2915 120.753 25.8366 121.091 25.4389C121.429 25.0412 121.683 24.6559 121.852 24.283C122.021 23.9102 122.105 23.5124 122.105 23.0898C122.105 22.6076 121.996 22.195 121.777 21.8519C121.559 21.5039 121.258 21.2354 120.875 21.0465C120.492 20.8576 120.057 20.7631 119.57 20.7631C119.068 20.7631 118.628 20.8675 118.25 21.0763C117.872 21.2802 117.579 21.571 117.37 21.9489C117.166 22.3267 117.064 22.7766 117.064 23.2987H114.432C114.432 22.3292 114.653 21.4865 115.096 20.7706C115.538 20.0547 116.147 19.5004 116.923 19.1076C117.703 18.7148 118.598 18.5185 119.607 18.5185C120.631 18.5185 121.531 18.7099 122.307 19.0927C123.082 19.4755 123.684 20 124.112 20.6662C124.544 21.3324 124.76 22.093 124.76 22.9482C124.76 23.5199 124.651 24.0817 124.432 24.6335C124.213 25.1854 123.828 25.7969 123.276 26.468C122.729 27.1392 121.961 27.9521 120.972 28.9066L118.339 31.5838V31.6882H124.991V34H114.521ZM131.31 21.463H133.473V22.471C133.473 26.566 131.73 30.703 128.202 32.278L126.69 30.136C129.861 28.687 131.31 25.39 131.31 22.471V21.463ZM131.919 21.463H134.082V22.471C134.082 25.243 135.447 28.351 138.492 29.821L137.001 31.942C133.578 30.367 131.919 26.377 131.919 22.471V21.463ZM127.362 19.594H137.946V21.799H127.362V19.594ZM131.289 16.864H134.082V20.728H131.289V16.864ZM139.479 16.423H142.293V35.869H139.479V16.423ZM141.663 23.962H145.107V26.272H141.663V23.962ZM156.509 28.246H159.302V31.396H156.509V28.246ZM165.014 16.423H167.807V35.869H165.014V16.423ZM152.015 32.635L151.679 30.388C155.207 30.367 159.911 30.367 164.006 29.821L164.195 31.837C159.974 32.614 155.459 32.635 152.015 32.635ZM152.057 18.565H163.754V20.749H152.057V18.565ZM157.895 21.526C160.772 21.526 162.767 22.996 162.767 25.159C162.767 27.343 160.772 28.813 157.895 28.813C155.06 28.813 153.065 27.343 153.065 25.159C153.065 22.996 155.06 21.526 157.895 21.526ZM157.895 23.626C156.635 23.626 155.732 24.172 155.732 25.159C155.732 26.167 156.635 26.713 157.895 26.713C159.197 26.713 160.1 26.167 160.1 25.159C160.1 24.172 159.197 23.626 157.895 23.626ZM156.509 16.507H159.302V19.825H156.509V16.507ZM177.151 17.704C180.217 17.704 182.506 19.699 182.506 22.492C182.506 25.306 180.217 27.301 177.151 27.301C174.106 27.301 171.775 25.306 171.775 22.492C171.775 19.699 174.106 17.704 177.151 17.704ZM177.151 20.098C175.66 20.098 174.526 20.98 174.526 22.492C174.526 24.025 175.66 24.907 177.151 24.907C178.642 24.907 179.776 24.025 179.776 22.492C179.776 20.98 178.642 20.098 177.151 20.098ZM184.333 16.402H187.126V35.911H184.333V16.402ZM171.313 31.963L170.977 29.716C174.4 29.716 179.167 29.674 183.262 29.065L183.472 31.081C179.251 31.921 174.673 31.963 171.313 31.963Z" fill="white"/>
<path d="M21.5057 68V66.7216L26.3068 61.4659C26.8703 60.8504 27.3343 60.3153 27.6989 59.8608C28.0634 59.4015 28.3333 58.9706 28.5085 58.5682C28.6884 58.161 28.7784 57.7348 28.7784 57.2898C28.7784 56.7784 28.6553 56.3357 28.4091 55.9616C28.1676 55.5876 27.8362 55.2988 27.4148 55.0952C26.9934 54.8916 26.5199 54.7898 25.9943 54.7898C25.4356 54.7898 24.9479 54.9058 24.5312 55.1378C24.1193 55.3651 23.7997 55.6847 23.5724 56.0966C23.3499 56.5085 23.2386 56.9915 23.2386 57.5455H21.5625C21.5625 56.6932 21.759 55.9451 22.152 55.3011C22.545 54.6572 23.08 54.1553 23.7571 53.7955C24.4389 53.4356 25.2036 53.2557 26.0511 53.2557C26.9034 53.2557 27.6586 53.4356 28.3168 53.7955C28.9749 54.1553 29.491 54.6406 29.8651 55.2514C30.2391 55.8622 30.4261 56.5417 30.4261 57.2898C30.4261 57.8248 30.3291 58.348 30.1349 58.8594C29.9455 59.366 29.6141 59.9318 29.1406 60.5568C28.6719 61.1771 28.0208 61.9347 27.1875 62.8295L23.9205 66.3239V66.4375H30.6818V68H21.5057ZM38.3594 68.1989C37.2893 68.1989 36.3778 67.9077 35.625 67.3253C34.8722 66.7382 34.2969 65.8883 33.8991 64.7756C33.5014 63.6581 33.3026 62.3087 33.3026 60.7273C33.3026 59.1553 33.5014 57.813 33.8991 56.7003C34.3016 55.5829 34.8793 54.7306 35.6321 54.1435C36.3897 53.5516 37.2988 53.2557 38.3594 53.2557C39.42 53.2557 40.3267 53.5516 41.0795 54.1435C41.8371 54.7306 42.4148 55.5829 42.8125 56.7003C43.215 57.813 43.4162 59.1553 43.4162 60.7273C43.4162 62.3087 43.2173 63.6581 42.8196 64.7756C42.4219 65.8883 41.8466 66.7382 41.0938 67.3253C40.3409 67.9077 39.4295 68.1989 38.3594 68.1989ZM38.3594 66.6364C39.42 66.6364 40.2438 66.125 40.831 65.1023C41.4181 64.0795 41.7116 62.6212 41.7116 60.7273C41.7116 59.4678 41.5767 58.3954 41.3068 57.5099C41.0417 56.6245 40.6581 55.9498 40.1562 55.4858C39.6591 55.0218 39.0601 54.7898 38.3594 54.7898C37.3082 54.7898 36.4867 55.3082 35.8949 56.3452C35.303 57.3774 35.0071 58.8381 35.0071 60.7273C35.0071 61.9867 35.1397 63.0568 35.4048 63.9375C35.67 64.8182 36.0511 65.4882 36.5483 65.9474C37.0502 66.4067 37.6539 66.6364 38.3594 66.6364ZM46.1151 68V66.7216L50.9162 61.4659C51.4796 60.8504 51.9437 60.3153 52.3082 59.8608C52.6728 59.4015 52.9427 58.9706 53.1179 58.5682C53.2978 58.161 53.3878 57.7348 53.3878 57.2898C53.3878 56.7784 53.2647 56.3357 53.0185 55.9616C52.777 55.5876 52.4455 55.2988 52.0241 55.0952C51.6027 54.8916 51.1293 54.7898 50.6037 54.7898C50.045 54.7898 49.5573 54.9058 49.1406 55.1378C48.7287 55.3651 48.4091 55.6847 48.1818 56.0966C47.9593 56.5085 47.848 56.9915 47.848 57.5455H46.1719C46.1719 56.6932 46.3684 55.9451 46.7614 55.3011C47.1544 54.6572 47.6894 54.1553 48.3665 53.7955C49.0483 53.4356 49.813 53.2557 50.6605 53.2557C51.5128 53.2557 52.268 53.4356 52.9261 53.7955C53.5843 54.1553 54.1004 54.6406 54.4744 55.2514C54.8485 55.8622 55.0355 56.5417 55.0355 57.2898C55.0355 57.8248 54.9384 58.348 54.7443 58.8594C54.5549 59.366 54.2235 59.9318 53.75 60.5568C53.2812 61.1771 52.6302 61.9347 51.7969 62.8295L48.5298 66.3239V66.4375H55.2912V68H46.1151ZM63.1392 68.1989C62.2017 68.1989 61.366 68.0379 60.6321 67.7159C59.9029 67.3939 59.3229 66.9465 58.892 66.3736C58.4659 65.7959 58.2339 65.1259 58.196 64.3636H59.9858C60.0237 64.8324 60.1847 65.2372 60.4688 65.5781C60.7528 65.9143 61.1245 66.1747 61.5838 66.3594C62.0431 66.544 62.5521 66.6364 63.1108 66.6364C63.7358 66.6364 64.2898 66.5275 64.7727 66.3097C65.2557 66.0919 65.6345 65.7888 65.9091 65.4006C66.1837 65.0123 66.321 64.5625 66.321 64.0511C66.321 63.5161 66.1884 63.045 65.9233 62.6378C65.6581 62.2259 65.2699 61.9039 64.7585 61.6719C64.2472 61.4399 63.6222 61.3239 62.8835 61.3239H61.7188V59.7614H62.8835C63.4612 59.7614 63.9678 59.6572 64.4034 59.4489C64.8438 59.2405 65.187 58.947 65.4332 58.5682C65.6842 58.1894 65.8097 57.7443 65.8097 57.233C65.8097 56.7405 65.7008 56.312 65.483 55.9474C65.2652 55.5829 64.9574 55.2988 64.5597 55.0952C64.1667 54.8916 63.7027 54.7898 63.1676 54.7898C62.6657 54.7898 62.1922 54.8821 61.7472 55.0668C61.3068 55.2467 60.947 55.5095 60.6676 55.8551C60.3883 56.196 60.2367 56.608 60.2131 57.0909H58.5085C58.5369 56.3286 58.7666 55.661 59.1974 55.0881C59.6283 54.5104 60.1918 54.0606 60.8878 53.7386C61.5885 53.4167 62.358 53.2557 63.196 53.2557C64.0956 53.2557 64.8674 53.438 65.5114 53.8026C66.1553 54.1624 66.6501 54.6383 66.9957 55.2301C67.3414 55.822 67.5142 56.4612 67.5142 57.1477C67.5142 57.9669 67.2988 58.6652 66.8679 59.2429C66.4418 59.8205 65.8617 60.2206 65.1278 60.4432V60.5568C66.0464 60.7083 66.7637 61.099 67.2798 61.7287C67.7959 62.3537 68.054 63.1278 68.054 64.0511C68.054 64.8419 67.8385 65.5521 67.4077 66.1818C66.9815 66.8068 66.3991 67.2992 65.6605 67.6591C64.9219 68.0189 64.0814 68.1989 63.1392 68.1989ZM83.6531 51.48H85.3131V64.88H83.6531V51.48ZM78.5531 53.84H84.2731V55.18H78.5531V53.84ZM73.7531 67.8H85.7931V69.16H73.7531V67.8ZM73.7531 63.72H75.4131V68.42H73.7531V63.72ZM71.4931 52.8H73.1531V61.32H71.4931V52.8ZM71.4931 60.8H72.8531C75.4331 60.8 77.8531 60.66 80.6731 60.16L80.8331 61.54C77.9331 62.06 75.5131 62.18 72.8531 62.18H71.4931V60.8ZM78.5531 57.28H84.2731V58.64H78.5531V57.28ZM99.8118 68.1989C99.2152 68.1894 98.6186 68.0758 98.022 67.858C97.4254 67.6402 96.8809 67.2732 96.3885 66.7571C95.8961 66.2363 95.5007 65.5331 95.2024 64.6477C94.9041 63.7576 94.755 62.6402 94.755 61.2955C94.755 60.0076 94.8757 58.8665 95.1172 57.8722C95.3587 56.8731 95.709 56.0327 96.1683 55.3509C96.6276 54.6643 97.1816 54.1435 97.8303 53.7884C98.4837 53.4332 99.2199 53.2557 100.039 53.2557C100.853 53.2557 101.578 53.419 102.212 53.7457C102.852 54.0677 103.372 54.5175 103.775 55.0952C104.177 55.6728 104.438 56.3381 104.556 57.0909H102.823C102.662 56.4375 102.35 55.8954 101.886 55.4645C101.422 55.0336 100.806 54.8182 100.039 54.8182C98.9122 54.8182 98.0244 55.3082 97.3757 56.2884C96.7318 57.2685 96.4074 58.6439 96.4027 60.4148H96.5163C96.7815 60.0123 97.0964 59.669 97.4609 59.3849C97.8303 59.0961 98.2375 58.8736 98.6825 58.7173C99.1276 58.5611 99.5987 58.483 100.096 58.483C100.929 58.483 101.692 58.6913 102.383 59.108C103.074 59.5199 103.628 60.0904 104.045 60.8196C104.461 61.544 104.67 62.375 104.67 63.3125C104.67 64.2121 104.469 65.036 104.066 65.7841C103.664 66.5275 103.098 67.1193 102.369 67.5597C101.644 67.9953 100.792 68.2083 99.8118 68.1989ZM99.8118 66.6364C100.408 66.6364 100.943 66.4872 101.417 66.1889C101.895 65.8906 102.272 65.4905 102.546 64.9886C102.826 64.4867 102.965 63.928 102.965 63.3125C102.965 62.7112 102.83 62.1643 102.56 61.6719C102.295 61.1747 101.928 60.7794 101.46 60.4858C100.996 60.1922 100.465 60.0455 99.8686 60.0455C99.4188 60.0455 98.9998 60.1354 98.6115 60.3153C98.2232 60.4905 97.8823 60.732 97.5888 61.0398C97.3 61.3475 97.0727 61.7003 96.907 62.098C96.7412 62.491 96.6584 62.9053 96.6584 63.3409C96.6584 63.9186 96.7933 64.4583 97.0632 64.9602C97.3378 65.4621 97.7119 65.867 98.1854 66.1747C98.6636 66.4825 99.2057 66.6364 99.8118 66.6364ZM111.797 58.96H113.457V62.18H111.797V58.96ZM120.097 51.48H121.757V62.12H120.097V51.48ZM107.097 59.52L106.897 58.28C110.377 58.28 114.797 58.26 118.657 57.82L118.757 58.9C114.797 59.48 110.477 59.52 107.097 59.52ZM109.637 62.78H121.757V66.54H111.297V68.58H109.677V65.44H120.117V63.98H109.637V62.78ZM109.677 68.16H122.357V69.36H109.677V68.16ZM116.497 60.08H120.617V61.16H116.497V60.08ZM112.737 51.82C115.417 51.82 117.177 52.86 117.177 54.54C117.177 56.22 115.417 57.26 112.737 57.26C110.037 57.26 108.277 56.22 108.277 54.54C108.277 52.86 110.037 51.82 112.737 51.82ZM112.737 52.98C110.957 52.98 109.817 53.58 109.817 54.54C109.817 55.5 110.957 56.1 112.737 56.1C114.477 56.1 115.617 55.5 115.617 54.54C115.617 53.58 114.477 52.98 112.737 52.98ZM131.486 68V66.7216L136.287 61.4659C136.851 60.8504 137.315 60.3153 137.679 59.8608C138.044 59.4015 138.314 58.9706 138.489 58.5682C138.669 58.161 138.759 57.7348 138.759 57.2898C138.759 56.7784 138.636 56.3357 138.39 55.9616C138.148 55.5876 137.817 55.2988 137.395 55.0952C136.974 54.8916 136.5 54.7898 135.975 54.7898C135.416 54.7898 134.928 54.9058 134.512 55.1378C134.1 55.3651 133.78 55.6847 133.553 56.0966C133.33 56.5085 133.219 56.9915 133.219 57.5455H131.543C131.543 56.6932 131.739 55.9451 132.132 55.3011C132.525 54.6572 133.06 54.1553 133.738 53.7955C134.419 53.4356 135.184 53.2557 136.032 53.2557C136.884 53.2557 137.639 53.4356 138.297 53.7955C138.955 54.1553 139.471 54.6406 139.846 55.2514C140.22 55.8622 140.407 56.5417 140.407 57.2898C140.407 57.8248 140.31 58.348 140.115 58.8594C139.926 59.366 139.595 59.9318 139.121 60.5568C138.652 61.1771 138.001 61.9347 137.168 62.8295L133.901 66.3239V66.4375H140.662V68H131.486ZM148.51 68.1989C147.573 68.1989 146.737 68.0379 146.003 67.7159C145.274 67.3939 144.694 66.9465 144.263 66.3736C143.837 65.7959 143.605 65.1259 143.567 64.3636H145.357C145.395 64.8324 145.556 65.2372 145.84 65.5781C146.124 65.9143 146.496 66.1747 146.955 66.3594C147.414 66.544 147.923 66.6364 148.482 66.6364C149.107 66.6364 149.661 66.5275 150.144 66.3097C150.627 66.0919 151.006 65.7888 151.28 65.4006C151.555 65.0123 151.692 64.5625 151.692 64.0511C151.692 63.5161 151.56 63.045 151.294 62.6378C151.029 62.2259 150.641 61.9039 150.13 61.6719C149.618 61.4399 148.993 61.3239 148.255 61.3239H147.09V59.7614H148.255C148.832 59.7614 149.339 59.6572 149.775 59.4489C150.215 59.2405 150.558 58.947 150.804 58.5682C151.055 58.1894 151.181 57.7443 151.181 57.233C151.181 56.7405 151.072 56.312 150.854 55.9474C150.636 55.5829 150.328 55.2988 149.931 55.0952C149.538 54.8916 149.074 54.7898 148.539 54.7898C148.037 54.7898 147.563 54.8821 147.118 55.0668C146.678 55.2467 146.318 55.5095 146.039 55.8551C145.759 56.196 145.608 56.608 145.584 57.0909H143.88C143.908 56.3286 144.138 55.661 144.569 55.0881C144.999 54.5104 145.563 54.0606 146.259 53.7386C146.96 53.4167 147.729 53.2557 148.567 53.2557C149.467 53.2557 150.239 53.438 150.882 53.8026C151.526 54.1624 152.021 54.6383 152.367 55.2301C152.712 55.822 152.885 56.4612 152.885 57.1477C152.885 57.9669 152.67 58.6652 152.239 59.2429C151.813 59.8205 151.233 60.2206 150.499 60.4432V60.5568C151.417 60.7083 152.135 61.099 152.651 61.7287C153.167 62.3537 153.425 63.1278 153.425 64.0511C153.425 64.8419 153.21 65.5521 152.779 66.1818C152.353 66.8068 151.77 67.2992 151.032 67.6591C150.293 68.0189 149.453 68.1989 148.51 68.1989ZM160.884 52.14C163.584 52.14 165.564 53.78 165.564 56.16C165.564 58.52 163.584 60.16 160.884 60.16C158.204 60.16 156.224 58.52 156.224 56.16C156.224 53.78 158.204 52.14 160.884 52.14ZM160.884 53.5C159.144 53.5 157.824 54.6 157.824 56.16C157.824 57.72 159.144 58.8 160.884 58.8C162.644 58.8 163.944 57.72 163.944 56.16C163.944 54.6 162.644 53.5 160.884 53.5ZM168.964 51.48H170.644V60.74H168.964V51.48ZM158.944 61.62H170.644V66.02H160.604V68.74H158.984V64.78H169.004V62.96H158.944V61.62ZM158.984 68H171.244V69.32H158.984V68ZM180.353 68V66.7216L185.154 61.4659C185.718 60.8504 186.182 60.3153 186.547 59.8608C186.911 59.4015 187.181 58.9706 187.356 58.5682C187.536 58.161 187.626 57.7348 187.626 57.2898C187.626 56.7784 187.503 56.3357 187.257 55.9616C187.015 55.5876 186.684 55.2988 186.262 55.0952C185.841 54.8916 185.368 54.7898 184.842 54.7898C184.283 54.7898 183.796 54.9058 183.379 55.1378C182.967 55.3651 182.647 55.6847 182.42 56.0966C182.198 56.5085 182.086 56.9915 182.086 57.5455H180.41C180.41 56.6932 180.607 55.9451 181 55.3011C181.393 54.6572 181.928 54.1553 182.605 53.7955C183.287 53.4356 184.051 53.2557 184.899 53.2557C185.751 53.2557 186.506 53.4356 187.164 53.7955C187.823 54.1553 188.339 54.6406 188.713 55.2514C189.087 55.8622 189.274 56.5417 189.274 57.2898C189.274 57.8248 189.177 58.348 188.983 58.8594C188.793 59.366 188.462 59.9318 187.988 60.5568C187.52 61.1771 186.868 61.9347 186.035 62.8295L182.768 66.3239V66.4375H189.529V68H180.353ZM197.207 68.1989C196.137 68.1989 195.225 67.9077 194.473 67.3253C193.72 66.7382 193.145 65.8883 192.747 64.7756C192.349 63.6581 192.15 62.3087 192.15 60.7273C192.15 59.1553 192.349 57.813 192.747 56.7003C193.149 55.5829 193.727 54.7306 194.48 54.1435C195.237 53.5516 196.146 53.2557 197.207 53.2557C198.268 53.2557 199.174 53.5516 199.927 54.1435C200.685 54.7306 201.262 55.5829 201.66 56.7003C202.063 57.813 202.264 59.1553 202.264 60.7273C202.264 62.3087 202.065 63.6581 201.667 64.7756C201.27 65.8883 200.694 66.7382 199.941 67.3253C199.189 67.9077 198.277 68.1989 197.207 68.1989ZM197.207 66.6364C198.268 66.6364 199.092 66.125 199.679 65.1023C200.266 64.0795 200.559 62.6212 200.559 60.7273C200.559 59.4678 200.424 58.3954 200.154 57.5099C199.889 56.6245 199.506 55.9498 199.004 55.4858C198.507 55.0218 197.908 54.7898 197.207 54.7898C196.156 54.7898 195.334 55.3082 194.743 56.3452C194.151 57.3774 193.855 58.8381 193.855 60.7273C193.855 61.9867 193.987 63.0568 194.252 63.9375C194.518 64.8182 194.899 65.4882 195.396 65.9474C195.898 66.4067 196.502 66.6364 197.207 66.6364ZM206.213 66.1392C205.862 66.1392 205.562 66.0137 205.311 65.7628C205.06 65.5118 204.934 65.2112 204.934 64.8608C204.934 64.5104 205.06 64.2098 205.311 63.9588C205.562 63.7079 205.862 63.5824 206.213 63.5824C206.563 63.5824 206.864 63.7079 207.115 63.9588C207.366 64.2098 207.491 64.5104 207.491 64.8608C207.491 65.0928 207.432 65.3059 207.314 65.5C207.2 65.6941 207.046 65.8504 206.852 65.9688C206.663 66.0824 206.449 66.1392 206.213 66.1392ZM206.213 58.7812C205.862 58.7812 205.562 58.6558 205.311 58.4048C205.06 58.1539 204.934 57.8532 204.934 57.5028C204.934 57.1525 205.06 56.8518 205.311 56.6009C205.562 56.3499 205.862 56.2244 206.213 56.2244C206.563 56.2244 206.864 56.3499 207.115 56.6009C207.366 56.8518 207.491 57.1525 207.491 57.5028C207.491 57.7348 207.432 57.9479 207.314 58.142C207.2 58.3362 207.046 58.4924 206.852 58.6108C206.663 58.7244 206.449 58.7812 206.213 58.7812ZM215.215 68.1989C214.145 68.1989 213.233 67.9077 212.48 67.3253C211.728 66.7382 211.152 65.8883 210.755 64.7756C210.357 63.6581 210.158 62.3087 210.158 60.7273C210.158 59.1553 210.357 57.813 210.755 56.7003C211.157 55.5829 211.735 54.7306 212.488 54.1435C213.245 53.5516 214.154 53.2557 215.215 53.2557C216.275 53.2557 217.182 53.5516 217.935 54.1435C218.693 54.7306 219.27 55.5829 219.668 56.7003C220.07 57.813 220.272 59.1553 220.272 60.7273C220.272 62.3087 220.073 63.6581 219.675 64.7756C219.277 65.8883 218.702 66.7382 217.949 67.3253C217.196 67.9077 216.285 68.1989 215.215 68.1989ZM215.215 66.6364C216.275 66.6364 217.099 66.125 217.686 65.1023C218.274 64.0795 218.567 62.6212 218.567 60.7273C218.567 59.4678 218.432 58.3954 218.162 57.5099C217.897 56.6245 217.514 55.9498 217.012 55.4858C216.515 55.0218 215.916 54.7898 215.215 54.7898C214.164 54.7898 213.342 55.3082 212.75 56.3452C212.158 57.3774 211.863 58.8381 211.863 60.7273C211.863 61.9867 211.995 63.0568 212.26 63.9375C212.525 64.8182 212.907 65.4882 213.404 65.9474C213.906 66.4067 214.509 66.6364 215.215 66.6364ZM227.715 68.1989C226.645 68.1989 225.733 67.9077 224.98 67.3253C224.228 66.7382 223.652 65.8883 223.255 64.7756C222.857 63.6581 222.658 62.3087 222.658 60.7273C222.658 59.1553 222.857 57.813 223.255 56.7003C223.657 55.5829 224.235 54.7306 224.988 54.1435C225.745 53.5516 226.654 53.2557 227.715 53.2557C228.775 53.2557 229.682 53.5516 230.435 54.1435C231.193 54.7306 231.77 55.5829 232.168 56.7003C232.57 57.813 232.772 59.1553 232.772 60.7273C232.772 62.3087 232.573 63.6581 232.175 64.7756C231.777 65.8883 231.202 66.7382 230.449 67.3253C229.696 67.9077 228.785 68.1989 227.715 68.1989ZM227.715 66.6364C228.775 66.6364 229.599 66.125 230.186 65.1023C230.774 64.0795 231.067 62.6212 231.067 60.7273C231.067 59.4678 230.932 58.3954 230.662 57.5099C230.397 56.6245 230.014 55.9498 229.512 55.4858C229.015 55.0218 228.416 54.7898 227.715 54.7898C226.664 54.7898 225.842 55.3082 225.25 56.3452C224.658 57.3774 224.363 58.8381 224.363 60.7273C224.363 61.9867 224.495 63.0568 224.76 63.9375C225.025 64.8182 225.407 65.4882 225.904 65.9474C226.406 66.4067 227.009 66.6364 227.715 66.6364ZM235.613 62.1761C235.598 61.3902 235.726 60.758 235.996 60.2798C236.266 59.8016 236.616 59.4536 237.047 59.2358C237.483 59.018 237.942 58.9091 238.425 58.9091C238.908 58.9091 239.348 59.0156 239.746 59.2287C240.149 59.437 240.608 59.7661 241.124 60.2159C241.474 60.5189 241.754 60.732 241.962 60.8551C242.175 60.9782 242.407 61.0398 242.658 61.0398C243.065 61.0398 243.387 60.893 243.624 60.5994C243.861 60.3011 243.974 59.8703 243.965 59.3068H245.499C245.513 60.0928 245.385 60.7249 245.115 61.2031C244.85 61.6813 244.5 62.0294 244.064 62.2472C243.629 62.465 243.169 62.5739 242.686 62.5739C242.203 62.5739 241.763 62.4697 241.365 62.2614C240.968 62.0483 240.508 61.7169 239.988 61.267C239.642 60.964 239.363 60.7509 239.15 60.6278C238.936 60.5047 238.704 60.4432 238.453 60.4432C238.07 60.4432 237.753 60.5781 237.502 60.848C237.256 61.1132 237.137 61.5559 237.147 62.1761H235.613ZM247.971 68V66.7216L252.772 61.4659C253.335 60.8504 253.799 60.3153 254.164 59.8608C254.528 59.4015 254.798 58.9706 254.973 58.5682C255.153 58.161 255.243 57.7348 255.243 57.2898C255.243 56.7784 255.12 56.3357 254.874 55.9616C254.632 55.5876 254.301 55.2988 253.88 55.0952C253.458 54.8916 252.985 54.7898 252.459 54.7898C251.9 54.7898 251.413 54.9058 250.996 55.1378C250.584 55.3651 250.265 55.6847 250.037 56.0966C249.815 56.5085 249.703 56.9915 249.703 57.5455H248.027C248.027 56.6932 248.224 55.9451 248.617 55.3011C249.01 54.6572 249.545 54.1553 250.222 53.7955C250.904 53.4356 251.668 53.2557 252.516 53.2557C253.368 53.2557 254.123 53.4356 254.782 53.7955C255.44 54.1553 255.956 54.6406 256.33 55.2514C256.704 55.8622 256.891 56.5417 256.891 57.2898C256.891 57.8248 256.794 58.348 256.6 58.8594C256.41 59.366 256.079 59.9318 255.605 60.5568C255.137 61.1771 254.486 61.9347 253.652 62.8295L250.385 66.3239V66.4375H257.147V68H247.971ZM260.08 68V66.7216L264.881 61.4659C265.444 60.8504 265.908 60.3153 266.273 59.8608C266.638 59.4015 266.908 58.9706 267.083 58.5682C267.263 58.161 267.353 57.7348 267.353 57.2898C267.353 56.7784 267.23 56.3357 266.983 55.9616C266.742 55.5876 266.41 55.2988 265.989 55.0952C265.568 54.8916 265.094 54.7898 264.569 54.7898C264.01 54.7898 263.522 54.9058 263.105 55.1378C262.694 55.3651 262.374 55.6847 262.147 56.0966C261.924 56.5085 261.813 56.9915 261.813 57.5455H260.137C260.137 56.6932 260.333 55.9451 260.726 55.3011C261.119 54.6572 261.654 54.1553 262.331 53.7955C263.013 53.4356 263.778 53.2557 264.625 53.2557C265.478 53.2557 266.233 53.4356 266.891 53.7955C267.549 54.1553 268.065 54.6406 268.439 55.2514C268.813 55.8622 269 56.5417 269 57.2898C269 57.8248 268.903 58.348 268.709 58.8594C268.52 59.366 268.188 59.9318 267.715 60.5568C267.246 61.1771 266.595 61.9347 265.762 62.8295L262.495 66.3239V66.4375H269.256V68H260.08ZM273.439 66.1392C273.089 66.1392 272.788 66.0137 272.537 65.7628C272.286 65.5118 272.161 65.2112 272.161 64.8608C272.161 64.5104 272.286 64.2098 272.537 63.9588C272.788 63.7079 273.089 63.5824 273.439 63.5824C273.79 63.5824 274.09 63.7079 274.341 63.9588C274.592 64.2098 274.718 64.5104 274.718 64.8608C274.718 65.0928 274.658 65.3059 274.54 65.5C274.426 65.6941 274.273 65.8504 274.078 65.9688C273.889 66.0824 273.676 66.1392 273.439 66.1392ZM273.439 58.7812C273.089 58.7812 272.788 58.6558 272.537 58.4048C272.286 58.1539 272.161 57.8532 272.161 57.5028C272.161 57.1525 272.286 56.8518 272.537 56.6009C272.788 56.3499 273.089 56.2244 273.439 56.2244C273.79 56.2244 274.09 56.3499 274.341 56.6009C274.592 56.8518 274.718 57.1525 274.718 57.5028C274.718 57.7348 274.658 57.9479 274.54 58.142C274.426 58.3362 274.273 58.4924 274.078 58.6108C273.889 58.7244 273.676 58.7812 273.439 58.7812ZM282.441 68.1989C281.371 68.1989 280.46 67.9077 279.707 67.3253C278.954 66.7382 278.379 65.8883 277.981 64.7756C277.583 63.6581 277.385 62.3087 277.385 60.7273C277.385 59.1553 277.583 57.813 277.981 56.7003C278.384 55.5829 278.961 54.7306 279.714 54.1435C280.472 53.5516 281.381 53.2557 282.441 53.2557C283.502 53.2557 284.409 53.5516 285.162 54.1435C285.919 54.7306 286.497 55.5829 286.895 56.7003C287.297 57.813 287.498 59.1553 287.498 60.7273C287.498 62.3087 287.299 63.6581 286.902 64.7756C286.504 65.8883 285.929 66.7382 285.176 67.3253C284.423 67.9077 283.511 68.1989 282.441 68.1989ZM282.441 66.6364C283.502 66.6364 284.326 66.125 284.913 65.1023C285.5 64.0795 285.794 62.6212 285.794 60.7273C285.794 59.4678 285.659 58.3954 285.389 57.5099C285.124 56.6245 284.74 55.9498 284.238 55.4858C283.741 55.0218 283.142 54.7898 282.441 54.7898C281.39 54.7898 280.569 55.3082 279.977 56.3452C279.385 57.3774 279.089 58.8381 279.089 60.7273C279.089 61.9867 279.222 63.0568 279.487 63.9375C279.752 64.8182 280.133 65.4882 280.63 65.9474C281.132 66.4067 281.736 66.6364 282.441 66.6364ZM294.941 68.1989C293.871 68.1989 292.96 67.9077 292.207 67.3253C291.454 66.7382 290.879 65.8883 290.481 64.7756C290.083 63.6581 289.885 62.3087 289.885 60.7273C289.885 59.1553 290.083 57.813 290.481 56.7003C290.884 55.5829 291.461 54.7306 292.214 54.1435C292.972 53.5516 293.881 53.2557 294.941 53.2557C296.002 53.2557 296.909 53.5516 297.662 54.1435C298.419 54.7306 298.997 55.5829 299.395 56.7003C299.797 57.813 299.998 59.1553 299.998 60.7273C299.998 62.3087 299.799 63.6581 299.402 64.7756C299.004 65.8883 298.429 66.7382 297.676 67.3253C296.923 67.9077 296.011 68.1989 294.941 68.1989ZM294.941 66.6364C296.002 66.6364 296.826 66.125 297.413 65.1023C298 64.0795 298.294 62.6212 298.294 60.7273C298.294 59.4678 298.159 58.3954 297.889 57.5099C297.624 56.6245 297.24 55.9498 296.738 55.4858C296.241 55.0218 295.642 54.7898 294.941 54.7898C293.89 54.7898 293.069 55.3082 292.477 56.3452C291.885 57.3774 291.589 58.8381 291.589 60.7273C291.589 61.9867 291.722 63.0568 291.987 63.9375C292.252 64.8182 292.633 65.4882 293.13 65.9474C293.632 66.4067 294.236 66.6364 294.941 66.6364Z" fill="white"/>
<path d="M24.4 82.152H25.488V82.776C25.488 85.256 23.856 87.272 21.44 88.056L20.8 87.016C22.944 86.36 24.4 84.68 24.4 82.776V82.152ZM24.64 82.152H25.728V82.776C25.728 84.536 27.136 86.12 29.264 86.744L28.64 87.8C26.224 87.048 24.64 85.096 24.64 82.776V82.152ZM21.2 81.48H28.912V82.552H21.2V81.48ZM24.4 79.72H25.728V81.912H24.4V79.72ZM30.688 79.784H32.016V88.344H30.688V79.784ZM31.648 83.432H34.16V84.552H31.648V83.432ZM22.928 89.016H32.016V94.056H22.928V89.016ZM30.72 90.072H24.224V92.984H30.72V90.072ZM42.0308 83H46.3988V84.104H42.0308V83ZM42.0308 87.576H46.3988V88.68H42.0308V87.576ZM39.3748 80.888C41.4708 80.888 42.9748 82.856 42.9748 85.928C42.9748 89.016 41.4708 90.984 39.3748 90.984C37.2628 90.984 35.7747 89.016 35.7747 85.928C35.7747 82.856 37.2628 80.888 39.3748 80.888ZM39.3748 82.088C37.9828 82.088 37.0228 83.592 37.0228 85.928C37.0228 88.28 37.9828 89.816 39.3748 89.816C40.7668 89.816 41.7268 88.28 41.7268 85.928C41.7268 83.592 40.7668 82.088 39.3748 82.088ZM46.1108 79.768H47.4228V94.264H46.1108V79.768ZM64.9839 79.8H66.3279V90.36H64.9839V79.8ZM57.0319 92.84H66.7599V93.928H57.0319V92.84ZM57.0319 89.272H58.3439V93.208H57.0319V89.272ZM58.5679 80.792C60.7279 80.792 62.3279 82.264 62.3279 84.36C62.3279 86.44 60.7279 87.928 58.5679 87.928C56.4079 87.928 54.7919 86.44 54.7919 84.36C54.7919 82.264 56.4079 80.792 58.5679 80.792ZM58.5679 81.944C57.1599 81.944 56.0879 82.936 56.0879 84.36C56.0879 85.768 57.1599 86.76 58.5679 86.76C59.9759 86.76 61.0479 85.768 61.0479 84.36C61.0479 82.936 59.9759 81.944 58.5679 81.944ZM73.2866 87.064H74.6146V90.28H73.2866V87.064ZM79.7026 79.784H81.0306V90.792H79.7026V79.784ZM71.1586 92.84H81.3826V93.928H71.1586V92.84ZM71.1586 89.72H72.4866V93.144H71.1586V89.72ZM69.2866 87.56L69.1106 86.472C71.7826 86.472 75.3666 86.44 78.4386 86.04L78.5346 87.016C75.4146 87.512 71.9106 87.56 69.2866 87.56ZM76.7586 88.328H80.0386V89.304H76.7586V88.328ZM73.8146 80.376C75.9266 80.376 77.3666 81.368 77.3666 82.888C77.3666 84.424 75.9266 85.416 73.8146 85.416C71.6866 85.416 70.2466 84.424 70.2466 82.888C70.2466 81.368 71.6866 80.376 73.8146 80.376ZM73.8146 81.368C72.4546 81.368 71.5106 81.96 71.5106 82.888C71.5106 83.816 72.4546 84.408 73.8146 84.408C75.1586 84.408 76.1026 83.816 76.1026 82.888C76.1026 81.96 75.1586 81.368 73.8146 81.368ZM92.3949 93.1591C91.5805 93.1591 90.8608 93.0189 90.2358 92.7386C89.6146 92.4583 89.1278 92.072 88.7756 91.5795C88.4233 91.0871 88.2491 90.5265 88.2528 89.8977C88.2491 89.4053 88.3494 88.9527 88.554 88.5398C88.7623 88.1231 89.0445 87.7765 89.4006 87.5C89.7566 87.2197 90.1544 87.0417 90.5938 86.9659V86.8977C90.0142 86.7576 89.5502 86.447 89.2017 85.9659C88.8532 85.4848 88.6809 84.9318 88.6847 84.3068C88.6809 83.7121 88.8381 83.1818 89.1562 82.7159C89.4782 82.2462 89.9195 81.8769 90.4801 81.608C91.0407 81.339 91.679 81.2045 92.3949 81.2045C93.1032 81.2045 93.7358 81.3409 94.2926 81.6136C94.8532 81.8826 95.2945 82.2519 95.6165 82.7216C95.9384 83.1875 96.1013 83.7159 96.1051 84.3068C96.1013 84.9318 95.9233 85.4848 95.571 85.9659C95.2188 86.447 94.7604 86.7576 94.196 86.8977V86.9659C94.6316 87.0417 95.0237 87.2197 95.3722 87.5C95.7244 87.7765 96.0047 88.1231 96.2131 88.5398C96.4252 88.9527 96.5331 89.4053 96.5369 89.8977C96.5331 90.5265 96.3551 91.0871 96.0028 91.5795C95.6506 92.072 95.1619 92.4583 94.5369 92.7386C93.9157 93.0189 93.2017 93.1591 92.3949 93.1591ZM92.3949 91.7216C92.8759 91.7216 93.2926 91.642 93.6449 91.483C93.9972 91.3201 94.2699 91.0947 94.4631 90.8068C94.6563 90.5152 94.7547 90.1742 94.7585 89.7841C94.7547 89.3788 94.6487 89.0208 94.4403 88.7102C94.2358 88.3996 93.9574 88.1553 93.6051 87.9773C93.2528 87.7992 92.8494 87.7102 92.3949 87.7102C91.9366 87.7102 91.5294 87.7992 91.1733 87.9773C90.8172 88.1553 90.5369 88.3996 90.3324 88.7102C90.1278 89.0208 90.0275 89.3788 90.0312 89.7841C90.0275 90.1742 90.1203 90.5152 90.3097 90.8068C90.5028 91.0947 90.7775 91.3201 91.1335 91.483C91.4896 91.642 91.91 91.7216 92.3949 91.7216ZM92.3949 86.3068C92.7813 86.3068 93.1241 86.2292 93.4233 86.0739C93.7225 85.9186 93.9574 85.7027 94.1278 85.4261C94.3021 85.1496 94.3911 84.8258 94.3949 84.4545C94.3911 84.0909 94.304 83.7727 94.1335 83.5C93.9669 83.2273 93.7339 83.017 93.4347 82.8693C93.1354 82.7178 92.7888 82.642 92.3949 82.642C91.9934 82.642 91.6411 82.7178 91.3381 82.8693C91.0388 83.017 90.8059 83.2273 90.6392 83.5C90.4725 83.7727 90.3911 84.0909 90.3949 84.4545C90.3911 84.8258 90.4744 85.1496 90.6449 85.4261C90.8153 85.7027 91.0502 85.9186 91.3494 86.0739C91.6525 86.2292 92.0009 86.3068 92.3949 86.3068ZM105.149 82.12H109.325V83.208H105.149V82.12ZM105.149 85H109.357V86.072H105.149V85ZM108.813 79.784H110.141V88.344H108.813V79.784ZM98.9091 80.872H105.517V87.304H98.9091V80.872ZM104.205 81.944H100.205V86.248H104.205V81.944ZM105.389 88.76C108.365 88.76 110.205 89.768 110.205 91.496C110.205 93.224 108.365 94.216 105.389 94.216C102.397 94.216 100.557 93.224 100.557 91.496C100.557 89.768 102.397 88.76 105.389 88.76ZM105.389 89.816C103.213 89.816 101.885 90.44 101.885 91.496C101.885 92.552 103.213 93.176 105.389 93.176C107.565 93.176 108.893 92.552 108.893 91.496C108.893 90.44 107.565 89.816 105.389 89.816Z" fill="white"/>
<circle cx="36" cy="120" r="16" fill="white"/>
<circle cx="80" cy="120" r="16" fill="white"/>
<circle cx="124" cy="120" r="16" fill="white"/>
<circle cx="168" cy="120" r="16" fill="white"/>
<circle cx="212" cy="120" r="16" fill="white"/>
<circle cx="256" cy="120" r="16" fill="white"/>
<circle cx="300" cy="120" r="16" fill="white"/>
<circle cx="344" cy="120" r="16" fill="white"/>
<mask id="mask0_847_780" style="mask-type:alpha" maskUnits="userSpaceOnUse" x="18" y="13" width="28" height="28">
<rect x="18" y="13" width="28" height="28" rx="1" fill="#D9D9D9"/>
</mask>
<g mask="url(#mask0_847_780)">
<path d="M29.3953 34.3079C29.006 34.6917 28.3805 34.6917 27.9912 34.3079L21.7224 28.1279C21.3251 27.7363 21.3251 27.0953 21.7224 26.7037L22.2213 26.2118C22.6106 25.828 23.236 25.828 23.6254 26.2118L27.9912 30.5158C28.3805 30.8996 29.006 30.8996 29.3953 30.5158L40.3746 19.6921C40.764 19.3083 41.3894 19.3083 41.7787 19.6921L42.2776 20.1839C42.6749 20.5756 42.6749 21.2165 42.2776 21.6082L29.3953 34.3079Z" fill="#1C1B1F"/>
</g>
<rect x="358" y="12" width="83" height="27" rx="13.5" fill="#E2DBFF"/>
<path d="M373.259 32V29.7324H376.449C377.264 29.7324 377.943 29.5859 378.488 29.293C379.039 29 379.452 28.5518 379.728 27.9482C380.003 27.3447 380.141 26.5713 380.141 25.6279C380.141 24.6904 380 23.9199 379.719 23.3164C379.443 22.707 379.033 22.2588 378.488 21.9717C377.949 21.6846 377.275 21.541 376.467 21.541H373.197V19.2734H376.599C377.87 19.2734 378.972 19.5254 379.903 20.0293C380.835 20.5332 381.547 21.2656 382.039 22.2266C382.537 23.1816 382.786 24.3154 382.786 25.6279C382.786 26.9463 382.537 28.083 382.039 29.0381C381.541 29.9932 380.823 30.7256 379.886 31.2354C378.954 31.7451 377.847 32 376.563 32H373.259ZM374.718 32H372.081V19.2734H374.718V32ZM390.556 26.665H384.755V24.5996H390.556V26.665ZM393.966 32V29.7324H397.156C397.971 29.7324 398.65 29.5859 399.195 29.293C399.746 29 400.159 28.5518 400.435 27.9482C400.71 27.3447 400.848 26.5713 400.848 25.6279C400.848 24.6904 400.707 23.9199 400.426 23.3164C400.15 22.707 399.74 22.2588 399.195 21.9717C398.656 21.6846 397.982 21.541 397.174 21.541H393.904V19.2734H397.306C398.577 19.2734 399.679 19.5254 400.61 20.0293C401.542 20.5332 402.254 21.2656 402.746 22.2266C403.244 23.1816 403.493 24.3154 403.493 25.6279C403.493 26.9463 403.244 28.083 402.746 29.0381C402.248 29.9932 401.53 30.7256 400.593 31.2354C399.661 31.7451 398.554 32 397.271 32H393.966ZM395.425 32H392.788V19.2734H395.425V32ZM403.977 32L408.371 19.2734H411.764L416.167 32H413.328L410.12 22.1475H410.015L406.798 32H403.977ZM413.451 26.999V29.0645H406.657V26.999H413.451ZM418.496 19.2734L421.432 24.7578H421.546L424.481 19.2734H427.452L422.803 27.4648V32H420.175V27.4648L415.534 19.2734H418.496Z" fill="black"/>
<rect x="1" y="1" width="455" height="152" rx="13" stroke="#6041FF" stroke-width="2"/>
</svg>
