<svg width="20" height="25" viewBox="0 0 20 25" fill="none" xmlns="http://www.w3.org/2000/svg">
<path d="M6.55314 18.5V17.072C9.15714 14.706 10.9071 12.816 10.9071 11.304C10.9071 10.352 10.3891 9.834 9.54914 9.834C8.83514 9.834 8.28914 10.31 7.78514 10.842L6.42714 9.498C7.44914 8.406 8.40114 7.888 9.88514 7.888C11.9011 7.888 13.3011 9.176 13.3011 11.164C13.3011 12.956 11.7611 14.93 10.1651 16.54C10.6831 16.47 11.3971 16.4 11.8731 16.4H13.7771V18.5H6.55314Z" fill="black"/>
<path d="M20 13.5C20 19.0228 15.5228 23.5 10 23.5C4.47715 23.5 0 19.0228 0 13.5C0 7.97715 4.47715 3.5 10 3.5C15.5228 3.5 20 7.97715 20 13.5ZM2.3 13.5C2.3 17.7526 5.74741 21.2 10 21.2C14.2526 21.2 17.7 17.7526 17.7 13.5C17.7 9.24741 14.2526 5.8 10 5.8C5.74741 5.8 2.3 9.24741 2.3 13.5Z" fill="black"/>
</svg>
