<svg width="360" height="540" viewBox="0 0 360 540" fill="none" xmlns="http://www.w3.org/2000/svg">
<g clip-path="url(#clip0_1004_1178)">
<path d="M86.26 24.695H87.505V26.9H86.26V24.695ZM91.96 16.61H93.205V30.17H91.96V16.61ZM92.8 22.37H95.305V23.42H92.8V22.37ZM82.765 27.59L82.585 26.555C85.015 26.555 88.33 26.525 91.135 26.12L91.24 27.05C88.315 27.575 85.135 27.59 82.765 27.59ZM82.81 18.245H90.925V19.25H82.81V18.245ZM86.875 20.045C88.765 20.045 90.07 21.035 90.07 22.55C90.07 24.08 88.765 25.055 86.875 25.055C84.985 25.055 83.695 24.08 83.695 22.55C83.695 21.035 84.985 20.045 86.875 20.045ZM86.875 21.005C85.66 21.005 84.865 21.62 84.865 22.55C84.865 23.48 85.66 24.095 86.875 24.095C88.09 24.095 88.9 23.48 88.9 22.55C88.9 21.62 88.09 21.005 86.875 21.005ZM86.26 16.625H87.505V18.92H86.26V16.625Z" fill="black"/>
<path d="M196.225 17.09H197.32V17.84C197.32 20.435 194.68 22.295 191.86 22.775L191.365 21.77C193.84 21.395 196.225 19.775 196.225 17.84V17.09ZM196.45 17.09H197.53V17.84C197.53 19.73 199.945 21.395 202.39 21.77L201.895 22.775C199.105 22.295 196.45 20.405 196.45 17.84V17.09ZM196.225 25.01H197.455V30.17H196.225V25.01ZM190.75 24.245H203.005V25.28H190.75V24.245Z" fill="black"/>
<path d="M300.31 17.165H309.43V21.785H300.31V17.165ZM308.2 18.17H301.525V20.78H308.2V18.17ZM298.735 23.48H310.99V24.485H298.735V23.48ZM304.255 21.515H305.485V23.855H304.255V21.515ZM300.1 25.88H309.475V30.17H308.23V26.9H300.1V25.88Z" fill="black"/>
<path d="M80.3722 47L84.9261 37.9915V37.9119H79.6761V36.8182H86.1989V37.9716L81.6648 47H80.3722ZM87.177 47.0795C86.9318 47.0795 86.7213 46.9917 86.5456 46.8161C86.37 46.6404 86.2821 46.4299 86.2821 46.1847C86.2821 45.9394 86.37 45.7289 86.5456 45.5533C86.7213 45.3776 86.9318 45.2898 87.177 45.2898C87.4223 45.2898 87.6328 45.3776 87.8084 45.5533C87.9841 45.7289 88.0719 45.9394 88.0719 46.1847C88.0719 46.3471 88.0305 46.4962 87.9476 46.6321C87.8681 46.768 87.7604 46.8774 87.6245 46.9602C87.4919 47.0398 87.3427 47.0795 87.177 47.0795ZM90.1575 47V46.1051L93.5183 42.4261C93.9127 41.9953 94.2375 41.6207 94.4927 41.3026C94.7479 40.9811 94.9368 40.6795 95.0595 40.3977C95.1854 40.1127 95.2484 39.8144 95.2484 39.5028C95.2484 39.1449 95.1622 38.835 94.9899 38.5732C94.8208 38.3113 94.5888 38.1091 94.2939 37.9666C93.9989 37.8241 93.6674 37.7528 93.2995 37.7528C92.9084 37.7528 92.5671 37.834 92.2754 37.9964C91.987 38.1555 91.7633 38.3793 91.6042 38.6676C91.4484 38.956 91.3706 39.294 91.3706 39.6818H90.1973C90.1973 39.0852 90.3348 38.5616 90.6099 38.1108C90.885 37.66 91.2595 37.3087 91.7335 37.0568C92.2108 36.8049 92.746 36.679 93.3393 36.679C93.9359 36.679 94.4645 36.8049 94.9252 37.0568C95.3859 37.3087 95.7472 37.6484 96.0091 38.076C96.2709 38.5036 96.4018 38.9792 96.4018 39.5028C96.4018 39.8774 96.3339 40.2436 96.198 40.6016C96.0654 40.9562 95.8334 41.3523 95.502 41.7898C95.1738 42.224 94.7181 42.7543 94.1348 43.3807L91.8478 45.8267V45.9062H96.5808V47H90.1575Z" fill="black"/>
<path d="M188.372 47L192.926 37.9915V37.9119H187.676V36.8182H194.199V37.9716L189.665 47H188.372ZM195.177 47.0795C194.932 47.0795 194.721 46.9917 194.546 46.8161C194.37 46.6404 194.282 46.4299 194.282 46.1847C194.282 45.9394 194.37 45.7289 194.546 45.5533C194.721 45.3776 194.932 45.2898 195.177 45.2898C195.422 45.2898 195.633 45.3776 195.808 45.5533C195.984 45.7289 196.072 45.9394 196.072 46.1847C196.072 46.3471 196.03 46.4962 195.948 46.6321C195.868 46.768 195.76 46.8774 195.624 46.9602C195.492 47.0398 195.343 47.0795 195.177 47.0795ZM201.215 47.1392C200.559 47.1392 199.974 47.0265 199.46 46.8011C198.95 46.5758 198.544 46.2625 198.242 45.8615C197.944 45.4571 197.781 44.9882 197.755 44.4545H199.008C199.034 44.7827 199.147 45.0661 199.346 45.3047C199.545 45.54 199.805 45.7223 200.126 45.8516C200.448 45.9808 200.804 46.0455 201.195 46.0455C201.633 46.0455 202.02 45.9692 202.358 45.8168C202.697 45.6643 202.962 45.4522 203.154 45.1804C203.346 44.9086 203.442 44.5938 203.442 44.2358C203.442 43.8613 203.349 43.5315 203.164 43.2464C202.978 42.9581 202.706 42.7327 202.349 42.5703C201.991 42.4079 201.553 42.3267 201.036 42.3267H200.221V41.233H201.036C201.44 41.233 201.795 41.16 202.1 41.0142C202.408 40.8684 202.648 40.6629 202.821 40.3977C202.997 40.1326 203.084 39.821 203.084 39.4631C203.084 39.1184 203.008 38.8184 202.856 38.5632C202.703 38.308 202.488 38.1091 202.209 37.9666C201.934 37.8241 201.609 37.7528 201.235 37.7528C200.884 37.7528 200.552 37.8175 200.241 37.9467C199.932 38.0727 199.68 38.2566 199.485 38.4986C199.289 38.7372 199.183 39.0256 199.167 39.3636H197.974C197.993 38.83 198.154 38.3627 198.456 37.9616C198.757 37.5573 199.152 37.2424 199.639 37.017C200.13 36.7917 200.668 36.679 201.255 36.679C201.885 36.679 202.425 36.8066 202.876 37.0618C203.326 37.3137 203.673 37.6468 203.915 38.0611C204.157 38.4754 204.278 38.9228 204.278 39.4034C204.278 39.9768 204.127 40.4657 203.825 40.87C203.527 41.2744 203.121 41.5545 202.607 41.7102V41.7898C203.25 41.8958 203.752 42.1693 204.113 42.6101C204.475 43.0476 204.655 43.5895 204.655 44.2358C204.655 44.7893 204.505 45.2865 204.203 45.7273C203.905 46.1648 203.497 46.5095 202.98 46.7614C202.463 47.0133 201.875 47.1392 201.215 47.1392Z" fill="black"/>
<path d="M296.372 47L300.926 37.9915V37.9119H295.676V36.8182H302.199V37.9716L297.665 47H296.372ZM303.177 47.0795C302.932 47.0795 302.721 46.9917 302.546 46.8161C302.37 46.6404 302.282 46.4299 302.282 46.1847C302.282 45.9394 302.37 45.7289 302.546 45.5533C302.721 45.3776 302.932 45.2898 303.177 45.2898C303.422 45.2898 303.633 45.3776 303.808 45.5533C303.984 45.7289 304.072 45.9394 304.072 46.1847C304.072 46.3471 304.03 46.4962 303.948 46.6321C303.868 46.768 303.76 46.8774 303.624 46.9602C303.492 47.0398 303.343 47.0795 303.177 47.0795ZM305.919 44.9119V43.8977L310.393 36.8182H311.129V38.3892H310.632L307.251 43.7386V43.8182H313.277V44.9119H305.919ZM310.711 47V44.6037V44.1314V36.8182H311.885V47H310.711Z" fill="black"/>
<rect x="142" y="545" width="476" height="1" transform="rotate(-90 142 545)" fill="#999999" fill-opacity="0.6"/>
<rect x="250.5" y="545" width="476" height="1" transform="rotate(-90 250.5 545)" fill="#999999" fill-opacity="0.6"/>
<line x1="11" y1="89.75" x2="436" y2="89.75" stroke="#CDCDCD" stroke-width="0.5"/>
<line x1="11" y1="119.75" x2="436" y2="119.75" stroke="#CDCDCD" stroke-width="0.5"/>
<line x1="11" y1="149.75" x2="436" y2="149.75" stroke="#CDCDCD" stroke-width="0.5"/>
<line x1="11" y1="179.75" x2="436" y2="179.75" stroke="#CDCDCD" stroke-width="0.5"/>
<line x1="11" y1="209.75" x2="436" y2="209.75" stroke="#CDCDCD" stroke-width="0.5"/>
<line x1="11" y1="239.75" x2="436" y2="239.75" stroke="#CDCDCD" stroke-width="0.5"/>
<line x1="11" y1="269.75" x2="436" y2="269.75" stroke="#CDCDCD" stroke-width="0.5"/>
<line x1="11" y1="299.75" x2="436" y2="299.75" stroke="#CDCDCD" stroke-width="0.5"/>
<line x1="11" y1="329.75" x2="436" y2="329.75" stroke="#CDCDCD" stroke-width="0.5"/>
<line x1="11" y1="359.75" x2="436" y2="359.75" stroke="#CDCDCD" stroke-width="0.5"/>
<line x1="11" y1="389.75" x2="436" y2="389.75" stroke="#CDCDCD" stroke-width="0.5"/>
<line x1="11" y1="419.75" x2="436" y2="419.75" stroke="#CDCDCD" stroke-width="0.5"/>
<line x1="11" y1="449.75" x2="436" y2="449.75" stroke="#CDCDCD" stroke-width="0.5"/>
<line x1="11" y1="479.75" x2="436" y2="479.75" stroke="#CDCDCD" stroke-width="0.5"/>
<line x1="11" y1="509.75" x2="436" y2="509.75" stroke="#CDCDCD" stroke-width="0.5"/>
<line x1="11" y1="539.75" x2="436" y2="539.75" stroke="#CDCDCD" stroke-width="0.5"/>
<path d="M22.4481 70.6278C22.7464 70.6302 23.0447 70.687 23.343 70.7983C23.6412 70.9096 23.9135 71.0942 24.1597 71.3523C24.4059 71.608 24.6036 71.9571 24.7528 72.3999C24.9019 72.8426 24.9765 73.3977 24.9765 74.0653C24.9765 74.7116 24.9149 75.2857 24.7918 75.7876C24.6711 76.2872 24.4959 76.7086 24.2662 77.0518C24.039 77.3951 23.762 77.6555 23.4353 77.8331C23.1109 78.0107 22.744 78.0994 22.3344 78.0994C21.9272 78.0994 21.5638 78.0189 21.2442 77.858C20.927 77.6946 20.6666 77.4685 20.463 77.1797C20.2617 76.8885 20.1327 76.5511 20.0759 76.1676H20.9424C21.0205 76.5014 21.1756 76.7772 21.4076 76.995C21.642 77.2105 21.9509 77.3182 22.3344 77.3182C22.8955 77.3182 23.3382 77.0732 23.6626 76.5831C23.9893 76.093 24.1526 75.4006 24.1526 74.5057H24.0958C23.9632 74.7045 23.8058 74.8762 23.6235 75.0206C23.4412 75.165 23.2388 75.2763 23.0162 75.3544C22.7937 75.4325 22.557 75.4716 22.306 75.4716C21.8894 75.4716 21.507 75.3686 21.159 75.1626C20.8134 74.9543 20.5364 74.669 20.328 74.3068C20.1221 73.9422 20.0191 73.5256 20.0191 73.0568C20.0191 72.6117 20.1185 72.2045 20.3174 71.8352C20.5186 71.4635 20.8003 71.1676 21.1626 70.9474C21.5271 70.7273 21.9556 70.6207 22.4481 70.6278ZM22.4481 71.4091C22.1498 71.4091 21.8811 71.4837 21.642 71.6328C21.4052 71.7796 21.217 71.9785 21.0773 72.2294C20.94 72.478 20.8714 72.7538 20.8714 73.0568C20.8714 73.3598 20.9376 73.6357 21.0702 73.8842C21.2052 74.1304 21.3886 74.3269 21.6206 74.4737C21.855 74.6181 22.1214 74.6903 22.4197 74.6903C22.6446 74.6903 22.8541 74.6465 23.0482 74.5589C23.2423 74.469 23.4116 74.3471 23.556 74.1932C23.7028 74.0369 23.8176 73.8606 23.9005 73.6641C23.9833 73.4652 24.0248 73.258 24.0248 73.0426C24.0248 72.7585 23.9561 72.4922 23.8188 72.2436C23.6839 71.995 23.4968 71.7938 23.2577 71.6399C23.021 71.486 22.7511 71.4091 22.4481 71.4091Z" fill="black"/>
<path d="M20.3604 100.727V108H19.4798V101.651H19.4371L17.6616 102.83V101.935L19.4798 100.727H20.3604ZM24.8242 108.099C24.2892 108.099 23.8335 107.954 23.457 107.663C23.0806 107.369 22.793 106.944 22.5941 106.388C22.3952 105.829 22.2958 105.154 22.2958 104.364C22.2958 103.578 22.3952 102.906 22.5941 102.35C22.7953 101.791 23.0842 101.365 23.4606 101.072C23.8394 100.776 24.2939 100.628 24.8242 100.628C25.3545 100.628 25.8079 100.776 26.1843 101.072C26.5631 101.365 26.8519 101.791 27.0508 102.35C27.252 102.906 27.3526 103.578 27.3526 104.364C27.3526 105.154 27.2532 105.829 27.0543 106.388C26.8555 106.944 26.5678 107.369 26.1914 107.663C25.815 107.954 25.3593 108.099 24.8242 108.099ZM24.8242 107.318C25.3545 107.318 25.7665 107.062 26.06 106.551C26.3536 106.04 26.5004 105.311 26.5004 104.364C26.5004 103.734 26.4329 103.198 26.2979 102.755C26.1654 102.312 25.9736 101.975 25.7227 101.743C25.4741 101.511 25.1746 101.395 24.8242 101.395C24.2987 101.395 23.8879 101.654 23.592 102.173C23.296 102.689 23.1481 103.419 23.1481 104.364C23.1481 104.993 23.2144 105.528 23.3469 105.969C23.4795 106.409 23.6701 106.744 23.9187 106.974C24.1696 107.203 24.4715 107.318 24.8242 107.318Z" fill="black"/>
<path d="M21.1612 130.727V138H20.2805V131.651H20.2379L18.4624 132.83V131.935L20.2805 130.727H21.1612ZM25.8097 130.727V138H24.929V131.651H24.8864L23.1108 132.83V131.935L24.929 130.727H25.8097Z" fill="black"/>
<path d="M20.4581 160.727V168H19.5774V161.651H19.5348L17.7592 162.83V161.935L19.5774 160.727H20.4581ZM22.5497 168V167.361L24.9503 164.733C25.232 164.425 25.464 164.158 25.6463 163.93C25.8286 163.701 25.9635 163.485 26.0511 163.284C26.1411 163.08 26.1861 162.867 26.1861 162.645C26.1861 162.389 26.1245 162.168 26.0014 161.981C25.8807 161.794 25.715 161.649 25.5043 161.548C25.2936 161.446 25.0568 161.395 24.794 161.395C24.5147 161.395 24.2708 161.453 24.0625 161.569C23.8565 161.683 23.6967 161.842 23.5831 162.048C23.4718 162.254 23.4162 162.496 23.4162 162.773H22.5781C22.5781 162.347 22.6764 161.973 22.8729 161.651C23.0694 161.329 23.3369 161.078 23.6754 160.898C24.0163 160.718 24.3987 160.628 24.8224 160.628C25.2486 160.628 25.6262 160.718 25.9553 160.898C26.2843 161.078 26.5424 161.32 26.7294 161.626C26.9164 161.931 27.0099 162.271 27.0099 162.645C27.0099 162.912 26.9614 163.174 26.8643 163.43C26.7696 163.683 26.6039 163.966 26.3672 164.278C26.1328 164.589 25.8073 164.967 25.3906 165.415L23.7571 167.162V167.219H27.1378V168H22.5497Z" fill="black"/>
<path d="M20.3018 190.727V198H19.4212V191.651H19.3786L17.603 192.83V191.935L19.4212 190.727H20.3018ZM24.8509 198.099C24.3821 198.099 23.9643 198.019 23.5973 197.858C23.2327 197.697 22.9427 197.473 22.7273 197.187C22.5142 196.898 22.3982 196.563 22.3793 196.182H23.2741C23.2931 196.416 23.3736 196.619 23.5156 196.789C23.6577 196.957 23.8435 197.087 24.0732 197.18C24.3028 197.272 24.5573 197.318 24.8366 197.318C25.1491 197.318 25.4261 197.264 25.6676 197.155C25.9091 197.046 26.0985 196.894 26.2358 196.7C26.3731 196.506 26.4418 196.281 26.4418 196.026C26.4418 195.758 26.3755 195.522 26.2429 195.319C26.1103 195.113 25.9162 194.952 25.6605 194.836C25.4048 194.72 25.0923 194.662 24.723 194.662H24.1406V193.881H24.723C25.0118 193.881 25.2652 193.829 25.483 193.724C25.7031 193.62 25.8748 193.473 25.9979 193.284C26.1233 193.095 26.1861 192.872 26.1861 192.616C26.1861 192.37 26.1316 192.156 26.0227 191.974C25.9138 191.791 25.7599 191.649 25.5611 191.548C25.3646 191.446 25.1326 191.395 24.8651 191.395C24.6141 191.395 24.3774 191.441 24.1548 191.533C23.9347 191.623 23.7547 191.755 23.6151 191.928C23.4754 192.098 23.3996 192.304 23.3878 192.545H22.5355C22.5497 192.164 22.6645 191.83 22.88 191.544C23.0954 191.255 23.3771 191.03 23.7251 190.869C24.0755 190.708 24.4602 190.628 24.8793 190.628C25.3291 190.628 25.715 190.719 26.0369 190.901C26.3589 191.081 26.6063 191.319 26.7791 191.615C26.9519 191.911 27.0384 192.231 27.0384 192.574C27.0384 192.983 26.9306 193.333 26.7152 193.621C26.5021 193.91 26.2121 194.11 25.8452 194.222V194.278C26.3045 194.354 26.6631 194.549 26.9212 194.864C27.1792 195.177 27.3082 195.564 27.3082 196.026C27.3082 196.421 27.2005 196.776 26.9851 197.091C26.772 197.403 26.4808 197.65 26.1115 197.83C25.7422 198.009 25.322 198.099 24.8509 198.099Z" fill="black"/>
<path d="M20.2774 220.727V228H19.3968V221.651H19.3541L17.5786 222.83V221.935L19.3968 220.727H20.2774ZM22.1986 226.509V225.784L25.3946 220.727H25.9202V221.849H25.5651L23.1503 225.67V225.727H27.4543V226.509H22.1986ZM25.6219 228V226.288V225.951V220.727H26.46V228H25.6219Z" fill="black"/>
<path d="M20.4434 250.727V258H19.5628V251.651H19.5202L17.7446 252.83V251.935L19.5628 250.727H20.4434ZM24.8078 258.099C24.3911 258.099 24.0159 258.017 23.6821 257.851C23.3483 257.685 23.0808 257.458 22.8795 257.169C22.6783 256.88 22.5682 256.551 22.5493 256.182H23.4015C23.4347 256.511 23.5838 256.783 23.849 256.999C24.1165 257.212 24.4361 257.318 24.8078 257.318C25.1061 257.318 25.3712 257.248 25.6032 257.109C25.8376 256.969 26.0211 256.777 26.1537 256.533C26.2886 256.287 26.3561 256.009 26.3561 255.699C26.3561 255.382 26.2863 255.099 26.1466 254.85C26.0093 254.599 25.8199 254.402 25.5784 254.257C25.3369 254.113 25.0611 254.039 24.751 254.037C24.5284 254.035 24.3 254.069 24.0656 254.14C23.8312 254.209 23.6383 254.297 23.4868 254.406L22.6629 254.307L23.1032 250.727H26.8817V251.509H23.8419L23.5862 253.653H23.6288C23.778 253.535 23.965 253.437 24.1899 253.359C24.4148 253.281 24.6492 253.241 24.893 253.241C25.3381 253.241 25.7346 253.348 26.0827 253.561C26.433 253.772 26.7077 254.061 26.9065 254.428C27.1077 254.795 27.2084 255.214 27.2084 255.685C27.2084 256.149 27.1042 256.563 26.8959 256.928C26.6899 257.29 26.4058 257.576 26.0436 257.787C25.6814 257.995 25.2694 258.099 24.8078 258.099Z" fill="black"/>
<path d="M20.3653 280.727V288H19.4846V281.651H19.442L17.6665 282.83V281.935L19.4846 280.727H20.3653ZM24.8717 288.099C24.5734 288.095 24.2751 288.038 23.9768 287.929C23.6785 287.82 23.4063 287.637 23.1601 287.379C22.9139 287.118 22.7162 286.767 22.567 286.324C22.4179 285.879 22.3433 285.32 22.3433 284.648C22.3433 284.004 22.4037 283.433 22.5244 282.936C22.6452 282.437 22.8203 282.016 23.05 281.675C23.2796 281.332 23.5566 281.072 23.8809 280.894C24.2077 280.717 24.5758 280.628 24.9854 280.628C25.3925 280.628 25.7548 280.71 26.072 280.873C26.3916 281.034 26.652 281.259 26.8532 281.548C27.0545 281.836 27.1847 282.169 27.2439 282.545H26.3774C26.2969 282.219 26.1407 281.948 25.9086 281.732C25.6766 281.517 25.3689 281.409 24.9854 281.409C24.4219 281.409 23.978 281.654 23.6537 282.144C23.3317 282.634 23.1695 283.322 23.1672 284.207H23.224C23.3566 284.006 23.514 283.835 23.6963 283.692C23.8809 283.548 24.0845 283.437 24.3071 283.359C24.5296 283.281 24.7652 283.241 25.0138 283.241C25.4304 283.241 25.8116 283.346 26.1572 283.554C26.5029 283.76 26.7799 284.045 26.9882 284.41C27.1965 284.772 27.3007 285.188 27.3007 285.656C27.3007 286.106 27.2001 286.518 26.9988 286.892C26.7976 287.264 26.5147 287.56 26.1501 287.78C25.7879 287.998 25.3618 288.104 24.8717 288.099ZM24.8717 287.318C25.17 287.318 25.4375 287.244 25.6743 287.094C25.9134 286.945 26.1016 286.745 26.2389 286.494C26.3786 286.243 26.4484 285.964 26.4484 285.656C26.4484 285.356 26.3809 285.082 26.246 284.836C26.1134 284.587 25.93 284.39 25.6956 284.243C25.4636 284.096 25.1984 284.023 24.9001 284.023C24.6752 284.023 24.4657 284.068 24.2716 284.158C24.0774 284.245 23.907 284.366 23.7602 284.52C23.6158 284.674 23.5022 284.85 23.4193 285.049C23.3364 285.246 23.295 285.453 23.295 285.67C23.295 285.959 23.3625 286.229 23.4974 286.48C23.6347 286.731 23.8218 286.933 24.0585 287.087C24.2976 287.241 24.5687 287.318 24.8717 287.318Z" fill="black"/>
<path d="M20.629 310.727V318H19.7483V311.651H19.7057L17.9301 312.83V311.935L19.7483 310.727H20.629ZM22.9479 318L26.2007 311.565V311.509H22.4507V310.727H27.1098V311.551L23.8712 318H22.9479Z" fill="black"/>
<path d="M20.4044 340.727V348H19.5237V341.651H19.4811L17.7055 342.83V341.935L19.5237 340.727H20.4044ZM24.8256 348.099C24.3379 348.099 23.907 348.013 23.5329 347.84C23.1613 347.665 22.8712 347.425 22.6629 347.119C22.4546 346.812 22.3516 346.461 22.354 346.068C22.3516 345.76 22.412 345.476 22.5351 345.216C22.6582 344.953 22.8263 344.734 23.0393 344.559C23.2548 344.381 23.4951 344.269 23.7602 344.222V344.179C23.4122 344.089 23.1352 343.894 22.9292 343.593C22.7233 343.29 22.6215 342.946 22.6238 342.56C22.6215 342.19 22.715 341.86 22.9044 341.569C23.0938 341.278 23.3542 341.048 23.6856 340.88C24.0194 340.712 24.3994 340.628 24.8256 340.628C25.247 340.628 25.6234 340.712 25.9548 340.88C26.2863 341.048 26.5467 341.278 26.7361 341.569C26.9278 341.86 27.0249 342.19 27.0273 342.56C27.0249 342.946 26.9195 343.29 26.7112 343.593C26.5052 343.894 26.2318 344.089 25.8909 344.179V344.222C26.1537 344.269 26.3904 344.381 26.6011 344.559C26.8118 344.734 26.9799 344.953 27.1054 345.216C27.2309 345.476 27.2948 345.76 27.2971 346.068C27.2948 346.461 27.1882 346.812 26.9775 347.119C26.7692 347.425 26.4792 347.665 26.1075 347.84C25.7382 348.013 25.3109 348.099 24.8256 348.099ZM24.8256 347.318C25.1546 347.318 25.4387 347.265 25.6778 347.158C25.9169 347.052 26.1016 346.902 26.2318 346.707C26.362 346.513 26.4283 346.286 26.4307 346.026C26.4283 345.751 26.3573 345.508 26.2176 345.298C26.0779 345.087 25.8873 344.921 25.6459 344.8C25.4068 344.68 25.1333 344.619 24.8256 344.619C24.5154 344.619 24.2384 344.68 23.9946 344.8C23.7531 344.921 23.5625 345.087 23.4229 345.298C23.2855 345.508 23.2181 345.751 23.2204 346.026C23.2181 346.286 23.2808 346.513 23.4086 346.707C23.5389 346.902 23.7247 347.052 23.9662 347.158C24.2077 347.265 24.4941 347.318 24.8256 347.318ZM24.8256 343.866C25.086 343.866 25.3168 343.814 25.518 343.71C25.7216 343.606 25.8814 343.46 25.9974 343.273C26.1134 343.086 26.1726 342.867 26.175 342.616C26.1726 342.37 26.1146 342.156 26.001 341.974C25.8873 341.789 25.7299 341.647 25.5287 341.548C25.3274 341.446 25.0931 341.395 24.8256 341.395C24.5533 341.395 24.3154 341.446 24.1118 341.548C23.9082 341.647 23.7507 341.789 23.6395 341.974C23.5282 342.156 23.4738 342.37 23.4761 342.616C23.4738 342.867 23.5294 343.086 23.643 343.273C23.759 343.46 23.9188 343.606 24.1224 343.71C24.326 343.814 24.5604 343.866 24.8256 343.866Z" fill="black"/>
<path d="M20.3653 370.727V378H19.4846V371.651H19.442L17.6665 372.83V371.935L19.4846 370.727H20.3653ZM24.7723 370.628C25.0706 370.63 25.3689 370.687 25.6672 370.798C25.9655 370.91 26.2377 371.094 26.4839 371.352C26.7301 371.608 26.9278 371.957 27.077 372.4C27.2261 372.843 27.3007 373.398 27.3007 374.065C27.3007 374.712 27.2391 375.286 27.116 375.788C26.9953 376.287 26.8201 376.709 26.5905 377.052C26.3632 377.395 26.0862 377.656 25.7595 377.833C25.4352 378.011 25.0682 378.099 24.6586 378.099C24.2515 378.099 23.8881 378.019 23.5684 377.858C23.2512 377.695 22.9908 377.469 22.7872 377.18C22.586 376.888 22.4569 376.551 22.4001 376.168H23.2666C23.3447 376.501 23.4998 376.777 23.7318 376.995C23.9662 377.21 24.2751 377.318 24.6586 377.318C25.2197 377.318 25.6624 377.073 25.9868 376.583C26.3135 376.093 26.4768 375.401 26.4768 374.506H26.42C26.2874 374.705 26.13 374.876 25.9477 375.021C25.7654 375.165 25.563 375.276 25.3405 375.354C25.1179 375.433 24.8812 375.472 24.6302 375.472C24.2136 375.472 23.8312 375.369 23.4832 375.163C23.1376 374.954 22.8606 374.669 22.6523 374.307C22.4463 373.942 22.3433 373.526 22.3433 373.057C22.3433 372.612 22.4427 372.205 22.6416 371.835C22.8428 371.464 23.1246 371.168 23.4868 370.947C23.8514 370.727 24.2799 370.621 24.7723 370.628ZM24.7723 371.409C24.474 371.409 24.2053 371.484 23.9662 371.633C23.7294 371.78 23.5412 371.978 23.4015 372.229C23.2642 372.478 23.1956 372.754 23.1956 373.057C23.1956 373.36 23.2619 373.636 23.3944 373.884C23.5294 374.13 23.7129 374.327 23.9449 374.474C24.1792 374.618 24.4456 374.69 24.7439 374.69C24.9688 374.69 25.1783 374.647 25.3724 374.559C25.5666 374.469 25.7358 374.347 25.8802 374.193C26.027 374.037 26.1418 373.861 26.2247 373.664C26.3076 373.465 26.349 373.258 26.349 373.043C26.349 372.759 26.2803 372.492 26.143 372.244C26.0081 371.995 25.8211 371.794 25.5819 371.64C25.3452 371.486 25.0753 371.409 24.7723 371.409Z" fill="black"/>
<path d="M17.1005 408V407.361L19.5011 404.733C19.7828 404.425 20.0148 404.158 20.1971 403.93C20.3794 403.701 20.5143 403.485 20.6019 403.284C20.6919 403.08 20.7369 402.867 20.7369 402.645C20.7369 402.389 20.6753 402.168 20.5522 401.981C20.4315 401.794 20.2657 401.649 20.055 401.548C19.8443 401.446 19.6076 401.395 19.3448 401.395C19.0655 401.395 18.8216 401.453 18.6133 401.569C18.4073 401.683 18.2475 401.842 18.1339 402.048C18.0226 402.254 17.967 402.496 17.967 402.773H17.1289C17.1289 402.347 17.2272 401.973 17.4237 401.651C17.6201 401.329 17.8877 401.078 18.2262 400.898C18.5671 400.718 18.9495 400.628 19.3732 400.628C19.7994 400.628 20.177 400.718 20.506 400.898C20.8351 401.078 21.0932 401.32 21.2802 401.626C21.4672 401.931 21.5607 402.271 21.5607 402.645C21.5607 402.912 21.5122 403.174 21.4151 403.43C21.3204 403.683 21.1547 403.966 20.918 404.278C20.6836 404.589 20.3581 404.967 19.9414 405.415L18.3079 407.162V407.219H21.6886V408H17.1005ZM25.5273 408.099C24.9923 408.099 24.5366 407.954 24.1602 407.663C23.7837 407.369 23.4961 406.944 23.2972 406.388C23.0984 405.829 22.9989 405.154 22.9989 404.364C22.9989 403.578 23.0984 402.906 23.2972 402.35C23.4985 401.791 23.7873 401.365 24.1637 401.072C24.5425 400.776 24.997 400.628 25.5273 400.628C26.0576 400.628 26.511 400.776 26.8874 401.072C27.2662 401.365 27.555 401.791 27.7539 402.35C27.9551 402.906 28.0558 403.578 28.0558 404.364C28.0558 405.154 27.9563 405.829 27.7575 406.388C27.5586 406.944 27.271 407.369 26.8945 407.663C26.5181 407.954 26.0624 408.099 25.5273 408.099ZM25.5273 407.318C26.0576 407.318 26.4696 407.062 26.7631 406.551C27.0567 406.04 27.2035 405.311 27.2035 404.364C27.2035 403.734 27.136 403.198 27.0011 402.755C26.8685 402.312 26.6767 401.975 26.4258 401.743C26.1772 401.511 25.8777 401.395 25.5273 401.395C25.0018 401.395 24.591 401.654 24.2951 402.173C23.9992 402.689 23.8512 403.419 23.8512 404.364C23.8512 404.993 23.9175 405.528 24.0501 405.969C24.1826 406.409 24.3732 406.744 24.6218 406.974C24.8728 407.203 25.1746 407.318 25.5273 407.318Z" fill="black"/>
<path d="M17.9013 438V437.361L20.3018 434.733C20.5836 434.425 20.8156 434.158 20.9979 433.93C21.1802 433.701 21.3151 433.485 21.4027 433.284C21.4927 433.08 21.5376 432.867 21.5376 432.645C21.5376 432.389 21.4761 432.168 21.353 431.981C21.2322 431.794 21.0665 431.649 20.8558 431.548C20.6451 431.446 20.4084 431.395 20.1456 431.395C19.8662 431.395 19.6224 431.453 19.4141 431.569C19.2081 431.683 19.0483 431.842 18.9347 432.048C18.8234 432.254 18.7678 432.496 18.7678 432.773H17.9297C17.9297 432.347 18.0279 431.973 18.2244 431.651C18.4209 431.329 18.6884 431.078 19.027 430.898C19.3679 430.718 19.7502 430.628 20.174 430.628C20.6001 430.628 20.9777 430.718 21.3068 430.898C21.6359 431.078 21.8939 431.32 22.081 431.626C22.268 431.931 22.3615 432.271 22.3615 432.645C22.3615 432.912 22.313 433.174 22.2159 433.43C22.1212 433.683 21.9555 433.966 21.7188 434.278C21.4844 434.589 21.1589 434.967 20.7422 435.415L19.1087 437.162V437.219H22.4893V438H17.9013ZM26.5128 430.727V438H25.6321V431.651H25.5895L23.8139 432.83V431.935L25.6321 430.727H26.5128Z" fill="black"/>
<path d="M17.1982 468V467.361L19.5987 464.733C19.8804 464.425 20.1125 464.158 20.2947 463.93C20.477 463.701 20.612 463.485 20.6996 463.284C20.7895 463.08 20.8345 462.867 20.8345 462.645C20.8345 462.389 20.773 462.168 20.6499 461.981C20.5291 461.794 20.3634 461.649 20.1527 461.548C19.942 461.446 19.7053 461.395 19.4425 461.395C19.1631 461.395 18.9193 461.453 18.7109 461.569C18.505 461.683 18.3452 461.842 18.2315 462.048C18.1203 462.254 18.0646 462.496 18.0646 462.773H17.2266C17.2266 462.347 17.3248 461.973 17.5213 461.651C17.7178 461.329 17.9853 461.078 18.3239 460.898C18.6648 460.718 19.0471 460.628 19.4709 460.628C19.897 460.628 20.2746 460.718 20.6037 460.898C20.9328 461.078 21.1908 461.32 21.3778 461.626C21.5649 461.931 21.6584 462.271 21.6584 462.645C21.6584 462.912 21.6098 463.174 21.5128 463.43C21.4181 463.683 21.2524 463.966 21.0156 464.278C20.7812 464.589 20.4557 464.967 20.0391 465.415L18.4055 467.162V467.219H21.7862V468H17.1982ZM23.2528 468V467.361L25.6534 464.733C25.9351 464.425 26.1671 464.158 26.3494 463.93C26.5317 463.701 26.6667 463.485 26.7543 463.284C26.8442 463.08 26.8892 462.867 26.8892 462.645C26.8892 462.389 26.8277 462.168 26.7045 461.981C26.5838 461.794 26.4181 461.649 26.2074 461.548C25.9967 461.446 25.7599 461.395 25.4972 461.395C25.2178 461.395 24.974 461.453 24.7656 461.569C24.5597 461.683 24.3999 461.842 24.2862 462.048C24.175 462.254 24.1193 462.496 24.1193 462.773H23.2812C23.2812 462.347 23.3795 461.973 23.576 461.651C23.7725 461.329 24.04 461.078 24.3786 460.898C24.7195 460.718 25.1018 460.628 25.5256 460.628C25.9517 460.628 26.3293 460.718 26.6584 460.898C26.9875 461.078 27.2455 461.32 27.4325 461.626C27.6196 461.931 27.7131 462.271 27.7131 462.645C27.7131 462.912 27.6645 463.174 27.5675 463.43C27.4728 463.683 27.3071 463.966 27.0703 464.278C26.8359 464.589 26.5104 464.967 26.0938 465.415L24.4602 467.162V467.219H27.8409V468H23.2528Z" fill="black"/>
<path d="M17.0419 498V497.361L19.4425 494.733C19.7242 494.425 19.9562 494.158 20.1385 493.93C20.3208 493.701 20.4557 493.485 20.5433 493.284C20.6333 493.08 20.6783 492.867 20.6783 492.645C20.6783 492.389 20.6167 492.168 20.4936 491.981C20.3729 491.794 20.2071 491.649 19.9964 491.548C19.7857 491.446 19.549 491.395 19.2862 491.395C19.0069 491.395 18.763 491.453 18.5547 491.569C18.3487 491.683 18.1889 491.842 18.0753 492.048C17.964 492.254 17.9084 492.496 17.9084 492.773H17.0703C17.0703 492.347 17.1686 491.973 17.3651 491.651C17.5616 491.329 17.8291 491.078 18.1676 490.898C18.5085 490.718 18.8909 490.628 19.3146 490.628C19.7408 490.628 20.1184 490.718 20.4474 490.898C20.7765 491.078 21.0346 491.32 21.2216 491.626C21.4086 491.931 21.5021 492.271 21.5021 492.645C21.5021 492.912 21.4536 493.174 21.3565 493.43C21.2618 493.683 21.0961 493.966 20.8594 494.278C20.625 494.589 20.2995 494.967 19.8828 495.415L18.2493 497.162V497.219H21.63V498H17.0419ZM25.554 498.099C25.0852 498.099 24.6674 498.019 24.3004 497.858C23.9358 497.697 23.6458 497.473 23.4304 497.187C23.2173 496.898 23.1013 496.563 23.0824 496.182H23.9773C23.9962 496.416 24.0767 496.619 24.2188 496.789C24.3608 496.957 24.5466 497.087 24.7763 497.18C25.0059 497.272 25.2604 497.318 25.5398 497.318C25.8523 497.318 26.1293 497.264 26.3707 497.155C26.6122 497.046 26.8016 496.894 26.9389 496.7C27.0762 496.506 27.1449 496.281 27.1449 496.026C27.1449 495.758 27.0786 495.522 26.946 495.319C26.8134 495.113 26.6193 494.952 26.3636 494.836C26.108 494.72 25.7955 494.662 25.4261 494.662H24.8438V493.881H25.4261C25.715 493.881 25.9683 493.829 26.1861 493.724C26.4063 493.62 26.5779 493.473 26.701 493.284C26.8265 493.095 26.8892 492.872 26.8892 492.616C26.8892 492.37 26.8348 492.156 26.7259 491.974C26.617 491.791 26.4631 491.649 26.2642 491.548C26.0677 491.446 25.8357 491.395 25.5682 491.395C25.3172 491.395 25.0805 491.441 24.858 491.533C24.6378 491.623 24.4579 491.755 24.3182 491.928C24.1785 492.098 24.1027 492.304 24.0909 492.545H23.2386C23.2528 492.164 23.3677 491.83 23.5831 491.544C23.7985 491.255 24.0803 491.03 24.4283 490.869C24.7786 490.708 25.1634 490.628 25.5824 490.628C26.0322 490.628 26.4181 490.719 26.7401 490.901C27.062 491.081 27.3094 491.319 27.4822 491.615C27.6551 491.911 27.7415 492.231 27.7415 492.574C27.7415 492.983 27.6338 493.333 27.4183 493.621C27.2053 493.91 26.9152 494.11 26.5483 494.222V494.278C27.0076 494.354 27.3662 494.549 27.6243 494.864C27.8823 495.177 28.0114 495.564 28.0114 496.026C28.0114 496.421 27.9036 496.776 27.6882 497.091C27.4751 497.403 27.1839 497.65 26.8146 497.83C26.4453 498.009 26.0251 498.099 25.554 498.099Z" fill="black"/>
<path d="M17.0956 528V527.361L19.4962 524.733C19.7779 524.425 20.0099 524.158 20.1922 523.93C20.3745 523.701 20.5094 523.485 20.597 523.284C20.687 523.08 20.732 522.867 20.732 522.645C20.732 522.389 20.6704 522.168 20.5473 521.981C20.4266 521.794 20.2609 521.649 20.0502 521.548C19.8395 521.446 19.6027 521.395 19.3399 521.395C19.0606 521.395 18.8167 521.453 18.6084 521.569C18.4024 521.683 18.2426 521.842 18.129 522.048C18.0177 522.254 17.9621 522.496 17.9621 522.773H17.124C17.124 522.347 17.2223 521.973 17.4188 521.651C17.6153 521.329 17.8828 521.078 18.2213 520.898C18.5622 520.718 18.9446 520.628 19.3683 520.628C19.7945 520.628 20.1721 520.718 20.5012 520.898C20.8302 521.078 21.0883 521.32 21.2753 521.626C21.4623 521.931 21.5558 522.271 21.5558 522.645C21.5558 522.912 21.5073 523.174 21.4102 523.43C21.3155 523.683 21.1498 523.966 20.9131 524.278C20.6787 524.589 20.3532 524.967 19.9365 525.415L18.303 527.162V527.219H21.6837V528H17.0956ZM22.8236 526.509V525.784L26.0196 520.727H26.5452V521.849H26.1901L23.7753 525.67V525.727H28.0793V526.509H22.8236ZM26.2469 528V526.288V525.951V520.727H27.085V528H26.2469Z" fill="black"/>
</g>
<defs>
<clipPath id="clip0_1004_1178">
<rect width="360" height="540" fill="white"/>
</clipPath>
</defs>
</svg>
