<svg width="20" height="25" viewBox="0 0 20 25" fill="none" xmlns="http://www.w3.org/2000/svg">
<path d="M9.95515 18.696C8.28914 18.696 7.14114 18.066 6.31514 17.254L7.44914 15.686C8.03714 16.246 8.76514 16.68 9.59114 16.68C10.5991 16.68 11.2291 16.134 11.2291 15.056C11.2291 14.006 10.5991 13.446 9.70314 13.446C9.12914 13.446 8.84914 13.558 8.23314 13.95L7.14114 13.236L7.40714 8.07H13.2591V10.156H9.54914L9.39514 11.92C9.77314 11.766 10.0811 11.71 10.4731 11.71C12.2371 11.71 13.7211 12.746 13.7211 15C13.7211 17.338 11.9571 18.696 9.95515 18.696Z" fill="black"/>
<path d="M20 13.5C20 19.0228 15.5228 23.5 10 23.5C4.47715 23.5 0 19.0228 0 13.5C0 7.97715 4.47715 3.5 10 3.5C15.5228 3.5 20 7.97715 20 13.5ZM2.3 13.5C2.3 17.7526 5.74741 21.2 10 21.2C14.2526 21.2 17.7 17.7526 17.7 13.5C17.7 9.24741 14.2526 5.8 10 5.8C5.74741 5.8 2.3 9.24741 2.3 13.5Z" fill="black"/>
</svg>
