<svg width="356" height="49" viewBox="0 0 356 49" fill="none" xmlns="http://www.w3.org/2000/svg">
<path d="M133.146 21.326H136.53V23.234H133.146V21.326ZM133.056 25.484H136.458V27.392H133.056V25.484ZM138.798 16.934H141.084V33.602H138.798V16.934ZM135.36 17.294H137.592V32.864H135.36V17.294ZM131.598 18.896H133.902C133.902 23.63 132.48 27.41 127.836 30.146L126.486 28.472C130.248 26.186 131.598 23.414 131.598 19.382V18.896ZM127.44 18.896H132.408V20.804H127.44V18.896ZM152.315 20.966H155.483V22.91H152.315V20.966ZM154.835 16.934H157.229V26.834H154.835V16.934ZM151.577 27.194C155.105 27.194 157.283 28.4 157.283 30.416C157.283 32.45 155.105 33.62 151.577 33.62C148.049 33.62 145.871 32.45 145.871 30.416C145.871 28.4 148.049 27.194 151.577 27.194ZM151.577 29.012C149.417 29.012 148.265 29.462 148.265 30.416C148.265 31.352 149.417 31.802 151.577 31.802C153.755 31.802 154.907 31.352 154.907 30.416C154.907 29.462 153.755 29.012 151.577 29.012ZM147.131 18.608H149.075V19.652C149.075 22.838 147.599 25.754 144.413 26.834L143.189 24.944C145.943 24.008 147.131 21.794 147.131 19.652V18.608ZM147.635 18.608H149.561V19.652C149.561 21.614 150.695 23.648 153.323 24.53L152.153 26.42C149.057 25.394 147.635 22.622 147.635 19.652V18.608ZM143.837 17.942H152.801V19.85H143.837V17.942ZM168.046 17.798H169.99V19.31C169.99 22.514 168.55 25.322 165.328 26.384L164.122 24.476C166.894 23.594 168.046 21.47 168.046 19.31V17.798ZM168.532 17.798H170.458V19.526C170.458 21.524 171.574 23.468 174.202 24.296L173.032 26.168C169.936 25.178 168.532 22.532 168.532 19.526V17.798ZM175.03 16.934H177.424V26.996H175.03V16.934ZM176.758 20.984H179.638V22.964H176.758V20.984ZM166.3 27.698H177.424V33.602H175.03V29.624H166.3V27.698ZM192.903 16.934H195.171V33.602H192.903V16.934ZM187.413 22.622H190.167V24.566H187.413V22.622ZM189.537 17.204H191.769V32.846H189.537V17.204ZM183.813 19.652H185.613V21.362C185.613 25.106 184.587 28.832 181.941 30.488L180.519 28.724C182.967 27.194 183.813 24.206 183.813 21.362V19.652ZM184.353 19.652H186.135V21.362C186.135 24.134 186.963 26.942 189.375 28.346L187.971 30.092C185.325 28.526 184.353 25.034 184.353 21.362V19.652ZM181.149 18.608H188.583V20.534H181.149V18.608ZM208.111 16.934H210.487V33.602H208.111V16.934ZM209.947 23.432H212.899V25.43H209.947V23.432ZM197.347 19.4H207.049V21.308H197.347V19.4ZM202.225 22.244C204.655 22.244 206.455 23.9 206.455 26.222C206.455 28.544 204.655 30.2 202.225 30.2C199.795 30.2 197.995 28.544 197.995 26.222C197.995 23.9 199.795 22.244 202.225 22.244ZM202.225 24.188C201.091 24.188 200.281 24.944 200.281 26.222C200.281 27.5 201.091 28.256 202.225 28.256C203.359 28.256 204.169 27.5 204.169 26.222C204.169 24.944 203.359 24.188 202.225 24.188ZM201.019 17.204H203.413V20.12H201.019V17.204ZM225.462 16.934H227.874V33.602H225.462V16.934ZM220.548 18.662H222.924C222.924 23.756 221.196 27.932 215.274 30.794L214.032 28.886C218.82 26.582 220.548 23.558 220.548 19.094V18.662ZM214.914 18.662H221.682V20.552H214.914V18.662Z" fill="black"/>
<rect x="1" y="1" width="354" height="47" rx="23.5" stroke="#6041FF" stroke-width="2"/>
</svg>
