<svg width="268" height="41" viewBox="0 0 268 41" fill="none" xmlns="http://www.w3.org/2000/svg">
<rect width="268" height="41" rx="20.5" fill="#8E6FFF"/>
<path d="M121.518 19.184H123.912V21.704H121.518V19.184ZM122.688 13.1C125.1 13.1 126.846 14.486 126.846 16.502C126.846 18.482 125.1 19.868 122.688 19.868C120.276 19.868 118.53 18.482 118.53 16.502C118.53 14.486 120.276 13.1 122.688 13.1ZM122.688 14.9C121.554 14.9 120.762 15.476 120.762 16.502C120.762 17.51 121.554 18.086 122.688 18.086C123.84 18.086 124.614 17.51 124.614 16.502C124.614 15.476 123.84 14.9 122.688 14.9ZM128.556 12.452H130.95V25.16H128.556V12.452ZM130.104 17.672H133.038V19.634H130.104V17.672ZM119.826 26.888H131.508V28.814H119.826V26.888ZM119.826 24.062H122.238V27.716H119.826V24.062ZM117.936 23L117.666 21.092C120.492 21.092 124.398 21.074 127.674 20.606L127.836 22.316C124.47 22.946 120.69 23 117.936 23ZM138.113 22.154H140.453V26.078H138.113V22.154ZM143.387 22.136H145.727V26.078H143.387V22.136ZM134.297 25.322H149.381V27.266H134.297V25.322ZM135.989 13.514H147.689V19.04H138.401V21.866H136.025V17.168H145.313V15.404H135.989V13.514ZM136.025 20.858H148.067V22.784H136.025V20.858Z" fill="white"/>
</svg>
