<svg width="355" height="41" viewBox="0 0 355 41" fill="none" xmlns="http://www.w3.org/2000/svg">
<rect width="355" height="41" rx="20.5" fill="#8E6FFF"/>
<path d="M129.15 12.416H131.562V29.138H129.15V12.416ZM122.58 13.586C125.1 13.586 126.954 15.89 126.954 19.526C126.954 23.198 125.1 25.502 122.58 25.502C120.06 25.502 118.206 23.198 118.206 19.526C118.206 15.89 120.06 13.586 122.58 13.586ZM122.58 15.764C121.338 15.764 120.492 17.078 120.492 19.526C120.492 22.01 121.338 23.342 122.58 23.342C123.822 23.342 124.65 22.01 124.65 19.526C124.65 17.078 123.822 15.764 122.58 15.764ZM134.747 14.144H141.335V24.944H134.747V14.144ZM139.103 16.016H136.979V23.072H139.103V16.016ZM146.321 12.434H148.607V29.102H146.321V12.434ZM140.129 18.482H143.873V20.408H140.129V18.482ZM142.919 12.686H145.169V28.346H142.919V12.686ZM155.535 12.92C158.073 12.92 159.981 14.504 159.981 16.736C159.981 18.95 158.073 20.534 155.535 20.534C152.997 20.534 151.089 18.95 151.089 16.736C151.089 14.504 152.997 12.92 155.535 12.92ZM155.535 14.864C154.311 14.864 153.393 15.548 153.393 16.736C153.393 17.924 154.311 18.608 155.535 18.608C156.759 18.608 157.659 17.924 157.659 16.736C157.659 15.548 156.759 14.864 155.535 14.864ZM162.285 12.434H164.697V20.768H162.285V12.434ZM153.573 21.452H164.697V26.024H155.949V28.04H153.609V24.296H162.321V23.306H153.573V21.452ZM153.609 27.068H165.111V28.922H153.609V27.068ZM180.033 15.224H184.281V17.114H180.033V15.224ZM180.033 18.806H184.353V20.696H180.033V18.806ZM183.417 12.452H185.811V24.746H183.417V12.452ZM174.777 26.906H186.171V28.814H174.777V26.906ZM174.777 23.54H177.189V28.004H174.777V23.54ZM172.563 13.532H174.939V16.07H178.107V13.532H180.447V22.136H172.563V13.532ZM174.939 17.888V20.246H178.107V17.888H174.939ZM196.447 15.062H200.353V16.97H196.447V15.062ZM196.321 18.518H200.227V20.426H196.321V18.518ZM199.975 12.434H202.369V22.028H199.975V12.434ZM194.539 13.568H197.095C197.095 18.104 194.539 21.02 189.481 22.406L188.545 20.516C192.775 19.418 194.539 17.33 194.539 14.72V13.568ZM189.463 13.568H196.213V15.476H189.463V13.568ZM196.843 22.244C200.227 22.244 202.477 23.54 202.477 25.628C202.477 27.716 200.227 29.03 196.843 29.03C193.459 29.03 191.209 27.716 191.209 25.628C191.209 23.54 193.459 22.244 196.843 22.244ZM196.843 24.08C194.809 24.08 193.585 24.602 193.585 25.628C193.585 26.654 194.809 27.158 196.843 27.158C198.895 27.158 200.119 26.654 200.119 25.628C200.119 24.602 198.895 24.08 196.843 24.08ZM215.67 12.434H218.046V29.102H215.67V12.434ZM217.506 18.932H220.458V20.93H217.506V18.932ZM204.906 14.9H214.608V16.808H204.906V14.9ZM209.784 17.744C212.214 17.744 214.014 19.4 214.014 21.722C214.014 24.044 212.214 25.7 209.784 25.7C207.354 25.7 205.554 24.044 205.554 21.722C205.554 19.4 207.354 17.744 209.784 17.744ZM209.784 19.688C208.65 19.688 207.84 20.444 207.84 21.722C207.84 23 208.65 23.756 209.784 23.756C210.918 23.756 211.728 23 211.728 21.722C211.728 20.444 210.918 19.688 209.784 19.688ZM208.578 12.704H210.972V15.62H208.578V12.704ZM233.02 12.434H235.432V29.102H233.02V12.434ZM228.106 14.162H230.482C230.482 19.256 228.754 23.432 222.832 26.294L221.59 24.386C226.378 22.082 228.106 19.058 228.106 14.594V14.162ZM222.472 14.162H229.24V16.052H222.472V14.162Z" fill="white"/>
</svg>
