<svg width="355" height="41" viewBox="0 0 355 41" fill="none" xmlns="http://www.w3.org/2000/svg">
<path d="M144.738 25.322H159.822V27.266H144.738V25.322ZM151.056 22.172H153.45V26.114H151.056V22.172ZM146.43 13.514H158.13V19.058H148.842V21.866H146.466V17.186H155.754V15.404H146.43V13.514ZM146.466 20.912H158.508V22.838H146.466V20.912ZM162.827 13.964H173.393V15.854H162.827V13.964ZM161.297 24.98H176.363V26.924H161.297V24.98ZM172.133 13.964H174.509V15.944C174.509 18.284 174.509 20.552 173.915 23.972L171.521 23.774C172.133 20.57 172.133 18.194 172.133 15.944V13.964ZM182.301 13.586C184.839 13.586 186.675 15.89 186.675 19.526C186.675 23.198 184.839 25.502 182.301 25.502C179.763 25.502 177.927 23.198 177.927 19.526C177.927 15.89 179.763 13.586 182.301 13.586ZM182.301 15.764C181.059 15.764 180.231 17.078 180.231 19.526C180.231 22.01 181.059 23.342 182.301 23.342C183.543 23.342 184.389 22.01 184.389 19.526C184.389 17.078 183.543 15.764 182.301 15.764ZM188.493 12.434H190.905V29.102H188.493V12.434ZM190.365 18.716H193.317V20.696H190.365V18.716ZM194.396 19.742H209.48V21.668H194.396V19.742ZM200.714 20.588H203.09V23.234H200.714V20.588ZM200.66 23.9H202.694V24.188C202.694 26.618 200.426 28.652 196.142 29.048L195.368 27.248C199.004 26.924 200.66 25.466 200.66 24.188V23.9ZM201.092 23.9H203.126V24.188C203.126 25.556 204.728 26.942 208.418 27.248L207.662 29.048C203.396 28.652 201.092 26.726 201.092 24.188V23.9ZM201.938 12.614C205.628 12.614 207.968 13.784 207.968 15.764C207.968 17.744 205.628 18.914 201.938 18.914C198.248 18.914 195.908 17.744 195.908 15.764C195.908 13.784 198.248 12.614 201.938 12.614ZM201.938 14.396C199.634 14.396 198.374 14.846 198.374 15.764C198.374 16.646 199.634 17.114 201.938 17.114C204.224 17.114 205.502 16.646 205.502 15.764C205.502 14.846 204.224 14.396 201.938 14.396Z" fill="black"/>
<rect x="1" y="1" width="353" height="39" rx="19.5" stroke="#6041FF" stroke-width="2"/>
</svg>
