<svg width="356" height="49" viewBox="0 0 356 49" fill="none" xmlns="http://www.w3.org/2000/svg">
<path d="M144.738 29.822H159.822V31.766H144.738V29.822ZM151.056 26.672H153.45V30.614H151.056V26.672ZM146.43 18.014H158.13V23.558H148.842V26.366H146.466V21.686H155.754V19.904H146.43V18.014ZM146.466 25.412H158.508V27.338H146.466V25.412ZM162.827 18.464H173.393V20.354H162.827V18.464ZM161.297 29.48H176.363V31.424H161.297V29.48ZM172.133 18.464H174.509V20.444C174.509 22.784 174.509 25.052 173.915 28.472L171.521 28.274C172.133 25.07 172.133 22.694 172.133 20.444V18.464ZM182.301 18.086C184.839 18.086 186.675 20.39 186.675 24.026C186.675 27.698 184.839 30.002 182.301 30.002C179.763 30.002 177.927 27.698 177.927 24.026C177.927 20.39 179.763 18.086 182.301 18.086ZM182.301 20.264C181.059 20.264 180.231 21.578 180.231 24.026C180.231 26.51 181.059 27.842 182.301 27.842C183.543 27.842 184.389 26.51 184.389 24.026C184.389 21.578 183.543 20.264 182.301 20.264ZM188.493 16.934H190.905V33.602H188.493V16.934ZM190.365 23.216H193.317V25.196H190.365V23.216ZM194.396 24.242H209.48V26.168H194.396V24.242ZM200.714 25.088H203.09V27.734H200.714V25.088ZM200.66 28.4H202.694V28.688C202.694 31.118 200.426 33.152 196.142 33.548L195.368 31.748C199.004 31.424 200.66 29.966 200.66 28.688V28.4ZM201.092 28.4H203.126V28.688C203.126 30.056 204.728 31.442 208.418 31.748L207.662 33.548C203.396 33.152 201.092 31.226 201.092 28.688V28.4ZM201.938 17.114C205.628 17.114 207.968 18.284 207.968 20.264C207.968 22.244 205.628 23.414 201.938 23.414C198.248 23.414 195.908 22.244 195.908 20.264C195.908 18.284 198.248 17.114 201.938 17.114ZM201.938 18.896C199.634 18.896 198.374 19.346 198.374 20.264C198.374 21.146 199.634 21.614 201.938 21.614C204.224 21.614 205.502 21.146 205.502 20.264C205.502 19.346 204.224 18.896 201.938 18.896Z" fill="black"/>
<rect x="1" y="1" width="354" height="47" rx="23.5" stroke="#6041FF" stroke-width="2"/>
</svg>
