<svg width="24" height="24" viewBox="0 0 24 24" fill="none" xmlns="http://www.w3.org/2000/svg">
<rect x="1" y="4" width="22" height="2" rx="1" fill="#EA1414"/>
<path d="M4.36328 22C4.36328 21.4477 4.811 21 5.36328 21H18.5C19.0523 21 19.5 21.4477 19.5 22C19.5 22.5523 19.0523 23 18.5 23H5.36328C4.811 23 4.36328 22.5523 4.36328 22Z" fill="#EA1414"/>
<path d="M5.00726 23C4.51134 23 4.1009 22.6144 4.06997 22.1195L3.06605 6.05687C3.03026 5.48416 3.4851 5 4.05892 5C4.5869 5 5.02291 5.41246 5.0522 5.93963L5.94493 22.0088C5.97484 22.5471 5.54639 23 5.00726 23Z" fill="#EA1414"/>
<path d="M18.9927 23C19.4887 23 19.8991 22.6144 19.93 22.1195L20.9339 6.05687C20.9697 5.48416 20.5149 5 19.9411 5C19.4131 5 18.9771 5.41246 18.9478 5.93963L18.0551 22.0088C18.0252 22.5471 18.4536 23 18.9927 23Z" fill="#EA1414"/>
<path d="M8 9.5C8 8.94772 8.44772 8.5 9 8.5C9.55228 8.5 10 8.94772 10 9.5V17.5C10 18.0523 9.55228 18.5 9 18.5C8.44772 18.5 8 18.0523 8 17.5V9.5Z" fill="#EA1414"/>
<path d="M11 9.5C11 8.94772 11.4477 8.5 12 8.5C12.5523 8.5 13 8.94772 13 9.5V17.5C13 18.0523 12.5523 18.5 12 18.5C11.4477 18.5 11 18.0523 11 17.5V9.5Z" fill="#EA1414"/>
<path d="M14 9.5C14 8.94772 14.4477 8.5 15 8.5C15.5523 8.5 16 8.94772 16 9.5V17.5C16 18.0523 15.5523 18.5 15 18.5C14.4477 18.5 14 18.0523 14 17.5V9.5Z" fill="#EA1414"/>
<rect x="9" y="2" width="6" height="3" rx="1" stroke="#EA1414" stroke-width="2"/>
</svg>
