<svg width="355" height="41" viewBox="0 0 355 41" fill="none" xmlns="http://www.w3.org/2000/svg">
<rect width="355" height="41" rx="20.5" fill="#8E6FFF"/>
<path d="M121.15 12.416H123.562V29.138H121.15V12.416ZM110.548 13.748H112.924V17.798H116.362V13.748H118.738V25.25H110.548V13.748ZM112.924 19.652V23.324H116.362V19.652H112.924ZM127.125 13.262H135.207V20.318H127.125V13.262ZM132.867 15.134H129.465V18.446H132.867V15.134ZM137.727 12.434H140.139V20.84H137.727V12.434ZM129.015 21.56H140.139V26.096H131.391V27.788H129.033V24.386H137.763V23.396H129.015V21.56ZM129.033 27.14H140.553V28.994H129.033V27.14ZM150.721 16.862H155.005V18.77H150.721V16.862ZM154.393 12.452H156.787V24.746H154.393V12.452ZM145.753 26.906H157.147V28.814H145.753V26.906ZM145.753 23.54H148.165V28.004H145.753V23.54ZM143.539 13.532H145.915V16.07H149.083V13.532H151.423V22.136H143.539V13.532ZM145.915 17.888V20.246H149.083V17.888H145.915ZM160.044 14.504H173.796V16.412H160.044V14.504ZM159.414 25.502H174.498V27.428H159.414V25.502ZM165.732 23.306H168.108V26.258H165.732V23.306ZM166.902 17.132C170.376 17.132 172.554 18.338 172.554 20.39C172.554 22.442 170.376 23.648 166.902 23.648C163.428 23.648 161.25 22.442 161.25 20.39C161.25 18.338 163.428 17.132 166.902 17.132ZM166.902 18.986C164.814 18.986 163.698 19.436 163.698 20.39C163.698 21.344 164.814 21.776 166.902 21.776C168.99 21.776 170.106 21.344 170.106 20.39C170.106 19.436 168.99 18.986 166.902 18.986ZM165.732 12.614H168.108V15.692H165.732V12.614ZM188.591 15.224H192.839V17.114H188.591V15.224ZM188.591 18.806H192.911V20.696H188.591V18.806ZM191.975 12.452H194.369V24.746H191.975V12.452ZM183.335 26.906H194.729V28.814H183.335V26.906ZM183.335 23.54H185.747V28.004H183.335V23.54ZM181.121 13.532H183.497V16.07H186.665V13.532H189.005V22.136H181.121V13.532ZM183.497 17.888V20.246H186.665V17.888H183.497ZM205.006 15.062H208.912V16.97H205.006V15.062ZM204.88 18.518H208.786V20.426H204.88V18.518ZM208.534 12.434H210.928V22.028H208.534V12.434ZM203.098 13.568H205.654C205.654 18.104 203.098 21.02 198.04 22.406L197.104 20.516C201.334 19.418 203.098 17.33 203.098 14.72V13.568ZM198.022 13.568H204.772V15.476H198.022V13.568ZM205.402 22.244C208.786 22.244 211.036 23.54 211.036 25.628C211.036 27.716 208.786 29.03 205.402 29.03C202.018 29.03 199.768 27.716 199.768 25.628C199.768 23.54 202.018 22.244 205.402 22.244ZM205.402 24.08C203.368 24.08 202.144 24.602 202.144 25.628C202.144 26.654 203.368 27.158 205.402 27.158C207.454 27.158 208.678 26.654 208.678 25.628C208.678 24.602 207.454 24.08 205.402 24.08ZM224.228 12.434H226.604V29.102H224.228V12.434ZM226.064 18.932H229.016V20.93H226.064V18.932ZM213.464 14.9H223.166V16.808H213.464V14.9ZM218.342 17.744C220.772 17.744 222.572 19.4 222.572 21.722C222.572 24.044 220.772 25.7 218.342 25.7C215.912 25.7 214.112 24.044 214.112 21.722C214.112 19.4 215.912 17.744 218.342 17.744ZM218.342 19.688C217.208 19.688 216.398 20.444 216.398 21.722C216.398 23 217.208 23.756 218.342 23.756C219.476 23.756 220.286 23 220.286 21.722C220.286 20.444 219.476 19.688 218.342 19.688ZM217.136 12.704H219.53V15.62H217.136V12.704ZM241.579 12.434H243.991V29.102H241.579V12.434ZM236.665 14.162H239.041C239.041 19.256 237.313 23.432 231.391 26.294L230.149 24.386C234.937 22.082 236.665 19.058 236.665 14.594V14.162ZM231.031 14.162H237.799V16.052H231.031V14.162Z" fill="white"/>
</svg>
