<svg width="29" height="29" viewBox="0 0 29 29" fill="none" xmlns="http://www.w3.org/2000/svg">
<mask id="mask0_1037_684" style="mask-type:alpha" maskUnits="userSpaceOnUse" x="1" y="1" width="23" height="23">
<rect x="1" y="1" width="23" height="23" rx="1" fill="#D9D9D9"/>
</mask>
<g mask="url(#mask0_1037_684)">
<path d="M14.8776 23.1415C14.3253 23.1415 13.8776 22.6938 13.8776 22.1415V17.1936C13.8776 16.6413 13.4299 16.1936 12.8776 16.1936H7.92969C7.3774 16.1936 6.92969 15.7459 6.92969 15.1936V14.8776C6.92969 14.3253 7.3774 13.8776 7.92969 13.8776H12.8776C13.4299 13.8776 13.8776 13.4299 13.8776 12.8776V7.92969C13.8776 7.3774 14.3253 6.92969 14.8776 6.92969H15.1936C15.7459 6.92969 16.1936 7.3774 16.1936 7.92969V12.8776C16.1936 13.4299 16.6413 13.8776 17.1936 13.8776H22.1415C22.6938 13.8776 23.1415 14.3253 23.1415 14.8776V15.1936C23.1415 15.7459 22.6938 16.1936 22.1415 16.1936H17.1936C16.6413 16.1936 16.1936 16.6413 16.1936 17.1936V22.1415C16.1936 22.6938 15.7459 23.1415 15.1936 23.1415H14.8776Z" fill="#1C1B1F"/>
</g>
<circle cx="14.6961" cy="14.6961" r="12.3871" stroke="black" stroke-width="2.2"/>
</svg>
