<svg width="27" height="27" viewBox="0 0 27 27" fill="none" xmlns="http://www.w3.org/2000/svg">
<g clip-path="url(#clip0_3186_2147)">
<mask id="mask0_3186_2147" style="mask-type:alpha" maskUnits="userSpaceOnUse" x="3" y="3" width="27" height="27">
<rect x="3.5625" y="3.5625" width="25.875" height="25.875" rx="1" fill="#D9D9D9"/>
</mask>
<g mask="url(#mask0_3186_2147)">
<path d="M13.6866 20.2834C13.1663 20.2834 12.7445 19.8616 12.7445 19.3413V15.6307C12.7445 15.0784 12.2968 14.6307 11.7445 14.6307H8.03391C7.5136 14.6307 7.0918 14.2089 7.0918 13.6886C7.0918 13.1683 7.5136 12.7465 8.03391 12.7465H11.7445C12.2968 12.7465 12.7445 12.2987 12.7445 11.7465V8.03587C12.7445 7.51555 13.1663 7.09375 13.6866 7.09375C14.2069 7.09375 14.6287 7.51555 14.6287 8.03587V11.7465C14.6287 12.2987 15.0765 12.7465 15.6287 12.7465H19.3393C19.8597 12.7465 20.2815 13.1683 20.2815 13.6886C20.2815 14.2089 19.8597 14.6307 19.3393 14.6307H15.6287C15.0765 14.6307 14.6287 15.0784 14.6287 15.6307V19.3413C14.6287 19.8616 14.2069 20.2834 13.6866 20.2834Z" fill="#CECCCC"/>
</g>
<circle cx="13.8392" cy="13.8392" r="9.46415" stroke="#CECCCC" stroke-width="2"/>
</g>
<defs>
<clipPath id="clip0_3186_2147">
<rect width="27" height="27" fill="white"/>
</clipPath>
</defs>
</svg>
