<svg width="356" height="49" viewBox="0 0 356 49" fill="none" xmlns="http://www.w3.org/2000/svg">
<rect width="356" height="49" rx="24.5" fill="#8E6FFF"/>
<path d="M121.15 16.916H123.562V33.638H121.15V16.916ZM110.548 18.248H112.924V22.298H116.362V18.248H118.738V29.75H110.548V18.248ZM112.924 24.152V27.824H116.362V24.152H112.924ZM127.125 17.762H135.207V24.818H127.125V17.762ZM132.867 19.634H129.465V22.946H132.867V19.634ZM137.727 16.934H140.139V25.34H137.727V16.934ZM129.015 26.06H140.139V30.596H131.391V32.288H129.033V28.886H137.763V27.896H129.015V26.06ZM129.033 31.64H140.553V33.494H129.033V31.64ZM150.721 21.362H155.005V23.27H150.721V21.362ZM154.393 16.952H156.787V29.246H154.393V16.952ZM145.753 31.406H157.147V33.314H145.753V31.406ZM145.753 28.04H148.165V32.504H145.753V28.04ZM143.539 18.032H145.915V20.57H149.083V18.032H151.423V26.636H143.539V18.032ZM145.915 22.388V24.746H149.083V22.388H145.915ZM160.044 19.004H173.796V20.912H160.044V19.004ZM159.414 30.002H174.498V31.928H159.414V30.002ZM165.732 27.806H168.108V30.758H165.732V27.806ZM166.902 21.632C170.376 21.632 172.554 22.838 172.554 24.89C172.554 26.942 170.376 28.148 166.902 28.148C163.428 28.148 161.25 26.942 161.25 24.89C161.25 22.838 163.428 21.632 166.902 21.632ZM166.902 23.486C164.814 23.486 163.698 23.936 163.698 24.89C163.698 25.844 164.814 26.276 166.902 26.276C168.99 26.276 170.106 25.844 170.106 24.89C170.106 23.936 168.99 23.486 166.902 23.486ZM165.732 17.114H168.108V20.192H165.732V17.114ZM188.591 19.724H192.839V21.614H188.591V19.724ZM188.591 23.306H192.911V25.196H188.591V23.306ZM191.975 16.952H194.369V29.246H191.975V16.952ZM183.335 31.406H194.729V33.314H183.335V31.406ZM183.335 28.04H185.747V32.504H183.335V28.04ZM181.121 18.032H183.497V20.57H186.665V18.032H189.005V26.636H181.121V18.032ZM183.497 22.388V24.746H186.665V22.388H183.497ZM205.006 19.562H208.912V21.47H205.006V19.562ZM204.88 23.018H208.786V24.926H204.88V23.018ZM208.534 16.934H210.928V26.528H208.534V16.934ZM203.098 18.068H205.654C205.654 22.604 203.098 25.52 198.04 26.906L197.104 25.016C201.334 23.918 203.098 21.83 203.098 19.22V18.068ZM198.022 18.068H204.772V19.976H198.022V18.068ZM205.402 26.744C208.786 26.744 211.036 28.04 211.036 30.128C211.036 32.216 208.786 33.53 205.402 33.53C202.018 33.53 199.768 32.216 199.768 30.128C199.768 28.04 202.018 26.744 205.402 26.744ZM205.402 28.58C203.368 28.58 202.144 29.102 202.144 30.128C202.144 31.154 203.368 31.658 205.402 31.658C207.454 31.658 208.678 31.154 208.678 30.128C208.678 29.102 207.454 28.58 205.402 28.58ZM224.228 16.934H226.604V33.602H224.228V16.934ZM226.064 23.432H229.016V25.43H226.064V23.432ZM213.464 19.4H223.166V21.308H213.464V19.4ZM218.342 22.244C220.772 22.244 222.572 23.9 222.572 26.222C222.572 28.544 220.772 30.2 218.342 30.2C215.912 30.2 214.112 28.544 214.112 26.222C214.112 23.9 215.912 22.244 218.342 22.244ZM218.342 24.188C217.208 24.188 216.398 24.944 216.398 26.222C216.398 27.5 217.208 28.256 218.342 28.256C219.476 28.256 220.286 27.5 220.286 26.222C220.286 24.944 219.476 24.188 218.342 24.188ZM217.136 17.204H219.53V20.12H217.136V17.204ZM241.579 16.934H243.991V33.602H241.579V16.934ZM236.665 18.662H239.041C239.041 23.756 237.313 27.932 231.391 30.794L230.149 28.886C234.937 26.582 236.665 23.558 236.665 19.094V18.662ZM231.031 18.662H237.799V20.552H231.031V18.662Z" fill="white"/>
</svg>
