<svg width="356" height="41" viewBox="0 0 356 41" fill="none" xmlns="http://www.w3.org/2000/svg">
<path d="M133.146 16.826H136.53V18.734H133.146V16.826ZM133.056 20.984H136.458V22.892H133.056V20.984ZM138.798 12.434H141.084V29.102H138.798V12.434ZM135.36 12.794H137.592V28.364H135.36V12.794ZM131.598 14.396H133.902C133.902 19.13 132.48 22.91 127.836 25.646L126.486 23.972C130.248 21.686 131.598 18.914 131.598 14.882V14.396ZM127.44 14.396H132.408V16.304H127.44V14.396ZM152.315 16.466H155.483V18.41H152.315V16.466ZM154.835 12.434H157.229V22.334H154.835V12.434ZM151.577 22.694C155.105 22.694 157.283 23.9 157.283 25.916C157.283 27.95 155.105 29.12 151.577 29.12C148.049 29.12 145.871 27.95 145.871 25.916C145.871 23.9 148.049 22.694 151.577 22.694ZM151.577 24.512C149.417 24.512 148.265 24.962 148.265 25.916C148.265 26.852 149.417 27.302 151.577 27.302C153.755 27.302 154.907 26.852 154.907 25.916C154.907 24.962 153.755 24.512 151.577 24.512ZM147.131 14.108H149.075V15.152C149.075 18.338 147.599 21.254 144.413 22.334L143.189 20.444C145.943 19.508 147.131 17.294 147.131 15.152V14.108ZM147.635 14.108H149.561V15.152C149.561 17.114 150.695 19.148 153.323 20.03L152.153 21.92C149.057 20.894 147.635 18.122 147.635 15.152V14.108ZM143.837 13.442H152.801V15.35H143.837V13.442ZM168.046 13.298H169.99V14.81C169.99 18.014 168.55 20.822 165.328 21.884L164.122 19.976C166.894 19.094 168.046 16.97 168.046 14.81V13.298ZM168.532 13.298H170.458V15.026C170.458 17.024 171.574 18.968 174.202 19.796L173.032 21.668C169.936 20.678 168.532 18.032 168.532 15.026V13.298ZM175.03 12.434H177.424V22.496H175.03V12.434ZM176.758 16.484H179.638V18.464H176.758V16.484ZM166.3 23.198H177.424V29.102H175.03V25.124H166.3V23.198ZM192.903 12.434H195.171V29.102H192.903V12.434ZM187.413 18.122H190.167V20.066H187.413V18.122ZM189.537 12.704H191.769V28.346H189.537V12.704ZM183.813 15.152H185.613V16.862C185.613 20.606 184.587 24.332 181.941 25.988L180.519 24.224C182.967 22.694 183.813 19.706 183.813 16.862V15.152ZM184.353 15.152H186.135V16.862C186.135 19.634 186.963 22.442 189.375 23.846L187.971 25.592C185.325 24.026 184.353 20.534 184.353 16.862V15.152ZM181.149 14.108H188.583V16.034H181.149V14.108ZM208.111 12.434H210.487V29.102H208.111V12.434ZM209.947 18.932H212.899V20.93H209.947V18.932ZM197.347 14.9H207.049V16.808H197.347V14.9ZM202.225 17.744C204.655 17.744 206.455 19.4 206.455 21.722C206.455 24.044 204.655 25.7 202.225 25.7C199.795 25.7 197.995 24.044 197.995 21.722C197.995 19.4 199.795 17.744 202.225 17.744ZM202.225 19.688C201.091 19.688 200.281 20.444 200.281 21.722C200.281 23 201.091 23.756 202.225 23.756C203.359 23.756 204.169 23 204.169 21.722C204.169 20.444 203.359 19.688 202.225 19.688ZM201.019 12.704H203.413V15.62H201.019V12.704ZM225.462 12.434H227.874V29.102H225.462V12.434ZM220.548 14.162H222.924C222.924 19.256 221.196 23.432 215.274 26.294L214.032 24.386C218.82 22.082 220.548 19.058 220.548 14.594V14.162ZM214.914 14.162H221.682V16.052H214.914V14.162Z" fill="black"/>
<rect x="1" y="1" width="354" height="39" rx="19.5" stroke="#6041FF" stroke-width="2"/>
</svg>
