<svg width="26" height="26" viewBox="0 0 26 26" fill="none" xmlns="http://www.w3.org/2000/svg">
<mask id="mask0_1044_852" style="mask-type:alpha" maskUnits="userSpaceOnUse" x="0" y="0" width="26" height="26">
<rect width="26" height="26" fill="#D9D9D9"/>
</mask>
<g mask="url(#mask0_1044_852)">
<path d="M12.9993 18.416C13.3063 18.416 13.5636 18.3122 13.7712 18.1046C13.9789 17.8969 14.0827 17.6396 14.0827 17.3327C14.0827 17.0257 13.9789 16.7684 13.7712 16.5608C13.5636 16.3532 13.3063 16.2493 12.9993 16.2493C12.6924 16.2493 12.4351 16.3532 12.2275 16.5608C12.0198 16.7684 11.916 17.0257 11.916 17.3327C11.916 17.6396 12.0198 17.8969 12.2275 18.1046C12.4351 18.3122 12.6924 18.416 12.9993 18.416ZM11.916 14.0827H14.0827V7.58268H11.916V14.0827ZM12.9993 23.8327C11.5007 23.8327 10.0924 23.5483 8.77435 22.9796C7.45629 22.4108 6.30977 21.6389 5.33477 20.6639C4.35977 19.6889 3.58789 18.5424 3.01914 17.2243C2.45039 15.9063 2.16602 14.498 2.16602 12.9993C2.16602 11.5007 2.45039 10.0924 3.01914 8.77435C3.58789 7.45629 4.35977 6.30977 5.33477 5.33477C6.30977 4.35977 7.45629 3.58789 8.77435 3.01914C10.0924 2.45039 11.5007 2.16602 12.9993 2.16602C14.498 2.16602 15.9063 2.45039 17.2243 3.01914C18.5424 3.58789 19.6889 4.35977 20.6639 5.33477C21.6389 6.30977 22.4108 7.45629 22.9796 8.77435C23.5483 10.0924 23.8327 11.5007 23.8327 12.9993C23.8327 14.498 23.5483 15.9063 22.9796 17.2243C22.4108 18.5424 21.6389 19.6889 20.6639 20.6639C19.6889 21.6389 18.5424 22.4108 17.2243 22.9796C15.9063 23.5483 14.498 23.8327 12.9993 23.8327ZM12.9993 21.666C15.4188 21.666 17.4681 20.8264 19.1473 19.1473C20.8264 17.4681 21.666 15.4188 21.666 12.9993C21.666 10.5799 20.8264 8.5306 19.1473 6.85143C17.4681 5.17227 15.4188 4.33268 12.9993 4.33268C10.5799 4.33268 8.5306 5.17227 6.85143 6.85143C5.17227 8.5306 4.33268 10.5799 4.33268 12.9993C4.33268 15.4188 5.17227 17.4681 6.85143 19.1473C8.5306 20.8264 10.5799 21.666 12.9993 21.666Z" fill="#D13333"/>
</g>
</svg>
