<svg width="20" height="20" viewBox="0 0 20 20" fill="none" xmlns="http://www.w3.org/2000/svg">
<path d="M9.03137 14.3046C9.72386 14.3046 10.4096 14.1682 11.0493 13.9032C11.6891 13.6382 12.2704 13.2497 12.7601 12.7601C13.2497 12.2704 13.6382 11.6891 13.9032 11.0493C14.1682 10.4096 14.3046 9.72385 14.3046 9.03137C14.3046 8.33888 14.1682 7.65318 13.9032 7.0134C13.6382 6.37363 13.2497 5.79232 12.7601 5.30266C12.2704 4.81299 11.6891 4.42457 11.0493 4.15957C10.4096 3.89457 9.72386 3.75817 9.03137 3.75817C7.63283 3.75817 6.29157 4.31374 5.30266 5.30266C4.31374 6.29157 3.75817 7.63283 3.75817 9.03137C3.75817 10.4299 4.31374 11.7712 5.30266 12.7601C6.29157 13.749 7.63283 14.3046 9.03137 14.3046ZM14.5858 13.3431L17.7321 16.4894C17.816 16.5705 17.8829 16.6676 17.9289 16.7748C17.9749 16.8821 17.999 16.9974 18 17.1141C18.0009 17.2308 17.9786 17.3465 17.9343 17.4545C17.8901 17.5625 17.8247 17.6606 17.7421 17.743C17.6596 17.8255 17.5614 17.8907 17.4534 17.9348C17.3453 17.9789 17.2296 18.0011 17.1129 18C16.9962 17.9989 16.8809 17.9745 16.7737 17.9284C16.6665 17.8823 16.5696 17.8153 16.4886 17.7313L13.3422 14.5849C11.9294 15.6816 10.1517 16.1987 8.37113 16.0308C6.59051 15.863 4.94078 15.0229 3.75778 13.6815C2.57478 12.3401 1.94743 10.5983 2.00345 8.8107C2.05947 7.02307 2.79465 5.32398 4.05931 4.05931C5.32398 2.79465 7.02308 2.05947 8.81071 2.00345C10.5983 1.94743 12.3401 2.57478 13.6815 3.75778C15.0229 4.94078 15.863 6.5905 16.0308 8.37112C16.1987 10.1517 15.6816 11.9294 14.5849 13.3422L14.5858 13.3431Z" fill="#888686"/>
</svg>
