<svg width="30" height="30" viewBox="0 0 30 30" fill="none" xmlns="http://www.w3.org/2000/svg">
<circle cx="15" cy="15" r="15" fill="#8E6FFF"/>
<mask id="mask0_1039_701" style="mask-type:alpha" maskUnits="userSpaceOnUse" x="3" y="4" width="24" height="24">
<rect x="3" y="4" width="24" height="24" rx="1" fill="#D9D9D9"/>
</mask>
<g mask="url(#mask0_1039_701)">
<path d="M13.2567 21.2925C12.8662 21.683 12.233 21.683 11.8425 21.2925L7.55672 17.0067C7.16619 16.6162 7.17159 15.9776 7.56211 15.5871C7.95263 15.1966 8.59119 15.1912 8.98172 15.5817L11.8425 18.4425C12.233 18.833 12.8662 18.833 13.2567 18.4425L21.0175 10.6817C21.408 10.2912 22.0466 10.2966 22.4371 10.6871C22.8276 11.0776 22.833 11.7162 22.4425 12.1067L13.2567 21.2925Z" fill="white"/>
</g>
</svg>
