<svg width="28" height="28" viewBox="0 0 28 28" fill="none" xmlns="http://www.w3.org/2000/svg">
<mask id="mask0_1037_692" style="mask-type:alpha" maskUnits="userSpaceOnUse" x="0" y="0" width="28" height="28">
<rect width="28" height="28" fill="#D9D9D9"/>
</mask>
<g mask="url(#mask0_1037_692)">
<path d="M5.83333 22.1673H7.46667L17.5292 12.1048L15.8958 10.4715L5.83333 20.534V22.1673ZM22.5167 10.4132L17.5583 5.51315L19.1917 3.87982C19.6389 3.4326 20.1882 3.20898 20.8396 3.20898C21.491 3.20898 22.0403 3.4326 22.4875 3.87982L24.1208 5.51315C24.5681 5.96037 24.8014 6.49996 24.8208 7.1319C24.8403 7.76385 24.6264 8.30343 24.1792 8.75065L22.5167 10.4132ZM20.825 12.134L8.45833 24.5007H3.5V19.5423L15.8667 7.17565L20.825 12.134Z" fill="#1C1B1F"/>
</g>
</svg>
