<svg width="30" height="31" viewBox="0 0 30 31" fill="none" xmlns="http://www.w3.org/2000/svg">
<circle cx="15" cy="15.5" r="15" fill="#8E6FFF"/>
<mask id="mask0_1039_701" style="mask-type:alpha" maskUnits="userSpaceOnUse" x="3" y="4" width="24" height="25">
<rect x="3" y="4.5" width="24" height="24" rx="1" fill="#D9D9D9"/>
</mask>
<g mask="url(#mask0_1039_701)">
<path d="M13.2567 21.7925C12.8662 22.183 12.233 22.183 11.8425 21.7925L7.55672 17.5067C7.16619 17.1162 7.17159 16.4776 7.56211 16.0871V16.0871C7.95263 15.6966 8.59119 15.6912 8.98172 16.0817L11.8425 18.9425C12.233 19.333 12.8662 19.333 13.2567 18.9425L21.0175 11.1817C21.408 10.7912 22.0466 10.7966 22.4371 11.1871V11.1871C22.8276 11.5776 22.833 12.2162 22.4425 12.6067L13.2567 21.7925Z" fill="white"/>
</g>
</svg>
