<svg width="336" height="42" viewBox="0 0 336 42" fill="none" xmlns="http://www.w3.org/2000/svg">
<rect width="336" height="42" rx="14" fill="#D9D9D9"/>
<path d="M23.0314 25.3046C23.7239 25.3046 24.4096 25.1682 25.0493 24.9032C25.6891 24.6382 26.2704 24.2497 26.7601 23.7601C27.2497 23.2704 27.6382 22.6891 27.9032 22.0493C28.1682 21.4096 28.3046 20.7239 28.3046 20.0314C28.3046 19.3389 28.1682 18.6532 27.9032 18.0134C27.6382 17.3736 27.2497 16.7923 26.7601 16.3027C26.2704 15.813 25.6891 15.4246 25.0493 15.1596C24.4096 14.8946 23.7239 14.7582 23.0314 14.7582C21.6328 14.7582 20.2916 15.3137 19.3027 16.3027C18.3137 17.2916 17.7582 18.6328 17.7582 20.0314C17.7582 21.4299 18.3137 22.7712 19.3027 23.7601C20.2916 24.749 21.6328 25.3046 23.0314 25.3046ZM28.5858 24.3431L31.7321 27.4894C31.816 27.5706 31.8829 27.6676 31.9289 27.7748C31.9749 27.8821 31.999 27.9974 32 28.1141C32.0009 28.2308 31.9786 28.3465 31.9343 28.4545C31.8901 28.5625 31.8247 28.6606 31.7421 28.743C31.6596 28.8255 31.5614 28.8907 31.4534 28.9348C31.3453 28.9789 31.2296 29.0011 31.1129 29C30.9962 28.9989 30.8809 28.9745 30.7737 28.9284C30.6665 28.8823 30.5696 28.8153 30.4886 28.7313L27.3422 25.5849C25.9294 26.6816 24.1517 27.1987 22.3711 27.0308C20.5905 26.863 18.9408 26.0229 17.7578 24.6815C16.5748 23.3401 15.9474 21.5983 16.0035 19.8107C16.0595 18.0231 16.7946 16.324 18.0593 15.0593C19.324 13.7946 21.0231 13.0595 22.8107 13.0035C24.5983 12.9474 26.3401 13.5748 27.6815 14.7578C29.0229 15.9408 29.863 17.5905 30.0308 19.3711C30.1987 21.1517 29.6816 22.9294 28.5849 24.3422L28.5858 24.3431Z" fill="#888686"/>
<path d="M48.1094 15.176H49.6754C49.6754 19.28 46.7954 22.214 42.1154 23.528L41.5034 22.358C45.6254 21.188 48.1094 18.83 48.1094 15.806V15.176ZM42.3494 15.176H49.1174V16.382H42.3494V15.176ZM53.2214 14.132H54.7154V23.42H53.2214V14.132ZM49.6934 18.308H53.5094V19.55H49.6934V18.308ZM44.2214 24.104H54.7154V30.188H44.2214V24.104ZM53.2574 25.31H45.6974V28.964H53.2574V25.31ZM61.302 15.104H62.49V17.282C62.49 19.73 61.104 22.304 58.71 23.402L57.9 22.232C60.024 21.278 61.302 19.136 61.302 17.282V15.104ZM61.536 15.104H62.724V17.282C62.724 19.136 63.93 20.99 66.018 21.836L65.226 22.988C62.868 21.998 61.536 19.712 61.536 17.282V15.104ZM70.176 14.15H71.598V23.978H70.176V14.15ZM67.548 18.362H70.626V19.604H67.548V18.362ZM66.684 14.42H68.106V23.888H66.684V14.42ZM60.69 24.86H71.598V30.404H70.122V26.084H60.69V24.86Z" fill="#999999"/>
</svg>
