<svg width="336" height="42" viewBox="0 0 336 42" fill="none" xmlns="http://www.w3.org/2000/svg">
<rect width="336" height="42" rx="14" fill="#D9D9D9"/>
<path d="M29.4381 16.598H32.2641V17.858H29.4381V16.598ZM29.4381 20.09H32.2641V21.332H29.4381V20.09ZM28.3941 14.132H29.8881V23.798H28.3941V14.132ZM19.3221 24.572H29.8881V30.404H28.3941V25.778H19.3221V24.572ZM21.8061 15.086C24.2541 15.086 26.0541 16.67 26.0541 18.956C26.0541 21.224 24.2541 22.79 21.8061 22.79C19.3581 22.79 17.5581 21.224 17.5581 18.956C17.5581 16.67 19.3581 15.086 21.8061 15.086ZM21.8061 16.364C20.1861 16.364 19.0161 17.408 19.0161 18.956C19.0161 20.486 20.1861 21.548 21.8061 21.548C23.4261 21.548 24.5961 20.486 24.5961 18.956C24.5961 17.408 23.4261 16.364 21.8061 16.364ZM33.8107 22.286H48.5707V23.51H33.8107V22.286ZM40.4167 19.82H41.8927V22.844H40.4167V19.82ZM40.3987 14.384H41.6947V15.104C41.6947 18.038 38.5807 20.126 35.2687 20.666L34.6927 19.478C37.6087 19.082 40.3987 17.282 40.3987 15.104V14.384ZM40.6327 14.384H41.9107V15.104C41.9107 17.282 44.7187 19.082 47.6167 19.478L47.0587 20.666C43.7647 20.108 40.6327 18.038 40.6327 15.104V14.384ZM35.4487 25.094H46.6987V30.404H45.2047V26.3H35.4487V25.094ZM58.4087 15.878H59.6327V17.192C59.6327 20.18 57.8327 22.682 55.0967 23.672L54.3407 22.484C56.7887 21.62 58.4087 19.514 58.4087 17.192V15.878ZM58.6787 15.878H59.9027V17.174C59.9027 19.298 61.4507 21.206 63.8447 21.998L63.1247 23.168C60.4067 22.268 58.6787 19.946 58.6787 17.174V15.878ZM54.7907 15.338H63.4847V16.562H54.7907V15.338ZM65.5367 14.132H67.0307V23.942H65.5367V14.132ZM66.6167 18.254H69.4427V19.514H66.6167V18.254ZM61.8467 24.374C65.1587 24.374 67.1927 25.472 67.1927 27.362C67.1927 29.27 65.1587 30.368 61.8467 30.368C58.5347 30.368 56.5007 29.27 56.5007 27.362C56.5007 25.472 58.5347 24.374 61.8467 24.374ZM61.8467 25.58C59.4347 25.58 57.9587 26.228 57.9587 27.362C57.9587 28.514 59.4347 29.198 61.8467 29.198C64.2587 29.198 65.7347 28.514 65.7347 27.362C65.7347 26.228 64.2587 25.58 61.8467 25.58ZM70.9713 27.056H85.7133V28.298H70.9713V27.056ZM77.5233 23.114H78.9993V27.47H77.5233V23.114ZM77.4873 15.212H78.7833V16.472C78.7833 19.946 75.4533 22.628 72.1773 23.312L71.5473 22.07C74.4093 21.548 77.4873 19.154 77.4873 16.472V15.212ZM77.7573 15.212H79.0533V16.472C79.0533 19.172 82.1493 21.548 85.0113 22.07L84.3633 23.312C81.0873 22.628 77.7573 19.946 77.7573 16.472V15.212Z" fill="#999999"/>
</svg>
