<svg width="139" height="63" viewBox="0 0 139 63" fill="none" xmlns="http://www.w3.org/2000/svg">
<g filter="url(#filter0_d_913_730)">
<path d="M8 5H107.5C120.479 5 131 15.5213 131 28.5V28.5C131 41.4787 120.479 52 107.5 52H8V5Z" fill="#8E6FFF" shape-rendering="crispEdges"/>
<path d="M31.8668 22.528H34.4268V24.272H31.8668V22.528ZM31.8668 25.744H34.4268V27.488H31.8668V25.744ZM30.3948 20.608H32.5228V29.344H30.3948V20.608ZM22.6348 29.952H32.5228V35.424H30.3948V31.648H22.6348V29.952ZM24.9868 21.408C27.2748 21.408 29.0188 22.928 29.0188 25.04C29.0188 27.152 27.2748 28.656 24.9868 28.656C22.6988 28.656 20.9548 27.152 20.9548 25.04C20.9548 22.928 22.6988 21.408 24.9868 21.408ZM24.9868 23.216C23.8668 23.216 23.0348 23.872 23.0348 25.04C23.0348 26.208 23.8668 26.88 24.9868 26.88C26.1068 26.88 26.9388 26.208 26.9388 25.04C26.9388 23.872 26.1068 23.216 24.9868 23.216ZM35.5775 27.792H48.9855V29.488H35.5775V27.792ZM41.1935 25.872H43.3055V28.528H41.1935V25.872ZM41.1615 20.864H42.9855V21.312C42.9855 24.048 40.8095 26.192 37.0335 26.736L36.2495 25.072C39.5775 24.672 41.1615 22.976 41.1615 21.312V20.864ZM41.5135 20.864H43.3375V21.312C43.3375 23.04 44.8895 24.672 48.2495 25.072L47.4655 26.736C43.6895 26.176 41.5135 24.112 41.5135 21.312V20.864ZM37.0655 30.528H47.3535V35.424H45.2255V32.192H37.0655V30.528ZM54.697 21.824H61.753V28.976H54.697V21.824ZM59.657 23.504H56.793V27.296H59.657V23.504ZM63.801 20.608H65.929V31.408H63.801V20.608ZM65.321 24.88H67.897V26.624H65.321V24.88ZM56.377 33.472H66.457V35.168H56.377V33.472ZM56.377 30.352H58.505V34.32H56.377V30.352ZM68.9998 26.352H82.4078V28.032H68.9998V26.352ZM70.6478 23.888H80.8238V25.552H70.6478V23.888ZM70.6478 20.88H80.6958V22.576H72.7598V25.328H70.6478V20.88ZM70.5198 28.864H80.7598V32.784H72.6318V34.064H70.5358V31.28H78.6638V30.464H70.5198V28.864ZM70.5358 33.68H81.1438V35.312H70.5358V33.68ZM93.9105 20.608H96.0545V35.424H93.9105V20.608ZM89.5425 22.144H91.6545C91.6545 26.672 90.1185 30.384 84.8545 32.928L83.7505 31.232C88.0065 29.184 89.5425 26.496 89.5425 22.528V22.144ZM84.5345 22.144H90.5505V23.824H84.5345V22.144Z" fill="white"/>
<mask id="mask0_913_730" style="mask-type:alpha" maskUnits="userSpaceOnUse" x="106" y="20" width="17" height="17">
<rect width="17" height="17" rx="1" transform="matrix(-1 0 0 1 123 20)" fill="#D9D9D9"/>
</mask>
<g mask="url(#mask0_913_730)">
<path d="M111.038 34.954C111.385 35.3012 111.948 35.3012 112.295 34.954L118.043 29.2065C118.433 28.8159 118.433 28.1828 118.043 27.7922L112.295 22.0447C111.948 21.6975 111.385 21.6975 111.038 22.0447V22.0447C110.691 22.3919 110.691 22.9548 111.038 23.302L115.528 27.7922C115.919 28.1828 115.919 28.8159 115.528 29.2065L111.038 33.6967C110.691 34.0439 110.691 34.6068 111.038 34.954V34.954Z" fill="white"/>
</g>
</g>
<defs>
<filter id="filter0_d_913_730" x="0" y="0" width="139" height="63" filterUnits="userSpaceOnUse" color-interpolation-filters="sRGB">
<feFlood flood-opacity="0" result="BackgroundImageFix"/>
<feColorMatrix in="SourceAlpha" type="matrix" values="0 0 0 0 0 0 0 0 0 0 0 0 0 0 0 0 0 0 127 0" result="hardAlpha"/>
<feOffset dy="3"/>
<feGaussianBlur stdDeviation="4"/>
<feComposite in2="hardAlpha" operator="out"/>
<feColorMatrix type="matrix" values="0 0 0 0 0 0 0 0 0 0 0 0 0 0 0 0 0 0 0.25 0"/>
<feBlend mode="normal" in2="BackgroundImageFix" result="effect1_dropShadow_913_730"/>
<feBlend mode="normal" in="SourceGraphic" in2="effect1_dropShadow_913_730" result="shape"/>
</filter>
</defs>
</svg>
