<svg width="42" height="43" viewBox="0 0 42 43" fill="none" xmlns="http://www.w3.org/2000/svg">
<path d="M14.4074 31V28.246C19.4294 23.683 22.8044 20.038 22.8044 17.122C22.8044 15.286 21.8054 14.287 20.1854 14.287C18.8084 14.287 17.7554 15.205 16.7834 16.231L14.1644 13.639C16.1354 11.533 17.9714 10.534 20.8334 10.534C24.7214 10.534 27.4214 13.018 27.4214 16.852C27.4214 20.308 24.4514 24.115 21.3734 27.22C22.3724 27.085 23.7494 26.95 24.6674 26.95H28.3394V31H14.4074Z" fill="black"/>
<path d="M42 22C42 33.598 32.598 43 21 43C9.40202 43 0 33.598 0 22C0 10.402 9.40202 1 21 1C32.598 1 42 10.402 42 22ZM5.25 22C5.25 30.6985 12.3015 37.75 21 37.75C29.6985 37.75 36.75 30.6985 36.75 22C36.75 13.3015 29.6985 6.25 21 6.25C12.3015 6.25 5.25 13.3015 5.25 22Z" fill="black"/>
</svg>
