<svg width="33" height="34" viewBox="0 0 33 34" fill="none" xmlns="http://www.w3.org/2000/svg">
<mask id="mask0_913_1110" style="mask-type:alpha" maskUnits="userSpaceOnUse" x="0" y="0" width="33" height="34">
<rect y="0.5" width="33" height="33" fill="#D9D9D9"/>
</mask>
<g mask="url(#mask0_913_1110)">
<path d="M21.5 30.3624L13.25 27.4618L6.85625 29.948C6.39792 30.1322 5.97396 30.0804 5.58438 29.7926C5.19479 29.5049 5 29.1193 5 28.6358V9.29842C5 8.99915 5.08594 8.73441 5.25781 8.5042C5.42969 8.274 5.66458 8.10134 5.9625 7.98624L13.25 5.5L21.5 8.40061L27.8937 5.91437C28.3521 5.73021 28.776 5.782 29.1656 6.06976C29.5552 6.35752 29.75 6.74312 29.75 7.22655V26.564C29.75 26.8632 29.6641 27.128 29.4922 27.3582C29.3203 27.5884 29.0854 27.761 28.7875 27.8761L21.5 30.3624ZM20.125 26.9783V10.8178L14.625 8.88405V25.0446L20.125 26.9783ZM22.875 26.9783L27 25.5971V9.22936L22.875 10.8178V26.9783ZM7.75 26.633L11.875 25.0446V8.88405L7.75 10.2653V26.633Z" fill="#1C1B1F"/>
</g>
</svg>
