<svg width="457" height="214" viewBox="0 0 457 214" fill="none" xmlns="http://www.w3.org/2000/svg">
<circle cx="30" cy="28" r="12" fill="#85FF72"/>
<path d="M100.912 181.108H103.04V195.924H100.912V181.108ZM98.048 186.788H101.936V188.516H98.048V186.788ZM96.048 182.644H98.144C98.144 187.14 96.72 190.804 91.584 193.38L90.464 191.716C94.656 189.636 96.048 186.948 96.048 183.028V182.644ZM91.168 182.644H97.168V184.324H91.168V182.644ZM113.375 184.132H117.039V185.812H113.375V184.132ZM108.719 182.356H110.447V183.172C110.447 185.668 109.071 188.132 106.239 188.964L105.231 187.316C107.615 186.548 108.719 184.756 108.719 183.172V182.356ZM109.151 182.356H110.879V183.172C110.879 184.724 111.887 186.324 114.191 186.996L113.215 188.66C110.447 187.86 109.151 185.636 109.151 183.172V182.356ZM105.791 181.652H113.759V183.348H105.791V181.652ZM115.631 181.108H117.759V188.628H115.631V181.108ZM107.967 189.22H117.759V193.236H110.095V195.092H107.983V191.7H115.647V190.868H107.967V189.22ZM107.983 194.132H118.175V195.78H107.983V194.132ZM129.582 181.108H131.694V195.924H129.582V181.108ZM131.214 186.884H133.838V188.66H131.214V186.884ZM120.014 183.3H128.638V184.996H120.014V183.3ZM124.35 185.828C126.51 185.828 128.11 187.3 128.11 189.364C128.11 191.428 126.51 192.9 124.35 192.9C122.19 192.9 120.59 191.428 120.59 189.364C120.59 187.3 122.19 185.828 124.35 185.828ZM124.35 187.556C123.342 187.556 122.622 188.228 122.622 189.364C122.622 190.5 123.342 191.172 124.35 191.172C125.358 191.172 126.078 190.5 126.078 189.364C126.078 188.228 125.358 187.556 124.35 187.556ZM123.278 181.348H125.406V183.94H123.278V181.348ZM145.004 181.108H147.148V195.924H145.004V181.108ZM140.636 182.644H142.748C142.748 187.172 141.212 190.884 135.948 193.428L134.844 191.732C139.1 189.684 140.636 186.996 140.636 183.028V182.644ZM135.628 182.644H141.644V184.324H135.628V182.644Z" fill="black"/>
<path d="M315.224 181.54H317.096V182.228C317.096 185.076 314.856 187.492 310.968 188.068L310.136 186.356C313.544 185.908 315.224 183.972 315.224 182.228V181.54ZM315.624 181.54H317.48V182.228C317.48 183.956 319.176 185.908 322.568 186.356L321.752 188.068C317.864 187.492 315.624 185.076 315.624 182.228V181.54ZM315.24 190.5H317.352V195.924H315.24V190.5ZM309.656 189.156H323.048V190.884H309.656V189.156ZM324.887 187.876H326.135C329.047 187.876 330.839 187.812 332.887 187.428L333.079 189.124C330.999 189.524 329.127 189.604 326.135 189.604H324.887V187.876ZM324.871 181.924H331.639V186.484H326.999V188.692H324.887V184.9H329.543V183.62H324.871V181.924ZM333.895 181.124H336.023V190.116H333.895V181.124ZM335.415 184.644H337.991V186.388H335.415V184.644ZM326.135 190.788H336.023V195.924H333.895V192.484H326.135V190.788ZM348.582 181.108H350.694V195.924H348.582V181.108ZM350.214 186.884H352.838V188.66H350.214V186.884ZM339.014 183.3H347.638V184.996H339.014V183.3ZM343.35 185.828C345.51 185.828 347.11 187.3 347.11 189.364C347.11 191.428 345.51 192.9 343.35 192.9C341.19 192.9 339.59 191.428 339.59 189.364C339.59 187.3 341.19 185.828 343.35 185.828ZM343.35 187.556C342.342 187.556 341.622 188.228 341.622 189.364C341.622 190.5 342.342 191.172 343.35 191.172C344.358 191.172 345.078 190.5 345.078 189.364C345.078 188.228 344.358 187.556 343.35 187.556ZM342.278 181.348H344.406V183.94H342.278V181.348ZM364.004 181.108H366.148V195.924H364.004V181.108ZM359.636 182.644H361.748C361.748 187.172 360.212 190.884 354.948 193.428L353.844 191.732C358.1 189.684 359.636 186.996 359.636 183.028V182.644ZM354.628 182.644H360.644V184.324H354.628V182.644Z" fill="black"/>
<line x1="2" y1="165" x2="457" y2="165" stroke="#6041FF" stroke-width="2"/>
<line x1="230" y1="165" x2="230" y2="212" stroke="#6041FF" stroke-width="2"/>
<rect x="1" y="1" width="455" height="212" rx="13" stroke="#6041FF" stroke-width="2"/>
</svg>
