<svg width="382" height="270" viewBox="0 0 382 270" fill="none" xmlns="http://www.w3.org/2000/svg">
<rect width="382" height="270" rx="16" fill="#E2DBFF"/>
<mask id="mask0_913_1151" style="mask-type:alpha" maskUnits="userSpaceOnUse" x="17" y="14" width="20" height="20">
<rect x="17" y="14" width="20" height="20" fill="#D9D9D9"/>
</mask>
<g mask="url(#mask0_913_1151)">
<path d="M21.5798 32.6667C21.1454 32.6667 20.7735 32.5035 20.4641 32.1771C20.1547 31.8507 20 31.4583 20 31V19.3333C20 18.875 20.1547 18.4826 20.4641 18.1563C20.7735 17.8299 21.1454 17.6667 21.5798 17.6667H22.3697V16H23.9495V17.6667H30.2688V16H31.8486V17.6667H32.6385C33.073 17.6667 33.4449 17.8299 33.7543 18.1563C34.0637 18.4826 34.2184 18.875 34.2184 19.3333V31C34.2184 31.4583 34.0637 31.8507 33.7543 32.1771C33.4449 32.5035 33.073 32.6667 32.6385 32.6667H21.5798ZM21.5798 31H32.6385V22.6667H21.5798V31ZM21.5798 21H32.6385V19.3333H21.5798V21ZM27.1092 26C26.8854 26 26.6978 25.9201 26.5464 25.7604C26.395 25.6007 26.3193 25.4028 26.3193 25.1667C26.3193 24.9306 26.395 24.7326 26.5464 24.5729C26.6978 24.4132 26.8854 24.3333 27.1092 24.3333C27.333 24.3333 27.5206 24.4132 27.672 24.5729C27.8234 24.7326 27.8991 24.9306 27.8991 25.1667C27.8991 25.4028 27.8234 25.6007 27.672 25.7604C27.5206 25.9201 27.333 26 27.1092 26ZM23.9495 26C23.7257 26 23.5381 25.9201 23.3867 25.7604C23.2353 25.6007 23.1596 25.4028 23.1596 25.1667C23.1596 24.9306 23.2353 24.7326 23.3867 24.5729C23.5381 24.4132 23.7257 24.3333 23.9495 24.3333C24.1734 24.3333 24.361 24.4132 24.5124 24.5729C24.6638 24.7326 24.7395 24.9306 24.7395 25.1667C24.7395 25.4028 24.6638 25.6007 24.5124 25.7604C24.361 25.9201 24.1734 26 23.9495 26ZM30.2688 26C30.045 26 29.8574 25.9201 29.706 25.7604C29.5546 25.6007 29.4789 25.4028 29.4789 25.1667C29.4789 24.9306 29.5546 24.7326 29.706 24.5729C29.8574 24.4132 30.045 24.3333 30.2688 24.3333C30.4926 24.3333 30.6802 24.4132 30.8316 24.5729C30.983 24.7326 31.0587 24.9306 31.0587 25.1667C31.0587 25.4028 30.983 25.6007 30.8316 25.7604C30.6802 25.9201 30.4926 26 30.2688 26ZM27.1092 29.3333C26.8854 29.3333 26.6978 29.2535 26.5464 29.0938C26.395 28.934 26.3193 28.7361 26.3193 28.5C26.3193 28.2639 26.395 28.066 26.5464 27.9063C26.6978 27.7465 26.8854 27.6667 27.1092 27.6667C27.333 27.6667 27.5206 27.7465 27.672 27.9063C27.8234 28.066 27.8991 28.2639 27.8991 28.5C27.8991 28.7361 27.8234 28.934 27.672 29.0938C27.5206 29.2535 27.333 29.3333 27.1092 29.3333ZM23.9495 29.3333C23.7257 29.3333 23.5381 29.2535 23.3867 29.0938C23.2353 28.934 23.1596 28.7361 23.1596 28.5C23.1596 28.2639 23.2353 28.066 23.3867 27.9063C23.5381 27.7465 23.7257 27.6667 23.9495 27.6667C24.1734 27.6667 24.361 27.7465 24.5124 27.9063C24.6638 28.066 24.7395 28.2639 24.7395 28.5C24.7395 28.7361 24.6638 28.934 24.5124 29.0938C24.361 29.2535 24.1734 29.3333 23.9495 29.3333ZM30.2688 29.3333C30.045 29.3333 29.8574 29.2535 29.706 29.0938C29.5546 28.934 29.4789 28.7361 29.4789 28.5C29.4789 28.2639 29.5546 28.066 29.706 27.9063C29.8574 27.7465 30.045 27.6667 30.2688 27.6667C30.4926 27.6667 30.6802 27.7465 30.8316 27.9063C30.983 28.066 31.0587 28.2639 31.0587 28.5C31.0587 28.7361 30.983 28.934 30.8316 29.0938C30.6802 29.2535 30.4926 29.3333 30.2688 29.3333Z" fill="#1C1B1F"/>
</g>
<mask id="mask1_913_1151" style="mask-type:alpha" maskUnits="userSpaceOnUse" x="15" y="131" width="24" height="24">
<rect x="15" y="131" width="24" height="24" fill="#D9D9D9"/>
</mask>
<g mask="url(#mask1_913_1151)">
<path d="M15.5 149V147.425C15.5 146.708 15.8476 146.125 16.5427 145.675C17.2378 145.225 18.1541 145 19.2916 145C19.4969 145 19.6944 145.004 19.884 145.012C20.0736 145.021 20.2553 145.042 20.429 145.075C20.2079 145.425 20.042 145.792 19.9314 146.175C19.8208 146.558 19.7655 146.958 19.7655 147.375V149H15.5ZM21.1873 149V147.375C21.1873 146.842 21.3256 146.354 21.602 145.913C21.8785 145.471 22.2695 145.083 22.7751 144.75C23.2806 144.417 23.8849 144.167 24.5879 144C25.2909 143.833 26.0532 143.75 26.8747 143.75C27.712 143.75 28.4822 143.833 29.1852 144C29.8882 144.167 30.4925 144.417 30.998 144.75C31.5036 145.083 31.8906 145.471 32.1592 145.913C32.4278 146.354 32.562 146.842 32.562 147.375V149H21.1873ZM33.9839 149V147.375C33.9839 146.942 33.9325 146.533 33.8298 146.15C33.7271 145.767 33.5731 145.408 33.3677 145.075C33.5415 145.042 33.7193 145.021 33.9009 145.012C34.0826 145.004 34.2682 145 34.4578 145C35.5953 145 36.5116 145.221 37.2067 145.663C37.9018 146.104 38.2494 146.692 38.2494 147.425V149H33.9839ZM23.2016 147H30.5715C30.4135 146.667 29.9751 146.375 29.2563 146.125C28.5374 145.875 27.7436 145.75 26.8747 145.75C26.0058 145.75 25.2119 145.875 24.4931 146.125C23.7743 146.375 23.3438 146.667 23.2016 147ZM19.2916 144C18.7702 144 18.3239 143.804 17.9527 143.412C17.5814 143.021 17.3958 142.55 17.3958 142C17.3958 141.433 17.5814 140.958 17.9527 140.575C18.3239 140.192 18.7702 140 19.2916 140C19.8287 140 20.2789 140.192 20.6423 140.575C21.0057 140.958 21.1873 141.433 21.1873 142C21.1873 142.55 21.0057 143.021 20.6423 143.412C20.2789 143.804 19.8287 144 19.2916 144ZM34.4578 144C33.9365 144 33.4902 143.804 33.1189 143.412C32.7477 143.021 32.562 142.55 32.562 142C32.562 141.433 32.7477 140.958 33.1189 140.575C33.4902 140.192 33.9365 140 34.4578 140C34.995 140 35.4452 140.192 35.8086 140.575C36.1719 140.958 36.3536 141.433 36.3536 142C36.3536 142.55 36.1719 143.021 35.8086 143.412C35.4452 143.804 34.995 144 34.4578 144ZM26.8747 143C26.0848 143 25.4134 142.708 24.8604 142.125C24.3075 141.542 24.031 140.833 24.031 140C24.031 139.15 24.3075 138.438 24.8604 137.863C25.4134 137.288 26.0848 137 26.8747 137C27.6804 137 28.3558 137.288 28.9008 137.863C29.4458 138.438 29.7184 139.15 29.7184 140C29.7184 140.833 29.4458 141.542 28.9008 142.125C28.3558 142.708 27.6804 143 26.8747 143ZM26.8747 141C27.1433 141 27.3684 140.904 27.5501 140.713C27.7317 140.521 27.8226 140.283 27.8226 140C27.8226 139.717 27.7317 139.479 27.5501 139.288C27.3684 139.096 27.1433 139 26.8747 139C26.6061 139 26.381 139.096 26.1993 139.288C26.0176 139.479 25.9268 139.717 25.9268 140C25.9268 140.283 26.0176 140.521 26.1993 140.713C26.381 140.904 26.6061 141 26.8747 141Z" fill="#1C1B1F"/>
</g>
<mask id="mask2_913_1151" style="mask-type:alpha" maskUnits="userSpaceOnUse" x="15" y="92" width="24" height="24">
<rect x="15" y="92" width="24" height="24" fill="#D9D9D9"/>
</mask>
<g mask="url(#mask2_913_1151)">
<path d="M26.5831 104C27.1045 104 27.5508 103.804 27.922 103.413C28.2933 103.021 28.4789 102.55 28.4789 102C28.4789 101.45 28.2933 100.979 27.922 100.588C27.5508 100.196 27.1045 100 26.5831 100C26.0618 100 25.6155 100.196 25.2442 100.588C24.873 100.979 24.6873 101.45 24.6873 102C24.6873 102.55 24.873 103.021 25.2442 103.413C25.6155 103.804 26.0618 104 26.5831 104ZM26.5831 111.35C28.5105 109.483 29.9402 107.787 30.8723 106.262C31.8044 104.737 32.2705 103.383 32.2705 102.2C32.2705 100.383 31.7215 98.8958 30.6235 97.7375C29.5255 96.5792 28.1787 96 26.5831 96C24.9875 96 23.6407 96.5792 22.5427 97.7375C21.4448 98.8958 20.8958 100.383 20.8958 102.2C20.8958 103.383 21.3618 104.737 22.2939 106.262C23.226 107.787 24.6557 109.483 26.5831 111.35ZM26.5831 114C24.0396 111.717 22.1399 109.596 20.8839 107.637C19.628 105.679 19 103.867 19 102.2C19 99.7 19.7623 97.7083 21.2868 96.225C22.8113 94.7417 24.5768 94 26.5831 94C28.5895 94 30.3549 94.7417 31.8795 96.225C33.404 97.7083 34.1663 99.7 34.1663 102.2C34.1663 103.867 33.5383 105.679 32.2823 107.637C31.0264 109.596 29.1266 111.717 26.5831 114Z" fill="#1C1B1F"/>
</g>
<mask id="mask3_913_1151" style="mask-type:alpha" maskUnits="userSpaceOnUse" x="17" y="53" width="20" height="20">
<rect x="17" y="53" width="20" height="20" fill="#D9D9D9"/>
</mask>
<g mask="url(#mask3_913_1151)">
<path d="M29.5058 67.25L30.6117 66.0833L27.689 63V59.1667H26.1092V63.6667L29.5058 67.25ZM26.8991 71.6667C25.8064 71.6667 24.7795 71.4479 23.8184 71.0104C22.8574 70.5729 22.0214 69.9792 21.3105 69.2292C20.5996 68.4792 20.0368 67.5972 19.6221 66.5833C19.2074 65.5694 19 64.4861 19 63.3333C19 62.1806 19.2074 61.0972 19.6221 60.0833C20.0368 59.0694 20.5996 58.1875 21.3105 57.4375C22.0214 56.6875 22.8574 56.0938 23.8184 55.6563C24.7795 55.2187 25.8064 55 26.8991 55C27.9918 55 29.0187 55.2187 29.9797 55.6563C30.9408 56.0938 31.7768 56.6875 32.4877 57.4375C33.1986 58.1875 33.7614 59.0694 34.1761 60.0833C34.5908 61.0972 34.7982 62.1806 34.7982 63.3333C34.7982 64.4861 34.5908 65.5694 34.1761 66.5833C33.7614 67.5972 33.1986 68.4792 32.4877 69.2292C31.7768 69.9792 30.9408 70.5729 29.9797 71.0104C29.0187 71.4479 27.9918 71.6667 26.8991 71.6667ZM26.8991 70C28.6501 70 30.141 69.3507 31.372 68.0521C32.6029 66.7535 33.2184 65.1806 33.2184 63.3333C33.2184 61.4861 32.6029 59.9132 31.372 58.6146C30.141 57.316 28.6501 56.6667 26.8991 56.6667C25.1481 56.6667 23.6572 57.316 22.4262 58.6146C21.1953 59.9132 20.5798 61.4861 20.5798 63.3333C20.5798 65.1806 21.1953 66.7535 22.4262 68.0521C23.6572 69.3507 25.1481 70 26.8991 70Z" fill="#1C1B1F"/>
</g>
<mask id="mask4_913_1151" style="mask-type:alpha" maskUnits="userSpaceOnUse" x="15" y="185" width="24" height="24">
<rect x="15" y="185" width="24" height="24" fill="#D9D9D9"/>
</mask>
<g mask="url(#mask4_913_1151)">
<path d="M27.475 201.825L35.85 193.45L34.55 192.15L26.175 200.525L27.475 201.825ZM20.95 204C19.2833 203.917 18.0417 203.567 17.225 202.95C16.4083 202.333 16 201.442 16 200.275C16 199.192 16.4458 198.313 17.3375 197.638C18.2292 196.963 19.4667 196.558 21.05 196.425C21.7 196.375 22.1875 196.271 22.5125 196.113C22.8375 195.954 23 195.733 23 195.45C23 195.017 22.7542 194.692 22.2625 194.475C21.7708 194.258 20.9583 194.1 19.825 194L20 192C21.7167 192.133 22.9792 192.479 23.7875 193.038C24.5958 193.596 25 194.4 25 195.45C25 196.333 24.6792 197.025 24.0375 197.525C23.3958 198.025 22.45 198.325 21.2 198.425C20.1333 198.508 19.3333 198.704 18.8 199.012C18.2667 199.321 18 199.742 18 200.275C18 200.858 18.2333 201.279 18.7 201.538C19.1667 201.796 19.95 201.95 21.05 202L20.95 204ZM27.95 204.175L23.825 200.05L33.375 190.5C33.7083 190.167 34.1042 190 34.5625 190C35.0208 190 35.4167 190.167 35.75 190.5L37.5 192.25C37.8333 192.583 38 192.979 38 193.438C38 193.896 37.8333 194.292 37.5 194.625L27.95 204.175ZM23.975 205C23.6917 205.067 23.4417 204.992 23.225 204.775C23.0083 204.558 22.9333 204.308 23 204.025L23.825 200.05L27.95 204.175L23.975 205Z" fill="#1C1B1F"/>
</g>
<line x1="16" y1="173.75" x2="366" y2="173.75" stroke="black" stroke-opacity="0.27" stroke-width="0.5"/>
</svg>
