<svg width="480" height="591" viewBox="0 0 480 591" fill="none" xmlns="http://www.w3.org/2000/svg">
<g clip-path="url(#clip0_919_1210)">
<rect x="204" y="559" width="489" height="1" transform="rotate(-90 204 559)" fill="#999999" fill-opacity="0.6"/>
<rect x="343" y="559" width="489" height="1" transform="rotate(-90 343 559)" fill="#999999" fill-opacity="0.6"/>
<path d="M120.372 59L124.926 49.9915V49.9119H119.676V48.8182H126.199V49.9716L121.665 59H120.372ZM127.177 59.0795C126.932 59.0795 126.721 58.9917 126.546 58.8161C126.37 58.6404 126.282 58.4299 126.282 58.1847C126.282 57.9394 126.37 57.7289 126.546 57.5533C126.721 57.3776 126.932 57.2898 127.177 57.2898C127.422 57.2898 127.633 57.3776 127.808 57.5533C127.984 57.7289 128.072 57.9394 128.072 58.1847C128.072 58.3471 128.03 58.4962 127.948 58.6321C127.868 58.768 127.76 58.8774 127.624 58.9602C127.492 59.0398 127.343 59.0795 127.177 59.0795ZM130.157 59V58.1051L133.518 54.4261C133.913 53.9953 134.238 53.6207 134.493 53.3026C134.748 52.9811 134.937 52.6795 135.059 52.3977C135.185 52.1127 135.248 51.8144 135.248 51.5028C135.248 51.1449 135.162 50.835 134.99 50.5732C134.821 50.3113 134.589 50.1091 134.294 49.9666C133.999 49.8241 133.667 49.7528 133.3 49.7528C132.908 49.7528 132.567 49.834 132.275 49.9964C131.987 50.1555 131.763 50.3793 131.604 50.6676C131.448 50.956 131.371 51.294 131.371 51.6818H130.197C130.197 51.0852 130.335 50.5616 130.61 50.1108C130.885 49.66 131.26 49.3087 131.733 49.0568C132.211 48.8049 132.746 48.679 133.339 48.679C133.936 48.679 134.465 48.8049 134.925 49.0568C135.386 49.3087 135.747 49.6484 136.009 50.076C136.271 50.5036 136.402 50.9792 136.402 51.5028C136.402 51.8774 136.334 52.2436 136.198 52.6016C136.065 52.9562 135.833 53.3523 135.502 53.7898C135.174 54.224 134.718 54.7543 134.135 55.3807L131.848 57.8267V57.9062H136.581V59H130.157Z" fill="black"/>
<path d="M264.372 59L268.926 49.9915V49.9119H263.676V48.8182H270.199V49.9716L265.665 59H264.372ZM271.177 59.0795C270.932 59.0795 270.721 58.9917 270.546 58.8161C270.37 58.6404 270.282 58.4299 270.282 58.1847C270.282 57.9394 270.37 57.7289 270.546 57.5533C270.721 57.3776 270.932 57.2898 271.177 57.2898C271.422 57.2898 271.633 57.3776 271.808 57.5533C271.984 57.7289 272.072 57.9394 272.072 58.1847C272.072 58.3471 272.03 58.4962 271.948 58.6321C271.868 58.768 271.76 58.8774 271.624 58.9602C271.492 59.0398 271.343 59.0795 271.177 59.0795ZM277.215 59.1392C276.559 59.1392 275.974 59.0265 275.46 58.8011C274.95 58.5758 274.544 58.2625 274.242 57.8615C273.944 57.4571 273.781 56.9882 273.755 56.4545H275.008C275.034 56.7827 275.147 57.0661 275.346 57.3047C275.545 57.54 275.805 57.7223 276.126 57.8516C276.448 57.9808 276.804 58.0455 277.195 58.0455C277.633 58.0455 278.02 57.9692 278.358 57.8168C278.697 57.6643 278.962 57.4522 279.154 57.1804C279.346 56.9086 279.442 56.5938 279.442 56.2358C279.442 55.8613 279.349 55.5315 279.164 55.2464C278.978 54.9581 278.706 54.7327 278.349 54.5703C277.991 54.4079 277.553 54.3267 277.036 54.3267H276.221V53.233H277.036C277.44 53.233 277.795 53.16 278.1 53.0142C278.408 52.8684 278.648 52.6629 278.821 52.3977C278.997 52.1326 279.084 51.821 279.084 51.4631C279.084 51.1184 279.008 50.8184 278.856 50.5632C278.703 50.308 278.488 50.1091 278.209 49.9666C277.934 49.8241 277.609 49.7528 277.235 49.7528C276.884 49.7528 276.552 49.8175 276.241 49.9467C275.932 50.0727 275.68 50.2566 275.485 50.4986C275.289 50.7372 275.183 51.0256 275.167 51.3636H273.974C273.993 50.83 274.154 50.3627 274.456 49.9616C274.757 49.5573 275.152 49.2424 275.639 49.017C276.13 48.7917 276.668 48.679 277.255 48.679C277.885 48.679 278.425 48.8066 278.876 49.0618C279.326 49.3137 279.673 49.6468 279.915 50.0611C280.157 50.4754 280.278 50.9228 280.278 51.4034C280.278 51.9768 280.127 52.4657 279.825 52.87C279.527 53.2744 279.121 53.5545 278.607 53.7102V53.7898C279.25 53.8958 279.752 54.1693 280.113 54.6101C280.475 55.0476 280.655 55.5895 280.655 56.2358C280.655 56.7893 280.505 57.2865 280.203 57.7273C279.905 58.1648 279.497 58.5095 278.98 58.7614C278.463 59.0133 277.875 59.1392 277.215 59.1392Z" fill="black"/>
<path d="M409.372 59L413.926 49.9915V49.9119H408.676V48.8182H415.199V49.9716L410.665 59H409.372ZM416.177 59.0795C415.932 59.0795 415.721 58.9917 415.546 58.8161C415.37 58.6404 415.282 58.4299 415.282 58.1847C415.282 57.9394 415.37 57.7289 415.546 57.5533C415.721 57.3776 415.932 57.2898 416.177 57.2898C416.422 57.2898 416.633 57.3776 416.808 57.5533C416.984 57.7289 417.072 57.9394 417.072 58.1847C417.072 58.3471 417.03 58.4962 416.948 58.6321C416.868 58.768 416.76 58.8774 416.624 58.9602C416.492 59.0398 416.343 59.0795 416.177 59.0795ZM418.919 56.9119V55.8977L423.393 48.8182H424.129V50.3892H423.632L420.251 55.7386V55.8182H426.277V56.9119H418.919ZM423.711 59V56.6037V56.1314V48.8182H424.885V59H423.711Z" fill="black"/>
<path d="M37.4414 72.832C38.7402 72.8418 40.1025 73.623 40.1074 76.2109C40.1074 78.6914 39.0381 80.0977 37.3438 80.0977C36.04 80.0977 35.1318 79.292 34.9609 78.1445H36.0254C36.1719 78.7402 36.6309 79.1553 37.3438 79.1602C38.4326 79.1553 39.0723 78.208 39.082 76.5918H38.9941C38.6133 77.1875 37.9492 77.5488 37.1875 77.5488C35.918 77.5488 34.9023 76.5771 34.9023 75.2246C34.9023 73.877 35.9033 72.8223 37.4414 72.832ZM35.9473 75.2051C35.9521 76.0254 36.5625 76.6748 37.4219 76.6699C38.2764 76.6748 38.9355 75.9766 38.9355 75.1953C38.9355 74.4287 38.3057 73.7305 37.4414 73.7305C36.5869 73.7305 35.9424 74.3945 35.9473 75.2051ZM35.4834 108.93V116H34.3994V110.004H34.3604L32.6709 111.107V110.082L34.4287 108.93H35.4834ZM39.7412 116.098C38.1055 116.098 37.1436 114.779 37.1436 112.465C37.1436 110.165 38.1152 108.832 39.7412 108.832C41.3623 108.832 42.334 110.165 42.3389 112.465C42.334 114.779 41.377 116.098 39.7412 116.098ZM38.2178 112.465C38.2129 114.228 38.7842 115.17 39.7412 115.17C40.6934 115.17 41.2646 114.228 41.2646 112.465C41.2646 110.707 40.6885 109.745 39.7412 109.74C38.7891 109.745 38.2178 110.707 38.2178 112.465ZM36.3281 144.93V152H35.2441V146.004H35.2051L33.5156 147.107V146.082L35.2734 144.93H36.3281ZM40.8105 144.93V152H39.7266V146.004H39.6875L37.998 147.107V146.082L39.7559 144.93H40.8105ZM35.5957 180.93V188H34.5117V182.004H34.4727L32.7832 183.107V182.082L34.541 180.93H35.5957ZM37.3926 188V187.219L39.8438 184.748C40.6201 183.942 41.0059 183.493 41.0059 182.873C41.0059 182.175 40.4395 181.73 39.6973 181.73C38.9111 181.73 38.4131 182.229 38.4082 182.98H37.3926C37.3828 181.687 38.3691 180.832 39.7168 180.832C41.0791 180.832 42.0215 181.696 42.0312 182.844C42.0215 183.635 41.6504 184.265 40.3223 185.568L38.8867 187.023V187.082H42.1484V188H37.3926ZM35.4492 216.93V224H34.3652V218.004H34.3262L32.6367 219.107V218.082L34.3945 216.93H35.4492ZM39.7559 224.098C38.291 224.098 37.251 223.312 37.207 222.154H38.3008C38.3398 222.774 38.9551 223.17 39.7461 223.17C40.6006 223.17 41.2207 222.706 41.2207 222.018C41.2207 221.319 40.6396 220.821 39.6289 220.816H39.0234V219.938H39.6289C40.4346 219.942 40.9961 219.493 40.9961 218.814C40.9961 218.17 40.5127 217.73 39.7656 217.73C39.0576 217.73 38.4229 218.126 38.3984 218.766H37.3633C37.3926 217.613 38.457 216.832 39.7754 216.832C41.167 216.832 42.041 217.711 42.0312 218.756C42.041 219.562 41.543 220.138 40.7812 220.328V220.377C41.748 220.514 42.3096 221.163 42.3047 222.057C42.3096 223.233 41.2207 224.098 39.7559 224.098ZM35.3955 252.93V260H34.3115V254.004H34.2725L32.583 255.107V254.082L34.3408 252.93H35.3955ZM37.0361 258.623V257.754L40.1611 252.93H41.4893V257.715H42.4561V258.623H41.4893V260H40.4736V258.623H37.0361ZM38.1689 257.715H40.4736V254.209H40.3955L38.1689 257.656V257.715ZM35.5371 288.93V296H34.4531V290.004H34.4141L32.7246 291.107V290.082L34.4824 288.93H35.5371ZM39.7363 296.098C38.3984 296.098 37.3926 295.282 37.3438 294.154H38.3887C38.4473 294.755 39.0234 295.194 39.7363 295.199C40.5957 295.194 41.2109 294.574 41.2109 293.734C41.2109 292.875 40.5762 292.25 39.6875 292.24C39.1211 292.24 38.6865 292.431 38.4473 292.865H37.4316L37.8906 288.93H41.8945V289.848H38.7793L38.5449 291.83H38.6133C38.9062 291.547 39.4043 291.356 39.9414 291.352C41.2744 291.356 42.2559 292.343 42.2559 293.705C42.2559 295.097 41.2109 296.098 39.7363 296.098ZM35.4541 324.93V332H34.3701V326.004H34.3311L32.6416 327.107V326.082L34.3994 324.93H35.4541ZM39.8096 332.098C38.501 332.088 37.1338 331.312 37.1338 328.699C37.1387 326.238 38.2031 324.832 39.8975 324.832C41.2012 324.832 42.1045 325.643 42.2705 326.766H41.2061C41.0645 326.189 40.6104 325.774 39.8975 325.77C38.8037 325.774 38.1689 326.722 38.1689 328.318H38.2471C38.6328 327.718 39.2969 327.366 40.0635 327.361C41.3232 327.366 42.3389 328.333 42.3389 329.686C42.3389 331.058 41.3281 332.107 39.8096 332.098ZM38.2959 329.715C38.3008 330.501 38.9307 331.194 39.7998 331.199C40.6543 331.194 41.2939 330.53 41.2939 329.705C41.2939 328.895 40.6787 328.235 39.8291 328.24C38.9648 328.235 38.3057 328.929 38.2959 329.715ZM35.7715 360.93V368H34.6875V362.004H34.6484L32.959 363.107V362.082L34.7168 360.93H35.7715ZM37.8125 368L40.9668 361.906V361.848H37.3242V360.93H42.0801V361.887L38.9355 368H37.8125ZM35.4785 396.93V404H34.3945V398.004H34.3555L32.666 399.107V398.082L34.4238 396.93H35.4785ZM39.7461 404.098C38.208 404.098 37.1387 403.268 37.1484 402.115C37.1387 401.207 37.7881 400.465 38.623 400.338V400.299C37.8955 400.133 37.4121 399.488 37.4121 398.717C37.4121 397.628 38.3936 396.832 39.7461 396.832C41.0791 396.832 42.0654 397.628 42.0703 398.717C42.0654 399.488 41.5723 400.133 40.8594 400.299V400.338C41.6846 400.465 42.3389 401.207 42.3438 402.115C42.3389 403.268 41.2598 404.098 39.7461 404.098ZM38.2422 402.037C38.2275 402.73 38.8135 403.209 39.7461 403.209C40.6641 403.209 41.25 402.73 41.25 402.037C41.25 401.31 40.6152 400.777 39.7461 400.777C38.8672 400.777 38.2275 401.31 38.2422 402.037ZM38.457 398.814C38.4619 399.474 38.9893 399.933 39.7461 399.928C40.4834 399.933 41.0205 399.479 41.0156 398.814C41.0205 398.155 40.5029 397.706 39.7461 397.711C38.9697 397.706 38.4619 398.155 38.457 398.814ZM35.4541 432.93V440H34.3701V434.004H34.3311L32.6416 435.107V434.082L34.3994 432.93H35.4541ZM39.6826 432.832C40.9814 432.842 42.3438 433.623 42.3486 436.211C42.3486 438.691 41.2793 440.098 39.585 440.098C38.2812 440.098 37.373 439.292 37.2021 438.145H38.2666C38.4131 438.74 38.8721 439.155 39.585 439.16C40.6738 439.155 41.3135 438.208 41.3232 436.592H41.2354C40.8545 437.188 40.1904 437.549 39.4287 437.549C38.1592 437.549 37.1436 436.577 37.1436 435.225C37.1436 433.877 38.1445 432.822 39.6826 432.832ZM38.1885 435.205C38.1934 436.025 38.8037 436.675 39.6631 436.67C40.5176 436.675 41.1768 435.977 41.1768 435.195C41.1768 434.429 40.5469 433.73 39.6826 433.73C38.8281 433.73 38.1836 434.395 38.1885 435.205ZM32.0654 476V475.219L34.5166 472.748C35.293 471.942 35.6787 471.493 35.6787 470.873C35.6787 470.175 35.1123 469.73 34.3701 469.73C33.584 469.73 33.0859 470.229 33.0811 470.98H32.0654C32.0557 469.687 33.042 468.832 34.3896 468.832C35.752 468.832 36.6943 469.696 36.7041 470.844C36.6943 471.635 36.3232 472.265 34.9951 473.568L33.5596 475.023V475.082H36.8213V476H32.0654ZM40.4736 476.098C38.8379 476.098 37.876 474.779 37.876 472.465C37.876 470.165 38.8477 468.832 40.4736 468.832C42.0947 468.832 43.0664 470.165 43.0713 472.465C43.0664 474.779 42.1094 476.098 40.4736 476.098ZM38.9502 472.465C38.9453 474.228 39.5166 475.17 40.4736 475.17C41.4258 475.17 41.9971 474.228 41.9971 472.465C41.9971 470.707 41.4209 469.745 40.4736 469.74C39.5215 469.745 38.9502 470.707 38.9502 472.465ZM32.9102 512V511.219L35.3613 508.748C36.1377 507.942 36.5234 507.493 36.5234 506.873C36.5234 506.175 35.957 505.73 35.2148 505.73C34.4287 505.73 33.9307 506.229 33.9258 506.98H32.9102C32.9004 505.687 33.8867 504.832 35.2344 504.832C36.5967 504.832 37.5391 505.696 37.5488 506.844C37.5391 507.635 37.168 508.265 35.8398 509.568L34.4043 511.023V511.082H37.666V512H32.9102ZM41.543 504.93V512H40.459V506.004H40.4199L38.7305 507.107V506.082L40.4883 504.93H41.543ZM32.1777 548V547.219L34.6289 544.748C35.4053 543.942 35.791 543.493 35.791 542.873C35.791 542.175 35.2246 541.73 34.4824 541.73C33.6963 541.73 33.1982 542.229 33.1934 542.98H32.1777C32.168 541.687 33.1543 540.832 34.502 540.832C35.8643 540.832 36.8066 541.696 36.8164 542.844C36.8066 543.635 36.4355 544.265 35.1074 545.568L33.6719 547.023V547.082H36.9336V548H32.1777ZM38.125 548V547.219L40.5762 544.748C41.3525 543.942 41.7383 543.493 41.7383 542.873C41.7383 542.175 41.1719 541.73 40.4297 541.73C39.6436 541.73 39.1455 542.229 39.1406 542.98H38.125C38.1152 541.687 39.1016 540.832 40.4492 540.832C41.8115 540.832 42.7539 541.696 42.7637 542.844C42.7539 543.635 42.3828 544.265 41.0547 545.568L39.6191 547.023V547.082H42.8809V548H38.125Z" fill="black"/>
<path d="M126.26 36.695H127.505V38.9H126.26V36.695ZM131.96 28.61H133.205V42.17H131.96V28.61ZM132.8 34.37H135.305V35.42H132.8V34.37ZM122.765 39.59L122.585 38.555C125.015 38.555 128.33 38.525 131.135 38.12L131.24 39.05C128.315 39.575 125.135 39.59 122.765 39.59ZM122.81 30.245H130.925V31.25H122.81V30.245ZM126.875 32.045C128.765 32.045 130.07 33.035 130.07 34.55C130.07 36.08 128.765 37.055 126.875 37.055C124.985 37.055 123.695 36.08 123.695 34.55C123.695 33.035 124.985 32.045 126.875 32.045ZM126.875 33.005C125.66 33.005 124.865 33.62 124.865 34.55C124.865 35.48 125.66 36.095 126.875 36.095C128.09 36.095 128.9 35.48 128.9 34.55C128.9 33.62 128.09 33.005 126.875 33.005ZM126.26 28.625H127.505V30.92H126.26V28.625Z" fill="black"/>
<path d="M272.225 29.09H273.32V29.84C273.32 32.435 270.68 34.295 267.86 34.775L267.365 33.77C269.84 33.395 272.225 31.775 272.225 29.84V29.09ZM272.45 29.09H273.53V29.84C273.53 31.73 275.945 33.395 278.39 33.77L277.895 34.775C275.105 34.295 272.45 32.405 272.45 29.84V29.09ZM272.225 37.01H273.455V42.17H272.225V37.01ZM266.75 36.245H279.005V37.28H266.75V36.245Z" fill="black"/>
<path d="M412.31 29.165H421.43V33.785H412.31V29.165ZM420.2 30.17H413.525V32.78H420.2V30.17ZM410.735 35.48H422.99V36.485H410.735V35.48ZM416.255 33.515H417.485V35.855H416.255V33.515ZM412.1 37.88H421.475V42.17H420.23V38.9H412.1V37.88Z" fill="black"/>
<line x1="66" y1="93.75" x2="491" y2="93.75" stroke="#CDCDCD" stroke-width="0.5"/>
<line x1="66" y1="129.75" x2="491" y2="129.75" stroke="#CDCDCD" stroke-width="0.5"/>
<line x1="66" y1="165.75" x2="491" y2="165.75" stroke="#CDCDCD" stroke-width="0.5"/>
<line x1="66" y1="201.75" x2="491" y2="201.75" stroke="#CDCDCD" stroke-width="0.5"/>
<line x1="66" y1="237.75" x2="491" y2="237.75" stroke="#CDCDCD" stroke-width="0.5"/>
<line x1="66" y1="273.75" x2="491" y2="273.75" stroke="#CDCDCD" stroke-width="0.5"/>
<line x1="66" y1="309.75" x2="491" y2="309.75" stroke="#CDCDCD" stroke-width="0.5"/>
<line x1="66" y1="345.75" x2="491" y2="345.75" stroke="#CDCDCD" stroke-width="0.5"/>
<line x1="66" y1="381.75" x2="491" y2="381.75" stroke="#CDCDCD" stroke-width="0.5"/>
<line x1="66" y1="417.75" x2="491" y2="417.75" stroke="#CDCDCD" stroke-width="0.5"/>
<line x1="66" y1="453.75" x2="491" y2="453.75" stroke="#CDCDCD" stroke-width="0.5"/>
<line x1="66" y1="489.75" x2="491" y2="489.75" stroke="#CDCDCD" stroke-width="0.5"/>
<line x1="66" y1="525.75" x2="491" y2="525.75" stroke="#CDCDCD" stroke-width="0.5"/>
<line x1="66" y1="561.75" x2="491" y2="561.75" stroke="#CDCDCD" stroke-width="0.5"/>
</g>
<defs>
<clipPath id="clip0_919_1210">
<rect width="480" height="591" fill="white"/>
</clipPath>
</defs>
</svg>
