<svg width="95" height="32" viewBox="0 0 95 32" fill="none" xmlns="http://www.w3.org/2000/svg">
<path fill-rule="evenodd" clip-rule="evenodd" d="M0 0.796402V0.713426C4.82481 -0.553675 9.65065 0.120315 14.4765 0.794305C19.3023 1.46829 24.1282 2.14228 28.953 0.875183V6.10534C24.1282 7.42636 19.3023 6.80629 14.4765 6.18622L14.4765 6.18622C11.4432 5.79648 8.40998 5.40674 5.37698 5.499V11.6185C8.40998 11.5601 11.4432 11.9837 14.4765 12.4074C19.3023 13.0813 24.1282 13.7553 28.953 12.4882V17.7184C24.1282 19.0394 19.3023 18.4193 14.4765 17.7993C11.4432 17.4095 8.40998 17.0198 5.37698 17.1121V29.0003H0V17.8801V12.3265V6.2671V0.796402Z" fill="#8E6FFF"/>
<path fill-rule="evenodd" clip-rule="evenodd" d="M0 0.796402V0.713426C4.82481 -0.553675 9.65065 0.120315 14.4765 0.794305C19.3023 1.46829 24.1282 2.14228 28.953 0.875183V6.10534C24.1282 7.42636 19.3023 6.80629 14.4765 6.18622L14.4765 6.18622C11.4432 5.79648 8.40998 5.40674 5.37698 5.499V11.6185C8.40998 11.5601 11.4432 11.9837 14.4765 12.4074C19.3023 13.0813 24.1282 13.7553 28.953 12.4882V17.7184C24.1282 19.0394 19.3023 18.4193 14.4765 17.7993C11.4432 17.4095 8.40998 17.0198 5.37698 17.1121V29.0003H0V17.8801V12.3265V6.2671V0.796402Z" fill="url(#paint0_linear_824_606)"/>
<path d="M36.486 9.136H51.666V11.314H36.486V9.136ZM36.64 13.91H51.512V16.088H36.64V13.91ZM39.082 9.994H42.008V15.318H39.082V9.994ZM46.144 9.994H49.07V15.318H46.144V9.994ZM34.88 17.144H53.294V19.432H34.88V17.144ZM36.992 20.554H51.072V25.614H39.896V27.506H37.014V23.656H48.19V22.644H36.992V20.554ZM37.014 26.692H51.6V28.826H37.014V26.692ZM55.6683 22.05H57.0983C59.5183 22.05 61.6523 22.006 64.1603 21.61L64.3803 23.964C61.7843 24.404 59.5843 24.47 57.0983 24.47H55.6683V22.05ZM55.6463 10.566H63.3683V18.442H58.5063V22.93H55.6683V16.132H60.5303V12.898H55.6463V10.566ZM69.8363 8.586H72.6083V28.958H69.8363V8.586ZM67.1083 16.286H70.4963V18.618H67.1083V16.286ZM65.2823 8.938H67.9883V27.99H65.2823V8.938ZM77.2486 10.456H90.1626V12.766H77.2486V10.456ZM75.3786 23.92H93.7926V26.296H75.3786V23.92ZM88.6226 10.456H91.5266V12.876C91.5266 15.736 91.5266 18.508 90.8006 22.688L87.8746 22.446C88.6226 18.53 88.6226 15.626 88.6226 12.876V10.456Z" fill="#8E6FFF"/>
<defs>
<linearGradient id="paint0_linear_824_606" x1="16.2599" y1="33.2899" x2="8.54424" y2="13.1491" gradientUnits="userSpaceOnUse">
<stop stop-color="#6041FF"/>
<stop offset="1" stop-color="#6041FF" stop-opacity="0"/>
</linearGradient>
</defs>
</svg>
