<svg width="150" height="150" viewBox="0 0 150 150" fill="none" xmlns="http://www.w3.org/2000/svg">
<circle cx="75" cy="75" r="75" fill="#F6F6F6"/>
<path d="M55.3158 46H95.6842C98.1549 46 100.524 46.9815 102.271 48.7285C104.019 50.4756 105 52.8451 105 55.3158V95.6842C105 98.1549 104.019 100.524 102.271 102.271C100.524 104.019 98.1549 105 95.6842 105H55.3158C52.8451 105 50.4756 104.019 48.7285 102.271C46.9815 100.524 46 98.1549 46 95.6842V55.3158C46 52.8451 46.9815 50.4756 48.7285 48.7285C50.4756 46.9815 52.8451 46 55.3158 46ZM55.3158 49.1053C53.6687 49.1053 52.089 49.7596 50.9243 50.9243C49.7596 52.089 49.1053 53.6687 49.1053 55.3158V91.3058L62.4268 77.9532L70.19 85.7163L85.7163 70.19L101.895 86.3684V55.3158C101.895 53.6687 101.24 52.089 100.076 50.9243C98.911 49.7596 97.3313 49.1053 95.6842 49.1053H55.3158ZM70.19 90.1258L62.4268 82.3626L49.1053 95.6842C49.1053 97.3313 49.7596 98.911 50.9243 100.076C52.089 101.24 53.6687 101.895 55.3158 101.895H95.6842C97.3313 101.895 98.911 101.24 100.076 100.076C101.24 98.911 101.895 97.3313 101.895 95.6842V90.7468L85.7163 74.5995L70.19 90.1258ZM63.0789 55.3158C65.1379 55.3158 67.1125 56.1337 68.5683 57.5896C70.0242 59.0454 70.8421 61.02 70.8421 63.0789C70.8421 65.1379 70.0242 67.1125 68.5683 68.5683C67.1125 70.0242 65.1379 70.8421 63.0789 70.8421C61.02 70.8421 59.0454 70.0242 57.5896 68.5683C56.1337 67.1125 55.3158 65.1379 55.3158 63.0789C55.3158 61.02 56.1337 59.0454 57.5896 57.5896C59.0454 56.1337 61.02 55.3158 63.0789 55.3158ZM63.0789 58.4211C61.8436 58.4211 60.6588 58.9118 59.7853 59.7853C58.9118 60.6588 58.4211 61.8436 58.4211 63.0789C58.4211 64.3143 58.9118 65.4991 59.7853 66.3726C60.6588 67.2461 61.8436 67.7368 63.0789 67.7368C64.3143 67.7368 65.4991 67.2461 66.3726 66.3726C67.2461 65.4991 67.7368 64.3143 67.7368 63.0789C67.7368 61.8436 67.2461 60.6588 66.3726 59.7853C65.4991 58.9118 64.3143 58.4211 63.0789 58.4211Z" fill="#9E9E9E"/>
</svg>
