<svg width="552" height="63" viewBox="0 0 552 63" fill="none" xmlns="http://www.w3.org/2000/svg">
<rect width="552" height="63" rx="31.5" fill="#8E6FFF"/>
<path d="M268.59 21.888H271.806V44.184H268.59V21.888ZM271.086 30.12H275.022V32.736H271.086V30.12ZM255.246 36.192H257.118C260.862 36.192 263.814 36.072 267.078 35.496L267.39 38.136C264.03 38.736 260.982 38.832 257.118 38.832H255.246V36.192ZM255.246 23.952H265.614V26.52H258.414V37.464H255.246V23.952ZM286.516 22.32C291.412 22.32 294.556 23.976 294.556 26.664C294.556 29.352 291.412 30.984 286.516 30.984C281.62 30.984 278.476 29.352 278.476 26.664C278.476 23.976 281.62 22.32 286.516 22.32ZM286.516 24.792C283.468 24.792 281.764 25.392 281.764 26.664C281.764 27.912 283.468 28.536 286.516 28.536C289.54 28.536 291.268 27.912 291.268 26.664C291.268 25.392 289.54 24.792 286.516 24.792ZM278.788 36.312H294.148V43.896H278.788V36.312ZM291.028 38.832H281.932V41.376H291.028V38.832ZM276.46 32.256H296.548V34.776H276.46V32.256Z" fill="white"/>
</svg>
