<svg width="552" height="63" viewBox="0 0 552 63" fill="none" xmlns="http://www.w3.org/2000/svg">
<rect width="552" height="63" rx="31.5" fill="#8E6FFF"/>
<path d="M215.528 25.768H220.04V28.312H215.528V25.768ZM215.408 31.312H219.944V33.856H215.408V31.312ZM223.064 19.912H226.112V42.136H223.064V19.912ZM218.48 20.392H221.456V41.152H218.48V20.392ZM213.464 22.528H216.536C216.536 28.84 214.64 33.88 208.448 37.528L206.648 35.296C211.664 32.248 213.464 28.552 213.464 23.176V22.528ZM207.92 22.528H214.544V25.072H207.92V22.528ZM241.086 25.288H245.31V27.88H241.086V25.288ZM244.446 19.912H247.638V33.112H244.446V19.912ZM240.102 33.592C244.806 33.592 247.71 35.2 247.71 37.888C247.71 40.6 244.806 42.16 240.102 42.16C235.398 42.16 232.494 40.6 232.494 37.888C232.494 35.2 235.398 33.592 240.102 33.592ZM240.102 36.016C237.222 36.016 235.686 36.616 235.686 37.888C235.686 39.136 237.222 39.736 240.102 39.736C243.006 39.736 244.542 39.136 244.542 37.888C244.542 36.616 243.006 36.016 240.102 36.016ZM234.174 22.144H236.766V23.536C236.766 27.784 234.798 31.672 230.55 33.112L228.918 30.592C232.59 29.344 234.174 26.392 234.174 23.536V22.144ZM234.846 22.144H237.414V23.536C237.414 26.152 238.926 28.864 242.43 30.04L240.87 32.56C236.742 31.192 234.846 27.496 234.846 23.536V22.144ZM229.782 21.256H241.734V23.8H229.782V21.256ZM260.679 21.256H263.175V23.824C263.175 27.592 261.663 31.36 258.039 32.896L256.359 30.424C259.455 29.056 260.679 26.32 260.679 23.824V21.256ZM261.255 21.256H263.751V23.824C263.751 26.2 264.951 28.6 267.879 29.752L266.175 32.176C262.719 30.808 261.255 27.448 261.255 23.824V21.256ZM272.583 19.936H275.607V33.496H272.583V19.936ZM269.919 25.312H273.447V27.88H269.919V25.312ZM267.879 20.344H270.855V32.8H267.879V20.344ZM268.071 33.808C272.727 33.808 275.727 35.368 275.727 37.984C275.727 40.576 272.727 42.136 268.071 42.136C263.391 42.136 260.439 40.576 260.439 37.984C260.439 35.368 263.391 33.808 268.071 33.808ZM268.071 36.208C265.215 36.208 263.607 36.808 263.607 37.984C263.607 39.16 265.215 39.736 268.071 39.736C270.927 39.736 272.511 39.16 272.511 37.984C272.511 36.808 270.927 36.208 268.071 36.208ZM283.909 21.064H286.573V23.056C286.573 27.52 284.581 31.432 280.213 32.896L278.557 30.328C282.349 29.104 283.909 26.104 283.909 23.056V21.064ZM284.581 21.064H287.149V22.912C287.149 25.864 288.589 28.6 292.117 29.728L290.461 32.224C286.357 30.808 284.581 27.232 284.581 22.912V21.064ZM294.157 19.912H297.349V32.92H294.157V19.912ZM289.813 33.496C294.517 33.496 297.421 35.104 297.421 37.816C297.421 40.552 294.517 42.136 289.813 42.136C285.109 42.136 282.205 40.552 282.205 37.816C282.205 35.104 285.109 33.496 289.813 33.496ZM289.813 35.968C286.933 35.968 285.397 36.568 285.397 37.816C285.397 39.064 286.933 39.688 289.813 39.688C292.717 39.688 294.253 39.064 294.253 37.816C294.253 36.568 292.717 35.968 289.813 35.968ZM290.101 23.944H294.613V26.536H290.101V23.944ZM315.083 19.912H318.251V42.136H315.083V19.912ZM317.531 28.576H321.467V31.24H317.531V28.576ZM300.731 23.2H313.667V25.744H300.731V23.2ZM307.235 26.992C310.475 26.992 312.875 29.2 312.875 32.296C312.875 35.392 310.475 37.6 307.235 37.6C303.995 37.6 301.595 35.392 301.595 32.296C301.595 29.2 303.995 26.992 307.235 26.992ZM307.235 29.584C305.723 29.584 304.643 30.592 304.643 32.296C304.643 34 305.723 35.008 307.235 35.008C308.747 35.008 309.827 34 309.827 32.296C309.827 30.592 308.747 29.584 307.235 29.584ZM305.627 20.272H308.819V24.16H305.627V20.272ZM338.217 19.912H341.433V42.136H338.217V19.912ZM331.665 22.216H334.833C334.833 29.008 332.529 34.576 324.633 38.392L322.977 35.848C329.361 32.776 331.665 28.744 331.665 22.792V22.216ZM324.153 22.216H333.177V24.736H324.153V22.216Z" fill="white"/>
</svg>
