<svg width="148" height="148" viewBox="0 0 148 148" fill="none" xmlns="http://www.w3.org/2000/svg">
<mask id="mask0_736_720" style="mask-type:alpha" maskUnits="userSpaceOnUse" x="0" y="0" width="148" height="148">
<rect width="148" height="148" fill="#D9D9D9"/>
</mask>
<g mask="url(#mask0_736_720)">
<path d="M98.358 135.666L72.1497 109.458L80.783 100.824L98.358 118.399L133.2 83.5577L141.833 92.191L98.358 135.666ZM73.9997 67.8327L123.333 36.9993H24.6663L73.9997 67.8327ZM73.9997 80.166L24.6663 49.3327V110.999H56.4247L68.758 123.333H24.6663C21.2747 123.333 18.3712 122.125 15.9559 119.71C13.5406 117.294 12.333 114.391 12.333 110.999V36.9993C12.333 33.6077 13.5406 30.7042 15.9559 28.2889C18.3712 25.8737 21.2747 24.666 24.6663 24.666H123.333C126.725 24.666 129.628 25.8737 132.043 28.2889C134.459 30.7042 135.666 33.6077 135.666 36.9993V63.8243L123.333 76.1577V49.3327L73.9997 80.166Z" fill="#1C1B1F"/>
</g>
</svg>
