<svg width="420" height="128" viewBox="0 0 420 128" fill="none" xmlns="http://www.w3.org/2000/svg">
<rect width="420" height="128" rx="15" fill="#E2DBFF"/>
<path d="M19.528 17.432H26.736L26.728 18.728H21.048V22.552H26.152V23.832H21.048V29H19.528V17.432ZM29.036 17.432H30.548V27.672H36.012V29H29.028L29.036 17.432ZM38.2624 29V17.432H45.5584L45.5504 18.736H39.7504V22.512H44.9744V23.808H39.7424V27.664L45.7104 27.68V29H38.2624ZM57.4301 29H55.5981L52.4621 24.232L49.3741 29H47.7421L51.6621 23.096L47.8781 17.432H49.7021L52.5821 21.84L55.4381 17.432H57.0701L53.3741 22.944L57.4301 29ZM73.0773 15.768H74.4053V30.264H73.0773V15.768ZM66.7733 16.888C68.9173 16.888 70.4533 18.856 70.4533 21.928C70.4533 25.016 68.9173 26.984 66.7733 26.984C64.6453 26.984 63.1093 25.016 63.1093 21.928C63.1093 18.856 64.6453 16.888 66.7733 16.888ZM66.7733 18.088C65.3653 18.088 64.3733 19.592 64.3733 21.928C64.3733 24.28 65.3653 25.816 66.7733 25.816C68.1973 25.816 69.1733 24.28 69.1733 21.928C69.1733 19.592 68.1973 18.088 66.7733 18.088ZM80.644 24.728H82.004V30.248H80.644V24.728ZM85.62 24.728H86.98V30.248H85.62V24.728ZM77.284 24.008H90.404V25.112H77.284V24.008ZM83.812 16.36C86.836 16.36 88.868 17.576 88.868 19.512C88.868 21.432 86.836 22.664 83.812 22.664C80.804 22.664 78.756 21.432 78.756 19.512C78.756 17.576 80.804 16.36 83.812 16.36ZM83.812 17.432C81.604 17.432 80.1 18.248 80.1 19.512C80.1 20.776 81.604 21.592 83.812 21.592C86.02 21.592 87.508 20.776 87.508 19.512C87.508 18.248 86.02 17.432 83.812 17.432Z" fill="black"/>
</svg>
