<svg width="288" height="30" viewBox="0 0 288 30" fill="none" xmlns="http://www.w3.org/2000/svg">
<path d="M10.9369 12.5164H2.13088V9.67444H9.41088V8.65244H2.08888V7.78444H10.4749V10.4724H3.20888V11.6344H10.9369V12.5164ZM10.7409 5.04044H1.83688V4.15844H3.78288L3.47488 2.36644L4.58088 2.22644L4.79088 4.15844H7.77288L8.02488 2.19844L9.13088 2.33844L8.79488 4.15844H10.7409V5.04044ZM11.8329 6.84644H0.786883V5.95044H11.8329V6.84644ZM10.7409 1.75044H1.82288V0.868437H10.7409V1.75044ZM23.2182 12.6284H22.1682V6.17444H20.5722V11.9984H19.5222V0.686437H20.5722V5.27844H22.1682V0.392437H23.2182V12.6284ZM18.7942 8.38644L18.9062 9.26844C17.6042 9.50644 15.5882 9.67444 14.0622 9.67444H13.2642V5.06844H16.9182V2.57644H13.2362V1.69444H17.9822V5.95044H14.3282V8.77844C15.4342 8.77844 17.4362 8.66644 18.7942 8.38644ZM36.0594 10.8224H25.0134V9.92644H36.0594V10.8224ZM34.4774 1.76444C34.4774 4.57844 34.3094 7.12644 33.9314 9.00244L32.8674 8.86244C33.2034 7.30844 33.3854 4.64844 33.3854 2.64644H26.1614V1.76444H34.4774ZM46.5347 0.392437V5.48844H48.5367V6.39844H46.5347V12.6284H45.4707V0.392437H46.5347ZM43.3567 1.70844C43.2867 5.68444 40.9907 8.55444 37.8407 10.1924L37.1827 9.35244C40.2347 7.93844 41.9847 5.36244 42.2087 2.60444H37.6027V1.70844H43.3567ZM60.1697 8.96044L59.5257 9.75844C58.3777 9.03044 56.8797 7.49044 56.4457 6.03444C56.0257 7.51844 54.8357 9.03044 53.3657 10.0524L52.6657 9.25444C54.4717 8.19044 55.8857 6.03444 55.8857 3.83644V2.57644H53.0577V1.68044H59.8197V2.57644H56.9917V3.80844C56.9917 6.09044 58.4897 8.00844 60.1697 8.96044ZM64.3137 6.25844H62.3257V12.6284H61.2617V0.392437H62.3257V5.36244H64.3137V6.25844ZM74.761 10.4864C74.761 11.8584 73.235 12.6284 70.547 12.6284C67.873 12.6284 66.361 11.8444 66.361 10.4864C66.361 9.15644 67.873 8.35844 70.547 8.35844C73.235 8.35844 74.761 9.10044 74.761 10.4864ZM74.747 5.02644H71.079V6.58044H76.077V7.46244H65.031V6.58044H70.015V5.02644H66.375V0.980437H74.691V1.86244H67.453V4.14444H74.747V5.02644ZM70.547 9.22644C68.629 9.22644 67.453 9.70244 67.453 10.4864C67.453 11.2984 68.629 11.7464 70.547 11.7464C72.493 11.7464 73.669 11.2984 73.669 10.4864C73.669 9.70244 72.493 9.22644 70.547 9.22644ZM88.1903 10.9484H77.1443V10.0524H88.1903V10.9484ZM87.1123 4.55044C87.1123 6.42644 85.3343 7.64444 82.6463 7.64444C79.9863 7.64444 78.2083 6.42644 78.2083 4.55044C78.2083 2.68844 79.9863 1.45644 82.6463 1.45644C85.3483 1.45644 87.1123 2.68844 87.1123 4.55044ZM86.0483 4.56444C86.0483 3.23444 84.7043 2.35244 82.6463 2.35244C80.6163 2.35244 79.2723 3.23444 79.2723 4.56444C79.2723 5.86644 80.6163 6.73444 82.6463 6.73444C84.6903 6.73444 86.0483 5.86644 86.0483 4.56444ZM100.304 11.0744H89.2576V10.1784H94.2276V8.09244H90.6156V4.27044H97.8676V2.31044H90.6016V1.41444H98.9316V5.15244H91.6796V7.19644H99.2816V8.09244H95.2916V10.1784H100.304V11.0744ZM114.457 0.392437V5.48844H116.459V6.39844H114.457V12.6284H113.393V0.392437H114.457ZM111.279 1.70844C111.209 5.68444 108.913 8.55444 105.763 10.1924L105.105 9.35244C108.157 7.93844 109.907 5.36244 110.131 2.60444H105.525V1.70844H111.279ZM128.208 6.98644H117.162V6.10444H128.208V6.98644ZM126.934 4.77444H118.702V0.714437H119.766V3.89244H126.934V4.77444ZM127.004 10.2764C127.004 11.7464 125.366 12.5584 122.706 12.5584C120.032 12.5584 118.422 11.7464 118.422 10.2764C118.422 8.82044 120.032 8.00844 122.692 8.00844C125.366 8.00844 127.004 8.82044 127.004 10.2764ZM122.692 8.87644C120.774 8.87644 119.5 9.32444 119.5 10.2764C119.5 11.2284 120.774 11.6764 122.692 11.6764C124.638 11.6764 125.926 11.2284 125.926 10.2764C125.926 9.32444 124.638 8.87644 122.692 8.87644ZM140.545 5.43244H138.683V9.42244H137.619V0.392437H138.683V4.53644H140.545V5.43244ZM139.159 12.2364H131.011V9.10044H132.075V11.3404H139.159V12.2364ZM134.497 1.76444H130.969V0.826437H134.497V1.76444ZM136.387 3.57044H129.219V2.68844H136.387V3.57044ZM135.687 6.37044C135.687 7.65844 134.455 8.51244 132.803 8.51244C131.179 8.51244 129.933 7.65844 129.933 6.37044C129.933 5.05444 131.165 4.22844 132.803 4.22844C134.455 4.22844 135.687 5.05444 135.687 6.37044ZM134.679 6.37044C134.679 5.55844 133.797 5.06844 132.803 5.06844C131.823 5.06844 130.941 5.55844 130.941 6.37044C130.941 7.16844 131.823 7.65844 132.803 7.65844C133.797 7.65844 134.679 7.16844 134.679 6.37044ZM155.146 12.6284H154.068V0.392437H155.146V12.6284ZM152.514 8.87644L151.842 9.68844C150.736 8.93244 149.294 7.42044 148.818 5.95044C148.37 7.47644 147.11 8.97444 145.696 9.98244L144.996 9.18444C146.788 8.06444 148.258 5.83844 148.258 3.66844V1.45644H149.336V3.62644C149.336 5.86644 150.82 7.86844 152.514 8.87644ZM168.449 5.12444H166.587V9.54844H165.523V0.392437H166.587V4.22844H168.449V5.12444ZM166.965 12.3204H158.887V8.54044H159.951V11.4384H166.965V12.3204ZM157.599 1.47044H163.171C163.031 4.80244 160.763 7.14044 157.641 8.13444L157.095 7.23844C159.727 6.56644 161.701 4.62044 162.009 2.36644H157.599V1.47044ZM179.611 12.6284H178.561V6.10444H176.923V11.9984H175.887V0.686437H176.923V5.20844H178.561V0.392437H179.611V12.6284ZM170.735 8.55444H171.099C172.331 8.55444 174.165 8.47044 175.201 8.24644L175.299 9.11444C174.137 9.33844 172.079 9.47844 170.483 9.47844H169.671V1.89044H174.417V2.78644H170.735V8.55444ZM192.452 6.91644H181.406V6.09044H192.452V6.91644ZM191.528 12.4044H182.68V9.68844H190.086V8.66644H182.694V7.88244H191.15V10.4444H183.744V11.5644H191.528V12.4044ZM191.318 5.12444H182.806V2.59044H190.016V1.63844H182.792V0.798437H191.08V3.36044H183.87V4.32644H191.318V5.12444ZM208.243 11.0744H197.197V10.1784H202.167V7.25244H198.527V1.48444H206.885V7.25244H203.231V10.1784H208.243V11.0744ZM205.821 6.37044V2.36644H199.591V6.37044H205.821ZM220.72 6.21644H218.718V12.6284H217.654V0.392437H218.718V5.32044H220.72V6.21644ZM209.478 5.62844C209.478 3.05244 210.626 1.31644 212.614 1.31644C214.602 1.31644 215.736 3.05244 215.736 5.64244C215.736 8.23244 214.602 9.96844 212.614 9.96844C210.626 9.96844 209.478 8.23244 209.478 5.62844ZM214.7 5.64244C214.7 3.62644 213.888 2.24044 212.614 2.24044C211.34 2.24044 210.514 3.62644 210.514 5.64244C210.514 7.64444 211.34 9.04444 212.614 9.04444C213.888 9.04444 214.7 7.64444 214.7 5.64244ZM231.462 12.6284H230.398V5.65644H227.542V4.76044H230.398V0.392437H231.462V12.6284ZM228.746 8.89044L228.088 9.70244C226.968 8.94644 225.554 7.39244 225.064 5.92244C224.63 7.44844 223.426 8.96044 222.012 9.98244L221.312 9.18444C223.09 8.06444 224.504 5.89444 224.504 3.72444V1.45644H225.61V3.68244C225.61 5.92244 227.066 7.91044 228.746 8.89044ZM246.917 7.71444H243.249V10.2064H248.261V11.1024H237.215V10.2064H242.185V7.71444H238.545V1.23244H239.623V3.48644H245.853V1.23244H246.917V7.71444ZM245.853 6.83244V4.36844H239.623V6.83244H245.853ZM258.302 4.00444H255.824V3.12244H258.302V0.392437H259.366V12.6284H258.302V7.93844H255.824V7.05644H258.302V4.00444ZM249.398 5.57244C249.398 2.98244 250.49 1.24644 252.422 1.24644C254.382 1.24644 255.46 2.98244 255.46 5.58644C255.46 8.17644 254.382 9.89844 252.422 9.89844C250.49 9.89844 249.398 8.17644 249.398 5.57244ZM254.41 5.58644C254.41 3.57044 253.626 2.17044 252.422 2.17044C251.246 2.17044 250.448 3.57044 250.448 5.58644C250.448 7.57444 251.246 8.97444 252.422 8.97444C253.626 8.97444 254.41 7.57444 254.41 5.58644ZM267.545 9.60444V8.73644H270.499V0.392437H271.563V12.6284H270.499V9.60444H267.545ZM268.693 2.15644H265.949V2.18444C265.949 3.92044 267.881 4.74644 269.029 4.99844L268.553 5.86644C267.419 5.61444 265.907 4.67644 265.431 3.78044C265.081 4.71844 263.639 5.72644 262.281 6.13244L261.805 5.33444C263.093 5.01244 264.899 3.96244 264.899 2.19844V2.15644H262.015V1.27444H268.693V2.15644ZM265.893 12.2644H264.829V7.81244C263.709 7.85444 262.519 7.88244 261.483 7.91044L261.329 6.98644C262.771 6.98644 264.087 6.95844 265.431 6.91644C267.013 6.84644 268.525 6.74844 269.505 6.63644L269.589 7.47644C268.721 7.57444 267.377 7.68644 265.893 7.77044V12.2644ZM283.48 4.38244C283.48 6.27244 281.716 7.53244 279.056 7.53244C276.424 7.53244 274.66 6.27244 274.66 4.38244C274.66 2.49244 276.424 1.20444 279.056 1.20444C281.73 1.20444 283.48 2.49244 283.48 4.38244ZM282.458 4.38244C282.458 3.01044 281.114 2.08644 279.056 2.08644C277.026 2.08644 275.682 3.01044 275.682 4.38244C275.682 5.75444 277.026 6.67844 279.056 6.67844C281.1 6.67844 282.458 5.75444 282.458 4.38244ZM284.6 11.0744H273.554V10.1784H276.284V7.89644L277.348 7.86844V10.1784H280.764V7.86844L281.828 7.89644V10.1784H284.6V11.0744ZM286.55 8.94644L286.382 1.16244H287.656L287.488 8.94644H286.55ZM286.424 11.3264V10.0804H287.628V11.3264H286.424ZM48.6552 23.5804C48.6552 24.8404 47.3252 25.5824 45.2392 25.6664V27.2904H50.2372V28.1864H39.1912V27.2904H44.1752V25.6664C42.1032 25.5684 40.8012 24.8264 40.8012 23.5804C40.8012 22.2224 42.3412 21.4804 44.7212 21.4804C47.1152 21.4804 48.6552 22.2224 48.6552 23.5804ZM47.5352 23.5804C47.5352 22.7124 46.1632 22.3484 44.7212 22.3484C43.2932 22.3484 41.9212 22.7124 41.9212 23.5804C41.9212 24.4484 43.2932 24.8124 44.7212 24.8124C46.1772 24.8124 47.5352 24.4484 47.5352 23.5804ZM49.7192 20.8224H39.7232V19.9264H49.7192V20.8224ZM46.9052 18.9184H42.4952V17.9944H46.9052V18.9184ZM61.9445 23.6924L61.3565 24.5884C59.2985 23.9724 57.3105 22.2364 56.8065 20.9904C56.3725 22.2364 54.4265 23.9724 52.2985 24.5744L51.7385 23.6644C53.7265 23.2724 56.2745 21.3824 56.2745 19.3804V18.4144H57.3805V19.3804C57.3805 21.3824 60.0685 23.2724 61.9445 23.6924ZM62.3505 27.9484H51.3045V27.0524H62.3505V27.9484ZM72.7837 22.1384H65.8397V24.0424H73.1477V24.9384H64.7617V18.5684H73.0217V19.4644H65.8397V21.2424H72.7837V22.1384ZM74.4637 28.0744H63.4177V27.1784H74.4637V28.0744ZM84.939 17.3924V22.4884H86.941V23.3984H84.939V29.6284H83.875V17.3924H84.939ZM81.761 18.7084C81.691 22.6844 79.395 25.5544 76.245 27.1924L75.587 26.3524C78.639 24.9384 80.389 22.3624 80.613 19.6044H76.007V18.7084H81.761ZM94.626 18.0644C96.362 18.0644 97.79 19.2404 97.79 21.0044C97.79 22.8104 96.362 23.9164 94.626 23.9164C92.876 23.9164 91.448 22.8104 91.448 21.0184C91.448 19.2404 92.876 18.0644 94.626 18.0644ZM94.626 18.9324C93.394 18.9324 92.484 19.8004 92.484 21.0044C92.484 22.2224 93.394 23.0484 94.626 23.0484C95.9 23.0484 96.768 22.2224 96.768 21.0184C96.768 19.8004 95.914 18.9324 94.626 18.9324ZM102.592 21.9844V22.8804H100.73V24.6304H99.666V17.3924H100.73V19.3104H102.592V20.2064H100.73V21.9844H102.592ZM100.744 29.6284H99.666V26.1144H92.848V25.2324H100.744V29.6284ZM114.481 24.4344H103.435V23.5384H108.419V21.5924H109.483V23.5384H114.481V24.4344ZM113.977 21.3124L113.487 22.2364C111.457 21.8584 109.539 20.5424 108.951 19.3664C108.461 20.5424 106.599 21.8584 104.499 22.2364L103.995 21.3404C106.053 21.1164 108.419 19.7164 108.419 17.9944V17.5464H109.525V17.9944C109.525 19.7164 112.143 21.1444 113.977 21.3124ZM104.625 25.7364H113.123V29.7124H112.059V26.6184H104.625V25.7364ZM129.222 23.5804H128.158V17.3924H129.222V23.5804ZM129.67 29.4604H121.298V26.3664H128.158V25.0924H121.256V24.2244H129.222V27.1924H122.362V28.5924H129.67V29.4604ZM122.74 17.7704C124.49 17.7704 125.904 18.8764 125.904 20.5424C125.904 22.1944 124.49 23.2724 122.74 23.2724C120.99 23.2724 119.548 22.2084 119.548 20.5424C119.548 18.8904 120.976 17.7704 122.74 17.7704ZM122.74 18.6944C121.536 18.6944 120.584 19.4364 120.584 20.5284C120.584 21.6204 121.522 22.3484 122.74 22.3484C124.014 22.3484 124.868 21.6204 124.868 20.5424C124.868 19.4504 124.014 18.6944 122.74 18.6944ZM141.434 27.3044C141.434 28.7324 139.95 29.6284 137.318 29.6284C134.7 29.6284 133.23 28.7324 133.23 27.3044C133.23 25.8624 134.7 24.9664 137.318 24.9664C139.95 24.9664 141.434 25.8624 141.434 27.3044ZM131.662 19.3104V18.4144H138.284V19.3104H135.526C135.526 19.5484 135.526 19.8284 135.54 19.9684C135.638 21.6344 137.206 22.9644 138.704 23.4124L138.074 24.2664C136.8 23.7624 135.484 22.6144 134.98 21.5084C134.644 22.6564 133.174 24.1264 131.858 24.7004L131.284 23.8464C132.824 23.2584 134.378 21.7044 134.434 19.9684C134.448 19.8284 134.448 19.5344 134.448 19.3104H131.662ZM137.318 25.8624C135.442 25.8624 134.308 26.3804 134.308 27.3044C134.308 28.2144 135.442 28.7324 137.318 28.7324C139.236 28.7324 140.342 28.2144 140.342 27.3044C140.342 26.3804 139.236 25.8624 137.318 25.8624ZM140.272 21.4664H137.808V20.5704H140.272V17.3924H141.336V24.9944H140.272V21.4664ZM154.499 23.5804H143.453V22.6844H154.499V23.5804ZM153.267 19.6884C153.267 21.0324 151.643 21.8024 148.983 21.8024C146.351 21.8024 144.727 21.0324 144.727 19.6884C144.727 18.3444 146.351 17.5604 148.983 17.5604C151.643 17.5604 153.267 18.3444 153.267 19.6884ZM148.983 18.4284C147.065 18.4284 145.819 18.9184 145.819 19.6884C145.819 20.4444 147.065 20.9204 148.983 20.9204C150.929 20.9204 152.189 20.4444 152.189 19.6884C152.189 18.9184 150.929 18.4284 148.983 18.4284ZM153.519 29.5164H144.741V26.6044H152.049V25.5264H144.713V24.6724H153.113V27.4164H145.805V28.6484H153.519V29.5164ZM159.846 20.8224V19.9404H166.79V20.8224H163.822V20.8644C163.822 22.2224 165.446 23.4264 167.056 23.7204L166.608 24.5744C165.306 24.2664 163.766 23.2864 163.276 22.2224C162.954 23.2584 161.47 24.4624 159.986 24.9244L159.482 24.0704C161.232 23.6224 162.73 22.2924 162.73 20.8504V20.8224H159.846ZM169.352 29.6284H168.288V17.3924H169.352V29.6284ZM167.588 26.9824C166.622 27.0804 164.746 27.2064 163.248 27.2904C161.89 27.3744 160.518 27.4164 159.482 27.4164L159.3 26.4784C160.238 26.4924 161.47 26.4784 162.772 26.4224V24.0004H163.836V26.3664C165.208 26.3104 166.72 26.2124 167.504 26.1004L167.588 26.9824ZM161.554 18.7784V17.8264H164.956V18.7784H161.554ZM181.171 27.4864C181.171 28.8304 179.617 29.6004 176.873 29.6004C174.143 29.6004 172.603 28.8164 172.603 27.4864C172.603 26.1844 174.143 25.4004 176.873 25.4004C179.617 25.4004 181.171 26.1284 181.171 27.4864ZM181.857 21.4804L181.367 22.3764C179.323 22.0404 177.489 20.9624 176.873 19.8424C176.397 20.9764 174.577 22.0684 172.421 22.3764L171.931 21.4944C173.821 21.3124 175.907 20.3464 176.271 18.9044H172.365V18.0224H181.395V18.9044H177.503C177.895 20.3604 180.149 21.3124 181.857 21.4804ZM176.873 26.2544C174.899 26.2544 173.681 26.7024 173.681 27.4864C173.681 28.2984 174.899 28.7324 176.873 28.7324C178.861 28.7324 180.093 28.2984 180.093 27.4864C180.093 26.7024 178.861 26.2544 176.873 26.2544ZM182.403 24.4064H171.357V23.5104H176.341V21.6624H177.405V23.5104H182.403V24.4064ZM194.82 24.9524C193.938 25.0504 192.468 25.2044 191.026 25.2744C189.64 25.3584 187.96 25.4284 187.106 25.4284L186.938 24.5464C187.82 24.5464 189.066 24.5184 190.312 24.4624V23.6364C189.024 23.5104 188.044 23.0204 188.044 22.0264C188.044 20.8924 189.318 20.3744 190.872 20.3744C192.426 20.3744 193.728 20.8784 193.728 22.0124C193.728 23.0064 192.706 23.5244 191.39 23.6364V24.4064C192.678 24.3504 194.008 24.2384 194.722 24.1264L194.82 24.9524ZM198.432 22.3484H196.584V25.5264H195.506V17.3924H196.584V21.4524H198.432V22.3484ZM188.562 26.1704H196.584V29.7124H195.506V27.0524H188.562V26.1704ZM194.4 19.9684H187.372V19.1004H194.4V19.9684ZM192.706 22.0124C192.706 21.4524 191.894 21.1724 190.872 21.1724C189.822 21.1724 189.052 21.4524 189.052 22.0124C189.052 22.6004 189.836 22.8664 190.872 22.8664C191.894 22.8664 192.706 22.5864 192.706 22.0124ZM192.566 18.4284H189.206V17.5464H192.566V18.4284ZM209.355 27.3044C209.355 28.7324 207.871 29.6284 205.239 29.6284C202.621 29.6284 201.151 28.7324 201.151 27.3044C201.151 25.8624 202.621 24.9664 205.239 24.9664C207.871 24.9664 209.355 25.8624 209.355 27.3044ZM199.583 19.3104V18.4144H206.205V19.3104H203.447C203.447 19.5484 203.447 19.8284 203.461 19.9684C203.559 21.6344 205.127 22.9644 206.625 23.4124L205.995 24.2664C204.721 23.7624 203.405 22.6144 202.901 21.5084C202.565 22.6564 201.095 24.1264 199.779 24.7004L199.205 23.8464C200.745 23.2584 202.299 21.7044 202.355 19.9684C202.369 19.8284 202.369 19.5344 202.369 19.3104H199.583ZM205.239 25.8624C203.363 25.8624 202.229 26.3804 202.229 27.3044C202.229 28.2144 203.363 28.7324 205.239 28.7324C207.157 28.7324 208.263 28.2144 208.263 27.3044C208.263 26.3804 207.157 25.8624 205.239 25.8624ZM208.193 21.4664H205.729V20.5704H208.193V17.3924H209.257V24.9944H208.193V21.4664ZM222.645 21.7464H220.783V24.4904H219.719V17.3924H220.783V20.8504H222.645V21.7464ZM220.783 29.5444H213.083V25.0924H214.147V26.3944H219.719V25.0784H220.783V29.5444ZM219.719 28.6484V27.2764H214.147V28.6484H219.719ZM216.653 18.4564H213.125V17.5604H216.653V18.4564ZM218.445 20.1784H211.319V19.3104H218.445V20.1784ZM217.731 22.6564C217.731 23.8604 216.541 24.6304 214.889 24.6304C213.223 24.6304 212.047 23.8604 212.047 22.6564C212.047 21.4244 213.195 20.6684 214.889 20.6684C216.541 20.6684 217.731 21.4244 217.731 22.6564ZM216.653 22.6564C216.653 21.9424 215.841 21.5224 214.889 21.5224C213.937 21.5224 213.097 21.9424 213.097 22.6564C213.097 23.3564 213.951 23.7904 214.889 23.7904C215.841 23.7904 216.653 23.3564 216.653 22.6564ZM233.4 17.3924V29.6284H232.35V17.3924H233.4ZM231.104 25.1344L231.202 26.0584C229.788 26.3804 226.596 26.6184 224.72 26.6184H224.174V18.6664H225.252V25.6804C226.82 25.6804 229.648 25.4564 231.104 25.1344ZM245.037 17.3924V22.2504H247.025V23.1464H245.037V29.6284H243.973V17.3924H245.037ZM237.155 25.7224H237.855C239.437 25.7224 241.859 25.5824 243.035 25.3304L243.147 26.2124C241.831 26.4644 239.409 26.6324 237.281 26.6324H236.077V18.6664H241.887V19.5624H237.155V25.7224ZM247.771 28.4104V27.1644H248.989V28.4104H247.771Z" fill="black"/>
</svg>
