<svg width="271" height="39" viewBox="0 0 271 39" fill="none" xmlns="http://www.w3.org/2000/svg">
<rect width="271" height="39" rx="19.5" transform="matrix(1 0 0 -1 0 39)" fill="#8E6FFF"/>
<path d="M108.539 14.528H111.099V16.272H108.539V14.528ZM108.539 17.744H111.099V19.488H108.539V17.744ZM107.067 12.608H109.195V21.344H107.067V12.608ZM99.3066 21.952H109.195V27.424H107.067V23.648H99.3066V21.952ZM101.659 13.408C103.947 13.408 105.691 14.928 105.691 17.04C105.691 19.152 103.947 20.656 101.659 20.656C99.3706 20.656 97.6266 19.152 97.6266 17.04C97.6266 14.928 99.3706 13.408 101.659 13.408ZM101.659 15.216C100.539 15.216 99.7066 15.872 99.7066 17.04C99.7066 18.208 100.539 18.88 101.659 18.88C102.779 18.88 103.611 18.208 103.611 17.04C103.611 15.872 102.779 15.216 101.659 15.216ZM112.249 19.792H125.657V21.488H112.249V19.792ZM117.865 17.872H119.977V20.528H117.865V17.872ZM117.833 12.864H119.657V13.312C119.657 16.048 117.481 18.192 113.705 18.736L112.921 17.072C116.249 16.672 117.833 14.976 117.833 13.312V12.864ZM118.185 12.864H120.009V13.312C120.009 15.04 121.561 16.672 124.921 17.072L124.137 18.736C120.361 18.176 118.185 16.112 118.185 13.312V12.864ZM113.737 22.528H124.025V27.424H121.897V24.192H113.737V22.528ZM131.025 13.824H138.081V20.976H131.025V13.824ZM135.985 15.504H133.121V19.296H135.985V15.504ZM140.129 12.608H142.257V23.408H140.129V12.608ZM141.649 16.88H144.225V18.624H141.649V16.88ZM132.705 25.472H142.785V27.168H132.705V25.472ZM132.705 22.352H134.833V26.32H132.705V22.352ZM145.328 18.352H158.736V20.032H145.328V18.352ZM146.976 15.888H157.152V17.552H146.976V15.888ZM146.976 12.88H157.024V14.576H149.088V17.328H146.976V12.88ZM146.848 20.864H157.088V24.784H148.96V26.064H146.864V23.28H154.992V22.464H146.848V20.864ZM146.864 25.68H157.472V27.312H146.864V25.68ZM170.239 12.608H172.383V27.424H170.239V12.608ZM165.871 14.144H167.983C167.983 18.672 166.447 22.384 161.183 24.928L160.079 23.232C164.335 21.184 165.871 18.496 165.871 14.528V14.144ZM160.863 14.144H166.879V15.824H160.863V14.144Z" fill="white"/>
</svg>
