<svg width="84" height="50" viewBox="0 0 84 50" fill="none" xmlns="http://www.w3.org/2000/svg">
<g filter="url(#filter0_d_2462_872)">
<rect x="10" y="9" width="217" height="30" rx="9" fill="white"/>
<path d="M60.824 24.59H61.986V27.74H60.824V24.59ZM61.412 18.262C64.086 18.262 66.004 19.564 66.004 21.58C66.004 23.596 64.086 24.898 61.412 24.898C58.738 24.898 56.806 23.596 56.806 21.58C56.806 19.564 58.738 18.262 61.412 18.262ZM61.412 19.186C59.396 19.186 57.926 20.138 57.926 21.58C57.926 23.022 59.396 23.974 61.412 23.974C63.414 23.974 64.884 23.022 64.884 21.58C64.884 20.138 63.414 19.186 61.412 19.186ZM55.7 27.516H67.166V28.482H55.7V27.516ZM69.1669 18.878H79.3449V19.816H69.1669V18.878ZM68.5789 25.64H80.0449V26.592H68.5789V25.64ZM73.7029 26.41H74.8649V30.106H73.7029V26.41ZM74.2909 20.544C76.8669 20.544 78.3929 21.3 78.3929 22.658C78.3929 24.002 76.8669 24.772 74.2909 24.772C71.7009 24.772 70.1749 24.002 70.1749 22.658C70.1749 21.3 71.7009 20.544 74.2909 20.544ZM74.2909 21.44C72.4429 21.44 71.3789 21.874 71.3789 22.658C71.3789 23.442 72.4429 23.876 74.2909 23.876C76.1389 23.876 77.2029 23.442 77.2029 22.658C77.2029 21.874 76.1389 21.44 74.2909 21.44ZM73.7029 17.366H74.8649V19.508H73.7029V17.366ZM82.1896 23.9091C82.1896 22.6629 82.3537 21.5161 82.6818 20.4688C83.0099 19.4214 83.4889 18.4553 84.1186 17.5703H85.4808C85.2356 17.8984 85.0069 18.3011 84.7947 18.7784C84.5826 19.2557 84.397 19.7794 84.2379 20.3494C84.0788 20.9162 83.9545 21.5045 83.8651 22.1143C83.7756 22.7209 83.7308 23.3191 83.7308 23.9091C83.7308 24.6979 83.8087 25.4967 83.9645 26.3054C84.1203 27.1141 84.3307 27.8648 84.5959 28.5575C84.861 29.2502 85.156 29.8153 85.4808 30.2528H84.1186C83.4889 29.3679 83.0099 28.4018 82.6818 27.3544C82.3537 26.3071 82.1896 25.1586 82.1896 23.9091ZM90.8912 18.8182V29H89.35V20.3594H89.2903L86.8542 21.9503V20.4787L89.3947 18.8182H90.8912ZM93.6454 29V27.8864L97.0907 24.3168C97.4586 23.929 97.7619 23.5893 98.0005 23.2976C98.2425 23.0026 98.4231 22.7225 98.5424 22.4574C98.6618 22.1922 98.7214 21.9105 98.7214 21.6122C98.7214 21.2741 98.6419 20.9825 98.4828 20.7372C98.3237 20.4886 98.1066 20.2981 97.8315 20.1655C97.5564 20.0296 97.2465 19.9616 96.9018 19.9616C96.5372 19.9616 96.219 20.0362 95.9473 20.1854C95.6755 20.3345 95.4667 20.545 95.3208 20.8168C95.175 21.0885 95.1021 21.4067 95.1021 21.7713H93.6355C93.6355 21.1515 93.778 20.6096 94.063 20.1456C94.3481 19.6816 94.7392 19.322 95.2363 19.0668C95.7335 18.8082 96.2986 18.679 96.9316 18.679C97.5713 18.679 98.1348 18.8066 98.622 19.0618C99.1125 19.3137 99.4953 19.6584 99.7704 20.0959C100.046 20.5301 100.183 21.0206 100.183 21.5675C100.183 21.9453 100.112 22.3149 99.9693 22.6761C99.8301 23.0374 99.5865 23.4401 99.2385 23.8842C98.8904 24.325 98.4065 24.8603 97.7868 25.4901L95.7633 27.608V27.6825H100.347V29H93.6454ZM103.231 27.7372C102.959 27.7372 102.725 27.6411 102.53 27.4489C102.334 27.2533 102.236 27.018 102.236 26.7429C102.236 26.4711 102.334 26.2391 102.53 26.0469C102.725 25.8513 102.959 25.7536 103.231 25.7536C103.502 25.7536 103.736 25.8513 103.932 26.0469C104.127 26.2391 104.225 26.4711 104.225 26.7429C104.225 26.9252 104.179 27.0926 104.086 27.245C103.996 27.3942 103.877 27.5135 103.728 27.603C103.579 27.6925 103.413 27.7372 103.231 27.7372ZM103.231 22.6364C102.959 22.6364 102.725 22.5402 102.53 22.348C102.334 22.1525 102.236 21.9171 102.236 21.642C102.236 21.3703 102.334 21.1383 102.53 20.946C102.725 20.7505 102.959 20.6527 103.231 20.6527C103.502 20.6527 103.736 20.7505 103.932 20.946C104.127 21.1383 104.225 21.3703 104.225 21.642C104.225 21.8243 104.179 21.9917 104.086 22.1442C103.996 22.2933 103.877 22.4126 103.728 22.5021C103.579 22.5916 103.413 22.6364 103.231 22.6364ZM109.741 29.169C108.955 29.1657 108.284 28.9586 107.727 28.5476C107.171 28.1366 106.745 27.5384 106.45 26.7528C106.155 25.9673 106.007 25.0211 106.007 23.9141C106.007 22.8104 106.155 21.8674 106.45 21.0852C106.748 20.303 107.176 19.7064 107.732 19.2955C108.293 18.8845 108.962 18.679 109.741 18.679C110.52 18.679 111.188 18.8861 111.744 19.3004C112.301 19.7114 112.727 20.308 113.022 21.0902C113.32 21.8691 113.47 22.8104 113.47 23.9141C113.47 25.0244 113.322 25.9723 113.027 26.7578C112.732 27.54 112.306 28.1383 111.749 28.5526C111.193 28.9635 110.523 29.169 109.741 29.169ZM109.741 27.8416C110.43 27.8416 110.969 27.5052 111.357 26.8324C111.748 26.1596 111.943 25.1868 111.943 23.9141C111.943 23.0689 111.854 22.3546 111.675 21.7713C111.499 21.1847 111.246 20.7405 110.914 20.4389C110.586 20.134 110.195 19.9815 109.741 19.9815C109.055 19.9815 108.516 20.3196 108.125 20.9957C107.734 21.6719 107.537 22.6446 107.534 23.9141C107.534 24.7625 107.621 25.4801 107.797 26.0668C107.976 26.6501 108.23 27.0926 108.558 27.3942C108.886 27.6925 109.28 27.8416 109.741 27.8416ZM118.778 29.169C117.993 29.1657 117.321 28.9586 116.765 28.5476C116.208 28.1366 115.782 27.5384 115.487 26.7528C115.192 25.9673 115.044 25.0211 115.044 23.9141C115.044 22.8104 115.192 21.8674 115.487 21.0852C115.785 20.303 116.213 19.7064 116.77 19.2955C117.33 18.8845 117.999 18.679 118.778 18.679C119.557 18.679 120.225 18.8861 120.782 19.3004C121.338 19.7114 121.764 20.308 122.059 21.0902C122.358 21.8691 122.507 22.8104 122.507 23.9141C122.507 25.0244 122.359 25.9723 122.064 26.7578C121.769 27.54 121.343 28.1383 120.787 28.5526C120.23 28.9635 119.56 29.169 118.778 29.169ZM118.778 27.8416C119.467 27.8416 120.006 27.5052 120.394 26.8324C120.785 26.1596 120.98 25.1868 120.98 23.9141C120.98 23.0689 120.891 22.3546 120.712 21.7713C120.536 21.1847 120.283 20.7405 119.951 20.4389C119.623 20.134 119.232 19.9815 118.778 19.9815C118.092 19.9815 117.553 20.3196 117.162 20.9957C116.771 21.6719 116.574 22.6446 116.571 23.9141C116.571 24.7625 116.658 25.4801 116.834 26.0668C117.013 26.6501 117.267 27.0926 117.595 27.3942C117.923 27.6925 118.317 27.8416 118.778 27.8416ZM128.12 25.0327C128.106 24.4593 128.191 23.9886 128.373 23.6207C128.559 23.2528 128.807 22.9811 129.119 22.8054C129.431 22.6264 129.774 22.5369 130.148 22.5369C130.48 22.5369 130.786 22.6082 131.068 22.7507C131.35 22.8899 131.671 23.1186 132.032 23.4368C132.258 23.6323 132.442 23.7749 132.584 23.8643C132.727 23.9505 132.886 23.9936 133.061 23.9936C133.33 23.9936 133.544 23.8942 133.703 23.6953C133.865 23.4931 133.943 23.1948 133.936 22.8004H135.194C135.208 23.3771 135.121 23.8494 134.936 24.2173C134.753 24.5852 134.505 24.857 134.19 25.0327C133.878 25.2083 133.537 25.2962 133.166 25.2962C132.831 25.2962 132.523 25.2249 132.241 25.0824C131.959 24.9366 131.64 24.7079 131.282 24.3963C131.05 24.1941 130.864 24.0516 130.725 23.9688C130.586 23.8826 130.428 23.8395 130.252 23.8395C129.997 23.8395 129.785 23.9323 129.616 24.1179C129.45 24.3002 129.371 24.6051 129.377 25.0327H128.12ZM144.868 18.8182V29H143.327V20.3594H143.267L140.831 21.9503V20.4787L143.371 18.8182H144.868ZM147.965 29L152.41 20.2102V20.1357H147.269V18.8182H154.001V20.1804L149.571 29H147.965ZM156.25 27.7372C155.978 27.7372 155.745 27.6411 155.549 27.4489C155.354 27.2533 155.256 27.018 155.256 26.7429C155.256 26.4711 155.354 26.2391 155.549 26.0469C155.745 25.8513 155.978 25.7536 156.25 25.7536C156.522 25.7536 156.756 25.8513 156.951 26.0469C157.147 26.2391 157.244 26.4711 157.244 26.7429C157.244 26.9252 157.198 27.0926 157.105 27.245C157.016 27.3942 156.896 27.5135 156.747 27.603C156.598 27.6925 156.432 27.7372 156.25 27.7372ZM156.25 22.6364C155.978 22.6364 155.745 22.5402 155.549 22.348C155.354 22.1525 155.256 21.9171 155.256 21.642C155.256 21.3703 155.354 21.1383 155.549 20.946C155.745 20.7505 155.978 20.6527 156.25 20.6527C156.522 20.6527 156.756 20.7505 156.951 20.946C157.147 21.1383 157.244 21.3703 157.244 21.642C157.244 21.8243 157.198 21.9917 157.105 22.1442C157.016 22.2933 156.896 22.4126 156.747 22.5021C156.598 22.5916 156.432 22.6364 156.25 22.6364ZM162.577 29.1392C161.953 29.1392 161.393 29.0199 160.896 28.7812C160.402 28.5393 160.008 28.2079 159.713 27.7869C159.418 27.366 159.26 26.8854 159.241 26.3452H160.732C160.769 26.7827 160.962 27.1423 161.314 27.424C161.665 27.7057 162.086 27.8466 162.577 27.8466C162.968 27.8466 163.314 27.7571 163.616 27.5781C163.921 27.3958 164.159 27.1456 164.331 26.8274C164.507 26.5092 164.595 26.1463 164.595 25.7386C164.595 25.3243 164.506 24.9548 164.327 24.63C164.148 24.3052 163.901 24.05 163.586 23.8643C163.274 23.6787 162.916 23.5843 162.512 23.581C162.204 23.581 161.894 23.634 161.582 23.7401C161.271 23.8461 161.019 23.9853 160.827 24.1577L159.42 23.9489L159.991 18.8182H165.589V20.1357H161.269L160.946 22.9844H161.006C161.204 22.7921 161.468 22.6314 161.796 22.5021C162.127 22.3729 162.482 22.3082 162.86 22.3082C163.48 22.3082 164.032 22.4557 164.515 22.7507C165.003 23.0457 165.385 23.4484 165.664 23.9588C165.946 24.4659 166.085 25.0492 166.081 25.7088C166.085 26.3684 165.936 26.9567 165.634 27.4737C165.336 27.9908 164.921 28.3984 164.391 28.6967C163.864 28.9917 163.259 29.1392 162.577 29.1392ZM171.283 18.679C171.737 18.6823 172.185 18.7652 172.625 18.9276C173.066 19.09 173.464 19.3551 173.819 19.723C174.176 20.0909 174.462 20.5881 174.674 21.2145C174.889 21.8376 174.998 22.6132 175.002 23.5412C175.002 24.4328 174.912 25.2266 174.733 25.9226C174.554 26.6153 174.297 27.2003 173.963 27.6776C173.631 28.1548 173.229 28.5178 172.755 28.7663C172.281 29.0149 171.747 29.1392 171.154 29.1392C170.547 29.1392 170.009 29.0199 169.538 28.7812C169.067 28.5426 168.685 28.2128 168.39 27.7919C168.095 27.3677 167.911 26.8804 167.838 26.3303H169.354C169.453 26.7678 169.656 27.1224 169.961 27.3942C170.269 27.6626 170.667 27.7969 171.154 27.7969C171.9 27.7969 172.481 27.4721 172.899 26.8224C173.316 26.1695 173.527 25.258 173.53 24.0881H173.451C173.278 24.3731 173.063 24.6184 172.804 24.8239C172.549 25.0294 172.262 25.1884 171.944 25.3011C171.626 25.4138 171.286 25.4702 170.925 25.4702C170.338 25.4702 169.805 25.326 169.324 25.0376C168.844 24.7493 168.461 24.3532 168.176 23.8494C167.891 23.3456 167.748 22.7706 167.748 22.1243C167.748 21.4813 167.894 20.898 168.186 20.3743C168.481 19.8506 168.892 19.4363 169.419 19.1314C169.949 18.8232 170.57 18.6723 171.283 18.679ZM171.288 19.9716C170.9 19.9716 170.551 20.0677 170.239 20.2599C169.931 20.4489 169.687 20.7057 169.508 21.0305C169.329 21.352 169.24 21.71 169.24 22.1044C169.24 22.4988 169.326 22.8568 169.498 23.1783C169.674 23.4964 169.913 23.75 170.214 23.9389C170.519 24.1245 170.867 24.2173 171.258 24.2173C171.55 24.2173 171.822 24.161 172.074 24.0483C172.325 23.9356 172.546 23.7798 172.735 23.581C172.924 23.3788 173.071 23.1501 173.177 22.8949C173.283 22.6397 173.336 22.3712 173.336 22.0895C173.336 21.715 173.247 21.367 173.068 21.0455C172.892 20.724 172.65 20.4654 172.342 20.2699C172.034 20.071 171.682 19.9716 171.288 19.9716ZM179.676 23.9091C179.676 25.1586 179.512 26.3071 179.184 27.3544C178.856 28.4018 178.377 29.3679 177.747 30.2528H176.385C176.63 29.9247 176.859 29.522 177.071 29.0447C177.283 28.5675 177.469 28.0455 177.628 27.4787C177.787 26.9086 177.911 26.3187 178.001 25.7088C178.09 25.099 178.135 24.4991 178.135 23.9091C178.135 23.1236 178.057 22.3265 177.901 21.5178C177.746 20.709 177.535 19.9583 177.27 19.2656C177.005 18.5729 176.71 18.0078 176.385 17.5703H177.747C178.377 18.4553 178.856 19.4214 179.184 20.4688C179.512 21.5161 179.676 22.6629 179.676 23.9091Z" fill="black"/>
<rect x="10.6" y="9.6" width="215.8" height="28.8" rx="8.4" stroke="#6041FF" stroke-width="1.2"/>
</g>
<defs>
<filter id="filter0_d_2462_872" x="0" y="0" width="237" height="50" filterUnits="userSpaceOnUse" color-interpolation-filters="sRGB">
<feFlood flood-opacity="0" result="BackgroundImageFix"/>
<feColorMatrix in="SourceAlpha" type="matrix" values="0 0 0 0 0 0 0 0 0 0 0 0 0 0 0 0 0 0 127 0" result="hardAlpha"/>
<feOffset dy="1"/>
<feGaussianBlur stdDeviation="5"/>
<feComposite in2="hardAlpha" operator="out"/>
<feColorMatrix type="matrix" values="0 0 0 0 0 0 0 0 0 0 0 0 0 0 0 0 0 0 0.15 0"/>
<feBlend mode="normal" in2="BackgroundImageFix" result="effect1_dropShadow_2462_872"/>
<feBlend mode="normal" in="SourceGraphic" in2="effect1_dropShadow_2462_872" result="shape"/>
</filter>
</defs>
</svg>
