<svg width="30" height="30" viewBox="0 0 30 30" fill="none" xmlns="http://www.w3.org/2000/svg">
<mask id="mask0_928_2296" style="mask-type:alpha" maskUnits="userSpaceOnUse" x="0" y="0" width="30" height="30">
<rect width="30" height="30" fill="#D9D9D9"/>
</mask>
<g mask="url(#mask0_928_2296)">
<path d="M5.00098 23.75V21.25H7.50098V12.5C7.50098 10.7708 8.02181 9.23438 9.06348 7.89062C10.1051 6.54687 11.4593 5.66667 13.126 5.25V4.375C13.126 3.85417 13.3083 3.41146 13.6729 3.04688C14.0374 2.68229 14.4801 2.5 15.001 2.5C15.5218 2.5 15.9645 2.68229 16.3291 3.04688C16.6937 3.41146 16.876 3.85417 16.876 4.375V5.25C18.5426 5.66667 19.8968 6.54687 20.9385 7.89062C21.9801 9.23438 22.501 10.7708 22.501 12.5V21.25H25.001V23.75H5.00098ZM15.001 27.5C14.3135 27.5 13.7249 27.2552 13.2354 26.7656C12.7458 26.276 12.501 25.6875 12.501 25H17.501C17.501 25.6875 17.2562 26.276 16.7666 26.7656C16.277 27.2552 15.6885 27.5 15.001 27.5ZM10.001 21.25H20.001V12.5C20.001 11.125 19.5114 9.94792 18.5322 8.96875C17.5531 7.98958 16.376 7.5 15.001 7.5C13.626 7.5 12.4489 7.98958 11.4697 8.96875C10.4906 9.94792 10.001 11.125 10.001 12.5V21.25Z" fill="#1C1B1F"/>
</g>
</svg>
