<svg width="25" height="25" viewBox="0 0 25 25" fill="none" xmlns="http://www.w3.org/2000/svg">
<path d="M7.918 19.433H17.198V16.968H11.572C12.4807 16.2333 13.2637 15.576 13.921 14.996C14.5783 14.3967 15.139 13.836 15.603 13.314C16.183 12.618 16.618 11.9413 16.908 11.284C17.198 10.6267 17.343 9.95 17.343 9.254C17.343 7.95867 16.9273 6.95333 16.096 6.238C15.284 5.52267 14.2013 5.165 12.848 5.165C11.9393 5.165 11.1177 5.32933 10.383 5.658C9.66767 5.96733 9.09733 6.47 8.672 7.166C8.24667 7.84267 8.02433 8.71267 8.005 9.776H10.847C10.847 9.06067 11.0017 8.529 11.311 8.181C11.6397 7.81367 12.1133 7.63 12.732 7.63C13.312 7.63 13.747 7.78467 14.037 8.094C14.3463 8.40333 14.501 8.82867 14.501 9.37C14.501 9.85333 14.3657 10.327 14.095 10.791C13.8437 11.2357 13.4667 11.719 12.964 12.241C12.4807 12.7243 11.8137 13.343 10.963 14.097C10.1317 14.8317 9.11667 15.7017 7.918 16.707V19.433ZM12.5 24.595C10.8567 24.595 9.31 24.2857 7.86 23.667C6.41 23.0483 5.134 22.1977 4.032 21.115C2.94933 20.013 2.09867 18.737 1.48 17.287C0.861334 15.837 0.552 14.2903 0.552 12.647C0.552 11.0037 0.861334 9.46667 1.48 8.036C2.09867 6.586 2.94933 5.31 4.032 4.208C5.134 3.106 6.41 2.24567 7.86 1.627C9.31 1.00833 10.8567 0.698998 12.5 0.698998C14.1627 0.698998 15.7093 1.00833 17.14 1.627C18.59 2.24567 19.8563 3.106 20.939 4.208C22.041 5.31 22.9013 6.586 23.52 8.036C24.1387 9.46667 24.448 11.0037 24.448 12.647C24.448 14.2903 24.1387 15.837 23.52 17.287C22.9013 18.737 22.041 20.013 20.939 21.115C19.8563 22.1977 18.59 23.0483 17.14 23.667C15.7093 24.2857 14.1627 24.595 12.5 24.595Z" fill="black"/>
</svg>
