<svg width="206" height="46" viewBox="0 0 206 46" fill="none" xmlns="http://www.w3.org/2000/svg">
<path d="M14.2818 0.26H16.9018V18.78H14.2818V0.26ZM15.4618 7.1H18.7218V9.28H15.4618V7.1ZM1.7418 1.94H3.9218V6.2H5.0218V1.94H7.1618V14.5H1.7418V1.94ZM3.9218 8.28V12.36H5.0218V8.28H3.9218ZM7.8818 1.94H10.0218V6.2H11.1418V1.94H13.3218V14.5H7.8818V1.94ZM10.0218 8.28V12.36H11.1418V8.28H10.0218ZM20.0602 14.52H36.8202V16.7H20.0602V14.52ZM21.9402 1.5H34.9402V7.68H24.6202V10.78H21.9802V5.6H32.3002V3.62H21.9402V1.5ZM21.9802 9.74H35.3602V11.86H21.9802V9.74ZM40.1587 1.82H51.8987V3.96H40.1587V1.82ZM38.4587 14.4H55.1987V16.56H38.4587V14.4ZM44.3787 8.04H47.0387V15.46H44.3787V8.04ZM50.9387 1.82H53.5987V3.6C53.5987 5.92 53.5987 8.52 52.8587 12.48L50.1987 12.18C50.9387 8.5 50.9387 5.82 50.9387 3.6V1.82ZM60.3766 15.0114L60.2843 15.7926C60.218 16.3892 60.0996 16.9953 59.9292 17.6108C59.7634 18.2311 59.5882 18.8016 59.4036 19.3224C59.2189 19.8433 59.0698 20.2528 58.9561 20.5511H57.2232C57.2895 20.2623 57.3794 19.8693 57.4931 19.3722C57.6114 18.875 57.7251 18.3163 57.834 17.696C57.9429 17.0758 58.0163 16.446 58.0542 15.8068L58.1039 15.0114H60.3766ZM80.0873 0.26H82.7473V13.9H80.0873V0.26ZM67.7073 1.58H77.4873V3.7H67.7073V1.58ZM67.5073 11.7L67.2473 9.52C70.2273 9.52 74.3873 9.48 77.7273 9.1L77.8673 11.04C74.4273 11.62 70.4473 11.7 67.5073 11.7ZM69.1673 3.44H71.7273V9.78H69.1673V3.44ZM73.4673 3.44H76.0073V9.78H73.4673V3.44ZM77.8473 3.5H81.5273V5.62H77.8473V3.5ZM77.8473 7.22H81.5273V9.36H77.8473V7.22ZM70.5073 16.34H83.1673V18.46H70.5073V16.34ZM70.5073 12.9H73.1873V17.94H70.5073V12.9ZM98.4057 0.239999H101.066V18.82H98.4057V0.239999ZM86.6457 12.34H88.2857C91.5657 12.34 94.1857 12.22 97.1257 11.72L97.3857 13.86C94.3857 14.4 91.6657 14.5 88.2857 14.5H86.6457V12.34ZM86.6257 1.82H95.3657V8.98H89.3457V13.14H86.6457V6.88H92.6457V3.94H86.6257V1.82ZM115.964 0.279999H118.624V14.12H115.964V0.279999ZM117.864 5.92H121.084V8.1H117.864V5.92ZM104.044 2.2H114.944V4.28H104.044V2.2ZM109.504 4.94C112.164 4.94 114.044 6.4 114.044 8.52C114.044 10.64 112.164 12.08 109.504 12.08C106.824 12.08 104.944 10.64 104.944 8.52C104.944 6.4 106.824 4.94 109.504 4.94ZM109.504 6.96C108.324 6.96 107.504 7.52 107.504 8.52C107.504 9.52 108.324 10.06 109.504 10.06C110.684 10.06 111.504 9.52 111.504 8.52C111.504 7.52 110.684 6.96 109.504 6.96ZM108.164 0.239999H110.824V3.22H108.164V0.239999ZM106.684 16.34H119.284V18.46H106.684V16.34ZM106.684 13.08H109.344V17.26H106.684V13.08ZM141.164 2.66H144.364V4.84H141.164V2.66ZM141.164 6.68H144.364V8.86H141.164V6.68ZM139.324 0.26H141.984V11.18H139.324V0.26ZM129.624 11.94H141.984V18.78H139.324V14.06H129.624V11.94ZM132.564 1.26C135.424 1.26 137.604 3.16 137.604 5.8C137.604 8.44 135.424 10.32 132.564 10.32C129.704 10.32 127.524 8.44 127.524 5.8C127.524 3.16 129.704 1.26 132.564 1.26ZM132.564 3.52C131.164 3.52 130.124 4.34 130.124 5.8C130.124 7.26 131.164 8.1 132.564 8.1C133.964 8.1 135.004 7.26 135.004 5.8C135.004 4.34 133.964 3.52 132.564 3.52ZM145.802 9.24H162.562V11.36H145.802V9.24ZM152.822 6.84H155.462V10.16H152.822V6.84ZM152.782 0.579999H155.062V1.14C155.062 4.56 152.342 7.24 147.622 7.92L146.642 5.84C150.802 5.34 152.782 3.22 152.782 1.14V0.579999ZM153.222 0.579999H155.502V1.14C155.502 3.3 157.442 5.34 161.642 5.84L160.662 7.92C155.942 7.22 153.222 4.64 153.222 1.14V0.579999ZM147.662 12.66H160.522V18.78H157.862V14.74H147.662V12.66ZM173.241 1.98H175.401V3.16C175.401 6.54 173.741 9.56 170.141 10.66L168.841 8.56C171.921 7.62 173.241 5.38 173.241 3.16V1.98ZM173.761 1.98H175.941V3.14C175.941 5.2 177.201 7.32 180.201 8.2L178.961 10.26C175.421 9.24 173.761 6.34 173.761 3.14V1.98ZM169.541 1.26H179.561V3.38H169.541V1.26ZM181.081 0.26H183.741V10.48H181.081V0.26ZM183.001 4.18H186.201V6.36H183.001V4.18ZM171.641 11.22H174.281V12.86H181.101V11.22H183.741V18.58H171.641V11.22ZM174.281 14.9V16.48H181.101V14.9H174.281ZM200.32 0.26H203V18.78H200.32V0.26ZM194.86 2.18H197.5C197.5 7.84 195.58 12.48 189 15.66L187.62 13.54C192.94 10.98 194.86 7.62 194.86 2.66V2.18ZM188.6 2.18H196.12V4.28H188.6V2.18ZM1.58813 27.76H15.3881V29.74H1.58813V27.76ZM1.72813 32.1H15.2481V34.08H1.72813V32.1ZM3.94813 28.54H6.60813V33.38H3.94813V28.54ZM10.3681 28.54H13.0281V33.38H10.3681V28.54ZM0.128125 35.04H16.8681V37.12H0.128125V35.04ZM2.04813 38.14H14.8481V42.74H4.68813V44.46H2.06813V40.96H12.2281V40.04H2.04813V38.14ZM2.06813 43.72H15.3281V45.66H2.06813V43.72ZM19.0266 39.5H20.3266C22.5266 39.5 24.4666 39.46 26.7466 39.1L26.9466 41.24C24.5866 41.64 22.5866 41.7 20.3266 41.7H19.0266V39.5ZM19.0066 29.06H26.0266V36.22H21.6066V40.3H19.0266V34.12H23.4466V31.18H19.0066V29.06ZM31.9066 27.26H34.4266V45.78H31.9066V27.26ZM29.4266 34.26H32.5066V36.38H29.4266V34.26ZM27.7666 27.58H30.2266V44.9H27.7666V27.58ZM38.645 28.96H50.385V31.06H38.645V28.96ZM36.945 41.2H53.685V43.36H36.945V41.2ZM48.985 28.96H51.625V31.16C51.625 33.76 51.625 36.28 50.965 40.08L48.305 39.86C48.985 36.3 48.985 33.66 48.985 31.16V28.96ZM62.7234 34.08H65.7634V36.22H62.7234V34.08ZM68.7034 27.26H71.2434V45.78H68.7034V27.26ZM64.9234 27.54H67.4234V44.94H64.9234V27.54ZM59.4834 28.56C61.9434 28.56 63.5234 31.1 63.5234 35.28C63.5234 39.48 61.9434 42.02 59.4834 42.02C57.0434 42.02 55.4834 39.48 55.4834 35.28C55.4834 31.1 57.0434 28.56 59.4834 28.56ZM59.4834 31.06C58.4834 31.06 57.9034 32.46 57.9034 35.28C57.9034 38.12 58.4834 39.5 59.4834 39.5C60.5234 39.5 61.1034 38.12 61.1034 35.28C61.1034 32.46 60.5234 31.06 59.4834 31.06ZM83.0619 33.04H87.9419V35.18H83.0619V33.04ZM78.0219 28.68H80.1819V31.36C80.1819 36.02 78.6019 40.32 75.1219 42.06L73.4619 39.92C76.6219 38.46 78.0219 34.88 78.0219 31.36V28.68ZM78.5819 28.68H80.7019V31.36C80.7019 34.88 82.0419 38.26 85.1019 39.62L83.5219 41.74C80.0419 40.06 78.5819 35.98 78.5819 31.36V28.68ZM86.6219 27.24H89.2619V45.82H86.6219V27.24ZM106.001 30.18H110.341V32.3H106.001V30.18ZM105.861 34.02H110.201V36.14H105.861V34.02ZM109.921 27.26H112.581V37.92H109.921V27.26ZM103.881 28.52H106.721C106.721 33.56 103.881 36.8 98.2613 38.34L97.2213 36.24C101.921 35.02 103.881 32.7 103.881 29.8V28.52ZM98.2413 28.52H105.741V30.64H98.2413V28.52ZM106.441 38.16C110.201 38.16 112.701 39.6 112.701 41.92C112.701 44.24 110.201 45.7 106.441 45.7C102.681 45.7 100.181 44.24 100.181 41.92C100.181 39.6 102.681 38.16 106.441 38.16ZM106.441 40.2C104.181 40.2 102.821 40.78 102.821 41.92C102.821 43.06 104.181 43.62 106.441 43.62C108.721 43.62 110.081 43.06 110.081 41.92C110.081 40.78 108.721 40.2 106.441 40.2ZM128.32 27.26H130.98V38.44H128.32V27.26ZM126 32.68H129.4V34.84H126V32.68ZM118.64 39.22H130.98V45.58H118.64V39.22ZM128.38 41.32H121.26V43.48H128.38V41.32ZM115.54 28.86H126.36V30.96H115.54V28.86ZM120.96 31.56C123.54 31.56 125.38 32.94 125.38 34.9C125.38 36.88 123.54 38.22 120.96 38.22C118.38 38.22 116.52 36.88 116.52 34.9C116.52 32.94 118.38 31.56 120.96 31.56ZM120.96 33.54C119.82 33.54 119.06 34 119.06 34.9C119.06 35.8 119.82 36.28 120.96 36.28C122.08 36.28 122.84 35.8 122.84 34.9C122.84 34 122.08 33.54 120.96 33.54ZM119.62 27.1H122.28V30.36H119.62V27.1ZM133.858 30.04H142.718V32.16H133.858V30.04ZM138.318 32.98C140.678 32.98 142.378 34.8 142.378 37.4C142.378 39.98 140.678 41.8 138.318 41.8C135.978 41.8 134.258 39.98 134.258 37.4C134.258 34.8 135.978 32.98 138.318 32.98ZM138.318 35.2C137.318 35.2 136.618 36 136.618 37.4C136.618 38.8 137.318 39.58 138.318 39.58C139.318 39.58 140.038 38.8 140.038 37.4C140.038 36 139.318 35.2 138.318 35.2ZM147.258 27.26H149.798V45.78H147.258V27.26ZM145.038 34.78H148.098V36.92H145.038V34.78ZM143.378 27.6H145.858V45H143.378V27.6ZM137.018 27.76H139.638V31.38H137.018V27.76ZM152.297 41.48H169.057V43.64H152.297V41.48ZM159.317 37.52H161.977V42H159.317V37.52ZM154.057 28.44H156.697V31.28H164.597V28.44H167.237V38.08H154.057V28.44ZM156.697 33.36V35.96H164.597V33.36H156.697ZM177.975 33.48H181.035V35.64H177.975V33.48ZM174.015 28.86H176.055V31.98C176.055 36.18 174.895 40.28 171.935 42.1L170.335 40.1C173.055 38.42 174.015 35.12 174.015 31.98V28.86ZM174.595 28.86H176.595V31.86C176.595 34.88 177.375 37.96 179.895 39.6L178.455 41.68C175.515 39.86 174.595 35.86 174.595 31.86V28.86ZM184.055 27.26H186.595V45.78H184.055V27.26ZM180.295 27.54H182.775V44.94H180.295V27.54ZM192.773 36.66H195.413V41.86H192.773V36.66ZM199.493 36.66H202.153V41.86H199.493V36.66ZM189.093 41.48H205.853V43.64H189.093V41.48ZM197.453 28.16C201.433 28.16 204.373 30.12 204.373 33.14C204.373 36.16 201.433 38.1 197.453 38.1C193.453 38.1 190.533 36.16 190.533 33.14C190.533 30.12 193.453 28.16 197.453 28.16ZM197.453 30.24C194.873 30.24 193.153 31.3 193.153 33.14C193.153 34.96 194.873 36.04 197.453 36.04C200.033 36.04 201.753 34.96 201.753 33.14C201.753 31.3 200.033 30.24 197.453 30.24Z" fill="black"/>
</svg>
