<svg width="125" height="22" viewBox="0 0 125 22" fill="none" xmlns="http://www.w3.org/2000/svg">
<path d="M5.852 2.148H8.228V5.118C8.228 10.354 6.424 15.084 2.376 16.954L0.638 14.534C4.18 12.994 5.852 9.078 5.852 5.118V2.148ZM6.424 2.148H8.8V5.118C8.8 8.88 10.406 12.62 13.882 14.116L12.166 16.47C8.228 14.666 6.424 10.134 6.424 5.118V2.148ZM14.85 0.563999H17.798V21.002H14.85V0.563999ZM34.2083 0.586H37.1563V15.172H34.2083V0.586ZM36.3203 6.262H39.8623V8.66H36.3203V6.262ZM28.5323 2.104H31.6563C31.6563 7.648 28.2683 11.454 22.1963 13.214L20.9643 10.882C25.9583 9.518 28.5323 6.79 28.5323 3.556V2.104ZM21.8443 2.104H30.1163V4.458H21.8443V2.104ZM23.9783 18.274H37.8383V20.606H23.9783V18.274ZM23.9783 13.698H26.9263V19.308H23.9783V13.698ZM46.8356 9.892H65.2716V12.268H46.8356V9.892ZM49.0576 6.174H63.1816V8.484H49.0576V6.174ZM49.0576 1.136H63.0716V3.468H51.9616V7.318H49.0576V1.136ZM55.9876 13.478C60.3876 13.478 63.0496 14.82 63.0496 17.218C63.0496 19.616 60.3876 20.958 55.9876 20.958C51.5876 20.958 48.9036 19.616 48.9036 17.218C48.9036 14.82 51.5876 13.478 55.9876 13.478ZM55.9876 15.678C53.2596 15.678 51.8736 16.184 51.8736 17.218C51.8736 18.274 53.2596 18.736 55.9876 18.736C58.7156 18.736 60.1016 18.274 60.1016 17.218C60.1016 16.184 58.7156 15.678 55.9876 15.678ZM67.0519 11.498H85.5099V13.83H67.0519V11.498ZM69.3179 0.981999H83.2659V6.504H72.2439V8.704H69.3399V4.436H80.3839V3.204H69.3179V0.981999ZM69.3399 7.824H83.6619V10.046H69.3399V7.824ZM74.8179 8.902H77.7439V12.774H74.8179V8.902ZM69.0979 14.974H83.3979V20.892H80.4719V17.284H69.0979V14.974ZM100.358 0.586H103.262V20.958H100.358V0.586ZM102.602 8.528H106.21V10.97H102.602V8.528ZM87.2022 3.6H99.0602V5.932H87.2022V3.6ZM93.1642 7.076C96.1342 7.076 98.3342 9.1 98.3342 11.938C98.3342 14.776 96.1342 16.8 93.1642 16.8C90.1942 16.8 87.9942 14.776 87.9942 11.938C87.9942 9.1 90.1942 7.076 93.1642 7.076ZM93.1642 9.452C91.7782 9.452 90.7882 10.376 90.7882 11.938C90.7882 13.5 91.7782 14.424 93.1642 14.424C94.5502 14.424 95.5402 13.5 95.5402 11.938C95.5402 10.376 94.5502 9.452 93.1642 9.452ZM91.6902 0.915999H94.6162V4.48H91.6902V0.915999ZM121.564 0.586H124.512V20.958H121.564V0.586ZM115.558 2.698H118.462C118.462 8.924 116.35 14.028 109.112 17.526L107.594 15.194C113.446 12.378 115.558 8.682 115.558 3.226V2.698ZM108.672 2.698H116.944V5.008H108.672V2.698Z" fill="black"/>
</svg>
