<svg width="124" height="21" viewBox="0 0 124 21" fill="none" xmlns="http://www.w3.org/2000/svg">
<path d="M15.016 2.87444H18.536V5.27244H15.016V2.87444ZM15.016 7.29644H18.536V9.69444H15.016V7.29644ZM12.992 0.234437H15.918V12.2464H12.992V0.234437ZM2.322 13.0824H15.918V20.6064H12.992V15.4144H2.322V13.0824ZM5.556 1.33444C8.702 1.33444 11.1 3.42444 11.1 6.32844C11.1 9.23244 8.702 11.3004 5.556 11.3004C2.41 11.3004 0.0120001 9.23244 0.0120001 6.32844C0.0120001 3.42444 2.41 1.33444 5.556 1.33444ZM5.556 3.82044C4.016 3.82044 2.872 4.72244 2.872 6.32844C2.872 7.93444 4.016 8.85844 5.556 8.85844C7.096 8.85844 8.24 7.93444 8.24 6.32844C8.24 4.72244 7.096 3.82044 5.556 3.82044ZM20.1183 10.1124H38.5543V12.4444H20.1183V10.1124ZM27.8403 7.47244H30.7443V11.1244H27.8403V7.47244ZM27.7963 0.586437H30.3043V1.20244C30.3043 4.96444 27.3123 7.91244 22.1203 8.66044L21.0423 6.37244C25.6183 5.82244 27.7963 3.49044 27.7963 1.20244V0.586437ZM28.2803 0.586437H30.7883V1.20244C30.7883 3.57844 32.9223 5.82244 37.5423 6.37244L36.4643 8.66044C31.2723 7.89044 28.2803 5.05244 28.2803 1.20244V0.586437ZM22.1643 13.8744H36.3103V20.6064H33.3843V16.1624H22.1643V13.8744ZM50.4336 9.54044H53.3596V12.4664H50.4336V9.54044ZM59.0576 0.256437H61.9836V14.1164H59.0576V0.256437ZM60.9496 6.06444H64.5356V8.46244H60.9496V6.06444ZM45.9016 13.7204L45.5716 11.4544C49.2236 11.4544 54.0416 11.4324 58.1556 10.9264L58.3756 12.9284C54.1296 13.6544 49.4656 13.6984 45.9016 13.7204ZM48.1676 14.9304H61.9836V20.6064H59.0576V17.1744H48.1676V14.9304ZM46.0996 1.73044H57.6496V3.82044H46.0996V1.73044ZM51.8856 4.30444C54.8776 4.30444 56.8356 5.47044 56.8356 7.34044C56.8356 9.21044 54.8776 10.3764 51.8856 10.3764C48.8716 10.3764 46.9136 9.21044 46.9136 7.34044C46.9136 5.47044 48.8716 4.30444 51.8856 4.30444ZM51.8856 6.21844C50.4996 6.21844 49.6856 6.57044 49.6856 7.34044C49.6856 8.06644 50.4996 8.46244 51.8856 8.46244C53.2496 8.46244 54.0636 8.06644 54.0636 7.34044C54.0636 6.57044 53.2496 6.21844 51.8856 6.21844ZM50.4336 0.0804366H53.3596V2.67644H50.4336V0.0804366ZM77.0959 5.16244H80.9679V7.53844H77.0959V5.16244ZM80.1759 0.234437H83.1019V12.3344H80.1759V0.234437ZM76.1939 12.7744C80.5059 12.7744 83.1679 14.2484 83.1679 16.7124C83.1679 19.1984 80.5059 20.6284 76.1939 20.6284C71.8819 20.6284 69.2199 19.1984 69.2199 16.7124C69.2199 14.2484 71.8819 12.7744 76.1939 12.7744ZM76.1939 14.9964C73.5539 14.9964 72.1459 15.5464 72.1459 16.7124C72.1459 17.8564 73.5539 18.4064 76.1939 18.4064C78.8559 18.4064 80.2639 17.8564 80.2639 16.7124C80.2639 15.5464 78.8559 14.9964 76.1939 14.9964ZM70.7599 2.28044H73.1359V3.55644C73.1359 7.45044 71.3319 11.0144 67.4379 12.3344L65.9419 10.0244C69.3079 8.88044 70.7599 6.17444 70.7599 3.55644V2.28044ZM71.3759 2.28044H73.7299V3.55644C73.7299 5.95444 75.1159 8.44044 78.3279 9.51844L76.8979 11.8284C73.1139 10.5744 71.3759 7.18644 71.3759 3.55644V2.28044ZM66.7339 1.46644H77.6899V3.79844H66.7339V1.46644ZM99.3582 0.234437H102.262V20.6064H99.3582V0.234437ZM101.602 8.17644H105.21V10.6184H101.602V8.17644ZM86.2022 3.24844H98.0602V5.58044H86.2022V3.24844ZM92.1642 6.72444C95.1342 6.72444 97.3342 8.74844 97.3342 11.5864C97.3342 14.4244 95.1342 16.4484 92.1642 16.4484C89.1942 16.4484 86.9942 14.4244 86.9942 11.5864C86.9942 8.74844 89.1942 6.72444 92.1642 6.72444ZM92.1642 9.10044C90.7782 9.10044 89.7882 10.0244 89.7882 11.5864C89.7882 13.1484 90.7782 14.0724 92.1642 14.0724C93.5502 14.0724 94.5402 13.1484 94.5402 11.5864C94.5402 10.0244 93.5502 9.10044 92.1642 9.10044ZM90.6902 0.564437H93.6162V4.12844H90.6902V0.564437ZM120.564 0.234437H123.512V20.6064H120.564V0.234437ZM114.558 2.34644H117.462C117.462 8.57244 115.35 13.6764 108.112 17.1744L106.594 14.8424C112.446 12.0264 114.558 8.33044 114.558 2.87444V2.34644ZM107.672 2.34644H115.944V4.65644H107.672V2.34644Z" fill="black"/>
</svg>
