<svg width="237" height="50" viewBox="0 0 237 50" fill="none" xmlns="http://www.w3.org/2000/svg">
<g filter="url(#filter0_d_2462_848)">
<rect x="10" y="9" width="217" height="30" rx="9" fill="white"/>
<path d="M64.824 24.59H65.986V27.74H64.824V24.59ZM65.412 18.262C68.086 18.262 70.004 19.564 70.004 21.58C70.004 23.596 68.086 24.898 65.412 24.898C62.738 24.898 60.806 23.596 60.806 21.58C60.806 19.564 62.738 18.262 65.412 18.262ZM65.412 19.186C63.396 19.186 61.926 20.138 61.926 21.58C61.926 23.022 63.396 23.974 65.412 23.974C67.414 23.974 68.884 23.022 68.884 21.58C68.884 20.138 67.414 19.186 65.412 19.186ZM59.7 27.516H71.166V28.482H59.7V27.516ZM79.2849 20.922H82.4769V21.874H79.2849V20.922ZM81.8189 17.45H82.9809V26.718H81.8189V17.45ZM74.9029 28.86H83.3309V29.812H74.9029V28.86ZM74.9029 25.906H76.0649V29.35H74.9029V25.906ZM75.7989 19.018H76.7509V20.04C76.7509 22.336 75.3229 24.324 73.2089 25.108L72.6069 24.184C74.4969 23.512 75.7989 21.832 75.7989 20.04V19.018ZM76.0229 19.018H76.9609V20.026C76.9609 21.664 78.1929 23.26 80.0269 23.904L79.4389 24.814C77.3809 24.072 76.0229 22.168 76.0229 20.026V19.018ZM72.9709 18.472H79.7329V19.41H72.9709V18.472ZM86.1896 23.9091C86.1896 22.6629 86.3537 21.5161 86.6818 20.4688C87.0099 19.4214 87.4889 18.4553 88.1186 17.5703H89.4808C89.2356 17.8984 89.0069 18.3011 88.7947 18.7784C88.5826 19.2557 88.397 19.7794 88.2379 20.3494C88.0788 20.9162 87.9545 21.5045 87.8651 22.1143C87.7756 22.7209 87.7308 23.3191 87.7308 23.9091C87.7308 24.6979 87.8087 25.4967 87.9645 26.3054C88.1203 27.1141 88.3307 27.8648 88.5959 28.5575C88.861 29.2502 89.156 29.8153 89.4808 30.2528H88.1186C87.4889 29.3679 87.0099 28.4018 86.6818 27.3544C86.3537 26.3071 86.1896 25.1586 86.1896 23.9091ZM94.5829 29.1392C94.1288 29.1326 93.6814 29.0497 93.2406 28.8906C92.8031 28.7315 92.4054 28.4664 92.0474 28.0952C91.6895 27.724 91.4028 27.2251 91.1873 26.5987C90.9752 25.9723 90.8691 25.1901 90.8691 24.2521C90.8691 23.3639 90.957 22.575 91.1326 21.8857C91.3116 21.1963 91.5685 20.6146 91.9032 20.1406C92.238 19.6634 92.6423 19.3004 93.1163 19.0518C93.5903 18.8033 94.1222 18.679 94.7122 18.679C95.3187 18.679 95.8573 18.7983 96.3279 19.0369C96.7986 19.2756 97.1797 19.6054 97.4714 20.0263C97.7664 20.4472 97.9537 20.9261 98.0332 21.4631H96.5169C96.4141 21.0388 96.2103 20.6925 95.9054 20.424C95.6004 20.1555 95.2027 20.0213 94.7122 20.0213C93.9664 20.0213 93.3848 20.3461 92.9672 20.9957C92.5529 21.6454 92.344 22.5485 92.3407 23.7053H92.4153C92.591 23.4169 92.8064 23.1716 93.0616 22.9695C93.3201 22.764 93.6085 22.6065 93.9267 22.4972C94.2482 22.3845 94.5862 22.3281 94.9409 22.3281C95.5308 22.3281 96.0645 22.4723 96.5417 22.7607C97.0223 23.0457 97.4051 23.4401 97.6902 23.9439C97.9752 24.4477 98.1177 25.0244 98.1177 25.674C98.1177 26.3236 97.9702 26.9119 97.6752 27.4389C97.3836 27.9659 96.9726 28.3835 96.4423 28.6918C95.912 28.9967 95.2922 29.1458 94.5829 29.1392ZM94.5779 27.8466C94.969 27.8466 95.3187 27.7505 95.627 27.5582C95.9352 27.366 96.1788 27.1075 96.3578 26.7827C96.5368 26.4579 96.6262 26.0949 96.6262 25.6939C96.6262 25.3028 96.5384 24.9465 96.3627 24.625C96.1904 24.3035 95.9518 24.0483 95.6468 23.8594C95.3452 23.6705 95.0005 23.576 94.6127 23.576C94.3178 23.576 94.0443 23.6323 93.7924 23.745C93.5439 23.8577 93.3251 24.0135 93.1362 24.2124C92.9473 24.4112 92.7981 24.6399 92.6887 24.8984C92.5827 25.1536 92.5297 25.4238 92.5297 25.7088C92.5297 26.09 92.6175 26.4429 92.7931 26.7678C92.9721 27.0926 93.2157 27.3544 93.524 27.5533C93.8355 27.7488 94.1868 27.8466 94.5779 27.8466ZM100.928 27.7372C100.656 27.7372 100.422 27.6411 100.227 27.4489C100.031 27.2533 99.9336 27.018 99.9336 26.7429C99.9336 26.4711 100.031 26.2391 100.227 26.0469C100.422 25.8513 100.656 25.7536 100.928 25.7536C101.2 25.7536 101.433 25.8513 101.629 26.0469C101.824 26.2391 101.922 26.4711 101.922 26.7429C101.922 26.9252 101.876 27.0926 101.783 27.245C101.694 27.3942 101.574 27.5135 101.425 27.603C101.276 27.6925 101.11 27.7372 100.928 27.7372ZM100.928 22.6364C100.656 22.6364 100.422 22.5402 100.227 22.348C100.031 22.1525 99.9336 21.9171 99.9336 21.642C99.9336 21.3703 100.031 21.1383 100.227 20.946C100.422 20.7505 100.656 20.6527 100.928 20.6527C101.2 20.6527 101.433 20.7505 101.629 20.946C101.824 21.1383 101.922 21.3703 101.922 21.642C101.922 21.8243 101.876 21.9917 101.783 22.1442C101.694 22.2933 101.574 22.4126 101.425 22.5021C101.276 22.5916 101.11 22.6364 100.928 22.6364ZM107.438 29.169C106.653 29.1657 105.982 28.9586 105.425 28.5476C104.868 28.1366 104.442 27.5384 104.147 26.7528C103.852 25.9673 103.705 25.0211 103.705 23.9141C103.705 22.8104 103.852 21.8674 104.147 21.0852C104.445 20.303 104.873 19.7064 105.43 19.2955C105.99 18.8845 106.659 18.679 107.438 18.679C108.217 18.679 108.885 18.8861 109.442 19.3004C109.999 19.7114 110.424 20.308 110.719 21.0902C111.018 21.8691 111.167 22.8104 111.167 23.9141C111.167 25.0244 111.019 25.9723 110.724 26.7578C110.429 27.54 110.004 28.1383 109.447 28.5526C108.89 28.9635 108.22 29.169 107.438 29.169ZM107.438 27.8416C108.128 27.8416 108.666 27.5052 109.054 26.8324C109.445 26.1596 109.641 25.1868 109.641 23.9141C109.641 23.0689 109.551 22.3546 109.372 21.7713C109.196 21.1847 108.943 20.7405 108.612 20.4389C108.283 20.134 107.892 19.9815 107.438 19.9815C106.752 19.9815 106.214 20.3196 105.822 20.9957C105.431 21.6719 105.234 22.6446 105.231 23.9141C105.231 24.7625 105.319 25.4801 105.494 26.0668C105.673 26.6501 105.927 27.0926 106.255 27.3942C106.583 27.6925 106.978 27.8416 107.438 27.8416ZM116.475 29.169C115.69 29.1657 115.019 28.9586 114.462 28.5476C113.905 28.1366 113.479 27.5384 113.184 26.7528C112.889 25.9673 112.742 25.0211 112.742 23.9141C112.742 22.8104 112.889 21.8674 113.184 21.0852C113.482 20.303 113.91 19.7064 114.467 19.2955C115.027 18.8845 115.696 18.679 116.475 18.679C117.254 18.679 117.922 18.8861 118.479 19.3004C119.036 19.7114 119.462 20.308 119.757 21.0902C120.055 21.8691 120.204 22.8104 120.204 23.9141C120.204 25.0244 120.057 25.9723 119.762 26.7578C119.467 27.54 119.041 28.1383 118.484 28.5526C117.927 28.9635 117.258 29.169 116.475 29.169ZM116.475 27.8416C117.165 27.8416 117.703 27.5052 118.091 26.8324C118.482 26.1596 118.678 25.1868 118.678 23.9141C118.678 23.0689 118.588 22.3546 118.409 21.7713C118.234 21.1847 117.98 20.7405 117.649 20.4389C117.32 20.134 116.929 19.9815 116.475 19.9815C115.789 19.9815 115.251 20.3196 114.86 20.9957C114.468 21.6719 114.271 22.6446 114.268 23.9141C114.268 24.7625 114.356 25.4801 114.531 26.0668C114.71 26.6501 114.964 27.0926 115.292 27.3942C115.62 27.6925 116.015 27.8416 116.475 27.8416ZM125.817 25.0327C125.804 24.4593 125.888 23.9886 126.07 23.6207C126.256 23.2528 126.505 22.9811 126.816 22.8054C127.128 22.6264 127.471 22.5369 127.845 22.5369C128.177 22.5369 128.483 22.6082 128.765 22.7507C129.047 22.8899 129.368 23.1186 129.73 23.4368C129.955 23.6323 130.139 23.7749 130.281 23.8643C130.424 23.9505 130.583 23.9936 130.759 23.9936C131.027 23.9936 131.241 23.8942 131.4 23.6953C131.562 23.4931 131.64 23.1948 131.634 22.8004H132.892C132.905 23.3771 132.819 23.8494 132.633 24.2173C132.451 24.5852 132.202 24.857 131.887 25.0327C131.576 25.2083 131.234 25.2962 130.863 25.2962C130.528 25.2962 130.22 25.2249 129.938 25.0824C129.657 24.9366 129.337 24.7079 128.979 24.3963C128.747 24.1941 128.561 24.0516 128.422 23.9688C128.283 23.8826 128.125 23.8395 127.95 23.8395C127.695 23.8395 127.482 23.9323 127.313 24.1179C127.148 24.3002 127.068 24.6051 127.075 25.0327H125.817ZM142.565 18.8182V29H141.024V20.3594H140.964L138.528 21.9503V20.4787L141.069 18.8182H142.565ZM149.182 18.8182V29H147.641V20.3594H147.581L145.145 21.9503V20.4787L147.686 18.8182H149.182ZM152.936 27.7372C152.664 27.7372 152.43 27.6411 152.235 27.4489C152.039 27.2533 151.941 27.018 151.941 26.7429C151.941 26.4711 152.039 26.2391 152.235 26.0469C152.43 25.8513 152.664 25.7536 152.936 25.7536C153.208 25.7536 153.441 25.8513 153.637 26.0469C153.832 26.2391 153.93 26.4711 153.93 26.7429C153.93 26.9252 153.884 27.0926 153.791 27.245C153.701 27.3942 153.582 27.5135 153.433 27.603C153.284 27.6925 153.118 27.7372 152.936 27.7372ZM152.936 22.6364C152.664 22.6364 152.43 22.5402 152.235 22.348C152.039 22.1525 151.941 21.9171 151.941 21.642C151.941 21.3703 152.039 21.1383 152.235 20.946C152.43 20.7505 152.664 20.6527 152.936 20.6527C153.208 20.6527 153.441 20.7505 153.637 20.946C153.832 21.1383 153.93 21.3703 153.93 21.642C153.93 21.8243 153.884 21.9917 153.791 22.1442C153.701 22.2933 153.582 22.4126 153.433 22.5021C153.284 22.5916 153.118 22.6364 152.936 22.6364ZM159.262 29.1392C158.639 29.1392 158.079 29.0199 157.582 28.7812C157.088 28.5393 156.693 28.2079 156.398 27.7869C156.103 27.366 155.946 26.8854 155.926 26.3452H157.418C157.454 26.7827 157.648 27.1423 157.999 27.424C158.351 27.7057 158.772 27.8466 159.262 27.8466C159.653 27.8466 160 27.7571 160.301 27.5781C160.606 27.3958 160.845 27.1456 161.017 26.8274C161.193 26.5092 161.281 26.1463 161.281 25.7386C161.281 25.3243 161.191 24.9548 161.012 24.63C160.833 24.3052 160.586 24.05 160.271 23.8643C159.96 23.6787 159.602 23.5843 159.197 23.581C158.889 23.581 158.579 23.634 158.268 23.7401C157.956 23.8461 157.704 23.9853 157.512 24.1577L156.105 23.9489L156.677 18.8182H162.275V20.1357H157.955L157.631 22.9844H157.691C157.89 22.7921 158.153 22.6314 158.482 22.5021C158.813 22.3729 159.168 22.3082 159.545 22.3082C160.165 22.3082 160.717 22.4557 161.201 22.7507C161.688 23.0457 162.071 23.4484 162.349 23.9588C162.631 24.4659 162.77 25.0492 162.767 25.7088C162.77 26.3684 162.621 26.9567 162.32 27.4737C162.021 27.9908 161.607 28.3984 161.077 28.6967C160.55 28.9917 159.945 29.1392 159.262 29.1392ZM167.969 18.679C168.423 18.6823 168.87 18.7652 169.311 18.9276C169.752 19.09 170.149 19.3551 170.504 19.723C170.862 20.0909 171.147 20.5881 171.359 21.2145C171.575 21.8376 171.684 22.6132 171.687 23.5412C171.687 24.4328 171.598 25.2266 171.419 25.9226C171.24 26.6153 170.983 27.2003 170.648 27.6776C170.317 28.1548 169.914 28.5178 169.44 28.7663C168.966 29.0149 168.433 29.1392 167.839 29.1392C167.233 29.1392 166.694 29.0199 166.224 28.7812C165.753 28.5426 165.37 28.2128 165.075 27.7919C164.78 27.3677 164.596 26.8804 164.523 26.3303H166.04C166.139 26.7678 166.341 27.1224 166.646 27.3942C166.954 27.6626 167.352 27.7969 167.839 27.7969C168.585 27.7969 169.167 27.4721 169.584 26.8224C170.002 26.1695 170.212 25.258 170.216 24.0881H170.136C169.964 24.3731 169.748 24.6184 169.49 24.8239C169.235 25.0294 168.948 25.1884 168.63 25.3011C168.312 25.4138 167.972 25.4702 167.611 25.4702C167.024 25.4702 166.49 25.326 166.01 25.0376C165.529 24.7493 165.146 24.3532 164.861 23.8494C164.576 23.3456 164.434 22.7706 164.434 22.1243C164.434 21.4813 164.58 20.898 164.871 20.3743C165.166 19.8506 165.577 19.4363 166.104 19.1314C166.635 18.8232 167.256 18.6723 167.969 18.679ZM167.974 19.9716C167.586 19.9716 167.236 20.0677 166.925 20.2599C166.616 20.4489 166.373 20.7057 166.194 21.0305C166.015 21.352 165.925 21.71 165.925 22.1044C165.925 22.4988 166.011 22.8568 166.184 23.1783C166.359 23.4964 166.598 23.75 166.9 23.9389C167.205 24.1245 167.553 24.2173 167.944 24.2173C168.235 24.2173 168.507 24.161 168.759 24.0483C169.011 23.9356 169.231 23.7798 169.42 23.581C169.609 23.3788 169.757 23.1501 169.863 22.8949C169.969 22.6397 170.022 22.3712 170.022 22.0895C170.022 21.715 169.932 21.367 169.753 21.0455C169.578 20.724 169.336 20.4654 169.028 20.2699C168.719 20.071 168.368 19.9716 167.974 19.9716ZM176.362 23.9091C176.362 25.1586 176.198 26.3071 175.87 27.3544C175.542 28.4018 175.063 29.3679 174.433 30.2528H173.071C173.316 29.9247 173.545 29.522 173.757 29.0447C173.969 28.5675 174.154 28.0455 174.314 27.4787C174.473 26.9086 174.597 26.3187 174.686 25.7088C174.776 25.099 174.821 24.4991 174.821 23.9091C174.821 23.1236 174.743 22.3265 174.587 21.5178C174.431 20.709 174.221 19.9583 173.956 19.2656C173.69 18.5729 173.395 18.0078 173.071 17.5703H174.433C175.063 18.4553 175.542 19.4214 175.87 20.4688C176.198 21.5161 176.362 22.6629 176.362 23.9091Z" fill="black"/>
</g>
<defs>
<filter id="filter0_d_2462_848" x="0" y="0" width="237" height="50" filterUnits="userSpaceOnUse" color-interpolation-filters="sRGB">
<feFlood flood-opacity="0" result="BackgroundImageFix"/>
<feColorMatrix in="SourceAlpha" type="matrix" values="0 0 0 0 0 0 0 0 0 0 0 0 0 0 0 0 0 0 127 0" result="hardAlpha"/>
<feOffset dy="1"/>
<feGaussianBlur stdDeviation="5"/>
<feComposite in2="hardAlpha" operator="out"/>
<feColorMatrix type="matrix" values="0 0 0 0 0 0 0 0 0 0 0 0 0 0 0 0 0 0 0.25 0"/>
<feBlend mode="normal" in2="BackgroundImageFix" result="effect1_dropShadow_2462_848"/>
<feBlend mode="normal" in="SourceGraphic" in2="effect1_dropShadow_2462_848" result="shape"/>
</filter>
</defs>
</svg>
