<svg width="223" height="31" viewBox="0 0 223 31" fill="none" xmlns="http://www.w3.org/2000/svg">
<path d="M10.0425 12.812H2.25854V8.668H10.0425V12.812ZM0.802539 4.02V3.152H7.36854V4.02H4.66654C4.79254 5.49 6.22054 6.666 7.60654 7.016L7.06054 7.842C5.98254 7.506 4.69454 6.498 4.12054 5.392C3.71454 6.484 2.44054 7.702 1.04054 8.192L0.452539 7.38C2.02054 6.918 3.44854 5.518 3.53254 4.02H0.802539ZM8.97854 11.93V9.55H3.32254V11.93H8.97854ZM11.9045 4.93H10.0425V8.024H8.97854V0.744H10.0425V4.034H11.9045V4.93ZM2.39854 2.018V1.108H5.81454V2.018H2.39854ZM21.6798 4.398H19.1878V3.502H21.6798V0.744H22.7438V7.926H21.6798V4.398ZM22.7578 12.98H21.6938V9.452H14.6098V8.57H22.7578V12.98ZM19.7898 6.4L19.1598 7.24C17.9978 6.68 16.7798 5.616 16.2898 4.398C15.9258 5.658 14.8338 6.736 13.2938 7.59L12.6358 6.764C14.3578 5.966 15.7158 4.454 15.7158 2.508V1.318H16.7938V2.466C16.7938 4.426 18.4178 5.91 19.7898 6.4ZM32.1131 9.312L31.4691 10.11C30.3211 9.382 28.8231 7.842 28.3891 6.386C27.9691 7.87 26.7791 9.382 25.3091 10.404L24.6091 9.606C26.4151 8.542 27.8291 6.386 27.8291 4.188V2.928H25.0011V2.032H31.7631V2.928H28.9351V4.16C28.9351 6.442 30.4331 8.36 32.1131 9.312ZM36.2571 6.61H34.2691V12.98H33.2051V0.744H34.2691V5.714H36.2571V6.61ZM46.3824 0.744V5.84H48.3844V6.75H46.3824V12.98H45.3184V0.744H46.3824ZM43.2044 2.06C43.1344 6.036 40.8384 8.906 37.6884 10.544L37.0304 9.704C40.0824 8.29 41.8324 5.714 42.0564 2.956H37.4504V2.06H43.2044ZM64.0354 4.734H62.1734V8.01H61.1094V0.744H62.1734V3.838H64.0354V4.734ZM54.0674 8.654H62.1734V13.064H61.1094V9.536H54.0674V8.654ZM58.7714 1.584C58.5334 4.776 56.4054 6.862 53.2974 7.828L52.7234 6.932C55.1734 6.386 57.2734 4.566 57.6094 2.494H53.2134V1.584H58.7714ZM72.1307 9.312L71.4867 10.11C70.3387 9.382 68.8407 7.842 68.4067 6.386C67.9867 7.87 66.7967 9.382 65.3267 10.404L64.6267 9.606C66.4327 8.542 67.8467 6.386 67.8467 4.188V2.928H65.0187V2.032H71.7807V2.928H68.9527V4.16C68.9527 6.442 70.4507 8.36 72.1307 9.312ZM76.2747 6.61H74.2867V12.98H73.2227V0.744H74.2867V5.714H76.2747V6.61ZM90.0777 0.744V5.84H92.0797V6.75H90.0777V12.98H89.0137V0.744H90.0777ZM86.8997 2.06C86.8297 6.036 84.5337 8.906 81.3837 10.544L80.7257 9.704C83.7777 8.29 85.5277 5.714 85.7517 2.956H81.1457V2.06H86.8997ZM103.829 7.338H92.783V6.456H103.829V7.338ZM102.555 5.126H94.323V1.066H95.387V4.244H102.555V5.126ZM102.625 10.628C102.625 12.098 100.987 12.91 98.327 12.91C95.653 12.91 94.043 12.098 94.043 10.628C94.043 9.172 95.653 8.36 98.313 8.36C100.987 8.36 102.625 9.172 102.625 10.628ZM98.313 9.228C96.395 9.228 95.121 9.676 95.121 10.628C95.121 11.58 96.395 12.028 98.313 12.028C100.259 12.028 101.547 11.58 101.547 10.628C101.547 9.676 100.259 9.228 98.313 9.228ZM116.166 5.784H114.304V9.774H113.24V0.744H114.304V4.888H116.166V5.784ZM114.78 12.588H106.632V9.452H107.696V11.692H114.78V12.588ZM110.118 2.116H106.59V1.178H110.118V2.116ZM112.008 3.922H104.84V3.04H112.008V3.922ZM111.308 6.722C111.308 8.01 110.076 8.864 108.424 8.864C106.8 8.864 105.554 8.01 105.554 6.722C105.554 5.406 106.786 4.58 108.424 4.58C110.076 4.58 111.308 5.406 111.308 6.722ZM110.3 6.722C110.3 5.91 109.418 5.42 108.424 5.42C107.444 5.42 106.562 5.91 106.562 6.722C106.562 7.52 107.444 8.01 108.424 8.01C109.418 8.01 110.3 7.52 110.3 6.722ZM130.767 12.98H129.689V0.744H130.767V12.98ZM128.135 9.228L127.463 10.04C126.357 9.284 124.915 7.772 124.439 6.302C123.991 7.828 122.731 9.326 121.317 10.334L120.617 9.536C122.409 8.416 123.879 6.19 123.879 4.02V1.808H124.957V3.978C124.957 6.218 126.441 8.22 128.135 9.228ZM144.071 5.476H142.209V9.9H141.145V0.744H142.209V4.58H144.071V5.476ZM142.587 12.672H134.509V8.892H135.573V11.79H142.587V12.672ZM133.221 1.822H138.793C138.653 5.154 136.385 7.492 133.263 8.486L132.717 7.59C135.349 6.918 137.323 4.972 137.631 2.718H133.221V1.822ZM155.96 6.932H144.914V6.036H155.96V6.932ZM154.728 3.04C154.728 4.384 153.104 5.154 150.444 5.154C147.812 5.154 146.188 4.384 146.188 3.04C146.188 1.696 147.812 0.911999 150.444 0.911999C153.104 0.911999 154.728 1.696 154.728 3.04ZM150.444 1.78C148.526 1.78 147.28 2.27 147.28 3.04C147.28 3.796 148.526 4.272 150.444 4.272C152.39 4.272 153.65 3.796 153.65 3.04C153.65 2.27 152.39 1.78 150.444 1.78ZM154.98 12.868H146.202V9.956H153.51V8.878H146.174V8.024H154.574V10.768H147.266V12H154.98V12.868ZM171.751 7.52H160.705V6.638H171.751V7.52ZM170.449 5.42H162.063V1.262H170.393V2.158H163.127V4.524H170.449V5.42ZM170.589 10.74C170.589 12.14 168.937 12.896 166.249 12.896C163.561 12.896 161.923 12.14 161.923 10.74C161.923 9.34 163.561 8.584 166.235 8.584C168.937 8.584 170.589 9.34 170.589 10.74ZM166.235 9.494C164.289 9.494 162.987 9.928 162.987 10.74C162.987 11.538 164.289 11.972 166.235 11.972C168.223 11.972 169.511 11.538 169.511 10.74C169.511 9.928 168.209 9.494 166.235 9.494ZM182.66 6.134H178.852V7.422H183.864V8.318H172.818V7.422H177.788V6.134H174.204V3.25H181.386V2.074H174.19V1.22H182.45V4.048H175.268V5.28H182.66V6.134ZM173.994 9.382H182.478V13.064H181.4V10.264H173.994V9.382ZM196.201 5.098H194.339V7.842H193.275V0.744H194.339V4.202H196.201V5.098ZM194.339 12.896H186.639V8.444H187.703V9.746H193.275V8.43H194.339V12.896ZM193.275 12V10.628H187.703V12H193.275ZM190.209 1.808H186.681V0.911999H190.209V1.808ZM192.001 3.53H184.875V2.662H192.001V3.53ZM191.287 6.008C191.287 7.212 190.097 7.982 188.445 7.982C186.779 7.982 185.603 7.212 185.603 6.008C185.603 4.776 186.751 4.02 188.445 4.02C190.097 4.02 191.287 4.776 191.287 6.008ZM190.209 6.008C190.209 5.294 189.397 4.874 188.445 4.874C187.493 4.874 186.653 5.294 186.653 6.008C186.653 6.708 187.507 7.142 188.445 7.142C189.397 7.142 190.209 6.708 190.209 6.008ZM206.957 0.744V12.98H205.907V0.744H206.957ZM204.661 8.486L204.759 9.41C203.345 9.732 200.153 9.97 198.277 9.97H197.731V2.018H198.809V9.032C200.377 9.032 203.205 8.808 204.661 8.486ZM218.594 0.744V5.602H220.582V6.498H218.594V12.98H217.53V0.744H218.594ZM210.712 9.074H211.412C212.994 9.074 215.416 8.934 216.592 8.682L216.704 9.564C215.388 9.816 212.966 9.984 210.838 9.984H209.634V2.018H215.444V2.914H210.712V9.074ZM221.327 11.762V10.516H222.545V11.762H221.327ZM27.9869 29.812H20.2029V25.668H27.9869V29.812ZM18.7469 21.02V20.152H25.3129V21.02H22.6109C22.7369 22.49 24.1649 23.666 25.5509 24.016L25.0049 24.842C23.9269 24.506 22.6389 23.498 22.0649 22.392C21.6589 23.484 20.3849 24.702 18.9849 25.192L18.3969 24.38C19.9649 23.918 21.3929 22.518 21.4769 21.02H18.7469ZM26.9229 28.93V26.55H21.2669V28.93H26.9229ZM29.8489 21.93H27.9869V25.024H26.9229V17.744H27.9869V21.034H29.8489V21.93ZM20.3429 19.018V18.108H23.7589V19.018H20.3429ZM39.6242 21.398H37.1322V20.502H39.6242V17.744H40.6882V24.926H39.6242V21.398ZM40.7022 29.98H39.6382V26.452H32.5542V25.57H40.7022V29.98ZM37.7342 23.4L37.1042 24.24C35.9422 23.68 34.7242 22.616 34.2342 21.398C33.8702 22.658 32.7782 23.736 31.2382 24.59L30.5802 23.764C32.3022 22.966 33.6602 21.454 33.6602 19.508V18.318H34.7382V19.466C34.7382 21.426 36.3622 22.91 37.7342 23.4ZM50.0574 26.312L49.4134 27.11C48.2654 26.382 46.7674 24.842 46.3334 23.386C45.9134 24.87 44.7234 26.382 43.2534 27.404L42.5534 26.606C44.3594 25.542 45.7734 23.386 45.7734 21.188V19.928H42.9454V19.032H49.7074V19.928H46.8794V21.16C46.8794 23.442 48.3774 25.36 50.0574 26.312ZM54.2014 23.61H52.2134V29.98H51.1494V17.744H52.2134V22.714H54.2014V23.61ZM64.3267 17.744V22.84H66.3287V23.75H64.3267V29.98H63.2627V17.744H64.3267ZM61.1487 19.06C61.0787 23.036 58.7827 25.906 55.6327 27.544L54.9747 26.704C58.0267 25.29 59.7767 22.714 60.0007 19.956H55.3947V19.06H61.1487ZM75.5257 29.35C74.6857 29.532 73.2017 29.742 71.8297 29.728V25.318H72.8797V28.818C73.5937 28.818 74.6577 28.692 75.3717 28.482L75.5257 29.35ZM79.7957 25.164H76.8417V24.324H79.7957V25.164ZM81.3497 26.592H75.2597V25.766H81.3497V26.592ZM80.6637 28.566C80.6637 29.602 79.5717 30.148 78.2837 30.148C76.9957 30.148 75.9177 29.602 75.9177 28.566C75.9177 27.516 76.9957 26.97 78.2837 26.97C79.5717 26.97 80.6637 27.516 80.6637 28.566ZM79.6417 28.566C79.6417 28.104 79.0537 27.768 78.2837 27.768C77.5277 27.768 76.9257 28.104 76.9257 28.566C76.9257 29.028 77.5277 29.364 78.2837 29.364C79.0537 29.364 79.6417 29.028 79.6417 28.566ZM76.8697 23.694H71.1437V18.626H76.8697V23.694ZM75.8057 22.812V19.508H72.2077V22.812H75.8057ZM81.9797 21.412H80.1177V23.708H79.0537V17.744H80.1177V20.516H81.9797V21.412ZM93.869 23.932H82.823V23.036H93.869V23.932ZM92.637 20.04C92.637 21.384 91.013 22.154 88.353 22.154C85.721 22.154 84.097 21.384 84.097 20.04C84.097 18.696 85.721 17.912 88.353 17.912C91.013 17.912 92.637 18.696 92.637 20.04ZM88.353 18.78C86.435 18.78 85.189 19.27 85.189 20.04C85.189 20.796 86.435 21.272 88.353 21.272C90.299 21.272 91.559 20.796 91.559 20.04C91.559 19.27 90.299 18.78 88.353 18.78ZM92.889 29.868H84.111V26.956H91.419V25.878H84.083V25.024H92.483V27.768H85.175V29H92.889V29.868ZM104.648 29.994H103.584V25.556H98.614V24.66H109.66V25.556H104.648V29.994ZM109.212 22.448L108.708 23.358C106.874 22.98 104.872 21.832 104.13 20.404C103.542 21.832 101.456 23.022 99.594 23.386L99.076 22.476C101.428 22.168 103.584 20.614 103.584 18.948V18.164H104.704V18.948C104.704 20.614 107.056 22.182 109.212 22.448ZM120.569 23.134H116.761V24.422H121.773V25.318H110.727V24.422H115.697V23.134H112.113V20.25H119.295V19.074H112.099V18.22H120.359V21.048H113.177V22.28H120.569V23.134ZM111.903 26.382H120.387V30.064H119.309V27.264H111.903V26.382ZM136.836 25.08H135.772V21.79H134.218V24.982H133.182V17.968H134.218V20.894H135.772V17.744H136.836V25.08ZM136.836 29.98H135.758V26.634H128.618V25.738H136.836V29.98ZM132.636 23.61L132.048 24.422C130.956 23.904 129.99 22.798 129.57 21.846C129.262 22.84 128.198 24.156 127.064 24.814L126.406 24.002C127.708 23.302 129.024 21.818 129.024 19.984V18.458H130.06V19.956C130.06 21.832 131.46 23.106 132.636 23.61ZM148.698 29.98H147.634V17.744H148.698V29.98ZM139.038 22.98C139.038 20.404 140.186 18.668 142.188 18.668C144.218 18.668 145.352 20.404 145.352 22.994C145.352 25.584 144.218 27.32 142.188 27.32C140.186 27.32 139.038 25.584 139.038 22.98ZM144.344 22.994C144.344 20.978 143.49 19.592 142.188 19.592C140.9 19.592 140.046 20.978 140.046 22.994C140.046 24.996 140.9 26.396 142.188 26.396C143.49 26.396 144.344 24.996 144.344 22.994ZM154.941 19.774V18.878H161.605V19.774H158.805C158.805 20.292 158.805 20.53 158.819 20.712C158.903 22.28 160.443 23.652 161.843 24.114L161.241 24.968C160.079 24.492 158.749 23.344 158.245 22.238C157.923 23.386 156.495 24.716 155.179 25.29L154.563 24.464C156.103 23.862 157.615 22.308 157.713 20.698C157.727 20.53 157.727 20.292 157.727 19.774H154.941ZM164.685 29.658H156.523V25.85H157.587V28.776H164.685V29.658ZM164.419 26.634H163.355V17.744H164.419V26.634ZM176.854 29.98H175.804V23.638H174.334V29.364H173.298V18.038H174.334V22.742H175.804V17.744H176.854V29.98ZM172.374 24.758C172.374 26.228 171.282 27.194 169.7 27.194C168.132 27.194 167.026 26.158 167.026 24.758C167.026 23.274 168.132 22.308 169.7 22.308C171.282 22.308 172.374 23.288 172.374 24.758ZM171.352 24.758C171.352 23.82 170.666 23.204 169.7 23.204C168.734 23.204 168.062 23.82 168.062 24.758C168.062 25.71 168.734 26.312 169.7 26.312C170.666 26.312 171.352 25.682 171.352 24.758ZM172.598 21.608H166.508V20.726H172.598V21.608ZM171.282 19.606H167.936V18.682H171.282V19.606ZM186.153 26.452L185.495 27.264C184.235 26.536 182.779 25.066 182.289 23.554C181.883 25.038 180.595 26.564 179.125 27.572L178.467 26.76C180.273 25.696 181.729 23.582 181.729 21.356V19.928H178.845V19.032H185.579V19.928H182.835V21.328C182.835 23.61 184.361 25.486 186.153 26.452ZM185.117 21.818V20.95H187.581V17.744H188.645V29.98H187.581V24.632H185.117V23.764H187.581V21.818H185.117ZM200.688 21.734C200.688 23.624 198.924 24.884 196.264 24.884C193.632 24.884 191.868 23.624 191.868 21.734C191.868 19.844 193.632 18.556 196.264 18.556C198.938 18.556 200.688 19.844 200.688 21.734ZM199.666 21.734C199.666 20.362 198.322 19.438 196.264 19.438C194.234 19.438 192.89 20.362 192.89 21.734C192.89 23.106 194.234 24.03 196.264 24.03C198.308 24.03 199.666 23.106 199.666 21.734ZM201.808 28.426H190.762V27.53H193.492V25.248L194.556 25.22V27.53H197.972V25.22L199.036 25.248V27.53H201.808V28.426ZM203.758 26.298L203.59 18.514H204.864L204.696 26.298H203.758ZM203.632 28.678V27.432H204.836V28.678H203.632Z" fill="black"/>
</svg>
