<svg width="285" height="39" viewBox="0 0 285 39" fill="none" xmlns="http://www.w3.org/2000/svg">
<rect width="285" height="39" rx="19.5" transform="matrix(1 0 0 -1 0 39)" fill="#8E6FFF"/>
<path d="M107.347 12.624H109.491V21.6H107.347V12.624ZM97.9393 19.296H99.2353C102.115 19.296 103.987 19.232 106.131 18.88L106.371 20.576C104.163 20.96 102.195 21.008 99.2353 21.008H97.9393V19.296ZM97.9233 13.488H104.739V18H100.035V20.256H97.9393V16.416H102.643V15.184H97.9233V13.488ZM104.499 21.872C107.635 21.872 109.587 22.88 109.587 24.656C109.587 26.416 107.635 27.44 104.499 27.44C101.363 27.44 99.4433 26.416 99.4433 24.656C99.4433 22.88 101.363 21.872 104.499 21.872ZM104.499 23.52C102.563 23.52 101.555 23.872 101.555 24.656C101.555 25.424 102.563 25.792 104.499 25.792C106.451 25.792 107.459 25.424 107.459 24.656C107.459 23.872 106.451 23.52 104.499 23.52ZM113.41 13.904H122.738V15.6H113.41V13.904ZM111.906 23.936H125.298V25.68H111.906V23.936ZM121.842 13.904H123.938V15.616C123.938 17.776 123.938 19.824 123.25 23.056L121.154 22.864C121.842 19.872 121.842 17.712 121.842 15.616V13.904ZM122.29 17.968V19.536L113.234 19.984L112.978 18.272L122.29 17.968ZM136.858 21.824C140.058 21.824 142.106 22.88 142.106 24.64C142.106 26.368 140.058 27.424 136.858 27.424C133.658 27.424 131.61 26.368 131.61 24.64C131.61 22.88 133.658 21.824 136.858 21.824ZM136.858 23.424C134.858 23.424 133.722 23.84 133.722 24.64C133.722 25.424 134.858 25.824 136.858 25.824C138.858 25.824 139.994 25.424 139.994 24.64C139.994 23.84 138.858 23.424 136.858 23.424ZM131.77 13.264H141.146V14.944H131.77V13.264ZM130.266 19.216H143.61V20.912H130.266V19.216ZM135.21 16.64H137.322V19.648H135.21V16.64ZM139.914 13.264H142.026V14.48C142.026 15.648 142.026 16.912 141.626 18.448L139.514 18.224C139.914 16.704 139.914 15.632 139.914 14.48V13.264ZM147.977 21.968H150.153V27.424H147.977V21.968ZM153.097 21.968H155.273V27.424H153.097V21.968ZM144.953 20.848H158.377V22.56H144.953V20.848ZM151.625 13.104C154.793 13.104 156.985 14.4 156.985 16.432C156.985 18.432 154.793 19.728 151.625 19.728C148.473 19.728 146.281 18.432 146.281 16.432C146.281 14.4 148.473 13.104 151.625 13.104ZM151.625 14.8C149.689 14.8 148.457 15.376 148.457 16.432C148.457 17.472 149.689 18.048 151.625 18.048C153.577 18.048 154.793 17.472 154.793 16.432C154.793 15.376 153.577 14.8 151.625 14.8ZM169.175 12.608H171.287V27.424H169.175V12.608ZM170.807 18.384H173.431V20.16H170.807V18.384ZM159.607 14.8H168.231V16.496H159.607V14.8ZM163.943 17.328C166.103 17.328 167.703 18.8 167.703 20.864C167.703 22.928 166.103 24.4 163.943 24.4C161.783 24.4 160.183 22.928 160.183 20.864C160.183 18.8 161.783 17.328 163.943 17.328ZM163.943 19.056C162.935 19.056 162.215 19.728 162.215 20.864C162.215 22 162.935 22.672 163.943 22.672C164.951 22.672 165.671 22 165.671 20.864C165.671 19.728 164.951 19.056 163.943 19.056ZM162.871 12.848H164.999V15.44H162.871V12.848ZM184.598 12.608H186.742V27.424H184.598V12.608ZM180.23 14.144H182.342C182.342 18.672 180.806 22.384 175.542 24.928L174.438 23.232C178.694 21.184 180.23 18.496 180.23 14.528V14.144ZM175.222 14.144H181.238V15.824H175.222V14.144Z" fill="white"/>
</svg>
