<svg width="178" height="37" viewBox="0 0 178 37" fill="none" xmlns="http://www.w3.org/2000/svg">
<path d="M0.260938 12.304H13.3649V13.408H0.260938V12.304ZM6.11694 8.56H7.44494V12.608H6.11694V8.56ZM1.78094 1.984H11.7649V8.8H1.78094V1.984ZM10.4849 3.056H3.07694V7.728H10.4849V3.056ZM16.7717 6.16H26.4357V7.248H16.7717V6.16ZM14.9637 9.12H28.0837V10.224H14.9637V9.12ZM20.8197 9.728H22.1317V15.2H20.8197V9.728ZM16.7717 1.632H26.2437V2.72H18.1157V6.688H16.7717V1.632ZM39.4744 0.768H40.8184V15.248H39.4744V0.768ZM40.4504 6.64H43.1224V7.744H40.4504V6.64ZM35.7784 2.336H37.0744C37.0744 6.448 35.1864 10.16 30.5144 12.512L29.7784 11.488C33.7784 9.456 35.7784 6.368 35.7784 2.544V2.336ZM30.4504 2.336H36.4664V3.424H30.4504V2.336ZM48.6516 12.304H61.7556V13.408H48.6516V12.304ZM54.5076 8.56H55.8356V12.608H54.5076V8.56ZM50.1716 1.984H60.1556V8.8H50.1716V1.984ZM58.8756 3.056H51.4676V7.728H58.8756V3.056ZM67.4183 1.312C69.5783 1.312 71.1623 2.624 71.1623 4.528C71.1623 6.416 69.5783 7.728 67.4183 7.728C65.2743 7.728 63.6903 6.416 63.6903 4.528C63.6903 2.624 65.2743 1.312 67.4183 1.312ZM67.4183 2.4C66.0263 2.4 64.9703 3.28 64.9703 4.528C64.9703 5.776 66.0263 6.64 67.4183 6.64C68.8263 6.64 69.8663 5.776 69.8663 4.528C69.8663 3.28 68.8263 2.4 67.4183 2.4ZM73.8823 0.783999H75.2263V8.192H73.8823V0.783999ZM65.8663 8.896H75.2263V12.416H67.1943V14.592H65.8983V11.424H73.9143V9.968H65.8663V8.896ZM65.8983 14H75.7063V15.056H65.8983V14ZM88.1634 1.296H89.3314V2.096C89.3314 4.864 86.5154 6.848 83.5074 7.36L82.9794 6.288C85.6194 5.888 88.1634 4.16 88.1634 2.096V1.296ZM88.4034 1.296H89.5554V2.096C89.5554 4.112 92.1314 5.888 94.7394 6.288L94.2114 7.36C91.2354 6.848 88.4034 4.832 88.4034 2.096V1.296ZM88.1634 9.744H89.4754V15.248H88.1634V9.744ZM82.3234 8.928H95.3954V10.032H82.3234V8.928ZM104.877 9.68H105.901V10.464C105.901 12.352 104.717 14.256 102.637 15.056L101.965 14.064C103.789 13.408 104.877 11.856 104.877 10.464V9.68ZM105.165 9.68H106.157V10.464C106.157 11.92 107.021 13.472 108.749 14.176L108.189 15.184C106.109 14.368 105.165 12.384 105.165 10.464V9.68ZM110.221 9.68H111.213V10.464C111.213 12.16 110.253 14.304 108.189 15.184L107.629 14.176C109.341 13.392 110.221 11.712 110.221 10.464V9.68ZM110.493 9.68H111.517V10.464C111.517 11.952 112.589 13.44 114.429 14.064L113.757 15.056C111.645 14.288 110.493 12.464 110.493 10.464V9.68ZM111.789 0.799999H113.133V9.056H111.789V0.799999ZM105.373 1.632C107.565 1.632 109.133 3.008 109.133 5.008C109.133 7.008 107.565 8.368 105.373 8.368C103.181 8.368 101.597 7.008 101.597 5.008C101.597 3.008 103.181 1.632 105.373 1.632ZM105.373 2.736C103.933 2.736 102.893 3.664 102.893 5.008C102.893 6.352 103.933 7.264 105.373 7.264C106.813 7.264 107.853 6.352 107.853 5.008C107.853 3.664 106.813 2.736 105.373 2.736ZM117.755 5.12H127.579V6.208H117.755V5.12ZM115.979 8.144H129.099V9.232H115.979V8.144ZM117.755 1.312H119.067V5.664H117.755V1.312ZM117.659 13.808H127.659V14.896H117.659V13.808ZM117.659 10.672H118.971V14.096H117.659V10.672ZM138.756 2.032H139.844V4.624C139.844 7.952 138.052 11.04 135.684 12.24L134.868 11.152C137.012 10.128 138.756 7.36 138.756 4.624V2.032ZM138.98 2.032H140.068V4.624C140.068 7.264 141.796 9.92 143.94 10.912L143.14 11.968C140.788 10.816 138.98 7.84 138.98 4.624V2.032ZM145.444 0.768H146.772V15.264H145.444V0.768ZM159.555 0.783999H160.883V11.36H159.555V0.783999ZM160.467 5.168H163.027V6.272H160.467V5.168ZM155.603 1.904H157.011C157.011 5.648 154.387 8.384 150.243 9.712L149.667 8.624C153.315 7.504 155.603 5.264 155.603 2.48V1.904ZM150.259 1.904H156.275V2.992H150.259V1.904ZM151.859 13.84H161.523V14.928H151.859V13.84ZM151.859 10.288H153.187V14.272H151.859V10.288ZM170.914 1.024C174.098 1.024 176.002 1.92 176.002 3.536C176.002 5.152 174.098 6.048 170.914 6.048C167.714 6.048 165.826 5.152 165.826 3.536C165.826 1.92 167.714 1.024 170.914 1.024ZM170.914 2.032C168.546 2.032 167.186 2.576 167.186 3.536C167.186 4.496 168.546 5.04 170.914 5.04C173.266 5.04 174.626 4.496 174.626 3.536C174.626 2.576 173.266 2.032 170.914 2.032ZM164.37 7.008H177.442V8.08H164.37V7.008ZM165.954 9.312H175.778V12.576H167.298V14.336H165.986V11.616H174.466V10.336H165.954V9.312ZM165.986 14.048H176.21V15.088H165.986V14.048ZM19.6951 21.784H21.0071V36.248H19.6951V21.784ZM20.2551 27.432H22.9271V28.536H20.2551V27.432ZM9.75912 23.128H10.8951V26.84H12.6551V23.128H13.7591V32.744H9.75912V23.128ZM10.8951 27.896V31.656H12.6551V27.896H10.8951ZM14.5271 23.128H15.6471V26.84H17.3591V23.128H18.4791V32.744H14.5271V23.128ZM15.6471 27.896V31.656H17.3591V27.896H15.6471ZM24.2219 33.32H37.3259V34.44H24.2219V33.32ZM25.8059 22.888H35.7099V27.272H27.1659V30.168H25.8539V26.216H34.3979V23.976H25.8059V22.888ZM25.8539 29.608H36.0459V30.696H25.8539V29.608ZM49.9486 21.784H51.2286V36.248H49.9486V21.784ZM43.6766 27.688H47.3246V28.76H43.6766V27.688ZM46.9406 22.152H48.1886V35.512H46.9406V22.152ZM43.8526 23.608H45.1326C45.1326 27.4 43.6126 30.808 39.7086 33.128L38.9246 32.184C42.3326 30.136 43.8526 27.256 43.8526 23.848V23.608ZM39.5646 23.608H44.3486V24.696H39.5646V23.608ZM61.6698 28.568H62.9978V30.424H61.6698V28.568ZM67.7658 21.8H69.0938V31.496H67.7658V21.8ZM68.5338 26.168H71.2058V27.272H68.5338V26.168ZM57.9738 31.08L57.7978 29.992C60.3898 29.992 63.9098 29.992 66.9018 29.56L67.0138 30.504C63.9258 31.048 60.5018 31.064 57.9738 31.08ZM59.5898 32.216H69.0938V36.248H67.7658V33.272H59.5898V32.216ZM58.1658 23.096H66.4698V24.088H58.1658V23.096ZM62.3258 24.648C64.3578 24.648 65.6858 25.464 65.6858 26.792C65.6858 28.12 64.3578 28.936 62.3258 28.936C60.2778 28.936 58.9498 28.12 58.9498 26.792C58.9498 25.464 60.2778 24.648 62.3258 24.648ZM62.3258 25.56C61.0298 25.56 60.1978 26.024 60.1978 26.792C60.1978 27.528 61.0298 28.008 62.3258 28.008C63.6058 28.008 64.4378 27.528 64.4378 26.792C64.4378 26.024 63.6058 25.56 62.3258 25.56ZM61.6698 21.672H62.9978V23.576H61.6698V21.672ZM83.1245 21.8H84.4685V32.36H83.1245V21.8ZM75.1725 34.84H84.9005V35.928H75.1725V34.84ZM75.1725 31.272H76.4845V35.208H75.1725V31.272ZM76.7085 22.792C78.8685 22.792 80.4685 24.264 80.4685 26.36C80.4685 28.44 78.8685 29.928 76.7085 29.928C74.5485 29.928 72.9325 28.44 72.9325 26.36C72.9325 24.264 74.5485 22.792 76.7085 22.792ZM76.7085 23.944C75.3005 23.944 74.2285 24.936 74.2285 26.36C74.2285 27.768 75.3005 28.76 76.7085 28.76C78.1165 28.76 79.1885 27.768 79.1885 26.36C79.1885 24.936 78.1165 23.944 76.7085 23.944ZM97.2193 21.736H98.5473V29.72H97.2193V21.736ZM97.9873 25.208H100.691V26.328H97.9873V25.208ZM89.3633 30.456H98.5473V33.688H90.7073V35.448H89.3953V32.728H97.2513V31.464H89.3633V30.456ZM89.3953 35.064H99.0753V36.088H89.3953V35.064ZM87.3633 23.08H95.9073V24.12H87.3633V23.08ZM91.6353 24.76C93.7153 24.76 95.0913 25.672 95.0913 27.144C95.0913 28.6 93.7153 29.496 91.6353 29.496C89.5233 29.496 88.1633 28.6 88.1633 27.144C88.1633 25.672 89.5233 24.76 91.6353 24.76ZM91.6353 25.736C90.2913 25.736 89.4273 26.28 89.4273 27.144C89.4273 27.992 90.2913 28.536 91.6353 28.536C92.9633 28.536 93.8273 27.992 93.8273 27.144C93.8273 26.28 92.9633 25.736 91.6353 25.736ZM90.9633 21.624H92.2913V23.8H90.9633V21.624ZM112.124 22.296H113.292V23.096C113.292 25.864 110.476 27.848 107.468 28.36L106.94 27.288C109.58 26.888 112.124 25.16 112.124 23.096V22.296ZM112.364 22.296H113.516V23.096C113.516 25.112 116.092 26.888 118.7 27.288L118.172 28.36C115.196 27.848 112.364 25.832 112.364 23.096V22.296ZM112.124 30.744H113.436V36.248H112.124V30.744ZM106.284 29.928H119.356V31.032H106.284V29.928ZM128.838 30.68H129.862V31.464C129.862 33.352 128.678 35.256 126.598 36.056L125.926 35.064C127.75 34.408 128.838 32.856 128.838 31.464V30.68ZM129.126 30.68H130.118V31.464C130.118 32.92 130.982 34.472 132.71 35.176L132.15 36.184C130.07 35.368 129.126 33.384 129.126 31.464V30.68ZM134.182 30.68H135.174V31.464C135.174 33.16 134.214 35.304 132.15 36.184L131.59 35.176C133.302 34.392 134.182 32.712 134.182 31.464V30.68ZM134.454 30.68H135.478V31.464C135.478 32.952 136.55 34.44 138.39 35.064L137.718 36.056C135.606 35.288 134.454 33.464 134.454 31.464V30.68ZM135.75 21.8H137.094V30.056H135.75V21.8ZM129.334 22.632C131.526 22.632 133.094 24.008 133.094 26.008C133.094 28.008 131.526 29.368 129.334 29.368C127.142 29.368 125.558 28.008 125.558 26.008C125.558 24.008 127.142 22.632 129.334 22.632ZM129.334 23.736C127.894 23.736 126.854 24.664 126.854 26.008C126.854 27.352 127.894 28.264 129.334 28.264C130.774 28.264 131.814 27.352 131.814 26.008C131.814 24.664 130.774 23.736 129.334 23.736ZM143.812 22.888C145.908 22.888 147.412 24.856 147.412 27.928C147.412 31.016 145.908 32.984 143.812 32.984C141.7 32.984 140.212 31.016 140.212 27.928C140.212 24.856 141.7 22.888 143.812 22.888ZM143.812 24.088C142.42 24.088 141.476 25.592 141.476 27.928C141.476 30.28 142.42 31.816 143.812 31.816C145.204 31.816 146.148 30.28 146.148 27.928C146.148 25.592 145.204 24.088 143.812 24.088ZM150.548 21.768H151.86V36.264H150.548V21.768ZM146.98 27.288H151.124V28.376H146.98V27.288ZM157.875 29.224H159.187V33.56H157.875V29.224ZM163.219 29.224H164.547V33.56H163.219V29.224ZM154.675 33.304H167.779V34.408H154.675V33.304ZM161.203 22.696C164.259 22.696 166.451 24.152 166.451 26.424C166.451 28.68 164.259 30.136 161.203 30.136C158.131 30.136 155.939 28.68 155.939 26.424C155.939 24.152 158.131 22.696 161.203 22.696ZM161.203 23.752C158.883 23.752 157.219 24.808 157.219 26.424C157.219 28.024 158.883 29.08 161.203 29.08C163.523 29.08 165.171 28.024 165.171 26.424C165.171 24.808 163.523 23.752 161.203 23.752ZM171.878 23.3636L171.73 31.6534H170.156L170.009 23.3636H171.878ZM170.946 35.108C170.632 35.108 170.363 34.9981 170.139 34.7784C169.916 34.5549 169.806 34.286 169.81 33.9716C169.806 33.661 169.916 33.3958 170.139 33.1761C170.363 32.9527 170.632 32.8409 170.946 32.8409C171.253 32.8409 171.518 32.9527 171.741 33.1761C171.965 33.3958 172.079 33.661 172.082 33.9716C172.079 34.1799 172.024 34.3712 171.918 34.5455C171.815 34.7159 171.679 34.8523 171.509 34.9545C171.338 35.0568 171.151 35.108 170.946 35.108Z" fill="#575757"/>
</svg>
