<svg width="25" height="25" viewBox="0 0 25 25" fill="none" xmlns="http://www.w3.org/2000/svg">
<path d="M11.659 19.665H14.559V5.803H11.775C11.3883 6.17033 10.905 6.53767 10.325 6.905C9.76433 7.27233 9.165 7.601 8.527 7.891V10.733C9.01033 10.5203 9.53233 10.269 10.093 9.979C10.673 9.66967 11.195 9.312 11.659 8.906V19.665ZM12.5 24.595C10.8567 24.595 9.31 24.2857 7.86 23.667C6.41 23.0483 5.134 22.1977 4.032 21.115C2.94933 20.013 2.09867 18.737 1.48 17.287C0.861334 15.837 0.552 14.2903 0.552 12.647C0.552 11.0037 0.861334 9.46667 1.48 8.036C2.09867 6.586 2.94933 5.31 4.032 4.208C5.134 3.106 6.41 2.24567 7.86 1.627C9.31 1.00833 10.8567 0.698998 12.5 0.698998C14.1627 0.698998 15.7093 1.00833 17.14 1.627C18.59 2.24567 19.8563 3.106 20.939 4.208C22.041 5.31 22.9013 6.586 23.52 8.036C24.1387 9.46667 24.448 11.0037 24.448 12.647C24.448 14.2903 24.1387 15.837 23.52 17.287C22.9013 18.737 22.041 20.013 20.939 21.115C19.8563 22.1977 18.59 23.0483 17.14 23.667C15.7093 24.2857 14.1627 24.595 12.5 24.595Z" fill="black"/>
</svg>
