<svg width="278" height="31" viewBox="0 0 278 31" fill="none" xmlns="http://www.w3.org/2000/svg">
<path d="M3.29401 1.416C5.03001 1.416 6.45801 2.592 6.45801 4.356C6.45801 6.162 5.03001 7.268 3.29401 7.268C1.54401 7.268 0.116008 6.162 0.116008 4.37C0.116008 2.592 1.54401 1.416 3.29401 1.416ZM3.29401 2.284C2.06201 2.284 1.15201 3.152 1.15201 4.356C1.15201 5.574 2.06201 6.4 3.29401 6.4C4.56801 6.4 5.43601 5.574 5.43601 4.37C5.43601 3.152 4.58201 2.284 3.29401 2.284ZM11.26 5.336V6.232H9.39801V7.982H8.33401V0.744H9.39801V2.662H11.26V3.558H9.39801V5.336H11.26ZM9.41201 12.98H8.33401V9.466H1.51601V8.584H9.41201V12.98ZM23.1493 7.786H12.1033V6.89H17.0873V4.944H18.1513V6.89H23.1493V7.786ZM22.6453 4.664L22.1553 5.588C20.1253 5.21 18.2073 3.894 17.6193 2.718C17.1293 3.894 15.2673 5.21 13.1673 5.588L12.6633 4.692C14.7213 4.468 17.0873 3.068 17.0873 1.346V0.897999H18.1933V1.346C18.1933 3.068 20.8113 4.496 22.6453 4.664ZM13.2933 9.088H21.7913V13.064H20.7273V9.97H13.2933V9.088ZM35.2626 6.932H24.2166V6.036H35.2626V6.932ZM34.0306 3.04C34.0306 4.384 32.4066 5.154 29.7466 5.154C27.1146 5.154 25.4906 4.384 25.4906 3.04C25.4906 1.696 27.1146 0.911999 29.7466 0.911999C32.4066 0.911999 34.0306 1.696 34.0306 3.04ZM29.7466 1.78C27.8286 1.78 26.5826 2.27 26.5826 3.04C26.5826 3.796 27.8286 4.272 29.7466 4.272C31.6926 4.272 32.9526 3.796 32.9526 3.04C32.9526 2.27 31.6926 1.78 29.7466 1.78ZM34.2826 12.868H25.5046V9.956H32.8126V8.878H25.4766V8.024H33.8766V10.768H26.5686V12H34.2826V12.868ZM49.4016 12.84H41.6876V7.996H42.7516V9.522H48.3516V7.982H49.4016V12.84ZM40.1056 2.466V1.57H46.7276V2.466H43.9976C43.9976 2.648 43.9976 2.816 44.0116 2.97C44.1096 4.566 45.6076 5.952 47.0076 6.414L46.4056 7.268C45.2436 6.806 43.9136 5.672 43.4516 4.51C43.1156 5.658 41.7156 7.002 40.3996 7.562L39.7976 6.736C41.3376 6.148 42.8496 4.58 42.9056 2.956C42.9196 2.816 42.9196 2.648 42.9196 2.466H40.1056ZM48.3516 11.958V10.39H42.7516V11.958H48.3516ZM51.2636 4.636H49.4016V7.352H48.3376V0.744H49.4016V3.754H51.2636V4.636ZM63.1669 6.932H52.1209V6.036H63.1669V6.932ZM61.9349 3.04C61.9349 4.384 60.3109 5.154 57.6509 5.154C55.0189 5.154 53.3949 4.384 53.3949 3.04C53.3949 1.696 55.0189 0.911999 57.6509 0.911999C60.3109 0.911999 61.9349 1.696 61.9349 3.04ZM57.6509 1.78C55.7329 1.78 54.4869 2.27 54.4869 3.04C54.4869 3.796 55.7329 4.272 57.6509 4.272C59.5969 4.272 60.8569 3.796 60.8569 3.04C60.8569 2.27 59.5969 1.78 57.6509 1.78ZM62.1869 12.868H53.4089V9.956H60.7169V8.878H53.3809V8.024H61.7809V10.768H54.4729V12H62.1869V12.868ZM79.1679 4.216H77.3059V6.806H76.2419V0.744H77.3059V3.32H79.1679V4.216ZM77.7679 12.896H69.4659V9.732H76.2419V8.416H69.4519V7.548H77.3059V10.558H70.5439V12.014H77.7679V12.896ZM75.1079 4.958L75.2199 5.84C73.8199 6.148 71.3559 6.358 69.4099 6.386H68.3319V1.346H69.3959V5.476C71.4819 5.448 73.6799 5.28 75.1079 4.958ZM88.1452 9.228L87.4872 9.928C86.6192 9.228 85.8072 8.01 85.6112 7.086C85.4292 8.15 84.5472 9.704 83.5252 10.684L82.7692 10.012C84.3232 8.738 85.1072 6.484 85.1072 4.44V2.886H84.0432V2.004H87.6552V2.886H86.1292V4.398C86.1292 6.582 86.7592 8.15 88.1452 9.228ZM91.4492 6.582H89.6152V12.98H88.5512V0.744H89.6152V5.686H91.4492V6.582ZM84.0432 7.772L83.4412 8.556C83.0492 8.262 82.4752 7.534 82.2652 6.918C82.0552 7.926 81.2292 9.186 80.4032 9.914L79.6752 9.27C80.8512 8.318 81.7052 6.666 81.7052 4.454V2.886H80.1652V2.004H83.6652V2.886H82.7272V4.412C82.7272 6.246 83.3852 7.324 84.0432 7.772ZM95.7924 1.542C97.6824 1.542 99.1244 2.704 99.1244 4.482C99.1244 6.092 97.9484 7.17 96.3384 7.38V9.368C97.7104 9.284 98.9564 9.2 99.7404 9.088L99.8244 9.942C98.8584 10.082 97.1784 10.208 95.6944 10.306C94.3504 10.376 93.1464 10.418 92.1244 10.418L91.9284 9.48C92.8384 9.48 94.0284 9.48 95.2744 9.424V7.38C93.6504 7.198 92.4744 6.12 92.4744 4.496C92.4744 2.718 93.9024 1.542 95.7924 1.542ZM95.7924 2.452C94.4624 2.452 93.5104 3.25 93.5104 4.496C93.5104 5.728 94.4764 6.512 95.7924 6.512C97.1644 6.512 98.0744 5.728 98.0744 4.51C98.0744 3.25 97.1784 2.452 95.7924 2.452ZM103.534 6.764H101.574V12.98H100.496V0.744H101.574V5.868H103.534V6.764ZM118.009 12.98H116.931V0.744H118.009V12.98ZM115.377 9.228L114.705 10.04C113.599 9.284 112.157 7.772 111.681 6.302C111.233 7.828 109.973 9.326 108.559 10.334L107.859 9.536C109.651 8.416 111.121 6.19 111.121 4.02V1.808H112.199V3.978C112.199 6.218 113.683 8.22 115.377 9.228ZM131.313 5.476H129.451V9.9H128.387V0.744H129.451V4.58H131.313V5.476ZM129.829 12.672H121.751V8.892H122.815V11.79H129.829V12.672ZM120.463 1.822H126.035C125.895 5.154 123.627 7.492 120.505 8.486L119.959 7.59C122.591 6.918 124.565 4.972 124.873 2.718H120.463V1.822ZM142.474 12.98H141.424V6.456H139.786V12.35H138.75V1.038H139.786V5.56H141.424V0.744H142.474V12.98ZM133.598 8.906H133.962C135.194 8.906 137.028 8.822 138.064 8.598L138.162 9.466C137 9.69 134.942 9.83 133.346 9.83H132.534V2.242H137.28V3.138H133.598V8.906ZM144.003 13.232L144.521 10.502H145.795L144.759 13.232H144.003ZM158.259 4.216H155.445V4.3C155.445 5.868 156.957 7.17 158.497 7.534L157.923 8.388C156.845 8.066 155.417 7.002 154.899 5.882C154.549 6.974 153.205 8.248 151.791 8.752L151.217 7.898C152.841 7.408 154.367 5.882 154.367 4.314V4.216H151.581V3.334H158.259V4.216ZM161.395 12.686H153.177V9.018H154.241V11.79H161.395V12.686ZM161.101 9.732H160.037V0.744H161.101V9.732ZM156.579 2.172H153.247V1.276H156.579V2.172ZM172.823 1.654C172.823 3.32 172.781 5.182 172.375 7.072H174.265V7.968H169.267V12.98H168.203V7.968H163.219V7.072H171.311C171.647 5.756 171.717 3.74 171.717 2.536H164.521V1.654H172.823ZM186.378 6.848H175.332V5.994H186.378V6.848ZM185.328 12.77H176.634V9.872H183.886V8.738H176.62V7.898H184.95V10.656H177.698V11.93H185.328V12.77ZM185.132 4.972H176.676V1.29H184.992V2.158H177.754V4.118H185.132V4.972ZM198.491 6.932H187.445V6.036H198.491V6.932ZM197.259 3.04C197.259 4.384 195.635 5.154 192.975 5.154C190.343 5.154 188.719 4.384 188.719 3.04C188.719 1.696 190.343 0.911999 192.975 0.911999C195.635 0.911999 197.259 1.696 197.259 3.04ZM192.975 1.78C191.057 1.78 189.811 2.27 189.811 3.04C189.811 3.796 191.057 4.272 192.975 4.272C194.921 4.272 196.181 3.796 196.181 3.04C196.181 2.27 194.921 1.78 192.975 1.78ZM197.511 12.868H188.733V9.956H196.041V8.878H188.705V8.024H197.105V10.768H189.797V12H197.511V12.868ZM213.232 9.634H212.168V4.734H209.564V3.838H212.168V0.744H213.232V9.634ZM213.498 12.602H205.364V8.864H206.428V11.72H213.498V12.602ZM210.39 6.974L209.788 7.814C208.556 7.268 207.31 6.12 206.792 4.832C206.428 6.148 205.112 7.478 203.782 8.15L203.124 7.324C204.748 6.61 206.232 4.944 206.232 2.97V1.444H207.31V2.928C207.31 4.972 208.948 6.442 210.39 6.974ZM225.667 8.066H224.603V4.846H223.049V7.996H222.027V0.967999H223.049V3.964H224.603V0.744H225.667V8.066ZM216.973 6.456H217.323C218.723 6.456 220.137 6.358 221.089 6.148L221.243 7.03C220.039 7.268 218.387 7.366 216.707 7.366H215.923V1.654H220.655V2.536H216.973V3.992H220.459V4.846H216.973V6.456ZM217.407 8.71H225.667V12.98H224.589V9.606H217.407V8.71ZM237.781 12.98H236.731V6.638H235.261V12.364H234.225V1.038H235.261V5.742H236.731V0.744H237.781V12.98ZM233.301 7.758C233.301 9.228 232.209 10.194 230.627 10.194C229.059 10.194 227.953 9.158 227.953 7.758C227.953 6.274 229.059 5.308 230.627 5.308C232.209 5.308 233.301 6.288 233.301 7.758ZM232.279 7.758C232.279 6.82 231.593 6.204 230.627 6.204C229.661 6.204 228.989 6.82 228.989 7.758C228.989 8.71 229.661 9.312 230.627 9.312C231.593 9.312 232.279 8.682 232.279 7.758ZM233.525 4.608H227.435V3.726H233.525V4.608ZM232.209 2.606H228.863V1.682H232.209V2.606ZM250.104 5.672L249.6 6.568C247.598 6.218 245.652 4.986 245.092 3.838C244.602 4.986 242.698 6.246 240.612 6.596L240.122 5.7C242.124 5.49 244.49 4.202 244.546 2.494H240.584V1.612H249.6V2.494H245.666C245.722 4.216 248.228 5.462 250.104 5.672ZM245.61 12.98H244.546V8.598H239.576V7.702H250.622V8.598H245.61V12.98ZM262.049 12.98H260.999V0.744H262.049V12.98ZM259.627 12.364H258.591V6.05H256.421V5.154H258.591V1.038H259.627V12.364ZM257.849 9.116L257.191 9.9C256.253 9.228 254.965 7.772 254.573 6.386C254.307 7.786 253.299 9.382 252.081 10.264L251.423 9.466C252.809 8.584 254.041 6.498 254.041 4.104V1.878H255.091V4.076C255.091 6.456 256.519 8.234 257.849 9.116ZM273.729 4.734C273.729 6.624 271.965 7.884 269.305 7.884C266.673 7.884 264.909 6.624 264.909 4.734C264.909 2.844 266.673 1.556 269.305 1.556C271.979 1.556 273.729 2.844 273.729 4.734ZM272.707 4.734C272.707 3.362 271.363 2.438 269.305 2.438C267.275 2.438 265.931 3.362 265.931 4.734C265.931 6.106 267.275 7.03 269.305 7.03C271.349 7.03 272.707 6.106 272.707 4.734ZM274.849 11.426H263.803V10.53H266.533V8.248L267.597 8.22V10.53H271.013V8.22L272.077 8.248V10.53H274.849V11.426ZM275.972 11.762V10.516H277.19V11.762H275.972ZM49.7438 25.304H48.6798V17.744H49.7438V25.304ZM49.8418 27.698C49.8418 29.084 48.3438 29.966 45.6838 29.966C43.0238 29.966 41.5118 29.084 41.5118 27.698C41.5118 26.284 43.0238 25.402 45.6838 25.402C48.3438 25.402 49.8418 26.284 49.8418 27.698ZM45.6838 26.242C43.7518 26.242 42.6178 26.788 42.6178 27.698C42.6178 28.594 43.7518 29.126 45.6838 29.126C47.6158 29.126 48.7498 28.594 48.7498 27.698C48.7498 26.788 47.6158 26.242 45.6838 26.242ZM47.1538 23.386L47.2798 24.254C46.0198 24.464 43.8358 24.59 41.6658 24.604H40.3078V21.02H44.8998V19.41H40.2938V18.528H45.9638V21.874H41.3718V23.708C43.2898 23.708 45.8938 23.638 47.1538 23.386ZM61.4931 19.088V20.656C61.4791 22.294 61.2971 25.094 60.9331 26.648L59.9111 26.508C60.0371 25.934 60.1911 24.674 60.2751 23.4L53.0371 23.778L52.8271 22.84L60.3311 22.574C60.3591 22.084 60.3871 21.636 60.3871 21.23V19.97H53.2051V19.088H61.4931ZM62.9071 28.202H51.8611V27.306H62.9071V28.202ZM77.5361 27.67C77.5361 29.042 76.0101 29.868 73.1541 29.868C70.2981 29.868 68.7441 29.042 68.7441 27.67C68.7441 26.298 70.2981 25.458 73.1541 25.458C76.0101 25.458 77.5361 26.298 77.5361 27.67ZM76.4861 27.67C76.4861 26.83 75.1981 26.326 73.1541 26.326C71.0821 26.326 69.8081 26.83 69.8081 27.67C69.8081 28.524 71.0821 29.014 73.1541 29.014C75.1981 29.014 76.4861 28.524 76.4861 27.67ZM78.6981 24.464H67.6521V23.582H72.2021V20.992H73.2661V23.582H78.6981V24.464ZM77.3961 18.416V19.508C77.3961 20.53 77.2421 22.014 77.0461 22.77L75.9961 22.63C76.1921 21.958 76.2761 20.852 76.2901 20.292L76.3041 19.298H68.8701V18.416H77.3961ZM89.6354 20.964C89.6354 22.532 87.9974 23.61 85.2814 23.61C82.5794 23.61 80.9414 22.546 80.9414 20.964C80.9414 19.368 82.5794 18.304 85.2814 18.304C87.9974 18.304 89.6354 19.368 89.6354 20.964ZM83.6854 29.98H82.6214V25.64H79.7654V24.744H90.8114V25.64H87.9134V29.98H86.8494V25.64H83.6854V29.98ZM85.2814 19.242C83.2514 19.242 81.9914 19.914 81.9914 20.964C81.9914 22 83.2514 22.672 85.2814 22.672C87.3394 22.672 88.5854 22 88.5854 20.964C88.5854 19.914 87.3394 19.242 85.2814 19.242ZM102.925 24.268H91.8787V23.442H102.925V24.268ZM102.001 29.756H93.1527V27.04H100.559V26.018H93.1667V25.234H101.623V27.796H94.2167V28.916H102.001V29.756ZM101.791 22.476H93.2787V19.942H100.489V18.99H93.2647V18.15H101.553V20.712H94.3427V21.678H101.791V22.476ZM117.414 23.092H113.718V24.254H118.716V25.136H107.67V24.254H112.654V23.092H109V18.248H117.33V19.102H110.064V20.236H117.12V21.048H110.064V22.252H117.414V23.092ZM117.484 27.95C117.484 29.266 115.986 30.008 113.186 30.008C110.4 30.008 108.916 29.238 108.916 27.95C108.916 26.676 110.4 25.878 113.186 25.878C115.986 25.878 117.484 26.606 117.484 27.95ZM113.186 26.732C111.212 26.732 109.994 27.194 109.994 27.95C109.994 28.706 111.212 29.14 113.186 29.14C115.174 29.14 116.406 28.706 116.406 27.95C116.406 27.194 115.174 26.732 113.186 26.732ZM131.053 22.784H129.191V26.774H128.127V17.744H129.191V21.888H131.053V22.784ZM129.667 29.588H121.519V26.452H122.583V28.692H129.667V29.588ZM125.005 19.116H121.477V18.178H125.005V19.116ZM126.895 20.922H119.727V20.04H126.895V20.922ZM126.195 23.722C126.195 25.01 124.963 25.864 123.311 25.864C121.687 25.864 120.441 25.01 120.441 23.722C120.441 22.406 121.673 21.58 123.311 21.58C124.963 21.58 126.195 22.406 126.195 23.722ZM125.187 23.722C125.187 22.91 124.305 22.42 123.311 22.42C122.331 22.42 121.449 22.91 121.449 23.722C121.449 24.52 122.331 25.01 123.311 25.01C124.305 25.01 125.187 24.52 125.187 23.722ZM146.186 24.562L145.71 25.486C143.694 25.122 141.734 23.96 141.09 22.63C140.558 23.974 138.584 25.136 136.47 25.528L136.022 24.632C138.01 24.408 140.348 23.008 140.544 21.44H136.582V20.544H145.598V21.44H141.664C141.874 23.008 144.366 24.394 146.186 24.562ZM146.62 28.426H135.574V27.53H140.544V24.744H141.608V27.53H146.62V28.426ZM143.092 19.172H139.088V18.206H143.092V19.172ZM158.005 29.98H156.955V23.456H155.317V29.35H154.281V18.038H155.317V22.56H156.955V17.744H158.005V29.98ZM149.129 25.906H149.493C150.725 25.906 152.559 25.822 153.595 25.598L153.693 26.466C152.531 26.69 150.473 26.83 148.877 26.83H148.065V19.242H152.811V20.138H149.129V25.906ZM170.847 28.426H159.801V27.53H164.771V24.534H161.131V18.78H169.531V19.662H162.209V23.652H169.601V24.534H165.835V27.53H170.847V28.426ZM185 17.744V22.84H187.002V23.75H185V29.98H183.936V17.744H185ZM181.822 19.06C181.752 23.036 179.456 25.906 176.306 27.544L175.648 26.704C178.7 25.29 180.45 22.714 180.674 19.956H176.068V19.06H181.822ZM198.751 24.338H187.705V23.456H198.751V24.338ZM197.477 22.126H189.245V18.066H190.309V21.244H197.477V22.126ZM197.547 27.628C197.547 29.098 195.909 29.91 193.249 29.91C190.575 29.91 188.965 29.098 188.965 27.628C188.965 26.172 190.575 25.36 193.235 25.36C195.909 25.36 197.547 26.172 197.547 27.628ZM193.235 26.228C191.317 26.228 190.043 26.676 190.043 27.628C190.043 28.58 191.317 29.028 193.235 29.028C195.181 29.028 196.469 28.58 196.469 27.628C196.469 26.676 195.181 26.228 193.235 26.228ZM211.088 22.098H209.226V24.842H208.162V17.744H209.226V21.202H211.088V22.098ZM209.226 29.896H201.526V25.444H202.59V26.746H208.162V25.43H209.226V29.896ZM208.162 29V27.628H202.59V29H208.162ZM205.096 18.808H201.568V17.912H205.096V18.808ZM206.888 20.53H199.762V19.662H206.888V20.53ZM206.174 23.008C206.174 24.212 204.984 24.982 203.332 24.982C201.666 24.982 200.49 24.212 200.49 23.008C200.49 21.776 201.638 21.02 203.332 21.02C204.984 21.02 206.174 21.776 206.174 23.008ZM205.096 23.008C205.096 22.294 204.284 21.874 203.332 21.874C202.38 21.874 201.54 22.294 201.54 23.008C201.54 23.708 202.394 24.142 203.332 24.142C204.284 24.142 205.096 23.708 205.096 23.008ZM221.843 17.744V29.98H220.793V17.744H221.843ZM219.547 25.486L219.645 26.41C218.231 26.732 215.039 26.97 213.163 26.97H212.617V19.018H213.695V26.032C215.263 26.032 218.091 25.808 219.547 25.486ZM233.481 17.744V22.602H235.469V23.498H233.481V29.98H232.417V17.744H233.481ZM225.599 26.074H226.299C227.881 26.074 230.303 25.934 231.479 25.682L231.591 26.564C230.275 26.816 227.853 26.984 225.725 26.984H224.521V19.018H230.331V19.914H225.599V26.074ZM236.214 28.762V27.516H237.432V28.762H236.214Z" fill="black"/>
</svg>
