<svg width="104" height="21" viewBox="0 0 104 21" fill="none" xmlns="http://www.w3.org/2000/svg">
<path d="M15.016 3.226H18.536V5.624H15.016V3.226ZM15.016 7.648H18.536V10.046H15.016V7.648ZM12.992 0.586H15.918V12.598H12.992V0.586ZM2.322 13.434H15.918V20.958H12.992V15.766H2.322V13.434ZM5.556 1.686C8.702 1.686 11.1 3.776 11.1 6.68C11.1 9.584 8.702 11.652 5.556 11.652C2.41 11.652 0.0120001 9.584 0.0120001 6.68C0.0120001 3.776 2.41 1.686 5.556 1.686ZM5.556 4.172C4.016 4.172 2.872 5.074 2.872 6.68C2.872 8.286 4.016 9.21 5.556 9.21C7.096 9.21 8.24 8.286 8.24 6.68C8.24 5.074 7.096 4.172 5.556 4.172ZM20.1183 10.464H38.5543V12.796H20.1183V10.464ZM27.8403 7.824H30.7443V11.476H27.8403V7.824ZM27.7963 0.937999H30.3043V1.554C30.3043 5.316 27.3123 8.264 22.1203 9.012L21.0423 6.724C25.6183 6.174 27.7963 3.842 27.7963 1.554V0.937999ZM28.2803 0.937999H30.7883V1.554C30.7883 3.93 32.9223 6.174 37.5423 6.724L36.4643 9.012C31.2723 8.242 28.2803 5.404 28.2803 1.554V0.937999ZM22.1643 14.226H36.3103V20.958H33.3843V16.514H22.1643V14.226ZM46.4076 2.258H56.1096V12.092H46.4076V2.258ZM53.2276 4.568H49.2896V9.782H53.2276V4.568ZM58.9256 0.586H61.8516V15.436H58.9256V0.586ZM61.0156 6.46H64.5576V8.858H61.0156V6.46ZM48.7176 18.274H62.5776V20.606H48.7176V18.274ZM48.7176 13.984H51.6436V19.44H48.7176V13.984ZM66.0739 8.484H84.5099V10.794H66.0739V8.484ZM68.3399 5.096H82.3319V7.384H68.3399V5.096ZM68.3399 0.959999H82.1559V3.292H71.2439V7.076H68.3399V0.959999ZM68.1639 11.938H82.2439V17.328H71.0679V19.088H68.1859V15.26H79.3619V14.138H68.1639V11.938ZM68.1859 18.56H82.7719V20.804H68.1859V18.56ZM100.326 0.586H103.274V20.958H100.326V0.586ZM94.3202 2.698H97.2242C97.2242 8.924 95.1122 14.028 87.8742 17.526L86.3562 15.194C92.2082 12.378 94.3202 8.682 94.3202 3.226V2.698ZM87.4342 2.698H95.7062V5.008H87.4342V2.698Z" fill="black"/>
</svg>
