<svg width="20" height="25" viewBox="0 0 20 25" fill="none" xmlns="http://www.w3.org/2000/svg">
<path d="M10.6551 18.5V12.48C10.6551 11.822 10.7111 10.828 10.7391 10.156H10.6831C10.4171 10.758 10.1371 11.36 9.84314 11.948L8.65314 14.006H14.1271V15.896H6.27314V14.174L9.89914 8.07H12.9791V18.5H10.6551Z" fill="black"/>
<path d="M20 13.5C20 19.0228 15.5228 23.5 10 23.5C4.47715 23.5 0 19.0228 0 13.5C0 7.97715 4.47715 3.5 10 3.5C15.5228 3.5 20 7.97715 20 13.5ZM2.3 13.5C2.3 17.7526 5.74741 21.2 10 21.2C14.2526 21.2 17.7 17.7526 17.7 13.5C17.7 9.24741 14.2526 5.8 10 5.8C5.74741 5.8 2.3 9.24741 2.3 13.5Z" fill="black"/>
</svg>
