<svg width="41" height="22" viewBox="0 0 41 22" fill="none" xmlns="http://www.w3.org/2000/svg">
<mask id="mask0_940_2370" style="mask-type:alpha" maskUnits="userSpaceOnUse" x="0" y="0" width="41" height="22">
<rect width="22" height="40.2069" rx="3" transform="matrix(0 -1 -1 0 40.207 22)" fill="#D9D9D9"/>
</mask>
<g mask="url(#mask0_940_2370)">
<path d="M5.64015 6.08115C4.65053 6.62264 4.65053 8.04402 5.64015 8.58552L18.6645 15.7121C19.5618 16.203 20.6473 16.203 21.5446 15.7121L34.5689 8.58552C35.5586 8.04403 35.5586 6.62264 34.5689 6.08115V6.08115C34.142 5.84756 33.6255 5.84756 33.1986 6.08115L21.5446 12.4579C20.6473 12.9488 19.5618 12.9488 18.6645 12.4579L7.01047 6.08115C6.58356 5.84756 6.06706 5.84756 5.64015 6.08115V6.08115Z" fill="#1C1B1F"/>
</g>
</svg>
