<svg width="25" height="25" viewBox="0 0 25 25" fill="none" xmlns="http://www.w3.org/2000/svg">
<path d="M12.471 19.7774C14.0757 19.7774 15.3613 19.4101 16.328 18.6754C17.2947 17.9408 17.778 16.9064 17.778 15.5724C17.778 14.6444 17.5363 13.8808 17.053 13.2814C16.5697 12.6821 15.864 12.2858 14.936 12.0924C15.806 11.8604 16.4633 11.4738 16.908 10.9324C17.3527 10.3911 17.575 9.68544 17.575 8.81544C17.575 7.5201 17.1303 6.5341 16.241 5.85744C15.3517 5.16144 14.2013 4.81344 12.79 4.81344C11.1467 4.81344 9.89967 5.19044 9.049 5.94444C8.19833 6.6791 7.773 7.59744 7.773 8.69944V8.78644H10.47C10.4893 8.26444 10.702 7.84877 11.108 7.53944C11.514 7.2301 12.0457 7.07544 12.703 7.07544C13.341 7.07544 13.8437 7.23977 14.211 7.56844C14.5783 7.87777 14.762 8.34177 14.762 8.96044C14.762 9.36644 14.675 9.7241 14.501 10.0334C14.327 10.3428 14.0467 10.5844 13.66 10.7584C13.2927 10.9324 12.7997 11.0194 12.181 11.0194H11.282V13.2814H12.123C13.051 13.2814 13.747 13.4844 14.211 13.8904C14.6943 14.2771 14.936 14.8088 14.936 15.4854C14.936 16.1234 14.733 16.6261 14.327 16.9934C13.921 17.3414 13.341 17.5154 12.587 17.5154C11.8717 17.5154 11.311 17.3414 10.905 16.9934C10.499 16.6454 10.296 16.1331 10.296 15.4564H7.512V15.9204C7.512 17.0998 7.95667 18.0374 8.846 18.7334C9.73533 19.4294 10.9437 19.7774 12.471 19.7774ZM12.5 24.2434C10.8567 24.2434 9.31 23.9341 7.86 23.3154C6.41 22.6968 5.134 21.8461 4.032 20.7634C2.94933 19.6614 2.09867 18.3854 1.48 16.9354C0.861334 15.4854 0.552 13.9388 0.552 12.2954C0.552 10.6521 0.861334 9.1151 1.48 7.68444C2.09867 6.23444 2.94933 4.95844 4.032 3.85644C5.134 2.75444 6.41 1.8941 7.86 1.27544C9.31 0.656769 10.8567 0.347436 12.5 0.347436C14.1627 0.347436 15.7093 0.656769 17.14 1.27544C18.59 1.8941 19.8563 2.75444 20.939 3.85644C22.041 4.95844 22.9013 6.23444 23.52 7.68444C24.1387 9.1151 24.448 10.6521 24.448 12.2954C24.448 13.9388 24.1387 15.4854 23.52 16.9354C22.9013 18.3854 22.041 19.6614 20.939 20.7634C19.8563 21.8461 18.59 22.6968 17.14 23.3154C15.7093 23.9341 14.1627 24.2434 12.5 24.2434Z" fill="black"/>
</svg>
