<svg width="80" height="37" viewBox="0 0 80 37" fill="none" xmlns="http://www.w3.org/2000/svg">
<rect width="80" height="37" rx="10" fill="#D9D9D9"/>
<path d="M14.4714 25.224C12.2314 25.224 10.8074 23.192 10.8074 19.096C10.8074 15.032 12.2314 13.064 14.4714 13.064C16.6794 13.064 18.1034 15.032 18.1034 19.096C18.1034 23.192 16.6794 25.224 14.4714 25.224ZM14.4714 24.04C15.7994 24.04 16.6954 22.552 16.6954 19.096C16.6954 15.688 15.7994 14.232 14.4714 14.232C13.1274 14.232 12.2154 15.688 12.2154 19.096C12.2154 22.552 13.1274 24.04 14.4714 24.04ZM22.6424 25.224C21.3624 25.224 20.4664 24.712 19.8104 24.024L20.6264 23.096C21.1224 23.672 21.8424 24.008 22.5944 24.008C24.1624 24.008 25.5224 22.648 25.5224 18.632C25.5224 15.752 24.6104 14.2 22.9624 14.2C21.8424 14.2 20.9784 15.256 20.9784 16.872C20.9784 18.44 21.6824 19.48 23.0744 19.48C23.8584 19.48 24.7704 19.016 25.5384 17.848L25.6184 19.016C24.8824 19.944 23.8424 20.552 22.8344 20.552C20.8664 20.552 19.6024 19.304 19.6024 16.872C19.6024 14.6 21.1384 13.064 22.9624 13.064C25.2184 13.064 26.8984 14.904 26.8984 18.632C26.8984 23.4 24.8504 25.224 22.6424 25.224ZM29.9814 18.76C29.4054 18.76 28.9414 18.312 28.9414 17.656C28.9414 16.984 29.4054 16.536 29.9814 16.536C30.5734 16.536 31.0534 16.984 31.0534 17.656C31.0534 18.312 30.5734 18.76 29.9814 18.76ZM29.9814 25.224C29.4054 25.224 28.9414 24.76 28.9414 24.104C28.9414 23.432 29.4054 22.984 29.9814 22.984C30.5734 22.984 31.0534 23.432 31.0534 24.104C31.0534 24.76 30.5734 25.224 29.9814 25.224ZM36.6746 25.224C34.4346 25.224 33.0106 23.192 33.0106 19.096C33.0106 15.032 34.4346 13.064 36.6746 13.064C38.8826 13.064 40.3066 15.032 40.3066 19.096C40.3066 23.192 38.8826 25.224 36.6746 25.224ZM36.6746 24.04C38.0026 24.04 38.8986 22.552 38.8986 19.096C38.8986 15.688 38.0026 14.232 36.6746 14.232C35.3306 14.232 34.4186 15.688 34.4186 19.096C34.4186 22.552 35.3306 24.04 36.6746 24.04ZM45.5496 25.224C43.3096 25.224 41.8856 23.192 41.8856 19.096C41.8856 15.032 43.3096 13.064 45.5496 13.064C47.7576 13.064 49.1816 15.032 49.1816 19.096C49.1816 23.192 47.7576 25.224 45.5496 25.224ZM45.5496 24.04C46.8776 24.04 47.7736 22.552 47.7736 19.096C47.7736 15.688 46.8776 14.232 45.5496 14.232C44.2056 14.232 43.2936 15.688 43.2936 19.096C43.2936 22.552 44.2056 24.04 45.5496 24.04Z" fill="#D9D9D9"/>
<mask id="mask0_928_1604" style="mask-type:alpha" maskUnits="userSpaceOnUse" x="59" y="14" width="9" height="9">
<rect width="9" height="9" rx="1" transform="matrix(0 -1 -1 0 68 23)" fill="#D9D9D9"/>
</mask>
<g mask="url(#mask0_928_1604)">
<path d="M60.0838 16.6672C59.9 16.851 59.9 17.149 60.0838 17.3328L62.7939 20.0429C63.1844 20.4334 63.8176 20.4334 64.2081 20.0429L66.9182 17.3328C67.102 17.149 67.102 16.851 66.9182 16.6672V16.6672C66.7344 16.4834 66.4363 16.4834 66.2525 16.6672L64.2081 18.7116C63.8176 19.1022 63.1844 19.1022 62.7939 18.7116L60.7494 16.6672C60.5656 16.4834 60.2676 16.4834 60.0838 16.6672V16.6672Z" fill="#1C1B1F"/>
</g>
</svg>
