<svg width="316" height="125" viewBox="0 0 316 125" fill="none" xmlns="http://www.w3.org/2000/svg">
<mask id="mask0_928_2216" style="mask-type:alpha" maskUnits="userSpaceOnUse" x="16" y="12" width="23" height="23">
<rect x="16" y="12" width="23" height="23" rx="1" fill="#D9D9D9"/>
</mask>
<g mask="url(#mask0_928_2216)">
<path d="M24.5925 29.3407C24.2002 29.7421 23.5544 29.7421 23.1621 29.3407L18.4721 24.5416C18.0924 24.153 18.0924 23.5323 18.4721 23.1437L18.5959 23.017C18.9882 22.6156 19.634 22.6156 20.0263 23.017L23.1621 26.2258C23.5544 26.6272 24.2002 26.6272 24.5925 26.2258L32.9621 17.6615C33.3544 17.2601 34.0002 17.2601 34.3925 17.6615L34.5163 17.7882C34.896 18.1768 34.896 18.7975 34.5163 19.1861L24.5925 29.3407Z" fill="#1C1B1F"/>
</g>
<rect x="1" y="1" width="314" height="123" rx="13" stroke="#6041FF" stroke-width="2"/>
</svg>
