<svg width="84" height="50" viewBox="0 0 84 50" fill="none" xmlns="http://www.w3.org/2000/svg">
<g filter="url(#filter0_d_2462_874)">
<rect x="10" y="9" width="217" height="30" rx="9" fill="white"/>
<path d="M63.454 17.422H64.602V30.106H63.454V17.422ZM60.724 22.042H63.79V22.994H60.724V22.042ZM57.406 19.242H58.344V21.132C58.344 23.862 56.776 26.564 54.774 27.6L54.088 26.676C55.908 25.78 57.406 23.386 57.406 21.132V19.242ZM57.644 19.242H58.568V21.132C58.568 23.246 60.038 25.556 61.872 26.424L61.186 27.334C59.184 26.34 57.644 23.736 57.644 21.132V19.242ZM54.55 18.724H61.438V19.69H54.55V18.724ZM67.8069 18.206H68.9689V23.778H67.8069V18.206ZM67.8069 23.526H68.7449C70.8589 23.526 72.3849 23.428 74.1349 23.078L74.2889 24.044C72.4829 24.408 70.9149 24.506 68.7449 24.506H67.8069V23.526ZM69.0109 25.696H77.4809V30.092H76.3189V26.648H69.0109V25.696ZM76.3189 17.436H77.4809V25.08H76.3189V17.436ZM72.7769 18.962H76.6409V19.872H72.7769V18.962ZM72.7769 21.272H76.6409V22.182H72.7769V21.272ZM80.6896 23.9091C80.6896 22.6629 80.8537 21.5161 81.1818 20.4688C81.5099 19.4214 81.9889 18.4553 82.6186 17.5703H83.9808C83.7356 17.8984 83.5069 18.3011 83.2947 18.7784C83.0826 19.2557 82.897 19.7794 82.7379 20.3494C82.5788 20.9162 82.4545 21.5045 82.3651 22.1143C82.2756 22.7209 82.2308 23.3191 82.2308 23.9091C82.2308 24.6979 82.3087 25.4967 82.4645 26.3054C82.6203 27.1141 82.8307 27.8648 83.0959 28.5575C83.361 29.2502 83.656 29.8153 83.9808 30.2528H82.6186C81.9889 29.3679 81.5099 28.4018 81.1818 27.3544C80.8537 26.3071 80.6896 25.1586 80.6896 23.9091ZM89.3912 18.8182V29H87.85V20.3594H87.7903L85.3542 21.9503V20.4787L87.8947 18.8182H89.3912ZM95.5858 29.1392C94.8732 29.1392 94.2434 29.0166 93.6966 28.7713C93.153 28.526 92.7271 28.188 92.4189 27.7571C92.1106 27.3262 91.9582 26.8357 91.9615 26.2855C91.9582 25.8546 92.046 25.4586 92.225 25.0973C92.4073 24.7327 92.6542 24.4295 92.9657 24.1875C93.2773 23.9422 93.6253 23.7865 94.0098 23.7202V23.6605C93.5027 23.5379 93.0967 23.2661 92.7917 22.8452C92.4868 22.4242 92.336 21.9403 92.3393 21.3935C92.336 20.8731 92.4735 20.4091 92.752 20.0014C93.0337 19.5904 93.4198 19.2673 93.9103 19.032C94.4009 18.7966 94.9593 18.679 95.5858 18.679C96.2056 18.679 96.7591 18.7983 97.2463 19.0369C97.7368 19.2723 98.1229 19.5954 98.4047 20.0064C98.6864 20.4141 98.8289 20.8764 98.8322 21.3935C98.8289 21.9403 98.6731 22.4242 98.3649 22.8452C98.0566 23.2661 97.6556 23.5379 97.1618 23.6605V23.7202C97.5429 23.7865 97.8859 23.9422 98.1909 24.1875C98.4991 24.4295 98.7444 24.7327 98.9267 25.0973C99.1123 25.4586 99.2067 25.8546 99.21 26.2855C99.2067 26.8357 99.051 27.3262 98.7427 27.7571C98.4345 28.188 98.0069 28.526 97.46 28.7713C96.9165 29.0166 96.2917 29.1392 95.5858 29.1392ZM95.5858 27.8814C96.0067 27.8814 96.3713 27.8118 96.6795 27.6726C96.9877 27.5301 97.2264 27.3329 97.3954 27.081C97.5645 26.8258 97.6506 26.5275 97.6539 26.1861C97.6506 25.8314 97.5578 25.5182 97.3755 25.2464C97.1966 24.9747 96.9529 24.7609 96.6447 24.6051C96.3365 24.4493 95.9835 24.3714 95.5858 24.3714C95.1847 24.3714 94.8284 24.4493 94.5169 24.6051C94.2053 24.7609 93.96 24.9747 93.7811 25.2464C93.6021 25.5182 93.5143 25.8314 93.5176 26.1861C93.5143 26.5275 93.5955 26.8258 93.7612 27.081C93.9302 27.3329 94.1705 27.5301 94.4821 27.6726C94.7936 27.8118 95.1615 27.8814 95.5858 27.8814ZM95.5858 23.1435C95.9238 23.1435 96.2238 23.0755 96.4856 22.9396C96.7475 22.8037 96.9529 22.6148 97.1021 22.3729C97.2546 22.1309 97.3324 21.8475 97.3358 21.5227C97.3324 21.2045 97.2562 20.9261 97.1071 20.6875C96.9612 20.4489 96.7574 20.2649 96.4956 20.1357C96.2337 20.0031 95.9305 19.9368 95.5858 19.9368C95.2344 19.9368 94.9262 20.0031 94.661 20.1357C94.3992 20.2649 94.1954 20.4489 94.0495 20.6875C93.9037 20.9261 93.8324 21.2045 93.8358 21.5227C93.8324 21.8475 93.9054 22.1309 94.0545 22.3729C94.2037 22.6148 94.4092 22.8037 94.671 22.9396C94.9361 23.0755 95.2411 23.1435 95.5858 23.1435ZM101.99 27.7372C101.719 27.7372 101.485 27.6411 101.289 27.4489C101.094 27.2533 100.996 27.018 100.996 26.7429C100.996 26.4711 101.094 26.2391 101.289 26.0469C101.485 25.8513 101.719 25.7536 101.99 25.7536C102.262 25.7536 102.496 25.8513 102.691 26.0469C102.887 26.2391 102.985 26.4711 102.985 26.7429C102.985 26.9252 102.938 27.0926 102.846 27.245C102.756 27.3942 102.637 27.5135 102.488 27.603C102.338 27.6925 102.173 27.7372 101.99 27.7372ZM101.99 22.6364C101.719 22.6364 101.485 22.5402 101.289 22.348C101.094 22.1525 100.996 21.9171 100.996 21.642C100.996 21.3703 101.094 21.1383 101.289 20.946C101.485 20.7505 101.719 20.6527 101.99 20.6527C102.262 20.6527 102.496 20.7505 102.691 20.946C102.887 21.1383 102.985 21.3703 102.985 21.642C102.985 21.8243 102.938 21.9917 102.846 22.1442C102.756 22.2933 102.637 22.4126 102.488 22.5021C102.338 22.5916 102.173 22.6364 101.99 22.6364ZM108.501 29.169C107.715 29.1657 107.044 28.9586 106.487 28.5476C105.93 28.1366 105.504 27.5384 105.21 26.7528C104.915 25.9673 104.767 25.0211 104.767 23.9141C104.767 22.8104 104.915 21.8674 105.21 21.0852C105.508 20.303 105.935 19.7064 106.492 19.2955C107.052 18.8845 107.722 18.679 108.501 18.679C109.28 18.679 109.947 18.8861 110.504 19.3004C111.061 19.7114 111.487 20.308 111.782 21.0902C112.08 21.8691 112.229 22.8104 112.229 23.9141C112.229 25.0244 112.082 25.9723 111.787 26.7578C111.492 27.54 111.066 28.1383 110.509 28.5526C109.952 28.9635 109.283 29.169 108.501 29.169ZM108.501 27.8416C109.19 27.8416 109.729 27.5052 110.116 26.8324C110.508 26.1596 110.703 25.1868 110.703 23.9141C110.703 23.0689 110.614 22.3546 110.435 21.7713C110.259 21.1847 110.005 20.7405 109.674 20.4389C109.346 20.134 108.955 19.9815 108.501 19.9815C107.815 19.9815 107.276 20.3196 106.885 20.9957C106.494 21.6719 106.297 22.6446 106.293 23.9141C106.293 24.7625 106.381 25.4801 106.557 26.0668C106.736 26.6501 106.989 27.0926 107.317 27.3942C107.646 27.6925 108.04 27.8416 108.501 27.8416ZM117.538 29.169C116.752 29.1657 116.081 28.9586 115.524 28.5476C114.968 28.1366 114.542 27.5384 114.247 26.7528C113.952 25.9673 113.804 25.0211 113.804 23.9141C113.804 22.8104 113.952 21.8674 114.247 21.0852C114.545 20.303 114.972 19.7064 115.529 19.2955C116.089 18.8845 116.759 18.679 117.538 18.679C118.317 18.679 118.985 18.8861 119.541 19.3004C120.098 19.7114 120.524 20.308 120.819 21.0902C121.117 21.8691 121.267 22.8104 121.267 23.9141C121.267 25.0244 121.119 25.9723 120.824 26.7578C120.529 27.54 120.103 28.1383 119.546 28.5526C118.99 28.9635 118.32 29.169 117.538 29.169ZM117.538 27.8416C118.227 27.8416 118.766 27.5052 119.154 26.8324C119.545 26.1596 119.74 25.1868 119.74 23.9141C119.74 23.0689 119.651 22.3546 119.472 21.7713C119.296 21.1847 119.043 20.7405 118.711 20.4389C118.383 20.134 117.992 19.9815 117.538 19.9815C116.852 19.9815 116.313 20.3196 115.922 20.9957C115.531 21.6719 115.334 22.6446 115.33 23.9141C115.33 24.7625 115.418 25.4801 115.594 26.0668C115.773 26.6501 116.026 27.0926 116.355 27.3942C116.683 27.6925 117.077 27.8416 117.538 27.8416ZM126.879 25.0327C126.866 24.4593 126.951 23.9886 127.133 23.6207C127.319 23.2528 127.567 22.9811 127.879 22.8054C128.19 22.6264 128.533 22.5369 128.908 22.5369C129.239 22.5369 129.546 22.6082 129.828 22.7507C130.109 22.8899 130.431 23.1186 130.792 23.4368C131.017 23.6323 131.201 23.7749 131.344 23.8643C131.486 23.9505 131.646 23.9936 131.821 23.9936C132.09 23.9936 132.303 23.8942 132.463 23.6953C132.625 23.4931 132.703 23.1948 132.696 22.8004H133.954C133.967 23.3771 133.881 23.8494 133.695 24.2173C133.513 24.5852 133.265 24.857 132.95 25.0327C132.638 25.2083 132.297 25.2962 131.926 25.2962C131.591 25.2962 131.283 25.2249 131.001 25.0824C130.719 24.9366 130.399 24.7079 130.041 24.3963C129.809 24.1941 129.624 24.0516 129.485 23.9688C129.345 23.8826 129.188 23.8395 129.012 23.8395C128.757 23.8395 128.545 23.9323 128.376 24.1179C128.21 24.3002 128.131 24.6051 128.137 25.0327H126.879ZM139.765 29V27.8864L143.21 24.3168C143.578 23.929 143.881 23.5893 144.12 23.2976C144.362 23.0026 144.542 22.7225 144.662 22.4574C144.781 22.1922 144.841 21.9105 144.841 21.6122C144.841 21.2741 144.761 20.9825 144.602 20.7372C144.443 20.4886 144.226 20.2981 143.951 20.1655C143.676 20.0296 143.366 19.9616 143.021 19.9616C142.656 19.9616 142.338 20.0362 142.066 20.1854C141.795 20.3345 141.586 20.545 141.44 20.8168C141.294 21.0885 141.221 21.4067 141.221 21.7713H139.755C139.755 21.1515 139.897 20.6096 140.182 20.1456C140.467 19.6816 140.858 19.322 141.355 19.0668C141.853 18.8082 142.418 18.679 143.051 18.679C143.69 18.679 144.254 18.8066 144.741 19.0618C145.232 19.3137 145.614 19.6584 145.89 20.0959C146.165 20.5301 146.302 21.0206 146.302 21.5675C146.302 21.9453 146.231 22.3149 146.088 22.6761C145.949 23.0374 145.706 23.4401 145.358 23.8842C145.01 24.325 144.526 24.8603 143.906 25.4901L141.882 27.608V27.6825H146.466V29H139.765ZM151.895 29.1392C151.212 29.1392 150.603 29.0215 150.066 28.7862C149.532 28.5509 149.109 28.2244 148.798 27.8068C148.49 27.3859 148.324 26.8987 148.301 26.3452H149.862C149.882 26.6468 149.983 26.9086 150.165 27.1307C150.351 27.3494 150.593 27.5185 150.891 27.6378C151.189 27.7571 151.521 27.8168 151.885 27.8168C152.286 27.8168 152.641 27.7472 152.949 27.608C153.261 27.4687 153.504 27.2749 153.68 27.0263C153.856 26.7744 153.944 26.4844 153.944 26.1562C153.944 25.8149 153.856 25.5149 153.68 25.2564C153.508 24.9946 153.254 24.7891 152.919 24.6399C152.588 24.4908 152.187 24.4162 151.716 24.4162H150.856V23.1634H151.716C152.094 23.1634 152.426 23.0954 152.711 22.9595C152.999 22.8236 153.224 22.6347 153.387 22.3928C153.549 22.1475 153.63 21.8608 153.63 21.5327C153.63 21.2178 153.559 20.9444 153.417 20.7124C153.277 20.477 153.078 20.2931 152.82 20.1605C152.565 20.0279 152.263 19.9616 151.915 19.9616C151.584 19.9616 151.274 20.023 150.985 20.1456C150.7 20.2649 150.468 20.4373 150.289 20.6626C150.11 20.8847 150.014 21.1515 150.001 21.4631H148.515C148.531 20.9129 148.694 20.429 149.002 20.0114C149.313 19.5937 149.724 19.2673 150.235 19.032C150.745 18.7966 151.312 18.679 151.935 18.679C152.588 18.679 153.151 18.8066 153.625 19.0618C154.103 19.3137 154.471 19.6501 154.729 20.071C154.991 20.492 155.12 20.9527 155.117 21.4531C155.12 22.0232 154.961 22.5071 154.64 22.9048C154.321 23.3026 153.897 23.5694 153.367 23.7053V23.7848C154.043 23.8875 154.567 24.156 154.938 24.5902C155.312 25.0244 155.498 25.563 155.495 26.206C155.498 26.7661 155.342 27.2682 155.027 27.7124C154.716 28.1565 154.29 28.5062 153.75 28.7614C153.209 29.0133 152.591 29.1392 151.895 29.1392ZM158.373 27.7372C158.101 27.7372 157.868 27.6411 157.672 27.4489C157.477 27.2533 157.379 27.018 157.379 26.7429C157.379 26.4711 157.477 26.2391 157.672 26.0469C157.868 25.8513 158.101 25.7536 158.373 25.7536C158.645 25.7536 158.879 25.8513 159.074 26.0469C159.27 26.2391 159.368 26.4711 159.368 26.7429C159.368 26.9252 159.321 27.0926 159.228 27.245C159.139 27.3942 159.02 27.5135 158.87 27.603C158.721 27.6925 158.556 27.7372 158.373 27.7372ZM158.373 22.6364C158.101 22.6364 157.868 22.5402 157.672 22.348C157.477 22.1525 157.379 21.9171 157.379 21.642C157.379 21.3703 157.477 21.1383 157.672 20.946C157.868 20.7505 158.101 20.6527 158.373 20.6527C158.645 20.6527 158.879 20.7505 159.074 20.946C159.27 21.1383 159.368 21.3703 159.368 21.642C159.368 21.8243 159.321 21.9917 159.228 22.1442C159.139 22.2933 159.02 22.4126 158.87 22.5021C158.721 22.5916 158.556 22.6364 158.373 22.6364ZM164.7 29.1392C164.076 29.1392 163.516 29.0199 163.019 28.7812C162.525 28.5393 162.131 28.2079 161.836 27.7869C161.541 27.366 161.384 26.8854 161.364 26.3452H162.855C162.892 26.7827 163.085 27.1423 163.437 27.424C163.788 27.7057 164.209 27.8466 164.7 27.8466C165.091 27.8466 165.437 27.7571 165.739 27.5781C166.044 27.3958 166.282 27.1456 166.455 26.8274C166.63 26.5092 166.718 26.1463 166.718 25.7386C166.718 25.3243 166.629 24.9548 166.45 24.63C166.271 24.3052 166.024 24.05 165.709 23.8643C165.397 23.6787 165.039 23.5843 164.635 23.581C164.327 23.581 164.017 23.634 163.705 23.7401C163.394 23.8461 163.142 23.9853 162.95 24.1577L161.543 23.9489L162.114 18.8182H167.712V20.1357H163.392L163.069 22.9844H163.129C163.327 22.7921 163.591 22.6314 163.919 22.5021C164.25 22.3729 164.605 22.3082 164.983 22.3082C165.603 22.3082 166.155 22.4557 166.638 22.7507C167.126 23.0457 167.509 23.4484 167.787 23.9588C168.069 24.4659 168.208 25.0492 168.205 25.7088C168.208 26.3684 168.059 26.9567 167.757 27.4737C167.459 27.9908 167.045 28.3984 166.514 28.6967C165.987 28.9917 165.382 29.1392 164.7 29.1392ZM173.406 18.679C173.86 18.6823 174.308 18.7652 174.748 18.9276C175.189 19.09 175.587 19.3551 175.942 19.723C176.3 20.0909 176.585 20.5881 176.797 21.2145C177.012 21.8376 177.122 22.6132 177.125 23.5412C177.125 24.4328 177.035 25.2266 176.856 25.9226C176.677 26.6153 176.421 27.2003 176.086 27.6776C175.754 28.1548 175.352 28.5178 174.878 28.7663C174.404 29.0149 173.87 29.1392 173.277 29.1392C172.67 29.1392 172.132 29.0199 171.661 28.7812C171.19 28.5426 170.808 28.2128 170.513 27.7919C170.218 27.3677 170.034 26.8804 169.961 26.3303H171.477C171.577 26.7678 171.779 27.1224 172.084 27.3942C172.392 27.6626 172.79 27.7969 173.277 27.7969C174.023 27.7969 174.604 27.4721 175.022 26.8224C175.439 26.1695 175.65 25.258 175.653 24.0881H175.574C175.401 24.3731 175.186 24.6184 174.927 24.8239C174.672 25.0294 174.385 25.1884 174.067 25.3011C173.749 25.4138 173.409 25.4702 173.048 25.4702C172.461 25.4702 171.928 25.326 171.447 25.0376C170.967 24.7493 170.584 24.3532 170.299 23.8494C170.014 23.3456 169.871 22.7706 169.871 22.1243C169.871 21.4813 170.017 20.898 170.309 20.3743C170.604 19.8506 171.015 19.4363 171.542 19.1314C172.072 18.8232 172.693 18.6723 173.406 18.679ZM173.411 19.9716C173.023 19.9716 172.674 20.0677 172.362 20.2599C172.054 20.4489 171.81 20.7057 171.631 21.0305C171.452 21.352 171.363 21.71 171.363 22.1044C171.363 22.4988 171.449 22.8568 171.621 23.1783C171.797 23.4964 172.036 23.75 172.337 23.9389C172.642 24.1245 172.99 24.2173 173.381 24.2173C173.673 24.2173 173.945 24.161 174.197 24.0483C174.448 23.9356 174.669 23.7798 174.858 23.581C175.047 23.3788 175.194 23.1501 175.3 22.8949C175.406 22.6397 175.459 22.3712 175.459 22.0895C175.459 21.715 175.37 21.367 175.191 21.0455C175.015 20.724 174.773 20.4654 174.465 20.2699C174.157 20.071 173.805 19.9716 173.411 19.9716ZM181.799 23.9091C181.799 25.1586 181.635 26.3071 181.307 27.3544C180.979 28.4018 180.5 29.3679 179.87 30.2528H178.508C178.753 29.9247 178.982 29.522 179.194 29.0447C179.406 28.5675 179.592 28.0455 179.751 27.4787C179.91 26.9086 180.034 26.3187 180.124 25.7088C180.213 25.099 180.258 24.4991 180.258 23.9091C180.258 23.1236 180.18 22.3265 180.025 21.5178C179.869 20.709 179.658 19.9583 179.393 19.2656C179.128 18.5729 178.833 18.0078 178.508 17.5703H179.87C180.5 18.4553 180.979 19.4214 181.307 20.4688C181.635 21.5161 181.799 22.6629 181.799 23.9091Z" fill="black"/>
<rect x="10.6" y="9.6" width="215.8" height="28.8" rx="8.4" stroke="#6041FF" stroke-width="1.2"/>
</g>
<defs>
<filter id="filter0_d_2462_874" x="0" y="0" width="237" height="50" filterUnits="userSpaceOnUse" color-interpolation-filters="sRGB">
<feFlood flood-opacity="0" result="BackgroundImageFix"/>
<feColorMatrix in="SourceAlpha" type="matrix" values="0 0 0 0 0 0 0 0 0 0 0 0 0 0 0 0 0 0 127 0" result="hardAlpha"/>
<feOffset dy="1"/>
<feGaussianBlur stdDeviation="5"/>
<feComposite in2="hardAlpha" operator="out"/>
<feColorMatrix type="matrix" values="0 0 0 0 0 0 0 0 0 0 0 0 0 0 0 0 0 0 0.15 0"/>
<feBlend mode="normal" in2="BackgroundImageFix" result="effect1_dropShadow_2462_874"/>
<feBlend mode="normal" in="SourceGraphic" in2="effect1_dropShadow_2462_874" result="shape"/>
</filter>
</defs>
</svg>
