<svg width="223" height="39" viewBox="0 0 223 39" fill="none" xmlns="http://www.w3.org/2000/svg">
<rect width="223" height="39" rx="19.5" transform="matrix(1 0 0 -1 0 39)" fill="#8E6FFF"/>
<path d="M100.797 18.608H102.925V20.848H100.797V18.608ZM101.837 13.2C103.981 13.2 105.533 14.432 105.533 16.224C105.533 17.984 103.981 19.216 101.837 19.216C99.6933 19.216 98.1413 17.984 98.1413 16.224C98.1413 14.432 99.6933 13.2 101.837 13.2ZM101.837 14.8C100.829 14.8 100.125 15.312 100.125 16.224C100.125 17.12 100.829 17.632 101.837 17.632C102.861 17.632 103.549 17.12 103.549 16.224C103.549 15.312 102.861 14.8 101.837 14.8ZM107.053 12.624H109.181V23.92H107.053V12.624ZM108.429 17.264H111.037V19.008H108.429V17.264ZM99.2933 25.456H109.677V27.168H99.2933V25.456ZM99.2933 22.944H101.437V26.192H99.2933V22.944ZM97.6133 22L97.3733 20.304C99.8853 20.304 103.357 20.288 106.269 19.872L106.413 21.392C103.421 21.952 100.061 22 97.6133 22ZM115.548 21.248H117.628V24.736H115.548V21.248ZM120.236 21.232H122.316V24.736H120.236V21.232ZM112.156 24.064H125.564V25.792H112.156V24.064ZM113.66 13.568H124.06V18.48H115.804V20.992H113.692V16.816H121.948V15.248H113.66V13.568ZM113.692 20.096H124.396V21.808H113.692V20.096Z" fill="white"/>
</svg>
