<svg width="84" height="50" viewBox="0 0 84 50" fill="none" xmlns="http://www.w3.org/2000/svg">
<g filter="url(#filter0_d_2462_877)">
<rect x="10" y="9" width="217" height="30" rx="9" fill="white"/>
<path d="M60.346 18.626H61.256V21.034C61.256 23.68 60.136 26.242 58.288 27.362L57.546 26.494C59.296 25.472 60.346 23.204 60.346 21.034V18.626ZM60.556 18.626H61.466V20.964C61.466 23.05 62.446 25.192 64.126 26.13L63.426 27.04C61.578 25.976 60.556 23.512 60.556 20.964V18.626ZM67.332 17.436H68.452V30.092H67.332V17.436ZM65.33 22.518H67.752V23.484H65.33V22.518ZM64.546 17.702H65.652V29.462H64.546V17.702ZM76.5569 19.466H80.2109V20.404H76.5569V19.466ZM76.5569 22.042H80.2389V22.98H76.5569V22.042ZM71.1949 18.178H72.3429V20.25H75.7729V18.178H76.9069V24.254H71.1949V18.178ZM72.3429 21.188V23.302H75.7729V21.188H72.3429ZM72.5389 25.64H80.9809V30.092H79.8189V26.592H72.5389V25.64ZM79.8189 17.436H80.9809V24.954H79.8189V17.436ZM84.1896 23.9091C84.1896 22.6629 84.3537 21.5161 84.6818 20.4688C85.0099 19.4214 85.4889 18.4553 86.1186 17.5703H87.4808C87.2356 17.8984 87.0069 18.3011 86.7947 18.7784C86.5826 19.2557 86.397 19.7794 86.2379 20.3494C86.0788 20.9162 85.9545 21.5045 85.8651 22.1143C85.7756 22.7209 85.7308 23.3191 85.7308 23.9091C85.7308 24.6979 85.8087 25.4967 85.9645 26.3054C86.1203 27.1141 86.3307 27.8648 86.5959 28.5575C86.861 29.2502 87.156 29.8153 87.4808 30.2528H86.1186C85.4889 29.3679 85.0099 28.4018 84.6818 27.3544C84.3537 26.3071 84.1896 25.1586 84.1896 23.9091ZM89.0282 29V27.8864L92.4735 24.3168C92.8414 23.929 93.1447 23.5893 93.3833 23.2976C93.6253 23.0026 93.8059 22.7225 93.9252 22.4574C94.0446 22.1922 94.1042 21.9105 94.1042 21.6122C94.1042 21.2741 94.0247 20.9825 93.8656 20.7372C93.7065 20.4886 93.4894 20.2981 93.2143 20.1655C92.9392 20.0296 92.6293 19.9616 92.2846 19.9616C91.92 19.9616 91.6019 20.0362 91.3301 20.1854C91.0583 20.3345 90.8495 20.545 90.7037 20.8168C90.5578 21.0885 90.4849 21.4067 90.4849 21.7713H89.0183C89.0183 21.1515 89.1608 20.6096 89.4458 20.1456C89.7309 19.6816 90.122 19.322 90.6191 19.0668C91.1163 18.8082 91.6814 18.679 92.3145 18.679C92.9541 18.679 93.5176 18.8066 94.0048 19.0618C94.4953 19.3137 94.8781 19.6584 95.1532 20.0959C95.4283 20.5301 95.5659 21.0206 95.5659 21.5675C95.5659 21.9453 95.4946 22.3149 95.3521 22.6761C95.2129 23.0374 94.9693 23.4401 94.6213 23.8842C94.2733 24.325 93.7894 24.8603 93.1696 25.4901L91.1461 27.608V27.6825H95.7299V29H89.0282ZM97.1816 27.0114V25.7685L101.581 18.8182H102.561V20.6477H101.939L98.7924 25.6293V25.7088H104.823V27.0114H97.1816ZM102.009 29V26.6335L102.019 26.0668V18.8182H103.476V29H102.009ZM107.555 27.7372C107.283 27.7372 107.049 27.6411 106.854 27.4489C106.658 27.2533 106.561 27.018 106.561 26.7429C106.561 26.4711 106.658 26.2391 106.854 26.0469C107.049 25.8513 107.283 25.7536 107.555 25.7536C107.827 25.7536 108.06 25.8513 108.256 26.0469C108.451 26.2391 108.549 26.4711 108.549 26.7429C108.549 26.9252 108.503 27.0926 108.41 27.245C108.32 27.3942 108.201 27.5135 108.052 27.603C107.903 27.6925 107.737 27.7372 107.555 27.7372ZM107.555 22.6364C107.283 22.6364 107.049 22.5402 106.854 22.348C106.658 22.1525 106.561 21.9171 106.561 21.642C106.561 21.3703 106.658 21.1383 106.854 20.946C107.049 20.7505 107.283 20.6527 107.555 20.6527C107.827 20.6527 108.06 20.7505 108.256 20.946C108.451 21.1383 108.549 21.3703 108.549 21.642C108.549 21.8243 108.503 21.9917 108.41 22.1442C108.32 22.2933 108.201 22.4126 108.052 22.5021C107.903 22.5916 107.737 22.6364 107.555 22.6364ZM114.065 29.169C113.28 29.1657 112.608 28.9586 112.052 28.5476C111.495 28.1366 111.069 27.5384 110.774 26.7528C110.479 25.9673 110.331 25.0211 110.331 23.9141C110.331 22.8104 110.479 21.8674 110.774 21.0852C111.072 20.303 111.5 19.7064 112.057 19.2955C112.617 18.8845 113.286 18.679 114.065 18.679C114.844 18.679 115.512 18.8861 116.069 19.3004C116.626 19.7114 117.051 20.308 117.346 21.0902C117.645 21.8691 117.794 22.8104 117.794 23.9141C117.794 25.0244 117.646 25.9723 117.351 26.7578C117.056 27.54 116.631 28.1383 116.074 28.5526C115.517 28.9635 114.847 29.169 114.065 29.169ZM114.065 27.8416C114.755 27.8416 115.293 27.5052 115.681 26.8324C116.072 26.1596 116.268 25.1868 116.268 23.9141C116.268 23.0689 116.178 22.3546 115.999 21.7713C115.823 21.1847 115.57 20.7405 115.238 20.4389C114.91 20.134 114.519 19.9815 114.065 19.9815C113.379 19.9815 112.84 20.3196 112.449 20.9957C112.058 21.6719 111.861 22.6446 111.858 23.9141C111.858 24.7625 111.946 25.4801 112.121 26.0668C112.3 26.6501 112.554 27.0926 112.882 27.3942C113.21 27.6925 113.604 27.8416 114.065 27.8416ZM123.102 29.169C122.317 29.1657 121.646 28.9586 121.089 28.5476C120.532 28.1366 120.106 27.5384 119.811 26.7528C119.516 25.9673 119.369 25.0211 119.369 23.9141C119.369 22.8104 119.516 21.8674 119.811 21.0852C120.109 20.303 120.537 19.7064 121.094 19.2955C121.654 18.8845 122.323 18.679 123.102 18.679C123.881 18.679 124.549 18.8861 125.106 19.3004C125.663 19.7114 126.089 20.308 126.384 21.0902C126.682 21.8691 126.831 22.8104 126.831 23.9141C126.831 25.0244 126.683 25.9723 126.388 26.7578C126.094 27.54 125.668 28.1383 125.111 28.5526C124.554 28.9635 123.884 29.169 123.102 29.169ZM123.102 27.8416C123.792 27.8416 124.33 27.5052 124.718 26.8324C125.109 26.1596 125.305 25.1868 125.305 23.9141C125.305 23.0689 125.215 22.3546 125.036 21.7713C124.861 21.1847 124.607 20.7405 124.276 20.4389C123.947 20.134 123.556 19.9815 123.102 19.9815C122.416 19.9815 121.878 20.3196 121.487 20.9957C121.095 21.6719 120.898 22.6446 120.895 23.9141C120.895 24.7625 120.983 25.4801 121.158 26.0668C121.337 26.6501 121.591 27.0926 121.919 27.3942C122.247 27.6925 122.642 27.8416 123.102 27.8416ZM132.444 25.0327C132.431 24.4593 132.515 23.9886 132.697 23.6207C132.883 23.2528 133.132 22.9811 133.443 22.8054C133.755 22.6264 134.098 22.5369 134.472 22.5369C134.804 22.5369 135.11 22.6082 135.392 22.7507C135.674 22.8899 135.995 23.1186 136.357 23.4368C136.582 23.6323 136.766 23.7749 136.908 23.8643C137.051 23.9505 137.21 23.9936 137.386 23.9936C137.654 23.9936 137.868 23.8942 138.027 23.6953C138.189 23.4931 138.267 23.1948 138.261 22.8004H139.518C139.532 23.3771 139.446 23.8494 139.26 24.2173C139.078 24.5852 138.829 24.857 138.514 25.0327C138.203 25.2083 137.861 25.2962 137.49 25.2962C137.155 25.2962 136.847 25.2249 136.565 25.0824C136.284 24.9366 135.964 24.7079 135.606 24.3963C135.374 24.1941 135.188 24.0516 135.049 23.9688C134.91 23.8826 134.752 23.8395 134.577 23.8395C134.321 23.8395 134.109 23.9323 133.94 24.1179C133.775 24.3002 133.695 24.6051 133.702 25.0327H132.444ZM148.69 29.1392C148.067 29.1392 147.507 29.0199 147.009 28.7812C146.516 28.5393 146.121 28.2079 145.826 27.7869C145.531 27.366 145.374 26.8854 145.354 26.3452H146.845C146.882 26.7827 147.076 27.1423 147.427 27.424C147.778 27.7057 148.199 27.8466 148.69 27.8466C149.081 27.8466 149.427 27.7571 149.729 27.5781C150.034 27.3958 150.272 27.1456 150.445 26.8274C150.62 26.5092 150.708 26.1463 150.708 25.7386C150.708 25.3243 150.619 24.9548 150.44 24.63C150.261 24.3052 150.014 24.05 149.699 23.8643C149.387 23.6787 149.03 23.5843 148.625 23.581C148.317 23.581 148.007 23.634 147.695 23.7401C147.384 23.8461 147.132 23.9853 146.94 24.1577L145.533 23.9489L146.105 18.8182H151.703V20.1357H147.382L147.059 22.9844H147.119C147.318 22.7921 147.581 22.6314 147.909 22.5021C148.241 22.3729 148.595 22.3082 148.973 22.3082C149.593 22.3082 150.145 22.4557 150.629 22.7507C151.116 23.0457 151.499 23.4484 151.777 23.9588C152.059 24.4659 152.198 25.0492 152.195 25.7088C152.198 26.3684 152.049 26.9567 151.747 27.4737C151.449 27.9908 151.035 28.3984 150.504 28.6967C149.977 28.9917 149.373 29.1392 148.69 29.1392ZM155.01 27.7372C154.738 27.7372 154.504 27.6411 154.309 27.4489C154.113 27.2533 154.016 27.018 154.016 26.7429C154.016 26.4711 154.113 26.2391 154.309 26.0469C154.504 25.8513 154.738 25.7536 155.01 25.7536C155.282 25.7536 155.515 25.8513 155.711 26.0469C155.906 26.2391 156.004 26.4711 156.004 26.7429C156.004 26.9252 155.958 27.0926 155.865 27.245C155.776 27.3942 155.656 27.5135 155.507 27.603C155.358 27.6925 155.192 27.7372 155.01 27.7372ZM155.01 22.6364C154.738 22.6364 154.504 22.5402 154.309 22.348C154.113 22.1525 154.016 21.9171 154.016 21.642C154.016 21.3703 154.113 21.1383 154.309 20.946C154.504 20.7505 154.738 20.6527 155.01 20.6527C155.282 20.6527 155.515 20.7505 155.711 20.946C155.906 21.1383 156.004 21.3703 156.004 21.642C156.004 21.8243 155.958 21.9917 155.865 22.1442C155.776 22.2933 155.656 22.4126 155.507 22.5021C155.358 22.5916 155.192 22.6364 155.01 22.6364ZM161.336 29.1392C160.713 29.1392 160.153 29.0199 159.656 28.7812C159.162 28.5393 158.768 28.2079 158.473 27.7869C158.178 27.366 158.02 26.8854 158 26.3452H159.492C159.528 26.7827 159.722 27.1423 160.074 27.424C160.425 27.7057 160.846 27.8466 161.336 27.8466C161.727 27.8466 162.074 27.7571 162.375 27.5781C162.68 27.3958 162.919 27.1456 163.091 26.8274C163.267 26.5092 163.355 26.1463 163.355 25.7386C163.355 25.3243 163.265 24.9548 163.086 24.63C162.907 24.3052 162.66 24.05 162.346 23.8643C162.034 23.6787 161.676 23.5843 161.272 23.581C160.963 23.581 160.654 23.634 160.342 23.7401C160.03 23.8461 159.779 23.9853 159.586 24.1577L158.179 23.9489L158.751 18.8182H164.349V20.1357H160.029L159.706 22.9844H159.765C159.964 22.7921 160.228 22.6314 160.556 22.5021C160.887 22.3729 161.242 22.3082 161.62 22.3082C162.239 22.3082 162.791 22.4557 163.275 22.7507C163.762 23.0457 164.145 23.4484 164.424 23.9588C164.705 24.4659 164.845 25.0492 164.841 25.7088C164.845 26.3684 164.695 26.9567 164.394 27.4737C164.096 27.9908 163.681 28.3984 163.151 28.6967C162.624 28.9917 162.019 29.1392 161.336 29.1392ZM170.043 18.679C170.497 18.6823 170.944 18.7652 171.385 18.9276C171.826 19.09 172.224 19.3551 172.578 19.723C172.936 20.0909 173.221 20.5881 173.433 21.2145C173.649 21.8376 173.758 22.6132 173.762 23.5412C173.762 24.4328 173.672 25.2266 173.493 25.9226C173.314 26.6153 173.057 27.2003 172.722 27.6776C172.391 28.1548 171.988 28.5178 171.514 28.7663C171.04 29.0149 170.507 29.1392 169.914 29.1392C169.307 29.1392 168.768 29.0199 168.298 28.7812C167.827 28.5426 167.444 28.2128 167.149 27.7919C166.854 27.3677 166.67 26.8804 166.597 26.3303H168.114C168.213 26.7678 168.415 27.1224 168.72 27.3942C169.029 27.6626 169.426 27.7969 169.914 27.7969C170.659 27.7969 171.241 27.4721 171.659 26.8224C172.076 26.1695 172.287 25.258 172.29 24.0881H172.21C172.038 24.3731 171.823 24.6184 171.564 24.8239C171.309 25.0294 171.022 25.1884 170.704 25.3011C170.386 25.4138 170.046 25.4702 169.685 25.4702C169.098 25.4702 168.565 25.326 168.084 25.0376C167.603 24.7493 167.221 24.3532 166.936 23.8494C166.651 23.3456 166.508 22.7706 166.508 22.1243C166.508 21.4813 166.654 20.898 166.945 20.3743C167.24 19.8506 167.651 19.4363 168.178 19.1314C168.709 18.8232 169.33 18.6723 170.043 18.679ZM170.048 19.9716C169.66 19.9716 169.31 20.0677 168.999 20.2599C168.691 20.4489 168.447 20.7057 168.268 21.0305C168.089 21.352 167.999 21.71 167.999 22.1044C167.999 22.4988 168.086 22.8568 168.258 23.1783C168.434 23.4964 168.672 23.75 168.974 23.9389C169.279 24.1245 169.627 24.2173 170.018 24.2173C170.31 24.2173 170.581 24.161 170.833 24.0483C171.085 23.9356 171.306 23.7798 171.494 23.581C171.683 23.3788 171.831 23.1501 171.937 22.8949C172.043 22.6397 172.096 22.3712 172.096 22.0895C172.096 21.715 172.007 21.367 171.828 21.0455C171.652 20.724 171.41 20.4654 171.102 20.2699C170.794 20.071 170.442 19.9716 170.048 19.9716ZM178.436 23.9091C178.436 25.1586 178.272 26.3071 177.944 27.3544C177.616 28.4018 177.137 29.3679 176.507 30.2528H175.145C175.39 29.9247 175.619 29.522 175.831 29.0447C176.043 28.5675 176.229 28.0455 176.388 27.4787C176.547 26.9086 176.671 26.3187 176.761 25.7088C176.85 25.099 176.895 24.4991 176.895 23.9091C176.895 23.1236 176.817 22.3265 176.661 21.5178C176.505 20.709 176.295 19.9583 176.03 19.2656C175.765 18.5729 175.47 18.0078 175.145 17.5703H176.507C177.137 18.4553 177.616 19.4214 177.944 20.4688C178.272 21.5161 178.436 22.6629 178.436 23.9091Z" fill="black"/>
<rect x="10.6" y="9.6" width="215.8" height="28.8" rx="8.4" stroke="#6041FF" stroke-width="1.2"/>
</g>
<defs>
<filter id="filter0_d_2462_877" x="0" y="0" width="237" height="50" filterUnits="userSpaceOnUse" color-interpolation-filters="sRGB">
<feFlood flood-opacity="0" result="BackgroundImageFix"/>
<feColorMatrix in="SourceAlpha" type="matrix" values="0 0 0 0 0 0 0 0 0 0 0 0 0 0 0 0 0 0 127 0" result="hardAlpha"/>
<feOffset dy="1"/>
<feGaussianBlur stdDeviation="5"/>
<feComposite in2="hardAlpha" operator="out"/>
<feColorMatrix type="matrix" values="0 0 0 0 0 0 0 0 0 0 0 0 0 0 0 0 0 0 0.15 0"/>
<feBlend mode="normal" in2="BackgroundImageFix" result="effect1_dropShadow_2462_877"/>
<feBlend mode="normal" in="SourceGraphic" in2="effect1_dropShadow_2462_877" result="shape"/>
</filter>
</defs>
</svg>
