<svg width="285" height="39" viewBox="0 0 285 39" fill="none" xmlns="http://www.w3.org/2000/svg">
<rect width="285" height="39" rx="19.5" transform="matrix(1 0 0 -1 0 39)" fill="#8E6FFF"/>
<path d="M124.007 12.592H126.135V27.456H124.007V12.592ZM121.399 18.288H124.487V20H121.399V18.288ZM117.127 16.448H118.791V17.216C118.791 20.336 117.447 23.488 114.759 24.688L113.623 23.056C116.023 21.952 117.127 19.44 117.127 17.216V16.448ZM117.591 16.448H119.239V17.216C119.239 19.344 120.375 21.744 122.775 22.816L121.655 24.432C118.935 23.28 117.591 20.24 117.591 17.216V16.448ZM114.118 15.024H122.199V16.704H114.118V15.024ZM117.127 12.944H119.255V15.888H117.127V12.944ZM135.125 12.88C138.389 12.88 140.485 13.984 140.485 15.776C140.485 17.568 138.389 18.656 135.125 18.656C131.861 18.656 129.765 17.568 129.765 15.776C129.765 13.984 131.861 12.88 135.125 12.88ZM135.125 14.528C133.093 14.528 131.957 14.928 131.957 15.776C131.957 16.608 133.093 17.024 135.125 17.024C137.141 17.024 138.293 16.608 138.293 15.776C138.293 14.928 137.141 14.528 135.125 14.528ZM129.973 22.208H140.213V27.264H129.973V22.208ZM138.133 23.888H132.069V25.584H138.133V23.888ZM128.421 19.504H141.813V21.184H128.421V19.504ZM149.844 13.344C152.964 13.344 155.38 15.056 155.38 17.632C155.38 20.224 152.964 21.92 149.844 21.92C146.724 21.92 144.308 20.224 144.308 17.632C144.308 15.056 146.724 13.344 149.844 13.344ZM149.844 15.072C147.828 15.072 146.388 16.032 146.388 17.632C146.388 19.216 147.828 20.176 149.844 20.176C151.86 20.176 153.3 19.216 153.3 17.632C153.3 16.032 151.86 15.072 149.844 15.072ZM143.156 23.904H156.564V25.648H143.156V23.904ZM157.875 24.064H171.283V25.792H157.875V24.064ZM163.491 21.264H165.619V24.768H163.491V21.264ZM159.379 13.568H169.779V18.496H161.523V20.992H159.411V16.832H167.667V15.248H159.379V13.568ZM159.411 20.144H170.115V21.856H159.411V20.144Z" fill="white"/>
</svg>
