<svg width="118" height="118" viewBox="0 0 118 118" fill="none" xmlns="http://www.w3.org/2000/svg">
<circle cx="59" cy="59" r="59" fill="#F6F6F6"/>
<path d="M43.5149 36.1875H75.2714C77.2151 36.1875 79.0791 36.9596 80.4534 38.3339C81.8278 39.7083 82.5999 41.5723 82.5999 43.5159V75.2724C82.5999 77.216 81.8278 79.08 80.4534 80.4544C79.0791 81.8287 77.2151 82.6008 75.2714 82.6008H43.5149C41.5713 82.6008 39.7073 81.8287 38.333 80.4544C36.9586 79.08 36.1865 77.216 36.1865 75.2724V43.5159C36.1865 41.5723 36.9586 39.7083 38.333 38.3339C39.7073 36.9596 41.5713 36.1875 43.5149 36.1875ZM43.5149 38.6303C42.2192 38.6303 40.9765 39.145 40.0603 40.0613C39.1441 40.9775 38.6293 42.2202 38.6293 43.5159V71.8281L49.109 61.324L55.216 67.431L67.43 55.217L80.1571 67.944V43.5159C80.1571 42.2202 79.6423 40.9775 78.7261 40.0613C77.8099 39.145 76.5672 38.6303 75.2714 38.6303H43.5149ZM55.216 70.8998L49.109 64.7928L38.6293 75.2724C38.6293 76.5682 39.1441 77.8108 40.0603 78.7271C40.9765 79.6433 42.2192 80.158 43.5149 80.158H75.2714C76.5672 80.158 77.8099 79.6433 78.7261 78.7271C79.6423 77.8108 80.1571 76.5682 80.1571 75.2724V71.3884L67.43 58.6858L55.216 70.8998ZM49.622 43.5159C51.2416 43.5159 52.795 44.1593 53.9403 45.3046C55.0856 46.4499 55.729 48.0033 55.729 49.6229C55.729 51.2426 55.0856 52.796 53.9403 53.9413C52.795 55.0865 51.2416 55.73 49.622 55.73C48.0023 55.73 46.4489 55.0865 45.3036 53.9413C44.1584 52.796 43.5149 51.2426 43.5149 49.6229C43.5149 48.0033 44.1584 46.4499 45.3036 45.3046C46.4489 44.1593 48.0023 43.5159 49.622 43.5159ZM49.622 45.9587C48.6502 45.9587 47.7181 46.3448 47.031 47.0319C46.3438 47.7191 45.9578 48.6511 45.9578 49.6229C45.9578 50.5947 46.3438 51.5268 47.031 52.2139C47.7181 52.9011 48.6502 53.2871 49.622 53.2871C50.5938 53.2871 51.5258 52.9011 52.213 52.2139C52.9001 51.5268 53.2862 50.5947 53.2862 49.6229C53.2862 48.6511 52.9001 47.7191 52.213 47.0319C51.5258 46.3448 50.5938 45.9587 49.622 45.9587Z" fill="#9E9E9E"/>
</svg>
