<svg width="552" height="60" viewBox="0 0 552 60" fill="none" xmlns="http://www.w3.org/2000/svg">
<rect width="552" height="60" rx="13" fill="#D9D9D9"/>
<path d="M26.9128 23.18H28.2128V26.62C28.2128 30.4 26.6128 34.06 23.9728 35.66L22.9128 34.42C25.4128 32.96 26.9128 29.72 26.9128 26.62V23.18ZM27.2128 23.18H28.5128V26.52C28.5128 29.5 29.9128 32.56 32.3128 33.9L31.3128 35.2C28.6728 33.68 27.2128 30.16 27.2128 26.52V23.18ZM36.8928 21.48H38.4928V39.56H36.8928V21.48ZM34.0328 28.74H37.4928V30.12H34.0328V28.74ZM32.9128 21.86H34.4928V38.66H32.9128V21.86ZM59.1239 21.46H60.7839V39.58H59.1239V21.46ZM47.0239 23H48.6639V27.78H53.8839V23H55.5439V35.22H47.0239V23ZM48.6639 29.1V33.86H53.8839V29.1H48.6639ZM65.3423 22.48H73.7623V29.88H65.3423V22.48ZM72.1623 23.8H66.9423V28.54H72.1623V23.8ZM77.5423 21.48H79.2023V30.78H77.5423V21.48ZM67.5023 31.68H79.2023V36.06H69.1623V38.6H67.5423V34.82H77.5623V33H67.5023V31.68ZM67.5423 38.04H79.8223V39.36H67.5423V38.04ZM91.3208 26.58H96.5208V27.94H91.3208V26.58ZM96.0008 21.5H97.6608V34.88H96.0008V21.5ZM86.0408 37.8H98.1008V39.16H86.0408V37.8ZM86.0408 33.58H87.7008V38.5H86.0408V33.58ZM83.6808 22.68H85.3208V25.88H90.2208V22.68H91.8408V31.8H83.6808V22.68ZM85.3208 27.18V30.44H90.2208V27.18H85.3208ZM101.999 24.12H116.679V25.48H101.999V24.12ZM101.199 36.08H117.579V37.46H101.199V36.08ZM108.539 33.22H110.179V36.62H108.539V33.22ZM109.339 26.7C112.999 26.7 115.259 27.96 115.259 30.14C115.259 32.32 112.999 33.58 109.339 33.58C105.699 33.58 103.439 32.32 103.439 30.14C103.439 27.96 105.699 26.7 109.339 26.7ZM109.339 28C106.719 28 105.099 28.8 105.099 30.14C105.099 31.48 106.719 32.26 109.339 32.26C111.979 32.26 113.579 31.48 113.579 30.14C113.579 28.8 111.979 28 109.339 28ZM108.539 21.78H110.179V24.96H108.539V21.78ZM128.79 29.96H130.45V32.28H128.79V29.96ZM136.41 21.5H138.07V33.62H136.41V21.5ZM137.37 26.96H140.71V28.34H137.37V26.96ZM124.17 33.1L123.95 31.74C127.19 31.74 131.59 31.74 135.33 31.2L135.47 32.38C131.61 33.06 127.33 33.08 124.17 33.1ZM126.19 34.52H138.07V39.56H136.41V35.84H126.19V34.52ZM124.41 23.12H134.79V24.36H124.41V23.12ZM129.61 25.06C132.15 25.06 133.81 26.08 133.81 27.74C133.81 29.4 132.15 30.42 129.61 30.42C127.05 30.42 125.39 29.4 125.39 27.74C125.39 26.08 127.05 25.06 129.61 25.06ZM129.61 26.2C127.99 26.2 126.95 26.78 126.95 27.74C126.95 28.66 127.99 29.26 129.61 29.26C131.21 29.26 132.25 28.66 132.25 27.74C132.25 26.78 131.21 26.2 129.61 26.2ZM128.79 21.34H130.45V23.72H128.79V21.34ZM155.609 21.5H157.289V34.7H155.609V21.5ZM145.669 37.8H157.829V39.16H145.669V37.8ZM145.669 33.34H147.309V38.26H145.669V33.34ZM147.589 22.74C150.289 22.74 152.289 24.58 152.289 27.2C152.289 29.8 150.289 31.66 147.589 31.66C144.889 31.66 142.869 29.8 142.869 27.2C142.869 24.58 144.889 22.74 147.589 22.74ZM147.589 24.18C145.829 24.18 144.489 25.42 144.489 27.2C144.489 28.96 145.829 30.2 147.589 30.2C149.349 30.2 150.689 28.96 150.689 27.2C150.689 25.42 149.349 24.18 147.589 24.18Z" fill="#999999"/>
</svg>
