<svg width="552" height="60" viewBox="0 0 552 60" fill="none" xmlns="http://www.w3.org/2000/svg">
<rect width="552" height="60" rx="13" fill="#D9D9D9"/>
<path d="M22.1423 32.86H34.2223V39.58H32.5423V34.22H22.1423V32.86ZM32.5423 21.5H34.2223V31.94H32.5423V21.5ZM20.5223 22.48H22.1623V29.84H20.5223V22.48ZM20.5223 29.1H21.9823C24.7223 29.1 27.5423 28.92 30.5823 28.3L30.8223 29.68C27.6623 30.3 24.8023 30.5 21.9823 30.5H20.5223V29.1ZM38.6608 23.42H40.3008V34.02H38.6608V23.42ZM38.6608 33.54H39.8208C41.9208 33.54 43.8808 33.44 46.1608 32.98L46.3808 34.4C44.0208 34.88 42.0008 34.98 39.8208 34.98H38.6608V33.54ZM51.5608 21.48H53.1608V39.56H51.5608V21.48ZM43.6808 27.54H48.2008V28.92H43.6808V27.54ZM47.7408 21.9H49.3008V38.64H47.7408V21.9ZM69.3392 21.5H71.0192V31.82H69.3392V21.5ZM59.3392 32.8H71.0192V39.32H59.3392V32.8ZM69.3792 34.12H60.9592V37.98H69.3792V34.12ZM61.3192 22.44C64.0592 22.44 66.0192 24.16 66.0192 26.66C66.0192 29.16 64.0592 30.88 61.3192 30.88C58.5792 30.88 56.5992 29.16 56.5992 26.66C56.5992 24.16 58.5792 22.44 61.3192 22.44ZM61.3192 23.82C59.5192 23.82 58.2192 24.98 58.2192 26.66C58.2192 28.34 59.5192 29.48 61.3192 29.48C63.1192 29.48 64.4192 28.34 64.4192 26.66C64.4192 24.98 63.1192 23.82 61.3192 23.82Z" fill="#999999"/>
</svg>
