<svg width="34" height="34" viewBox="0 0 34 34" fill="none" xmlns="http://www.w3.org/2000/svg">
<ellipse cx="17.4809" cy="16.5349" rx="16.52" ry="16.529" fill="#6041FF"/>
<path d="M17.6354 8.36914C17.9963 8.36914 18.2947 8.63735 18.3419 8.98551L18.3485 9.0823L18.3496 15.9777H25.2441C25.6378 15.9777 25.957 16.2971 25.957 16.691C25.957 17.0522 25.6888 17.3506 25.3409 17.3979L25.2441 17.4044H18.3496L18.3515 24.2988C18.3516 24.6927 18.0325 25.0123 17.6388 25.0123C17.2779 25.0123 16.9795 24.7441 16.9323 24.3959L16.9257 24.2991L16.9238 17.4044H10.0332C9.63949 17.4044 9.32031 17.085 9.32031 16.691C9.32031 16.3299 9.58851 16.0315 9.93649 15.9842L10.0332 15.9777H16.9238L16.9227 9.08259C16.9226 8.68864 17.2417 8.36914 17.6354 8.36914Z" fill="white"/>
</svg>
