<svg width="552" height="63" viewBox="0 0 552 63" fill="none" xmlns="http://www.w3.org/2000/svg">
<rect width="552" height="63" rx="31.5" fill="#8E6FFF"/>
<path d="M212.208 21.888H215.424V44.184H212.208V21.888ZM198.072 23.664H201.24V29.064H205.824V23.664H208.992V39H198.072V23.664ZM201.24 31.536V36.432H205.824V31.536H201.24ZM220.174 23.016H230.95V32.424H220.174V23.016ZM227.83 25.512H223.294V29.928H227.83V25.512ZM234.31 21.912H237.526V33.12H234.31V21.912ZM222.694 34.08H237.526V40.128H225.862V42.384H222.718V37.848H234.358V36.528H222.694V34.08ZM222.718 41.52H238.078V43.992H222.718V41.52ZM251.636 27.816H257.348V30.36H251.636V27.816ZM256.532 21.936H259.724V38.328H256.532V21.936ZM245.012 41.208H260.204V43.752H245.012V41.208ZM245.012 36.72H248.228V42.672H245.012V36.72ZM242.06 23.376H245.228V26.76H249.452V23.376H252.572V34.848H242.06V23.376ZM245.228 29.184V32.328H249.452V29.184H245.228ZM264.066 24.672H282.402V27.216H264.066V24.672ZM263.226 39.336H283.338V41.904H263.226V39.336ZM271.65 36.408H274.818V40.344H271.65V36.408ZM273.21 28.176C277.842 28.176 280.746 29.784 280.746 32.52C280.746 35.256 277.842 36.864 273.21 36.864C268.578 36.864 265.674 35.256 265.674 32.52C265.674 29.784 268.578 28.176 273.21 28.176ZM273.21 30.648C270.426 30.648 268.938 31.248 268.938 32.52C268.938 33.792 270.426 34.368 273.21 34.368C275.994 34.368 277.482 33.792 277.482 32.52C277.482 31.248 275.994 30.648 273.21 30.648ZM271.65 22.152H274.818V26.256H271.65V22.152ZM306.942 21.912H309.966V44.136H306.942V21.912ZM304.278 30.432H307.974V33.024H304.278V30.432ZM302.166 22.248H305.142V43.128H302.166V22.248ZM294.678 25.368H297.102V27.336C297.102 32.832 295.902 37.68 292.206 39.912L290.286 37.464C293.622 35.544 294.678 31.608 294.678 27.336V25.368ZM295.326 25.368H297.774V27.336C297.774 31.248 298.902 34.944 302.214 36.672L300.39 39.096C296.646 37.08 295.326 32.496 295.326 27.336V25.368ZM291.006 24.168H301.11V26.736H291.006V24.168ZM324.148 25.152H329.62V27.696H324.148V25.152ZM328.204 21.912H331.396V33.192H328.204V21.912ZM316.708 34.128H331.396V40.104H319.9V42.888H316.756V37.8H328.228V36.576H316.708V34.128ZM316.756 41.424H332.02V43.896H316.756V41.424ZM317.884 22.632H320.476V24.216C320.476 28.416 318.508 32.04 314.26 33.384L312.628 30.864C316.324 29.76 317.884 27.048 317.884 24.216V22.632ZM318.508 22.632H321.1V24.216C321.1 26.856 322.588 29.424 326.092 30.48L324.46 32.952C320.404 31.632 318.508 28.2 318.508 24.216V22.632ZM346.922 27.288H351.146V29.88H346.922V27.288ZM350.282 21.912H353.474V35.112H350.282V21.912ZM345.938 35.592C350.642 35.592 353.546 37.2 353.546 39.888C353.546 42.6 350.642 44.16 345.938 44.16C341.234 44.16 338.33 42.6 338.33 39.888C338.33 37.2 341.234 35.592 345.938 35.592ZM345.938 38.016C343.058 38.016 341.522 38.616 341.522 39.888C341.522 41.136 343.058 41.736 345.938 41.736C348.842 41.736 350.378 41.136 350.378 39.888C350.378 38.616 348.842 38.016 345.938 38.016ZM340.01 24.144H342.602V25.536C342.602 29.784 340.634 33.672 336.386 35.112L334.754 32.592C338.426 31.344 340.01 28.392 340.01 25.536V24.144ZM340.682 24.144H343.25V25.536C343.25 28.152 344.762 30.864 348.266 32.04L346.706 34.56C342.578 33.192 340.682 29.496 340.682 25.536V24.144ZM335.618 23.256H347.57V25.8H335.618V23.256Z" fill="white"/>
</svg>
