<svg width="83" height="29" viewBox="0 0 83 29" fill="none" xmlns="http://www.w3.org/2000/svg">
<path d="M19.324 14.764H20.486V16.976H19.324V14.764ZM14.186 14.358H25.624V15.296H14.186V14.358ZM19.898 16.626C22.614 16.626 24.238 17.424 24.238 18.852C24.238 20.266 22.614 21.064 19.898 21.064C17.182 21.064 15.558 20.266 15.558 18.852C15.558 17.424 17.182 16.626 19.898 16.626ZM19.898 17.522C17.924 17.522 16.734 17.998 16.734 18.852C16.734 19.692 17.924 20.168 19.898 20.168C21.886 20.168 23.062 19.692 23.062 18.852C23.062 17.998 21.886 17.522 19.898 17.522ZM19.156 9.472H20.192V9.85C20.192 11.894 17.868 13.266 15.25 13.588L14.83 12.664C17.098 12.426 19.156 11.292 19.156 9.85V9.472ZM19.646 9.472H20.668V9.85C20.668 11.292 22.726 12.426 24.994 12.664L24.574 13.588C21.956 13.266 19.646 11.894 19.646 9.85V9.472ZM15.236 9.01H24.602V9.948H15.236V9.01ZM27.0649 14.96H38.5029V15.912H27.0649V14.96ZM32.2169 13.07H33.3649V15.254H32.2169V13.07ZM28.3389 17.144H37.0889V21.092H35.9269V18.096H28.3389V17.144ZM28.5909 8.73H29.7389V10.158H35.8569V8.73H37.0189V13.462H28.5909V8.73ZM29.7389 11.068V12.538H35.8569V11.068H29.7389ZM47.1993 14.372H48.3613V15.996H47.1993V14.372ZM52.5333 8.45H53.6953V16.934H52.5333V8.45ZM53.2053 12.272H55.5433V13.238H53.2053V12.272ZM43.9653 16.57L43.8113 15.618C46.0793 15.618 49.1593 15.618 51.7773 15.24L51.8753 16.066C49.1733 16.542 46.1773 16.556 43.9653 16.57ZM45.3793 17.564H53.6953V21.092H52.5333V18.488H45.3793V17.564ZM44.1333 9.584H51.3993V10.452H44.1333V9.584ZM47.7733 10.942C49.5513 10.942 50.7133 11.656 50.7133 12.818C50.7133 13.98 49.5513 14.694 47.7733 14.694C45.9813 14.694 44.8193 13.98 44.8193 12.818C44.8193 11.656 45.9813 10.942 47.7733 10.942ZM47.7733 11.74C46.6393 11.74 45.9113 12.146 45.9113 12.818C45.9113 13.462 46.6393 13.882 47.7733 13.882C48.8933 13.882 49.6213 13.462 49.6213 12.818C49.6213 12.146 48.8933 11.74 47.7733 11.74ZM47.1993 8.338H48.3613V10.004H47.1993V8.338ZM65.9722 8.45H67.1482V17.69H65.9722V8.45ZM59.0142 19.86H67.5262V20.812H59.0142V19.86ZM59.0142 16.738H60.1622V20.182H59.0142V16.738ZM60.3582 9.318C62.2482 9.318 63.6482 10.606 63.6482 12.44C63.6482 14.26 62.2482 15.562 60.3582 15.562C58.4682 15.562 57.0542 14.26 57.0542 12.44C57.0542 10.606 58.4682 9.318 60.3582 9.318ZM60.3582 10.326C59.1262 10.326 58.1882 11.194 58.1882 12.44C58.1882 13.672 59.1262 14.54 60.3582 14.54C61.5902 14.54 62.5282 13.672 62.5282 12.44C62.5282 11.194 61.5902 10.326 60.3582 10.326Z" fill="black"/>
<rect x="0.5" y="0.5" width="82" height="28" rx="14" stroke="black"/>
</svg>
