<svg width="355" height="41" viewBox="0 0 355 41" fill="none" xmlns="http://www.w3.org/2000/svg">
<rect width="355" height="41" rx="20.5" fill="#8E6FFF"/>
<path d="M172.817 13.916H175.229V30.638H172.817V13.916ZM174.689 20.09H177.641V22.052H174.689V20.09ZM162.809 24.644H164.213C167.021 24.644 169.235 24.554 171.683 24.122L171.917 26.102C169.397 26.552 167.111 26.624 164.213 26.624H162.809V24.644ZM162.809 15.464H170.585V17.39H165.185V25.598H162.809V15.464ZM186.262 14.24C189.934 14.24 192.292 15.482 192.292 17.498C192.292 19.514 189.934 20.738 186.262 20.738C182.59 20.738 180.232 19.514 180.232 17.498C180.232 15.482 182.59 14.24 186.262 14.24ZM186.262 16.094C183.976 16.094 182.698 16.544 182.698 17.498C182.698 18.434 183.976 18.902 186.262 18.902C188.53 18.902 189.826 18.434 189.826 17.498C189.826 16.544 188.53 16.094 186.262 16.094ZM180.466 24.734H191.986V30.422H180.466V24.734ZM189.646 26.624H182.824V28.532H189.646V26.624ZM178.72 21.692H193.786V23.582H178.72V21.692Z" fill="white"/>
</svg>
