<svg width="355" height="41" viewBox="0 0 355 41" fill="none" xmlns="http://www.w3.org/2000/svg">
<rect width="355" height="41" rx="20.5" fill="#8E6FFF"/>
<path d="M153.9 26.822H168.984V28.766H153.9V26.822ZM160.218 23.672H162.612V27.614H160.218V23.672ZM155.592 15.014H167.292V20.558H158.004V23.366H155.628V18.686H164.916V16.904H155.592V15.014ZM155.628 22.412H167.67V24.338H155.628V22.412ZM171.989 15.464H182.555V17.354H171.989V15.464ZM170.459 26.48H185.525V28.424H170.459V26.48ZM181.295 15.464H183.671V17.444C183.671 19.784 183.671 22.052 183.077 25.472L180.683 25.274C181.295 22.07 181.295 19.694 181.295 17.444V15.464ZM198.447 13.952H200.859V25.922H198.447V13.952ZM189.753 28.406H201.273V30.314H189.753V28.406ZM189.753 24.716H192.147V29.18H189.753V24.716ZM191.787 14.996C194.343 14.996 196.305 16.76 196.305 19.226C196.305 21.674 194.343 23.456 191.787 23.456C189.231 23.456 187.251 21.674 187.251 19.226C187.251 16.76 189.231 14.996 191.787 14.996ZM191.787 17.066C190.545 17.066 189.591 17.858 189.591 19.226C189.591 20.576 190.545 21.368 191.787 21.368C193.011 21.368 193.965 20.576 193.965 19.226C193.965 17.858 193.011 17.066 191.787 17.066Z" fill="white"/>
</svg>
