<svg width="118" height="122" viewBox="0 0 118 122" fill="none" xmlns="http://www.w3.org/2000/svg">
<ellipse cx="59" cy="59.0323" rx="59" ry="59.0323" fill="#F6F6F6"/>
<path d="M43.5149 36.207H75.2714C77.2151 36.207 79.0791 36.9796 80.4534 38.3546C81.8278 39.7297 82.5999 41.5948 82.5999 43.5395V75.3133C82.5999 77.258 81.8278 79.123 80.4534 80.4981C79.0791 81.8732 77.2151 82.6457 75.2714 82.6457H43.5149C41.5713 82.6457 39.7073 81.8732 38.333 80.4981C36.9586 79.123 36.1865 77.258 36.1865 75.3133V43.5395C36.1865 41.5948 36.9586 39.7297 38.333 38.3546C39.7073 36.9796 41.5713 36.207 43.5149 36.207ZM43.5149 38.6512C42.2192 38.6512 40.9765 39.1662 40.0603 40.0829C39.1441 40.9997 38.6293 42.243 38.6293 43.5395V71.8671L49.109 61.3573L55.216 67.4676L67.43 55.2469L80.1571 67.9809V43.5395C80.1571 42.243 79.6423 40.9997 78.7261 40.0829C77.8099 39.1662 76.5672 38.6512 75.2714 38.6512H43.5149ZM55.216 70.9383L49.109 64.8279L38.6293 75.3133C38.6293 76.6098 39.1441 77.8531 40.0603 78.7699C40.9765 79.6866 42.2192 80.2016 43.5149 80.2016H75.2714C76.5672 80.2016 77.8099 79.6866 78.7261 78.7699C79.6423 77.8531 80.1571 76.6098 80.1571 75.3133V71.4271L67.43 58.7176L55.216 70.9383ZM49.622 43.5395C51.2416 43.5395 52.795 44.1832 53.9403 45.3291C55.0856 46.4751 55.729 48.0292 55.729 49.6498C55.729 51.2704 55.0856 52.8246 53.9403 53.9705C52.795 55.1164 51.2416 55.7602 49.622 55.7602C48.0023 55.7602 46.4489 55.1164 45.3036 53.9705C44.1584 52.8246 43.5149 51.2704 43.5149 49.6498C43.5149 48.0292 44.1584 46.4751 45.3036 45.3291C46.4489 44.1832 48.0023 43.5395 49.622 43.5395ZM49.622 45.9836C48.6502 45.9836 47.7181 46.3699 47.031 47.0574C46.3438 47.745 45.9578 48.6775 45.9578 49.6498C45.9578 50.6222 46.3438 51.5547 47.031 52.2422C47.7181 52.9298 48.6502 53.316 49.622 53.316C50.5938 53.316 51.5258 52.9298 52.213 52.2422C52.9001 51.5547 53.2862 50.6222 53.2862 49.6498C53.2862 48.6775 52.9001 47.745 52.213 47.0574C51.5258 46.3699 50.5938 45.9836 49.622 45.9836Z" fill="#9E9E9E"/>
<ellipse cx="101.48" cy="101.535" rx="16.52" ry="16.529" fill="#6041FF"/>
<path d="M101.635 93.3691C101.996 93.3691 102.295 93.6374 102.342 93.9855L102.348 94.0823L102.35 100.978H109.244C109.638 100.978 109.957 101.297 109.957 101.691C109.957 102.052 109.689 102.351 109.341 102.398L109.244 102.404H102.35L102.352 109.299C102.352 109.693 102.033 110.012 101.639 110.012C101.278 110.012 100.98 109.744 100.932 109.396L100.926 109.299L100.924 102.404H94.0332C93.6395 102.404 93.3203 102.085 93.3203 101.691C93.3203 101.33 93.5885 101.031 93.9365 100.984L94.0332 100.978H100.924L100.923 94.0826C100.923 93.6886 101.242 93.3691 101.635 93.3691Z" fill="white"/>
</svg>
