<svg width="355" height="41" viewBox="0 0 355 41" fill="none" xmlns="http://www.w3.org/2000/svg">
<rect width="355" height="41" rx="20.5" fill="#8E6FFF"/>
<path d="M133.146 17.326H136.53V19.234H133.146V17.326ZM133.056 21.484H136.458V23.392H133.056V21.484ZM138.798 12.934H141.084V29.602H138.798V12.934ZM135.36 13.294H137.592V28.864H135.36V13.294ZM131.598 14.896H133.902C133.902 19.63 132.48 23.41 127.836 26.146L126.486 24.472C130.248 22.186 131.598 19.414 131.598 15.382V14.896ZM127.44 14.896H132.408V16.804H127.44V14.896ZM152.315 16.966H155.483V18.91H152.315V16.966ZM154.835 12.934H157.229V22.834H154.835V12.934ZM151.577 23.194C155.105 23.194 157.283 24.4 157.283 26.416C157.283 28.45 155.105 29.62 151.577 29.62C148.049 29.62 145.871 28.45 145.871 26.416C145.871 24.4 148.049 23.194 151.577 23.194ZM151.577 25.012C149.417 25.012 148.265 25.462 148.265 26.416C148.265 27.352 149.417 27.802 151.577 27.802C153.755 27.802 154.907 27.352 154.907 26.416C154.907 25.462 153.755 25.012 151.577 25.012ZM147.131 14.608H149.075V15.652C149.075 18.838 147.599 21.754 144.413 22.834L143.189 20.944C145.943 20.008 147.131 17.794 147.131 15.652V14.608ZM147.635 14.608H149.561V15.652C149.561 17.614 150.695 19.648 153.323 20.53L152.153 22.42C149.057 21.394 147.635 18.622 147.635 15.652V14.608ZM143.837 13.942H152.801V15.85H143.837V13.942ZM167.009 13.942H168.881V15.868C168.881 18.694 167.747 21.52 165.029 22.672L163.769 20.818C166.091 19.792 167.009 17.74 167.009 15.868V13.942ZM167.441 13.942H169.313V15.868C169.313 17.65 170.213 19.45 172.409 20.314L171.131 22.132C168.539 21.106 167.441 18.586 167.441 15.868V13.942ZM175.937 12.952H178.205V23.122H175.937V12.952ZM173.939 16.984H176.585V18.91H173.939V16.984ZM172.409 13.258H174.641V22.6H172.409V13.258ZM172.553 23.356C176.045 23.356 178.295 24.526 178.295 26.488C178.295 28.432 176.045 29.602 172.553 29.602C169.043 29.602 166.829 28.432 166.829 26.488C166.829 24.526 169.043 23.356 172.553 23.356ZM172.553 25.156C170.411 25.156 169.205 25.606 169.205 26.488C169.205 27.37 170.411 27.802 172.553 27.802C174.695 27.802 175.883 27.37 175.883 26.488C175.883 25.606 174.695 25.156 172.553 25.156ZM184.432 13.798H186.43V15.292C186.43 18.64 184.936 21.574 181.66 22.672L180.418 20.746C183.262 19.828 184.432 17.578 184.432 15.292V13.798ZM184.936 13.798H186.862V15.184C186.862 17.398 187.942 19.45 190.588 20.296L189.346 22.168C186.268 21.106 184.936 18.424 184.936 15.184V13.798ZM192.118 12.934H194.512V22.69H192.118V12.934ZM188.86 23.122C192.388 23.122 194.566 24.328 194.566 26.362C194.566 28.414 192.388 29.602 188.86 29.602C185.332 29.602 183.154 28.414 183.154 26.362C183.154 24.328 185.332 23.122 188.86 23.122ZM188.86 24.976C186.7 24.976 185.548 25.426 185.548 26.362C185.548 27.298 186.7 27.766 188.86 27.766C191.038 27.766 192.19 27.298 192.19 26.362C192.19 25.426 191.038 24.976 188.86 24.976ZM189.076 15.958H192.46V17.902H189.076V15.958ZM207.812 12.934H210.188V29.602H207.812V12.934ZM209.648 19.432H212.6V21.43H209.648V19.432ZM197.048 15.4H206.75V17.308H197.048V15.4ZM201.926 18.244C204.356 18.244 206.156 19.9 206.156 22.222C206.156 24.544 204.356 26.2 201.926 26.2C199.496 26.2 197.696 24.544 197.696 22.222C197.696 19.9 199.496 18.244 201.926 18.244ZM201.926 20.188C200.792 20.188 199.982 20.944 199.982 22.222C199.982 23.5 200.792 24.256 201.926 24.256C203.06 24.256 203.87 23.5 203.87 22.222C203.87 20.944 203.06 20.188 201.926 20.188ZM200.72 13.204H203.114V16.12H200.72V13.204ZM225.163 12.934H227.575V29.602H225.163V12.934ZM220.249 14.662H222.625C222.625 19.756 220.897 23.932 214.975 26.794L213.733 24.886C218.521 22.582 220.249 19.558 220.249 15.094V14.662ZM214.615 14.662H221.383V16.552H214.615V14.662Z" fill="white"/>
</svg>
