<svg width="355" height="41" viewBox="0 0 355 41" fill="none" xmlns="http://www.w3.org/2000/svg">
<rect width="355" height="41" rx="20.5" fill="#8E6FFF"/>
<path d="M130.156 13.916H132.568V30.638H130.156V13.916ZM119.554 15.248H121.93V19.298H125.368V15.248H127.744V26.75H119.554V15.248ZM121.93 21.152V24.824H125.368V21.152H121.93ZM136.13 14.762H144.212V21.818H136.13V14.762ZM141.872 16.634H138.47V19.946H141.872V16.634ZM146.732 13.934H149.144V22.34H146.732V13.934ZM138.02 23.06H149.144V27.596H140.396V29.288H138.038V25.886H146.768V24.896H138.02V23.06ZM138.038 28.64H149.558V30.494H138.038V28.64ZM159.727 18.362H164.011V20.27H159.727V18.362ZM163.399 13.952H165.793V26.246H163.399V13.952ZM154.759 28.406H166.153V30.314H154.759V28.406ZM154.759 25.04H157.171V29.504H154.759V25.04ZM152.545 15.032H154.921V17.57H158.089V15.032H160.429V23.636H152.545V15.032ZM154.921 19.388V21.746H158.089V19.388H154.921ZM169.05 16.004H182.802V17.912H169.05V16.004ZM168.42 27.002H183.504V28.928H168.42V27.002ZM174.738 24.806H177.114V27.758H174.738V24.806ZM175.908 18.632C179.382 18.632 181.56 19.838 181.56 21.89C181.56 23.942 179.382 25.148 175.908 25.148C172.434 25.148 170.256 23.942 170.256 21.89C170.256 19.838 172.434 18.632 175.908 18.632ZM175.908 20.486C173.82 20.486 172.704 20.936 172.704 21.89C172.704 22.844 173.82 23.276 175.908 23.276C177.996 23.276 179.112 22.844 179.112 21.89C179.112 20.936 177.996 20.486 175.908 20.486ZM174.738 14.114H177.114V17.192H174.738V14.114ZM201.206 13.934H203.474V30.602H201.206V13.934ZM199.208 20.324H201.98V22.268H199.208V20.324ZM197.624 14.186H199.856V29.846H197.624V14.186ZM192.008 16.526H193.826V18.002C193.826 22.124 192.926 25.76 190.154 27.434L188.714 25.598C191.216 24.158 192.008 21.206 192.008 18.002V16.526ZM192.494 16.526H194.33V18.002C194.33 20.936 195.176 23.708 197.66 25.004L196.292 26.822C193.484 25.31 192.494 21.872 192.494 18.002V16.526ZM189.254 15.626H196.832V17.552H189.254V15.626ZM214.111 16.364H218.215V18.272H214.111V16.364ZM217.153 13.934H219.547V22.394H217.153V13.934ZM208.531 23.096H219.547V27.578H210.925V29.666H208.567V25.85H217.171V24.932H208.531V23.096ZM208.567 28.568H220.015V30.422H208.567V28.568ZM209.413 14.474H211.357V15.662C211.357 18.812 209.881 21.53 206.695 22.538L205.471 20.648C208.243 19.82 209.413 17.786 209.413 15.662V14.474ZM209.881 14.474H211.825V15.662C211.825 17.642 212.941 19.568 215.569 20.36L214.345 22.214C211.303 21.224 209.881 18.65 209.881 15.662V14.474ZM231.192 17.966H234.36V19.91H231.192V17.966ZM233.712 13.934H236.106V23.834H233.712V13.934ZM230.454 24.194C233.982 24.194 236.16 25.4 236.16 27.416C236.16 29.45 233.982 30.62 230.454 30.62C226.926 30.62 224.748 29.45 224.748 27.416C224.748 25.4 226.926 24.194 230.454 24.194ZM230.454 26.012C228.294 26.012 227.142 26.462 227.142 27.416C227.142 28.352 228.294 28.802 230.454 28.802C232.632 28.802 233.784 28.352 233.784 27.416C233.784 26.462 232.632 26.012 230.454 26.012ZM226.008 15.608H227.952V16.652C227.952 19.838 226.476 22.754 223.29 23.834L222.066 21.944C224.82 21.008 226.008 18.794 226.008 16.652V15.608ZM226.512 15.608H228.438V16.652C228.438 18.614 229.572 20.648 232.2 21.53L231.03 23.42C227.934 22.394 226.512 19.622 226.512 16.652V15.608ZM222.714 14.942H231.678V16.85H222.714V14.942Z" fill="white"/>
</svg>
