<svg width="28" height="28" viewBox="0 0 28 28" fill="none" xmlns="http://www.w3.org/2000/svg">
<mask id="mask0_703_613" style="mask-type:alpha" maskUnits="userSpaceOnUse" x="0" y="0" width="28" height="28">
<rect width="28" height="28" fill="#D9D9D9"/>
</mask>
<g mask="url(#mask0_703_613)">
<path d="M13.9997 19.834C14.3302 19.834 14.6073 19.7222 14.8309 19.4986C15.0545 19.275 15.1663 18.9979 15.1663 18.6673C15.1663 18.3368 15.0545 18.0597 14.8309 17.8361C14.6073 17.6125 14.3302 17.5007 13.9997 17.5007C13.6691 17.5007 13.392 17.6125 13.1684 17.8361C12.9448 18.0597 12.833 18.3368 12.833 18.6673C12.833 18.9979 12.9448 19.275 13.1684 19.4986C13.392 19.7222 13.6691 19.834 13.9997 19.834ZM12.833 15.1673H15.1663V8.16732H12.833V15.1673ZM13.9997 25.6673C12.3858 25.6673 10.8691 25.3611 9.44968 24.7486C8.03023 24.1361 6.79551 23.3048 5.74551 22.2548C4.69551 21.2048 3.86426 19.9701 3.25176 18.5507C2.63926 17.1312 2.33301 15.6145 2.33301 14.0007C2.33301 12.3868 2.63926 10.8701 3.25176 9.45065C3.86426 8.03121 4.69551 6.79648 5.74551 5.74648C6.79551 4.69648 8.03023 3.86523 9.44968 3.25273C10.8691 2.64023 12.3858 2.33398 13.9997 2.33398C15.6136 2.33398 17.1302 2.64023 18.5497 3.25273C19.9691 3.86523 21.2038 4.69648 22.2538 5.74648C23.3038 6.79648 24.1351 8.03121 24.7476 9.45065C25.3601 10.8701 25.6663 12.3868 25.6663 14.0007C25.6663 15.6145 25.3601 17.1312 24.7476 18.5507C24.1351 19.9701 23.3038 21.2048 22.2538 22.2548C21.2038 23.3048 19.9691 24.1361 18.5497 24.7486C17.1302 25.3611 15.6136 25.6673 13.9997 25.6673ZM13.9997 23.334C16.6052 23.334 18.8122 22.4298 20.6205 20.6215C22.4288 18.8132 23.333 16.6062 23.333 14.0007C23.333 11.3951 22.4288 9.18815 20.6205 7.37982C18.8122 5.57148 16.6052 4.66732 13.9997 4.66732C11.3941 4.66732 9.18718 5.57148 7.37884 7.37982C5.57051 9.18815 4.66634 11.3951 4.66634 14.0007C4.66634 16.6062 5.57051 18.8132 7.37884 20.6215C9.18718 22.4298 11.3941 23.334 13.9997 23.334Z" fill="#D13333"/>
</g>
</svg>
