<svg width="47" height="47" viewBox="0 0 47 47" fill="none" xmlns="http://www.w3.org/2000/svg">
<mask id="mask0_596_1060" style="mask-type:alpha" maskUnits="userSpaceOnUse" x="0" y="0" width="47" height="47">
<rect width="47" height="47" fill="#D9D9D9"/>
</mask>
<g mask="url(#mask0_596_1060)">
<path d="M11.4556 33.4888C13.1202 32.2159 14.9806 31.2122 17.0368 30.4779C19.0931 29.7435 21.2473 29.3763 23.4993 29.3763C25.7514 29.3763 27.9056 29.7435 29.9618 30.4779C32.0181 31.2122 33.8785 32.2159 35.5431 33.4888C36.6855 32.1506 37.5749 30.6329 38.2113 28.9357C38.8478 27.2385 39.166 25.427 39.166 23.5013C39.166 19.1603 37.6401 15.464 34.5884 12.4122C31.5367 9.3605 27.8403 7.83464 23.4993 7.83464C19.1584 7.83464 15.462 9.3605 12.4103 12.4122C9.35855 15.464 7.83268 19.1603 7.83268 23.5013C7.83268 25.427 8.15091 27.2385 8.78737 28.9357C9.42383 30.6329 10.3132 32.1506 11.4556 33.4888ZM23.4993 25.4596C21.5737 25.4596 19.9499 24.7987 18.628 23.4768C17.3061 22.1549 16.6452 20.5312 16.6452 18.6055C16.6452 16.6798 17.3061 15.056 18.628 13.7341C19.9499 12.4122 21.5737 11.7513 23.4993 11.7513C25.425 11.7513 27.0488 12.4122 28.3707 13.7341C29.6926 15.056 30.3535 16.6798 30.3535 18.6055C30.3535 20.5312 29.6926 22.1549 28.3707 23.4768C27.0488 24.7987 25.425 25.4596 23.4993 25.4596ZM23.4993 43.0846C20.7903 43.0846 18.2445 42.5706 15.8618 41.5424C13.4792 40.5143 11.4066 39.119 9.64414 37.3565C7.88164 35.594 6.48633 33.5214 5.4582 31.1388C4.43008 28.7562 3.91602 26.2103 3.91602 23.5013C3.91602 20.7923 4.43008 18.2464 5.4582 15.8638C6.48633 13.4812 7.88164 11.4086 9.64414 9.64609C11.4066 7.88359 13.4792 6.48828 15.8618 5.46016C18.2445 4.43203 20.7903 3.91797 23.4993 3.91797C26.2084 3.91797 28.7542 4.43203 31.1368 5.46016C33.5195 6.48828 35.5921 7.88359 37.3546 9.64609C39.1171 11.4086 40.5124 13.4812 41.5405 15.8638C42.5686 18.2464 43.0827 20.7923 43.0827 23.5013C43.0827 26.2103 42.5686 28.7562 41.5405 31.1388C40.5124 33.5214 39.1171 35.594 37.3546 37.3565C35.5921 39.119 33.5195 40.5143 31.1368 41.5424C28.7542 42.5706 26.2084 43.0846 23.4993 43.0846ZM23.4993 39.168C25.2292 39.168 26.8612 38.915 28.3952 38.4091C29.9292 37.9032 31.3327 37.177 32.6056 36.2305C31.3327 35.2839 29.9292 34.5577 28.3952 34.0518C26.8612 33.5459 25.2292 33.293 23.4993 33.293C21.7695 33.293 20.1375 33.5459 18.6035 34.0518C17.0695 34.5577 15.666 35.2839 14.3931 36.2305C15.666 37.177 17.0695 37.9032 18.6035 38.4091C20.1375 38.915 21.7695 39.168 23.4993 39.168ZM23.4993 21.543C24.348 21.543 25.0497 21.2655 25.6046 20.7107C26.1594 20.1558 26.4368 19.4541 26.4368 18.6055C26.4368 17.7569 26.1594 17.0551 25.6046 16.5003C25.0497 15.9454 24.348 15.668 23.4993 15.668C22.6507 15.668 21.949 15.9454 21.3941 16.5003C20.8393 17.0551 20.5618 17.7569 20.5618 18.6055C20.5618 19.4541 20.8393 20.1558 21.3941 20.7107C21.949 21.2655 22.6507 21.543 23.4993 21.543Z" fill="#1C1B1F"/>
</g>
</svg>
