<svg width="68" height="68" viewBox="0 0 68 68" fill="none" xmlns="http://www.w3.org/2000/svg">
<mask id="mask0_596_1060" style="mask-type:alpha" maskUnits="userSpaceOnUse" x="0" y="0" width="68" height="68">
<rect width="68" height="68" fill="#D9D9D9"/>
</mask>
<g mask="url(#mask0_596_1060)">
<path d="M16.5743 48.4513C18.9827 46.6096 21.6743 45.1576 24.6493 44.0951C27.6243 43.0326 30.741 42.5013 33.9993 42.5013C37.2577 42.5013 40.3743 43.0326 43.3493 44.0951C46.3243 45.1576 49.016 46.6096 51.4243 48.4513C53.0771 46.5152 54.3639 44.3194 55.2848 41.8638C56.2056 39.4082 56.666 36.7874 56.666 34.0013C56.666 27.7207 54.4584 22.3728 50.0431 17.9576C45.6278 13.5423 40.2799 11.3346 33.9993 11.3346C27.7188 11.3346 22.3709 13.5423 17.9556 17.9576C13.5403 22.3728 11.3327 27.7207 11.3327 34.0013C11.3327 36.7874 11.7931 39.4082 12.7139 41.8638C13.6348 44.3194 14.9216 46.5152 16.5743 48.4513ZM33.9993 36.8346C31.2132 36.8346 28.8639 35.8784 26.9514 33.9659C25.0389 32.0534 24.0827 29.7041 24.0827 26.918C24.0827 24.1319 25.0389 21.7826 26.9514 19.8701C28.8639 17.9576 31.2132 17.0013 33.9993 17.0013C36.7855 17.0013 39.1348 17.9576 41.0473 19.8701C42.9598 21.7826 43.916 24.1319 43.916 26.918C43.916 29.7041 42.9598 32.0534 41.0473 33.9659C39.1348 35.8784 36.7855 36.8346 33.9993 36.8346ZM33.9993 62.3346C30.0799 62.3346 26.3966 61.5909 22.9493 60.1034C19.5021 58.6159 16.5035 56.5971 13.9535 54.0471C11.4035 51.4971 9.38477 48.4985 7.89727 45.0513C6.40977 41.6041 5.66602 37.9207 5.66602 34.0013C5.66602 30.0819 6.40977 26.3985 7.89727 22.9513C9.38477 19.5041 11.4035 16.5055 13.9535 13.9555C16.5035 11.4055 19.5021 9.38672 22.9493 7.89922C26.3966 6.41172 30.0799 5.66797 33.9993 5.66797C37.9188 5.66797 41.6021 6.41172 45.0494 7.89922C48.4966 9.38672 51.4952 11.4055 54.0452 13.9555C56.5952 16.5055 58.6139 19.5041 60.1014 22.9513C61.5889 26.3985 62.3327 30.0819 62.3327 34.0013C62.3327 37.9207 61.5889 41.6041 60.1014 45.0513C58.6139 48.4985 56.5952 51.4971 54.0452 54.0471C51.4952 56.5971 48.4966 58.6159 45.0494 60.1034C41.6021 61.5909 37.9188 62.3346 33.9993 62.3346ZM33.9993 56.668C36.5021 56.668 38.8632 56.302 41.0827 55.5701C43.3021 54.8381 45.3327 53.7874 47.1744 52.418C45.3327 51.0485 43.3021 49.9978 41.0827 49.2659C38.8632 48.5339 36.5021 48.168 33.9993 48.168C31.4966 48.168 29.1355 48.5339 26.916 49.2659C24.6966 49.9978 22.666 51.0485 20.8243 52.418C22.666 53.7874 24.6966 54.8381 26.916 55.5701C29.1355 56.302 31.4966 56.668 33.9993 56.668ZM33.9993 31.168C35.2271 31.168 36.2424 30.7666 37.0452 29.9638C37.848 29.161 38.2493 28.1457 38.2493 26.918C38.2493 25.6902 37.848 24.6749 37.0452 23.8721C36.2424 23.0694 35.2271 22.668 33.9993 22.668C32.7716 22.668 31.7563 23.0694 30.9535 23.8721C30.1507 24.6749 29.7493 25.6902 29.7493 26.918C29.7493 28.1457 30.1507 29.161 30.9535 29.9638C31.7563 30.7666 32.7716 31.168 33.9993 31.168Z" fill="#1C1B1F"/>
</g>
</svg>
