<svg width="254" height="93" viewBox="0 0 254 93" fill="none" xmlns="http://www.w3.org/2000/svg">
<path d="M102.103 32.716H141.433V38.359H102.103V32.716ZM102.502 45.085H141.034V50.728H102.502V45.085ZM108.829 34.939H116.41V48.733H108.829V34.939ZM127.126 34.939H134.707V48.733H127.126V34.939ZM97.9421 53.464H145.651V59.392H97.9421V53.464ZM103.414 62.299H139.894V75.409H110.938V80.311H103.471V70.336H132.427V67.714H103.414V62.299ZM103.471 78.202H141.262V83.731H103.471V78.202ZM151.803 66.175H155.508C161.778 66.175 167.307 66.061 173.805 65.035L174.375 71.134C167.649 72.274 161.949 72.445 155.508 72.445H151.803V66.175ZM151.746 36.421H171.753V56.827H159.156V68.455H151.803V50.842H164.4V42.463H151.746V36.421ZM188.511 31.291H195.693V84.073H188.511V31.291ZM181.443 51.241H190.221V57.283H181.443V51.241ZM176.712 32.203H183.723V81.565H176.712V32.203ZM207.715 36.136H241.174V42.121H207.715V36.136ZM202.87 71.02H250.579V77.176H202.87V71.02ZM237.184 36.136H244.708V42.406C244.708 49.816 244.708 56.998 242.827 67.828L235.246 67.201C237.184 57.055 237.184 49.531 237.184 42.406V36.136Z" fill="#8E6FFF"/>
<path fill-rule="evenodd" clip-rule="evenodd" d="M15.2515 32.8649V15.5544C23.8545 15.2935 32.4582 16.3959 41.0619 17.4983C54.7501 19.2522 68.4384 21.0061 82.1237 17.2695V2.47554C68.4384 6.05965 54.7501 4.1532 41.0619 2.24676C27.3736 0.340321 13.6854 -1.56612 4.32226e-05 2.01799V2.25197H0V82.0292H15.2515V48.404C23.8545 48.1431 32.4582 49.2455 41.0619 50.3479C54.7501 52.1018 68.4384 53.8558 82.1237 50.1191V35.3251C68.4384 38.9093 54.7501 37.0028 41.0619 35.0964C32.4582 33.8981 23.8545 32.6998 15.2515 32.8649Z" fill="#8E6FFF"/>
</svg>
