<svg width="147" height="51" viewBox="0 0 147 51" fill="none" xmlns="http://www.w3.org/2000/svg">
<path fill-rule="evenodd" clip-rule="evenodd" d="M0 1.37178V1.23076C8.3466 -0.955168 16.695 0.20756 25.0434 1.37029C33.3918 2.53302 41.7401 3.69574 50.0867 1.50982V10.5326C41.7401 12.8115 33.3918 11.7418 25.0434 10.6721C19.796 9.99975 14.5487 9.32739 9.30182 9.48656V20.0454C14.5487 19.9447 19.796 20.6755 25.0434 21.4064C33.3918 22.5691 41.7401 23.7318 50.0867 21.5459V30.5687C41.7401 32.8476 33.3918 31.7779 25.0434 30.7082C19.796 30.0358 14.5487 29.3635 9.30182 29.5226V50.0275H0V30.8477V21.2668V10.8116V1.37178Z" fill="#8E6FFF"/>
<path d="M60.7029 19.0433H82.7829V22.2113H60.7029V19.0433ZM60.9269 25.9873H82.5589V29.1553H60.9269V25.9873ZM64.4789 20.2913H68.7349V28.0353H64.4789V20.2913ZM74.7509 20.2913H79.0069V28.0353H74.7509V20.2913ZM58.3669 30.6913H85.1509V34.0193H58.3669V30.6913ZM61.4389 35.6513H81.9189V43.0113H65.6629V45.7633H61.4709V40.1633H77.7269V38.6913H61.4389V35.6513ZM61.4709 44.5793H82.6869V47.6833H61.4709V44.5793ZM88.6044 37.8273H90.6844C94.2044 37.8273 97.3084 37.7633 100.956 37.1873L101.276 40.6113C97.5004 41.2513 94.3004 41.3473 90.6844 41.3473H88.6044V37.8273ZM88.5724 21.1233H99.8044V32.5793H92.7324V39.1073H88.6044V29.2193H95.6764V24.5153H88.5724V21.1233ZM109.212 18.2433H113.244V47.8753H109.212V18.2433ZM105.244 29.4433H110.172V32.8353H105.244V29.4433ZM102.588 18.7553H106.524V46.4673H102.588V18.7553ZM119.994 20.9633H138.778V24.3233H119.994V20.9633ZM117.274 40.5473H144.058V44.0033H117.274V40.5473ZM136.538 20.9633H140.762V24.4833C140.762 28.6433 140.762 32.6753 139.706 38.7553L135.45 38.4033C136.538 32.7073 136.538 28.4833 136.538 24.4833V20.9633Z" fill="#8E6FFF"/>
</svg>
