<svg width="356" height="49" viewBox="0 0 356 49" fill="none" xmlns="http://www.w3.org/2000/svg">
<rect width="356" height="49" rx="24.5" fill="#8E6FFF"/>
<path d="M129.15 16.916H131.562V33.638H129.15V16.916ZM122.58 18.086C125.1 18.086 126.954 20.39 126.954 24.026C126.954 27.698 125.1 30.002 122.58 30.002C120.06 30.002 118.206 27.698 118.206 24.026C118.206 20.39 120.06 18.086 122.58 18.086ZM122.58 20.264C121.338 20.264 120.492 21.578 120.492 24.026C120.492 26.51 121.338 27.842 122.58 27.842C123.822 27.842 124.65 26.51 124.65 24.026C124.65 21.578 123.822 20.264 122.58 20.264ZM134.747 18.644H141.335V29.444H134.747V18.644ZM139.103 20.516H136.979V27.572H139.103V20.516ZM146.321 16.934H148.607V33.602H146.321V16.934ZM140.129 22.982H143.873V24.908H140.129V22.982ZM142.919 17.186H145.169V32.846H142.919V17.186ZM155.535 17.42C158.073 17.42 159.981 19.004 159.981 21.236C159.981 23.45 158.073 25.034 155.535 25.034C152.997 25.034 151.089 23.45 151.089 21.236C151.089 19.004 152.997 17.42 155.535 17.42ZM155.535 19.364C154.311 19.364 153.393 20.048 153.393 21.236C153.393 22.424 154.311 23.108 155.535 23.108C156.759 23.108 157.659 22.424 157.659 21.236C157.659 20.048 156.759 19.364 155.535 19.364ZM162.285 16.934H164.697V25.268H162.285V16.934ZM153.573 25.952H164.697V30.524H155.949V32.54H153.609V28.796H162.321V27.806H153.573V25.952ZM153.609 31.568H165.111V33.422H153.609V31.568ZM180.033 19.724H184.281V21.614H180.033V19.724ZM180.033 23.306H184.353V25.196H180.033V23.306ZM183.417 16.952H185.811V29.246H183.417V16.952ZM174.777 31.406H186.171V33.314H174.777V31.406ZM174.777 28.04H177.189V32.504H174.777V28.04ZM172.563 18.032H174.939V20.57H178.107V18.032H180.447V26.636H172.563V18.032ZM174.939 22.388V24.746H178.107V22.388H174.939ZM196.447 19.562H200.353V21.47H196.447V19.562ZM196.321 23.018H200.227V24.926H196.321V23.018ZM199.975 16.934H202.369V26.528H199.975V16.934ZM194.539 18.068H197.095C197.095 22.604 194.539 25.52 189.481 26.906L188.545 25.016C192.775 23.918 194.539 21.83 194.539 19.22V18.068ZM189.463 18.068H196.213V19.976H189.463V18.068ZM196.843 26.744C200.227 26.744 202.477 28.04 202.477 30.128C202.477 32.216 200.227 33.53 196.843 33.53C193.459 33.53 191.209 32.216 191.209 30.128C191.209 28.04 193.459 26.744 196.843 26.744ZM196.843 28.58C194.809 28.58 193.585 29.102 193.585 30.128C193.585 31.154 194.809 31.658 196.843 31.658C198.895 31.658 200.119 31.154 200.119 30.128C200.119 29.102 198.895 28.58 196.843 28.58ZM215.67 16.934H218.046V33.602H215.67V16.934ZM217.506 23.432H220.458V25.43H217.506V23.432ZM204.906 19.4H214.608V21.308H204.906V19.4ZM209.784 22.244C212.214 22.244 214.014 23.9 214.014 26.222C214.014 28.544 212.214 30.2 209.784 30.2C207.354 30.2 205.554 28.544 205.554 26.222C205.554 23.9 207.354 22.244 209.784 22.244ZM209.784 24.188C208.65 24.188 207.84 24.944 207.84 26.222C207.84 27.5 208.65 28.256 209.784 28.256C210.918 28.256 211.728 27.5 211.728 26.222C211.728 24.944 210.918 24.188 209.784 24.188ZM208.578 17.204H210.972V20.12H208.578V17.204ZM233.02 16.934H235.432V33.602H233.02V16.934ZM228.106 18.662H230.482C230.482 23.756 228.754 27.932 222.832 30.794L221.59 28.886C226.378 26.582 228.106 23.558 228.106 19.094V18.662ZM222.472 18.662H229.24V20.552H222.472V18.662Z" fill="white"/>
</svg>
