<svg width="83" height="34" viewBox="0 0 83 34" fill="none" xmlns="http://www.w3.org/2000/svg">
<rect width="83" height="34" rx="17" fill="#A98AFF"/>
<path d="M20.3422 18.164H22.2042V20.264H20.3422V18.164ZM26.0122 10.282H27.8742V23.246H26.0122V10.282ZM17.3462 21.09L17.1222 19.592C19.4742 19.578 22.6102 19.578 25.3402 19.214L25.4662 20.558C22.6522 21.076 19.6422 21.09 17.3462 21.09ZM17.3742 11.71H25.1722V13.166H17.3742V11.71ZM21.2662 13.684C23.1842 13.684 24.5142 14.664 24.5142 16.106C24.5142 17.562 23.1842 18.542 21.2662 18.542C19.3762 18.542 18.0462 17.562 18.0462 16.106C18.0462 14.664 19.3762 13.684 21.2662 13.684ZM21.2662 15.084C20.4262 15.084 19.8242 15.448 19.8242 16.106C19.8242 16.778 20.4262 17.142 21.2662 17.142C22.1342 17.142 22.7362 16.778 22.7362 16.106C22.7362 15.448 22.1342 15.084 21.2662 15.084ZM20.3422 10.338H22.2042V12.55H20.3422V10.338ZM32.8051 16.932H34.6671V19.774H32.8051V16.932ZM38.4891 10.282H40.3511V20.096H38.4891V10.282ZM31.0131 21.538H40.6311V23.022H31.0131V21.538ZM31.0131 19.172H32.8751V21.93H31.0131V19.172ZM29.6131 17.492L29.3891 16.008C31.7551 16.008 34.9191 15.98 37.6351 15.63L37.7471 16.96C34.9891 17.422 31.9511 17.492 29.6131 17.492ZM36.0391 17.814H38.8951V19.088H36.0391V17.814ZM33.5611 10.73C35.4511 10.73 36.7811 11.668 36.7811 13.04C36.7811 14.426 35.4511 15.35 33.5611 15.35C31.6571 15.35 30.3271 14.426 30.3271 13.04C30.3271 11.668 31.6571 10.73 33.5611 10.73ZM33.5611 12.088C32.6931 12.088 32.0911 12.41 32.0911 13.04C32.0911 13.67 32.6931 13.992 33.5611 13.992C34.4151 13.992 35.0171 13.67 35.0171 13.04C35.0171 12.41 34.4151 12.088 33.5611 12.088ZM50.098 10.268H51.974V23.232H50.098V10.268ZM51.484 15.224H53.766V16.75H51.484V15.224ZM46.696 11.612H48.516C48.516 15.504 47.032 18.836 42.72 21.006L41.684 19.592C45.086 17.828 46.696 15.448 46.696 11.934V11.612ZM42.398 11.612H47.648V13.11H42.398V11.612ZM63.0929 10.282H64.9689V17.254H63.0929V10.282ZM56.3449 17.814H58.1789V19.018H63.1209V17.814H64.9689V23.106H56.3449V17.814ZM58.1789 20.446V21.622H63.1209V20.446H58.1789ZM57.9129 10.814C59.9289 10.814 61.4269 12.088 61.4269 13.88C61.4269 15.672 59.9289 16.946 57.9129 16.946C55.8969 16.946 54.3849 15.672 54.3849 13.88C54.3849 12.088 55.8969 10.814 57.9129 10.814ZM57.9129 12.354C56.9189 12.354 56.2049 12.928 56.2049 13.88C56.2049 14.846 56.9189 15.406 57.9129 15.406C58.8929 15.406 59.6069 14.846 59.6069 13.88C59.6069 12.928 58.8929 12.354 57.9129 12.354Z" fill="white"/>
</svg>
