<svg width="166" height="57" viewBox="0 0 166 57" fill="none" xmlns="http://www.w3.org/2000/svg">
<path d="M66.2708 17.956H91.8008V21.619H66.2708V17.956ZM66.5298 25.985H91.5418V29.648H66.5298V25.985ZM70.6368 19.399H75.5578V28.353H70.6368V19.399ZM82.5138 19.399H87.4348V28.353H82.5138V19.399ZM63.5698 31.424H94.5388V35.272H63.5698V31.424ZM67.1218 37.159H90.8018V45.669H72.0058V48.851H67.1588V42.376H85.9548V40.674H67.1218V37.159ZM67.1588 47.482H91.6898V51.071H67.1588V47.482ZM98.532 39.675H100.937C105.007 39.675 108.596 39.601 112.814 38.935L113.184 42.894C108.818 43.634 105.118 43.745 100.937 43.745H98.532V39.675ZM98.495 20.361H111.482V33.607H103.305V41.155H98.532V29.722H106.709V24.283H98.495V20.361ZM122.36 17.031H127.022V51.293H122.36V17.031ZM117.772 29.981H123.47V33.903H117.772V29.981ZM114.701 17.623H119.252V49.665H114.701V17.623ZM134.826 20.176H156.545V24.061H134.826V20.176ZM131.681 42.82H162.65V46.816H131.681V42.82ZM153.955 20.176H158.839V24.246C158.839 29.056 158.839 33.718 157.618 40.748L152.697 40.341C153.955 33.755 153.955 28.871 153.955 24.246V20.176Z" fill="#8E6FFF"/>
<path fill-rule="evenodd" clip-rule="evenodd" d="M0 1.45508V1.30456C8.84711 -1.01245 17.6961 0.220007 26.5451 1.45246C35.3941 2.68491 44.2431 3.91736 53.0902 1.60035V11.1642C44.2431 13.5798 35.3941 12.4459 26.5451 11.3121C20.9831 10.5994 15.4211 9.88672 9.85961 10.0554V21.2462C15.4211 21.1395 20.9831 21.9141 26.5451 22.6888C35.3941 23.9212 44.2431 25.1537 53.0902 22.8367V32.4005C44.2431 34.8161 35.3941 33.6823 26.5451 32.5484C20.9831 31.8357 15.4211 31.123 9.85961 31.2918V53.0284H0V32.6963V22.5409V11.46V1.45508Z" fill="#8E6FFF"/>
</svg>
